<svg xmlns="http://www.w3.org/2000/svg" viewBox="0 0 32 32"><path d="M 16.019531 4 C 14.800531 4 13.670266 4.5362969 12.822266 5.5292969 C 12.458266 5.9782969 12.195797 6.4540938 11.966797 6.8710938 L 11.921875 6.9609375 C 11.758875 7.2879375 11.586625 7.6279531 11.390625 8.0019531 L 11.347656 8.0976562 C 9.4156562 11.920656 7.7495156 15.392766 6.2285156 18.759766 L 6.1328125 18.966797 C 6.0678125 19.107797 6.0032656 19.252813 5.9472656 19.382812 L 5.8652344 19.560547 C 5.8052344 19.692547 5.7453125 19.826313 5.6953125 19.945312 C 5.5783125 20.211312 5.4600313 20.488125 5.3320312 20.828125 C 5.0190312 21.755125 4.9297812 22.596328 5.0507812 23.486328 C 5.3217813 25.323328 6.5394688 26.901469 8.2304688 27.605469 C 8.8754688 27.871469 9.5277031 28 10.220703 28 C 10.373703 28 10.602422 27.988125 10.857422 27.953125 C 11.693422 27.845125 12.507719 27.562094 13.261719 27.121094 C 14.14109 26.62514 15.005559 25.910936 15.966797 24.884766 L 16.005859 24.9375 L 16.021484 24.916016 C 16.920322 25.877945 17.791811 26.601406 18.675781 27.113281 C 19.443781 27.562281 20.257172 27.844219 21.076172 27.949219 C 21.343172 27.987219 21.575234 28 21.740234 28 C 22.424234 28 23.083891 27.870703 23.712891 27.595703 L 23.712891 27.597656 C 25.386891 26.925656 26.599625 25.379781 26.890625 23.550781 L 26.919922 23.386719 C 27.077922 22.607719 27.0005 21.777422 26.6875 20.857422 C 26.6475 20.738422 26.596359 20.6205 26.568359 20.5625 C 26.491359 20.3555 26.407844 20.160812 26.339844 20.007812 C 26.280844 19.859812 26.215344 19.720938 26.152344 19.585938 L 25.994141 19.228516 C 25.941141 19.108516 25.891938 18.990047 25.835938 18.873047 L 25.771484 18.748047 C 24.127484 15.121047 22.414594 11.555344 20.683594 8.1523438 L 20.599609 7.984375 C 20.415609 7.644375 20.230156 7.274 20.035156 6.875 L 19.978516 6.765625 C 19.773516 6.394625 19.563094 6.0137656 19.246094 5.6347656 L 19.199219 5.5742188 C 18.407219 4.5582187 17.277531 4 16.019531 4 z M 15.992188 6.0214844 C 16.583312 6.0122344 17.165719 6.2550469 17.574219 6.7480469 L 17.679688 6.8808594 C 17.889688 7.1208594 18.038078 7.3905 18.205078 7.6875 L 18.265625 7.8183594 C 18.450625 8.1873594 18.645172 8.5781562 18.826172 8.9101562 L 18.898438 9.0566406 C 20.619438 12.438641 22.3185 15.976875 23.9375 19.546875 L 24.080078 19.863281 L 24.091797 19.875 C 24.113797 19.925 24.136203 19.974391 24.158203 20.025391 L 24.337891 20.427734 C 24.385891 20.532734 24.435047 20.639016 24.498047 20.791016 C 24.560047 20.932016 24.629797 21.089359 24.716797 21.318359 C 24.742797 21.378359 24.771969 21.439 24.792969 21.5 L 24.794922 21.505859 C 25.003922 22.115859 25.049312 22.608734 24.945312 23.052734 L 24.919922 23.201172 C 24.748922 24.354172 24.000297 25.328484 22.904297 25.771484 C 22.580297 25.918484 22.167234 26 21.740234 26 C 21.646234 26 21.514703 25.991797 21.345703 25.966797 C 20.778703 25.894797 20.218688 25.699766 19.679688 25.384766 C 18.89316 24.929355 18.096613 24.245428 17.248047 23.298828 L 17.3125 23.214844 C 18.6805 21.428844 19.536469 19.796281 19.855469 18.363281 L 19.857422 18.355469 C 20.011422 17.645469 20.041219 16.976766 19.949219 16.384766 C 19.873219 15.809766 19.66675 15.259766 19.34375 14.759766 C 18.64875 13.657766 17.4 13 16 13 C 14.658 13 13.4195 13.638031 12.6875 14.707031 L 12.632812 14.798828 C 12.321812 15.294828 12.125687 15.826328 12.054688 16.361328 C 11.955688 16.997328 11.984625 17.649797 12.140625 18.341797 C 12.447625 19.786797 13.331453 21.475609 14.689453 23.224609 L 14.730469 23.277344 L 14.728516 23.279297 C 13.819516 24.283297 13.041625 24.949719 12.265625 25.386719 C 11.730625 25.698719 11.171844 25.895703 10.589844 25.970703 C 10.437844 25.992703 10.307703 26 10.220703 26 C 9.7867031 26 9.3960938 25.922813 8.9960938 25.757812 C 7.9520938 25.323812 7.19825 24.341078 7.03125 23.205078 C 6.95325 22.636078 7.0147969 22.101906 7.2167969 21.503906 C 7.3187969 21.231906 7.4232031 20.987281 7.5332031 20.738281 C 7.5822031 20.621281 7.6355 20.505625 7.6875 20.390625 L 7.7792969 20.183594 C 7.8352969 20.054594 7.8931719 19.926781 7.9511719 19.800781 L 8.0722656 19.53125 C 9.5592656 16.24225 11.214391 12.798797 13.150391 8.9667969 L 13.183594 8.8886719 C 13.360594 8.5516719 13.538984 8.1974219 13.708984 7.8574219 L 13.734375 7.8046875 C 13.916375 7.4756875 14.122375 7.1025469 14.359375 6.8105469 C 14.801375 6.2925469 15.401063 6.0307344 15.992188 6.0214844 z M 16 15 C 16.709 15 17.325297 15.307938 17.654297 15.835938 C 17.825297 16.099937 17.92775 16.365922 17.96875 16.669922 C 18.02575 17.032922 18.002344 17.468688 17.902344 17.929688 C 17.666344 18.986687 17.026141 20.231672 15.994141 21.638672 C 14.975141 20.261672 14.32075 18.985016 14.09375 17.916016 C 13.99075 17.460016 13.96825 17.052437 14.03125 16.648438 C 14.07025 16.365437 14.170797 16.099937 14.341797 15.835938 L 14.361328 15.802734 C 14.724328 15.298734 15.333 15 16 15 z"/></svg>