<svg xmlns="http://www.w3.org/2000/svg" viewBox="0 0 32 32"><path d="M 16.429688 6 C 13.666688 6 10.69675 6.281 8.34375 8 C 8.11575 8.138 7.9374844 8.4102344 8.0214844 8.8652344 C 8.0704844 9.0932344 8.2495625 10.089766 8.4765625 10.634766 C 8.6595625 11.089766 9.1108125 11.08925 9.3828125 10.90625 C 10.834812 9.91125 13.903531 9 16.394531 9 C 18.979531 9 19.023437 10.518672 19.023438 12.513672 L 19.023438 14.232422 C 15.121437 14.736422 8.7731875 15.776234 7.3671875 16.365234 C 5.7821875 17.093234 6.0117187 20.198625 6.0117188 21.015625 C 6.0117188 22.281625 6.6908906 26 11.587891 26 C 13.721891 26 17.438078 25.076094 19.205078 24.121094 L 19.205078 25.503906 C 19.205078 25.637906 19.300516 25.868203 19.478516 25.908203 C 19.616516 25.953203 21.391734 25.998047 21.802734 25.998047 C 22.213734 25.998047 24.592484 26.010797 24.771484 25.966797 C 24.954484 25.921797 25 25.694547 25 25.560547 L 25 12.070312 C 24.996 8.4863125 22.415688 6 16.429688 6 z M 19.019531 16.771484 L 19.019531 21.869141 C 18.064531 22.458141 16.298406 22.957031 14.941406 22.957031 C 12.584406 22.957031 11.962984 21.128906 11.958984 20.628906 C 11.958984 20.083906 11.824391 18.723578 12.775391 18.267578 C 13.860391 17.678578 17.023531 16.954484 19.019531 16.771484 z"/></svg>