<svg xmlns="http://www.w3.org/2000/svg" viewBox="0 0 32 32"><path d="M 12.8125 4 C 12.5 3.980469 12.179688 4.035156 11.875 4.15625 C 11.296875 4.390625 10.902344 4.902344 10.71875 5.40625 C 10.535156 5.910156 10.484375 6.425781 10.5 6.96875 C 10.527344 8.054688 10.800781 9.265625 11.125 10.4375 C 11.390625 11.398438 11.695313 12.296875 11.96875 13.0625 C 11.804688 13.03125 11.636719 13.023438 11.46875 13.03125 C 11.109375 13.050781 10.757813 13.167969 10.4375 13.375 C 9.65625 13.878906 9.183594 14.679688 9.09375 15.4375 C 9.011719 16.117188 9.171875 16.734375 9.375 17.28125 C 8.835938 17.335938 8.308594 17.515625 7.90625 17.90625 C 7.261719 18.535156 7 19.453125 7 20.53125 C 7 24.082031 8.890625 26.164063 10.90625 27.09375 C 12.921875 28.023438 15.039063 28 15.84375 28 C 16.71875 28 18.738281 27.925781 20.59375 26.65625 C 22.449219 25.386719 24 22.875 24 18.65625 C 24 18.292969 24.273438 16.664063 23.25 15.28125 C 23.03125 14.984375 22.734375 14.71875 22.40625 14.46875 C 22.605469 13.816406 23.082031 12.242188 23.46875 10.28125 C 23.707031 9.070313 23.894531 7.839844 23.875 6.78125 C 23.863281 6.25 23.816406 5.761719 23.625 5.28125 C 23.433594 4.800781 22.972656 4.261719 22.34375 4.125 C 21.707031 3.984375 21.050781 4.113281 20.53125 4.40625 C 20.011719 4.699219 19.628906 5.121094 19.28125 5.59375 C 18.589844 6.542969 18.078125 7.738281 17.6875 8.9375 C 17.554688 9.347656 17.453125 9.753906 17.34375 10.15625 C 17.171875 9.671875 16.988281 9.1875 16.78125 8.6875 C 16.28125 7.476563 15.695313 6.285156 14.96875 5.375 C 14.605469 4.917969 14.207031 4.515625 13.6875 4.25 C 13.425781 4.117188 13.125 4.019531 12.8125 4 Z M 12.65625 5.96875 C 12.679688 5.972656 12.714844 5.996094 12.78125 6.03125 C 12.914063 6.097656 13.152344 6.308594 13.40625 6.625 C 13.910156 7.257813 14.472656 8.316406 14.9375 9.4375 C 15.53125 10.863281 15.933594 12.101563 16.1875 13 C 16.164063 13 16.148438 13 16.125 13 C 15.425781 13 14.785156 13.289063 14.34375 13.71875 C 14.113281 13.15625 13.527344 11.699219 13.03125 9.90625 C 12.730469 8.816406 12.519531 7.71875 12.5 6.9375 C 12.488281 6.546875 12.542969 6.234375 12.59375 6.09375 C 12.617188 6.023438 12.628906 6.007813 12.625 6 C 12.636719 5.996094 12.644531 5.96875 12.65625 5.96875 Z M 21.65625 6.125 C 21.703125 6.125 21.742188 6.125 21.78125 6.125 C 21.820313 6.265625 21.867188 6.480469 21.875 6.8125 C 21.890625 7.597656 21.722656 8.734375 21.5 9.875 C 21.1875 11.460938 20.832031 12.742188 20.59375 13.5625 C 20.042969 13.390625 19.410156 13.25 18.6875 13.15625 C 18.839844 12.324219 19.105469 11.0625 19.59375 9.5625 C 19.949219 8.46875 20.40625 7.421875 20.875 6.78125 C 21.109375 6.460938 21.332031 6.25 21.5 6.15625 C 21.554688 6.125 21.609375 6.125 21.65625 6.125 Z M 16.125 15 C 19.8125 15 21.167969 15.84375 21.65625 16.5 C 22.144531 17.15625 22 17.835938 22 18.65625 C 22 22.410156 20.789063 24.097656 19.46875 25 C 18.148438 25.902344 16.570313 26 15.84375 26 C 15.046875 26 13.253906 25.976563 11.75 25.28125 C 10.246094 24.585938 9 23.4375 9 20.53125 C 9 19.78125 9.203125 19.421875 9.3125 19.3125 C 9.421875 19.203125 9.53125 19.160156 9.90625 19.25 C 10.511719 19.394531 11.574219 20.125 12.5625 21.4375 C 12.792969 21.742188 13.003906 22.070313 13.21875 22.4375 C 13.15625 22.511719 12.96875 22.625 12.84375 22.625 C 12.691406 22.625 12.546875 22.578125 12.28125 22.34375 C 12.015625 22.109375 11.691406 21.660156 11.34375 21.125 L 9.65625 22.21875 C 10.046875 22.824219 10.441406 23.367188 10.9375 23.8125 C 11.433594 24.257813 12.101563 24.625 12.84375 24.625 C 13.609375 24.625 14.285156 24.269531 14.75 23.71875 C 14.871094 23.578125 14.890625 23.371094 14.96875 23.1875 C 15.113281 23.597656 15.28125 23.972656 15.46875 24.25 C 15.890625 24.871094 16.40625 25.1875 16.40625 25.1875 L 17.5 23.53125 C 17.5 23.53125 17.351563 23.460938 17.125 23.125 C 16.898438 22.789063 16.65625 22.242188 16.65625 21.375 C 16.65625 21.0625 16.703125 20.808594 16.8125 20.59375 C 16.992188 20.242188 17.308594 20 17.65625 19.78125 C 18.214844 19.429688 18.78125 19.3125 18.78125 19.3125 C 19.226563 19.214844 19.550781 18.824219 19.566406 18.367188 C 19.582031 17.910156 19.28125 17.503906 18.84375 17.375 C 18.84375 17.375 17.257813 16.902344 16 16.53125 C 15.921875 16.507813 15.84375 16.460938 15.78125 16.40625 C 15.757813 16.386719 15.738281 16.367188 15.71875 16.34375 C 15.675781 16.273438 15.640625 16.195313 15.59375 16.125 C 15.539063 15.980469 15.515625 15.804688 15.53125 15.625 C 15.550781 15.410156 15.632813 15.25 15.71875 15.15625 C 15.804688 15.0625 15.875 15 16.125 15 Z M 11.5 15.03125 C 11.542969 15.003906 11.546875 15.003906 11.78125 15.09375 C 12.015625 15.183594 12.390625 15.425781 12.78125 15.8125 C 13.5625 16.585938 14.402344 17.878906 14.9375 19.25 C 15.0625 19.570313 15.035156 19.648438 15 19.71875 C 14.964844 19.789063 14.867188 19.886719 14.6875 19.96875 C 14.507813 20.050781 14.25 20.097656 14.09375 20.09375 C 13.9375 20.089844 13.960938 19.960938 14.15625 20.21875 L 14.09375 20.25 C 13.496094 19.425781 12.882813 18.753906 12.21875 18.25 C 12.21875 18.25 11.605469 17.519531 11.28125 16.71875 C 11.117188 16.316406 11.0625 15.914063 11.09375 15.65625 C 11.125 15.398438 11.160156 15.25 11.5 15.03125 Z"/></svg>