<svg xmlns="http://www.w3.org/2000/svg" viewBox="0 0 32 32"><path d="M 16 1.5859375 L 10.292969 7.2929688 L 11.707031 8.7070312 L 15 5.4140625 L 15 15 L 5.4140625 15 L 8.7070312 11.707031 L 7.2929688 10.292969 L 1.5859375 16 L 7.2929688 21.707031 L 8.7070312 20.292969 L 5.4140625 17 L 15 17 L 15 26.585938 L 11.707031 23.292969 L 10.292969 24.707031 L 16 30.414062 L 21.707031 24.707031 L 20.292969 23.292969 L 17 26.585938 L 17 17 L 26.585938 17 L 23.292969 20.292969 L 24.707031 21.707031 L 30.414062 16 L 24.707031 10.292969 L 23.292969 11.707031 L 26.585938 15 L 17 15 L 17 5.4140625 L 20.292969 8.7070312 L 21.707031 7.2929688 L 16 1.5859375 z"/></svg>