<svg xmlns="http://www.w3.org/2000/svg" viewBox="0 0 32 32"><path d="M 3.109375 11 L 0 17.570312 L 0.84960938 17.570312 L 1.8007812 15.480469 L 4.4101562 15.480469 L 5.3496094 17.570312 L 6.2207031 17.570312 L 3.109375 11 z M 17.5 11 L 14.380859 17.560547 L 15.25 17.560547 L 16.199219 15.470703 L 17.40625 15.470703 L 17.320312 17.400391 C 17.320312 17.400391 16.190781 17.729844 16.050781 18.589844 C 16.040781 18.609844 16.039062 18.630391 16.039062 18.650391 L 12.800781 18.550781 L 16.039062 18.960938 C 16.039062 19.070937 16.050313 19.169297 16.070312 19.279297 C 16.080313 19.409297 16.100859 19.520625 16.130859 19.640625 L 4 19 L 8.4296875 19.460938 L 8.4296875 19.779297 C 8.1396875 19.819297 7.9101562 20.080625 7.9101562 20.390625 C 7.9101562 20.730625 8.1892969 21.009766 8.5292969 21.009766 C 8.8692969 21.009766 9.1503906 20.730625 9.1503906 20.390625 C 9.1503906 20.080625 8.9191406 19.819297 8.6191406 19.779297 L 8.6191406 19.490234 L 12.640625 19.939453 L 12.640625 20.210938 C 12.360625 20.260938 12.140625 20.520312 12.140625 20.820312 C 12.140625 21.160312 12.419766 21.330078 12.759766 21.330078 C 13.099766 21.330078 13.380859 21.160312 13.380859 20.820312 C 13.380859 20.520312 13.170625 20.260938 12.890625 20.210938 L 12.890625 19.960938 L 14.310547 20.119141 L 14.310547 21.310547 L 14.009766 21.310547 L 14.009766 22 L 14.310547 22 L 14.310547 21.679688 L 14.560547 21.679688 L 14.560547 22 L 14.849609 22 L 14.849609 21.320312 L 14.560547 21.320312 L 14.560547 20.150391 L 16.480469 20.369141 C 16.880469 20.939141 17.419922 21.050781 17.419922 21.050781 L 17.419922 21.380859 L 17.169922 21.390625 L 17.160156 22 L 17.359375 22 L 17.369141 21.75 L 17.630859 21.75 L 17.640625 22 L 17.839844 22 L 17.830078 21.390625 L 17.580078 21.380859 L 17.570312 21.050781 C 17.570312 21.050781 18.119531 20.939141 18.519531 20.369141 L 20.439453 20.150391 L 20.439453 21.320312 L 20.140625 21.320312 L 20.140625 22 L 20.439453 22 L 20.439453 21.679688 L 20.689453 21.679688 L 20.689453 22 L 20.990234 22 L 20.990234 21.320312 L 20.689453 21.320312 L 20.689453 20.130859 L 22.109375 19.970703 L 22.109375 20.220703 C 21.829375 20.270703 21.619141 20.530313 21.619141 20.820312 C 21.619141 21.160312 21.890234 21.330078 22.240234 21.330078 C 22.580234 21.330078 22.849609 21.160312 22.849609 20.820312 C 22.849609 20.520312 22.639375 20.270703 22.359375 20.220703 L 22.359375 19.939453 L 26.369141 19.490234 L 26.369141 19.779297 C 26.079141 19.829297 25.849609 20.080391 25.849609 20.400391 C 25.849609 20.730391 26.130703 21.019531 26.470703 21.019531 C 26.810703 21.019531 27.089844 20.730391 27.089844 20.400391 C 27.079844 20.080391 26.850547 19.819297 26.560547 19.779297 L 26.560547 19.460938 L 31 19 L 18.849609 19.630859 C 18.889609 19.520859 18.909687 19.409297 18.929688 19.279297 C 18.939688 19.169297 18.949219 19.069219 18.949219 18.949219 L 22.189453 18.539062 L 18.949219 18.640625 L 18.949219 18.589844 C 18.799219 17.719844 17.669922 17.400391 17.669922 17.400391 L 17.587891 15.470703 L 18.800781 15.470703 L 19.75 17.560547 L 20.609375 17.560547 L 17.5 11 z M 28.5 11.140625 C 28.04 11.140625 27.610937 11.220625 27.210938 11.390625 C 26.810938 11.570625 26.460156 11.690234 26.160156 11.990234 C 25.860156 12.290234 25.609453 12.640781 25.439453 13.050781 C 25.269453 13.440781 25.189453 13.879844 25.189453 14.339844 C 25.189453 14.799844 25.269453 15.220859 25.439453 15.630859 C 25.609453 16.030859 25.860156 16.379922 26.160156 16.669922 C 26.460156 16.979922 26.810938 17.220625 27.210938 17.390625 C 27.610937 17.560625 28.04 17.650391 28.5 17.650391 C 28.96 17.650391 29.389063 17.560625 29.789062 17.390625 C 30.189062 17.220625 30.539609 16.979922 30.849609 16.669922 C 31.149609 16.379922 31.380781 16.020859 31.550781 15.630859 C 31.720781 15.220859 31.810547 14.799844 31.810547 14.339844 C 31.810547 13.879844 31.720781 13.440781 31.550781 13.050781 C 31.380781 12.640781 31.149609 12.290234 30.849609 11.990234 C 30.539609 11.680234 30.189063 11.570625 29.789062 11.390625 C 29.389063 11.220625 28.96 11.140625 28.5 11.140625 z M 5.890625 11.210938 L 9.0097656 17.779297 L 12.109375 11.210938 L 11.259766 11.210938 L 9.0097656 16.009766 L 6.75 11.210938 L 5.890625 11.210938 z M 13.115234 11.212891 L 13.115234 17.570312 L 13.884766 17.570312 L 13.884766 11.212891 L 13.115234 11.212891 z M 20.015625 11.212891 L 20.015625 11.789062 L 22.083984 11.789062 L 22.083984 17.570312 L 22.9375 17.570312 L 22.9375 11.789062 L 24.984375 11.789062 L 24.984375 11.212891 L 20.015625 11.212891 z M 28.5 11.759766 C 28.84 11.759766 29.180469 11.820937 29.480469 11.960938 C 29.800469 12.100938 30.070781 12.27 30.300781 12.5 C 30.530781 12.74 30.709844 13.010547 30.839844 13.310547 C 30.969844 13.630547 31.029297 13.969844 31.029297 14.339844 C 31.029297 14.689844 30.969844 15.029609 30.839844 15.349609 C 30.709844 15.659609 30.530781 15.940156 30.300781 16.160156 C 30.070781 16.400156 29.800469 16.580937 29.480469 16.710938 C 29.180469 16.850938 28.84 16.910156 28.5 16.910156 C 28.15 16.910156 27.819766 16.850938 27.509766 16.710938 C 27.199766 16.580938 26.919219 16.400156 26.699219 16.160156 C 26.469219 15.940156 26.280156 15.659609 26.160156 15.349609 C 26.030156 15.029609 25.960938 14.699844 25.960938 14.339844 C 25.960938 13.979844 26.030156 13.630547 26.160156 13.310547 C 26.280156 13.010547 26.469219 12.74 26.699219 12.5 C 26.939219 12.28 27.199766 12.100937 27.509766 11.960938 C 27.819766 11.820937 28.15 11.759766 28.5 11.759766 z M 3.109375 12.660156 L 4.0898438 14.789062 L 2.1308594 14.789062 L 3.109375 12.660156 z M 17.5 12.660156 L 18.470703 14.789062 L 17.558594 14.789062 L 17.5 13.380859 L 17.4375 14.789062 L 16.519531 14.789062 L 17.5 12.660156 z"/></svg>