<svg xmlns="http://www.w3.org/2000/svg" viewBox="0 0 32 32"><path d="M 19.84375 3 C 19.492188 3.015625 19.1875 3.09375 19.1875 3.09375 L 18.96875 3.1875 L 3.1875 18.96875 L 3.09375 19.1875 C 3.09375 19.1875 3.015625 19.492188 3 19.84375 C 2.984375 20.195313 3.027344 20.699219 3.1875 21.28125 C 3.503906 22.445313 4.304688 23.992188 6.15625 25.84375 C 8.007813 27.695313 9.554688 28.496094 10.71875 28.8125 C 11.300781 28.972656 11.804688 29.015625 12.15625 29 C 12.507813 28.984375 12.8125 28.90625 12.8125 28.90625 L 13.03125 28.8125 L 28.8125 13.03125 L 28.90625 12.8125 C 28.90625 12.8125 28.984375 12.507813 29 12.15625 C 29.015625 11.804688 28.972656 11.300781 28.8125 10.71875 C 28.496094 9.554688 27.695313 8.007813 25.84375 6.15625 C 23.992188 4.304688 22.445313 3.503906 21.28125 3.1875 C 20.699219 3.027344 20.195313 2.984375 19.84375 3 Z M 19.9375 5 L 19.96875 5 C 20.125 4.996094 20.378906 5.023438 20.75 5.125 C 21.519531 5.335938 22.777344 5.898438 24.4375 7.5625 L 24.53125 7.6875 C 26.089844 9.28125 26.671875 10.503906 26.875 11.25 C 26.976563 11.621094 27.003906 11.875 27 12.03125 C 27 12.039063 27 12.058594 27 12.0625 L 12.0625 27 C 12.058594 27 12.039063 27 12.03125 27 C 11.875 27.003906 11.621094 26.976563 11.25 26.875 C 10.480469 26.664063 9.222656 26.101563 7.5625 24.4375 L 7.4375 24.28125 C 5.90625 22.707031 5.328125 21.492188 5.125 20.75 C 5.023438 20.378906 4.996094 20.125 5 19.96875 C 5 19.960938 5 19.941406 5 19.9375 Z M 19 9 C 18.449219 9 18 9.449219 18 10 C 18 10.550781 18.449219 11 19 11 C 19.550781 11 20 10.550781 20 10 C 20 9.449219 19.550781 9 19 9 Z M 22 9 C 21.449219 9 21 9.449219 21 10 C 21 10.550781 21.449219 11 22 11 C 22.550781 11 23 10.550781 23 10 C 23 9.449219 22.550781 9 22 9 Z M 16.21875 11.78125 L 14.78125 13.21875 L 18.78125 17.21875 L 20.21875 15.78125 Z M 22 12 C 21.449219 12 21 12.449219 21 13 C 21 13.550781 21.449219 14 22 14 C 22.550781 14 23 13.550781 23 13 C 23 12.449219 22.550781 12 22 12 Z M 13.21875 14.78125 L 11.78125 16.21875 L 15.78125 20.21875 L 17.21875 18.78125 Z M 10 18 C 9.449219 18 9 18.449219 9 19 C 9 19.550781 9.449219 20 10 20 C 10.550781 20 11 19.550781 11 19 C 11 18.449219 10.550781 18 10 18 Z M 10 21 C 9.449219 21 9 21.449219 9 22 C 9 22.550781 9.449219 23 10 23 C 10.550781 23 11 22.550781 11 22 C 11 21.449219 10.550781 21 10 21 Z M 13 21 C 12.449219 21 12 21.449219 12 22 C 12 22.550781 12.449219 23 13 23 C 13.550781 23 14 22.550781 14 22 C 14 21.449219 13.550781 21 13 21 Z"/></svg>