<svg xmlns="http://www.w3.org/2000/svg" viewBox="0 0 32 32"><path d="M 24.734375 5.867188 C 24.382813 5.875 24.023438 5.9375 23.683594 6.050781 C 21.597656 6.746094 20.378906 8.320313 19.714844 9.511719 C 19.113281 9.195313 18.433594 9 17.699219 9 L 17.300781 9 L 15.699219 10.597656 C 14.398438 10 13.097656 9.800781 11.597656 10 C 7.800781 10.300781 4.5 13.5 4.101563 17.402344 C 3.800781 20 4.699219 22.601563 6.5 24.5 C 8.101563 26.101563 10.300781 27 12.5 27 C 12.898438 27 13.199219 27 13.597656 26.902344 C 17.5 26.402344 20.597656 23.300781 21.097656 19.300781 C 21.199219 17.800781 21 16.398438 20.5 15.199219 L 22 13.699219 L 22 13.300781 C 22 12.398438 21.730469 11.5625 21.265625 10.875 C 21.707031 9.984375 22.652344 8.503906 24.316406 7.949219 C 25.050781 7.703125 25.441406 7.84375 25.671875 8.242188 C 25.90625 8.636719 26.023438 9.714844 25.105469 11.550781 C 24.386719 12.894531 22.203125 16.621094 23.769531 22.375 L 21 22.699219 L 23.597656 24 L 21.597656 26.800781 L 24.699219 25.097656 L 25.902344 26.800781 L 25.902344 24.597656 L 29.097656 25.699219 L 27 23.597656 L 28.699219 22.300781 L 26.5 22.300781 L 26.5 18 L 25.355469 20.34375 C 24.625 16.171875 26.15625 13.835938 26.882813 12.46875 C 26.886719 12.464844 26.890625 12.457031 26.894531 12.449219 C 27.976563 10.285156 28.144531 8.511719 27.402344 7.234375 C 27.03125 6.597656 26.441406 6.1875 25.777344 5.992188 C 25.445313 5.898438 25.089844 5.855469 24.734375 5.867188 Z M 18.097656 11 C 19 11.199219 19.800781 11.902344 20 12.902344 L 19.097656 13.800781 C 18.097656 13.699219 17.300781 12.902344 17.199219 11.902344 Z M 12.597656 11.902344 C 13.597656 11.902344 14.5 12.097656 15.300781 12.597656 C 15.699219 14.199219 16.898438 15.398438 18.5 15.699219 C 19 16.699219 19.199219 17.800781 19.097656 19.097656 C 18.800781 22.097656 16.300781 24.601563 13.402344 24.902344 C 11.402344 25.101563 9.398438 24.5 8 23 C 6.601563 21.601563 5.898438 19.597656 6.101563 17.597656 C 6.398438 14.699219 8.902344 12.199219 11.800781 12 C 12.101563 12 12.398438 11.902344 12.597656 11.902344 Z"/></svg>