<svg xmlns="http://www.w3.org/2000/svg" viewBox="0 0 32 32"><path d="M 20 4 C 17.800781 4 16 5.800781 16 8 C 16 9 16.453125 9.832031 17.0625 10.53125 L 10.53125 17.0625 C 9.832031 16.453125 9 16 8 16 C 5.800781 16 4 17.800781 4 20 C 4 22.199219 5.800781 24 8 24 C 8 26.199219 9.800781 28 12 28 C 14.199219 28 16 26.199219 16 24 C 16 23 15.546875 22.167969 14.9375 21.46875 L 21.46875 14.9375 C 22.167969 15.546875 23 16 24 16 C 26.199219 16 28 14.199219 28 12 C 28 9.800781 26.199219 8 24 8 C 24 5.800781 22.199219 4 20 4 Z M 20 6 C 21.117188 6 22 6.882813 22 8 C 22 8.171875 21.972656 8.347656 21.90625 8.5625 L 21.71875 9.15625 L 22.15625 9.5625 L 22.4375 9.84375 L 22.84375 10.28125 L 23.4375 10.09375 C 23.652344 10.027344 23.828125 10 24 10 C 25.117188 10 26 10.882813 26 12 C 26 13.117188 25.117188 14 24 14 C 23.269531 14 22.667969 13.613281 22.3125 13.03125 L 21.625 11.9375 L 20.75 12.84375 L 12.84375 20.75 L 11.9375 21.625 L 13.03125 22.3125 C 13.613281 22.667969 14 23.269531 14 24 C 14 25.117188 13.117188 26 12 26 C 10.882813 26 10 25.117188 10 24 C 10 23.828125 10.027344 23.652344 10.09375 23.4375 L 10.28125 22.84375 L 9.84375 22.4375 L 9.5625 22.15625 L 9.15625 21.71875 L 8.5625 21.90625 C 8.347656 21.972656 8.171875 22 8 22 C 6.882813 22 6 21.117188 6 20 C 6 18.882813 6.882813 18 8 18 C 8.730469 18 9.332031 18.386719 9.6875 18.96875 L 10.375 20.0625 L 11.25 19.15625 L 19.15625 11.25 L 20.0625 10.375 L 18.96875 9.6875 C 18.386719 9.332031 18 8.730469 18 8 C 18 6.882813 18.882813 6 20 6 Z"/></svg>