<svg xmlns="http://www.w3.org/2000/svg" viewBox="0 0 32 32"><path d="M 16 3 C 14.136719 3 12.601563 4.277344 12.15625 6 L 3 6 L 3 26 L 29 26 L 29 6 L 19.84375 6 C 19.398438 4.277344 17.863281 3 16 3 Z M 16 5 C 16.808594 5 17.429688 5.386719 17.75 6 L 14.25 6 C 14.570313 5.386719 15.191406 5 16 5 Z M 5 8 L 27 8 L 27 17 L 5 17 Z M 16 14 C 15.449219 14 15 14.449219 15 15 C 15 15.550781 15.449219 16 16 16 C 16.550781 16 17 15.550781 17 15 C 17 14.449219 16.550781 14 16 14 Z M 5 19 L 27 19 L 27 24 L 5 24 Z"/></svg>