<svg xmlns="http://www.w3.org/2000/svg" viewBox="0 0 32 32"><path d="M 12 3 C 10.698391 3 9.5978609 3.8387486 9.1835938 5 L 9 5 C 6.8 5 5 6.8 5 9 L 5 14 L 3 14 L 3 17 L 5 17 L 5 27 C 5 27.55 5.45 28 6 28 L 9 28 L 9.3398438 27 L 22.660156 27 L 23 28 L 26 28 C 26.55 28 27 27.55 27 27 L 27 17 L 29 17 L 29 14 L 27 14 L 27 9 C 27 6.8 25.2 5 23 5 L 22.816406 5 C 22.402139 3.8387486 21.301609 3 20 3 L 12 3 z M 12 5 L 20 5 C 20.552 5 21 5.449 21 6 L 21 7 L 23 7 C 24.12 7 25 7.88 25 9 L 25 11 L 7 11 L 7 9 C 7 7.88 7.88 7 9 7 L 11 7 L 11 6 C 11 5.449 11.448 5 12 5 z M 13 7 L 13 9 L 19 9 L 19 7 L 13 7 z M 7 13 L 15 13 L 15 17 L 7 17 L 7 13 z M 17 13 L 25 13 L 25 17 L 17 17 L 17 13 z M 7 19 L 25 19 L 25 25 L 7 25 L 7 19 z M 8 21 L 8 23 L 12 23 L 12 21 L 8 21 z M 20 21 L 20 23 L 24 23 L 24 21 L 20 21 z"/></svg>