<svg xmlns="http://www.w3.org/2000/svg" viewBox="0 0 32 32"><path d="M 11.5 6 L 11.1875 6.40625 L 10 8 L 9 8 L 9 7 L 5 7 L 5 8 L 3 8 L 3 26 L 29 26 L 29 8 L 22 8 L 20.8125 6.40625 L 20.5 6 Z M 12.5 8 L 19.5 8 L 20.6875 9.59375 L 21 10 L 27 10 L 27 14 L 21.1875 14 C 20.144531 12.214844 18.207031 11 16 11 C 13.792969 11 11.855469 12.214844 10.8125 14 L 5 14 L 5 10 L 11 10 L 11.3125 9.59375 Z M 23 11 L 23 13 L 25 13 L 25 11 Z M 16 13 C 18.222656 13 20 14.777344 20 17 C 20 19.222656 18.222656 21 16 21 C 13.777344 21 12 19.222656 12 17 C 12 14.777344 13.777344 13 16 13 Z M 5 16 L 10.09375 16 C 10.039063 16.320313 10 16.664063 10 17 C 10 20.300781 12.699219 23 16 23 C 19.300781 23 22 20.300781 22 17 C 22 16.664063 21.960938 16.320313 21.90625 16 L 27 16 L 27 24 L 5 24 Z"/></svg>