<svg xmlns="http://www.w3.org/2000/svg" viewBox="0 0 32 32"><path d="M 18 2 C 15.851563 2 13.820313 2.847656 12.3125 4.375 L 11.59375 5.09375 L 10.90625 5.8125 L 11.625 6.5 L 14.46875 9.3125 L 15.15625 10.03125 L 15.875 9.3125 L 16.5625 8.59375 C 16.945313 8.207031 17.453125 8 18 8 C 19.113281 8 20 8.886719 20 10 C 20 10.542969 19.789063 11.023438 19.40625 11.40625 L 5.71875 25.03125 L 5 25.75 L 5.71875 26.4375 L 8.53125 29.28125 L 9.25 30 L 9.9375 29.28125 L 23.65625 15.65625 C 25.164063 14.148438 26 12.128906 26 10 C 26 5.597656 22.402344 2 18 2 Z M 18 4 C 18.804688 4 19.582031 4.152344 20.28125 4.4375 L 19.21875 6.21875 C 18.851563 6.101563 18.464844 6.007813 18.0625 6 L 17.4375 4.03125 C 17.625 4.015625 17.808594 4 18 4 Z M 15.53125 4.5625 L 16.125 6.5 C 15.777344 6.6875 15.4375 6.902344 15.15625 7.1875 L 13.71875 5.78125 C 14.246094 5.25 14.871094 4.859375 15.53125 4.5625 Z M 21.96875 5.5 C 22.597656 6.054688 23.117188 6.726563 23.46875 7.5 L 21.53125 8.1875 C 21.367188 7.871094 21.175781 7.574219 20.9375 7.3125 Z M 23.96875 9.4375 C 23.984375 9.621094 24 9.8125 24 10 C 24 10.695313 23.875 11.367188 23.65625 12 L 21.46875 12 C 21.789063 11.445313 21.976563 10.808594 22 10.15625 Z M 19.65625 14 L 22.46875 14 C 22.394531 14.082031 22.328125 14.171875 22.25 14.25 L 20.5 16 L 17.65625 16 Z M 15.625 18 L 18.46875 18 L 16.46875 20 L 13.625 20 Z M 11.625 22 L 14.4375 22 L 12.4375 24 L 9.59375 24 Z M 8.09375 26 L 10.40625 26 L 9.25 27.15625 Z"/></svg>