<svg xmlns="http://www.w3.org/2000/svg" viewBox="0 0 32 32"><path d="M 28 18.769531 L 28 16.214844 L 26.125 15.957031 C 26.03125 15.945313 24.875 15.835938 23.546875 15.828125 C 24.988281 13.121094 25.546875 10.746094 25.550781 10.71875 L 25.863281 9.359375 L 24.695313 8.597656 L 24.625 8.554688 L 23.632813 7.902344 L 22.585938 8.464844 C 22.335938 8.597656 20.785156 9.449219 19.230469 10.800781 C 18.9375 8.175781 18.261719 5.976563 17.984375 5.269531 L 17.488281 4 L 14.574219 4 L 14.0625 5.226563 C 14.003906 5.363281 12.800781 8.265625 12.503906 11.71875 C 10.855469 10.375 8.0625 8.832031 8.0625 8.832031 L 5.953125 10.476563 L 6.15625 11.511719 C 6.371094 12.527344 7.453125 15 7.453125 15 C 6.332031 15 4 15.394531 4 15.394531 L 4 18.035156 C 4 18.035156 5.875 19.625 8.035156 20.769531 C 7.945313 20.855469 7.882813 20.917969 7.855469 20.945313 L 6.917969 21.75 L 7.195313 22.824219 L 7.492188 23.964844 L 8.644531 24.300781 C 8.8125 24.34375 9.882813 24.558594 11.054688 24.558594 C 11.882813 24.558594 12.664063 24.453125 13.382813 24.242188 C 13.457031 24.222656 13.53125 24.203125 13.605469 24.179688 C 13.816406 25.386719 14.074219 26.347656 14.121094 26.527344 L 14.527344 28 L 21 28 C 19.707031 26.667969 18.820313 24.582031 18.820313 24.582031 C 18.808594 24.570313 18.800781 24.554688 18.789063 24.539063 C 19.582031 24.875 20.625 25 21.59375 25.023438 L 22.957031 24.9375 L 23.503906 24.042969 L 24.039063 23.125 C 24.039063 23.125 23.582031 22.042969 23.0625 21.574219 C 24.601563 21.007813 26.449219 20.167969 27.234375 19.421875 Z M 21.5 19.984375 C 20.917969 20.152344 19.230469 20.382813 18.605469 20.460938 C 18.605469 20.460938 21.019531 21.855469 21.414063 22.898438 C 21.414063 22.910156 21.421875 22.921875 21.421875 22.933594 C 21.398438 22.933594 21.375 22.917969 21.351563 22.921875 C 19.476563 23.066406 16.527344 21.417969 16.191406 21.128906 C 16.261719 22.199219 16.644531 24.699219 17.546875 25.96875 L 17.519531 26 L 16.050781 26 C 16.050781 26 14.957031 23.070313 15.03125 21.03125 C 14.519531 21.46875 13.925781 22.03125 12.824219 22.324219 C 12.21875 22.5 11.601563 22.558594 11.054688 22.558594 C 10.195313 22.558594 9.339844 22.414063 9.140625 22.363281 L 9.132813 22.324219 C 9.132813 22.324219 10.554688 21.011719 12.386719 20.574219 C 12.605469 20.503906 12.828125 20.429688 13.046875 20.429688 C 12.3125 20.285156 11.582031 20.140625 10.773438 19.847656 C 8.367188 18.960938 6.304688 17.386719 6.109375 17.191406 L 6.105469 17.148438 C 6.105469 17.148438 6.871094 17.109375 7.453125 17.109375 C 8.398438 17.109375 9.945313 17.21875 11.578125 17.804688 C 12.019531 17.953125 12.460938 18.097656 12.828125 18.316406 C 12.21875 17.78125 9.1875 15.25 8.289063 11.441406 C 8.289063 11.441406 12.6875 13.707031 14.980469 17.332031 C 14.644531 15.75 14.441406 14.027344 14.441406 13.203125 C 14.441406 9.496094 15.90625 6 15.90625 6 L 16.125 6 C 16.46875 6.878906 17.371094 9.996094 17.371094 13.203125 C 17.371094 14.289063 17.066406 16.808594 17.007813 17.296875 C 17.167969 16.90625 17.78125 15.703125 18.613281 14.4375 C 20.210938 12.003906 23.53125 10.226563 23.53125 10.226563 L 23.601563 10.273438 C 23.488281 10.773438 22.710938 13.578125 20.964844 16.273438 C 20.53125 16.945313 19.175781 18.222656 19.058594 18.316406 C 19.265625 18.265625 19.972656 17.988281 22.066406 17.867188 C 22.570313 17.839844 23.03125 17.828125 23.441406 17.828125 C 24.738281 17.828125 25.851563 17.9375 25.851563 17.9375 L 25.855469 17.972656 C 25.242188 18.554688 23.257813 19.480469 21.5 19.984375 Z"/></svg>