<svg xmlns="http://www.w3.org/2000/svg" viewBox="0 0 32 32"><path d="M 10 4 C 10 5.117188 9.117188 6 8 6 L 7 6 C 4.800781 6 3 7.800781 3 10 C 3 12.199219 4.800781 14 7 14 L 8.15625 14 C 8.054688 14.488281 8 14.984375 8 15.5 L 8 28 L 10 28 L 10 15.5 C 10 12.46875 12.46875 10 15.5 10 C 16.402344 10 17.25 10.207031 18 10.59375 L 18 8.4375 C 17.21875 8.160156 16.378906 8 15.5 8 C 12.632813 8 10.136719 9.628906 8.875 12 L 7 12 C 5.882813 12 5 11.117188 5 10 C 5 8.882813 5.882813 8 7 8 L 8 8 C 10.199219 8 12 6.199219 12 4 Z M 19 6.09375 L 19 12.5 C 19 15.050781 21.316406 17 24 17 C 26.683594 17 29 15.050781 29 12.5 L 29 6.09375 L 27.4375 7.1875 L 25.78125 8.34375 C 25.210938 8.140625 24.648438 7.90625 24 7.90625 C 23.351563 7.90625 22.789063 8.140625 22.21875 8.34375 L 20.5625 7.1875 Z M 24 9.90625 C 24.578125 9.90625 25.109375 10.046875 25.5625 10.28125 L 26.09375 10.5625 L 26.59375 10.21875 L 27 9.9375 L 27 12.5 C 27 13.816406 25.734375 15 24 15 C 22.265625 15 21 13.816406 21 12.5 L 21 9.9375 L 21.40625 10.21875 L 21.90625 10.5625 L 22.4375 10.28125 C 22.890625 10.046875 23.421875 9.90625 24 9.90625 Z M 17 15 C 14.242188 15 12 17.242188 12 20 L 12 28 L 14 28 L 14 20 C 14 18.347656 15.347656 17 17 17 C 18.652344 17 20 18.347656 20 20 L 20 28 L 22 28 L 22 20 C 22 19.035156 21.726563 18.140625 21.25 17.375 C 20.285156 16.914063 19.476563 16.21875 18.90625 15.375 C 18.320313 15.132813 17.671875 15 17 15 Z M 26 17.6875 C 25.371094 17.890625 24.703125 18 24 18 L 24 28 L 26 28 Z"/></svg>