<svg xmlns="http://www.w3.org/2000/svg" viewBox="0 0 32 32"><path d="M 5 6 C 3.355 6 2 7.355 2 9 L 2 23 C 2 24.645 3.355 26 5 26 L 27 26 C 28.645 26 30 24.645 30 23 L 30 9 C 30 7.355 28.645 6 27 6 L 5 6 z M 5 8 L 27 8 C 27.566 8 28 8.434 28 9 L 28 23 C 28 23.566 27.566 24 27 24 L 5 24 C 4.434 24 4 23.566 4 23 L 4 9 C 4 8.434 4.434 8 5 8 z M 11.523438 10 L 11.382812 10.023438 C 10.942813 10.078437 10.516109 10.243719 10.162109 10.511719 C 10.083109 10.558719 10.014547 10.622547 9.9355469 10.685547 C 9.9275469 10.669547 9.9199219 10.654672 9.9199219 10.638672 C 9.9039219 10.551672 9.8958594 10.457094 9.8808594 10.371094 C 9.8568594 10.229094 9.7787187 10.158203 9.6367188 10.158203 L 9.265625 10.158203 C 9.038625 10.156203 9 10.204781 9 10.425781 L 9 17.25 C 9.008 17.352 9.07025 17.406062 9.15625 17.414062 L 9.8417969 17.414062 C 9.9357969 17.414062 9.9900469 17.352 9.9980469 17.25 C 10.006047 17.219 10.005859 17.18725 10.005859 17.15625 L 10.005859 14.828125 C 10.036859 14.859125 10.060172 14.876578 10.076172 14.892578 C 10.650172 15.372578 11.311156 15.528719 12.035156 15.386719 C 12.696156 15.252719 13.152359 14.852672 13.443359 14.263672 C 13.671359 13.815672 13.765437 13.334844 13.773438 12.839844 C 13.789438 12.295844 13.741672 11.753187 13.513672 11.242188 C 13.246672 10.613188 12.789469 10.195687 12.105469 10.054688 C 12.003469 10.030688 11.894016 10.023813 11.791016 10.007812 C 11.697016 9.9998125 11.610438 10 11.523438 10 z M 16.525391 10 C 16.494391 10.008 16.462641 10.015625 16.431641 10.015625 C 16.116641 10.031625 15.810906 10.071391 15.503906 10.150391 C 15.306906 10.197391 15.118687 10.267078 14.929688 10.330078 C 14.811687 10.369078 14.755859 10.456031 14.755859 10.582031 C 14.763859 10.684031 14.755859 10.794484 14.755859 10.896484 C 14.763859 11.053484 14.827562 11.094688 14.976562 11.054688 C 15.228563 10.991687 15.478469 10.920047 15.730469 10.873047 C 16.123469 10.802047 16.524781 10.771172 16.925781 10.826172 C 17.137781 10.865172 17.33475 10.920562 17.46875 11.101562 C 17.58675 11.250562 17.634578 11.439906 17.642578 11.628906 C 17.650578 11.895906 17.650391 12.162687 17.650391 12.429688 C 17.650391 12.445688 17.650578 12.46075 17.642578 12.46875 L 17.603516 12.46875 C 17.265516 12.38275 16.918266 12.3355 16.572266 12.3125 C 16.210266 12.2965 15.849906 12.3115 15.503906 12.4375 C 15.086906 12.5795 14.748734 12.831234 14.552734 13.240234 C 14.403734 13.554234 14.380734 13.884656 14.427734 14.222656 C 14.498734 14.678656 14.718141 15.024141 15.119141 15.244141 C 15.504141 15.456141 15.912891 15.480969 16.337891 15.417969 C 16.825891 15.346969 17.257766 15.143125 17.634766 14.828125 C 17.650766 14.812125 17.665641 14.804063 17.681641 14.789062 C 17.705641 14.915062 17.720141 15.032578 17.744141 15.142578 C 17.760141 15.244578 17.823969 15.308406 17.917969 15.316406 L 18.445312 15.316406 C 18.524313 15.316406 18.59375 15.244203 18.59375 15.158203 C 18.60175 15.134203 18.601562 15.104266 18.601562 15.072266 L 18.601562 11.658203 C 18.599563 11.524203 18.591359 11.384 18.568359 11.25 C 18.505359 10.833 18.332078 10.487578 17.955078 10.267578 C 17.743078 10.141578 17.507859 10.078063 17.255859 10.039062 C 17.137859 10.023062 17.028156 10.015 16.910156 10 L 16.525391 10 z M 23.240234 10 C 23.130234 9.992 23.027281 10.062062 22.988281 10.164062 C 22.972281 10.212062 22.957406 10.251828 22.941406 10.298828 L 21.816406 13.515625 C 21.737406 13.743625 21.651266 13.978469 21.572266 14.230469 C 21.557266 14.190469 21.550969 14.176344 21.542969 14.152344 C 21.126969 13.004344 20.717781 11.855031 20.300781 10.707031 C 20.238781 10.519031 20.166703 10.339203 20.095703 10.158203 C 20.064703 10.072203 19.994578 10.009766 19.892578 10.009766 C 19.648578 10.001766 19.404344 10.001953 19.152344 10.001953 C 19.074344 10.001953 19.034781 10.071391 19.050781 10.150391 C 19.066781 10.213391 19.089281 10.284656 19.113281 10.347656 C 19.742281 11.903656 20.380578 13.460391 21.017578 15.025391 C 21.072578 15.158391 21.080578 15.268344 21.017578 15.402344 C 20.915578 15.638344 20.82875 15.881187 20.71875 16.117188 C 20.62375 16.329187 20.466469 16.487781 20.230469 16.550781 C 20.073469 16.589781 19.899375 16.604078 19.734375 16.580078 C 19.655375 16.573078 19.577047 16.558781 19.498047 16.550781 C 19.388047 16.542781 19.334172 16.589031 19.326172 16.707031 L 19.326172 17.021484 C 19.334172 17.202484 19.389312 17.2815 19.570312 17.3125 C 19.743312 17.3445 19.924281 17.368953 20.113281 17.376953 C 20.663281 17.384953 21.095906 17.163594 21.378906 16.683594 C 21.496906 16.494594 21.591734 16.29775 21.677734 16.09375 C 22.439734 14.16775 23.194219 12.248453 23.949219 10.314453 C 23.972219 10.259453 23.988094 10.205578 23.996094 10.142578 C 24.012094 10.048578 23.965953 10.001 23.876953 10 L 23.240234 10 z M 11.517578 10.818359 C 11.997578 10.857359 12.38975 11.092391 12.59375 11.650391 C 12.71975 11.996391 12.751953 12.351891 12.751953 12.712891 C 12.751953 13.051891 12.727 13.372312 12.625 13.695312 C 12.405 14.379312 11.902812 14.646234 11.257812 14.615234 C 10.801813 14.591234 10.416688 14.418969 10.054688 14.167969 C 10.015688 14.143969 9.9900469 14.105406 9.9980469 14.066406 L 9.9980469 11.353516 C 9.9900469 11.306516 10.015687 11.266187 10.054688 11.242188 C 10.494687 10.935187 10.982578 10.779359 11.517578 10.818359 z M 16.378906 12.998047 C 16.513656 12.986297 16.649703 12.988406 16.783203 13.003906 C 17.050203 13.027906 17.318937 13.074281 17.585938 13.113281 C 17.640937 13.121281 17.65625 13.145359 17.65625 13.193359 C 17.64925 13.350359 17.65625 13.49925 17.65625 13.65625 C 17.65625 13.81325 17.648437 13.954328 17.648438 14.111328 C 17.656437 14.150328 17.632563 14.182078 17.601562 14.205078 C 17.239563 14.464078 16.846437 14.637547 16.398438 14.685547 C 16.217437 14.701547 16.036281 14.701859 15.863281 14.630859 C 15.666281 14.559859 15.517891 14.395219 15.462891 14.199219 C 15.399891 13.995219 15.398125 13.782125 15.453125 13.578125 C 15.539125 13.311125 15.728469 13.160219 15.980469 13.074219 C 16.109969 13.034719 16.244156 13.009797 16.378906 12.998047 z M 24.53125 17.498047 C 23.83125 17.507797 23.003953 17.663516 22.376953 18.103516 C 22.182953 18.237516 22.218594 18.425391 22.433594 18.400391 C 23.138594 18.316391 24.707281 18.125375 24.988281 18.484375 C 25.269281 18.843375 24.676063 20.321422 24.414062 20.982422 C 24.332062 21.179422 24.504547 21.261328 24.685547 21.111328 C 25.858547 20.128328 26.163828 18.069437 25.923828 17.773438 C 25.803828 17.625438 25.23125 17.488297 24.53125 17.498047 z M 6.1445312 17.890625 C 5.9989375 17.909797 5.9356406 18.088266 6.0878906 18.228516 C 8.6998906 20.584516 12.149469 22 15.980469 22 C 18.713469 22 21.886172 21.141391 24.076172 19.525391 C 24.438172 19.257391 24.130766 18.855625 23.759766 19.015625 C 21.303766 20.057625 18.635984 20.558594 16.208984 20.558594 C 12.611984 20.558594 9.1295 19.572641 6.3125 17.931641 C 6.25075 17.895641 6.1930625 17.884234 6.1445312 17.890625 z"/></svg>