<svg xmlns="http://www.w3.org/2000/svg" viewBox="0 0 32 32"><path d="M 5 6 C 3.355469 6 2 7.355469 2 9 L 2 23 C 2 24.644531 3.355469 26 5 26 L 27 26 C 28.644531 26 30 24.644531 30 23 L 30 9 C 30 7.355469 28.644531 6 27 6 Z M 5 8 L 27 8 C 27.566406 8 28 8.433594 28 9 L 28 23 C 28 23.566406 27.566406 24 27 24 L 5 24 C 4.433594 24 4 23.566406 4 23 L 4 9 C 4 8.433594 4.433594 8 5 8 Z M 8.15625 11 C 6.929688 11 6 11.777344 6 13.125 L 6 21 L 9.9375 21 C 10.898438 21 12 20.105469 12 18.9375 L 12 11 Z M 15.15625 11 C 13.933594 11 13 11.78125 13 13.125 L 13 20.9375 L 16.9375 20.9375 C 17.894531 20.9375 19 20.039063 19 18.875 L 19 11 Z M 22.15625 11 C 20.933594 11 20 11.78125 20 13.125 L 20 20.9375 L 23.90625 20.9375 C 24.859375 20.9375 26 20.039063 26 18.875 L 26 11 Z M 15.375 14 L 18.25 14 L 18.25 14.625 C 17.5625 14.464844 16.890625 14.375 16.5625 14.375 C 15.84375 14.375 15.28125 14.992188 15.28125 15.75 C 15.28125 16.507813 15.84375 17.09375 16.5625 17.09375 C 16.890625 17.09375 17.5625 17.035156 18.25 16.875 L 18.25 17.46875 L 15.375 17.46875 C 14.480469 17.46875 13.71875 16.695313 13.71875 15.75 C 13.71875 14.804688 14.480469 14 15.375 14 Z M 20.84375 14 L 24.53125 14 C 24.980469 14 25.34375 14.394531 25.34375 14.84375 C 25.34375 15.289063 25.042969 15.71875 24.59375 15.71875 C 25.101563 15.71875 25.5 16.117188 25.5 16.5625 C 25.5 17.011719 25.101563 17.4375 24.59375 17.4375 L 20.84375 17.4375 Z M 9.46875 14.03125 L 11.1875 14.03125 L 11.1875 15.96875 C 11.1875 17.046875 9.800781 17.625 8.78125 17.625 C 7.671875 17.625 6.679688 16.964844 6.46875 16.125 L 7.21875 16.125 C 7.308594 16.636719 7.804688 17 8.375 17 C 9.003906 17 9.46875 16.539063 9.46875 15.96875 Z M 22.25 14.34375 L 22.25 15.5 L 23.4375 15.5 C 23.734375 15.5 24 15.234375 24 14.9375 C 24 14.640625 23.734375 14.34375 23.4375 14.34375 Z M 22.25 15.9375 L 22.25 17.09375 L 23.46875 17.09375 C 23.769531 17.09375 24.03125 16.828125 24.03125 16.53125 C 24.03125 16.230469 23.769531 15.9375 23.46875 15.9375 Z"/></svg>