<svg xmlns="http://www.w3.org/2000/svg" viewBox="0 0 32 32"><path d="M 9 6 L 9 9.09375 C 8.367188 9.222656 7.773438 9.496094 7.25 9.84375 L 5.0625 7.625 L 3.625 9.0625 L 5.84375 11.25 C 5.496094 11.773438 5.222656 12.367188 5.09375 13 L 2 13 L 2 15 L 5.125 15 C 5.253906 15.628906 5.507813 16.199219 5.84375 16.71875 L 3.625 18.9375 L 4.25 19.5625 C 4.113281 20.019531 4 20.5 4 21 C 4 23.757813 6.242188 26 9 26 L 25 26 C 27.757813 26 30 23.757813 30 21 C 30 18.980469 28.789063 17.179688 26.96875 16.40625 C 26.6875 13.988281 24.65625 12.097656 22.1875 12 C 21.125 10.152344 19.164063 9 17 9 C 16.773438 9 16.5625 9.007813 16.34375 9.03125 L 14.9375 7.625 L 12.75 9.84375 C 12.226563 9.507813 11.628906 9.253906 11 9.125 L 11 6 Z M 10 11 C 10.765625 11 11.445313 11.285156 11.96875 11.75 C 11.707031 12.152344 11.472656 12.597656 11.3125 13.0625 C 9.730469 13.332031 8.460938 14.542969 8.09375 16.09375 C 8.039063 16.101563 7.988281 16.113281 7.9375 16.125 C 7.378906 15.582031 7 14.847656 7 14 C 7 12.332031 8.332031 11 10 11 Z M 17 11 C 18.605469 11 20.054688 11.960938 20.6875 13.4375 L 20.96875 14.125 L 21.875 14.03125 C 21.917969 14.023438 21.953125 14 22 14 C 23.652344 14 24.996094 15.351563 25 16.9375 L 24.96875 17.90625 L 25.75 18.09375 C 27.082031 18.433594 28 19.636719 28 21 C 28 22.652344 26.652344 24 25 24 L 9 24 C 7.347656 24 6 22.652344 6 21 C 6 19.347656 7.347656 18 9 18 L 10 18 L 10 17 C 10 15.898438 10.894531 15.003906 11.90625 15 L 12.90625 15.0625 L 13.09375 14.21875 C 13.46875 12.359375 15.101563 11 17 11 Z"/></svg>