<svg xmlns="http://www.w3.org/2000/svg" viewBox="0 0 32 32"><path d="M 15.919922 11.001953 C 15.013922 10.956953 15.004672 11.753516 15.013672 11.853516 C 15.031672 12.080516 15.158203 12.197266 15.158203 12.197266 C 15.113203 12.043266 15.149891 11.880484 15.212891 11.771484 C 15.257891 11.907484 15.331828 12.061688 15.548828 12.179688 C 15.530828 12.070688 15.538219 11.925406 15.574219 11.816406 C 15.511219 11.571406 15.666234 11.363281 15.865234 11.363281 C 16.173234 11.363281 16.245266 11.763578 16.072266 12.017578 C 16.172266 12.162578 16.326781 12.270141 16.425781 12.369141 C 16.570781 12.206141 16.671875 11.943141 16.671875 11.744141 C 16.673875 11.372141 16.427922 11.028953 15.919922 11.001953 z M 16.826172 11.292969 C 16.826172 11.328969 16.844719 11.673656 17.261719 11.972656 C 17.397719 12.063656 17.388672 12.162437 17.388672 12.398438 C 17.470672 12.353438 17.560922 12.297719 17.669922 12.261719 C 17.615922 12.315719 17.541859 12.389703 17.505859 12.470703 C 17.550859 12.416703 17.849969 12.233641 18.167969 12.306641 C 18.094969 12.324641 17.996063 12.360594 17.914062 12.433594 C 17.950063 12.424594 18.040469 12.398781 18.230469 12.425781 L 18.230469 12.234375 C 18.448469 12.234375 19.28125 12.080672 19.28125 13.013672 C 19.28125 13.947672 18.438766 13.802734 18.384766 13.802734 C 18.647766 14.001734 18.647375 14.345156 18.484375 14.535156 L 18.503906 14.535156 C 20.017906 14.535156 20.162109 13.302141 20.162109 12.994141 C 20.162109 12.823141 20.117859 11.545656 18.630859 11.472656 C 17.171859 11.472656 17.144172 11.482969 16.826172 11.292969 z M 11.6875 11.300781 C 11.6875 11.336781 11.706047 11.673656 12.123047 11.972656 C 12.196047 12.035656 12.25 12.081484 12.25 12.271484 L 12.25 14.029297 C 12.25 14.219297 12.214812 14.273359 12.132812 14.318359 C 12.123812 14.327359 11.787531 14.527344 11.769531 14.527344 L 13.365234 14.527344 C 13.818234 14.527344 14.152969 14.463719 14.542969 14.136719 C 14.515969 13.909719 14.551125 13.71175 14.578125 13.59375 C 14.569125 13.59375 14.496172 13.665859 14.451172 13.755859 C 14.451172 13.492859 14.524719 13.057266 14.886719 12.822266 C 14.886719 12.823266 14.723516 12.787906 14.478516 12.878906 C 14.569516 12.733906 14.931219 12.515625 14.949219 12.515625 C 14.614219 11.436625 13.455078 11.464422 13.455078 11.482422 C 12.096078 11.482422 12.0135 11.490781 11.6875 11.300781 z M 15.666016 11.736328 C 15.593016 11.809328 15.547328 12.089375 15.611328 12.234375 C 15.720328 12.297375 15.811078 12.405859 15.830078 12.505859 C 15.730078 12.278859 15.312313 12.234125 15.195312 11.953125 C 15.168313 12.053125 15.186234 12.180719 15.240234 12.261719 C 15.240234 12.261719 15.140828 12.225375 14.923828 12.234375 C 15.005828 12.261375 15.160578 12.388703 15.142578 12.470703 C 15.124578 12.552703 14.824687 12.632344 14.679688 12.777344 C 14.897687 12.732344 14.997203 12.768375 15.033203 12.859375 C 15.060203 12.922375 15.024625 13.013281 15.015625 13.113281 C 15.088625 13.031281 15.332672 12.868031 15.513672 12.832031 C 15.468672 12.823031 15.359453 12.796875 15.314453 12.796875 C 15.441453 12.651875 15.713188 12.607766 15.867188 12.634766 C 15.767188 12.634766 15.585672 12.687953 15.513672 12.751953 C 15.586672 12.760953 15.649125 12.778875 15.703125 12.796875 C 15.603125 12.832875 15.486406 12.951125 15.441406 13.078125 C 15.758406 12.851125 16.038812 13.313219 15.757812 13.449219 C 15.793812 13.458219 15.885875 13.450828 15.921875 13.423828 C 15.903875 13.477828 15.830156 13.558172 15.785156 13.576172 C 15.912156 13.576172 16.10125 13.495141 16.15625 13.369141 C 16.15625 13.369141 16.075063 13.395375 16.039062 13.359375 C 16.012062 13.332375 16.039062 13.2235 16.039062 13.1875 C 15.948063 13.2875 15.894141 13.106469 15.994141 12.980469 C 15.949141 12.962469 15.830156 12.953125 15.785156 12.953125 C 15.930156 12.908125 16.257922 12.870359 16.294922 12.943359 C 16.321922 12.988359 16.248047 13.097656 16.248047 13.097656 C 16.429047 13.070656 16.621828 13.142219 16.548828 13.324219 C 16.682828 13.258219 16.800672 13.059563 16.763672 12.851562 C 16.754672 12.896562 16.691719 12.960516 16.636719 12.978516 C 16.645719 12.915516 16.590922 12.877375 16.544922 12.859375 C 16.626922 12.424375 15.882156 12.215484 15.910156 11.771484 C 15.865156 11.834484 15.829 11.998656 15.875 12.097656 C 15.993 12.242656 16.265125 12.396391 16.328125 12.650391 C 16.210125 12.360391 15.648016 12.134328 15.666016 11.736328 z M 13.345703 12.214844 C 13.670547 12.215266 14.144531 12.304156 14.144531 13.003906 C 14.144531 13.946906 13.31075 13.792969 13.09375 13.792969 L 13.09375 12.224609 C 13.14575 12.224609 13.237422 12.214703 13.345703 12.214844 z M 17.832031 12.396484 C 17.596031 12.414484 17.425516 12.686391 17.353516 12.650391 C 17.299516 12.632391 17.416016 12.488281 17.416016 12.488281 C 17.180016 12.615281 16.998125 12.895172 16.953125 13.076172 C 17.161125 12.813172 17.578797 12.633922 17.841797 12.669922 C 17.370797 12.687922 16.963438 13.103766 16.773438 13.384766 C 16.864438 13.420766 16.8455 13.411984 17.0625 13.583984 C 17.5245 12.477984 18.042547 12.877719 18.060547 12.886719 C 18.160547 12.795719 18.494781 12.714766 18.675781 12.759766 C 18.566781 12.642766 18.339172 12.478516 18.076172 12.478516 C 17.858172 12.478516 17.741844 12.579969 17.714844 12.542969 C 17.687844 12.497969 17.786031 12.423484 17.832031 12.396484 z M 16.128906 12.605469 C 16.273906 12.668469 16.318359 12.804688 16.318359 12.804688 C 16.191359 12.804688 16.155906 12.705469 16.128906 12.605469 z M 14.960938 12.859375 C 14.960938 12.859375 14.578969 13.113484 14.542969 13.521484 C 14.542969 13.521484 14.588766 13.449453 14.634766 13.439453 C 14.661766 13.421453 14.696156 13.439484 14.660156 13.521484 C 14.651156 13.548484 14.397484 14.237219 14.896484 14.699219 C 14.869484 14.626219 14.805859 14.355187 15.005859 14.617188 C 15.005859 14.635188 15.277891 14.935547 15.712891 14.935547 C 16.337891 14.935547 16.665891 14.482906 16.837891 14.128906 C 16.791891 14.074906 16.609953 13.938078 16.501953 13.830078 C 16.392953 14.020078 16.129953 14.310547 15.876953 14.310547 C 15.414953 14.310547 15.177469 13.648469 15.730469 13.105469 C 15.703469 13.096469 15.531188 13.023844 15.367188 13.214844 C 15.367188 13.078844 15.412984 12.986063 15.458984 12.914062 C 15.304984 12.977063 15.014406 13.168344 14.941406 13.277344 C 14.950406 13.014344 15.01375 12.933141 14.96875 12.869141 L 14.960938 12.859375 z M 17.824219 12.878906 C 17.688219 12.878906 17.561469 12.94025 17.480469 13.03125 C 17.444469 13.06725 17.418625 13.114391 17.390625 13.150391 L 17.390625 13.865234 C 17.544625 13.983234 17.706391 13.729063 17.525391 13.539062 C 17.588391 13.548063 17.734906 13.658547 17.753906 13.685547 C 17.753906 13.685547 17.871469 13.658203 17.980469 13.658203 C 18.080469 13.658203 18.161375 13.676891 18.234375 13.712891 L 18.234375 12.878906 C 18.186375 12.896906 18.131281 12.923406 18.113281 12.941406 L 18.078125 12.96875 L 18.033203 12.941406 C 17.988203 12.896406 17.905219 12.878906 17.824219 12.878906 z M 16.111328 13.003906 C 16.011328 13.193906 16.256547 13.276953 16.310547 13.376953 C 16.355547 13.458953 16.275187 13.594812 16.492188 13.757812 C 17.163187 14.283812 16.908891 14.120031 16.962891 14.582031 C 16.989891 14.772031 17.153906 14.881969 17.253906 14.917969 C 17.153906 14.826969 17.117906 14.626234 17.253906 14.490234 C 17.253906 15.124234 18.122922 15.09825 18.294922 14.78125 C 18.194922 14.83525 17.977719 14.772219 17.886719 14.699219 C 18.240719 14.745219 18.540594 14.50875 18.558594 14.21875 C 18.558594 13.92875 18.267406 13.702469 17.941406 13.730469 C 18.303406 13.793469 18.195844 14.354094 17.714844 14.246094 C 17.886844 14.128094 17.859156 13.803547 17.660156 13.685547 C 17.723156 13.875547 17.525172 14.056578 17.326172 13.892578 C 17.217172 13.801578 16.963703 13.594906 16.845703 13.503906 C 16.736703 13.403906 16.591875 13.458875 16.546875 13.421875 C 16.483875 13.367875 16.5195 13.248359 16.4375 13.193359 C 16.3645 13.157359 16.302469 13.175437 16.230469 13.148438 C 16.167469 13.121438 16.111328 13.066906 16.111328 13.003906 z M 17.832031 13.775391 C 17.923031 13.956391 17.877797 14.119594 17.841797 14.183594 C 17.959797 14.165594 18.087891 14.110375 18.087891 13.984375 C 18.087891 13.802375 17.868031 13.784391 17.832031 13.775391 z M 17.730469 16.039062 C 14.030469 16.039062 13.850937 21 17.710938 21 C 21.610937 21 21.420469 16.039062 17.730469 16.039062 z M 28.980469 16.080078 C 27.950469 16.080078 26.980703 16.149453 26.470703 16.189453 L 26.839844 16.599609 L 26.839844 20.460938 L 26.470703 20.869141 C 26.990703 20.909141 28.010781 20.970703 29.050781 20.970703 C 31.150781 20.970703 32 19.939297 32 18.529297 C 32 17.059297 30.840469 16.080078 28.980469 16.080078 z M 0.15039062 16.179688 L 0.5703125 16.609375 L 0.5703125 18.080078 L 0 18.080078 L 0.5703125 18.810547 L 0.5703125 20.429688 L 0.15039062 20.859375 C 3.2403906 20.859375 3.8407031 20.930547 4.4707031 20.560547 C 4.8107031 20.360547 4.9707031 20.069688 4.9707031 19.679688 C 4.9707031 19.429687 5.1 18.739922 4 18.419922 C 4.86 18.189922 4.8105469 17.519688 4.8105469 17.429688 C 4.8105469 16.399687 3.6009375 16.179688 2.9609375 16.179688 L 0.15039062 16.179688 z M 8.9101562 16.179688 L 5.2304688 16.189453 L 5.5996094 16.599609 L 5.5996094 20.449219 L 5.2304688 20.859375 L 9.2890625 20.859375 L 10 19.800781 L 6.9902344 19.810547 L 6.9902344 19.039062 L 8.1503906 19.050781 L 8.1503906 19.039062 L 8.8496094 17.980469 L 6.9902344 17.980469 L 6.9902344 17.240234 L 9.609375 17.240234 L 8.9101562 16.189453 L 8.9101562 16.179688 z M 20.740234 16.179688 L 21.109375 16.609375 L 21.109375 20.449219 L 20.75 20.869141 L 22.699219 20.869141 L 22.330078 20.460938 L 22.330078 18.089844 L 22.349609 18.089844 C 22.529609 18.619844 24.569531 20.229141 24.769531 20.869141 L 25.839844 20.869141 L 25.839844 16.609375 L 26.210938 16.189453 L 24.25 16.189453 L 24.599609 16.599609 L 24.599609 18.730469 L 24.580078 18.730469 C 24.310078 18.010469 22.470312 16.649687 22.320312 16.179688 L 20.740234 16.179688 z M 9.5605469 16.189453 L 11.759766 19.480469 L 11.769531 20.449219 L 11.390625 20.859375 L 13.519531 20.859375 L 13.160156 20.449219 L 13.150391 19.5 L 15.349609 16.189453 L 13.269531 16.189453 L 13.570312 16.550781 L 12.550781 18.410156 L 12.529297 18.410156 L 11.480469 16.550781 L 11.800781 16.189453 L 9.5605469 16.189453 z M 1.9296875 17.050781 C 2.9296875 17.050781 3.4101562 17.01 3.4101562 17.5 L 3.4101562 17.650391 C 3.4101562 18.260391 2.4596875 18.089844 1.9296875 18.089844 L 1.9296875 17.050781 z M 17.720703 17.150391 C 19.560703 17.150391 19.660937 19.910156 17.710938 19.910156 C 15.840937 19.910156 15.870703 17.150391 17.720703 17.150391 z M 28.761719 17.162109 C 29.927383 17.132441 30.570312 17.529766 30.570312 18.509766 C 30.570312 19.789766 29.500469 20.019375 28.230469 19.859375 L 28.230469 17.199219 C 28.417969 17.177969 28.595195 17.166348 28.761719 17.162109 z M 2.4433594 18.869141 C 2.9903906 18.861641 3.5703125 18.900312 3.5703125 19.320312 L 3.5703125 19.539062 L 3.5800781 19.539062 C 3.5800781 20.099062 2.9496875 20.009766 1.9296875 20.009766 L 1.9296875 18.880859 C 2.0821875 18.880859 2.2610156 18.871641 2.4433594 18.869141 z"/></svg>