<svg xmlns="http://www.w3.org/2000/svg" viewBox="0 0 32 32"><path d="M 6.6992188 5 C 6.4512187 5.01 6.0058594 5.0392031 6.0058594 5.7832031 L 6.0058594 15.703125 C 5.8268594 19.760125 9.7946094 21 10.974609 21 L 15.210938 21 C 14.387937 20.206 14.072906 19.245719 14.003906 18.511719 C 13.943906 17.886719 14.886547 17.808828 14.935547 18.423828 C 14.945547 18.532828 15.190859 21 17.630859 21 L 17.929688 21 L 19.447266 18.421875 L 19.693359 18 L 23 18 L 23 10.595703 C 23 8.7007031 22.166188 4.9897656 17.117188 5.0097656 L 13.068359 5.0097656 C 13.544359 5.5157656 13.933594 6.157 13.933594 7 C 13.932594 7.625 13 7.625 13 7 C 13 4.877 10.737063 4.9897656 10.539062 5.0097656 C 10.529063 5.0097656 10.519766 5 10.509766 5 L 6.6992188 5 z M 18.513672 12.003906 C 19.440879 12.063672 20.283828 13.012109 19.908203 14.302734 L 17 12.974609 C 17.370875 12.251234 17.957348 11.968047 18.513672 12.003906 z M 20.445312 19 L 19.353516 21 L 24 21 C 25.794 21 28 20 29 19 L 20.445312 19 z M 19 22 C 20 23 20.59275 23.551875 20.59375 23.796875 C 20.60375 23.888875 20.622625 25.795594 18.765625 26.683594 C 18.244625 26.928594 18.072234 26.99 17.490234 27 L 16 29 C 17 29 17.540984 29.000219 17.958984 28.949219 C 20.407984 28.632219 22.060766 26.754094 22.509766 25.621094 C 22.642766 25.285094 22.99 24.398 23 22 L 19 22 z"/></svg>