<svg xmlns="http://www.w3.org/2000/svg" viewBox="0 0 32 32"><path d="M 16 6 C 8.82 6 3 8.462 3 11.5 L 3 20.5 C 3 23.538 8.82 26 16 26 C 23.18 26 29 23.538 29 20.5 L 29 11.5 C 29 8.462 23.18 6 16 6 z M 16 8 C 16.893125 8 17.734229 8.0394687 18.523438 8.109375 C 18.687739 8.1239284 18.84026 8.1449303 19 8.1621094 L 19 8.5996094 C 19 9.9196094 17.65 11 16 11 C 14.35 11 13 9.9196094 13 8.5996094 L 13 8.1621094 C 13.927038 8.0624121 14.92094 8 16 8 z M 12.896484 8.1738281 C 12.561764 8.2089911 12.240895 8.2528849 11.925781 8.3007812 C 12.062455 8.2799433 12.191484 8.2552358 12.332031 8.2363281 C 12.51362 8.2118992 12.70846 8.1948295 12.896484 8.1738281 z M 19.103516 8.1738281 C 19.29154 8.1948295 19.48638 8.2118992 19.667969 8.2363281 C 19.808516 8.2552358 19.937545 8.2799433 20.074219 8.3007812 C 19.759105 8.2528849 19.438236 8.2089911 19.103516 8.1738281 z M 11.523438 8.3632812 C 11.347689 8.3934993 11.181027 8.4293286 11.011719 8.4628906 C 11.102255 8.4452092 11.175073 8.4211401 11.267578 8.4042969 C 11.349705 8.3893433 11.439762 8.3775456 11.523438 8.3632812 z M 20.476562 8.3632812 C 20.560238 8.3775456 20.650295 8.3893433 20.732422 8.4042969 C 20.824927 8.4211401 20.897745 8.4452092 20.988281 8.4628906 C 20.818973 8.4293286 20.652311 8.3934993 20.476562 8.3632812 z M 10.519531 8.5761719 L 11.560547 10.380859 C 12.000547 11.120859 12.110625 11.990078 11.890625 12.830078 C 11.702439 13.49368 11.315254 14.067319 10.792969 14.486328 C 7.0213975 13.7066 5 12.230087 5 11.5 C 5 11.4365 5.0149426 11.366973 5.0449219 11.292969 C 5.3509502 10.537536 7.2506649 9.299294 10.519531 8.5761719 z M 21.480469 8.5761719 C 25.069561 9.3701328 27 10.788292 27 11.5 C 27 12.230212 24.977902 13.706709 21.205078 14.486328 C 20.683385 14.067598 20.297421 13.503084 20.109375 12.830078 C 19.889375 11.990078 19.999688 11.120859 20.429688 10.380859 L 21.480469 8.5761719 z M 16 13 C 17.31 13 18.399297 13.779375 18.779297 14.859375 C 19.157001 14.825038 19.516437 14.781496 19.869141 14.732422 C 18.710942 14.898479 17.424052 15 16 15 C 14.575948 15 13.289058 14.898479 12.130859 14.732422 C 12.483563 14.781496 12.842999 14.825038 13.220703 14.859375 C 13.600703 13.779375 14.69 13 16 13 z M 5 14.421875 C 7.3005188 15.96894 11.36057 17 16 17 C 20.63943 17 24.699481 15.96894 27 14.421875 L 27 20.5 C 27 21.516 23.145 24 16 24 C 8.855 24 5 21.516 5 20.5 L 5 14.421875 z M 11.113281 14.560547 C 11.278823 14.592606 11.447781 14.622055 11.619141 14.650391 C 11.446245 14.62166 11.279655 14.592163 11.113281 14.560547 z M 20.886719 14.560547 C 20.720345 14.592163 20.553755 14.62166 20.380859 14.650391 C 20.552219 14.622055 20.721177 14.592606 20.886719 14.560547 z"/></svg>