<svg xmlns="http://www.w3.org/2000/svg" viewBox="0 0 32 32"><path d="M 16 4 C 15.839844 4 15.6875 4.023438 15.53125 4.03125 C 10.832031 4.261719 7 7.847656 7 12.34375 C 7 15.292969 8.789063 17.882813 10.46875 19.75 C 12.148438 21.617188 13.8125 22.8125 13.8125 22.8125 L 14.09375 23 L 17.90625 23 L 18.1875 22.8125 C 18.1875 22.8125 19.851563 21.617188 21.53125 19.75 C 23.210938 17.882813 25 15.292969 25 12.34375 C 25 7.835938 21.152344 4.246094 16.4375 4.03125 C 16.289063 4.011719 16.148438 4 16 4 Z M 16 6 C 16.273438 6 17.113281 6.3125 17.78125 7.15625 C 18.449219 8 19 9.328125 19 11.21875 C 19 15.535156 16.726563 20.230469 16.34375 21 L 15.65625 21 C 15.273438 20.226563 13 15.515625 13 11.21875 C 13 9.398438 13.574219 8.054688 14.25 7.1875 C 14.925781 6.320313 15.757813 6 16 6 Z M 11.90625 7.21875 C 11.367188 8.308594 11 9.640625 11 11.21875 C 11 14.101563 11.863281 17.050781 12.6875 19.21875 C 12.441406 18.96875 12.207031 18.703125 11.9375 18.40625 C 10.417969 16.714844 9 14.449219 9 12.34375 C 9 10.242188 10.144531 8.375 11.90625 7.21875 Z M 20.15625 7.25 C 21.886719 8.410156 23 10.261719 23 12.34375 C 23 14.449219 21.582031 16.714844 20.0625 18.40625 C 19.800781 18.699219 19.554688 18.945313 19.3125 19.1875 C 20.128906 17.027344 21 14.089844 21 11.21875 C 21 9.648438 20.667969 8.328125 20.15625 7.25 Z M 14 25 L 14 28 L 18 28 L 18 25 Z"/></svg>