<svg xmlns="http://www.w3.org/2000/svg" viewBox="0 0 32 32"><path d="M 16 7 C 9.617188 7 4.03125 9.0625 4.03125 9.0625 L 3.4375 9.28125 L 3.375 9.875 L 2.03125 20.125 C 1.667969 22.960938 3.695313 25.605469 6.53125 25.96875 C 9.171875 26.308594 11.539063 24.527344 12.15625 22 L 19.84375 22 C 20.464844 24.527344 22.828125 26.308594 25.46875 25.96875 C 28.304688 25.605469 30.332031 22.960938 29.96875 20.125 L 28.625 9.875 L 28.5625 9.28125 L 27.96875 9.0625 C 27.96875 9.0625 22.382813 7 16 7 Z M 16 9 C 21.484375 9 26.007813 10.523438 26.75 10.78125 L 27.96875 20.40625 C 28.195313 22.167969 26.980469 23.742188 25.21875 23.96875 C 23.457031 24.195313 21.851563 22.980469 21.625 21.21875 L 21.59375 20.875 L 21.46875 20 L 10.53125 20 L 10.40625 20.875 L 10.375 21.21875 C 10.148438 22.980469 8.542969 24.195313 6.78125 23.96875 C 5.019531 23.742188 3.804688 22.167969 4.03125 20.40625 L 5.25 10.78125 C 5.992188 10.523438 10.515625 9 16 9 Z M 9 12 L 9 14 L 7 14 L 7 16 L 9 16 L 9 18 L 11 18 L 11 16 L 13 16 L 13 14 L 11 14 L 11 12 Z M 22 12 C 21.449219 12 21 12.449219 21 13 C 21 13.550781 21.449219 14 22 14 C 22.550781 14 23 13.550781 23 13 C 23 12.449219 22.550781 12 22 12 Z M 20 14 C 19.449219 14 19 14.449219 19 15 C 19 15.550781 19.449219 16 20 16 C 20.550781 16 21 15.550781 21 15 C 21 14.449219 20.550781 14 20 14 Z M 24 14 C 23.449219 14 23 14.449219 23 15 C 23 15.550781 23.449219 16 24 16 C 24.550781 16 25 15.550781 25 15 C 25 14.449219 24.550781 14 24 14 Z M 22 16 C 21.449219 16 21 16.449219 21 17 C 21 17.550781 21.449219 18 22 18 C 22.550781 18 23 17.550781 23 17 C 23 16.449219 22.550781 16 22 16 Z"/></svg>