<svg xmlns="http://www.w3.org/2000/svg" viewBox="0 0 32 32"><path d="M 12 5 C 10.355469 5 9 6.355469 9 8 C 9 8.351563 9.074219 8.683594 9.1875 9 L 4 9 L 4 15 L 5 15 L 5 28 L 27 28 L 27 15 L 28 15 L 28 9 L 22.8125 9 C 22.925781 8.683594 23 8.351563 23 8 C 23 6.355469 21.644531 5 20 5 C 18.25 5 17.0625 6.328125 16.28125 7.4375 C 16.175781 7.585938 16.09375 7.730469 16 7.875 C 15.90625 7.730469 15.824219 7.585938 15.71875 7.4375 C 14.9375 6.328125 13.75 5 12 5 Z M 12 7 C 12.625 7 13.4375 7.671875 14.0625 8.5625 C 14.214844 8.78125 14.191406 8.792969 14.3125 9 L 12 9 C 11.433594 9 11 8.566406 11 8 C 11 7.433594 11.433594 7 12 7 Z M 20 7 C 20.566406 7 21 7.433594 21 8 C 21 8.566406 20.566406 9 20 9 L 17.6875 9 C 17.808594 8.792969 17.785156 8.78125 17.9375 8.5625 C 18.5625 7.671875 19.375 7 20 7 Z M 6 11 L 26 11 L 26 13 L 17 13 L 17 12 L 15 12 L 15 13 L 6 13 Z M 7 15 L 25 15 L 25 26 L 17 26 L 17 16 L 15 16 L 15 26 L 7 26 Z"/></svg>