<svg xmlns="http://www.w3.org/2000/svg" viewBox="0 0 32 32"><path d="M 16 3 C 8.832 3 3 8.832 3 16 C 3 23.168 8.832 29 16 29 C 23.168 29 29 23.168 29 16 C 29 8.832 23.168 3 16 3 z M 16 5 C 16.338 5 16.67 5.0207813 17 5.0507812 L 17 6 L 19 6 L 19 5.4257812 C 21.458 6.1247812 23.566 7.6543125 25 9.6953125 L 25 13 L 26 15 L 26 16 L 27 16 C 27 16.366 26.980312 16.728938 26.945312 17.085938 C 26.936312 17.181938 26.916297 17.274141 26.904297 17.369141 C 26.871297 17.632141 26.837156 17.893391 26.785156 18.150391 C 26.766156 18.246391 26.74075 18.340547 26.71875 18.435547 C 26.66075 18.689547 26.598437 18.942453 26.523438 19.189453 C 26.497438 19.274453 26.467453 19.357406 26.439453 19.441406 C 26.355453 19.695406 26.266063 19.947359 26.164062 20.193359 C 26.134062 20.265359 26.101312 20.33525 26.070312 20.40625 C 25.958313 20.66125 25.840938 20.91225 25.710938 21.15625 C 25.679938 21.21525 25.646281 21.273078 25.613281 21.330078 C 25.473281 21.582078 25.325016 21.826406 25.166016 22.066406 C 25.135016 22.113406 25.102312 22.161984 25.070312 22.208984 C 24.902313 22.453984 24.724109 22.691875 24.537109 22.921875 C 24.506109 22.959875 24.478266 22.996203 24.447266 23.033203 C 24.253266 23.266203 24.047937 23.489078 23.835938 23.705078 C 23.804938 23.736078 23.775141 23.769781 23.744141 23.800781 C 23.527141 24.015781 23.300406 24.221969 23.066406 24.417969 C 23.033406 24.445969 23.004703 24.474953 22.970703 24.501953 C 22.736703 24.693953 22.491187 24.872922 22.242188 25.044922 C 22.203187 25.071922 22.167906 25.102906 22.128906 25.128906 C 21.889906 25.289906 21.640672 25.436125 21.388672 25.578125 C 20.214672 26.237125 18.909578 26.690859 17.517578 26.880859 L 21.529297 23.857422 L 22.628906 22.757812 L 24 20 L 24 19 L 22 18 L 21 18 L 19 16 L 17 16 L 16 17 L 16 18 L 15 19 L 15 21 L 17 22.599609 L 15.023438 26.951172 C 9.4144375 26.453172 5 21.735 5 16 C 5 12.592 6.559 9.5414844 9 7.5214844 L 9 8 L 8 9 L 8 11.199219 L 9 15 L 14 17 L 15 17 L 15 16 L 12 15 L 12 13 L 15 13 L 16 10.5 L 18 9 L 18 8 L 15 6 L 13.5625 5.28125 C 14.3475 5.10325 15.161 5 16 5 z M 15 14 L 15 15 L 17 15 L 17 14 L 15 14 z"/></svg>