<svg xmlns="http://www.w3.org/2000/svg" viewBox="0 0 32 32"><path d="M 22 3.5 C 21.421875 3.5 20.855469 3.660156 20.34375 3.9375 C 18.652344 4.859375 18.023438 6.960938 18.9375 8.65625 C 18.941406 8.667969 19.386719 9.601563 19.8125 11.125 C 17.6875 8.0625 15.421875 6.449219 15.3125 6.375 C 15.296875 6.359375 15.265625 6.359375 15.25 6.34375 C 15.21875 6.320313 15.1875 6.300781 15.15625 6.28125 C 14.542969 5.792969 13.796875 5.5 13 5.5 C 12.289063 5.5 11.617188 5.722656 11.03125 6.125 C 9.449219 7.214844 9.042969 9.378906 10.125 10.96875 C 10.125 10.96875 10.378906 11.417969 10.65625 12.0625 C 10.300781 11.785156 9.945313 11.53125 9.59375 11.3125 C 8.183594 10.441406 7.003906 10 6 10 C 4.355469 10 3 11.355469 3 13 C 3 14.007813 3.613281 14.789063 4.28125 15.34375 C 4.949219 15.898438 5.734375 16.367188 6.53125 16.90625 C 8.015625 17.90625 9.503906 19.105469 10.34375 21.375 C 10.121094 21.898438 9.941406 22.304688 9.9375 22.3125 C 9 23.972656 9.605469 26.082031 11.28125 27.03125 C 11.804688 27.328125 12.398438 27.5 13 27.5 C 14.257813 27.5 15.410156 26.8125 16.03125 25.71875 C 16.195313 25.429688 17.144531 23.664063 17.8125 21.125 C 18.234375 22.386719 18.597656 24.023438 18.5 25.9375 C 18.460938 26.136719 18.480469 26.34375 18.5625 26.53125 C 18.566406 26.550781 18.558594 26.574219 18.5625 26.59375 C 18.757813 27.699219 19.464844 28.695313 20.5625 29.1875 C 21.011719 29.390625 21.503906 29.5 22 29.5 C 23.378906 29.5 24.625 28.695313 25.1875 27.4375 C 25.421875 26.90625 27.5 22.097656 27.5 16.09375 C 27.5 9.949219 25.3125 5.765625 25.0625 5.3125 C 24.449219 4.191406 23.277344 3.5 22 3.5 Z M 22 5.5 C 22.53125 5.5 23.039063 5.785156 23.3125 6.28125 C 23.402344 6.445313 25.5 10.335938 25.5 16.09375 C 25.5 21.789063 23.460938 26.429688 23.375 26.625 C 23.125 27.183594 22.574219 27.5 22 27.5 C 21.796875 27.5 21.574219 27.464844 21.375 27.375 C 20.617188 27.035156 20.289063 26.132813 20.625 25.375 C 20.652344 25.3125 22.261719 21.621094 22.46875 17.03125 C 22.527344 16.859375 22.539063 16.675781 22.5 16.5 C 22.503906 16.363281 22.5 16.230469 22.5 16.09375 C 22.5 11.144531 20.707031 7.753906 20.6875 7.71875 C 20.292969 6.992188 20.554688 6.082031 21.28125 5.6875 C 21.511719 5.5625 21.757813 5.5 22 5.5 Z M 13 7.5 C 13.355469 7.5 13.691406 7.636719 13.96875 7.875 C 13.980469 7.886719 13.988281 7.894531 14 7.90625 C 14.078125 7.980469 14.15625 8.0625 14.21875 8.15625 C 14.3125 8.289063 16.5 11.476563 16.5 16.1875 C 16.5 20.824219 14.402344 24.59375 14.3125 24.75 C 14.035156 25.238281 13.523438 25.5 13 25.5 C 12.75 25.5 12.484375 25.445313 12.25 25.3125 C 11.53125 24.90625 11.28125 23.972656 11.6875 23.25 C 11.714844 23.203125 13.5 20 13.5 16.1875 C 13.5 12.457031 11.796875 9.871094 11.78125 9.84375 C 11.316406 9.160156 11.476563 8.25 12.15625 7.78125 C 12.414063 7.601563 12.707031 7.5 13 7.5 Z M 17.96875 11.96875 C 18.917969 13.273438 19.835938 14.867188 20.46875 16.78125 C 20.410156 18.390625 20.167969 19.875 19.875 21.125 C 19.328125 19.21875 18.667969 18.054688 18.4375 17.6875 C 18.480469 17.191406 18.5 16.707031 18.5 16.1875 C 18.5 14.617188 18.277344 13.199219 17.96875 11.96875 Z M 6 12 C 6.101563 12 7.359375 12.308594 8.53125 13.03125 C 9.625 13.707031 10.753906 14.699219 11.5 16.03125 C 11.5 16.082031 11.5 16.132813 11.5 16.1875 C 11.5 17.070313 11.386719 17.910156 11.21875 18.6875 C 10.167969 17.097656 8.820313 16.035156 7.65625 15.25 C 6.796875 14.671875 6.027344 14.199219 5.5625 13.8125 C 5.097656 13.425781 5 13.242188 5 13 C 5 12.433594 5.433594 12 6 12 Z"/></svg>