<svg xmlns="http://www.w3.org/2000/svg" viewBox="0 0 32 32"><path d="M 16 3 C 8.832 3 3 8.832 3 16 C 3 19.88 4.717875 23.358187 7.421875 25.742188 C 7.613875 25.252187 7.9035937 24.623563 8.3085938 23.851562 C 6.2695938 21.853563 5 19.073 5 16 C 5 9.935 9.935 5 16 5 C 19.073 5 21.853563 6.2695937 23.851562 8.3085938 C 24.624562 7.9035937 25.252188 7.612875 25.742188 7.421875 C 23.358188 4.717875 19.88 3 16 3 z M 27.5 9 C 26.672 9 24 10.5 24 10.5 C 24 10.5 26.672 12 27.5 12 C 28.328 12 29 11.328 29 10.5 C 29 9.672 28.328 9 27.5 9 z M 19.292969 9.2929688 L 15.292969 13.292969 L 16.707031 14.707031 L 20.707031 10.707031 L 19.292969 9.2929688 z M 23.570312 13.429688 L 13.429688 23.570312 C 14.239687 23.850312 15.1 24 16 24 C 20.42 24 24 20.42 24 16 C 24 15.1 23.850313 14.239688 23.570312 13.429688 z M 28.791016 13.746094 C 28.391016 13.906094 27.957 14 27.5 14 C 27.379 14 27.164875 13.997062 26.796875 13.914062 C 26.926875 14.590063 27 15.286 27 16 C 27 22.065 22.065 27 16 27 C 15.286 27 14.590063 26.926875 13.914062 26.796875 C 13.997063 27.164875 14 27.379 14 27.5 C 14 27.957 13.906094 28.391016 13.746094 28.791016 C 14.480094 28.920016 15.23 29 16 29 C 23.168 29 29 23.168 29 16 C 29 15.23 28.920016 14.480094 28.791016 13.746094 z M 13.292969 15.292969 L 9.2929688 19.292969 L 10.707031 20.707031 L 14.707031 16.707031 L 13.292969 15.292969 z M 10.5 24 C 10.5 24 9 26.672 9 27.5 C 9 28.328 9.672 29 10.5 29 C 11.328 29 12 28.328 12 27.5 C 12 26.672 10.5 24 10.5 24 z"/></svg>