<svg xmlns="http://www.w3.org/2000/svg" viewBox="0 0 32 32"><path d="M 16 3 C 8.87 3 3.0668594 8.7716719 3.0058594 15.888672 C 3.5798594 15.658672 4.2590156 15.427266 5.0410156 15.197266 C 5.4540156 9.5062656 10.205 5 16 5 C 21.795 5 26.545984 9.5062656 26.958984 15.197266 C 27.740984 15.427266 28.420141 15.658672 28.994141 15.888672 C 28.933141 8.7716719 23.13 3 16 3 z M 9 14 L 9 16 L 14 16 L 14 14 L 9 14 z M 18 14 L 18 16 L 23 16 L 23 14 L 18 14 z M 6 17 C 6 17 3.0304062 17.834828 2.4414062 18.423828 C 1.8524063 19.012828 1.8524063 19.969594 2.4414062 20.558594 C 3.0304062 21.147594 3.9871719 21.147594 4.5761719 20.558594 C 5.1651719 19.969594 6 17 6 17 z M 26 17 C 26 17 26.834828 19.969594 27.423828 20.558594 C 28.012828 21.147594 28.969594 21.147594 29.558594 20.558594 C 30.147594 19.969594 30.147594 19.012828 29.558594 18.423828 C 28.969594 17.834828 26 17 26 17 z M 9 19 C 9 19 10.61 24 16 24 C 21.39 24 23 19 23 19 L 9 19 z M 6.4277344 21.400391 C 6.2817344 21.633391 6.1342344 21.828656 5.9902344 21.972656 C 5.6692344 22.293656 5.295625 22.540844 4.890625 22.714844 C 7.171625 26.474844 11.291 29 16 29 C 20.709 29 24.828375 26.474844 27.109375 22.714844 C 26.704375 22.540844 26.330766 22.294656 26.009766 21.972656 C 25.864766 21.827656 25.718266 21.632391 25.572266 21.400391 C 23.681266 24.738391 20.103 27 16 27 C 11.897 27 8.3187344 24.738391 6.4277344 21.400391 z"/></svg>