<svg xmlns="http://www.w3.org/2000/svg" viewBox="0 0 32 32"><path d="M 16 3 C 8.832 3 3 8.832 3 16 C 3 23.168 8.832 29 16 29 C 23.168 29 29 23.168 29 16 C 29 13.946 28.50825 12.008297 27.65625 10.279297 C 27.35625 10.986297 26.864859 11.586734 26.255859 12.052734 C 26.729859 13.279734 27 14.608 27 16 C 27 22.065 22.065 27 16 27 C 9.935 27 5 22.065 5 16 C 5 9.935 9.935 5 16 5 C 17.351 5 18.640891 5.256125 19.837891 5.703125 C 20.097891 5.111125 20.397844 4.5024375 20.714844 3.8984375 C 19.250844 3.3264375 17.664 3 16 3 z M 23.5 3 C 23.5 3 21 7.2746094 21 8.5996094 C 21 9.9246094 22.12 11 23.5 11 C 24.88 11 26 9.9246094 26 8.5996094 C 26 7.2746094 23.5 3 23.5 3 z M 9 14 L 9 16 L 14 16 L 14 14 L 9 14 z M 18 14 L 18 16 L 23 16 L 23 14 L 18 14 z"/></svg>