<svg xmlns="http://www.w3.org/2000/svg" viewBox="0 0 32 32"><path d="M 19.210938 7.0097656 C 18.953605 7.0020895 18.68985 7.0166835 18.421875 7.0566406 C 17.736865 7.1586052 17.093941 7.4137992 16.433594 7.625 C 15.773247 7.8362008 15.119109 8 14.630859 8 C 14.31959 8 13.757226 7.9918469 13.189453 7.9980469 C 12.62168 8.0042469 12.078675 8.0122369 11.599609 8.0996094 C 10.753303 8.2542139 10.020332 8.625504 9.5058594 9.1914062 C 8.9913863 9.7573086 8.7176772 10.467347 8.5917969 11.205078 A 1.0001 1.0001 0 0 0 8.5898438 11.21875 L 7.9882812 15.035156 C 4.8444092 15.212995 2.5666185 17.144707 1.3320312 19.738281 C 0.78950854 20.877379 0.9239394 22.136783 1.5234375 23.058594 C 2.1229356 23.980405 3.1143224 24.604998 4.2539062 24.851562 C 12.426691 26.619913 19.429095 26.079361 27.046875 24.998047 A 1.0001 1.0001 0 0 0 27.0625 24.998047 A 1.0001 1.0001 0 0 0 27.072266 24.998047 L 27.072266 24.996094 A 1.0001 1.0001 0 0 0 27.117188 24.992188 C 27.125187 24.991087 27.132645 24.991417 27.140625 24.990234 A 1.0001 1.0001 0 0 0 27.160156 24.986328 A 1.0001 1.0001 0 0 0 27.443359 24.894531 C 28.735348 24.625296 29.700395 24.082877 30.257812 23.347656 C 30.860807 22.552353 31 21.66 31 20.982422 C 31 17.581633 28.382305 13.481886 23.554688 12.179688 L 22.96875 9.90625 A 1.0001 1.0001 0 0 0 22.962891 9.8867188 C 22.50168 8.2374833 21.012265 7.0634987 19.210938 7.0097656 z M 19.185547 8.9941406 C 20.213061 8.9797344 20.778465 9.5093069 21.035156 10.423828 C 21.035156 10.423828 21.037109 10.425781 21.037109 10.425781 L 21.730469 13.107422 L 21.732422 13.113281 A 1.0001 1.0001 0 0 0 21.798828 13.376953 L 21.962891 14.009766 A 1.0001 1.0001 0 0 0 21.982422 14.091797 C 22.094639 14.493592 21.739122 15.292796 21.267578 15.568359 C 20.980272 15.736026 19.866822 16.159119 18.572266 16.462891 C 17.359672 16.74743 15.939127 16.961012 14.642578 16.986328 C 13.398 16.090951 11.930893 15.358691 10.003906 15.101562 L 10.564453 11.542969 C 10.646573 11.0617 10.791098 10.749707 10.984375 10.537109 C 11.177652 10.324512 11.442291 10.160799 11.958984 10.066406 C 12.126919 10.035776 12.67896 10.003856 13.210938 9.9980469 C 13.742915 9.9922421 14.284129 10 14.630859 10 C 15.51161 10 16.326816 9.7602992 17.042969 9.53125 C 17.759122 9.3022008 18.400807 9.0802385 18.716797 9.0332031 C 18.882911 9.0084342 19.038759 8.9961987 19.185547 8.9941406 z M 24.152344 14.490234 C 27.38392 15.858629 29 18.879672 29 20.982422 C 29 21.392843 28.92003 21.803012 28.664062 22.140625 C 28.411965 22.473135 27.933053 22.819566 26.867188 23 C 23.845001 23.211656 21.914717 22.680867 20.386719 21.792969 C 21.646731 21.526478 22.774012 21.123908 23.521484 20.6875 A 1.0001 1.0001 0 0 0 23.523438 20.685547 C 24.672021 20.01418 25.250057 18.645011 24.892578 17.359375 L 24.152344 14.490234 z M 22.730469 16.982422 L 22.960938 17.876953 A 1.0001 1.0001 0 0 0 22.964844 17.894531 C 23.080218 18.308322 22.914494 18.724696 22.513672 18.958984 C 21.841611 19.351363 19.86932 19.99849 18.138672 20.080078 C 17.957383 19.912952 17.776919 19.74692 17.595703 19.574219 C 17.339396 19.329954 17.061359 19.074354 16.796875 18.822266 C 17.574735 18.717286 18.331995 18.57378 19.029297 18.410156 C 20.44299 18.078428 21.551697 17.717256 22.275391 17.294922 A 1.0001 1.0001 0 0 0 22.277344 17.294922 C 22.436151 17.202117 22.588318 17.097101 22.730469 16.982422 z M 8.4492188 17 C 10.815724 17 12.314065 17.672239 13.615234 18.660156 A 1.0001 1.0001 0 0 0 13.919922 18.892578 C 14.690861 19.51982 15.407825 20.252383 16.214844 21.021484 C 16.465673 21.260528 16.728101 21.499448 17.003906 21.734375 A 1.0001 1.0001 0 0 0 17.326172 21.990234 A 1.0001 1.0001 0 0 0 17.332031 21.994141 C 18.066017 22.589577 18.879367 23.159052 19.8125 23.646484 C 14.902761 24.01751 10.035585 24.058142 4.6757812 22.898438 C 3.9943652 22.751003 3.4632207 22.374689 3.1992188 21.96875 C 2.9352167 21.562811 2.8662414 21.167512 3.1367188 20.599609 C 4.2032721 18.359035 5.8063398 17 8.4492188 17 z"/></svg>