<svg xmlns="http://www.w3.org/2000/svg" viewBox="0 0 32 32"><path d="M 16 3 C 15.628 3 15.257141 3.2163906 15.119141 3.6503906 L 13.388672 9.09375 L 8.7558594 6.3984375 C 8.5948594 6.2964375 8.4256719 6.25 8.2636719 6.25 C 7.6586719 6.25 7.1372969 6.880875 7.4042969 7.546875 L 9.3867188 12.5 L 3.8007812 13.283203 C 2.9097812 13.408203 2.6991406 14.617922 3.4941406 15.044922 L 8.4785156 17.71875 L 4.3261719 22.013672 C 3.7721719 22.635672 4.2399531 23.583984 5.0019531 23.583984 C 5.0689531 23.583984 5.1379844 23.576547 5.2089844 23.560547 L 11.210938 22.308594 L 11.001953 28.023438 C 10.979953 28.615437 11.4525 28.998047 11.9375 28.998047 C 12.1995 28.998047 12.465203 28.887766 12.658203 28.634766 L 16 24.119141 L 19.34375 28.634766 C 19.53675 28.886766 19.802453 28.998047 20.064453 28.998047 C 20.548453 28.998047 21.020047 28.615437 20.998047 28.023438 L 20.789062 22.308594 L 26.832031 23.560547 C 26.903031 23.575547 26.973062 23.583984 27.039062 23.583984 C 27.803062 23.583984 28.268844 22.634672 27.714844 22.013672 L 23.521484 17.71875 L 28.507812 15.044922 C 29.301813 14.618922 29.090219 13.410156 28.199219 13.285156 L 22.613281 12.5 L 24.595703 7.546875 C 24.862703 6.880875 24.341328 6.25 23.736328 6.25 C 23.573328 6.25 23.405141 6.2964375 23.244141 6.3984375 L 18.613281 9.09375 L 16.882812 3.6503906 C 16.743813 3.2173906 16.372 3 16 3 z M 16 10.867188 L 16.861328 13.576172 L 19.572266 11.998047 L 18.384766 14.96875 L 21.501953 15.404297 L 18.525391 17.001953 L 20.679688 19.207031 L 17.751953 18.587891 L 17.861328 21.607422 L 16 19.183594 L 14.140625 21.609375 L 14.251953 18.582031 L 11.308594 19.208984 L 13.453125 16.990234 L 10.5 15.40625 L 13.615234 14.96875 L 12.427734 12 L 15.138672 13.576172 L 16 10.867188 z"/></svg>