<svg xmlns="http://www.w3.org/2000/svg" viewBox="0 0 32 32"><path d="M 23 4 C 20.957031 4 19.695313 5.207031 19 6.15625 L 19 5 C 3.183594 5 3 27.769531 3 28 L 7 28 C 7 28 6.984375 23.125 8.53125 18.3125 C 9.304688 15.90625 10.480469 13.527344 12.15625 11.8125 C 13.832031 10.097656 15.972656 9 19 9 L 19.625 9 L 19.90625 8.4375 C 19.90625 8.4375 20.792969 6.953125 22 6.3125 L 22 9.25 L 26.09375 17.4375 L 26.1875 17.59375 L 26.3125 17.71875 C 26.714844 18.097656 26.867188 18.457031 26.9375 18.6875 C 26.992188 18.855469 26.96875 18.851563 26.96875 18.875 C 26.941406 18.972656 26.898438 19.183594 26.71875 19.46875 C 26.5 19.816406 26.304688 20 26 20 C 25.695313 20 25.5 19.816406 25.28125 19.46875 C 25.0625 19.121094 24.96875 18.75 24.96875 18.75 L 24.75 17.90625 L 23.875 18 C 23.875 18 23.042969 18.097656 22.125 17.84375 C 21.207031 17.589844 20.339844 17.140625 19.96875 15.75 L 19.625 14.46875 L 18.5 15.125 C 17.207031 15.882813 16.457031 17.039063 16.3125 18.21875 C 16.167969 19.398438 16.515625 20.535156 16.9375 21.65625 C 17.777344 23.898438 19 26.183594 19 28 L 21 28 C 21 25.378906 19.535156 22.945313 18.78125 20.9375 C 18.40625 19.933594 18.234375 19.085938 18.3125 18.46875 C 18.359375 18.09375 18.511719 17.773438 18.78125 17.46875 C 19.542969 18.660156 20.585938 19.503906 21.59375 19.78125 C 22.523438 20.039063 22.902344 19.957031 23.34375 19.9375 C 23.433594 20.171875 23.40625 20.230469 23.59375 20.53125 C 24 21.183594 24.804688 22 26 22 C 27.195313 22 28 21.183594 28.40625 20.53125 C 28.8125 19.878906 28.96875 19.25 28.96875 19.25 L 29 19.15625 L 29 19.0625 C 29 19.0625 29.007813 18.582031 28.84375 18.0625 C 28.707031 17.625 28.347656 17.09375 27.875 16.5625 L 27.90625 16.5625 L 24 8.75 L 24 4 Z M 18.46875 7.03125 C 18.464844 7.039063 18.441406 7.054688 18.4375 7.0625 C 18.03125 7.082031 17.636719 7.101563 17.25 7.15625 C 16.9375 7.199219 16.640625 7.277344 16.34375 7.34375 C 16.640625 7.265625 16.9375 7.207031 17.25 7.15625 C 17.640625 7.089844 18.050781 7.050781 18.46875 7.03125 Z M 22 12 C 21.449219 12 21 12.449219 21 13 C 21 13.550781 21.449219 14 22 14 C 22.550781 14 23 13.550781 23 13 C 23 12.449219 22.550781 12 22 12 Z"/></svg>