<svg xmlns="http://www.w3.org/2000/svg" viewBox="0 0 32 32"><path d="M 11.21875 4.375 C 10.390625 5.398438 10.007813 6.273438 10 7.125 C 9.992188 7.976563 10.371094 8.636719 10.625 9.0625 C 10.878906 9.488281 10.992188 9.703125 11 9.9375 C 11.007813 10.171875 10.929688 10.582031 10.3125 11.375 L 11.875 12.625 C 12.65625 11.617188 13.027344 10.710938 13 9.875 C 12.972656 9.039063 12.589844 8.441406 12.34375 8.03125 C 12.097656 7.621094 11.996094 7.402344 12 7.15625 C 12.003906 6.910156 12.109375 6.453125 12.78125 5.625 Z M 16.21875 4.375 C 15.390625 5.398438 15.007813 6.273438 15 7.125 C 14.992188 7.976563 15.371094 8.636719 15.625 9.0625 C 15.878906 9.488281 15.992188 9.703125 16 9.9375 C 16.007813 10.171875 15.929688 10.582031 15.3125 11.375 L 16.875 12.625 C 17.65625 11.617188 18.027344 10.710938 18 9.875 C 17.972656 9.039063 17.589844 8.441406 17.34375 8.03125 C 17.097656 7.621094 16.996094 7.402344 17 7.15625 C 17.003906 6.910156 17.109375 6.453125 17.78125 5.625 Z M 21.21875 4.375 C 20.390625 5.398438 20.007813 6.273438 20 7.125 C 19.992188 7.976563 20.371094 8.636719 20.625 9.0625 C 20.878906 9.488281 20.992188 9.703125 21 9.9375 C 21.007813 10.171875 20.929688 10.582031 20.3125 11.375 L 21.875 12.625 C 22.65625 11.617188 23.027344 10.710938 23 9.875 C 22.972656 9.039063 22.589844 8.441406 22.34375 8.03125 C 22.097656 7.621094 21.996094 7.402344 22 7.15625 C 22.003906 6.910156 22.109375 6.453125 22.78125 5.625 Z M 3 14 L 3 16 L 4.1875 16 L 5.71875 23.59375 L 5.71875 23.625 C 5.949219 24.65625 6.714844 25.503906 7.71875 25.84375 L 7 28 L 9 28 L 9.65625 26 L 22.34375 26 L 23 28 L 25 28 L 24.28125 25.84375 C 25.328125 25.523438 26.140625 24.683594 26.375 23.625 L 26.375 23.59375 L 27.8125 16 L 29 16 L 29 14 Z M 6.21875 16 L 25.8125 16 L 24.40625 23.21875 C 24.289063 23.652344 23.921875 24 23.40625 24 L 8.6875 24 C 8.152344 24 7.789063 23.644531 7.6875 23.1875 Z"/></svg>