<svg xmlns="http://www.w3.org/2000/svg" viewBox="0 0 32 32"><path d="M 9 4 L 10.726562 5.9082031 C 10.741563 5.9252031 12.181266 7.5891094 11.947266 9.5371094 C 11.798266 10.781109 10.986922 11.930406 9.5449219 12.941406 C 5.3059219 15.813406 4.0203438 19.676781 5.7773438 23.425781 C 7.0993437 26.247781 9.9972813 28 13.113281 28 L 14.927734 28 L 13.791016 26.388672 C 12.883016 25.214672 12.900187 23.873047 13.117188 22.873047 C 14.662188 24.042047 16.466703 23.89275 17.720703 23.09375 C 18.871703 22.35975 19.685891 21.037937 19.712891 19.460938 C 19.970891 19.868938 20.183937 20.344094 20.335938 20.871094 C 20.777938 22.402094 20.724094 24.737297 19.121094 26.279297 L 17.451172 28 L 19.025391 28 C 19.916391 28 20.810422 27.8335 21.607422 27.4375 C 24.096422 26.2025 25.776109 23.946547 26.662109 20.685547 C 27.383109 18.030547 26.922484 14.523922 25.396484 11.794922 C 21.857484 5.4439219 11.999031 4.2979531 11.582031 4.2519531 L 9 4 z M 13.453125 6.6152344 C 16.360125 7.2692344 21.514344 8.9335312 23.652344 12.769531 C 24.915344 15.026531 25.326563 17.8675 24.726562 20.1875 C 24.229563 22.1285 23.448078 23.578609 22.330078 24.599609 C 22.725078 23.101609 22.615813 21.558406 22.257812 20.316406 C 21.602812 18.048406 20.050125 16.403484 18.203125 16.021484 L 16 15.560547 L 17.142578 17.511719 C 18.203578 19.295719 17.628484 20.78025 16.646484 21.40625 C 15.863484 21.90525 14.583781 21.9535 13.550781 20.4375 L 12.597656 19.037109 L 11.832031 20.548828 C 11.567031 21.071828 10.540422 23.331078 11.232422 25.705078 C 9.7724219 25.231078 8.29725 24.171172 7.53125 22.451172 C 5.91025 18.813172 8.3426875 16.171891 10.679688 14.587891 C 12.627688 13.222891 13.7245 11.595906 13.9375 9.7539062 C 14.0755 8.5629062 13.812125 7.4792344 13.453125 6.6152344 z"/></svg>