<svg xmlns="http://www.w3.org/2000/svg" viewBox="0 0 32 32"><path d="M 5 5 L 5 27 L 27 27 L 27 5 L 5 5 z M 7 7 L 25 7 L 25 25 L 7 25 L 7 7 z M 16.001953 9 C 15.683703 9 15.365234 9.2113125 15.365234 9.6328125 L 15.365234 18.849609 C 15.365234 19.692609 16.638672 19.692609 16.638672 18.849609 L 16.638672 9.6328125 C 16.638672 9.2113125 16.320203 9 16.001953 9 z M 12.822266 9.3183594 C 12.504016 9.3183594 12.185547 9.5296719 12.185547 9.9511719 L 12.185547 18.443359 C 12.185547 19.286359 13.457031 19.286359 13.457031 18.443359 L 13.457031 9.9511719 C 13.457031 9.5296719 13.140516 9.3183594 12.822266 9.3183594 z M 19.177734 9.3183594 C 18.859484 9.3183594 18.541016 9.5296719 18.541016 9.9511719 L 18.541016 18.443359 C 18.541016 19.286359 19.814453 19.286359 19.814453 18.443359 L 19.814453 9.9511719 C 19.814453 9.5296719 19.495984 9.3183594 19.177734 9.3183594 z M 9.640625 10.591797 C 9.322375 10.591797 9.0058594 10.803109 9.0058594 11.224609 L 9.0058594 16.941406 C 9.0058594 17.784406 10.277344 17.784406 10.277344 16.941406 L 10.277344 11.224609 C 10.277344 10.803109 9.958875 10.591797 9.640625 10.591797 z M 22.357422 10.591797 C 22.039172 10.591797 21.720703 10.803109 21.720703 11.224609 L 21.720703 16.941406 C 21.720703 17.784406 22.994141 17.784406 22.994141 16.941406 L 22.994141 11.224609 C 22.994141 10.803109 22.675672 10.591797 22.357422 10.591797 z M 22.431641 19.798828 C 22.274828 19.776891 22.104063 19.817828 21.945312 19.955078 C 19.255313 22.250078 12.861641 22.309078 10.056641 19.955078 C 9.4176406 19.410078 8.5914688 20.376875 9.2304688 20.921875 C 12.482469 23.705875 19.672484 23.603875 22.771484 20.921875 C 23.247734 20.510125 22.902078 19.864641 22.431641 19.798828 z"/></svg>