<svg xmlns="http://www.w3.org/2000/svg" viewBox="0 0 32 32"><path d="M 15.498047 4 C 15.299047 4 15.138859 4.1545625 15.130859 4.3515625 L 14.601562 18.056641 L 13.203125 17.107422 C 13.059125 17.010422 12.870141 17.022578 12.744141 17.142578 C 12.619141 17.261578 12.592641 17.449609 12.681641 17.599609 L 13.605469 19.150391 L 11.671875 19.550781 C 11.501875 19.584781 11.378906 19.736156 11.378906 19.910156 C 11.378906 20.084156 11.501875 20.236484 11.671875 20.271484 L 13.605469 20.671875 L 12.679688 22.224609 C 12.591688 22.372609 12.618141 22.561641 12.744141 22.681641 C 12.863141 22.794641 13.066125 22.806844 13.203125 22.714844 L 14.451172 21.865234 L 14.337891 24.865234 C 11.720891 24.330234 9.7460938 22.020719 9.7460938 19.261719 C 9.7460938 17.649719 10.418672 16.154734 11.638672 15.052734 C 11.809672 14.898734 11.901625 14.680078 11.890625 14.455078 C 11.879625 14.230078 11.766031 14.023719 11.582031 13.886719 C 9.8970312 12.638719 8.9316406 10.732203 8.9316406 8.6582031 C 8.9316406 7.8512031 9.0828125 7.0587344 9.3828125 6.3027344 C 9.4768125 6.0697344 9.4505469 5.816375 9.3105469 5.609375 C 9.1685469 5.401375 8.9364531 5.2773438 8.6894531 5.2773438 C 8.5374531 5.2773438 8.3906719 5.3240625 8.2636719 5.4140625 C 5.6956719 7.2300625 3.9607813 9.8902813 3.3007812 12.863281 L 5.203125 14.765625 L 3.0332031 14.765625 C 3.0042031 15.221625 2.9877656 15.679578 3.0097656 16.142578 C 3.0377656 16.759578 3.1261406 17.361125 3.2441406 17.953125 L 5.9375 20.646484 L 4.1035156 20.646484 C 5.9995156 24.793484 10.130203 27.766328 14.908203 27.986328 C 15.106203 27.995328 15.302047 28 15.498047 28 C 20.569047 28 24.935531 24.974484 26.894531 20.646484 L 25.058594 20.646484 L 27.763672 17.941406 C 27.914672 17.169406 28 16.374594 28 15.558594 C 28 15.291594 27.968172 15.028672 27.951172 14.763672 L 25.794922 14.763672 L 27.689453 12.869141 C 27.023453 9.8921406 25.280469 7.2141094 22.730469 5.4121094 C 22.603469 5.3221094 22.457641 5.2753906 22.306641 5.2753906 C 22.059641 5.2753906 21.827547 5.3994219 21.685547 5.6074219 C 21.545547 5.8134219 21.518328 6.0667813 21.611328 6.3007812 C 21.912328 7.0567813 22.064453 7.8502031 22.064453 8.6582031 C 22.064453 10.732203 21.099063 12.637719 19.414062 13.886719 C 19.229063 14.023719 19.116469 14.230078 19.105469 14.455078 C 19.094469 14.681078 19.186422 14.899687 19.357422 15.054688 C 20.870422 16.421687 21.533859 18.433547 21.130859 20.435547 C 20.682859 22.657547 18.886203 24.437141 16.658203 24.869141 L 16.544922 21.867188 L 17.792969 22.716797 C 17.929969 22.811797 18.133906 22.794687 18.253906 22.679688 C 18.378906 22.560688 18.402453 22.370656 18.314453 22.222656 L 17.390625 20.673828 L 19.324219 20.271484 C 19.494219 20.237484 19.617188 20.086109 19.617188 19.912109 C 19.617188 19.739109 19.493219 19.588734 19.324219 19.552734 L 17.390625 19.150391 L 18.316406 17.599609 C 18.404406 17.451609 18.378906 17.263531 18.253906 17.144531 C 18.129906 17.027531 17.932969 17.011422 17.792969 17.107422 L 16.396484 18.056641 L 15.865234 4.3535156 C 15.858234 4.1555156 15.696047 3.999 15.498047 4 z"/></svg>