<svg xmlns="http://www.w3.org/2000/svg" viewBox="0 0 32 32"><path d="M 9 4 C 7.355 4 6 5.355 6 7 L 6 25 C 6 26.645 7.355 28 9 28 L 26 28 L 26 4 L 9 4 z M 9 6 L 24 6 L 24 22 L 9 22 C 8.648 22 8.316 22.0735 8 22.1875 L 8 7 C 8 6.434 8.434 6 9 6 z M 16 8.2148438 C 15.886 8.2148438 15.790156 8.3049219 15.785156 8.4199219 L 15.537109 14.357422 L 14.894531 13.919922 C 14.810531 13.864922 14.699953 13.871406 14.626953 13.941406 C 14.553953 14.009406 14.538844 14.121031 14.589844 14.207031 L 15.048828 14.974609 L 14.087891 15.173828 C 13.987891 15.194828 13.917969 15.281812 13.917969 15.382812 C 13.917969 15.483812 13.987891 15.57275 14.087891 15.59375 L 15.048828 15.792969 L 14.589844 16.558594 C 14.538844 16.644594 14.553953 16.755219 14.626953 16.824219 C 14.667953 16.862219 14.719437 16.882812 14.773438 16.882812 C 14.815438 16.882812 14.857531 16.869703 14.894531 16.845703 L 15.451172 16.46875 L 15.378906 18.220703 C 14.020906 17.933703 13 16.728156 13 15.285156 C 13 14.479156 13.322844 13.751891 13.839844 13.212891 C 13.071844 12.583891 12.570312 11.639313 12.570312 10.570312 C 12.570313 9.9133125 12.764938 9.3071563 13.085938 8.7851562 C 12.007937 9.3901563 11.137562 10.303828 10.601562 11.423828 L 12.017578 12.839844 C 12.184578 13.006844 12.184578 13.278313 12.017578 13.445312 C 11.933578 13.528312 11.824844 13.570312 11.714844 13.570312 C 11.604844 13.570312 11.494156 13.529312 11.410156 13.445312 L 10.271484 12.306641 C 10.111484 12.847641 9.999 13.408 10 14 C 10 14.028 10.008766 14.052078 10.009766 14.080078 L 11.996094 15.820312 C 12.174094 15.975312 12.193109 16.247781 12.037109 16.425781 C 11.952109 16.522781 11.833844 16.570312 11.714844 16.570312 C 11.610844 16.570312 11.509641 16.533844 11.431641 16.464844 L 10.167969 15.359375 C 10.785969 18.016375 13.156 20 16 20 C 18.844 20 21.214031 18.015375 21.832031 15.359375 L 20.568359 16.466797 C 20.487359 16.537797 20.386156 16.572266 20.285156 16.572266 C 20.161156 16.572266 20.043891 16.518781 19.962891 16.425781 C 19.962891 16.425781 19.962891 16.423828 19.962891 16.423828 C 19.807891 16.245828 19.825906 15.975312 20.003906 15.820312 L 21.992188 14.080078 C 21.992188 14.052078 22 14.028 22 14 C 22 13.408 21.886516 12.847641 21.728516 12.306641 L 20.589844 13.445312 C 20.505844 13.528312 20.397109 13.570312 20.287109 13.570312 C 20.177109 13.570312 20.068375 13.529312 19.984375 13.445312 C 19.817375 13.278313 19.817375 13.006844 19.984375 12.839844 L 21.398438 11.423828 C 20.862438 10.303828 19.992062 9.3891562 18.914062 8.7851562 C 19.234063 9.3071563 19.429688 9.9133125 19.429688 10.570312 C 19.429688 11.640313 18.928156 12.583891 18.160156 13.212891 C 18.677156 13.751891 19 14.479156 19 15.285156 C 19 16.728156 17.979047 17.93175 16.623047 18.21875 L 16.546875 16.382812 L 17.226562 16.84375 C 17.263562 16.86875 17.305656 16.880859 17.347656 16.880859 C 17.399656 16.880859 17.453141 16.861266 17.494141 16.822266 C 17.567141 16.754266 17.58225 16.644594 17.53125 16.558594 L 17.072266 15.791016 L 18.033203 15.591797 C 18.133203 15.570797 18.203125 15.483813 18.203125 15.382812 C 18.203125 15.281813 18.133203 15.192875 18.033203 15.171875 L 17.072266 14.972656 L 17.53125 14.205078 C 17.58225 14.119078 17.567141 14.010406 17.494141 13.941406 C 17.420141 13.873406 17.310562 13.864922 17.226562 13.919922 L 16.464844 14.435547 L 16.214844 8.4199219 C 16.209844 8.3059219 16.115 8.2148438 16 8.2148438 z M 9 24 L 24 24 L 24 26 L 9 26 C 8.434 26 8 25.566 8 25 C 8 24.434 8.434 24 9 24 z"/></svg>