<svg xmlns="http://www.w3.org/2000/svg" viewBox="0 0 32 32"><path d="M 16 5 C 15.786 5 15.572188 5.0345156 15.367188 5.1035156 L 5.0253906 8.5507812 C 4.4123906 8.7547812 4 9.3266562 4 9.9726562 L 4 22.890625 C 4 23.578625 4.4687188 24.178703 5.1367188 24.345703 L 15.515625 26.939453 C 15.674625 26.979453 15.837 27 16 27 C 16.163 27 16.325375 26.979453 16.484375 26.939453 L 26.863281 24.345703 C 27.531281 24.179703 28 23.579625 28 22.890625 L 28 9.9726562 C 28 9.3266562 27.587609 8.7547812 26.974609 8.5507812 L 16.632812 5.1035156 C 16.427812 5.0345156 16.214 5 16 5 z M 16 7 L 26 10.332031 L 26 12.876953 L 16.800781 10.119141 C 16.275781 9.9611406 15.724219 9.9611406 15.199219 10.119141 L 6 12.876953 L 6 10.332031 L 16 7 z M 16 11.632812 C 16.161375 11.632812 16.323922 11.655172 16.482422 11.701172 L 26 14.558594 L 26 22.5 L 16 25 L 6 22.5 L 6 14.558594 L 15.525391 11.701172 C 15.679391 11.655172 15.838625 11.632812 16 11.632812 z M 15.220703 13.005859 C 15.179688 12.997422 15.135547 12.997516 15.091797 13.009766 L 11.759766 13.917969 C 11.642766 13.951969 11.558594 14.060547 11.558594 14.185547 L 11.558594 14.767578 C 11.558594 14.951578 11.733203 15.077156 11.908203 15.035156 L 15.242188 14.126953 C 15.359188 14.093953 15.441406 13.976562 15.441406 13.851562 L 15.441406 13.277344 C 15.441406 13.140094 15.34375 13.031172 15.220703 13.005859 z M 16.78125 13.005859 C 16.658203 13.031031 16.558594 13.140094 16.558594 13.277344 L 16.558594 13.853516 C 16.558594 13.986516 16.642766 14.095906 16.759766 14.128906 L 20.091797 15.035156 C 20.266797 15.085156 20.441406 14.952531 20.441406 14.769531 L 20.441406 14.185547 C 20.441406 14.060547 20.358187 13.952922 20.242188 13.919922 L 16.908203 13.011719 C 16.864453 12.999219 16.822266 12.997469 16.78125 13.005859 z M 10.220703 14.371094 C 10.179688 14.362703 10.135547 14.364453 10.091797 14.376953 L 7.3164062 15.134766 C 7.1914062 15.168766 7.109375 15.277344 7.109375 15.402344 L 7.109375 15.976562 C 7.109375 16.160562 7.2839844 16.294141 7.4589844 16.244141 L 10.242188 15.486328 C 10.359188 15.452328 10.441406 15.34375 10.441406 15.21875 L 10.441406 14.644531 C 10.441406 14.507281 10.34375 14.396266 10.220703 14.371094 z M 21.78125 14.371094 C 21.658203 14.396266 21.558594 14.507281 21.558594 14.644531 L 21.558594 15.21875 C 21.558594 15.34375 21.642766 15.453328 21.759766 15.486328 L 24.542969 16.244141 C 24.717969 16.294141 24.892578 16.159562 24.892578 15.976562 L 24.892578 15.402344 C 24.892578 15.277344 24.807594 15.168766 24.683594 15.134766 L 21.908203 14.376953 C 21.864453 14.364453 21.822266 14.362703 21.78125 14.371094 z"/></svg>