<svg xmlns="http://www.w3.org/2000/svg" viewBox="0 0 32 32"><path d="M 15.492188 3 L 12.613281 5.578125 C 12.393281 5.784125 12.325453 6.0913281 12.439453 6.3613281 L 12.693359 6.921875 C 11.103359 7.877875 10.027344 9.6037031 10.027344 11.595703 C 10.027344 13.634703 11.155594 15.389078 12.808594 16.330078 L 12.425781 17.173828 C 12.318781 17.426828 12.3715 17.714922 12.5625 17.919922 L 14.712891 19.681641 L 14.712891 20.652344 L 10.972656 18.048828 C 8.8106562 16.605828 7.5138594 14.192703 7.5058594 11.595703 C 7.5058594 10.077703 8.0875781 8.4459688 8.8925781 7.1679688 C 9.0815781 6.8659687 9.009625 6.494375 8.765625 6.234375 C 8.521625 5.974375 8.0980625 5.9325156 7.7890625 6.1035156 C 3.9540625 8.1955156 1.9113437 13.025125 3.6523438 17.453125 C 3.9973437 18.331125 4.527625 19.132609 5.140625 19.849609 L 7.7714844 22.736328 C 8.0094844 23.014328 8.4084687 23.089969 8.7304688 22.917969 L 12.705078 21.160156 L 14.132812 22.154297 L 11.414062 23.707031 C 11.332062 23.689031 11.256922 23.658203 11.169922 23.658203 C 10.522922 23.658203 9.9980469 24.182078 9.9980469 24.830078 C 9.9990469 25.475078 10.524875 26 11.171875 26 C 11.762875 26 12.230547 25.555328 12.310547 24.986328 L 14.712891 23.652344 L 14.712891 25.113281 C 14.254891 25.386281 14 25.8655 14 26.4375 C 14 27.3005 14.630187 28 15.492188 28 C 16.355187 28 17 27.3005 17 26.4375 C 17 25.8655 16.731437 25.387234 16.273438 25.115234 L 16.273438 23.642578 L 18.689453 24.986328 C 18.770453 25.554328 19.237125 26 19.828125 26 C 20.475125 26 21 25.475125 21 24.828125 C 21 24.181125 20.475125 23.65625 19.828125 23.65625 C 19.741125 23.65625 19.665984 23.687078 19.583984 23.705078 L 16.867188 22.152344 L 18.292969 21.158203 L 22.269531 22.916016 C 22.592531 23.088016 22.991516 23.011375 23.228516 22.734375 L 25.689453 20.046875 C 26.610453 18.971875 27.349125 17.727469 27.703125 16.355469 C 28.761125 12.270469 26.757203 8.0626563 23.158203 6.0976562 C 22.847203 5.9266562 22.457844 5.9831406 22.214844 6.2441406 C 21.969844 6.5031406 21.930094 6.8952656 22.121094 7.1972656 C 22.926094 8.4742656 23.496094 10.075844 23.496094 11.589844 C 23.487094 14.189844 22.188625 16.603687 20.015625 18.054688 L 16.273438 20.660156 L 16.273438 19.679688 L 18.425781 17.917969 C 18.616781 17.712969 18.6695 17.424875 18.5625 17.171875 L 18.179688 16.330078 C 19.831688 15.390078 20.958984 13.63175 20.958984 11.59375 C 20.958984 9.60175 19.883969 7.877875 18.292969 6.921875 L 18.548828 6.3613281 C 18.662828 6.0913281 18.592047 5.783125 18.373047 5.578125 L 15.492188 3 z M 17.449219 8.671875 C 18.384219 9.327875 19 10.386891 19 11.587891 C 19 12.843891 18.331266 13.949703 17.322266 14.595703 L 16.994141 13.896484 C 16.485141 12.515484 16.485141 11.021625 16.994141 9.640625 L 17.449219 8.671875 z M 13.542969 8.6894531 L 13.994141 9.6523438 C 14.500141 11.025344 14.500141 12.508812 13.994141 13.882812 L 13.667969 14.578125 C 12.664969 13.936125 12 12.836891 12 11.587891 C 12 10.393891 12.612969 9.3414531 13.542969 8.6894531 z"/></svg>