<svg xmlns="http://www.w3.org/2000/svg" viewBox="0 0 32 32"><path d="M 10.34375 6 C 6.953125 6 3.40625 7.90625 3.40625 7.90625 L 2.9375 8.15625 L 2.875 8.6875 L 1 24.875 L 0.8125 26.59375 L 2.40625 25.90625 C 2.40625 25.90625 6.523438 24.1875 10.40625 24.1875 C 12.707031 24.1875 15.46875 25.84375 15.46875 25.84375 L 16 26.1875 L 16.53125 25.84375 C 16.53125 25.84375 19.292969 24.1875 21.59375 24.1875 C 25.476563 24.1875 29.59375 25.90625 29.59375 25.90625 L 31.1875 26.59375 L 31 24.875 L 29.125 8.6875 L 29.0625 8.15625 L 28.59375 7.90625 C 28.59375 7.90625 25.046875 6 21.65625 6 C 18.777344 6 16.683594 7.257813 16 7.6875 C 15.316406 7.257813 13.222656 6 10.34375 6 Z M 10.34375 8 C 12.929688 8 15.4375 9.625 15.4375 9.625 L 16 10 L 16.5625 9.625 C 16.5625 9.625 19.070313 8 21.65625 8 C 23.933594 8 26.519531 9.1875 27.1875 9.5 L 28.8125 23.53125 C 27.28125 22.980469 24.757813 22.1875 21.59375 22.1875 C 18.871094 22.1875 16.675781 23.464844 16 23.875 C 15.324219 23.464844 13.128906 22.1875 10.40625 22.1875 C 7.242188 22.1875 4.71875 22.980469 3.1875 23.53125 L 4.8125 9.5 C 5.480469 9.1875 8.066406 8 10.34375 8 Z M 10.34375 9.5 C 8.898438 9.5 7.105469 10.132813 6.1875 10.5 L 4.9375 21.4375 C 6.898438 20.949219 8.730469 20.6875 10.40625 20.6875 C 12.535156 20.6875 14.585938 21.464844 16 22.15625 C 17.507813 21.421875 19.78125 20.605469 22.03125 20.71875 L 20.78125 9.59375 C 18.96875 9.871094 17.394531 10.863281 17.375 10.875 L 16 11.8125 L 14.59375 10.875 C 14.574219 10.863281 12.492188 9.5 10.34375 9.5 Z"/></svg>