<svg xmlns="http://www.w3.org/2000/svg" viewBox="0 0 32 32"><path d="M 14.728516 4.0078125 C 10.197246 4.3417754 1.9458438 14.28525 5.1054688 16.953125 L 5.8945312 17.623047 C 5.6815312 18.194047 5.6067813 18.808062 5.6757812 19.414062 C 5.8557812 21.199063 7.5991562 22.644578 9.2851562 22.642578 C 12.371156 29.755578 23.605672 29.766734 26.513672 22.802734 C 26.605672 22.562734 27 21.485156 27 20.535156 C 27 19.585156 26.460234 19.185547 26.115234 19.185547 C 25.936234 18.558547 25.820516 18.486406 25.603516 18.191406 C 25.734516 17.995406 26.420453 16.907906 25.439453 15.878906 C 24.883453 15.294906 23.775625 14.892156 23.390625 14.785156 C 23.310625 14.176156 23.639234 11.646656 22.240234 10.347656 C 23.351234 9.1966563 24.002 7.9288437 24 6.8398438 C 23.997 4.7468438 21.470734 4.1128281 18.302734 5.4238281 L 17.630859 5.7089844 C 17.627859 5.7059844 16.416438 4.5199063 16.398438 4.5039062 C 15.947062 4.1101563 15.37584 3.9601035 14.728516 4.0078125 z M 15.140625 4.8730469 C 15.270432 4.8793362 15.393688 4.898875 15.507812 4.9296875 C 15.804813 5.0136875 16.787109 6.1523438 16.787109 6.1523438 C 16.787109 6.1523438 14.961531 7.1641719 13.269531 8.5761719 C 10.988531 10.333172 9.266375 12.885297 8.234375 15.654297 C 7.424375 15.812297 6.7084844 16.272203 6.2714844 16.908203 C 6.0104844 16.690203 5.5244531 16.266469 5.4394531 16.105469 C 4.7444531 14.777469 6.19975 12.203047 7.21875 10.748047 C 9.579375 7.3786719 13.193525 4.7787073 15.140625 4.8730469 z M 18.326172 8.1425781 C 18.349172 8.1405781 18.367141 8.1596406 18.369141 8.1816406 C 18.370141 8.1956406 18.364516 8.2077969 18.353516 8.2167969 C 18.199516 8.3357969 18.060406 8.4758594 17.941406 8.6308594 C 17.928406 8.6488594 17.933172 8.6725469 17.951172 8.6855469 C 17.958172 8.6905469 17.965609 8.6923594 17.974609 8.6933594 C 18.632609 8.6983594 19.559016 8.9285781 20.166016 9.2675781 C 20.207016 9.2905781 20.178813 9.369375 20.132812 9.359375 C 16.414813 8.507375 13.552406 10.351922 12.941406 10.794922 C 12.922406 10.806922 12.898719 10.80025 12.886719 10.78125 C 12.876719 10.76625 12.877672 10.748375 12.888672 10.734375 L 12.884766 10.734375 C 13.779766 9.700375 14.882141 8.801875 15.869141 8.296875 C 15.888141 8.285875 15.910875 8.2915469 15.921875 8.3105469 C 15.928875 8.3225469 15.928875 8.3366094 15.921875 8.3496094 C 15.843875 8.4916094 15.692531 8.7953906 15.644531 9.0253906 C 15.639531 9.0473906 15.653781 9.0692188 15.675781 9.0742188 C 15.686781 9.0772188 15.698031 9.0743594 15.707031 9.0683594 C 16.321031 8.6493594 17.390172 8.2005781 18.326172 8.1425781 z M 21.507812 11.361328 C 21.631563 11.381828 21.751375 11.427094 21.859375 11.496094 C 22.394375 11.851094 22.468094 12.710844 22.496094 13.339844 C 22.512094 13.698844 22.555313 14.568406 22.570312 14.816406 C 22.604312 15.386406 22.754594 15.467453 23.058594 15.564453 C 23.229594 15.620453 23.386141 15.662516 23.619141 15.728516 C 24.325141 15.926516 24.593328 16.231234 24.861328 16.490234 C 24.997328 16.624234 25.087234 16.797328 25.115234 16.986328 C 25.198234 17.594328 24.792266 18.241828 23.322266 18.923828 C 20.825266 20.082828 18.314172 19.695297 17.951172 19.654297 C 16.874172 19.509297 16.26025 20.902469 16.90625 21.855469 C 18.11625 23.641469 23.448094 22.924844 24.996094 20.714844 C 25.033094 20.661844 25.002031 20.628156 24.957031 20.660156 C 22.724031 22.188156 19.770797 22.702781 18.091797 22.050781 C 17.836797 21.951781 17.303281 21.707156 17.238281 21.160156 C 19.569281 21.881156 21.033203 21.199219 21.033203 21.199219 C 21.033203 21.199219 21.141906 21.0485 21.003906 21.0625 C 21.003906 21.0625 19.093109 21.344594 17.287109 20.683594 C 17.619109 19.605594 18.729453 21.009313 22.439453 19.945312 C 23.256453 19.711312 24.181578 19.354359 25.017578 18.693359 C 25.264578 18.950359 25.473875 19.442672 25.546875 19.888672 C 25.742875 19.853672 26.308203 19.859469 26.158203 20.855469 C 25.982203 21.917469 25.532437 22.780219 24.773438 23.574219 C 24.299437 24.088219 23.734422 24.510312 23.107422 24.820312 C 22.758422 25.003312 22.395484 25.156297 22.021484 25.279297 C 19.161484 26.213297 16.231156 25.186469 15.285156 22.980469 C 15.208156 22.812469 15.145703 22.637984 15.095703 22.458984 C 14.692703 21.004984 15.035516 19.260109 16.103516 18.162109 C 16.169516 18.092109 16.236328 18.01025 16.236328 17.90625 C 16.227328 17.81725 16.190812 17.733062 16.132812 17.664062 C 15.758812 17.123062 14.466563 16.199109 14.726562 14.412109 C 14.913562 13.129109 16.035031 12.225297 17.082031 12.279297 L 17.349609 12.294922 C 17.802609 12.321922 18.198266 12.379531 18.572266 12.394531 C 19.197266 12.421531 19.758828 12.331344 20.423828 11.777344 C 20.648828 11.590344 20.828812 11.427953 21.132812 11.376953 C 21.256813 11.345953 21.384062 11.340828 21.507812 11.361328 z M 21.306641 13.529297 C 20.973641 13.583297 20.961078 13.997359 21.080078 14.568359 C 21.147078 14.889359 21.266391 15.162031 21.400391 15.332031 C 21.565391 15.311031 21.731484 15.311031 21.896484 15.332031 C 21.985484 15.127031 22.001875 14.775578 21.921875 14.392578 C 21.802875 13.822578 21.639641 13.475297 21.306641 13.529297 z M 17.488281 15.083984 C 17.206156 15.117984 16.931812 15.222984 16.695312 15.396484 C 16.535312 15.513484 16.38425 15.675437 16.40625 15.773438 C 16.45125 15.973437 16.942234 15.628891 17.615234 15.587891 C 17.989234 15.564891 18.299109 15.681156 18.537109 15.785156 C 18.776109 15.892156 18.922469 15.960391 18.980469 15.900391 C 19.081469 15.796391 18.794031 15.397219 18.332031 15.199219 C 18.061031 15.086719 17.770406 15.049984 17.488281 15.083984 z M 21.789062 15.878906 L 21.789062 15.880859 C 21.380063 15.873859 21.364391 16.725422 21.775391 16.732422 C 22.186391 16.739422 22.201063 15.886906 21.789062 15.878906 z M 18.056641 16.060547 C 17.571641 16.136547 17.253937 16.408609 17.335938 16.599609 C 17.383937 16.617609 17.398281 16.642641 17.613281 16.556641 C 17.932281 16.436641 18.278234 16.401125 18.615234 16.453125 C 18.771234 16.471125 18.844906 16.481734 18.878906 16.427734 C 18.956906 16.308734 18.574641 15.999547 18.056641 16.060547 z M 20.410156 16.451172 C 20.315906 16.462172 20.23275 16.506859 20.1875 16.599609 C 20.005948 16.968698 20.767752 17.339063 20.951172 16.974609 C 21.086922 16.699359 20.692906 16.418172 20.410156 16.451172 z M 8.8964844 16.480469 C 9.8666833 16.511085 10.816984 17.196219 11.044922 18.667969 C 11.287922 20.251969 10.794703 21.794812 9.2207031 21.757812 L 9.2226562 21.759766 C 8.0026562 21.726766 6.6856875 20.628172 6.5546875 19.326172 C 6.3690625 17.482859 7.6490857 16.441105 8.8964844 16.480469 z M 8.8261719 17.400391 C 8.4667969 17.389641 8.1212344 17.549672 7.9277344 17.763672 C 7.4617344 18.276672 7.4611563 19.021781 7.6601562 19.050781 C 7.8881562 19.080781 7.8786875 18.705687 8.0546875 18.429688 C 8.2606875 18.111687 8.6859063 18.020563 9.0039062 18.226562 C 9.0059063 18.227563 9.0077656 18.228469 9.0097656 18.230469 C 9.6297656 18.636469 9.0818594 19.178766 9.1308594 19.759766 C 9.2048594 20.651766 10.116156 20.634234 10.285156 20.240234 C 10.307156 20.200234 10.302438 20.151234 10.273438 20.115234 C 10.275438 20.163234 10.310703 20.047703 10.095703 20.095703 L 10.09375 20.097656 C 10.02275 20.114656 9.772625 20.176656 9.640625 19.972656 C 9.362625 19.544656 10.234781 18.883547 9.8007812 18.060547 C 9.5577812 17.593547 9.1855469 17.411141 8.8261719 17.400391 z"/></svg>