<svg xmlns="http://www.w3.org/2000/svg" viewBox="0 0 32 32"><path d="M 9.6582031 7.2011719 C 6.0462031 7.1611719 4.204125 10.832641 5.328125 13.681641 C 5.932125 16.847641 5.3471719 18.527172 3.2011719 18.576172 C 2.1511719 18.462172 1.3672188 18.898406 0.57421875 19.691406 C -0.41178125 20.667406 -0.38145312 24.388391 2.6855469 24.775391 C 5.0195469 25.067391 6.64575 22.521781 5.71875 20.425781 C 3.37475 15.287781 15.073094 15.168531 13.121094 20.019531 C 13.116094 20.024531 13.110469 20.029062 13.105469 20.039062 C 11.777469 22.160062 13.443531 24.866813 16.019531 24.757812 C 18.600531 24.861812 20.249641 22.150063 18.931641 20.039062 C 18.926641 20.029062 18.922969 20.024531 18.917969 20.019531 C 16.965969 15.168531 28.663313 15.287781 26.320312 20.425781 C 26.092312 20.920781 25.987109 21.480547 26.037109 22.060547 C 26.280109 24.706547 29.442328 25.732687 31.236328 23.804688 C 32.119328 23.070688 32.380328 20.554688 31.236328 19.429688 C 30.627328 18.815687 29.765844 18.477172 28.839844 18.576172 C 26.694844 18.526172 26.066875 16.847641 26.671875 13.681641 C 27.801875 10.832641 25.934797 7.1661719 22.341797 7.2011719 C 18.506797 7.2361719 18.457531 11.263672 16.019531 11.263672 C 13.636531 11.263672 13.468203 7.2361719 9.6582031 7.2011719 z M 16.005859 12.259766 L 16.035156 12.259766 C 17.754156 12.259766 19.146484 13.651094 19.146484 15.371094 C 19.146484 16.610094 18.195156 18.482422 16.035156 18.482422 L 16.005859 18.482422 C 13.855859 18.482422 12.892578 16.625094 12.892578 15.371094 C 12.892578 13.652094 14.290859 12.259766 16.005859 12.259766 z"/></svg>