<svg xmlns="http://www.w3.org/2000/svg" viewBox="0 0 32 32"><path d="M 30.34375 1.59375 L 26.4375 4.15625 L 20.1875 8.25 L 20.5625 7.59375 L 22.1875 4.65625 L 19.21875 6.21875 C 19.21875 6.21875 16.492188 7.679688 13.28125 9.59375 C 10.070313 11.507813 6.414063 13.824219 4.40625 15.78125 C 1.140625 19.046875 1.132813 24.316406 4.40625 27.5 L 4.4375 27.5 C 7.707031 30.75 12.917969 30.769531 16.09375 27.5 L 16.09375 27.46875 C 17.796875 25.761719 19.902344 22.65625 21.625 19.90625 C 23.351563 17.148438 24.65625 14.78125 24.65625 14.78125 L 26.0625 12.3125 L 23.4375 13.375 L 22.625 13.6875 L 27.84375 5.53125 Z M 23.625 8.40625 L 19.25 15.25 L 17.5625 17.90625 L 20.46875 16.71875 L 21.40625 16.34375 C 20.867188 17.265625 20.75 17.496094 19.90625 18.84375 C 18.207031 21.558594 16.082031 24.699219 14.6875 26.09375 C 12.269531 28.601563 8.339844 28.621094 5.8125 26.09375 L 5.78125 26.09375 C 3.273438 23.675781 3.285156 19.746094 5.8125 17.21875 C 7.503906 15.574219 11.148438 13.199219 14.3125 11.3125 C 15.839844 10.402344 16.0625 10.277344 17.125 9.6875 L 16.53125 10.8125 L 14.59375 14.34375 L 17.9375 12.125 Z M 10 18 C 7.789063 18 6 19.789063 6 22 C 6 24.210938 7.789063 26 10 26 C 12.210938 26 14 24.210938 14 22 C 14 19.789063 12.210938 18 10 18 Z M 10 20 C 11.191406 20 12 20.808594 12 22 C 12 23.191406 11.191406 24 10 24 C 8.808594 24 8 23.191406 8 22 C 8 20.808594 8.808594 20 10 20 Z"/></svg>