<svg xmlns="http://www.w3.org/2000/svg" viewBox="0 0 32 32"><path d="M 12.845703 6 C 9.2217031 6 6.0074688 8.3306563 4.8554688 11.722656 C 2.1134687 12.123656 0 14.474172 0 17.326172 C 0 20.448172 2.5435 23 5.6875 23 L 20.234375 23 C 22.856375 23 25 20.868094 25 18.246094 C 25 15.975094 23.387625 14.074281 21.265625 13.613281 C 20.844625 9.3512812 17.231703 6 12.845703 6 z M 12.849609 8 C 16.384609 8 19.251953 10.898453 19.251953 14.439453 C 19.251953 15.133453 19.140734 15.817703 18.927734 16.470703 C 18.471734 17.878703 20.569609 18.459578 20.974609 17.142578 C 21.116609 16.724578 21.227828 16.286656 21.298828 15.847656 C 22.281828 16.224656 23 17.183172 23 18.326172 C 23 19.795172 21.805172 21 20.326172 21 L 5.6054688 21 C 3.6204687 21 2 19.388672 2 17.388672 C 2 15.388672 3.6204688 13.775391 5.6054688 13.775391 C 6.5574687 13.775391 7.4596719 14.154891 8.1386719 14.837891 C 9.1516719 15.857891 10.692922 14.316156 9.6699219 13.285156 C 8.9309219 12.550156 8.0183906 12.040156 7.0253906 11.785156 C 8.0383906 9.5191562 10.316609 8 12.849609 8 z M 29.46875 12.007812 C 28.692406 11.904875 27.866016 12.790719 28.447266 13.636719 C 29.399266 15.068719 29.919922 16.756906 29.919922 18.503906 C 29.919922 20.240906 29.399266 21.938859 28.447266 23.380859 C 27.966266 24.077859 28.495781 25 29.300781 25 C 29.644781 25 29.969781 24.833062 30.175781 24.539062 C 31.372781 22.753062 32 20.662906 32 18.503906 C 32 16.334906 31.371828 14.244516 30.173828 12.478516 C 29.980078 12.186516 29.727531 12.042125 29.46875 12.007812 z M 26.476562 13.701172 C 25.694594 13.599406 24.873828 14.477469 25.455078 15.324219 C 26.102078 16.266219 26.425781 17.365906 26.425781 18.503906 C 26.425781 19.642906 26.103078 20.731828 25.455078 21.673828 C 24.984078 22.360828 25.474359 23.292969 26.318359 23.292969 C 26.661359 23.292969 26.985406 23.145563 27.191406 22.851562 C 28.064406 21.556562 28.507812 20.053906 28.507812 18.503906 C 28.507813 16.943906 28.064406 15.442969 27.191406 14.167969 C 26.992656 13.878469 26.737219 13.735094 26.476562 13.701172 z"/></svg>