<svg xmlns="http://www.w3.org/2000/svg" viewBox="0 0 32 32"><path d="M 16 3 C 8.832 3 3 8.832 3 16 C 3 23.168 8.832 29 16 29 C 23.168 29 29 23.168 29 16 C 29 8.832 23.168 3 16 3 z M 16 5 C 22.065 5 27 9.935 27 16 C 27 17.040896 26.843748 18.044906 26.572266 19 L 22 19 L 22 10.976562 L 16 17.261719 L 10 10.976562 L 10 19 L 5.4277344 19 C 5.1562523 18.044906 5 17.040896 5 16 C 5 9.935 9.935 5 16 5 z M 12 15.96875 L 16 20.15625 L 20 15.96875 L 20 21 L 25.785156 21 C 23.960333 24.555852 20.263678 27 16 27 C 11.736322 27 8.0396672 24.555852 6.2148438 21 L 12 21 L 12 15.96875 z"/></svg>