<svg xmlns="http://www.w3.org/2000/svg" viewBox="0 0 32 32"><path d="M 29.019531 10.021484 C 26.986387 10.019912 24.864922 11.175781 25.451172 13.035156 L 25.451172 13.039062 C 23.261172 13.474063 21.737188 14.379219 20.742188 15.449219 C 20.592188 14.959219 20.062969 14.619141 19.042969 14.619141 L 14.662109 14.619141 C 14.197109 14.619141 14.017891 14.505 14.087891 14.25 C 14.167891 13.975 14.181484 13.910625 14.271484 13.640625 C 14.376484 13.320625 14.6625 13.285156 14.9375 13.285156 L 21.611328 13.285156 L 22.097656 11.710938 C 15.112656 11.710938 14.872797 11.684531 14.091797 11.769531 C 13.476797 11.834531 12.915547 12.009531 12.560547 12.519531 C 12.220547 13.014531 11.841641 14.3 11.681641 14.875 C 11.411641 15.845 11.650313 16.304688 13.320312 16.304688 L 17.685547 16.304688 C 18.075547 16.304688 18.125312 16.439766 18.070312 16.634766 C 18.015313 16.854766 17.930703 17.135234 17.845703 17.365234 C 17.765703 17.575234 17.61125 17.734375 17.15625 17.734375 L 10.816406 17.734375 L 10.236328 19.710938 C 17.231328 19.710938 17.50025 19.680703 18.28125 19.595703 C 18.61125 19.560703 18.932031 19.489609 19.207031 19.349609 C 19.217031 19.534609 19.232578 19.715625 19.267578 19.890625 C 19.537578 21.415625 20.637422 22.505234 22.107422 22.865234 C 24.537422 23.460234 27.541328 22.024844 28.861328 19.464844 C 29.796328 17.654844 29.566406 15.654453 28.691406 14.189453 L 28.697266 14.189453 C 30.177266 13.894453 32.212422 13.090156 31.982422 11.660156 C 31.837422 10.760156 30.786953 10.255703 29.876953 10.095703 C 29.598203 10.046953 29.30998 10.021709 29.019531 10.021484 z M 28.660156 10.998047 C 28.808594 10.995703 28.955547 11.009062 29.091797 11.039062 C 29.856797 11.209062 30.077891 11.834766 29.337891 12.259766 C 28.802891 12.564766 28.156953 12.665234 27.626953 12.740234 C 27.416953 12.440234 27.136953 11.815781 27.501953 11.425781 C 27.753203 11.155781 28.214844 11.005078 28.660156 10.998047 z M 9.3554688 11.703125 L 9.3554688 11.705078 L 7.6464844 17.390625 L 4.9199219 11.705078 L 2.4492188 11.705078 L 0 19.710938 L 2.2441406 19.710938 L 3.8007812 14.384766 L 6.3300781 19.710938 L 9.1757812 19.710938 L 11.599609 11.703125 L 9.3554688 11.703125 z M 26.177734 14.505859 C 26.512734 15.209859 26.692109 16.105484 26.537109 16.896484 C 26.242109 18.371484 24.707031 19.286797 23.457031 19.091797 C 21.912031 18.851797 21.531953 17.116563 22.751953 15.851562 C 23.561953 15.011563 25.012734 14.650859 26.177734 14.505859 z"/></svg>