<svg xmlns="http://www.w3.org/2000/svg" viewBox="0 0 32 32"><path d="M 16.84375 3.25 C 14.738281 3.25 14 5.03125 14 5.03125 C 14 5.03125 15.054688 4.375 16.40625 4.375 C 18.722656 4.375 20.125 6.1875 20.125 6.1875 C 20.125 6.1875 20.058594 3.25 16.84375 3.25 Z M 14.875 5.53125 C 11.769531 5.53125 10.15625 6.03125 10.15625 6.03125 C 10.15625 6.03125 11.773438 6.292969 12.9375 6.8125 C 8.605469 7.417969 6.53125 10.03125 6.53125 10.03125 C 6.53125 10.03125 8.136719 9.75 8.71875 9.8125 C 8.171875 10.125 7.75 10.476563 7.40625 10.8125 C 7.34375 10.8125 7.273438 10.816406 7.21875 10.8125 C 6.519531 10.75 6.238281 10.789063 6.1875 10.09375 C 6.136719 9.398438 6.019531 9 5.375 9 C 4.730469 9 3.8125 10.414063 3.8125 11.84375 C 3.8125 13.46875 4.183594 14.875 7.03125 14.96875 C 7.027344 15 7.03125 15.09375 7.03125 15.09375 C 7.03125 15.09375 7.988281 15.152344 8.25 15.71875 C 8.371094 15.753906 8.476563 15.824219 8.59375 15.90625 L 7.78125 16 C 7.519531 15.675781 7.15625 15.625 6.8125 15.625 C 6.785156 15.453125 6.550781 15.09375 6.21875 15.09375 C 5.648438 15.09375 5.375 15.90625 5.375 15.90625 C 5.375 15.90625 4.125 16.28125 4.125 17.625 C 4.125 19.175781 5.511719 19.9375 6.40625 19.9375 L 6.40625 20.96875 C 6.164063 20.753906 5.925781 20.625 5.71875 20.625 C 5.507813 20.625 5.289063 20.65625 5.09375 20.6875 C 4.996094 20.582031 4.8125 20.40625 4.59375 20.40625 C 4.316406 20.40625 4.257813 20.738281 4.25 20.9375 C 3.960938 21.058594 3.675781 21.199219 3.4375 21.375 C 3.339844 21.324219 3.226563 21.28125 3.125 21.28125 C 2.953125 21.28125 2.9375 21.457031 2.9375 21.5625 C 2.9375 21.613281 2.921875 21.710938 2.9375 21.8125 C 2.730469 22.03125 2.574219 22.265625 2.4375 22.5 C 2.359375 22.472656 2.230469 22.4375 2.15625 22.4375 C 2.035156 22.4375 2 22.476563 2 22.5625 C 2 22.625 2.070313 22.898438 2.15625 23.09375 C 2.089844 23.300781 2.0625 23.503906 2.0625 23.6875 C 2.0625 24.839844 3.890625 26.75 5.75 26.75 C 5.960938 26.75 7.15625 26.546875 7.65625 25.59375 C 7.765625 25.597656 13.269531 25.75 15.875 25.75 C 18.46875 25.75 24.148438 25.566406 24.3125 25.5625 C 24.804688 26.539063 26.035156 26.75 26.25 26.75 C 28.109375 26.75 29.9375 24.839844 29.9375 23.6875 C 29.9375 23.503906 29.910156 23.332031 29.84375 23.125 C 29.929688 22.929688 30 22.625 30 22.5625 C 30 22.476563 29.964844 22.4375 29.84375 22.4375 C 29.769531 22.4375 29.640625 22.472656 29.5625 22.5 C 29.425781 22.265625 29.269531 22.03125 29.0625 21.8125 C 29.078125 21.710938 29.0625 21.613281 29.0625 21.5625 C 29.0625 21.457031 29.046875 21.28125 28.875 21.28125 C 28.773438 21.28125 28.660156 21.324219 28.5625 21.375 C 28.324219 21.199219 28.039063 21.058594 27.75 20.9375 C 27.742188 20.738281 27.683594 20.40625 27.40625 20.40625 C 27.1875 20.40625 27.003906 20.582031 26.90625 20.6875 C 26.710938 20.65625 26.492188 20.65625 26.28125 20.65625 C 26.074219 20.65625 25.835938 20.753906 25.59375 20.96875 L 25.59375 19.9375 C 26.488281 19.9375 27.875 19.175781 27.875 17.625 C 27.875 16.28125 26.625 15.90625 26.625 15.90625 C 26.625 15.90625 26.351563 15.09375 25.78125 15.09375 C 25.449219 15.09375 25.214844 15.453125 25.1875 15.625 C 24.832031 15.625 24.449219 15.671875 24.1875 16.03125 C 24.019531 16.015625 23.699219 15.972656 23.3125 15.9375 C 23.441406 15.851563 23.578125 15.777344 23.75 15.71875 C 24.117188 15.160156 24.96875 15.125 24.96875 15.125 C 24.96875 15.125 24.96875 15.011719 24.96875 14.96875 C 27.902344 14.902344 28.25 13.457031 28.25 11.8125 C 28.25 10.386719 27.363281 9 26.71875 9 C 26.074219 9 25.925781 9.367188 25.875 10.0625 C 25.824219 10.757813 25.542969 10.75 24.84375 10.8125 C 24.59375 10.835938 24.28125 10.804688 24.0625 10.78125 C 22.9375 8.238281 20.441406 5.53125 14.875 5.53125 Z M 16.0625 6.53125 C 18.117188 6.53125 19.78125 8.195313 19.78125 10.25 C 19.78125 12.304688 18.117188 13.96875 16.0625 13.96875 C 14.007813 13.96875 12.3125 12.304688 12.3125 10.25 C 12.3125 8.195313 14.007813 6.53125 16.0625 6.53125 Z M 16.125 9.09375 C 15.78125 9.09375 15.453125 9.136719 15.15625 9.25 C 15.601563 9.414063 15.90625 9.835938 15.90625 10.3125 C 15.90625 10.933594 15.382813 11.4375 14.71875 11.4375 C 14.269531 11.4375 13.863281 11.21875 13.65625 10.875 C 13.609375 11.054688 13.59375 11.214844 13.59375 11.40625 C 13.59375 12.695313 14.730469 13.75 16.125 13.75 C 17.519531 13.75 18.65625 12.695313 18.65625 11.40625 C 18.65625 10.117188 17.519531 9.09375 16.125 9.09375 Z M 5.46875 9.6875 C 5.703125 9.6875 5.707031 10.132813 5.71875 10.28125 C 5.730469 10.429688 5.8125 10.65625 5.8125 10.65625 C 4.699219 11.210938 4.472656 12.109375 4.3125 12.4375 C 4.3125 10.121094 5.234375 9.6875 5.46875 9.6875 Z M 26.59375 9.71875 C 26.828125 9.71875 27.78125 10.125 27.78125 12.4375 C 27.621094 12.109375 27.363281 11.207031 26.25 10.65625 C 26.25 10.65625 26.332031 10.429688 26.34375 10.28125 C 26.355469 10.132813 26.359375 9.71875 26.59375 9.71875 Z M 6.03125 11 C 6.148438 11.097656 6.253906 11.25 6.6875 11.28125 C 6.6875 11.28125 6.03125 12.230469 6.03125 13.28125 C 6.03125 14.332031 6.125 14.34375 6.125 14.34375 C 6.125 14.34375 4.871094 14.148438 4.5625 13.40625 C 4.636719 12.292969 5.097656 11.328125 6.03125 11 Z M 26.0625 11 C 26.996094 11.328125 27.425781 12.292969 27.5 13.40625 C 27.191406 14.148438 25.9375 14.34375 25.9375 14.34375 C 25.9375 14.34375 26.03125 14.332031 26.03125 13.28125 C 26.03125 12.230469 25.375 11.28125 25.375 11.28125 C 25.808594 11.25 25.945313 11.09375 26.0625 11 Z M 24.28125 11.34375 L 24.90625 11.34375 C 24.90625 11.34375 25.65625 12.265625 25.65625 13.15625 C 25.65625 14.046875 25.5625 14.4375 25.5625 14.4375 L 24.9375 14.46875 C 24.894531 13.78125 24.761719 12.636719 24.28125 11.34375 Z M 7.875 11.4375 L 7.78125 11.9375 L 7.75 12 C 7.382813 12.875 7.183594 13.84375 7.09375 14.46875 L 6.53125 14.4375 C 6.53125 14.4375 6.40625 14.046875 6.40625 13.15625 C 6.40625 12.589844 6.679688 12.09375 6.90625 11.75 C 7.226563 11.625 7.570313 11.523438 7.875 11.4375 Z M 17.75 14.9375 C 18.210938 14.9375 19.0625 14.96875 19.0625 14.96875 C 19.0625 14.96875 19.125 15.460938 19.125 15.96875 C 19.125 16.25 19.113281 16.53125 19.09375 16.6875 C 19.066406 16.890625 19.058594 17.09375 18.59375 17.09375 C 18.039063 17.09375 18.117188 17.15625 17.75 17.15625 C 17.382813 17.15625 16.429688 17.160156 16.375 16.65625 C 16.3125 16.101563 16.25 14.96875 16.25 14.96875 C 16.25 14.96875 17.289063 14.9375 17.75 14.9375 Z M 15.5625 14.96875 C 15.5625 14.96875 15.65625 15.757813 15.65625 16.5 C 15.65625 17.242188 15.667969 16.601563 15.625 17.21875 C 15.601563 17.550781 15.757813 17.71875 14.25 17.71875 C 12.6875 17.71875 12.6875 17.628906 12.6875 16.4375 C 12.6875 15.246094 12.78125 15 12.78125 15 C 12.78125 15 15.339844 15 15.5625 14.96875 Z M 19.75 14.96875 C 19.75 14.96875 21.539063 15.035156 21.6875 15.0625 C 21.6875 15.609375 21.359375 17.875 20.34375 17.875 C 19.992188 17.875 19.984375 16.6875 19.9375 16.1875 C 19.882813 15.589844 19.75 14.96875 19.75 14.96875 Z M 12.125 15 C 12.125 15 12.019531 16.421875 12 16.6875 C 11.980469 16.953125 11.90625 17.476563 11.90625 17.53125 C 11.90625 17.585938 11.847656 17.84375 11.65625 17.84375 C 11.441406 17.84375 10.25 17.460938 10.25 15.78125 C 10.25 15.472656 10.3125 15.09375 10.3125 15.09375 Z M 9.78125 16.46875 C 10.082031 17.820313 11.261719 18.40625 11.71875 18.40625 C 12.199219 18.40625 12.273438 17.945313 12.3125 17.6875 C 12.613281 18.210938 13.476563 18.25 14.0625 18.25 C 16.269531 18.25 16.242188 17.722656 16.28125 17.5 C 16.28125 17.5 16.625 17.71875 17.59375 17.71875 C 19.511719 17.71875 19.625 17.25 19.625 17.25 C 19.625 17.25 19.816406 18.46875 20.375 18.46875 C 21.582031 18.46875 22.125 16.5 22.125 16.5 C 22.21875 16.503906 22.359375 16.515625 22.625 16.53125 L 22.75 16.53125 C 23.003906 16.546875 23.238281 16.570313 23.4375 16.59375 C 23.410156 16.652344 23.375 16.699219 23.375 16.75 C 23.375 17.003906 23.78125 17.1875 23.78125 17.1875 C 23.78125 17.1875 23.660156 17.28125 23.5625 17.40625 C 22.992188 17.929688 22.042969 18.824219 21.28125 19.46875 C 20.308594 20.292969 18.476563 21.648438 15.8125 22.40625 C 15.554688 22.351563 12.796875 21.234375 11.1875 19.9375 C 10.058594 19.027344 9.121094 18.148438 8.53125 17.5625 C 8.429688 17.347656 8.21875 17.1875 8.21875 17.1875 C 8.21875 17.1875 8.625 17.003906 8.625 16.75 C 8.625 16.699219 8.589844 16.652344 8.5625 16.59375 Z M 23.65625 18.25 C 23.835938 18.382813 24.03125 18.4375 24.03125 18.4375 L 24.0625 18.59375 C 24.0625 18.59375 23.78125 18.691406 23.78125 18.96875 C 23.78125 19.339844 24.53125 19.46875 24.53125 19.46875 C 24.53125 19.46875 24.628906 19.648438 24.875 19.78125 L 24.875 21.875 C 24.464844 22.5625 24.175781 23.46875 24.125 24.4375 C 22.570313 23.359375 19.296875 22.261719 18.59375 22.03125 C 19.417969 21.609375 20.253906 21.097656 21.0625 20.5 C 22.042969 19.773438 22.988281 18.882813 23.65625 18.25 Z M 8.3125 18.28125 C 8.742188 18.679688 10.015625 19.839844 10.8125 20.5 C 11.320313 20.921875 12.246094 21.492188 13.1875 22 C 10.570313 22.828125 8.132813 24.253906 7.875 24.40625 C 7.820313 23.449219 7.527344 22.554688 7.125 21.875 L 7.125 19.78125 C 7.371094 19.648438 7.46875 19.46875 7.46875 19.46875 C 7.46875 19.46875 8.21875 19.339844 8.21875 18.96875 C 8.21875 18.691406 7.9375 18.59375 7.9375 18.59375 L 7.96875 18.4375 C 7.96875 18.4375 8.144531 18.394531 8.3125 18.28125 Z M 5.6875 21.9375 C 6.925781 21.9375 7.59375 24.285156 7.59375 24.8125 C 7.59375 25.832031 6.460938 26.4375 5.6875 26.4375 C 4.535156 26.4375 2.75 25.050781 2.75 24.53125 C 2.75 23.285156 4.375 21.9375 5.6875 21.9375 Z M 26.3125 21.9375 C 27.625 21.9375 29.25 23.285156 29.25 24.53125 C 29.25 25.050781 27.464844 26.4375 26.3125 26.4375 C 25.539063 26.4375 24.40625 25.832031 24.40625 24.8125 C 24.40625 24.285156 25.074219 21.9375 26.3125 21.9375 Z M 5.71875 22.34375 C 5.019531 22.34375 3.21875 23.570313 3.21875 24.4375 C 3.21875 25.191406 4.203125 25.25 4.34375 25.25 C 4.835938 25.25 6.625 24.417969 6.625 23.4375 C 6.625 23.21875 6.417969 22.34375 5.71875 22.34375 Z M 17.9375 22.34375 C 18.3125 22.480469 20.027344 23.109375 20.84375 23.46875 C 21.75 23.867188 23.53125 24.9375 23.53125 24.9375 C 23.53125 24.9375 19.242188 25.09375 16 25.09375 C 12.757813 25.09375 8.53125 24.90625 8.53125 24.90625 C 10.34375 23.691406 13.875 22.460938 14.03125 22.40625 C 14.765625 22.765625 15.460938 23.089844 15.84375 23.15625 C 16.449219 22.980469 17.171875 22.699219 17.9375 22.34375 Z M 26.28125 22.34375 C 25.582031 22.34375 25.375 23.21875 25.375 23.4375 C 25.375 24.417969 27.164063 25.25 27.65625 25.25 C 27.796875 25.25 28.78125 25.191406 28.78125 24.4375 C 28.78125 23.570313 26.980469 22.34375 26.28125 22.34375 Z M 6.8125 24.375 C 6.445313 24.375 5.3125 25.152344 5.3125 25.59375 C 5.3125 26.035156 5.890625 26.09375 6.0625 26.09375 C 6.234375 26.09375 7.21875 25.710938 7.21875 25.03125 C 7.21875 25.03125 7.179688 24.375 6.8125 24.375 Z M 25.1875 24.375 C 24.820313 24.375 24.78125 25.03125 24.78125 25.03125 C 24.78125 25.710938 25.765625 26.09375 25.9375 26.09375 C 26.109375 26.09375 26.6875 26.035156 26.6875 25.59375 C 26.6875 25.152344 25.554688 24.375 25.1875 24.375 Z"/></svg>