<svg xmlns="http://www.w3.org/2000/svg" viewBox="0 0 32 32"><path d="M 16 3 C 8.8321388 3 3 8.832144 3 16 C 3 23.167856 8.8321388 29 16 29 C 23.167861 29 29 23.167856 29 16 C 29 8.832144 23.167861 3 16 3 z M 16 5 C 22.086982 5 27 9.9130223 27 16 C 27 22.086978 22.086982 27 16 27 C 9.9130183 27 5 22.086978 5 16 C 5 9.9130223 9.9130183 5 16 5 z M 11 8 A 1 1 0 0 0 11 10 A 1 1 0 0 0 11 8 z M 10 11 L 10 22 L 12 22 L 12 11 L 10 11 z M 14 11 L 14 12 L 14 22 L 18.5 22 C 21.525577 22 24 19.525577 24 16.5 C 24 13.474423 21.525577 11 18.5 11 L 14 11 z M 16 13 L 18.5 13 C 20.444423 13 22 14.555577 22 16.5 C 22 18.444423 20.444423 20 18.5 20 L 16 20 L 16 13 z"/></svg>