<?xml version="1.0"?><svg xmlns="http://www.w3.org/2000/svg" viewBox="0 0 32 32">    <path d="M 19 0 L 19 2 C 25.065 2 30 6.935 30 13 L 32 13 C 32 5.832 26.168 0 19 0 z M 8.6503906 3.0058594 C 8.1255067 3.0058594 7.6010996 3.1771036 7.1738281 3.5214844 L 7.125 3.5605469 L 3.9804688 6.8046875 L 4.046875 6.7421875 C 3.0062406 7.6384134 2.7194504 9.0541178 3.1660156 10.244141 C 4.0086833 12.674074 6.1568506 17.372953 10.394531 21.605469 C 14.641274 25.857394 19.389499 27.91343 21.738281 28.830078 L 21.761719 28.837891 L 21.785156 28.845703 C 22.999558 29.252758 24.311449 28.962441 25.251953 28.158203 L 25.28125 28.132812 L 28.40625 25.007812 C 29.235762 24.178301 29.235762 22.724043 28.40625 21.894531 L 24.308594 17.792969 C 23.476725 16.9611 22.023275 16.9611 21.191406 17.792969 L 19.207031 19.777344 C 18.496637 19.438281 16.74879 18.558644 15.087891 16.974609 C 13.448585 15.411343 12.61169 13.604382 12.308594 12.90625 L 14.308594 10.90625 C 15.186189 10.028655 15.236115 8.5219515 14.224609 7.7167969 L 14.316406 7.8007812 L 10.173828 3.5605469 L 10.126953 3.5214844 C 9.6996708 3.1771284 9.1752746 3.0058594 8.6503906 3.0058594 z M 19 4 L 19 6 C 22.859 6 26 9.14 26 13 L 28 13 C 28 8.038 23.963 4 19 4 z M 8.6523438 5 C 8.7236064 4.9998777 8.7939074 5.026734 8.8632812 5.0800781 L 12.929688 9.2441406 L 12.978516 9.2832031 C 12.967016 9.2740531 13.016941 9.3697821 12.894531 9.4921875 L 9.9375 12.449219 L 10.166016 13.052734 C 10.166016 13.052734 11.294663 16.121404 13.707031 18.421875 C 16.079259 20.684317 19.003906 21.919922 19.003906 21.919922 L 19.626953 22.185547 L 22.605469 19.207031 C 22.7736 19.0389 22.7264 19.0389 22.894531 19.207031 L 26.992188 23.308594 C 27.162675 23.479082 27.162676 23.423262 26.992188 23.59375 L 23.945312 26.640625 C 23.481361 27.034971 23.00205 27.13833 22.425781 26.947266 C 20.163651 26.062686 15.739269 24.126878 11.808594 20.191406 C 7.8506547 16.238292 5.7997308 11.746595 5.046875 9.5703125 L 5.0429688 9.5585938 L 5.0371094 9.5449219 C 4.8856915 9.1444833 4.9963719 8.5637134 5.3515625 8.2578125 L 5.3847656 8.2285156 L 8.4394531 5.0800781 C 8.508857 5.0272234 8.5810811 5.0001223 8.6523438 5 z M 19 8 L 19 10 C 20.654 10 22 11.346 22 13 L 24 13 C 24 10.243 21.757 8 19 8 z"/></svg>