<svg xmlns="http://www.w3.org/2000/svg" viewBox="0 0 32 32"><path d="M 12.9375 6 L 12.9375 24.75 L 17 26 L 17 10.34375 C 17 9.929688 17.046875 9.644531 17.21875 9.46875 C 17.390625 9.230469 17.570313 9.210938 17.8125 9.3125 C 18.402344 9.484375 18.65625 9.980469 18.65625 10.84375 L 18.65625 17.15625 C 19.972656 17.777344 21.167969 17.84375 22.03125 17.1875 C 22.933594 16.566406 23.40625 15.441406 23.40625 13.78125 C 23.40625 12.054688 23.078125 10.742188 22.3125 9.875 C 21.621094 8.941406 20.398438 8.183594 18.59375 7.5625 C 16.34375 6.835938 14.460938 6.320313 12.9375 6 Z M 11.6875 17.34375 L 10.875 17.59375 L 5.84375 19.40625 L 4.96875 19.75 C 3.652344 20.304688 2.964844 20.886719 3 21.40625 C 3.070313 22.167969 3.941406 22.710938 5.5 23.125 C 7.523438 23.671875 9.585938 23.78125 11.6875 23.46875 L 11.6875 21.34375 L 10.875 21.65625 L 10 22 L 8.53125 22.28125 L 7.15625 22.09375 C 6.878906 21.917969 6.824219 21.734375 7 21.5625 C 7.171875 21.457031 7.410156 21.324219 7.6875 21.21875 L 8.625 20.875 L 11.6875 19.8125 Z M 23.34375 18.34375 C 22.96875 18.328125 22.582031 18.355469 22.21875 18.375 C 20.871094 18.402344 19.5 18.640625 18.0625 19.09375 L 18.0625 21.59375 L 20.90625 20.59375 L 22.375 20.09375 C 22.375 20.09375 22.9375 19.949219 23.34375 19.84375 C 23.964844 19.679688 24.625 19.90625 24.625 19.90625 C 25.003906 19.941406 25.179688 20.074219 25.25 20.25 C 25.320313 20.457031 25.082031 20.636719 24.5625 20.8125 L 23.28125 21.3125 L 18.0625 23.1875 L 18.0625 25.625 L 20.5 24.75 L 26.34375 22.6875 L 27.0625 22.375 C 28.449219 21.855469 29.070313 21.285156 29 20.59375 C 28.964844 19.933594 28.199219 19.417969 26.8125 18.96875 C 25.644531 18.578125 24.46875 18.386719 23.34375 18.34375 Z"/></svg>