<svg xmlns="http://www.w3.org/2000/svg" viewBox="0 0 32 32"><path d="M 16 5.886719 C 22.085938 5.886719 22.394531 11.324219 22.730469 12.394531 C 22.730469 12.394531 23.210938 12.929688 23.324219 13.746094 C 23.398438 14.273438 23.097656 14.871094 23.097656 14.871094 C 23.097656 14.871094 25.042969 17.492188 25.042969 19.550781 C 25.042969 20.835938 24.664063 21.5 24.222656 21.5 C 23.777344 21.5 23.128906 20.140625 23.128906 20.140625 C 23.128906 20.140625 22.113281 22.308594 21.605469 22.621094 C 21.097656 22.929688 23.4375 23.269531 23.4375 24.28125 C 23.4375 25.296875 21.578125 25.746094 20.058594 25.746094 C 18.535156 25.746094 16.113281 24.957031 16.113281 24.957031 L 15.238281 24.929688 C 15.238281 24.929688 14.5625 25.886719 11.773438 25.886719 C 8.984375 25.886719 7.773438 25.128906 7.773438 24.226563 C 7.773438 23.011719 9.550781 22.847656 9.550781 22.847656 C 9.550781 22.847656 8.417969 22.53125 7.460938 19.851563 C 7.460938 19.851563 6.796875 21.296875 5.859375 21.296875 C 5.859375 21.296875 5.464844 21.0625 5.464844 19.746094 C 5.464844 17.023438 7.421875 15.695313 8.265625 14.878906 C 8.265625 14.878906 8.125 14.523438 8.199219 14.082031 C 8.28125 13.589844 8.574219 13.292969 8.574219 13.292969 C 8.574219 13.292969 8.464844 12.703125 8.875 12.226563 C 8.957031 10.902344 9.914063 5.886719 16 5.886719 M 16 3.886719 C 9.601563 3.886719 7.332031 8.476563 6.929688 11.554688 C 6.738281 11.929688 6.628906 12.316406 6.585938 12.679688 C 6.433594 12.96875 6.296875 13.324219 6.226563 13.746094 C 6.207031 13.851563 6.195313 13.960938 6.1875 14.0625 C 5.078125 15.082031 3.464844 16.820313 3.464844 19.746094 C 3.464844 21.777344 4.210938 22.644531 4.839844 23.015625 L 5.308594 23.296875 L 5.859375 23.296875 C 5.875 23.296875 5.890625 23.296875 5.910156 23.296875 C 5.820313 23.582031 5.773438 23.890625 5.773438 24.226563 C 5.773438 25.085938 6.207031 27.890625 11.773438 27.890625 C 13.8125 27.890625 15.085938 27.449219 15.867188 26.976563 C 16.6875 27.222656 18.605469 27.746094 20.054688 27.746094 C 23.324219 27.746094 25.4375 26.386719 25.4375 24.28125 C 25.4375 23.90625 25.363281 23.574219 25.242188 23.277344 C 26.207031 22.839844 27.039063 21.710938 27.039063 19.550781 C 27.039063 17.65625 25.992188 15.667969 25.28125 14.535156 C 25.335938 14.210938 25.355469 13.847656 25.304688 13.472656 C 25.1875 12.632813 24.851563 11.964844 24.582031 11.546875 C 24.574219 11.507813 24.566406 11.46875 24.558594 11.429688 C 23.511719 6.421875 20.628906 3.886719 16 3.886719 Z"/></svg>