<svg xmlns="http://www.w3.org/2000/svg" viewBox="0 0 32 32"><path d="M 16 4 C 8.75 4 4 10.042969 4 15.972656 C 4 22.605469 9.382813 28 16 28 C 22.617188 28 28 22.605469 28 15.972656 C 28 10.042969 23.253906 4 16 4 Z M 16 26 C 10.476563 26 6 21.511719 6 15.972656 C 6 11.179688 9.355469 7.171875 13.839844 6.179688 C 10.5625 8.042969 9.636719 10.675781 9.347656 12.488281 C 8.976563 14.820313 9.96875 17.320313 11.855469 17.636719 C 12.003906 17.660156 12.140625 17.671875 12.277344 17.671875 C 13.933594 17.671875 14.796875 15.945313 14.921875 14.96875 C 15.074219 13.789063 14.574219 12.546875 13.898438 11.683594 C 13.535156 11.21875 13.011719 10.59375 12.261719 10.039063 L 13.394531 8.800781 C 13.921875 9.144531 14.335938 9.730469 14.539063 10.171875 C 14.539063 10.171875 14.554688 9.726563 14.460938 9.382813 C 14.339844 8.929688 14.171875 8.585938 14.085938 8.433594 C 14.03125 8.339844 13.984375 8.265625 13.941406 8.203125 L 16 5.945313 L 18.0625 8.199219 C 18.015625 8.265625 17.96875 8.339844 17.914063 8.429688 C 17.828125 8.585938 17.660156 8.929688 17.539063 9.382813 C 17.445313 9.726563 17.460938 10.171875 17.460938 10.171875 C 17.664063 9.730469 18.078125 9.140625 18.609375 8.800781 L 19.738281 10.035156 C 18.988281 10.589844 18.464844 11.214844 18.101563 11.679688 C 17.421875 12.546875 16.925781 13.785156 17.078125 14.96875 C 17.203125 15.945313 18.066406 17.667969 19.722656 17.667969 C 19.855469 17.667969 19.996094 17.65625 20.144531 17.632813 C 22.03125 17.316406 23.019531 14.820313 22.648438 12.488281 C 22.363281 10.675781 21.4375 8.042969 18.164063 6.179688 C 22.648438 7.171875 26 11.179688 26 15.972656 C 26 21.511719 21.523438 26 16 26 Z M 12.324219 12.914063 C 12.761719 13.472656 13.007813 14.191406 12.9375 14.710938 C 12.898438 15.027344 12.566406 15.671875 12.277344 15.671875 C 12.25 15.671875 12.21875 15.667969 12.1875 15.660156 C 11.679688 15.578125 11.09375 14.261719 11.324219 12.800781 C 11.367188 12.523438 11.425781 12.257813 11.496094 11.996094 C 11.832031 12.304688 12.097656 12.628906 12.324219 12.914063 Z M 20.503906 11.996094 C 20.574219 12.257813 20.632813 12.523438 20.675781 12.800781 C 20.90625 14.261719 20.320313 15.578125 19.8125 15.660156 C 19.78125 15.667969 19.75 15.671875 19.722656 15.671875 C 19.433594 15.671875 19.101563 15.027344 19.0625 14.710938 C 18.992188 14.191406 19.238281 13.46875 19.675781 12.914063 C 19.902344 12.625 20.167969 12.304688 20.503906 11.996094 Z"/></svg>