<svg xmlns="http://www.w3.org/2000/svg" viewBox="0 0 32 32"><path d="M 5 5 L 5 27 L 27 27 L 27 5 L 5 5 z M 7 7 L 25 7 L 25 25 L 7 25 L 7 7 z M 17.730469 17.009766 C 16.860469 17.009766 16.190703 17.259766 15.720703 17.759766 C 15.240703 18.249766 15 19 15 20 C 15 20.94 15.210625 21.669219 15.640625 22.199219 C 16.060625 22.729219 16.730391 23 17.650391 23 C 18.090391 23 18.500625 22.940547 18.890625 22.810547 C 19.280625 22.690547 19.590312 22.529609 19.820312 22.349609 L 19.330078 21.390625 C 19.190078 21.490625 19.009531 21.589687 18.769531 21.679688 C 18.519531 21.769687 18.239687 21.820313 17.929688 21.820312 C 17.429688 21.820312 17.069609 21.700937 16.849609 21.460938 C 16.619609 21.220938 16.500469 20.860859 16.480469 20.380859 L 19.890625 20.380859 C 19.920625 20.180859 19.950703 20.000547 19.970703 19.810547 C 19.990703 19.630547 20 19.460781 20 19.300781 C 20 18.860781 19.930547 18.499219 19.810547 18.199219 C 19.680547 17.909219 19.510781 17.67 19.300781 17.5 C 19.080781 17.32 18.840312 17.199141 18.570312 17.119141 C 18.300313 17.049141 18.020469 17.009766 17.730469 17.009766 z M 13.660156 17.039062 C 13.360156 17.039062 13.100859 17.109531 12.880859 17.269531 C 12.660859 17.419531 12.489375 17.630156 12.359375 17.910156 L 12.320312 17.910156 L 12.140625 17.160156 L 11 17.160156 L 11 22.839844 L 12.480469 22.839844 L 12.480469 19.169922 C 12.540469 18.949922 12.660078 18.770859 12.830078 18.630859 C 13.010078 18.500859 13.230234 18.429688 13.490234 18.429688 C 13.680234 18.429688 13.890859 18.470781 14.130859 18.550781 L 14.330078 17.160156 C 14.080078 17.080156 13.850156 17.039063 13.660156 17.039062 z M 22.070312 17.119141 C 21.790312 17.119141 21.580156 17.199609 21.410156 17.349609 C 21.240156 17.509609 21.160156 17.720469 21.160156 17.980469 C 21.160156 18.250469 21.240156 18.459141 21.410156 18.619141 C 21.580156 18.779141 21.790312 18.859375 22.070312 18.859375 C 22.350312 18.859375 22.58 18.779141 22.75 18.619141 C 22.92 18.459141 23 18.250469 23 17.980469 C 23 17.720469 22.92 17.509609 22.75 17.349609 C 22.58 17.199609 22.360312 17.119141 22.070312 17.119141 z M 17.699219 18.189453 C 18.039219 18.189453 18.279688 18.299531 18.429688 18.519531 C 18.589688 18.739531 18.649141 19.050938 18.619141 19.460938 L 16.509766 19.460938 C 16.549766 19.080938 16.659844 18.769062 16.839844 18.539062 C 17.029844 18.309062 17.309219 18.189453 17.699219 18.189453 z M 22.070312 21.230469 C 21.790312 21.230469 21.580156 21.300937 21.410156 21.460938 C 21.240156 21.610938 21.160156 21.819844 21.160156 22.089844 C 21.160156 22.359844 21.240156 22.570469 21.410156 22.730469 C 21.580156 22.890469 21.790312 22.960938 22.070312 22.960938 C 22.350312 22.960938 22.58 22.890469 22.75 22.730469 C 22.92 22.570469 23 22.349844 23 22.089844 C 23 21.819844 22.92 21.610937 22.75 21.460938 C 22.58 21.300937 22.360312 21.230469 22.070312 21.230469 z"/></svg>