<svg xmlns="http://www.w3.org/2000/svg" viewBox="0 0 32 32"><path d="M 6 4 C 4.90625 4 4 4.90625 4 6 C 4 7.09375 4.90625 8 6 8 C 7.09375 8 8 7.09375 8 6 C 8 4.90625 7.09375 4 6 4 Z M 10 5 C 9.449219 5 9 5.449219 9 6 C 9 6.550781 9.449219 7 10 7 C 10.550781 7 11 6.550781 11 6 C 11 5.449219 10.550781 5 10 5 Z M 13 5 C 12.449219 5 12 5.449219 12 6 C 12 6.550781 12.449219 7 13 7 C 13.550781 7 14 6.550781 14 6 C 14 5.449219 13.550781 5 13 5 Z M 16 5 C 15.449219 5 15 5.449219 15 6 C 15 6.550781 15.449219 7 16 7 C 16.550781 7 17 6.550781 17 6 C 17 5.449219 16.550781 5 16 5 Z M 19 5 C 18.449219 5 18 5.449219 18 6 C 18 6.550781 18.449219 7 19 7 C 19.550781 7 20 6.550781 20 6 C 20 5.449219 19.550781 5 19 5 Z M 22 5 C 21.449219 5 21 5.449219 21 6 C 21 6.550781 21.449219 7 22 7 C 22.550781 7 23 6.550781 23 6 C 23 5.449219 22.550781 5 22 5 Z M 25 5 C 24.449219 5 24 5.449219 24 6 C 24 6.550781 24.449219 7 25 7 C 25.550781 7 26 6.550781 26 6 C 26 5.449219 25.550781 5 25 5 Z M 27 7 C 26.449219 7 26 7.449219 26 8 C 26 8.550781 26.449219 9 27 9 C 27.550781 9 28 8.550781 28 8 C 28 7.449219 27.550781 7 27 7 Z M 16 10 C 14.347656 10 13 11.347656 13 13 C 13 14.25 14.613281 17.492188 15.109375 18.457031 L 16 20.1875 L 16.890625 18.457031 C 17.386719 17.492188 19 14.25 19 13 C 19 11.347656 17.652344 10 16 10 Z M 27 10 C 26.449219 10 26 10.449219 26 11 C 26 11.550781 26.449219 12 27 12 C 27.550781 12 28 11.550781 28 11 C 28 10.449219 27.550781 10 27 10 Z M 16 12 C 16.550781 12 17 12.449219 17 13 C 17 13.550781 16.550781 14 16 14 C 15.449219 14 15 13.550781 15 13 C 15 12.449219 15.449219 12 16 12 Z M 27 13 C 26.449219 13 26 13.449219 26 14 C 26 14.550781 26.449219 15 27 15 C 27.550781 15 28 14.550781 28 14 C 28 13.449219 27.550781 13 27 13 Z M 27 16 C 26.449219 16 26 16.449219 26 17 C 26 17.550781 26.449219 18 27 18 C 27.550781 18 28 17.550781 28 17 C 28 16.449219 27.550781 16 27 16 Z M 7 18 C 6.449219 18 6 18.449219 6 19 C 6 19.550781 6.449219 20 7 20 C 7.550781 20 8 19.550781 8 19 C 8 18.449219 7.550781 18 7 18 Z M 10 18 C 9.449219 18 9 18.449219 9 19 C 9 19.550781 9.449219 20 10 20 C 10.550781 20 11 19.550781 11 19 C 11 18.449219 10.550781 18 10 18 Z M 13 18 C 12.449219 18 12 18.449219 12 19 C 12 19.550781 12.449219 20 13 20 C 13.550781 20 14 19.550781 14 19 C 14 18.449219 13.550781 18 13 18 Z M 19 18 C 18.449219 18 18 18.449219 18 19 C 18 19.550781 18.449219 20 19 20 C 19.550781 20 20 19.550781 20 19 C 20 18.449219 19.550781 18 19 18 Z M 22 18 C 21.449219 18 21 18.449219 21 19 C 21 19.550781 21.449219 20 22 20 C 22.550781 20 23 19.550781 23 19 C 23 18.449219 22.550781 18 22 18 Z M 25 18 C 24.449219 18 24 18.449219 24 19 C 24 19.550781 24.449219 20 25 20 C 25.550781 20 26 19.550781 26 19 C 26 18.449219 25.550781 18 25 18 Z M 5 20 C 4.449219 20 4 20.449219 4 21 C 4 21.550781 4.449219 22 5 22 C 5.550781 22 6 21.550781 6 21 C 6 20.449219 5.550781 20 5 20 Z M 5 23 C 4.449219 23 4 23.449219 4 24 C 4 24.550781 4.449219 25 5 25 C 5.550781 25 6 24.550781 6 24 C 6 23.449219 5.550781 23 5 23 Z M 26 24 C 24.90625 24 24 24.90625 24 26 C 24 27.09375 24.90625 28 26 28 C 27.09375 28 28 27.09375 28 26 C 28 24.90625 27.09375 24 26 24 Z M 7 25 C 6.449219 25 6 25.449219 6 26 C 6 26.550781 6.449219 27 7 27 C 7.550781 27 8 26.550781 8 26 C 8 25.449219 7.550781 25 7 25 Z M 10 25 C 9.449219 25 9 25.449219 9 26 C 9 26.550781 9.449219 27 10 27 C 10.550781 27 11 26.550781 11 26 C 11 25.449219 10.550781 25 10 25 Z M 13 25 C 12.449219 25 12 25.449219 12 26 C 12 26.550781 12.449219 27 13 27 C 13.550781 27 14 26.550781 14 26 C 14 25.449219 13.550781 25 13 25 Z M 16 25 C 15.449219 25 15 25.449219 15 26 C 15 26.550781 15.449219 27 16 27 C 16.550781 27 17 26.550781 17 26 C 17 25.449219 16.550781 25 16 25 Z M 19 25 C 18.449219 25 18 25.449219 18 26 C 18 26.550781 18.449219 27 19 27 C 19.550781 27 20 26.550781 20 26 C 20 25.449219 19.550781 25 19 25 Z M 22 25 C 21.449219 25 21 25.449219 21 26 C 21 26.550781 21.449219 27 22 27 C 22.550781 27 23 26.550781 23 26 C 23 25.449219 22.550781 25 22 25 Z"/></svg>