<svg xmlns="http://www.w3.org/2000/svg" viewBox="0 0 32 32"><path d="M 20.21875 5 C 18.539063 5 17.15625 6.382813 17.15625 8.0625 C 17.15625 9.742188 18.539063 11.125 20.21875 11.125 C 21.902344 11.125 23.3125 9.742188 23.3125 8.0625 C 23.3125 6.382813 21.902344 5 20.21875 5 Z M 20.21875 7 C 20.820313 7 21.3125 7.464844 21.3125 8.0625 C 21.3125 8.660156 20.820313 9.125 20.21875 9.125 C 19.621094 9.125 19.15625 8.664063 19.15625 8.0625 C 19.15625 7.464844 19.621094 7 20.21875 7 Z M 12.9375 9 C 12.457031 9.058594 11.972656 9.28125 11.625 9.65625 L 8.25 13.3125 L 9.75 14.6875 L 13.09375 11.03125 C 13.128906 10.996094 13.175781 10.972656 13.21875 11 L 14.8125 12.0625 L 12.46875 15.3125 C 11.734375 16.34375 11.855469 17.761719 12.75 18.65625 L 16.28125 22.1875 L 13.375 28 L 15.625 28 L 18.09375 23.09375 C 18.480469 22.324219 18.328125 21.390625 17.71875 20.78125 L 14.1875 17.25 C 13.984375 17.046875 13.957031 16.703125 14.125 16.46875 L 16.46875 13.1875 L 17.28125 13.71875 L 18.875 16.125 C 19.246094 16.679688 19.863281 17 20.53125 17 L 25 17 L 25 15 L 20.53125 15 L 18.84375 12.4375 L 18.71875 12.28125 L 18.5625 12.15625 L 14.34375 9.34375 C 13.917969 9.058594 13.417969 8.941406 12.9375 9 Z M 12.0625 19.53125 L 10.59375 21 L 6 21 L 6 23 L 10.59375 23 C 11.121094 23 11.625 22.785156 12 22.40625 L 13.46875 20.9375 Z"/></svg>