<svg xmlns="http://www.w3.org/2000/svg" viewBox="0 0 32 32"><path d="M 16 4 C 9.382813 4 4 9.382813 4 16 C 4 22.617188 9.382813 28 16 28 C 22.617188 28 28 22.617188 28 16 C 28 9.382813 22.617188 4 16 4 Z M 16 6 C 21.535156 6 26 10.464844 26 16 C 26 21.535156 21.535156 26 16 26 C 10.464844 26 6 21.535156 6 16 C 6 10.464844 10.464844 6 16 6 Z M 16.53125 7.03125 L 16.4375 9.03125 L 16.65625 9.03125 L 16.84375 9.0625 L 17.125 7.0625 L 16.96875 7.0625 L 16.90625 7.03125 Z M 14.8125 7.09375 L 14.34375 7.15625 L 14.625 9.125 L 15.125 9.0625 Z M 18.78125 7.4375 L 18.09375 9.3125 L 18.5625 9.5 L 19.25 7.625 Z M 12.6875 7.625 L 12.53125 7.6875 L 12.5 7.71875 L 12.4375 7.71875 L 12.15625 7.875 L 13 9.6875 L 13.21875 9.5625 L 13.3125 9.53125 L 13.375 9.5 Z M 20.78125 8.375 L 19.75 10.09375 L 19.9375 10.1875 L 19.96875 10.21875 L 20.09375 10.3125 L 21.28125 8.71875 L 21.0625 8.5625 L 21 8.5 Z M 10.6875 8.75 L 10.3125 9.03125 L 10.25 9.09375 L 10.21875 9.09375 L 11.09375 10.0625 L 11.5 10.625 L 11.5625 10.59375 L 11.59375 10.5625 L 11.875 10.34375 Z M 22.28125 9.59375 L 14.9375 14.90625 L 9.78125 22.25 L 10.8125 21.53125 L 9.875 22.5625 L 10.25 22.90625 L 11.59375 21.4375 L 11.3125 21.1875 L 17.15625 17.125 L 21.125 11.28125 L 21.40625 11.5625 L 22.875 10.21875 L 22.5625 9.84375 L 21.40625 10.875 Z M 9.03125 10.3125 L 8.71875 10.71875 L 10.3125 11.90625 L 10.625 11.5 Z M 23.84375 11.59375 L 22.46875 12.46875 L 22.125 12.625 L 22.15625 12.65625 L 22.1875 12.71875 L 22.3125 13 L 24.125 12.125 L 23.9375 11.75 L 23.90625 11.71875 Z M 7.875 12.1875 L 7.71875 12.4375 L 7.71875 12.5 L 7.6875 12.53125 L 7.625 12.71875 L 9.5 13.40625 L 9.5625 13.21875 L 9.65625 13.03125 Z M 24.6875 13.75 L 22.75 14.21875 L 22.84375 14.53125 L 22.875 14.625 L 24.84375 14.3125 L 24.8125 14.25 L 24.8125 14.125 Z M 7.15625 14.375 L 7.09375 14.875 L 9.0625 15.15625 L 9.125 14.65625 Z M 25 15.90625 L 23.75 16 L 23 15.9375 L 23 16.0625 L 22.96875 16.4375 L 24.96875 16.5625 L 25 16.0625 L 24 16 L 25 15.9375 Z M 9.03125 16.46875 L 7.03125 16.5625 L 7.03125 16.90625 L 7.0625 16.96875 L 7.09375 17.15625 L 9.0625 16.875 L 9.03125 16.78125 Z M 22.78125 17.75 L 22.65625 18.125 L 24.53125 18.8125 L 24.59375 18.71875 L 24.59375 18.625 L 24.71875 18.25 Z M 9.34375 18.125 L 7.46875 18.8125 L 7.625 19.3125 L 9.5 18.625 Z M 22.15625 19.34375 L 21.90625 19.75 L 23.59375 20.8125 L 23.875 20.375 Z M 10.125 19.78125 L 8.40625 20.8125 L 8.5 21 L 8.5625 21.0625 L 8.75 21.3125 L 10.34375 20.09375 L 10.21875 19.96875 L 10.1875 19.90625 L 10.15625 19.875 Z M 21.09375 20.78125 L 20.90625 20.96875 L 20.8125 21.09375 L 22.15625 22.5625 L 22.34375 22.40625 L 22.40625 22.34375 L 22.5625 22.15625 Z M 19.78125 21.90625 L 19.34375 22.15625 L 20.375 23.875 L 20.8125 23.59375 Z M 12.625 22.125 L 12.34375 22.71875 L 11.625 23.875 L 11.65625 23.875 L 11.71875 23.90625 L 11.75 23.9375 L 12.15625 24.125 L 13.03125 22.34375 L 12.71875 22.1875 L 12.6875 22.15625 Z M 18.125 22.65625 L 17.75 22.78125 L 18.25 24.71875 L 18.625 24.59375 L 18.71875 24.59375 L 18.8125 24.53125 Z M 14.28125 22.78125 L 13.78125 24.71875 L 14.125 24.8125 L 14.25 24.8125 L 14.34375 24.84375 L 14.65625 22.875 L 14.625 22.875 L 14.53125 22.84375 Z M 16.46875 22.96875 L 15.96875 23 L 16.0625 25 L 16.5625 24.96875 Z"/></svg>