<svg xmlns="http://www.w3.org/2000/svg" viewBox="0 0 32 32"><path d="M 5 5 L 5 27 L 27 27 L 27 5 L 5 5 z M 7 7 L 25 7 L 25 25 L 7 25 L 7 7 z M 20.066406 9.0605469 C 19.687152 8.9924785 19.274156 9.1244219 19.019531 9.5605469 L 18.791016 9.9511719 C 16.490016 8.6581719 13.536031 9.4384531 12.207031 11.689453 C 10.882031 13.944453 11.678609 16.852391 13.974609 18.150391 C 14.860609 18.655391 13.969469 18.146391 14.855469 18.650391 C 16.046469 19.322391 17.056766 17.563391 15.884766 16.900391 C 15.879766 16.900391 14.998047 16.404297 14.998047 16.404297 C 13.683047 15.657297 13.219422 13.986266 13.982422 12.697266 C 14.745422 11.408266 16.450625 10.961125 17.765625 11.703125 C 18.651625 12.208125 17.760484 11.699125 18.646484 12.203125 C 19.131484 12.441125 19.598203 12.339156 19.908203 12.035156 C 20.036203 11.909156 20.004453 11.941453 20.814453 10.564453 C 21.240078 9.8407031 20.698496 9.1739941 20.066406 9.0605469 z M 16.6875 13.201172 C 15.712326 13.096924 15.06825 14.517531 16.09375 15.097656 C 16.95075 15.573656 16.130516 15.11775 16.978516 15.59375 C 18.293516 16.34075 18.751141 18.011781 17.994141 19.300781 C 17.231141 20.589781 15.525937 21.036922 14.210938 20.294922 C 13.324937 19.789922 14.216078 20.298922 13.330078 19.794922 C 12.840078 19.514922 12.206781 19.683062 11.925781 20.164062 L 11.177734 21.433594 C 10.577734 22.451594 12.100406 23.908781 13.191406 22.050781 C 15.492406 23.343781 18.446391 22.5635 19.775391 20.3125 C 21.104391 18.0615 20.309906 15.153656 18.003906 13.847656 C 17.117906 13.342656 18.007094 13.851656 17.121094 13.347656 C 16.972219 13.263656 16.826811 13.216064 16.6875 13.201172 z"/></svg>