<svg xmlns="http://www.w3.org/2000/svg" viewBox="0 0 32 32"><path d="M 16 4 C 13.855469 4 12.117188 5.71875 12.03125 7.84375 C 8.425781 9.375 6 12.941406 6 17 C 6 17.171875 5.992188 17.359375 6 17.5625 C 4.816406 18.257813 4 19.535156 4 21 C 4 23.199219 5.800781 25 8 25 C 8.574219 25 9.128906 24.878906 9.625 24.65625 C 11.359375 26.113281 13.617188 27 16 27 C 18.382813 27 20.640625 26.113281 22.375 24.65625 C 22.871094 24.878906 23.425781 25 24 25 C 26.199219 25 28 23.199219 28 21 C 28 19.519531 27.175781 18.222656 25.96875 17.53125 C 25.984375 17.371094 26 17.207031 26 17 C 26 12.941406 23.574219 9.375 19.96875 7.84375 C 19.882813 5.71875 18.144531 4 16 4 Z M 16 6 C 17.117188 6 18 6.882813 18 8 C 18 9.117188 17.117188 10 16 10 C 14.882813 10 14 9.117188 14 8 C 14 6.882813 14.882813 6 16 6 Z M 12.46875 9.84375 C 13.140625 11.117188 14.46875 12 16 12 C 17.53125 12 18.859375 11.117188 19.53125 9.84375 C 22.210938 11.144531 24 13.878906 24 17 C 21.800781 17 20 18.800781 20 21 C 20 21.894531 20.308594 22.707031 20.8125 23.375 C 19.476563 24.386719 17.757813 25 16 25 C 14.242188 25 12.523438 24.386719 11.1875 23.375 C 11.691406 22.707031 12 21.894531 12 21 C 12 18.800781 10.199219 17 8 17 C 8 13.878906 9.789063 11.144531 12.46875 9.84375 Z M 8 19 C 9.117188 19 10 19.882813 10 21 C 10 22.117188 9.117188 23 8 23 C 6.882813 23 6 22.117188 6 21 C 6 19.882813 6.882813 19 8 19 Z M 24 19 C 25.117188 19 26 19.882813 26 21 C 26 22.117188 25.117188 23 24 23 C 22.882813 23 22 22.117188 22 21 C 22 19.882813 22.882813 19 24 19 Z"/></svg>