<svg xmlns="http://www.w3.org/2000/svg" viewBox="0 0 32 32"><path d="M 15 4 L 15 6.09375 C 12.476563 6.511719 10.511719 8.476563 10.09375 11 L 9 11 L 9 13 L 23 13 L 23 11 L 21.90625 11 C 21.488281 8.476563 19.523438 6.511719 17 6.09375 L 17 4 Z M 16 8 C 17.917969 8 19.382813 9.25 19.8125 11 L 12.1875 11 C 12.617188 9.25 14.082031 8 16 8 Z M 14 14 C 13.449219 14 13 14.449219 13 15 C 13 15.550781 13.449219 16 14 16 C 14.550781 16 15 15.550781 15 15 C 15 14.449219 14.550781 14 14 14 Z M 18 14 C 17.449219 14 17 14.449219 17 15 C 17 15.550781 17.449219 16 18 16 C 18.550781 16 19 15.550781 19 15 C 19 14.449219 18.550781 14 18 14 Z M 12 17 C 11.449219 17 11 17.449219 11 18 C 11 18.550781 11.449219 19 12 19 C 12.550781 19 13 18.550781 13 18 C 13 17.449219 12.550781 17 12 17 Z M 16 17 C 15.449219 17 15 17.449219 15 18 C 15 18.550781 15.449219 19 16 19 C 16.550781 19 17 18.550781 17 18 C 17 17.449219 16.550781 17 16 17 Z M 20 17 C 19.449219 17 19 17.449219 19 18 C 19 18.550781 19.449219 19 20 19 C 20.550781 19 21 18.550781 21 18 C 21 17.449219 20.550781 17 20 17 Z M 10 20 C 9.449219 20 9 20.449219 9 21 C 9 21.550781 9.449219 22 10 22 C 10.550781 22 11 21.550781 11 21 C 11 20.449219 10.550781 20 10 20 Z M 14 20 C 13.449219 20 13 20.449219 13 21 C 13 21.550781 13.449219 22 14 22 C 14.550781 22 15 21.550781 15 21 C 15 20.449219 14.550781 20 14 20 Z M 18 20 C 17.449219 20 17 20.449219 17 21 C 17 21.550781 17.449219 22 18 22 C 18.550781 22 19 21.550781 19 21 C 19 20.449219 18.550781 20 18 20 Z M 22 20 C 21.449219 20 21 20.449219 21 21 C 21 21.550781 21.449219 22 22 22 C 22.550781 22 23 21.550781 23 21 C 23 20.449219 22.550781 20 22 20 Z M 8 23 C 7.449219 23 7 23.449219 7 24 C 7 24.550781 7.449219 25 8 25 C 8.550781 25 9 24.550781 9 24 C 9 23.449219 8.550781 23 8 23 Z M 12 23 C 11.449219 23 11 23.449219 11 24 C 11 24.550781 11.449219 25 12 25 C 12.550781 25 13 24.550781 13 24 C 13 23.449219 12.550781 23 12 23 Z M 16 23 C 15.449219 23 15 23.449219 15 24 C 15 24.550781 15.449219 25 16 25 C 16.550781 25 17 24.550781 17 24 C 17 23.449219 16.550781 23 16 23 Z M 20 23 C 19.449219 23 19 23.449219 19 24 C 19 24.550781 19.449219 25 20 25 C 20.550781 25 21 24.550781 21 24 C 21 23.449219 20.550781 23 20 23 Z M 24 23 C 23.449219 23 23 23.449219 23 24 C 23 24.550781 23.449219 25 24 25 C 24.550781 25 25 24.550781 25 24 C 25 23.449219 24.550781 23 24 23 Z M 6 26 C 5.449219 26 5 26.449219 5 27 C 5 27.550781 5.449219 28 6 28 C 6.550781 28 7 27.550781 7 27 C 7 26.449219 6.550781 26 6 26 Z M 10 26 C 9.449219 26 9 26.449219 9 27 C 9 27.550781 9.449219 28 10 28 C 10.550781 28 11 27.550781 11 27 C 11 26.449219 10.550781 26 10 26 Z M 14 26 C 13.449219 26 13 26.449219 13 27 C 13 27.550781 13.449219 28 14 28 C 14.550781 28 15 27.550781 15 27 C 15 26.449219 14.550781 26 14 26 Z M 18 26 C 17.449219 26 17 26.449219 17 27 C 17 27.550781 17.449219 28 18 28 C 18.550781 28 19 27.550781 19 27 C 19 26.449219 18.550781 26 18 26 Z M 22 26 C 21.449219 26 21 26.449219 21 27 C 21 27.550781 21.449219 28 22 28 C 22.550781 28 23 27.550781 23 27 C 23 26.449219 22.550781 26 22 26 Z M 26 26 C 25.449219 26 25 26.449219 25 27 C 25 27.550781 25.449219 28 26 28 C 26.550781 28 27 27.550781 27 27 C 27 26.449219 26.550781 26 26 26 Z"/></svg>