<svg xmlns="http://www.w3.org/2000/svg" viewBox="0 0 32 32"><path d="M 6.5 3 C 5.671875 3 5 3.671875 5 4.5 C 5 4.734375 5.0625 4.960938 5.15625 5.15625 C 4.960938 5.0625 4.734375 5 4.5 5 C 3.671875 5 3 5.671875 3 6.5 C 3 7.328125 3.671875 8 4.5 8 C 5.070313 8 5.558594 7.6875 5.8125 7.21875 L 8.53125 9.96875 C 7.828125 11.007813 7.335938 12.214844 7.125 13.5 C 6.796875 15.492188 7.183594 17.371094 8 19 L 8 20 C 8 20.710938 8.265625 21.359375 8.6875 21.875 L 5.8125 24.75 C 5.554688 24.296875 5.058594 24 4.5 24 C 3.671875 24 3 24.671875 3 25.5 C 3 26.328125 3.671875 27 4.5 27 C 4.734375 27 4.960938 26.9375 5.15625 26.84375 C 5.058594 27.039063 5 27.265625 5 27.5 C 5 28.328125 5.671875 29 6.5 29 C 7.328125 29 8 28.328125 8 27.5 C 8 26.941406 7.703125 26.445313 7.25 26.1875 L 10.5 22.9375 C 10.664063 22.964844 10.828125 23 11 23 C 11 24.644531 12.355469 26 14 26 L 18 26 C 19.644531 26 21 24.644531 21 23 C 21.171875 23 21.335938 22.964844 21.5 22.9375 L 24.75 26.1875 C 24.296875 26.445313 24 26.941406 24 27.5 C 24 28.328125 24.671875 29 25.5 29 C 26.328125 29 27 28.328125 27 27.5 C 27 27.265625 26.9375 27.039063 26.84375 26.84375 C 27.039063 26.9375 27.265625 27 27.5 27 C 28.328125 27 29 26.328125 29 25.5 C 29 24.671875 28.328125 24 27.5 24 C 26.941406 24 26.445313 24.296875 26.1875 24.75 L 23.3125 21.875 C 23.734375 21.359375 24 20.710938 24 20 L 24 19.03125 C 24.617188 17.8125 25 16.457031 25 15 C 25 13.136719 24.417969 11.40625 23.4375 9.96875 L 26.1875 7.21875 C 26.441406 7.6875 26.929688 8 27.5 8 C 28.328125 8 29 7.328125 29 6.5 C 29 5.671875 28.328125 5 27.5 5 C 27.265625 5 27.039063 5.0625 26.84375 5.15625 C 26.9375 4.960938 27 4.734375 27 4.5 C 27 3.671875 26.328125 3 25.5 3 C 24.671875 3 24 3.671875 24 4.5 C 24 5.070313 24.3125 5.558594 24.78125 5.8125 L 22.125 8.4375 C 20.5 6.921875 18.320313 5.988281 15.9375 6 C 15.605469 6 15.277344 6.023438 14.9375 6.0625 C 12.996094 6.285156 11.214844 7.125 9.84375 8.40625 L 7.21875 5.8125 C 7.6875 5.558594 8 5.070313 8 4.5 C 8 3.671875 7.328125 3 6.5 3 Z M 15.96875 8 C 19.871094 7.976563 23 11.109375 23 15 C 23 16.230469 22.683594 17.371094 22.125 18.375 L 22 18.625 L 22 20 C 22 20.566406 21.566406 21 21 21 L 19 21 L 19 23 C 19 23.566406 18.566406 24 18 24 L 14 24 C 13.433594 24 13 23.566406 13 23 L 13 21 L 11 21 C 10.433594 21 10 20.566406 10 20 L 10 18.625 L 9.875 18.375 C 9.144531 17.054688 8.816406 15.492188 9.09375 13.8125 C 9.585938 10.796875 12.148438 8.40625 15.1875 8.0625 C 15.453125 8.03125 15.707031 8 15.96875 8 Z M 13 15 C 11.894531 15 11 15.894531 11 17 C 11 18.105469 11.894531 19 13 19 C 14.105469 19 15 18.105469 15 17 C 15 15.894531 14.105469 15 13 15 Z M 19 15 C 17.894531 15 17 15.894531 17 17 C 17 18.105469 17.894531 19 19 19 C 20.105469 19 21 18.105469 21 17 C 21 15.894531 20.105469 15 19 15 Z M 15 20 L 15 22 L 17 22 L 17 20 Z"/></svg>