<svg xmlns="http://www.w3.org/2000/svg" viewBox="0 0 32 32"><path d="M 4.5 7 C 3.132813 7 2 8.132813 2 9.5 L 2 10 L 4 10 L 4 9.5 C 4 9.214844 4.214844 9 4.5 9 C 4.757813 9 5 9.273438 5 9.5 C 5 9.703125 4.660156 10.332031 4.125 11.3125 C 3.589844 12.292969 3 13.652344 3 15.5 C 3 18.351563 5.210938 20.714844 8 20.96875 L 8 23 L 3 23 L 3 25 L 27 25 C 28.644531 25 30 23.644531 30 22 C 30 20.355469 28.644531 19 27 19 L 27 21 C 27.566406 21 28 21.433594 28 22 C 28 22.566406 27.566406 23 27 23 L 22 23 L 22 20.78125 C 24.296875 20.121094 26 18 26 15.5 L 26 13 C 26 12.433594 26.433594 12 27 12 C 27.566406 12 28 12.433594 28 13 L 30 13 C 30 11.355469 28.644531 10 27 10 C 25.355469 10 24 11.355469 24 13 C 24 14.269531 23.550781 14.550781 23.0625 14.78125 C 22.574219 15.011719 22.0625 15 22.0625 15 L 17 15 C 15.859375 15 15.542969 14.578125 15.28125 14.0625 C 15.019531 13.546875 15 13 15 13 L 15 12 C 15 9.71875 13.695313 8.289063 12.46875 7.65625 C 11.242188 7.023438 10.03125 7 10.03125 7 Z M 6.9375 9 L 10 9 C 10.027344 9 10.773438 9.046875 11.53125 9.4375 C 12.304688 9.835938 13 10.40625 13 12 L 13 13 C 13 13 13 13.953125 13.5 14.9375 C 14 15.921875 15.183594 17 17 17 L 21.9375 17 C 21.9375 17 22 17 22 17 C 22.050781 17.003906 22.867188 17.042969 23.78125 16.65625 C 23.304688 18.023438 22.027344 19 20.5 19 L 8.5 19 C 6.570313 19 5 17.429688 5 15.5 C 5 14.054688 5.410156 13.101563 5.875 12.25 C 6.339844 11.398438 7 10.671875 7 9.5 C 7 9.332031 6.96875 9.160156 6.9375 9 Z M 10 21 L 20 21 L 20 23 L 10 23 Z"/></svg>