<svg xmlns="http://www.w3.org/2000/svg" viewBox="0 0 32 32"><path d="M 8 4 C 6.355469 4 5 5.355469 5 7 L 5 15.40625 C 4.230469 14.960938 3.628906 14.5625 3.5 14.5625 C 3.140625 14.5625 3 14.90625 3 15.125 C 3 16.246094 6.335938 18.40625 8.4375 19.1875 C 8.4375 19.1875 7.90625 20.738281 7.90625 22.5 C 7.90625 24.261719 8.992188 28 12.4375 28 C 12.4375 28 15 27.992188 15 25.46875 L 15 20.5 L 17 21.09375 L 17 25.46875 C 17 27.992188 19.5625 28 19.5625 28 C 23.007813 28 24.09375 24.261719 24.09375 22.5 C 24.09375 20.738281 23.5625 19.1875 23.5625 19.1875 C 25.664063 18.40625 29 16.246094 29 15.125 C 29 14.90625 28.859375 14.5625 28.5 14.5625 C 28.371094 14.5625 27.769531 14.960938 27 15.40625 L 27 7 C 27 5.355469 25.644531 4 24 4 Z M 8 6 L 24 6 C 24.566406 6 25 6.433594 25 7 L 25 16.40625 C 23.886719 16.871094 22.601563 17.25 21.28125 17.25 C 19.820313 17.25 18.902344 17.15625 18.28125 17.15625 C 17.078125 17.15625 17 18.4375 17 18.4375 L 17 19.34375 L 14.65625 17.5625 C 14.46875 17.339844 14.167969 17.15625 13.71875 17.15625 C 13.097656 17.15625 12.179688 17.25 10.71875 17.25 C 9.398438 17.25 8.113281 16.871094 7 16.40625 L 7 7 C 7 6.433594 7.433594 6 8 6 Z M 12.3125 10.96875 C 10.835938 10.96875 9.65625 12.113281 9.65625 13.5 C 9.65625 14.886719 10.835938 16 12.3125 16 C 13.789063 16 15 14.886719 15 13.5 C 15 12.113281 13.789063 10.96875 12.3125 10.96875 Z M 19.6875 10.96875 C 18.210938 10.96875 17 12.113281 17 13.5 C 17 14.886719 18.210938 16 19.6875 16 C 21.164063 16 22.34375 14.886719 22.34375 13.5 C 22.34375 12.113281 21.164063 10.96875 19.6875 10.96875 Z"/></svg>