<svg xmlns="http://www.w3.org/2000/svg" viewBox="0 0 32 32"><path d="M 21 4 C 19.355 4 18 5.355 18 7 C 18 8.645 19.355 10 21 10 C 22.645 10 24 8.645 24 7 C 24 5.355 22.645 4 21 4 z M 10.53125 5.15625 L 8.875 6.28125 L 11.1875 9.6875 C 11.4605 10.0905 11.87075 10.379 12.34375 10.5 L 14.53125 11.0625 L 11.34375 14.15625 C 10.62075 14.85925 10.485 15.977703 11 16.845703 L 12.34375 19.158203 L 11.40625 20.220703 L 9.4648438 22.388672 L 11.724609 22.863281 L 12.90625 21.564453 L 14.34375 19.939453 L 14.8125 19.408203 L 14.46875 18.783203 L 12.71875 15.845703 C 12.67175 15.763703 12.684 15.661703 12.75 15.595703 L 16.75 11.689453 L 17.6875 12.470703 L 15.125 15.158203 C 14.398 15.912203 14.38275 17.138203 15.09375 17.908203 L 16.625 19.597656 L 16.53125 20.941406 L 16.298828 23.828125 L 18.279297 24.244141 L 18.53125 21.097656 L 18.65625 19.283203 L 18.6875 18.878906 L 18.40625 18.533203 L 16.5625 16.564453 L 19.25 13.751953 L 23.625 17.408203 L 24.90625 15.845703 L 17.71875 9.90625 L 17.5625 9.75 L 17.34375 9.71875 L 12.84375 8.5625 L 10.53125 5.15625 z M 21 6 C 21.563 6 22 6.438 22 7 C 22 7.562 21.562 8 21 8 C 20.438 8 20 7.562 20 7 C 20 6.438 20.438 6 21 6 z M 4.8945312 21.552734 L 3.1054688 22.447266 L 3.2421875 22.720703 C 3.9281875 24.093703 5.1825937 25.061953 6.6835938 25.376953 L 22.429688 28.691406 C 22.767687 28.762406 23.110125 28.798828 23.453125 28.798828 C 24.227125 28.798828 24.999312 28.618531 25.695312 28.269531 L 26.447266 27.894531 L 25.552734 26.105469 L 24.800781 26.480469 C 24.198781 26.783469 23.502797 26.875375 22.841797 26.734375 L 7.0957031 23.419922 C 6.1957031 23.229922 5.44325 22.647219 5.03125 21.824219 L 4.8945312 21.552734 z"/></svg>