<svg xmlns="http://www.w3.org/2000/svg" viewBox="0 0 32 32"><path d="M 16 3 C 13.722656 3 11.65625 3.234375 10.09375 3.625 C 9.3125 3.820313 8.667969 4.054688 8.125 4.375 C 7.582031 4.695313 7 5.183594 7 6 L 7 8 C 7 8.011719 7 8.019531 7 8.03125 C 6.078125 8.269531 5.238281 8.523438 4.59375 8.875 C 4.179688 9.101563 3.824219 9.355469 3.53125 9.6875 C 3.238281 10.019531 3 10.492188 3 11 C 3 11.949219 3.695313 12.59375 4.4375 13.03125 C 4.847656 13.273438 5.339844 13.5 5.875 13.6875 C 5.3125 15.011719 5 16.476563 5 18 C 5 24.0625 9.9375 29 16 29 C 22.0625 29 27 24.0625 27 18 C 27 16.476563 26.6875 15.011719 26.125 13.6875 C 26.660156 13.5 27.152344 13.273438 27.5625 13.03125 C 28.304688 12.59375 29 11.949219 29 11 C 29 10.492188 28.761719 10.019531 28.46875 9.6875 C 28.175781 9.355469 27.820313 9.101563 27.40625 8.875 C 26.761719 8.523438 25.921875 8.269531 25 8.03125 C 25 8.019531 25 8.011719 25 8 L 25 6 C 25 5.183594 24.417969 4.695313 23.875 4.375 C 23.332031 4.054688 22.6875 3.820313 21.90625 3.625 C 20.34375 3.234375 18.277344 3 16 3 Z M 16 5 C 18.140625 5 20.074219 5.230469 21.40625 5.5625 C 22.070313 5.730469 22.609375 5.9375 22.875 6.09375 C 22.980469 6.15625 22.988281 6.179688 23 6.1875 L 23 7.8125 C 22.988281 7.820313 22.980469 7.84375 22.875 7.90625 C 22.609375 8.0625 22.070313 8.269531 21.40625 8.4375 C 20.074219 8.769531 18.140625 9 16 9 C 13.859375 9 11.925781 8.769531 10.59375 8.4375 C 9.929688 8.269531 9.390625 8.0625 9.125 7.90625 C 9.019531 7.84375 9.011719 7.820313 9 7.8125 L 9 6.1875 C 9.011719 6.179688 9.019531 6.15625 9.125 6.09375 C 9.390625 5.9375 9.929688 5.730469 10.59375 5.5625 C 11.925781 5.230469 13.859375 5 16 5 Z M 8.28125 9.6875 C 8.792969 9.96875 9.378906 10.195313 10.09375 10.375 C 11.65625 10.765625 13.722656 11 16 11 C 18.277344 11 20.34375 10.765625 21.90625 10.375 C 22.617188 10.195313 23.207031 9.996094 23.71875 9.71875 C 23.738281 9.71875 23.761719 9.71875 23.78125 9.71875 C 24.953125 9.980469 25.878906 10.320313 26.4375 10.625 C 26.714844 10.777344 26.894531 10.917969 26.96875 11 C 26.945313 11.035156 26.855469 11.140625 26.5625 11.3125 C 26.089844 11.589844 25.277344 11.898438 24.25 12.15625 C 22.191406 12.671875 19.246094 13 16 13 C 12.753906 13 9.808594 12.671875 7.75 12.15625 C 6.722656 11.898438 5.910156 11.589844 5.4375 11.3125 C 5.144531 11.140625 5.054688 11.035156 5.03125 11 C 5.105469 10.917969 5.285156 10.777344 5.5625 10.625 C 6.121094 10.320313 7.046875 9.980469 8.21875 9.71875 C 8.238281 9.710938 8.261719 9.699219 8.28125 9.6875 Z M 7.875 14.21875 C 10.089844 14.707031 12.890625 15 16 15 C 19.109375 15 21.910156 14.707031 24.125 14.21875 C 24.664063 15.371094 25 16.640625 25 18 C 25 18.566406 24.941406 19.117188 24.84375 19.65625 L 23.375 19.0625 C 23.375 19.0625 22.132813 18.570313 20.75 18.0625 C 20.058594 17.808594 19.332031 17.539063 18.6875 17.34375 C 18.042969 17.148438 17.578125 17 17 17 C 15.355469 17 14 18.355469 14 20 C 14 21.644531 15.355469 23 17 23 C 17.578125 23 18.042969 22.851563 18.6875 22.65625 C 19.332031 22.460938 20.058594 22.191406 20.75 21.9375 C 22.132813 21.429688 23.375 20.9375 23.375 20.9375 L 24.65625 20.40625 C 23.605469 24.214844 20.148438 27 16 27 C 11.015625 27 7 22.984375 7 18 C 7 16.644531 7.335938 15.371094 7.875 14.21875 Z M 13 15 C 12.449219 15 12 15.449219 12 16 C 12 16.550781 12.449219 17 13 17 C 13.550781 17 14 16.550781 14 16 C 14 15.449219 13.550781 15 13 15 Z M 20 15 C 19.449219 15 19 15.449219 19 16 C 19 16.550781 19.449219 17 20 17 C 20.550781 17 21 16.550781 21 16 C 21 15.449219 20.550781 15 20 15 Z M 17 19 C 16.972656 19 17.539063 19.101563 18.125 19.28125 C 18.710938 19.460938 19.390625 19.691406 20.0625 19.9375 C 20.144531 19.96875 20.136719 19.96875 20.21875 20 C 20.136719 20.03125 20.144531 20.03125 20.0625 20.0625 C 19.390625 20.308594 18.710938 20.539063 18.125 20.71875 C 17.539063 20.898438 16.972656 21 17 21 C 16.433594 21 16 20.566406 16 20 C 16 19.433594 16.433594 19 17 19 Z M 14.1875 22.84375 L 12.75 24.25 C 15.085938 26.585938 18.914063 26.585938 21.25 24.25 L 19.84375 22.84375 C 18.273438 24.414063 15.757813 24.414063 14.1875 22.84375 Z"/></svg>