<svg xmlns="http://www.w3.org/2000/svg" viewBox="0 0 32 32"><path d="M 16.054688 4.0058594 C 15.925063 3.9871094 15.756859 4.0139688 15.568359 4.1679688 L 6.1640625 11.742188 C 5.9730625 11.892188 5.946375 12.1495 6.109375 12.3125 L 8.0332031 14.261719 L 15.841797 21.978516 C 16.009797 22.142516 16.301188 22.152047 16.492188 21.998047 L 18.775391 20.185547 L 18.761719 20.171875 L 19.111328 19.890625 C 19.302328 19.740625 19.320344 19.483313 19.152344 19.320312 L 16.554688 16.777344 C 16.390687 16.613344 16.099203 16.605859 15.908203 16.755859 L 15.904297 16.759766 C 15.713297 16.909766 15.426813 16.904234 15.257812 16.740234 L 10.955078 12.449219 C 10.791078 12.285219 10.814859 12.034859 11.005859 11.880859 L 15.199219 8.5371094 C 15.385219 8.3871094 15.668031 8.3975469 15.832031 8.5605469 L 23.126953 15.992188 C 23.294953 16.156188 23.581578 16.165625 23.767578 16.015625 L 25.849609 14.34375 C 26.036609 14.19375 26.051813 13.936437 25.882812 13.773438 L 16.310547 4.1152344 C 16.276547 4.0872344 16.184312 4.0246094 16.054688 4.0058594 z M 15.492188 9.8476562 C 15.378438 9.8436563 15.261469 9.878125 15.167969 9.953125 L 12.5625 11.992188 C 12.3715 12.142188 12.352719 12.3995 12.511719 12.5625 L 15.609375 15.566406 C 15.773375 15.730406 16.059094 15.739844 16.246094 15.589844 L 16.251953 15.585938 C 16.437953 15.435937 16.724672 15.444422 16.888672 15.607422 L 20.707031 19.408203 C 20.871031 19.572203 20.854969 19.829516 20.667969 19.978516 L 16.429688 23.4375 C 16.238688 23.5915 15.952203 23.581969 15.783203 23.417969 L 8.875 16.523438 C 8.716 16.359437 8.4331875 16.351953 8.2421875 16.501953 L 6.1601562 18.132812 C 5.9691563 18.282812 5.9464687 18.540125 6.1054688 18.703125 L 15.595703 27.869141 C 15.595703 27.869141 15.932813 28.187031 16.382812 27.832031 L 25.386719 20.171875 C 25.568719 20.021875 25.585969 19.764563 25.417969 19.601562 L 23.404297 17.671875 L 15.796875 9.9765625 C 15.717375 9.8945625 15.605937 9.8516562 15.492188 9.8476562 z"/></svg>