<svg xmlns="http://www.w3.org/2000/svg" viewBox="0 0 32 32"><path d="M 7 4 C 6.210938 4 5.542969 4.460938 5.21875 5.125 C 3.953125 5.476563 3 6.628906 3 8 L 3 17.375 L 3.25 17.65625 C 3.25 17.65625 5.605469 20.414063 9 20.90625 L 9 23 C 9 26.300781 11.699219 29 15 29 C 18.300781 29 21 26.300781 21 23 L 21 18 C 21 16.882813 21.882813 16 23 16 C 24.117188 16 25 16.882813 25 18 L 25 18.1875 C 23.84375 18.605469 23 19.707031 23 21 C 23 22.644531 24.355469 24 26 24 C 27.644531 24 29 22.644531 29 21 C 29 19.707031 28.15625 18.605469 27 18.1875 L 27 18 C 27 15.800781 25.199219 14 23 14 C 20.800781 14 19 15.800781 19 18 L 19 23 C 19 25.21875 17.21875 27 15 27 C 12.78125 27 11 25.21875 11 23 L 11 20.90625 C 14.394531 20.414063 16.75 17.65625 16.75 17.65625 L 17 17.375 L 17 8 C 17 6.628906 16.046875 5.476563 14.78125 5.125 C 14.457031 4.460938 13.789063 4 13 4 C 11.894531 4 11 4.894531 11 6 C 11 7.105469 11.894531 8 13 8 C 13.65625 8 14.230469 7.679688 14.59375 7.1875 C 14.84375 7.367188 15 7.660156 15 8 L 15 16.5625 C 14.640625 16.925781 12.511719 19 10 19 C 7.488281 19 5.359375 16.925781 5 16.5625 L 5 8 C 5 7.660156 5.15625 7.367188 5.40625 7.1875 C 5.769531 7.679688 6.34375 8 7 8 C 8.105469 8 9 7.105469 9 6 C 9 4.894531 8.105469 4 7 4 Z M 26 20 C 26.5625 20 27 20.4375 27 21 C 27 21.5625 26.5625 22 26 22 C 25.4375 22 25 21.5625 25 21 C 25 20.4375 25.4375 20 26 20 Z"/></svg>