<svg xmlns="http://www.w3.org/2000/svg" viewBox="0 0 32 32"><path d="M 24.96875 3 C 23.34375 3 22 4.34375 22 5.96875 L 22 6 L 24 6 L 24 5.96875 C 24 5.421875 24.421875 5 24.96875 5 L 25.03125 5 C 25.578125 5 26 5.421875 26 5.96875 C 26 6.285156 25.855469 6.570313 25.59375 6.75 L 23.46875 8.21875 C 22.554688 8.847656 22 9.890625 22 11 L 22 12 L 28 12 L 28 10 L 24.53125 10 C 24.570313 9.96875 24.550781 9.902344 24.59375 9.875 L 26.71875 8.40625 C 27.523438 7.851563 28 6.945313 28 5.96875 C 28 4.34375 26.65625 3 25.03125 3 Z M 4.15625 8 L 5.15625 9.53125 L 9.3125 16 L 5.15625 22.46875 L 4.15625 24 L 10.53125 24 L 10.84375 23.53125 L 12.5 20.96875 L 14.15625 23.53125 L 14.46875 24 L 20.84375 24 L 19.84375 22.46875 L 15.6875 16 L 19.84375 9.53125 L 20.84375 8 L 14.46875 8 L 14.15625 8.46875 L 12.5 11.03125 L 10.84375 8.46875 L 10.53125 8 Z M 7.8125 10 L 9.46875 10 L 11.65625 13.4375 L 12.5 14.75 L 13.34375 13.4375 L 15.53125 10 L 17.1875 10 L 13.65625 15.46875 L 13.3125 16 L 13.65625 16.53125 L 17.1875 22 L 15.53125 22 L 13.34375 18.5625 L 12.5 17.25 L 11.65625 18.5625 L 9.46875 22 L 7.8125 22 L 11.34375 16.53125 L 11.6875 16 L 11.34375 15.46875 Z"/></svg>