<svg xmlns="http://www.w3.org/2000/svg" viewBox="0 0 32 32"><path d="M 12.199219 9 C 5.5392188 9.02 0.15039062 11.599297 0.15039062 14.779297 C 0.16039062 16.679297 2.02 18.360391 5 19.400391 C 3.4 18.330391 2.5195312 16.989062 2.5195312 15.539062 C 2.5095312 12.059062 7.9005469 9.2307031 14.560547 9.2207031 C 14.960547 9.2207031 15.340703 9.2302344 15.720703 9.2402344 C 14.600703 9.0802344 13.419219 9 12.199219 9 z M 27 12.630859 C 28.59 13.690859 29.480469 15.030234 29.480469 16.490234 C 29.480469 19.960234 24.089688 22.779297 17.429688 22.779297 C 17.039688 22.779297 16.649531 22.77 16.269531 22.75 C 17.379531 22.91 18.559062 23 19.789062 23 C 26.449063 23 31.849609 20.42 31.849609 17.25 C 31.849609 15.35 29.97 13.670859 27 12.630859 z M 7.8457031 14.001953 C 7.1007031 14.001953 6.5644531 14.464797 6.5644531 15.091797 C 6.5644531 16.281797 8.3710938 16.235859 8.3710938 16.880859 C 8.3710938 17.180859 8.1093594 17.335938 7.8183594 17.335938 C 7.2823594 17.335938 6.8828125 16.880859 6.8828125 16.880859 L 6.4921875 17.369141 C 6.4921875 17.369141 6.9635938 17.970703 7.8085938 17.970703 C 8.6075937 17.970703 9.0800781 17.451984 9.0800781 16.833984 C 9.0800781 15.580984 7.2734375 15.708688 7.2734375 15.054688 C 7.2734375 14.809688 7.5179375 14.644531 7.8359375 14.644531 C 8.0899375 14.644531 8.3457031 14.762547 8.3457031 14.935547 L 8.3457031 15.117188 L 8.9804688 15.117188 L 8.9804688 14.763672 C 8.9804688 14.218672 8.2917031 14.001953 7.8457031 14.001953 z M 22.517578 14.054688 L 22.517578 14.664062 L 22.871094 14.664062 L 22.871094 17.535156 C 22.871094 17.798156 22.979188 17.90625 23.242188 17.90625 L 24.978516 17.90625 C 25.241516 17.90625 25.349609 17.798156 25.349609 17.535156 L 25.349609 16.953125 L 24.705078 16.953125 L 24.705078 17.179688 C 24.705078 17.261688 24.660891 17.296875 24.587891 17.296875 L 23.707031 17.296875 C 23.625031 17.296875 23.589844 17.252688 23.589844 17.179688 L 23.589844 16.271484 L 24.833984 16.271484 L 24.833984 15.671875 L 23.589844 15.671875 L 23.589844 14.662109 L 24.451172 14.662109 C 24.524172 14.662109 24.570312 14.70825 24.570312 14.78125 L 24.570312 15.007812 L 25.205078 15.007812 L 25.205078 14.427734 C 25.205078 14.173734 25.09775 14.054687 24.84375 14.054688 L 22.517578 14.054688 z M 19.673828 14.0625 L 19.673828 14.662109 L 19.910156 14.662109 C 19.983156 14.662109 20.027344 14.70825 20.027344 14.78125 L 20.027344 17.533203 L 20.019531 17.533203 C 20.019531 17.796203 20.127625 17.90625 20.390625 17.90625 L 22.080078 17.90625 C 22.343078 17.90625 22.453125 17.796203 22.453125 17.533203 L 22.453125 16.953125 L 21.808594 16.953125 L 21.808594 17.179688 C 21.808594 17.261688 21.762453 17.296875 21.689453 17.296875 L 20.853516 17.296875 C 20.771516 17.296875 20.736328 17.252688 20.736328 17.179688 L 20.736328 14.425781 C 20.736328 14.171781 20.626281 14.0625 20.363281 14.0625 L 19.673828 14.0625 z M 9.6074219 14.064453 L 9.6074219 16.535156 C 9.6074219 17.389156 10.217 17.970703 11.125 17.970703 C 12.033 17.970703 12.632812 17.389156 12.632812 16.535156 L 12.632812 14.064453 L 11.923828 14.064453 L 11.923828 16.507812 C 11.923828 17.016813 11.606 17.306641 11.125 17.306641 C 10.644 17.306641 10.326172 17.016578 10.326172 16.517578 L 10.326172 14.064453 L 9.6074219 14.064453 z M 13.123047 14.064453 L 13.123047 14.664062 L 13.46875 14.664062 L 13.46875 17.90625 L 14.177734 17.90625 L 14.177734 16.580078 L 14.876953 16.580078 C 15.594953 16.580078 16.103516 16.062594 16.103516 15.308594 C 16.103516 14.563594 15.594953 14.064453 14.876953 14.064453 L 13.123047 14.064453 z M 16.394531 14.064453 L 16.394531 14.664062 L 16.748047 14.664062 L 16.748047 17.90625 L 17.457031 17.90625 L 17.457031 16.580078 L 18.15625 16.580078 C 18.87425 16.580078 19.373047 16.062594 19.373047 15.308594 C 19.373047 14.563594 18.87425 14.064453 18.15625 14.064453 L 16.394531 14.064453 z M 25.40625 14.064453 L 25.40625 14.119141 L 25.523438 14.119141 L 25.523438 14.382812 L 25.597656 14.382812 L 25.597656 14.119141 L 25.714844 14.119141 L 25.714844 14.064453 L 25.40625 14.064453 z M 25.777344 14.064453 L 25.777344 14.382812 L 25.851562 14.382812 L 25.851562 14.128906 L 25.951172 14.382812 L 26.005859 14.382812 L 26.115234 14.128906 L 26.115234 14.382812 L 26.179688 14.382812 L 26.179688 14.064453 L 26.078125 14.064453 L 25.978516 14.291016 L 25.886719 14.064453 L 25.777344 14.064453 z M 14.177734 14.662109 L 14.759766 14.662109 C 15.150766 14.662109 15.376953 14.917594 15.376953 15.308594 C 15.376953 15.708594 15.149 15.970703 14.75 15.970703 L 14.177734 15.970703 L 14.177734 14.662109 z M 17.447266 14.662109 L 18.029297 14.662109 C 18.420297 14.662109 18.646484 14.917594 18.646484 15.308594 C 18.646484 15.708594 18.419531 15.970703 18.019531 15.970703 L 17.447266 15.970703 L 17.447266 14.662109 z"/></svg>