<svg xmlns="http://www.w3.org/2000/svg" viewBox="0 0 32 32"><path d="M 13 5 L 13 16 C 11.261719 17.050781 10 18.828125 10 21 C 10 24.300781 12.699219 27 16 27 C 19.300781 27 22 24.300781 22 21 C 22 18.828125 20.738281 17.050781 19 16 L 19 15 L 21 15 L 21 13 L 19 13 L 19 11 L 21 11 L 21 9 L 19 9 L 19 7 L 21 7 L 21 5 Z M 15 7 L 17 7 L 17 17.0625 L 17.59375 17.34375 C 19.003906 17.960938 20 19.351563 20 21 C 20 23.21875 18.21875 25 16 25 C 13.78125 25 12 23.21875 12 21 C 12 19.351563 12.996094 17.960938 14.40625 17.34375 L 15 17.0625 Z"/></svg>