<svg xmlns="http://www.w3.org/2000/svg" viewBox="0 0 32 32"><path d="M 3.7207031 2.2792969 L 2.2792969 3.7207031 L 10.060547 11.5 L 11.509766 12.949219 L 21.660156 23.099609 L 23.089844 24.529297 L 28.279297 29.720703 L 29.720703 28.279297 L 24.181641 22.740234 C 24.707029 21.59912 25 20.333119 25 19 C 25 17.6 24.440156 16.08 23.660156 14.5 C 22.870156 12.92 21.830547 11.279297 20.810547 9.7792969 C 18.780547 6.7792969 16.779297 4.3808594 16.779297 4.3808594 L 16 3.4394531 L 15.220703 4.3808594 C 15.220703 4.3808594 13.228612 6.7707729 11.203125 9.7617188 L 3.7207031 2.2792969 z M 16 6.6601562 C 16.56 7.3501562 17.609453 8.5701562 19.189453 10.910156 C 20.169453 12.360156 21.129844 13.950156 21.839844 15.410156 C 22.559844 16.860156 23 18.2 23 19 C 23 19.767816 22.8742 20.508983 22.642578 21.201172 L 12.630859 11.189453 C 12.691523 11.097775 12.75013 11.000781 12.810547 10.910156 C 14.390547 8.5701563 15.44 7.3501563 16 6.6601562 z M 9.0292969 13.220703 C 8.7792969 13.650703 8.5498437 14.08 8.3398438 14.5 C 7.5598437 16.08 7 17.6 7 19 C 7 23.95 11.05 28 16 28 C 18.18 28 20.170234 27.219687 21.740234 25.929688 L 20.300781 24.490234 C 19.110781 25.440234 17.61 26 16 26 C 12.15 26 9 22.85 9 19 C 9 18.2 9.4401562 16.860156 10.160156 15.410156 C 10.270156 15.180156 10.389531 14.950938 10.519531 14.710938 L 9.0292969 13.220703 z M 11 19 C 11 19.34375 11.034668 19.679199 11.101562 20.003906 C 11.168457 20.328613 11.267578 20.642578 11.394531 20.941406 C 11.648438 21.539062 12.015625 22.078125 12.46875 22.53125 C 12.921875 22.984375 13.460938 23.351562 14.058594 23.605469 C 14.357422 23.732422 14.671387 23.831543 14.996094 23.898438 C 15.158447 23.931885 15.322693 23.957458 15.490234 23.974609 C 15.657776 23.99176 15.828125 24 16 24 L 16 22 C 15.79375 22 15.591309 21.97959 15.396484 21.939453 C 15.20166 21.899316 15.015234 21.839844 14.835938 21.763672 C 14.656641 21.6875 14.48584 21.594434 14.326172 21.486328 C 14.166504 21.378223 14.016797 21.255078 13.880859 21.119141 C 13.744922 20.983203 13.621777 20.833496 13.513672 20.673828 C 13.405566 20.51416 13.3125 20.343359 13.236328 20.164062 C 13.160156 19.984766 13.100684 19.79834 13.060547 19.603516 C 13.02041 19.408691 13 19.20625 13 19 L 11 19 z"/></svg>