<svg xmlns="http://www.w3.org/2000/svg" viewBox="0 0 32 32"><path d="M 9 4 C 7.390625 4 6.105469 5.175781 5.28125 6.71875 C 4.457031 8.261719 4 10.285156 4 12.5 L 4 28 L 20 28 L 20 19.375 C 20.78125 20.339844 21.804688 21 23 21 C 24.609375 21 25.894531 19.824219 26.71875 18.28125 C 27.542969 16.738281 28 14.714844 28 12.5 C 28 10.285156 27.542969 8.261719 26.71875 6.71875 C 25.894531 5.175781 24.609375 4 23 4 Z M 9 6 L 19.71875 6 C 19.5625 6.226563 19.414063 6.46875 19.28125 6.71875 C 18.457031 8.261719 18 10.285156 18 12.5 C 18 12.671875 18.027344 12.832031 18.03125 13 L 18 13 L 18 26 L 6 26 L 6 12.5 C 6 10.574219 6.4375 8.828125 7.0625 7.65625 C 7.6875 6.484375 8.402344 6 9 6 Z M 23 6 C 23.597656 6 24.3125 6.484375 24.9375 7.65625 C 25.5625 8.828125 26 10.574219 26 12.5 C 26 14.425781 25.5625 16.171875 24.9375 17.34375 C 24.3125 18.515625 23.597656 19 23 19 C 22.402344 19 21.6875 18.515625 21.0625 17.34375 C 20.4375 16.171875 20 14.425781 20 12.5 C 20 10.574219 20.4375 8.828125 21.0625 7.65625 C 21.6875 6.484375 22.402344 6 23 6 Z M 23 10 C 22.449219 10 22 11.121094 22 12.5 C 22 13.878906 22.449219 15 23 15 C 23.550781 15 24 13.878906 24 12.5 C 24 11.121094 23.550781 10 23 10 Z M 9 13 C 8.449219 13 8 13.449219 8 14 C 8 14.550781 8.449219 15 9 15 C 9.550781 15 10 14.550781 10 14 C 10 13.449219 9.550781 13 9 13 Z M 12 13 C 11.449219 13 11 13.449219 11 14 C 11 14.550781 11.449219 15 12 15 C 12.550781 15 13 14.550781 13 14 C 13 13.449219 12.550781 13 12 13 Z M 15 13 C 14.449219 13 14 13.449219 14 14 C 14 14.550781 14.449219 15 15 15 C 15.550781 15 16 14.550781 16 14 C 16 13.449219 15.550781 13 15 13 Z"/></svg>