<svg xmlns="http://www.w3.org/2000/svg" viewBox="0 0 32 32"><path d="M 15 4 C 14.478 4 13.9405 4.1845 13.5625 4.5625 C 13.1855 4.9395 13 5.478 13 6 L 13 7 L 7 7 L 7 9 L 8 9 L 8 25 C 8 26.645 9.355 28 11 28 L 23 28 C 24.645 28 26 26.645 26 25 L 26 9 L 27 9 L 27 7 L 21 7 L 21 6 C 21 5.478 20.8155 4.9405 20.4375 4.5625 C 20.0605 4.1855 19.522 4 19 4 L 15 4 z M 15 6 L 19 6 L 19 7 L 15 7 L 15 6 z M 10 9 L 24 9 L 24 25 C 24 25.555 23.555 26 23 26 L 11 26 C 10.445 26 10 25.555 10 25 L 10 9 z M 17 12 L 13 16 L 16 16 L 16 23 L 18 23 L 18 16 L 21 16 L 17 12 z"/></svg>