<svg xmlns="http://www.w3.org/2000/svg" viewBox="0 0 32 32"><path d="M 14 4 C 12.897 4 12 4.897 12 6 L 12 10 L 6 10 C 4.346 10 3 11.346 3 13 L 3 15.820312 C 1.7697533 17.003707 1 18.662313 1 20.5 C 1 24.084 3.916 27 7.5 27 C 11.084 27 14 24.084 14 20.5 C 14 19.983217 13.932874 19.482266 13.818359 19 L 18.181641 19 C 18.067126 19.482266 18 19.983217 18 20.5 C 18 24.084 20.916 27 24.5 27 C 28.084 27 31 24.084 31 20.5 C 31 18.662313 30.230247 17.003707 29 15.820312 L 29 12 C 29 10.897 28.103 10 27 10 L 24 10 L 23.535156 10 L 20.722656 5.78125 C 19.979656 4.66625 18.735531 4 17.394531 4 L 14 4 z M 14 6 L 17.394531 6 C 18.063531 6 18.686594 6.332625 19.058594 6.890625 L 21.130859 10 L 14 10 L 14 6 z M 6 12 L 14 12 L 24 12 L 27 12 L 27 14.501953 C 26.229783 14.179677 25.385752 14 24.5 14 C 22.205167 14 20.188218 15.199104 19.03125 17 L 12.96875 17 C 11.811782 15.199104 9.7948334 14 7.5 14 C 6.6142485 14 5.7702173 14.179677 5 14.501953 L 5 13 C 5 12.448 5.448 12 6 12 z M 7.5 16 C 7.6730928 16 7.8377929 16.031655 8.0058594 16.050781 L 7.953125 16.527344 C 8.511125 16.588344 9.0403906 16.764781 9.5253906 17.050781 L 9.7695312 16.636719 C 10.580716 17.115375 11.235151 17.828721 11.617188 18.697266 L 11.166016 18.896484 C 11.388016 19.401484 11.5 19.941 11.5 20.5 L 11.5 20.525391 L 11.998047 20.513672 C 11.994995 21.503886 11.662293 22.411623 11.115234 23.154297 L 10.724609 22.867188 C 10.396609 23.314187 9.9683281 23.696656 9.4863281 23.972656 L 9.7246094 24.388672 C 9.065693 24.76737 8.3128623 25 7.5 25 C 7.3355748 25 7.1794448 24.968454 7.0195312 24.951172 L 7.0683594 24.476562 C 6.5103594 24.417562 5.9791875 24.243938 5.4921875 23.960938 L 5.2519531 24.375 C 4.4379643 23.900632 3.7811799 23.190284 3.3945312 22.324219 L 3.84375 22.125 C 3.61475 21.612 3.4990469 21.065391 3.4980469 20.525391 L 3.5019531 20.445312 L 3.0019531 20.472656 C 3.0080381 19.478354 3.3484011 18.569114 3.9023438 17.826172 L 4.2890625 18.115234 C 4.6200625 17.669234 5.0502031 17.289625 5.5332031 17.015625 L 5.2988281 16.599609 C 5.9525373 16.228948 6.6964767 16 7.5 16 z M 24.5 16 C 25.303523 16 26.047463 16.228948 26.701172 16.599609 L 26.466797 17.015625 C 26.949797 17.289625 27.379938 17.669234 27.710938 18.115234 L 28.097656 17.826172 C 28.651967 18.569608 28.992389 19.479547 28.998047 20.474609 L 28.5 20.5 C 28.5 21.066 28.38525 21.612 28.15625 22.125 L 28.605469 22.324219 C 28.218586 23.190809 27.560773 23.900645 26.746094 24.375 L 26.505859 23.960938 C 26.018859 24.244938 25.488688 24.417562 24.929688 24.476562 L 24.978516 24.951172 C 24.819226 24.968317 24.663764 25 24.5 25 C 23.687138 25 22.934307 24.76737 22.275391 24.388672 L 22.513672 23.972656 C 22.031672 23.696656 21.603391 23.312234 21.275391 22.865234 L 20.884766 23.152344 C 20.337883 22.409389 20.004576 21.502154 20.001953 20.511719 L 20.5 20.5 C 20.5 19.941 20.611984 19.401484 20.833984 18.896484 L 20.382812 18.697266 C 20.764849 17.828721 21.419284 17.115375 22.230469 16.636719 L 22.474609 17.050781 C 22.959609 16.764781 23.487875 16.588344 24.046875 16.527344 L 23.994141 16.050781 C 24.162207 16.031655 24.326907 16 24.5 16 z M 7.5 19 A 1.5 1.5 0 0 0 7.5 22 A 1.5 1.5 0 0 0 7.5 19 z M 24.5 19 A 1.5 1.5 0 0 0 24.5 22 A 1.5 1.5 0 0 0 24.5 19 z"/></svg>