<svg xmlns="http://www.w3.org/2000/svg" viewBox="0 0 32 32"><path d="M 16 4 C 12.105469 4 8.808594 4.714844 6.59375 5.375 C 4.472656 6.003906 3 7.96875 3 10.1875 L 3 13 C 3 14.09375 3.90625 15 5 15 L 9 15 C 10.09375 15 11 14.09375 11 13 L 11 10.375 C 11.1875 10.289063 11.226563 10.253906 11.78125 10.09375 C 12.691406 9.828125 14.082031 9.5625 16 9.5625 C 17.917969 9.5625 19.308594 9.828125 20.21875 10.09375 C 20.773438 10.253906 20.8125 10.289063 21 10.375 L 21 13 C 21 14.09375 21.90625 15 23 15 L 27 15 C 28.09375 15 29 14.09375 29 13 L 29 10.1875 C 29 7.96875 27.527344 6.007813 25.40625 5.375 C 23.191406 4.71875 19.894531 4 16 4 Z M 16 6 C 19.648438 6 22.769531 6.664063 24.84375 7.28125 C 26.136719 7.664063 27 8.847656 27 10.1875 L 27 13 L 23 13 L 23 9.125 L 22.5 8.84375 C 22.5 8.84375 21.863281 8.472656 20.78125 8.15625 C 19.699219 7.839844 18.109375 7.5625 16 7.5625 C 13.890625 7.5625 12.300781 7.839844 11.21875 8.15625 C 10.136719 8.472656 9.5 8.84375 9.5 8.84375 L 9 9.125 L 9 13 L 5 13 L 5 10.1875 C 5 8.847656 5.863281 7.664063 7.15625 7.28125 C 9.230469 6.664063 12.351563 6 16 6 Z M 10 17 C 8.894531 17 8 17.894531 8 19 C 8 20.105469 8.894531 21 10 21 C 11.105469 21 12 20.105469 12 19 C 12 17.894531 11.105469 17 10 17 Z M 16 17 C 14.894531 17 14 17.894531 14 19 C 14 20.105469 14.894531 21 16 21 C 17.105469 21 18 20.105469 18 19 C 18 17.894531 17.105469 17 16 17 Z M 22 17 C 20.894531 17 20 17.894531 20 19 C 20 20.105469 20.894531 21 22 21 C 23.105469 21 24 20.105469 24 19 C 24 17.894531 23.105469 17 22 17 Z M 10 23 C 8.894531 23 8 23.894531 8 25 C 8 26.105469 8.894531 27 10 27 C 11.105469 27 12 26.105469 12 25 C 12 23.894531 11.105469 23 10 23 Z M 16 23 C 14.894531 23 14 23.894531 14 25 C 14 26.105469 14.894531 27 16 27 C 17.105469 27 18 26.105469 18 25 C 18 23.894531 17.105469 23 16 23 Z M 22 23 C 20.894531 23 20 23.894531 20 25 C 20 26.105469 20.894531 27 22 27 C 23.105469 27 24 26.105469 24 25 C 24 23.894531 23.105469 23 22 23 Z"/></svg>