<svg xmlns="http://www.w3.org/2000/svg" viewBox="0 0 32 32"><path d="M 18.199219 5.3007812 C 18.099219 5.3007813 18.099609 5.4 18.099609 5.5 L 18.099609 5.6992188 C 18.099609 5.8992188 17.900781 5.9003906 17.800781 5.9003906 C 17.700781 5.9003906 17.699219 5.9992187 17.699219 6.1992188 C 12.399219 11.599219 12.8 11.699609 12 12.099609 L 10.800781 12.800781 C 10.300781 13.000781 9.8996094 13.400781 9.5996094 13.800781 L 3.3007812 22.599609 C 3.0007813 22.999609 2.8992187 23.599609 3.1992188 24.099609 C 3.8992187 25.599609 5.4992187 26.8 7.1992188 27 C 7.6992187 27 8.2 26.800391 8.5 26.400391 L 14.800781 17.599609 C 15.100781 17.199609 15.300391 16.699219 15.400391 16.199219 L 15.599609 14.800781 C 15.699609 13.900781 15.900781 14.2 19.300781 7.5 C 19.500781 7.3 19.599609 7.2992187 19.599609 7.1992188 C 19.599609 7.0992187 19.599219 6.9003906 19.699219 6.9003906 L 19.900391 6.9003906 C 20.000391 6.9003906 20 6.7992187 20 6.6992188 C 19.9 6.5992187 19.800781 6.1992187 19.300781 5.6992188 C 18.800781 5.2992188 18.399219 5.3007812 18.199219 5.3007812 z M 13.900391 5.4003906 C 13.700391 5.4003906 13.300781 5.4007812 12.800781 5.8007812 C 12.300781 6.2007813 12.099609 6.4992188 12.099609 6.6992188 C 11.999609 6.7992187 11.999609 6.9003906 12.099609 6.9003906 L 12.300781 6.9003906 C 12.400781 6.9003906 12.400391 7.0992187 12.400391 7.1992188 C 12.400391 7.2992187 12.499219 7.3 12.699219 7.5 C 12.999219 8.2 13.399609 8.8003906 13.599609 9.4003906 C 14.099609 8.9003906 14.7 8.2003906 15.5 7.4003906 C 15.2 7.0003906 14.800391 6.7007813 14.400391 6.3007812 C 14.400391 6.1007812 14.400781 6 14.300781 6 C 14.200781 6 14 6.0007813 14 5.8007812 L 14 5.5996094 C 14 5.4996094 14.000391 5.4003906 13.900391 5.4003906 z M 18.5 10.599609 C 17.7 12.199609 17.100781 13.199219 16.800781 13.699219 C 16.400781 14.499219 16.300781 14.500781 16.300781 14.800781 L 16.5 16.099609 C 16.6 16.599609 16.799609 17.1 17.099609 17.5 L 23.400391 26.300781 C 23.700391 26.700781 24.300781 27.000391 24.800781 26.900391 C 26.500781 26.700391 28.100781 25.5 28.800781 24 C 29.100781 23.6 28.999219 22.999609 28.699219 22.599609 L 22.400391 13.800781 C 22.100391 13.400781 21.699219 13.000781 21.199219 12.800781 L 20 12.099609 C 19.6 11.899609 19.5 11.699609 18.5 10.599609 z"/></svg>