<svg xmlns="http://www.w3.org/2000/svg" viewBox="0 0 32 32"><path d="M 3.6992188 2.3007812 L 2.3007812 3.6992188 L 9.1210938 10.519531 C 9.1148472 10.54659 9.1055539 10.572434 9.0996094 10.599609 L 11 12.5 L 11 12.398438 L 15.601562 17 L 15.5 17 L 17.699219 19.199219 C 17.749353 19.210917 17.795909 19.231553 17.845703 19.244141 L 23.660156 25.058594 C 23.670754 25.106568 23.68955 25.150877 23.699219 25.199219 L 25.5 27 L 25.601562 27 L 28.300781 29.699219 L 29.699219 28.300781 L 25.59375 24.195312 C 24.75029 21.314801 22.648326 18.945754 19.900391 17.800781 C 21.800391 16.500781 23 14.4 23 12 C 23 8.1 19.9 5 16 5 C 13.390973 5 11.146509 6.4199607 9.921875 8.5234375 L 3.6992188 2.3007812 z M 16 7 C 18.8 7 21 9.2 21 12 C 21 14.086994 19.776043 15.83791 17.994141 16.595703 L 11.404297 10.005859 C 12.16209 8.2239568 13.913006 7 16 7 z M 9.0996094 13.300781 C 9.4996094 15.200781 10.499609 16.800781 12.099609 17.800781 C 8.4996094 19.300781 6 22.9 6 27 L 8 27 C 8 22.9 11.000391 19.599609 14.900391 19.099609 L 9.0996094 13.300781 z"/></svg>