<svg xmlns="http://www.w3.org/2000/svg" viewBox="0 0 32 32"><path d="M 16 4 C 11 4 7 8 7 13 C 6.7 13 6.3992187 13.200391 6.1992188 13.400391 C 5.9992187 13.700391 5.8996094 14.000781 6.0996094 14.300781 L 7.0996094 17.300781 C 7.1996094 17.700781 7.6 18 8 18 L 8.5019531 18 C 8.6934243 18.287936 8.9024028 18.561259 9.125 18.824219 C 9.4333527 19.300485 9.7986033 19.733713 10.210938 20.119141 C 8.1940429 21.813606 7 24.331156 7 27 L 9 27 C 9 24.730346 10.080184 22.634321 11.923828 21.292969 C 12.850819 21.741723 13.890597 22 15 22 L 17 22 C 18.095309 22 19.122858 21.748627 20.041016 21.310547 C 21.864749 22.597658 23 24.754796 23 27 L 25 27 C 25 24.344858 23.814896 21.840765 21.759766 20.146484 C 22.184158 19.754358 22.559346 19.311762 22.875 18.824219 C 23.097597 18.561259 23.306576 18.287936 23.498047 18 L 24 18 C 24.4 18 24.800391 17.700781 24.900391 17.300781 L 25.900391 14.300781 C 26.100391 14.000781 26.000781 13.700391 25.800781 13.400391 C 25.600781 13.200391 25.3 13 25 13 C 25 8 21 4 16 4 z M 16 6 C 19.51733 6 22.375612 8.5250883 22.904297 11.880859 C 21.99491 10.737076 20.604519 10 19 10 L 13 10 C 11.395481 10 10.00509 10.737076 9.0957031 11.880859 C 9.6243877 8.5250883 12.48267 6 16 6 z M 13 12 L 19 12 C 20.7 12 22 13.3 22 15 C 22 15.715213 21.854168 16.389748 21.59375 17 L 17 17 C 16.4 17 16 17.5 16 18 C 16 18.6 16.5 19 17 19 L 19.619141 19 C 18.56546 19.631503 17.331902 20 16 20 C 13.899415 20 12.036806 19.095505 10.759766 17.65625 C 10.284332 16.889096 10 15.985644 10 15 C 10 13.3 11.3 12 13 12 z"/></svg>