<svg xmlns="http://www.w3.org/2000/svg" viewBox="0 0 32 32"><path d="M 0.59960938 12 C -0.40039062 12 0.099609375 12.900391 0.099609375 12.900391 L 2.8007812 18.5 C 2.8007812 18.5 3.3996094 20 5.0996094 20 L 6.9003906 20 C 8.6003906 20 9.1992188 18.5 9.1992188 18.5 L 11.900391 12.900391 C 11.900391 12.900391 12.400391 12 11.400391 12 L 9.8007812 12 C 9.2007812 12 9.1007812 12.400391 8.8007812 12.900391 L 7 16.599609 C 7 16.599609 6.8 17.300781 6 17.300781 C 5.2 17.300781 5 16.599609 5 16.599609 L 3.0996094 12.900391 C 2.7996094 12.400391 2.6992188 12 2.1992188 12 L 0.59960938 12 z M 15.199219 12 C 13.499219 12 12.900391 13.5 12.900391 13.5 L 10.199219 19.099609 C 10.199219 19.099609 9.6992188 20 10.699219 20 L 12.300781 20 C 12.800781 20 12.899219 19.599609 13.199219 19.099609 L 15 15.400391 C 15 15.400391 15.2 14.699219 16 14.699219 C 16.7 14.699219 17 15.400391 17 15.400391 L 18.900391 19.099609 C 19.100391 19.599609 19.300781 20 19.800781 20 L 21.400391 20 C 22.400391 20 21.900391 19.099609 21.900391 19.099609 L 19.199219 13.5 C 19.199219 13.5 18.600391 12 16.900391 12 L 15.199219 12 z M 20.699219 12 C 19.699219 12 20.199219 12.900391 20.199219 12.900391 L 22.900391 18.5 C 22.900391 18.5 23.499219 20 25.199219 20 L 26.900391 20 C 28.600391 20 29.199219 18.5 29.199219 18.5 L 31.900391 12.900391 C 31.900391 12.900391 32.400781 12 31.300781 12 L 29.699219 12 C 29.199219 12 29.100781 12.400391 28.800781 12.900391 L 27 16.599609 C 27 16.599609 26.8 17.300781 26 17.300781 C 25.3 17.300781 25 16.599609 25 16.599609 L 23.199219 12.900391 C 22.899219 12.400391 22.800781 12 22.300781 12 L 20.699219 12 z"/></svg>