<svg xmlns="http://www.w3.org/2000/svg" viewBox="0 0 32 32"><path d="M 8 5 C 6.171875 5 4.996094 6.074219 4.5 7.0625 C 4.300781 7.457031 4.195313 7.832031 4.125 8.15625 C 2.90625 8.539063 2 9.664063 2 11 L 2 24 C 2 25.644531 3.355469 27 5 27 L 12 27 C 13.320313 27 14.519531 26.203125 15.0625 25 L 16.9375 25 C 17.476563 26.203125 18.679688 27 20 27 L 27 27 C 28.644531 27 30 25.644531 30 24 L 30 11 C 30 9.664063 29.09375 8.539063 27.875 8.15625 C 27.804688 7.832031 27.699219 7.457031 27.5 7.0625 C 27.003906 6.078125 25.820313 5 24 5 Z M 8 7 L 24 7 C 25.148438 7 25.457031 7.421875 25.71875 7.9375 C 25.730469 7.960938 25.738281 7.976563 25.75 8 L 6.25 8 C 6.261719 7.976563 6.269531 7.960938 6.28125 7.9375 C 6.539063 7.425781 6.839844 7 8 7 Z M 5 10 L 27 10 C 27.566406 10 28 10.433594 28 11 L 28 24 C 28 24.566406 27.566406 25 27 25 L 20 25 C 19.457031 25 18.964844 24.667969 18.75 24.15625 L 17.71875 21.40625 L 17.71875 21.375 L 17.6875 21.34375 C 17.390625 20.648438 16.726563 20.1875 15.96875 20.1875 C 15.207031 20.1875 14.515625 20.648438 14.21875 21.34375 L 14.1875 21.375 L 14.1875 21.4375 L 13.25 24.15625 C 13.03125 24.667969 12.542969 25 12 25 L 5 25 C 4.433594 25 4 24.566406 4 24 L 4 11 C 4 10.433594 4.433594 10 5 10 Z M 10 13 C 7.800781 13 6 14.800781 6 17 C 6 19.199219 7.800781 21 10 21 C 12.199219 21 14 19.199219 14 17 C 14 14.800781 12.199219 13 10 13 Z M 22 13 C 19.800781 13 18 14.800781 18 17 C 18 19.199219 19.800781 21 22 21 C 24.199219 21 26 19.199219 26 17 C 26 14.800781 24.199219 13 22 13 Z M 10 15 C 11.117188 15 12 15.882813 12 17 C 12 18.117188 11.117188 19 10 19 C 8.882813 19 8 18.117188 8 17 C 8 15.882813 8.882813 15 10 15 Z M 22 15 C 23.117188 15 24 15.882813 24 17 C 24 18.117188 23.117188 19 22 19 C 20.882813 19 20 18.117188 20 17 C 20 15.882813 20.882813 15 22 15 Z M 15.96875 22.4375 L 16.1875 23 L 15.78125 23 Z"/></svg>