<svg xmlns="http://www.w3.org/2000/svg" viewBox="0 0 32 32"><path d="M 30 9.214844 C 30 9.386719 29.863281 9.523438 29.6875 9.523438 L 28.007813 9.523438 L 20.390625 25.738281 C 20.339844 25.847656 20.230469 25.917969 20.113281 25.917969 C 20.109375 25.917969 20.109375 25.917969 20.109375 25.917969 C 19.988281 25.917969 19.882813 25.851563 19.828125 25.746094 L 16.214844 18.578125 L 12.3125 25.757813 C 12.257813 25.859375 12.15625 25.917969 12.03125 25.917969 C 11.914063 25.914063 11.808594 25.847656 11.757813 25.742188 L 4.054688 9.523438 L 2.3125 9.523438 C 2.140625 9.523438 2 9.386719 2 9.214844 L 2 8.390625 C 2 8.21875 2.140625 8.082031 2.3125 8.082031 L 8.523438 8.082031 C 8.695313 8.082031 8.835938 8.21875 8.835938 8.390625 L 8.835938 9.214844 C 8.835938 9.386719 8.695313 9.523438 8.523438 9.523438 L 7.1875 9.523438 L 12.503906 21.785156 L 15.269531 16.617188 L 11.761719 9.527344 L 10.917969 9.527344 C 10.746094 9.527344 10.605469 9.386719 10.605469 9.214844 L 10.605469 8.394531 C 10.605469 8.222656 10.746094 8.082031 10.917969 8.082031 L 15.515625 8.082031 C 15.6875 8.082031 15.824219 8.222656 15.824219 8.394531 L 15.824219 9.214844 C 15.824219 9.386719 15.6875 9.523438 15.515625 9.523438 L 14.703125 9.523438 L 16.722656 13.9375 L 19.125 9.523438 L 17.652344 9.523438 C 17.476563 9.523438 17.339844 9.386719 17.339844 9.214844 L 17.339844 8.394531 C 17.339844 8.222656 17.476563 8.082031 17.652344 8.082031 L 22.117188 8.082031 C 22.289063 8.082031 22.425781 8.222656 22.425781 8.394531 L 22.425781 9.214844 C 22.425781 9.386719 22.289063 9.523438 22.117188 9.523438 L 21.136719 9.523438 L 17.632813 15.894531 L 20.488281 21.769531 L 26 9.523438 L 24.253906 9.523438 C 24.082031 9.523438 23.941406 9.386719 23.941406 9.214844 L 23.941406 8.394531 C 23.941406 8.222656 24.082031 8.082031 24.253906 8.082031 L 29.6875 8.082031 C 29.863281 8.082031 30 8.222656 30 8.394531 Z"/></svg>