<svg xmlns="http://www.w3.org/2000/svg" viewBox="0 0 32 32"><path d="M 22.050781 9.9492188 C 21.525781 9.9242187 21.099609 10 21.099609 10 L 25.099609 16 L 21.099609 21.900391 C 21.099609 21.900391 22.899219 22.200391 23.699219 21.400391 C 24.199219 20.900391 24.499219 20.4 26.199219 18 C 26.499219 17.5 26.800781 18 26.800781 18 C 28.300781 20 28.700391 20.800391 29.400391 21.400391 C 30.300391 22.100391 32 21.900391 32 21.900391 L 28 16 L 31.900391 10 C 31.900391 10 30.200391 9.7 29.400391 10.5 C 28.800391 11.1 28.200781 11.9 26.800781 14 C 26.800781 14 26.499219 14.5 26.199219 14 C 24.799219 12 24.199609 11.1 23.599609 10.5 C 23.199609 10.1 22.575781 9.9742188 22.050781 9.9492188 z M 0.41992188 9.9902344 C 0.27851562 9.9835938 0.1375 9.9875 0 10 L 3.1992188 22 C 3.1992187 22 4.1992187 22.000781 4.6992188 21.800781 C 5.3992187 21.500781 5.6996094 21.199609 6.0996094 19.599609 C 6.4996094 18.199609 7.4996094 13.899609 7.5996094 13.599609 C 7.7996094 12.899609 8.1007813 12.899609 8.3007812 13.599609 C 8.4007812 13.899609 9.4007812 18.099609 9.8007812 19.599609 C 10.200781 21.199609 10.499219 21.500781 11.199219 21.800781 C 11.799219 22.100781 12.800781 22 12.800781 22 L 16 10 C 14.9 9.9 13.6 10.499219 13.5 11.699219 L 11.800781 18.099609 L 10.400391 12.900391 C 10.100391 11.400391 9.3996094 10.599609 8.0996094 10.599609 C 6.7996094 10.599609 6.2007813 11.300391 5.8007812 12.900391 L 4.4003906 18.099609 L 2.6992188 11.699219 C 2.4367187 10.561719 1.4097656 10.036719 0.41992188 9.9902344 z M 19.599609 10 C 19.599609 10 18.800781 9.9992188 18.300781 10.199219 C 17.700781 10.499219 17.5 11.099609 17.5 12.599609 C 17.5 12.599609 17.800781 12.299609 18.300781 12.099609 C 19.700781 11.599609 19.599609 10.6 19.599609 10 z M 19.5 12 L 19.5 12.076172 C 19.524326 12.032657 19.530125 12 19.5 12 z M 19.5 12.076172 C 19.443576 12.177106 19.249766 12.36025 18.900391 12.5 C 18.600391 12.7 18.3 12.800391 18 12.900391 C 17.3 13.200391 17.400391 13.599609 17.400391 14.599609 L 17.400391 22 C 17.400391 22 18.199219 22.100781 18.699219 21.800781 C 19.399219 21.500781 19.5 21.099609 19.5 19.599609 L 19.5 12.076172 z"/></svg>