<svg xmlns="http://www.w3.org/2000/svg" viewBox="0 0 32 32"><path d="M 16 4 C 9.4 4 4 8.5 4 14 C 4 15.7 4.5003906 17.300781 5.4003906 18.800781 C 4.5003906 19.600781 4 20.8 4 22 C 4 24.8 6.7 27 10 27 C 12.5 27 14.6 25.8 15.5 24 L 16.5 24 C 17.4 25.8 19.5 27 22 27 C 25.3 27 28 24.8 28 22 C 28 20.8 27.499609 19.600781 26.599609 18.800781 C 27.499609 17.400781 28 15.8 28 14 C 28 8.5 22.6 4 16 4 z M 16 6 C 21.5 6 26 9.6 26 14 C 26 14.309075 25.973564 14.611043 25.929688 14.910156 C 25.92355 14.953558 25.913261 14.995896 25.90625 15.039062 C 25.861749 15.304228 25.803507 15.566579 25.726562 15.826172 C 25.716144 15.861357 25.706333 15.896646 25.695312 15.931641 C 25.622015 16.165454 25.529703 16.397955 25.431641 16.628906 C 25.007086 17.579274 24.358313 18.448195 23.5 19.199219 C 24.976052 19.691236 25.962845 20.765785 25.994141 21.943359 C 25.96168 23.525029 24.179909 24.900391 22 24.900391 C 20.4 24.900391 18.900781 24.1 18.300781 23 L 17.699219 22 L 16.5 22 L 15.5 22 L 14.300781 22 L 13.699219 23.099609 C 13.099219 24.199609 11.6 25 10 25 C 7.8 25 6 23.6 6 22 C 6 21.803499 6.0301193 21.619634 6.0800781 21.447266 C 6.0823024 21.438728 6.0855661 21.430393 6.0878906 21.421875 C 6.2282679 20.958972 6.5055053 20.591084 6.7226562 20.304688 C 7.1584016 19.833049 7.7680315 19.443208 8.5 19.199219 C 7.9480806 18.716289 7.4864989 18.183194 7.109375 17.613281 C 7.1062978 17.608631 7.1026744 17.604265 7.0996094 17.599609 C 6.7504138 17.050873 6.4765328 16.477413 6.2890625 15.878906 C 6.2878279 15.874965 6.2863833 15.871131 6.2851562 15.867188 C 6.2005128 15.595147 6.139305 15.317468 6.0917969 15.035156 C 6.0850366 14.99336 6.076254 14.952172 6.0703125 14.910156 C 6.0264365 14.612387 6 14.309075 6 14 C 6 9.6 10.5 6 16 6 z M 10 12 L 10 15 L 12 15 L 12 12 L 10 12 z M 13 12 L 13 15 L 21 15 L 21 12 L 13 12 z M 11 16.199219 L 11 17.599609 C 13.5 19.999609 17.3 20.600781 20 19.300781 L 20 18 C 17.1 19.1 13.6 18.499219 11 16.199219 z"/></svg>