<svg xmlns="http://www.w3.org/2000/svg" viewBox="0 0 32 32"><path d="M 16 3 C 8.8 3 3 8.8 3 16 C 3 23.2 8.8 29 16 29 C 23.2 29 29 23.2 29 16 C 29 8.8 23.2 3 16 3 z M 16 5 C 22.1 5 27 9.9 27 16 C 27 22.1 22.1 27 16 27 C 9.9 27 5 22.1 5 16 C 5 9.9 9.9 5 16 5 z M 10.599609 11 C 10.399609 11 10.299219 11.100781 10.199219 11.300781 C 9.5992187 12.700781 8.9007812 14.199609 8.3007812 15.599609 C 7.9007812 16.599609 7.4 17.5 7 18.5 L 7 19 C 7.6 19.6 8.0992188 20.200781 8.6992188 20.800781 C 8.7992187 20.900781 8.8996094 21 9.0996094 21 L 16 21 C 16.1 21 16.300391 20.899219 16.400391 20.699219 C 16.900391 19.499219 17.400391 18.399219 17.900391 17.199219 C 18.000391 16.999219 18.200391 16.900391 18.400391 16.900391 L 21.800781 16.900391 C 22.100781 16.900391 22.300391 16.8 22.400391 16.5 C 23.200391 14.8 23.900781 13.100391 24.800781 11.400391 C 24.900781 11.100391 24.8 11 24.5 11 L 18 11 C 17.8 11 17.699609 11.100781 17.599609 11.300781 C 17.599609 11.500781 17.200781 12.199219 16.800781 13.199219 C 16.800781 13.299219 16.9 13.300781 17 13.300781 L 20.699219 13.300781 C 21.199219 13.300781 21.1 14 20.5 14 L 16.599609 14 C 16.499609 14 16.500391 14.099609 16.400391 14.099609 C 15.500391 15.999609 14.5 18.300781 14.5 18.300781 C 14.3 18.600781 13.700391 18.6 13.900391 18 C 14.300391 17.1 14.699609 16.099219 15.099609 15.199219 C 15.199609 14.999219 15.100781 14.800781 14.800781 14.800781 L 12.5 14.800781 C 12.4 14.800781 12.299219 14.8 12.199219 15 C 10.599219 18.5 10.699219 18.300781 10.699219 18.300781 C 10.599219 18.600781 9.9992188 18.4 10.199219 18 C 10.399219 17.4 10.7 16.699609 11 16.099609 C 11.7 14.499609 12.3 13 13 11.5 C 13.2 11.2 12.999219 11 12.699219 11 L 10.599609 11 z"/></svg>