<?xml version="1.0" encoding="UTF-8" standalone="no"?>
<!DOCTYPE svg PUBLIC "-//W3C//DTD SVG 1.1//EN" "http://www.w3.org/Graphics/SVG/1.1/DTD/svg11.dtd">
<svg width="100%" height="100%" viewBox="0 0 171 171" version="1.1" xmlns="http://www.w3.org/2000/svg" xmlns:xlink="http://www.w3.org/1999/xlink" xml:space="preserve" xmlns:serif="http://www.serif.com/" style="fill-rule:evenodd;clip-rule:evenodd;stroke-linecap:round;stroke-linejoin:round;stroke-miterlimit:1.5;">
    <g transform="matrix(1,0,0,1,-384,-2459)">
        <g id="Guides-dark" transform="matrix(0.132812,0,0,0.236111,384.698,2459.75)">
            <rect x="0" y="0" width="1280" height="720" style="fill:none;"/>
            <g transform="matrix(1.85576,1.04386,-1.85576,1.04386,-3627,-4653.01)">
                <circle cx="3551.19" cy="1251.86" r="239.558" style="fill:rgb(31,35,71);"/>
                <clipPath id="_clip1">
                    <circle cx="3551.19" cy="1251.86" r="239.558"/>
                </clipPath>
                <g clip-path="url(#_clip1)">
                    <g transform="matrix(1.71609,1.71609,-1.71609,1.71609,-1268.78,-7899.98)">
                        <circle cx="4070.83" cy="1262.14" r="98.714" style="fill:none;"/>
                        <clipPath id="_clip2">
                            <circle cx="4070.83" cy="1262.14" r="98.714"/>
                        </clipPath>
                        <g clip-path="url(#_clip2)">
                            <g transform="matrix(0.393909,0,0,0.393909,2445.45,776.948)">
                                <rect x="3997.77" y="961.766" width="18.465" height="269.97" style="fill:rgb(46,51,103);"/>
                            </g>
                            <g transform="matrix(0.393909,0,0,0.0527091,2526.22,1112.74)">
                                <rect x="3997.77" y="961.766" width="18.465" height="269.97" style="fill:rgb(46,51,103);"/>
                            </g>
                            <g transform="matrix(0.393909,0,0,0.0585947,2526.22,1125.08)">
                                <rect x="3997.77" y="961.766" width="18.465" height="269.97" style="fill:rgb(46,51,103);"/>
                            </g>
                            <g transform="matrix(0.393909,0,0,0.109604,2526.22,1101.98)">
                                <rect x="3997.77" y="961.766" width="18.465" height="269.97" style="fill:rgb(46,51,103);"/>
                            </g>
                            <g transform="matrix(0.393909,0,0,0.109604,2526.22,1230.48)">
                                <rect x="3997.77" y="961.766" width="18.465" height="269.97" style="fill:rgb(46,51,103);"/>
                            </g>
                            <g transform="matrix(0.393909,0,0,0.11556,2471.66,1220.64)">
                                <rect x="3997.77" y="961.766" width="18.465" height="269.97" style="fill:rgb(46,51,103);"/>
                            </g>
                            <g transform="matrix(0.393909,0,0,0.0184469,2471.66,1304.24)">
                                <rect x="3997.77" y="961.766" width="18.465" height="269.97" style="fill:rgb(46,51,103);"/>
                            </g>
                            <g transform="matrix(0.393909,0,0,0.0184469,2471.66,1297.09)">
                                <rect x="3997.77" y="961.766" width="18.465" height="269.97" style="fill:rgb(46,51,103);"/>
                            </g>
                            <g transform="matrix(-0.393909,-4.824e-17,6.08207e-17,-0.496639,5715.51,1883.31)">
                                <rect x="3997.77" y="961.766" width="18.465" height="269.97" style="fill:rgb(46,51,103);"/>
                            </g>
                            <g transform="matrix(-0.393909,-4.824e-17,3.58832e-17,-0.293008,5566,1632.49)">
                                <rect x="3997.77" y="961.766" width="18.465" height="269.97" style="fill:rgb(46,51,103);"/>
                            </g>
                            <g transform="matrix(-0.393909,-4.824e-17,7.80262e-18,-0.0637132,5566,1325.57)">
                                <rect x="3997.77" y="961.766" width="18.465" height="269.97" style="fill:rgb(46,51,103);"/>
                            </g>
                            <g transform="matrix(0.393909,0,0,0.0209215,2445.45,1253.19)">
                                <rect x="3997.77" y="961.766" width="18.465" height="269.97" style="fill:rgb(46,51,103);"/>
                            </g>
                            <g transform="matrix(-0.393909,-4.824e-17,3.23034e-18,-0.0263778,5715.51,1282.87)">
                                <rect x="3997.77" y="961.766" width="18.465" height="269.97" style="fill:rgb(46,51,103);"/>
                            </g>
                            <g transform="matrix(0.393909,0,0,0.053065,2445.45,1233.23)">
                                <rect x="3997.77" y="961.766" width="18.465" height="269.97" style="fill:rgb(46,51,103);"/>
                            </g>
                            <g transform="matrix(-0.393909,-4.824e-17,8.19339e-18,-0.0669041,5715.51,1308.03)">
                                <rect x="3997.77" y="961.766" width="18.465" height="269.97" style="fill:rgb(46,51,103);"/>
                            </g>
                        </g>
                    </g>
                </g>
                <circle cx="3551.19" cy="1251.86" r="239.558" style="fill:none;stroke:rgb(66,79,135);stroke-width:5.74px;"/>
            </g>
            <g transform="matrix(4.50376,2.53337,-4.50376,2.53337,-12009.7,-13153.9)">
                <circle cx="4070.83" cy="1262.14" r="98.714" style="fill:none;"/>
                <clipPath id="_clip3">
                    <circle cx="4070.83" cy="1262.14" r="98.714"/>
                </clipPath>
                <g clip-path="url(#_clip3)">
                    <g>
                        <g transform="matrix(0.278536,-0.278536,0.278536,0.278536,2428.4,2198.03)">
                            <path d="M4667.95,1154.28L4667.95,1122.23L4609.64,1122.23L4609.64,1154.28L4580.47,1154.28C4569.66,1154.28 4560.9,1163.05 4560.9,1173.86C4560.9,1180.84 4560.9,1188.69 4560.9,1195.67C4560.9,1206.49 4569.66,1215.25 4580.47,1215.25L4609.64,1215.25L4609.64,1245.48L4479.75,1245.48L4440.92,1275.97L4479.75,1306.45L4609.64,1306.45L4609.64,1531.76L4667.95,1531.76L4667.95,1306.45L4676.21,1306.45C4687.02,1306.45 4695.78,1297.69 4695.78,1286.88C4695.78,1279.9 4695.78,1272.04 4695.78,1265.06C4695.78,1254.25 4687.02,1245.48 4676.21,1245.48L4667.95,1245.48L4667.95,1215.25L4776.93,1215.25L4815.76,1184.77L4776.93,1154.28L4667.95,1154.28Z" style="fill:rgb(90,26,68);stroke:rgb(255,32,105);stroke-width:9px;"/>
                        </g>
                        <g transform="matrix(0.835902,-0.835902,0.835902,0.835902,-1675.55,1782.42)">
                            <path d="M3761.64,3118.42L3742.21,3118.42" style="fill:none;stroke:rgb(255,32,105);stroke-width:3px;"/>
                        </g>
                        <g transform="matrix(0.835902,-0.835902,0.835902,0.835902,-1700.99,1756.98)">
                            <path d="M3761.64,3118.42L3742.21,3118.42" style="fill:none;stroke:rgb(255,32,105);stroke-width:3px;"/>
                        </g>
                        <g transform="matrix(0.835902,-0.835902,0.835902,0.835902,-1658.55,1799.42)">
                            <path d="M3761.64,3118.42L3742.21,3118.42" style="fill:none;stroke:rgb(255,32,105);stroke-width:3px;"/>
                        </g>
                        <g transform="matrix(0.835902,-0.835902,0.835902,0.835902,-1683.99,1773.98)">
                            <path d="M3761.64,3118.42L3742.21,3118.42" style="fill:none;stroke:rgb(255,32,105);stroke-width:3px;"/>
                        </g>
                    </g>
                </g>
            </g>
        </g>
    </g>
</svg>
