<?xml version="1.0" encoding="UTF-8" standalone="no"?>
<!DOCTYPE svg PUBLIC "-//W3C//DTD SVG 1.1//EN" "http://www.w3.org/Graphics/SVG/1.1/DTD/svg11.dtd">
<svg width="100%" height="100%" viewBox="0 0 170 171" version="1.1" xmlns="http://www.w3.org/2000/svg" xmlns:xlink="http://www.w3.org/1999/xlink" xml:space="preserve" xmlns:serif="http://www.serif.com/" style="fill-rule:evenodd;clip-rule:evenodd;stroke-linecap:round;stroke-linejoin:round;stroke-miterlimit:1.5;">
    <g transform="matrix(1,0,0,1,0,-2459)">
        <g id="Manual-dark" transform="matrix(0.132812,0,0,0.236111,0,2459.75)">
            <rect x="0" y="0" width="1280" height="720" style="fill:none;"/>
            <g transform="matrix(1.60693e-16,1.47618,-2.62431,9.03898e-17,3925.31,-4882.17)">
                <circle cx="3551.19" cy="1251.86" r="239.558" style="fill:rgb(31,35,71);"/>
                <clipPath id="_clip1">
                    <circle cx="3551.19" cy="1251.86" r="239.558"/>
                </clipPath>
                <g clip-path="url(#_clip1)">
                    <g transform="matrix(1.71609,1.71609,-1.71609,1.71609,-1268.78,-7899.98)">
                        <circle cx="4070.83" cy="1262.14" r="98.714" style="fill:none;"/>
                        <clipPath id="_clip2">
                            <circle cx="4070.83" cy="1262.14" r="98.714"/>
                        </clipPath>
                        <g clip-path="url(#_clip2)">
                            <g transform="matrix(0.393909,0,0,0.393909,2445.45,776.948)">
                                <rect x="3997.77" y="961.766" width="18.465" height="269.97" style="fill:rgb(46,51,103);"/>
                            </g>
                            <g transform="matrix(0.393909,0,0,0.0527091,2526.22,1112.74)">
                                <rect x="3997.77" y="961.766" width="18.465" height="269.97" style="fill:rgb(46,51,103);"/>
                            </g>
                            <g transform="matrix(0.393909,0,0,0.0585947,2526.22,1125.08)">
                                <rect x="3997.77" y="961.766" width="18.465" height="269.97" style="fill:rgb(46,51,103);"/>
                            </g>
                            <g transform="matrix(0.393909,0,0,0.109604,2526.22,1101.98)">
                                <rect x="3997.77" y="961.766" width="18.465" height="269.97" style="fill:rgb(46,51,103);"/>
                            </g>
                            <g transform="matrix(0.393909,0,0,0.109604,2526.22,1230.48)">
                                <rect x="3997.77" y="961.766" width="18.465" height="269.97" style="fill:rgb(46,51,103);"/>
                            </g>
                            <g transform="matrix(0.393909,0,0,0.11556,2471.66,1220.64)">
                                <rect x="3997.77" y="961.766" width="18.465" height="269.97" style="fill:rgb(46,51,103);"/>
                            </g>
                            <g transform="matrix(0.393909,0,0,0.0184469,2471.66,1304.24)">
                                <rect x="3997.77" y="961.766" width="18.465" height="269.97" style="fill:rgb(46,51,103);"/>
                            </g>
                            <g transform="matrix(0.393909,0,0,0.0184469,2471.66,1297.09)">
                                <rect x="3997.77" y="961.766" width="18.465" height="269.97" style="fill:rgb(46,51,103);"/>
                            </g>
                            <g transform="matrix(-0.393909,-4.824e-17,6.08207e-17,-0.496639,5715.51,1883.31)">
                                <rect x="3997.77" y="961.766" width="18.465" height="269.97" style="fill:rgb(46,51,103);"/>
                            </g>
                            <g transform="matrix(-0.393909,-4.824e-17,3.58832e-17,-0.293008,5566,1632.49)">
                                <rect x="3997.77" y="961.766" width="18.465" height="269.97" style="fill:rgb(46,51,103);"/>
                            </g>
                            <g transform="matrix(-0.393909,-4.824e-17,7.80262e-18,-0.0637132,5566,1325.57)">
                                <rect x="3997.77" y="961.766" width="18.465" height="269.97" style="fill:rgb(46,51,103);"/>
                            </g>
                            <g transform="matrix(0.393909,0,0,0.0209215,2445.45,1253.19)">
                                <rect x="3997.77" y="961.766" width="18.465" height="269.97" style="fill:rgb(46,51,103);"/>
                            </g>
                            <g transform="matrix(-0.393909,-4.824e-17,3.23034e-18,-0.0263778,5715.51,1282.87)">
                                <rect x="3997.77" y="961.766" width="18.465" height="269.97" style="fill:rgb(46,51,103);"/>
                            </g>
                            <g transform="matrix(0.393909,0,0,0.053065,2445.45,1233.23)">
                                <rect x="3997.77" y="961.766" width="18.465" height="269.97" style="fill:rgb(46,51,103);"/>
                            </g>
                            <g transform="matrix(-0.393909,-4.824e-17,8.19339e-18,-0.0669041,5715.51,1308.03)">
                                <rect x="3997.77" y="961.766" width="18.465" height="269.97" style="fill:rgb(46,51,103);"/>
                            </g>
                        </g>
                    </g>
                </g>
                <circle cx="3551.19" cy="1251.86" r="239.558" style="fill:none;stroke:rgb(66,79,135);stroke-width:5.74px;"/>
            </g>
            <g transform="matrix(2.5088,0,0,1.4112,-4231.86,-5709.85)">
                <rect x="1835.49" y="4165.3" width="195.649" height="271.808" style="fill:rgb(90,26,68);stroke:rgb(255,32,105);stroke-width:9px;"/>
            </g>
            <g transform="matrix(0.220694,0,0,1.30369,458.782,-5247.44)">
                <rect x="1835.49" y="4165.3" width="195.649" height="271.808" style="fill:none;stroke:rgb(255,32,105);stroke-width:13.72px;"/>
            </g>
            <g transform="matrix(-0.220694,1.52028e-17,-1.6859e-17,-0.077436,1153.3,895.396)">
                <path d="M2031.14,3795.94L1935.32,3953.32L1835.49,3795.94L1835.49,4437.11L2031.14,4437.11L2031.14,3795.94Z" style="fill:rgb(255,32,105);"/>
            </g>
            <g transform="matrix(-0.220694,1.52028e-17,-1.07174e-17,-0.0492265,1232.16,770.228)">
                <path d="M2031.14,3795.94L1935.32,3953.32L1835.49,3795.94L1835.49,4437.11L2031.14,4437.11L2031.14,3795.94Z" style="fill:rgb(255,32,105);"/>
            </g>
            <g transform="matrix(2.5088,0,0,1.4112,-4231.86,-5709.85)">
                <path d="M1859.44,4165.3L1859.44,4437.11" style="fill:none;stroke:rgb(255,32,105);stroke-width:9px;"/>
            </g>
            <g transform="matrix(1.45989,-0.82119,1.45989,0.82119,-10806,-1022.64)">
                <path d="M2983.98,4759.99C2986.3,4755.61 2989.31,4751.51 2992.99,4747.82C3012.97,4727.85 3045.35,4727.85 3065.33,4747.82L3047.24,4765.9C3037.26,4755.92 3021.06,4755.92 3011.08,4765.9C3001.1,4775.88 3001.1,4792.09 3011.08,4802.07C3021.06,4812.06 3037.26,4812.06 3047.24,4802.07L3065.33,4820.15C3045.35,4840.13 3012.97,4840.13 2992.99,4820.15C2989.31,4816.47 2986.3,4812.36 2983.98,4807.98L2983.98,4809.72L2885.04,4809.72C2876.51,4823.11 2861.54,4832 2844.51,4832C2818.01,4832 2796.49,4810.49 2796.49,4783.99C2796.49,4757.49 2818.01,4735.97 2844.51,4735.97C2861.54,4735.97 2876.51,4744.86 2885.03,4758.24L2983.98,4758.24L2983.98,4759.99ZM2844.51,4761.96C2856.66,4761.96 2866.53,4771.83 2866.53,4783.99C2866.53,4796.14 2856.66,4806.01 2844.51,4806.01C2832.35,4806.01 2822.48,4796.14 2822.48,4783.99C2822.48,4771.83 2832.35,4761.96 2844.51,4761.96Z" style="fill:rgb(255,32,105);"/>
            </g>
            <g transform="matrix(2.5088,0,0,1.4112,-8227.96,-1429.82)">
                <rect x="3480.14" y="1175.69" width="112.318" height="11.555" style="fill:rgb(255,32,105);"/>
            </g>
            <g transform="matrix(2.5088,0,0,1.4112,-8227.96,-1389.79)">
                <rect x="3480.14" y="1175.69" width="112.318" height="11.555" style="fill:rgb(255,32,105);"/>
            </g>
        </g>
    </g>
</svg>
