<svg xmlns="http://www.w3.org/2000/svg" viewBox="0 0 32 32"><path d="M 7.2480469 3 C 7.0600469 3 6.9718125 3.0565313 7.0078125 3.2695312 C 7.1228125 3.9395312 6.9657969 3.3093594 7.3417969 5.5683594 C 10.648797 5.5683594 11.087344 5.61475 12.652344 5.59375 C 13.294344 5.58375 14.582141 5.7727969 14.619141 6.7167969 C 14.640141 7.2957969 14.561969 7.2893437 12.917969 11.152344 C 10.110969 17.741344 10.27225 17.260172 9.40625 19.326172 C 9.31825 19.534172 9.2207187 19.589844 9.0117188 19.589844 C 8.5687188 19.579844 8.1235469 19.575703 7.6855469 19.595703 C 7.5865469 19.600703 7.4144375 19.686813 7.3984375 19.757812 C 7.3214375 20.162813 7.285375 20.571 7.234375 21 L 13 21 L 13 19.619141 C 12.64 19.619141 11.447516 19.639656 11.353516 19.472656 C 11.629516 18.848656 11.895875 18.233375 12.171875 17.609375 C 13.021875 17.812375 13.952484 18.005125 14.771484 18.203125 C 14.948484 18.249125 15.011719 18.355828 15.011719 18.548828 C 15.006719 20.726828 15.016484 22.909891 15.021484 25.087891 C 15.021484 25.605891 14.734141 26.058719 14.244141 26.261719 C 13.905141 26.398719 13.955922 26.433813 7.7949219 26.382812 C 7.5189219 26.382812 7.4244375 26.485516 7.3984375 26.728516 C 7.3204375 27.383516 7.2486719 28.042266 7.1386719 28.697266 C 7.0966719 28.951266 7.2060625 28.986328 7.4140625 28.986328 C 16.971063 29.016328 5.8110469 28.986328 24.998047 28.986328 C 24.868047 28.225328 24.768297 27.495531 24.654297 26.769531 C 24.592297 26.377531 24.587297 26.382812 24.154297 26.382812 C 18.948297 26.392813 18.123172 26.26 18.076172 26.25 C 17.434172 26.164 17.001469 25.716172 16.980469 25.076172 C 16.975469 24.995172 16.969734 21.442438 16.927734 18.523438 C 16.922734 18.284437 17.011328 18.198578 17.236328 18.142578 C 17.888328 17.990578 18.735812 17.832391 19.382812 17.650391 C 19.606813 17.584391 19.737312 17.640125 19.820312 17.828125 C 20.055312 18.351125 20.279766 18.873484 20.509766 19.396484 C 20.592766 19.584484 20.514031 19.619141 20.332031 19.619141 C 19.810031 19.609141 19.543953 19.615234 19.001953 19.615234 L 19.001953 20.986328 L 24.798828 20.986328 C 24.725828 20.504328 24.657844 20.066844 24.589844 19.589844 C 24.224844 19.589844 23.869391 19.610938 23.525391 19.585938 C 22.346391 19.504938 22.569578 19.361203 19.142578 11.533203 C 18.683578 10.513203 17.687281 8.3818594 17.238281 7.0058594 C 17.009281 6.2948594 17.525609 5.71725 18.224609 5.65625 C 19.194609 5.57025 20.18025 5.5756875 21.15625 5.5546875 C 22.23125 5.5346875 23.305859 5.5342969 24.380859 5.5292969 C 24.542859 5.5292969 24.590469 5.4575469 24.605469 5.3105469 C 24.668469 4.8135469 24.746453 4.320125 24.814453 3.828125 C 24.856453 3.559125 24.897453 3.2857188 24.939453 3.0117188 L 7.2480469 3 z M 15.824219 8.8378906 C 16.215219 8.9598906 16.236453 8.7968906 16.314453 8.8378906 C 16.799453 9.9798906 17.257656 11.889016 17.722656 13.041016 C 18.066656 13.889016 18.401953 14.742 18.751953 15.625 C 18.686953 15.665 18.618828 15.700422 18.548828 15.732422 C 17.865828 15.930422 17.170187 16.113172 16.492188 16.326172 C 16.180188 16.432172 15.84225 16.432172 15.53125 16.326172 C 14.83725 16.113172 14.144172 15.910406 13.451172 15.691406 C 13.347172 15.649406 13.245437 15.600922 13.148438 15.544922 C 14.045438 13.295922 14.932219 11.071891 15.824219 8.8378906 z"/></svg>