<svg xmlns="http://www.w3.org/2000/svg" viewBox="0 0 32 32"><path d="M 10.53125 3.5 C 10.363281 3.542969 10.230469 3.671875 10.179688 3.835938 C 10.128906 4.003906 10.167969 4.183594 10.28125 4.3125 L 11.75 6.4375 C 10.082031 7.71875 9 9.742188 9 12 L 9 22 C 9 22.703125 9.441406 23.203125 10 23.5625 L 10 26.5 C 10 27.867188 11.132813 29 12.5 29 C 13.867188 29 15 27.867188 15 26.5 L 15 24 L 17 24 L 17 26.5 C 17 27.867188 18.132813 29 19.5 29 C 20.867188 29 22 27.867188 22 26.5 L 22 23.5625 C 22.558594 23.203125 23 22.703125 23 22 L 23 12 C 23 9.742188 21.917969 7.71875 20.25 6.4375 L 21.71875 4.3125 C 21.839844 4.160156 21.863281 3.949219 21.777344 3.777344 C 21.6875 3.601563 21.507813 3.492188 21.3125 3.5 C 21.28125 3.496094 21.25 3.496094 21.21875 3.5 C 21.085938 3.535156 20.972656 3.625 20.90625 3.75 L 19.40625 5.875 C 18.398438 5.3125 17.230469 5 16 5 C 14.769531 5 13.601563 5.3125 12.59375 5.875 L 11.09375 3.75 C 11.007813 3.601563 10.855469 3.507813 10.6875 3.5 C 10.65625 3.496094 10.625 3.496094 10.59375 3.5 C 10.574219 3.5 10.550781 3.5 10.53125 3.5 Z M 16 7 C 18.425781 7 20.441406 8.714844 20.90625 11 L 11.09375 11 C 11.558594 8.714844 13.574219 7 16 7 Z M 14 8 C 13.449219 8 13 8.449219 13 9 C 13 9.550781 13.449219 10 14 10 C 14.550781 10 15 9.550781 15 9 C 15 8.449219 14.550781 8 14 8 Z M 18 8 C 17.449219 8 17 8.449219 17 9 C 17 9.550781 17.449219 10 18 10 C 18.550781 10 19 9.550781 19 9 C 19 8.449219 18.550781 8 18 8 Z M 6 11 L 6 21 L 8 21 L 8 11 Z M 24 11 L 24 21 L 26 21 L 26 11 Z M 11 13 L 21 13 L 21 22 L 20 22 L 20 26.5 C 20 26.785156 19.785156 27 19.5 27 C 19.214844 27 19 26.785156 19 26.5 L 19 22 L 13 22 L 13 26.5 C 13 26.785156 12.785156 27 12.5 27 C 12.214844 27 12 26.785156 12 26.5 L 12 22 L 11 22 Z"/></svg>