<svg xmlns="http://www.w3.org/2000/svg" viewBox="0 0 32 32"><path d="M 16 3 C 8.832031 3 3 8.832031 3 16 C 3 23.167969 8.832031 29 16 29 C 23.167969 29 29 23.167969 29 16 C 29 8.832031 23.167969 3 16 3 Z M 16 5 C 22.085938 5 27 9.914063 27 16 C 27 22.085938 22.085938 27 16 27 C 9.914063 27 5 22.085938 5 16 C 5 9.914063 9.914063 5 16 5 Z M 15.96875 8.25 C 15.890625 8.261719 15.792969 8.300781 15.71875 8.34375 L 15.21875 8.625 C 14.925781 8.796875 14.828125 9.171875 15 9.46875 L 19.28125 16.8125 L 20.84375 15.90625 L 16.5625 8.5625 C 16.433594 8.34375 16.207031 8.21875 15.96875 8.25 Z M 14.65625 10.6875 C 14.417969 10.65625 14.160156 10.777344 14.03125 11 L 13.5 11.9375 L 15.125 12.875 L 15.65625 11.9375 C 15.828125 11.640625 15.730469 11.265625 15.4375 11.09375 L 14.875 10.78125 C 14.800781 10.738281 14.734375 10.699219 14.65625 10.6875 Z M 13.375 12.15625 L 9.59375 18.625 L 11.1875 19.5625 L 14.96875 13.09375 Z M 8 15.09375 L 8 16.90625 L 10.28125 16.90625 L 11.34375 15.09375 Z M 14.0625 15.09375 L 13.0625 16.90625 L 18.90625 16.90625 L 17.90625 15.09375 Z M 20.75 15.09375 L 21.71875 16.90625 L 23.96875 16.90625 L 23.96875 15.09375 Z M 21.03125 16.21875 L 19.46875 17.125 L 20.375 18.6875 L 21.9375 17.78125 Z M 21.84375 18.1875 C 21.792969 18.195313 21.742188 18.21875 21.6875 18.25 C 21.433594 18.394531 21.066406 18.617188 20.84375 18.75 C 20.425781 19 20.75 19.746094 20.84375 19.90625 C 21.386719 20.816406 21.953125 20.699219 22.375 21.34375 C 22.605469 21.695313 22.519531 21.851563 22.59375 21.96875 C 22.621094 22.011719 22.714844 22.050781 22.75 22 C 23.402344 21.097656 23.222656 19.53125 22.75 18.84375 C 22.558594 18.5625 22.210938 18.125 21.84375 18.1875 Z M 9.375 18.96875 L 8.59375 21.90625 C 8.578125 21.960938 8.609375 22.035156 8.65625 22.0625 C 8.703125 22.089844 8.773438 22.070313 8.8125 22.03125 L 11 19.90625 Z"/></svg>