<svg xmlns="http://www.w3.org/2000/svg" viewBox="0 0 32 32"><path d="M 18 4 L 18 13 L 9.6875 13 C 9.457031 12.457031 9.089844 11.730469 8.46875 10.90625 C 7.414063 9.503906 5.605469 8 3 8 L 3 10 C 4.855469 10 6.046875 10.996094 6.875 12.09375 C 7.664063 13.140625 7.96875 14.125 8 14.21875 C 8.082031 17.609375 10.082031 20.539063 12.9375 22 C 11.320313 22.035156 10 23.375 10 25 C 10 26.644531 11.355469 28 13 28 C 14.644531 28 16 26.644531 16 25 C 16 24.113281 15.617188 23.300781 15 22.75 C 15.644531 22.898438 16.3125 23 17 23 L 20 23 C 20.6875 23 21.355469 22.898438 22 22.75 C 21.382813 23.300781 21 24.113281 21 25 C 21 26.644531 22.355469 28 24 28 C 25.644531 28 27 26.644531 27 25 C 27 23.375 25.679688 22.035156 24.0625 22 C 26.695313 20.652344 28.589844 18.054688 28.9375 15 C 28.96875 14.710938 28.996094 14.421875 29 14.125 C 29 14.105469 29 14.082031 29 14.0625 C 29 14.0625 29.007813 13.898438 29 13.625 L 29 13 L 28.9375 13 C 28.863281 12.042969 28.664063 10.59375 27.9375 9.0625 C 26.746094 6.554688 24.046875 4 19 4 Z M 20 6.125 C 23.613281 6.421875 25.292969 8.121094 26.15625 9.9375 C 26.746094 11.183594 26.878906 12.230469 26.9375 13 L 20 13 Z M 10.21875 15 L 26.78125 15 C 26.273438 18.363281 23.5 21 20 21 L 17 21 C 13.5 21 10.726563 18.363281 10.21875 15 Z M 13 24 C 13.5625 24 14 24.4375 14 25 C 14 25.5625 13.5625 26 13 26 C 12.4375 26 12 25.5625 12 25 C 12 24.4375 12.4375 24 13 24 Z M 24 24 C 24.5625 24 25 24.4375 25 25 C 25 25.5625 24.5625 26 24 26 C 23.4375 26 23 25.5625 23 25 C 23 24.4375 23.4375 24 24 24 Z"/></svg>