<svg xmlns="http://www.w3.org/2000/svg" viewBox="0 0 32 32"><path d="M 16 2 C 13.800781 2 12 3.800781 12 6 C 12 8.199219 13.800781 10 16 10 C 18.199219 10 20 8.199219 20 6 C 20 3.800781 18.199219 2 16 2 Z M 16 4 C 17.117188 4 18 4.882813 18 6 C 18 7.117188 17.117188 8 16 8 C 14.882813 8 14 7.117188 14 6 C 14 4.882813 14.882813 4 16 4 Z M 16 11 C 9.332031 11 6.09375 17.5625 6.09375 17.5625 L 7.90625 18.4375 C 7.90625 18.4375 9.300781 15.714844 12 14.125 L 12 20.21875 C 11.59375 20.363281 11.0625 20.582031 10.46875 20.90625 C 9.929688 21.199219 9.378906 21.578125 8.90625 22.09375 C 8.433594 22.609375 8.027344 23.300781 8 24.125 C 7.953125 25.683594 8.832031 27.085938 9.625 28.25 C 10.417969 29.414063 11.21875 30.3125 11.21875 30.3125 L 12.71875 28.9375 C 12.71875 28.9375 11.988281 28.160156 11.28125 27.125 C 10.574219 26.089844 9.980469 24.769531 10 24.1875 C 10.007813 23.945313 10.121094 23.714844 10.375 23.4375 C 10.628906 23.160156 11.023438 22.882813 11.4375 22.65625 C 11.851563 22.429688 12.253906 22.269531 12.5625 22.15625 C 13.128906 22.914063 14.234375 24 16 24 C 17.738281 24 18.828125 22.945313 19.40625 22.1875 C 19.707031 22.300781 20.070313 22.453125 20.4375 22.65625 C 20.855469 22.882813 21.253906 23.164063 21.5 23.4375 C 21.746094 23.710938 21.84375 23.945313 21.84375 24.1875 C 21.84375 24.808594 21.226563 26.089844 20.53125 27.09375 C 19.835938 28.097656 19.15625 28.84375 19.15625 28.84375 L 20.59375 30.21875 C 20.59375 30.21875 21.402344 29.351563 22.1875 28.21875 C 22.972656 27.085938 23.84375 25.722656 23.84375 24.1875 C 23.84375 23.351563 23.441406 22.617188 22.96875 22.09375 C 22.496094 21.570313 21.949219 21.203125 21.40625 20.90625 C 20.898438 20.628906 20.394531 20.425781 20 20.28125 L 20 14.125 C 22.699219 15.714844 24.09375 18.4375 24.09375 18.4375 L 25.90625 17.5625 C 25.90625 17.5625 22.667969 11 16 11 Z M 16 13 C 16.714844 13 17.378906 13.082031 18 13.25 L 18 20.6875 C 17.890625 20.894531 17.292969 22 16 22 C 14.707031 22 14.109375 20.894531 14 20.6875 L 14 13.25 C 14.621094 13.082031 15.285156 13 16 13 Z"/></svg>