<svg xmlns="http://www.w3.org/2000/svg" viewBox="0 0 32 32"><path d="M 10.4375 5 C 7.617188 5 5.34375 7.25 5.34375 7.25 L 5 7.5625 L 5 15 L 6.4375 15 L 6.71875 14.78125 C 6.902344 14.636719 7.484375 14.171875 8.21875 13.75 C 8.953125 13.328125 9.824219 13 10.4375 13 C 11.277344 13 11.984375 13.214844 12.84375 13.46875 C 13.703125 13.722656 14.714844 14 16 14 C 17.285156 14 18.257813 13.71875 19.09375 13.46875 C 19.929688 13.21875 20.632813 13 21.5625 13 C 22.300781 13 23.1875 13.351563 23.90625 13.78125 C 24.625 14.210938 25.117188 14.636719 25.25 14.75 L 25.53125 15 L 27 15 L 27 7.5625 L 26.65625 7.25 C 26.65625 7.25 24.382813 5 21.5625 5 C 20.300781 5 19.332031 5.28125 18.5 5.53125 C 17.667969 5.78125 16.960938 6 16 6 C 15.039063 6 14.332031 5.78125 13.5 5.53125 C 12.667969 5.28125 11.699219 5 10.4375 5 Z M 10.4375 7 C 11.398438 7 12.105469 7.21875 12.9375 7.46875 C 13.769531 7.71875 14.738281 8 16 8 C 17.261719 8 18.230469 7.71875 19.0625 7.46875 C 19.894531 7.21875 20.601563 7 21.5625 7 C 22.960938 7 24.535156 8.144531 25 8.5 L 25 9.15625 C 24.941406 9.121094 24.90625 9.097656 24.84375 9.0625 C 23.964844 8.539063 22.800781 8 21.5625 8 C 20.402344 8 19.519531 8.28125 18.6875 8.53125 C 17.855469 8.78125 17.0625 9 16 9 C 14.9375 9 14.101563 8.78125 13.25 8.53125 C 12.398438 8.28125 11.527344 8 10.4375 8 C 9.265625 8 8.117188 8.542969 7.21875 9.0625 C 7.125 9.117188 7.085938 9.164063 7 9.21875 L 7 8.5 C 7.464844 8.144531 9.039063 7 10.4375 7 Z M 10.4375 9 C 11.359375 9 12.113281 9.21875 12.96875 9.46875 C 13.824219 9.71875 14.789063 10 16 10 C 17.210938 10 18.132813 9.71875 18.96875 9.46875 C 19.804688 9.21875 20.554688 9 21.5625 9 C 22.492188 9 23.542969 9.460938 24.34375 9.9375 C 24.613281 10.097656 24.804688 10.234375 25 10.375 L 25 12.09375 C 24.96875 12.074219 24.96875 12.082031 24.9375 12.0625 C 24.050781 11.535156 22.890625 11 21.5625 11 C 20.324219 11 19.363281 11.28125 18.53125 11.53125 C 17.699219 11.78125 16.992188 12 16 12 C 15.007813 12 14.253906 11.777344 13.40625 11.53125 C 12.558594 11.285156 11.609375 11 10.4375 11 C 9.203125 11 8.105469 11.523438 7.21875 12.03125 C 7.105469 12.097656 7.105469 12.121094 7 12.1875 L 7 10.40625 C 7.21875 10.261719 7.421875 10.109375 7.71875 9.9375 C 8.542969 9.457031 9.597656 9 10.4375 9 Z M 10.4375 17 C 7.617188 17 5.34375 19.25 5.34375 19.25 L 5 19.5625 L 5 27 L 6.4375 27 L 6.71875 26.78125 C 6.902344 26.636719 7.484375 26.171875 8.21875 25.75 C 8.953125 25.328125 9.824219 25 10.4375 25 C 11.277344 25 11.984375 25.214844 12.84375 25.46875 C 13.703125 25.722656 14.714844 26 16 26 C 17.285156 26 18.257813 25.71875 19.09375 25.46875 C 19.929688 25.21875 20.632813 25 21.5625 25 C 22.300781 25 23.1875 25.351563 23.90625 25.78125 C 24.625 26.210938 25.117188 26.636719 25.25 26.75 L 25.53125 27 L 27 27 L 27 19.5625 L 26.65625 19.25 C 26.65625 19.25 24.382813 17 21.5625 17 C 20.300781 17 19.332031 17.28125 18.5 17.53125 C 17.667969 17.78125 16.960938 18 16 18 C 15.039063 18 14.332031 17.78125 13.5 17.53125 C 12.667969 17.28125 11.699219 17 10.4375 17 Z M 10.4375 19 C 11.398438 19 12.105469 19.21875 12.9375 19.46875 C 13.769531 19.71875 14.738281 20 16 20 C 17.261719 20 18.230469 19.71875 19.0625 19.46875 C 19.894531 19.21875 20.601563 19 21.5625 19 C 22.960938 19 24.535156 20.144531 25 20.5 L 25 22.15625 C 24.941406 22.121094 24.90625 22.097656 24.84375 22.0625 C 23.964844 21.539063 22.800781 21 21.5625 21 C 20.402344 21 19.519531 21.28125 18.6875 21.53125 C 17.855469 21.78125 17.0625 22 16 22 C 14.9375 22 14.101563 21.78125 13.25 21.53125 C 12.398438 21.28125 11.527344 21 10.4375 21 C 9.265625 21 8.117188 21.542969 7.21875 22.0625 C 7.125 22.117188 7.085938 22.164063 7 22.21875 L 7 20.5 C 7.464844 20.144531 9.039063 19 10.4375 19 Z M 10.4375 22 C 11.359375 22 12.113281 22.21875 12.96875 22.46875 C 13.824219 22.71875 14.789063 23 16 23 C 17.210938 23 18.132813 22.71875 18.96875 22.46875 C 19.804688 22.21875 20.554688 22 21.5625 22 C 22.492188 22 23.542969 22.460938 24.34375 22.9375 C 24.613281 23.097656 24.804688 23.234375 25 23.375 L 25 24.09375 C 24.96875 24.074219 24.96875 24.082031 24.9375 24.0625 C 24.050781 23.535156 22.890625 23 21.5625 23 C 20.324219 23 19.363281 23.28125 18.53125 23.53125 C 17.699219 23.78125 16.992188 24 16 24 C 15.007813 24 14.253906 23.777344 13.40625 23.53125 C 12.558594 23.285156 11.609375 23 10.4375 23 C 9.203125 23 8.105469 23.523438 7.21875 24.03125 C 7.105469 24.097656 7.105469 24.121094 7 24.1875 L 7 23.40625 C 7.21875 23.261719 7.421875 23.109375 7.71875 22.9375 C 8.542969 22.457031 9.597656 22 10.4375 22 Z"/></svg>