<svg xmlns="http://www.w3.org/2000/svg" viewBox="0 0 32 32"><path d="M 19.5 5 C 17.578125 5 16 6.578125 16 8.5 C 16 10.421875 17.578125 12 19.5 12 C 21.421875 12 23 10.421875 23 8.5 C 23 6.578125 21.421875 5 19.5 5 Z M 19.5 7 C 20.339844 7 21 7.660156 21 8.5 C 21 9.339844 20.339844 10 19.5 10 C 18.660156 10 18 9.339844 18 8.5 C 18 7.660156 18.660156 7 19.5 7 Z M 15.09375 10.53125 C 14.585938 10.582031 14.09375 10.832031 13.75 11.25 L 11.40625 14.09375 C 10.597656 15.078125 10.949219 16.632813 12.09375 17.1875 L 15.53125 18.875 L 14.625 23.875 L 16.59375 24.21875 L 17.65625 18.46875 L 17.78125 17.71875 L 17.09375 17.375 L 12.9375 15.375 L 15.3125 12.5 L 19.375 15.78125 L 19.65625 16 L 25 16 L 25 14 L 20.34375 14 L 16.5625 10.96875 C 16.140625 10.628906 15.601563 10.480469 15.09375 10.53125 Z M 8.5 18 C 6.03125 18 4 20.03125 4 22.5 C 4 24.96875 6.03125 27 8.5 27 C 10.96875 27 13 24.96875 13 22.5 C 13 20.03125 10.96875 18 8.5 18 Z M 23.5 18 C 21.03125 18 19 20.03125 19 22.5 C 19 24.96875 21.03125 27 23.5 27 C 25.96875 27 28 24.96875 28 22.5 C 28 20.03125 25.96875 18 23.5 18 Z M 8.5 20 C 9.878906 20 11 21.121094 11 22.5 C 11 23.878906 9.878906 25 8.5 25 C 7.121094 25 6 23.878906 6 22.5 C 6 21.121094 7.121094 20 8.5 20 Z M 23.5 20 C 24.878906 20 26 21.121094 26 22.5 C 26 23.878906 24.878906 25 23.5 25 C 22.121094 25 21 23.878906 21 22.5 C 21 21.121094 22.121094 20 23.5 20 Z"/></svg>