<svg xmlns="http://www.w3.org/2000/svg" viewBox="0 0 32 32"><path d="M 16 1.25 L 15.1875 2.4375 C 15.1875 2.4375 14.648438 3.191406 14.125 4.09375 C 13.863281 4.546875 13.617188 5.019531 13.40625 5.5 C 13.195313 5.980469 13 6.421875 13 7 C 13 8.644531 14.355469 10 16 10 C 17.644531 10 19 8.644531 19 7 C 19 6.421875 18.804688 5.980469 18.59375 5.5 C 18.382813 5.019531 18.136719 4.546875 17.875 4.09375 C 17.351563 3.191406 16.8125 2.4375 16.8125 2.4375 Z M 16 10 L 13 10 L 13 14 L 7 14 C 4.789063 14 3 15.789063 3 18 C 3 19.015625 3.375 19.949219 4 20.65625 L 4 28 L 28 28 L 28 20.65625 C 28.625 19.949219 29 19.015625 29 18 C 29 15.789063 27.210938 14 25 14 L 19 14 L 19 10 Z M 16 4.875 C 16.066406 4.984375 16.058594 4.976563 16.125 5.09375 C 16.363281 5.503906 16.617188 5.941406 16.78125 6.3125 C 16.945313 6.683594 17 7.027344 17 7 C 17 7.554688 16.554688 8 16 8 C 15.445313 8 15 7.554688 15 7 C 15 7.027344 15.054688 6.683594 15.21875 6.3125 C 15.382813 5.941406 15.636719 5.503906 15.875 5.09375 C 15.941406 4.976563 15.933594 4.984375 16 4.875 Z M 15 12 L 17 12 L 17 14 L 15 14 Z M 7 16 L 25 16 C 26.191406 16 27 16.808594 27 18 C 27 19.191406 26.191406 20 25 20 C 23.808594 20 23 19.191406 23 18 L 21 18 C 21 19.191406 20.191406 20 19 20 C 17.808594 20 17 19.191406 17 18 L 15 18 C 15 19.191406 14.191406 20 13 20 C 11.808594 20 11 19.191406 11 18 L 9 18 C 9 19.191406 8.191406 20 7 20 C 5.808594 20 5 19.191406 5 18 C 5 16.808594 5.808594 16 7 16 Z M 10 20.65625 C 10.734375 21.484375 11.804688 22 13 22 C 14.195313 22 15.265625 21.484375 16 20.65625 C 16.734375 21.484375 17.804688 22 19 22 C 20.195313 22 21.265625 21.484375 22 20.65625 C 22.734375 21.484375 23.804688 22 25 22 C 25.347656 22 25.679688 21.925781 26 21.84375 L 26 26 L 6 26 L 6 21.84375 C 6.320313 21.925781 6.652344 22 7 22 C 8.195313 22 9.265625 21.484375 10 20.65625 Z"/></svg>