<svg xmlns="http://www.w3.org/2000/svg" viewBox="0 0 32 32"><path d="M 16 5 C 13.707031 5 11.40625 5.296875 9.59375 5.78125 C 8.6875 6.023438 7.914063 6.277344 7.28125 6.65625 C 6.648438 7.035156 6 7.601563 6 8.5 C 6 8.722656 6.054688 8.941406 6.125 9.125 C 6.273438 9.886719 8.777344 22.925781 9.03125 24.1875 C 9.152344 24.789063 9.535156 25.234375 9.96875 25.5625 C 10.402344 25.890625 10.898438 26.136719 11.5 26.34375 C 12.703125 26.757813 14.25 27 16 27 C 17.75 27 19.289063 26.757813 20.5 26.34375 C 21.105469 26.136719 21.625 25.898438 22.0625 25.5625 C 22.5 25.226563 22.910156 24.785156 23 24.15625 C 23.019531 24.015625 23.210938 22.8125 23.5 21.3125 C 23.789063 19.8125 24.164063 17.933594 24.53125 16.0625 C 25.21875 12.542969 25.796875 9.519531 25.875 9.125 C 25.945313 8.941406 26 8.722656 26 8.5 C 26 7.601563 25.351563 7.035156 24.71875 6.65625 C 24.085938 6.277344 23.3125 6.023438 22.40625 5.78125 C 20.59375 5.296875 18.292969 5 16 5 Z M 16 7 C 18.125 7 20.320313 7.265625 21.90625 7.6875 C 22.699219 7.898438 23.320313 8.15625 23.6875 8.375 C 23.789063 8.4375 23.796875 8.460938 23.84375 8.5 C 23.796875 8.539063 23.789063 8.5625 23.6875 8.625 C 23.320313 8.84375 22.699219 9.101563 21.90625 9.3125 C 20.320313 9.734375 18.125 10 16 10 C 13.875 10 11.679688 9.734375 10.09375 9.3125 C 9.300781 9.101563 8.679688 8.84375 8.3125 8.625 C 8.210938 8.5625 8.203125 8.539063 8.15625 8.5 C 8.203125 8.460938 8.210938 8.4375 8.3125 8.375 C 8.679688 8.15625 9.300781 7.898438 10.09375 7.6875 C 11.679688 7.265625 13.875 7 16 7 Z M 8.46875 10.875 C 8.824219 11 9.1875 11.109375 9.59375 11.21875 C 11.40625 11.703125 13.707031 12 16 12 C 18.292969 12 20.59375 11.703125 22.40625 11.21875 C 22.8125 11.109375 23.175781 11 23.53125 10.875 C 23.253906 12.234375 23.039063 13.21875 22.5625 15.65625 C 22.328125 16.851563 22.144531 17.921875 21.9375 19.03125 C 21.925781 19.046875 21.914063 19.035156 21.8125 19.15625 C 21.671875 19.324219 21.414063 19.609375 21 19.875 C 20.171875 20.410156 18.675781 21 16 21 C 13.324219 21 11.800781 20.40625 10.96875 19.875 C 10.554688 19.609375 10.328125 19.355469 10.1875 19.1875 C 10.046875 19.019531 10.03125 19 10.03125 19 C 9.351563 15.492188 8.871094 12.960938 8.46875 10.875 Z M 16 13 C 14.355469 13 13 14.355469 13 16 C 13 17.644531 14.355469 19 16 19 C 17.644531 19 19 17.644531 19 16 C 19 14.355469 17.644531 13 16 13 Z M 16 15 C 16.5625 15 17 15.4375 17 16 C 17 16.5625 16.5625 17 16 17 C 15.4375 17 15 16.5625 15 16 C 15 15.4375 15.4375 15 16 15 Z M 10.59375 21.90625 C 11.796875 22.503906 13.511719 23 16 23 C 18.457031 23 20.175781 22.535156 21.375 21.9375 C 21.222656 22.695313 21.035156 23.59375 21 23.84375 C 20.980469 23.871094 20.925781 23.90625 20.84375 23.96875 C 20.660156 24.109375 20.335938 24.3125 19.875 24.46875 C 18.953125 24.78125 17.566406 25 16 25 C 14.433594 25 13.070313 24.785156 12.15625 24.46875 C 11.699219 24.3125 11.347656 24.117188 11.15625 23.96875 C 10.964844 23.820313 10.957031 23.75 10.96875 23.8125 C 10.9375 23.664063 10.691406 22.398438 10.59375 21.90625 Z"/></svg>