<svg xmlns="http://www.w3.org/2000/svg" viewBox="0 0 32 32"><path d="M 5 6 C 3.355469 6 2 7.355469 2 9 L 2 23 C 2 24.644531 3.355469 26 5 26 L 27 26 C 28.644531 26 30 24.644531 30 23 L 30 9 C 30 7.355469 28.644531 6 27 6 Z M 5 8 L 27 8 C 27.566406 8 28 8.433594 28 9 L 28 23 C 28 23.566406 27.566406 24 27 24 L 5 24 C 4.433594 24 4 23.566406 4 23 L 4 9 C 4 8.433594 4.433594 8 5 8 Z M 10.4375 14.15625 C 9.8125 14.15625 9.34375 14.609375 9.34375 15.1875 C 9.34375 15.671875 9.574219 15.914063 10.21875 16.15625 C 10.59375 16.296875 10.90625 16.378906 10.90625 16.71875 C 10.90625 17.003906 10.683594 17.21875 10.375 17.21875 C 10.046875 17.21875 9.78125 17.058594 9.625 16.75 L 9.15625 17.15625 C 9.472656 17.621094 9.882813 17.84375 10.40625 17.84375 C 11.121094 17.84375 11.59375 17.371094 11.59375 16.6875 C 11.59375 16.125 11.375 15.847656 10.59375 15.5625 C 10.179688 15.410156 10.0625 15.316406 10.0625 15.125 C 10.0625 14.902344 10.265625 14.75 10.5625 14.75 C 10.769531 14.75 10.945313 14.832031 11.125 15.03125 L 11.5 14.5625 C 11.203125 14.304688 10.824219 14.15625 10.4375 14.15625 Z M 13.6875 14.15625 C 12.644531 14.160156 11.8125 14.972656 11.8125 16 C 11.8125 17.035156 12.640625 17.84375 13.6875 17.84375 C 13.984375 17.84375 14.25 17.773438 14.5625 17.625 L 14.5625 16.8125 C 14.289063 17.085938 14.03125 17.1875 13.71875 17.1875 C 13.027344 17.1875 12.53125 16.683594 12.53125 15.96875 C 12.53125 15.292969 13.042969 14.78125 13.6875 14.78125 C 14.015625 14.78125 14.277344 14.875 14.5625 15.15625 L 14.5625 14.34375 C 14.261719 14.191406 13.984375 14.15625 13.6875 14.15625 Z M 16.59375 14.15625 C 15.578125 14.15625 14.75 14.984375 14.75 16 C 14.75 17.015625 15.578125 17.84375 16.59375 17.84375 C 17.609375 17.84375 18.4375 17.015625 18.4375 16 C 18.4375 14.984375 17.609375 14.15625 16.59375 14.15625 Z M 5 14.21875 L 5 17.75 L 6 17.75 C 7.535156 17.75 7.90625 16.550781 7.90625 16 C 7.90625 14.960938 7.117188 14.21875 6 14.21875 Z M 8.21875 14.21875 L 8.21875 17.75 L 8.90625 17.75 L 8.90625 14.21875 Z M 18.3125 14.21875 L 19.8125 17.84375 L 20.1875 17.84375 L 21.71875 14.21875 L 20.96875 14.21875 L 20 16.59375 L 19.0625 14.21875 Z M 22.03125 14.21875 L 22.03125 17.75 L 23.96875 17.75 L 23.96875 17.15625 L 22.71875 17.15625 L 22.71875 16.1875 L 23.9375 16.1875 L 23.9375 15.59375 L 22.71875 15.59375 L 22.71875 14.8125 L 23.96875 14.8125 L 23.96875 14.21875 Z M 24.4375 14.21875 L 24.4375 17.75 L 25.125 17.75 L 25.125 16.34375 L 25.1875 16.34375 L 26.15625 17.75 L 27 17.75 L 25.875 16.25 C 26.394531 16.144531 26.6875 15.789063 26.6875 15.25 C 26.6875 14.589844 26.230469 14.21875 25.4375 14.21875 Z M 25.125 14.78125 L 25.3125 14.78125 C 25.742188 14.78125 26 14.96875 26 15.3125 C 26 15.667969 25.753906 15.84375 25.3125 15.84375 L 25.125 15.84375 Z M 5.6875 14.8125 L 5.90625 14.8125 C 6.84375 14.8125 7.1875 15.445313 7.1875 16 C 7.1875 16.265625 7.113281 17.15625 5.875 17.15625 L 5.6875 17.15625 Z"/></svg>