<svg xmlns="http://www.w3.org/2000/svg" viewBox="0 0 32 32"><path d="M 16 2 C 14.742188 2 13.847656 2.890625 13.40625 4 L 5 4 L 5 29 L 27 29 L 27 4 L 18.59375 4 C 18.152344 2.890625 17.257813 2 16 2 Z M 16 4 C 16.554688 4 17 4.445313 17 5 L 17 6 L 20 6 L 20 8 L 12 8 L 12 6 L 15 6 L 15 5 C 15 4.445313 15.445313 4 16 4 Z M 7 6 L 10 6 L 10 10 L 22 10 L 22 6 L 25 6 L 25 27 L 7 27 Z M 21.28125 13.28125 L 15 19.5625 L 11.71875 16.28125 L 10.28125 17.71875 L 14.28125 21.71875 L 15 22.40625 L 15.71875 21.71875 L 22.71875 14.71875 Z"/></svg>