<svg xmlns="http://www.w3.org/2000/svg" viewBox="0 0 32 32"><path d="M 20.275391 7.0019531 C 19.400219 6.9864219 18.574719 7.0967813 17.886719 7.3007812 C 15.013719 8.1607812 13.670156 9.9344219 12.910156 12.732422 C 12.525156 12.863422 11.589062 13.168922 10.664062 13.919922 C 10.467063 14.073922 10.216797 14.287719 9.9667969 14.511719 C 9.9817969 14.567719 10 14.619688 10 14.679688 L 10 16.5 C 10 16.776 9.776 17 9.5 17 L 7.5 17 C 7.224 17 7 16.776 7 16.5 L 7 16 L 6.5 16 C 6.224 16 6 16.224 6 16.5 L 6 18.490234 C 6 18.766234 6.224 18.990234 6.5 18.990234 L 8.3300781 18.990234 C 8.4350781 18.990234 8.5311406 18.960969 8.6191406 18.917969 L 8.6972656 19.283203 C 9.3052656 22.442203 12.147016 24.578859 15.916016 24.380859 C 18.481016 26.524859 22.763234 26.643422 25.240234 24.107422 C 28.708234 24.161422 31.172266 21.898734 31.822266 19.177734 C 32.571266 16.086734 30.921656 12.624906 27.222656 11.503906 C 25.984406 8.2384062 22.900906 7.0485469 20.275391 7.0019531 z M 9.5 8 C 9.225 8 9 8.225 9 8.5 L 9 9.5 C 9 9.775 9.225 10 9.5 10 L 10.5 10 C 10.775 10 11 9.775 11 9.5 L 11 8.5 C 11 8.225 10.775 8 10.5 8 L 9.5 8 z M 0.5 10 C 0.225 10 0 10.225 0 10.5 L 0 11.5 C 0 11.775 0.225 12 0.5 12 L 1.5 12 C 1.775 12 2 11.775 2 11.5 L 2 10.5 C 2 10.225 1.775 10 1.5 10 L 0.5 10 z M 4.5 10 C 4.224 10 4 10.224 4 10.5 L 4 13.486328 C 4 13.762328 4.224 13.986328 4.5 13.986328 L 7.5 13.986328 C 7.776 13.986328 8 13.762328 8 13.486328 L 8 10.5 C 8 10.224 7.776 10 7.5 10 L 4.5 10 z M 20.824219 10 C 21.126176 10.001842 21.439953 10.022953 21.767578 10.064453 C 25.427578 10.529453 28.773984 14.222859 25.333984 17.630859 C 27.180984 16.811859 27.875641 14.898531 27.806641 13.769531 L 28.359375 14.753906 C 28.983375 15.860906 29.157422 17.143094 28.857422 18.371094 C 28.372422 20.329094 26.721016 21.834656 24.666016 22.222656 C 22.992016 22.532656 20.313563 21.988578 19.851562 19.267578 C 19.297563 21.590578 20.994719 22.886469 22.761719 23.605469 C 17.126719 25.309469 13.755156 21.139859 15.660156 18.130859 C 13.917156 19.214859 13.881047 21.612984 14.123047 22.708984 C 13.176047 22.089984 11.294375 21.083359 11.109375 18.693359 C 10.947375 16.691359 12.241609 14.88775 14.099609 13.96875 C 15.704609 13.17175 19.527375 13.380422 21.109375 15.857422 C 20.370375 13.445422 18.292391 12.497625 15.775391 12.265625 C 17.190266 10.91025 18.71052 9.9871074 20.824219 10 z M 1.5 15 C 1.225 15 1 15.225 1 15.5 L 1 16.5 C 1 16.776 1.224 17 1.5 17 L 2.5 17 C 2.776 17 3 16.776 3 16.5 L 3 15.5 C 3 15.224 2.776 15 2.5 15 L 1.5 15 z"/></svg>