<svg xmlns="http://www.w3.org/2000/svg" viewBox="0 0 32 32"><path d="M 9.15625 4.1875 L 8.875 4.6875 L 2.625 15.59375 L 2.34375 16.09375 L 2.625 16.59375 L 8.875 27.5 L 9.15625 28 L 22.84375 28 L 23.125 27.5 L 29.375 16.59375 L 29.65625 16.09375 L 29.375 15.59375 L 23.125 4.6875 L 22.84375 4.1875 Z M 11.59375 6.1875 L 17.71875 6.1875 L 13.15625 7.8125 Z M 20.71875 6.1875 L 16.125 10.875 L 13.9375 8.59375 Z M 10.28125 6.28125 L 12.15625 8.1875 L 10.25 8.875 L 10.25 6.34375 Z M 21.8125 6.46875 L 24.4375 11 L 20.40625 15.28125 L 16.84375 11.59375 Z M 9.25 8.09375 L 9.25 9.21875 L 8.4375 9.5 Z M 12.90625 8.96875 L 15.4375 11.59375 L 11.71875 15.375 L 10.25 13.8125 L 10.25 9.9375 Z M 9.25 10.28125 L 9.25 12.75 L 7.59375 10.96875 L 7.65625 10.84375 Z M 7.0625 11.875 L 9.25 14.21875 L 9.25 17.9375 L 7.03125 20.21875 L 4.65625 16.09375 Z M 24.875 12 L 23.5 18.46875 L 21.09375 16 Z M 16.125 12.3125 L 19.71875 16 L 16 19.9375 L 12.40625 16.125 Z M 25.65625 13.15625 L 27.34375 16.09375 L 25.0625 20.0625 L 24.375 19.34375 Z M 10.25 15.28125 L 11.03125 16.09375 L 10.25 16.90625 Z M 20.40625 16.71875 L 23.28125 19.65625 L 22.9375 21.25 L 17.21875 21.25 L 16.6875 20.6875 Z M 11.71875 16.84375 L 15.3125 20.6875 L 14.75 21.25 L 10.25 21.25 L 10.25 18.3125 Z M 9.25 19.34375 L 9.25 21.25 L 7.625 21.25 L 7.53125 21.125 Z M 24.125 20.53125 L 24.53125 20.96875 L 24.375 21.25 L 23.96875 21.25 Z M 8.1875 22.25 L 9.25 22.25 L 9.25 24.09375 Z M 10.25 22.25 L 13.8125 22.25 L 10.3125 25.96875 L 10.25 25.84375 Z M 15.1875 22.25 L 16.78125 22.25 L 20.28125 26 L 11.65625 26 Z M 18.15625 22.25 L 22.71875 22.25 L 22.09375 25.25 L 21.65625 26 Z M 23.75 22.25 L 23.8125 22.25 L 23.71875 22.40625 Z"/></svg>