<svg xmlns="http://www.w3.org/2000/svg" viewBox="0 0 32 32"><path d="M 16 3 C 8.832 3 3 8.832 3 16 C 3 23.168 8.832 29 16 29 C 23.168 29 29 23.168 29 16 C 29 8.832 23.168 3 16 3 z M 16 5 C 22.065 5 27 9.935 27 16 C 27 17.238499 26.78347 18.425251 26.404297 19.537109 L 17.552734 15.595703 L 21 11 L 18.625 11 L 16 14.3125 L 13.53125 11 L 11.15625 11 L 13.125 13.625 L 6.4082031 10.634766 C 8.2938562 7.2776415 11.88351 5 16 5 z M 5.5957031 12.462891 L 13 15.759766 L 13 18 L 15 18 L 15 19 L 13 19 L 13 21 L 15 21 L 15 22 L 17 22 L 17 21 L 19 21 L 19 19 L 17 19 L 17 18 L 18.033203 18 L 25.591797 21.365234 C 23.706144 24.722359 20.11649 27 16 27 C 9.935 27 5 22.065 5 16 C 5 14.761501 5.2165305 13.574749 5.5957031 12.462891 z"/></svg>