<svg xmlns="http://www.w3.org/2000/svg" viewBox="0 0 32 32"><path d="M 19.650391 4.0039062 C 17.511641 4.0039062 15.372141 4.8173125 13.744141 6.4453125 C 12.176141 8.0133125 10.334484 12.400375 8.2714844 19.484375 L 6.6757812 21.080078 C 6.4537813 21.026078 6.2270469 21 5.9980469 21 C 4.3440469 21 2.9980469 22.346 2.9980469 24 C 2.9980469 25.351 3.8989063 26.497094 5.1289062 26.871094 C 5.5029063 28.102094 6.6460469 29 7.9980469 29 C 9.6520469 29 10.999047 27.654 10.998047 26 C 10.998047 25.771 10.970969 25.544266 10.917969 25.322266 L 12.513672 23.728516 C 14.280672 23.214516 16.781234 22.444078 19.115234 21.580078 L 20.267578 21.152344 L 19.617188 20.111328 C 19.214187 19.466328 19 18.736 19 18 C 19 15.794 20.794 14 23 14 C 24.108 14 25.143062 14.454297 25.914062 15.279297 L 27.076172 16.525391 L 27.597656 14.900391 C 28.556656 11.904391 27.773688 8.6653125 25.554688 6.4453125 C 23.926688 4.8173125 21.789141 4.0039062 19.650391 4.0039062 z M 19.648438 6.0039062 C 21.274813 6.0036563 22.900172 6.621375 24.138672 7.859375 C 25.460672 9.182375 26.113469 10.983828 25.980469 12.798828 C 25.084469 12.276828 24.065 12 23 12 C 19.691 12 17 14.691 17 18 C 17 18.709 17.129859 19.413078 17.380859 20.080078 C 15.783575 20.641786 14.252147 21.116531 12.912109 21.517578 L 10.480469 19.085938 C 12.261878 13.143372 13.950469 9.0660927 15.15625 7.859375 C 16.39425 6.622375 18.022062 6.0041562 19.648438 6.0039062 z M 9.5742188 21.007812 L 10.990234 22.423828 L 8.5292969 24.884766 L 8.875 25.537109 C 8.957 25.691109 8.9980469 25.847 8.9980469 26 C 8.9980469 26.551 8.5500469 27 7.9980469 27 C 7.4460469 27 6.9980469 26.551 6.9980469 26 L 6.9980469 25 L 5.9980469 25 C 5.4460469 25 4.9980469 24.551 4.9980469 24 C 4.9980469 23.449 5.4460469 23 5.9980469 23 C 6.1510469 23 6.3079375 23.042047 6.4609375 23.123047 L 7.1132812 23.470703 L 9.5742188 21.007812 z"/></svg>