<svg xmlns="http://www.w3.org/2000/svg" viewBox="0 0 32 32"><path d="M 16 4 C 9.382813 4 4 9.382813 4 16 C 4 22.617188 9.382813 28 16 28 C 22.617188 28 28 22.617188 28 16 C 28 9.382813 22.617188 4 16 4 Z M 16 6 C 21.535156 6 26 10.464844 26 16 C 26 21.535156 21.535156 26 16 26 C 10.464844 26 6 21.535156 6 16 C 6 10.464844 10.464844 6 16 6 Z M 16.03125 7.84375 C 13.59375 7.890625 11.625 9.894531 11.625 12.34375 L 11.625 13.5625 C 11.625 13.773438 11.789063 13.9375 12 13.9375 L 12.9375 13.9375 C 13.148438 13.9375 13.3125 13.773438 13.3125 13.5625 L 13.3125 12.34375 C 13.3125 10.820313 14.480469 9.523438 16 9.46875 C 17.597656 9.410156 18.9375 10.695313 18.9375 12.28125 L 18.9375 13.5625 C 18.9375 13.773438 19.101563 13.9375 19.3125 13.9375 L 20.21875 13.9375 C 20.429688 13.9375 20.59375 13.773438 20.59375 13.5625 L 20.59375 12.40625 C 20.59375 9.890625 18.546875 7.796875 16.03125 7.84375 Z M 10.4375 14.34375 C 9.976563 14.34375 9.59375 14.695313 9.59375 15.15625 L 9.59375 21.625 C 9.59375 22.085938 9.976563 22.4375 10.4375 22.4375 L 21.75 22.4375 C 22.210938 22.4375 22.59375 22.085938 22.59375 21.625 L 22.59375 15.15625 C 22.59375 14.695313 22.210938 14.34375 21.75 14.34375 Z M 10.59375 15.15625 L 10.96875 15.15625 C 11.070313 15.15625 11.15625 15.242188 11.15625 15.34375 L 11.15625 21.46875 C 11.15625 21.570313 11.070313 21.65625 10.96875 21.65625 L 10.59375 21.65625 C 10.492188 21.65625 10.40625 21.570313 10.40625 21.46875 L 10.40625 15.34375 C 10.40625 15.242188 10.492188 15.15625 10.59375 15.15625 Z M 16.0625 15.96875 C 16.941406 15.96875 17.65625 16.683594 17.65625 17.5625 C 17.65625 18.152344 17.347656 18.660156 16.875 18.9375 L 16.875 20.4375 C 16.875 20.65625 16.6875 20.8125 16.46875 20.8125 L 15.65625 20.8125 C 15.4375 20.8125 15.25 20.65625 15.25 20.4375 L 15.25 18.9375 C 14.777344 18.660156 14.46875 18.152344 14.46875 17.5625 C 14.46875 16.683594 15.183594 15.96875 16.0625 15.96875 Z"/></svg>