<svg xmlns="http://www.w3.org/2000/svg" viewBox="0 0 32 32"><path d="M 6 3 L 6 29 L 26 29 L 26 9.5996094 L 25.699219 9.3007812 L 19.699219 3.3007812 L 19.400391 3 L 6 3 z M 8 5 L 18 5 L 18 11 L 24 11 L 24 27 L 8 27 L 8 5 z M 20 6.4003906 L 22.599609 9 L 20 9 L 20 6.4003906 z M 13 13 L 13 15 L 17 15 C 18.2 15 19 15.8 19 17 C 19 18.2 18.2 19 17 19 C 15.8 19 15 18.2 15 17 L 13 17 L 13 24 L 15 24 L 15 20.400391 C 15.6 20.800391 16.3 21 17 21 C 19.2 21 21 19.2 21 17 C 21 14.8 19.2 13 17 13 L 13 13 z"/></svg>