<svg xmlns="http://www.w3.org/2000/svg" viewBox="0 0 32 32"><path d="M 6 3 L 6 29 L 22 29 L 22 27 L 8 27 L 8 5 L 18 5 L 18 11 L 24 11 L 24 13 L 26 13 L 26 9.5996094 L 25.699219 9.3007812 L 19.699219 3.3007812 L 19.400391 3 L 6 3 z M 20 6.4003906 L 22.599609 9 L 20 9 L 20 6.4003906 z M 10 13 L 10 15 L 22 15 L 22 13 L 10 13 z M 27 15 L 27 17 C 25.3 17.3 24 18.7 24 20.5 C 24 22.5 25.5 24 27.5 24 L 28.5 24 C 29.3 24 30 24.7 30 25.5 C 30 26.3 29.3 27 28.5 27 L 25 27 L 25 29 L 27 29 L 27 31 L 29 31 L 29 29 C 30.7 28.7 32 27.3 32 25.5 C 32 23.5 30.5 22 28.5 22 L 27.5 22 C 26.7 22 26 21.3 26 20.5 C 26 19.7 26.7 19 27.5 19 L 31 19 L 31 17 L 29 17 L 29 15 L 27 15 z M 10 18 L 10 20 L 17 20 L 17 18 L 10 18 z M 19 18 L 19 20 L 22 20 L 22 18 L 19 18 z M 10 22 L 10 24 L 17 24 L 17 22 L 10 22 z M 19 22 L 19 24 L 22 24 L 22 22 L 19 22 z"/></svg>