<svg xmlns="http://www.w3.org/2000/svg" viewBox="0 0 32 32"><path d="M 16 4 C 15.738281 4 15.503906 4.015625 15.25 4.03125 C 13.84375 4.109375 12.46875 4.398438 11.1875 4.90625 L 11.9375 6.78125 C 13.015625 6.351563 14.152344 6.097656 15.34375 6.03125 C 15.550781 6.019531 15.773438 6 16 6 C 17.882813 6 19.664063 6.476563 21.21875 7.3125 L 22.15625 5.5625 C 20.320313 4.574219 18.21875 4 16 4 Z M 9.5 5.71875 C 8.324219 6.398438 7.242188 7.273438 6.3125 8.3125 C 5.898438 8.773438 5.535156 9.292969 5.1875 9.8125 C 4.804688 10.382813 4.472656 10.980469 4.1875 11.59375 L 6 12.40625 C 6.238281 11.890625 6.519531 11.394531 6.84375 10.90625 C 7.136719 10.464844 7.464844 10.042969 7.8125 9.65625 C 8.605469 8.769531 9.511719 8.042969 10.5 7.46875 Z M 23.96875 6.71875 L 22.75 8.3125 C 25.191406 10.207031 26.789063 13.09375 26.96875 16.40625 C 26.972656 16.46875 27.015625 17.015625 26.96875 17.9375 L 28.96875 18.0625 C 29.019531 17.058594 28.976563 16.398438 28.96875 16.28125 C 28.757813 12.378906 26.851563 8.953125 23.96875 6.71875 Z M 16 7 L 16 9 C 20.25 9 23.769531 12.3125 24 16.5625 C 24.007813 16.675781 24.128906 19.628906 23 23.1875 L 24.90625 23.78125 C 26.144531 19.878906 26.015625 16.75 26 16.46875 C 25.714844 11.175781 21.292969 7 16 7 Z M 14.15625 7.15625 C 12.003906 7.550781 10.050781 8.652344 8.5625 10.3125 C 8.242188 10.667969 7.925781 11.066406 7.65625 11.46875 L 7.6875 11.46875 L 7.6875 11.5 C 6.519531 13.261719 5.902344 15.300781 6 17.40625 C 6 17.425781 6 17.449219 6 17.46875 L 6 17.96875 L 8 18.03125 L 8 17.375 C 7.910156 15.660156 8.382813 14 9.34375 12.5625 C 9.554688 12.242188 9.777344 11.9375 10.03125 11.65625 C 11.230469 10.316406 12.8125 9.441406 14.53125 9.125 Z M 15.59375 10 C 14.003906 10.085938 12.523438 10.722656 11.34375 11.78125 L 12.65625 13.28125 C 13.503906 12.519531 14.582031 12.0625 15.71875 12 C 15.824219 11.992188 15.902344 12 16 12 C 16.582031 12 17.140625 12.097656 17.65625 12.28125 L 18.34375 10.40625 C 17.617188 10.148438 16.808594 10 16 10 C 15.855469 10 15.730469 9.992188 15.59375 10 Z M 19.875 11.15625 L 18.78125 12.84375 C 20.050781 13.691406 20.910156 15.078125 21 16.71875 L 23 16.625 C 22.875 14.34375 21.652344 12.339844 19.875 11.15625 Z M 15.78125 13 C 14.726563 13.058594 13.738281 13.554688 13.03125 14.34375 C 12.324219 15.132813 11.941406 16.160156 12 17.21875 C 12 17.214844 12.050781 18.34375 11.59375 19.65625 C 11.136719 20.96875 10.222656 22.449219 8.25 23.40625 C 8.25 23.40625 7.957031 23.539063 7.625 23.6875 C 7.292969 23.835938 6.875 24.007813 6.78125 24.03125 L 7.21875 25.96875 C 7.664063 25.867188 8.09375 25.667969 8.46875 25.5 C 8.84375 25.332031 9.125 25.1875 9.125 25.1875 C 11.625 23.976563 12.886719 21.980469 13.46875 20.3125 C 14.050781 18.644531 14.007813 17.316406 14 17.125 L 14 17.09375 C 13.96875 16.554688 14.136719 16.058594 14.5 15.65625 C 14.863281 15.25 15.347656 15.027344 15.875 15 C 15.925781 14.996094 15.964844 15 16 15 L 16 13 C 15.917969 13 15.851563 12.996094 15.78125 13 Z M 10.15625 13.125 C 9.328125 14.363281 8.925781 15.839844 9 17.34375 C 9 17.355469 9 17.363281 9 17.375 C 9.003906 17.457031 9.089844 19.640625 6.9375 20.6875 C 6.890625 20.707031 6.144531 21 5 21 L 5 23 C 6.566406 23 7.75 22.53125 7.75 22.53125 L 7.78125 22.53125 L 7.8125 22.5 C 11.035156 20.9375 11.003906 17.460938 11 17.28125 L 11 17.25 C 10.941406 16.160156 11.25 15.140625 11.84375 14.25 Z M 17.90625 13.46875 L 16.9375 15.25 C 17.53125 15.570313 17.960938 16.152344 18 16.875 C 18.007813 17.039063 18.285156 23.261719 13.375 27.21875 L 14.625 28.78125 C 20.34375 24.175781 20.027344 17.25 20 16.78125 C 19.925781 15.351563 19.097656 14.109375 17.90625 13.46875 Z M 16 16 C 15.449219 16 15 16.449219 15 17 C 15 17.023438 15 17.042969 15 17.0625 C 15 17.0625 15.117188 19.121094 14.09375 21.4375 L 15.90625 22.25 C 17.089844 19.574219 17.007813 17.171875 17 17 C 17 16.976563 17 16.957031 17 16.9375 C 16.964844 16.414063 16.53125 16 16 16 Z M 20.96875 17.9375 C 20.84375 19.96875 20.203125 24.132813 17.25 27.625 L 18.75 28.90625 C 22.113281 24.933594 22.828125 20.347656 22.96875 18.0625 Z M 13.5625 22.5 C 12.761719 23.847656 11.523438 25.144531 9.5625 26.09375 L 10.4375 27.90625 C 12.757813 26.78125 14.308594 25.136719 15.28125 23.5 Z"/></svg>