<svg xmlns="http://www.w3.org/2000/svg" viewBox="0 0 32 32"><path d="M 16 3 C 8.832031 3 3 8.832031 3 16 C 3 23.167969 8.832031 29 16 29 C 23.167969 29 29 23.167969 29 16 C 29 8.832031 23.167969 3 16 3 Z M 16 5 C 16.601563 5 17.175781 5.0625 17.75 5.15625 L 16 6.40625 L 14.25 5.15625 C 14.820313 5.066406 15.402344 5 16 5 Z M 11.8125 5.84375 L 15.40625 8.46875 L 16 8.90625 L 16.59375 8.46875 L 20.1875 5.84375 C 21.785156 6.507813 23.195313 7.523438 24.3125 8.8125 L 22.9375 13.09375 L 22.71875 13.78125 L 23.3125 14.1875 L 26.9375 16.84375 C 26.804688 18.605469 26.265625 20.257813 25.40625 21.6875 L 20.125 21.6875 L 19.90625 22.375 L 18.5 26.71875 C 17.699219 26.90625 16.859375 27 16 27 C 15.105469 27 14.238281 26.886719 13.40625 26.6875 L 12.03125 22.40625 L 11.8125 21.71875 L 6.59375 21.71875 C 5.71875 20.28125 5.199219 18.621094 5.0625 16.84375 L 8.65625 14.21875 L 9.25 13.8125 L 9.03125 13.125 L 7.625 8.875 C 8.75 7.554688 10.183594 6.515625 11.8125 5.84375 Z M 16 10.09375 L 15.40625 10.53125 L 10.84375 13.84375 L 10.28125 14.28125 L 10.5 14.96875 L 12.25 20.3125 L 12.46875 21 L 19.53125 21 L 19.75 20.3125 L 21.5 14.96875 L 21.71875 14.28125 L 21.15625 13.84375 L 16.59375 10.53125 Z M 25.75 10.90625 C 26.296875 11.953125 26.65625 13.101563 26.84375 14.3125 L 25.0625 13.03125 Z M 6.21875 10.96875 L 6.90625 13.03125 L 5.15625 14.3125 C 5.339844 13.125 5.6875 12 6.21875 10.96875 Z M 16 12.59375 L 19.375 15.03125 L 18.09375 19 L 13.90625 19 L 12.625 15.03125 Z M 21.59375 23.6875 L 23.84375 23.6875 C 22.992188 24.566406 22.011719 25.292969 20.90625 25.84375 Z M 8.15625 23.71875 L 10.34375 23.71875 L 11.03125 25.8125 C 9.960938 25.269531 8.988281 24.5625 8.15625 23.71875 Z"/></svg>