<svg xmlns="http://www.w3.org/2000/svg" viewBox="0 0 32 32"><path d="M 5 5 L 5 27 L 27 27 L 27 5 L 5 5 z M 7 7 L 25 7 L 25 25 L 7 25 L 7 7 z M 15.908203 9 C 11.989203 9 9 11.974766 9 15.884766 C 9 19.017766 10.967203 21.699578 13.783203 22.642578 C 14.148203 22.706578 14.275391 22.482781 14.275391 22.300781 C 14.275391 22.126781 14.267578 21.159453 14.267578 20.564453 C 14.267578 20.564453 12.283094 20.991656 11.871094 19.722656 C 11.871094 19.722656 11.547891 18.905406 11.087891 18.691406 C 11.087891 18.691406 10.444766 18.247859 11.134766 18.255859 C 11.134766 18.255859 11.833656 18.312328 12.222656 18.986328 C 12.840656 20.081328 13.878203 19.762078 14.283203 19.580078 C 14.346203 19.128078 14.530328 18.810906 14.736328 18.628906 C 13.157328 18.454906 11.5625 18.224719 11.5625 15.511719 C 11.5625 14.733719 11.776516 14.345703 12.228516 13.845703 C 12.156516 13.662703 11.911781 12.901781 12.300781 11.925781 C 12.895781 11.742781 14.251953 12.6875 14.251953 12.6875 C 14.814953 12.5365 15.424344 12.449219 16.027344 12.449219 C 16.630344 12.449219 17.241688 12.5365 17.804688 12.6875 C 17.804688 12.6875 19.160859 11.743781 19.755859 11.925781 C 20.143859 12.909781 19.897172 13.663703 19.826172 13.845703 C 20.278172 14.345703 20.556641 14.734719 20.556641 15.511719 C 20.556641 18.239719 18.8905 18.454906 17.3125 18.628906 C 17.5745 18.850906 17.796875 19.2715 17.796875 19.9375 C 17.796875 20.8895 17.789062 22.072734 17.789062 22.302734 C 17.789063 22.484734 17.916438 22.705578 18.273438 22.642578 C 21.088437 21.698578 23 19.017766 23 15.884766 C 23 11.974766 19.827203 9 15.908203 9 z M 11.5625 18.486328 C 11.5065 18.470328 11.459359 18.479719 11.443359 18.511719 C 11.427359 18.543719 11.449859 18.589094 11.505859 18.621094 C 11.553859 18.645094 11.609 18.637656 11.625 18.597656 C 11.641 18.565656 11.6185 18.517328 11.5625 18.486328 z M 11.816406 18.722656 C 11.789656 18.716656 11.764141 18.720234 11.744141 18.740234 C 11.704141 18.772234 11.711766 18.834625 11.759766 18.890625 C 11.807766 18.930625 11.870156 18.954062 11.910156 18.914062 C 11.950156 18.882062 11.942531 18.819672 11.894531 18.763672 C 11.870531 18.743672 11.843156 18.728656 11.816406 18.722656 z M 12.113281 19.089844 C 12.084531 19.079844 12.053297 19.081656 12.029297 19.097656 C 11.981297 19.129656 11.981297 19.202625 12.029297 19.265625 C 12.077297 19.328625 12.149453 19.360125 12.189453 19.328125 C 12.236453 19.296125 12.236453 19.216297 12.189453 19.154297 C 12.169453 19.122297 12.142031 19.099844 12.113281 19.089844 z M 12.4375 19.486328 C 12.404875 19.482328 12.375469 19.493578 12.355469 19.517578 C 12.316469 19.557578 12.331531 19.635406 12.394531 19.691406 C 12.457531 19.755406 12.536172 19.764797 12.576172 19.716797 C 12.616172 19.684797 12.593109 19.597016 12.537109 19.541016 C 12.505609 19.509016 12.470125 19.490328 12.4375 19.486328 z M 12.982422 19.802734 C 12.911422 19.786734 12.824594 19.809234 12.808594 19.865234 C 12.792594 19.921234 12.848734 19.985953 12.927734 20.001953 C 12.998734 20.033953 13.085562 20.000312 13.101562 19.945312 C 13.125563 19.890312 13.069422 19.826734 12.982422 19.802734 z M 14.052734 19.828125 C 13.973734 19.844125 13.917781 19.899891 13.925781 19.962891 C 13.933781 20.017891 14.012797 20.049203 14.091797 20.033203 C 14.178797 20.017203 14.23475 19.96225 14.21875 19.90625 C 14.21075 19.85025 14.132734 19.819125 14.052734 19.828125 z M 13.529297 19.890625 C 13.441297 19.890625 13.378906 19.938141 13.378906 19.994141 C 13.378906 20.057141 13.442109 20.105656 13.537109 20.097656 C 13.625109 20.097656 13.6875 20.050141 13.6875 19.994141 C 13.6875 19.930141 13.609297 19.882625 13.529297 19.890625 z"/></svg>