<svg xmlns="http://www.w3.org/2000/svg" viewBox="0 0 32 32"><path d="M 16.035156 3 C 10.190156 3 7 8.7732188 7 13.074219 C 7 17.538219 9.8365313 20.011719 14.269531 20.011719 C 14.878531 20.011719 14.828125 19.961078 14.828125 20.205078 C 13.970125 26.751078 10.216797 26.964766 10.216797 25.009766 C 10.216797 23.018766 12.966188 22.524344 12.992188 22.402344 C 12.976188 21.782344 10.604 21 10 21 C 8.279 21.005 7 23.108156 7 24.535156 C 7 27.171156 8.5407969 29 11.216797 29 C 15.146797 29 18.021297 25.048234 18.904297 21.615234 C 19.671297 18.543234 19.473297 18.402594 19.904297 18.183594 C 21.539297 17.360594 22.824969 17.572266 24.667969 17.572266 C 25.571969 17.572266 26.216203 17.761 27.658203 18 C 27.805203 18 27.998047 17.853078 27.998047 17.705078 C 27.999047 17.299078 26.381 14.340359 26 14.193359 C 25.822 14.122359 25.41175 14 25.21875 14 C 23.33475 14 21.981578 14.384203 20.392578 15.283203 L 20.347656 15.238281 C 20.703656 12.836281 22 10.285266 22 7.8222656 C 22 4.1912656 19.600156 3 16.035156 3 z M 16.289062 5.828125 C 17.234063 5.828125 17.765625 6.218 17.765625 7 C 17.760625 7.726 17.628469 8.4463437 17.480469 9.1523438 C 17.008469 11.422344 16.076375 13.989766 15.609375 16.259766 C 15.492375 16.777766 14.934187 16.654297 14.492188 16.654297 C 12.547187 16.654297 12 14.532359 12 12.943359 C 12 10.556359 12.918578 7.3939219 15.142578 6.1699219 C 15.497578 5.9619219 15.893063 5.828125 16.289062 5.828125 z"/></svg>