<svg xmlns="http://www.w3.org/2000/svg" viewBox="0 0 32 32"><path d="M 5 5 L 5 27 L 27 27 L 27 5 L 5 5 z M 7 7 L 25 7 L 25 25 L 7 25 L 7 7 z M 15.921875 9 C 12.782875 9 11.193359 12.09825 11.193359 14.40625 C 11.193359 16.80125 12.593703 18.128906 14.970703 18.128906 C 15.298703 18.128906 15.273437 18.101516 15.273438 18.228516 C 14.813437 21.743516 12.800781 21.857641 12.800781 20.806641 C 12.800781 19.738641 14.026062 19.208578 14.039062 19.142578 C 14.030062 18.809578 12.755641 18.390625 12.431641 18.390625 C 11.507641 18.390625 11 19.835469 11 20.605469 C 11 22.019469 11.892031 23 13.332031 23 C 15.442031 23 16.983938 20.824328 17.460938 18.986328 C 17.872937 17.336328 17.766047 17.260578 17.998047 17.142578 C 18.874047 16.700578 19.223891 16.408203 20.212891 16.408203 C 20.698891 16.408203 21.045313 16.509719 21.820312 16.636719 C 21.899313 16.639719 22 16.560422 22 16.482422 C 22 16.259422 21.089766 14.832906 20.884766 14.753906 C 20.788766 14.714906 20.569844 14.652344 20.464844 14.652344 C 19.453844 14.652344 19.113766 15.11275 18.259766 15.59375 L 18.236328 15.570312 C 18.424328 14.283312 18.876953 13.066141 18.876953 11.744141 C 18.876953 9.7911406 17.834875 9 15.921875 9 z M 16.060547 10.515625 C 16.560547 10.515625 16.599609 10.878828 16.599609 11.298828 C 16.599609 11.683828 16.528219 12.072125 16.449219 12.453125 C 16.195219 13.670125 15.942359 14.896281 15.693359 16.113281 C 15.632359 16.389281 15.33075 16.328125 15.09375 16.328125 C 14.05175 16.328125 13.757812 15.191891 13.757812 14.337891 C 13.757812 13.054891 14.248359 11.356219 15.443359 10.699219 C 15.631359 10.590219 15.846547 10.515625 16.060547 10.515625 z"/></svg>