<svg xmlns="http://www.w3.org/2000/svg" viewBox="0 0 32 32"><path d="M 17 4 C 10.373 4 5 9.373 5 16 C 5 22.627 10.373 28 17 28 C 20.585 28 23.781516 26.408062 25.978516 23.914062 C 25.862516 22.119063 24.49 20.076719 22 20.011719 L 22 20.865234 C 20.729 22.174234 18.964 23 17 23 C 13.14 23 10 19.86 10 16 C 10 12.14 13.14 9 17 9 C 18.692 9 20.245031 9.6044219 21.457031 10.607422 L 24.962891 7.0390625 C 22.842891 5.1540625 20.059 4 17 4 z M 16 13 L 16 18 L 22 18 C 24.21 18 25.418 18.796 26 20 C 26 17.369 26.002 13 22 13 L 16 13 z"/></svg>