<svg xmlns="http://www.w3.org/2000/svg" viewBox="0 0 32 32"><path d="M 0 7 L 0 25 L 32 25 L 32 7 Z M 2 9 L 30 9 L 30 23 L 2 23 Z M 5 11.6875 L 5 20.3125 L 7 20.3125 L 7 11.6875 Z M 8.09375 11.6875 L 8.09375 20.3125 L 10 20.3125 L 10 15.5 L 10.90625 20.3125 L 12.1875 20.3125 L 13 15.5 L 13 20.3125 L 14.8125 20.3125 L 14.8125 11.6875 L 12 11.6875 L 11.5 15.8125 L 10.8125 11.6875 Z M 15.90625 11.6875 L 15.90625 20.1875 L 18.3125 20.1875 C 19.613281 20.1875 20.101563 19.988281 20.5 19.6875 C 20.898438 19.488281 21.09375 19 21.09375 18.5 L 21.09375 13.3125 C 21.09375 12.710938 20.898438 12.199219 20.5 12 C 20 11.800781 19.8125 11.6875 18.3125 11.6875 Z M 22.09375 11.8125 L 22.09375 20.3125 L 23.90625 20.3125 C 23.90625 20.3125 23.992188 19.710938 24.09375 19.8125 C 24.292969 19.8125 25.101563 20.1875 25.5 20.1875 C 26 20.1875 26.199219 20.195313 26.5 20.09375 C 26.898438 19.894531 27 19.613281 27 19.3125 L 27 14.3125 C 27 13.613281 26.289063 13.09375 25.6875 13.09375 C 25.085938 13.09375 24.511719 13.488281 24.3125 13.6875 L 24.3125 11.8125 Z M 18 13 C 18.398438 13 18.8125 13.007813 18.8125 13.40625 L 18.8125 18.40625 C 18.8125 18.804688 18.300781 18.8125 18 18.8125 Z M 24.59375 14 C 24.695313 14 24.8125 14.105469 24.8125 14.40625 L 24.8125 18.6875 C 24.8125 18.886719 24.792969 19.09375 24.59375 19.09375 C 24.492188 19.09375 24.40625 18.988281 24.40625 18.6875 L 24.40625 14.40625 C 24.40625 14.207031 24.394531 14 24.59375 14 Z"/></svg>