<svg xmlns="http://www.w3.org/2000/svg" viewBox="0 0 32 32"><path d="M 17.425781 1.894531 C 13.285156 1.984375 10.917969 3.847656 10.785156 3.953125 C 10.679688 3.988281 7.945313 4.925781 7.390625 7.371094 C 7.304688 7.40625 7.28125 7.402344 7.15625 7.476563 C 6.90625 7.640625 6.59375 7.910156 6.339844 8.34375 C 5.855469 9.167969 5.652344 10.582031 6.179688 12.78125 C 5.445313 13.347656 5.046875 14.234375 5.039063 15.171875 C 5.03125 16.261719 5.402344 17.402344 6.148438 18.199219 C 6.816406 18.914063 7.464844 19.222656 7.964844 19.328125 C 8.160156 19.371094 8.167969 19.332031 8.3125 19.328125 C 8.402344 19.796875 8.742188 21.152344 9.472656 22.558594 C 9.050781 22.796875 7.84375 23.472656 6.421875 24.296875 C 5.621094 24.761719 4.832031 25.226563 4.234375 25.59375 C 3.9375 25.78125 3.691406 25.941406 3.503906 26.070313 C 3.410156 26.136719 3.335938 26.191406 3.265625 26.25 C 3.230469 26.277344 3.199219 26.304688 3.160156 26.347656 C 3.121094 26.394531 3.042969 26.421875 3.015625 26.660156 L 2.976563 27.042969 L 4.164063 30 L 27.867188 30 L 27.976563 29.648438 C 27.976563 29.648438 28.25 28.78125 28.511719 27.800781 C 28.644531 27.3125 28.773438 26.796875 28.871094 26.339844 C 28.964844 25.878906 29.035156 25.507813 29.015625 25.167969 C 29 24.972656 28.9375 24.902344 28.890625 24.828125 C 28.839844 24.753906 28.789063 24.691406 28.730469 24.625 C 28.613281 24.492188 28.46875 24.355469 28.296875 24.199219 C 27.957031 23.890625 27.523438 23.53125 27.089844 23.183594 C 26.390625 22.625 25.945313 22.296875 25.699219 22.109375 C 25.910156 21.847656 26.363281 21.375 26.941406 19.910156 C 27.648438 18.128906 28.277344 15.421875 28.015625 11.714844 C 27.765625 8.207031 26.554688 5.765625 24.769531 4.203125 C 23.324219 2.945313 21.535156 2.28125 19.636719 2.023438 L 19.636719 2.015625 C 19.621094 2.015625 19.609375 2.019531 19.59375 2.015625 C 19.160156 1.960938 18.722656 1.917969 18.277344 1.898438 C 17.984375 1.890625 17.703125 1.886719 17.425781 1.894531 Z M 18.515625 3.015625 C 18.835938 2.996094 19.167969 3 19.511719 3.015625 C 21.253906 3.253906 22.851563 3.855469 24.113281 4.960938 C 24.804688 5.566406 25.402344 6.332031 25.878906 7.277344 C 25.507813 7.132813 25.136719 7.078125 24.808594 7.09375 C 23.960938 7.140625 23.339844 7.542969 23.339844 7.542969 L 23.875 8.390625 C 23.875 8.390625 24.308594 8.121094 24.859375 8.09375 C 25.398438 8.066406 26.011719 8.207031 26.601563 9.21875 C 26.800781 9.980469 26.945313 10.816406 27.015625 11.757813 C 26.984375 11.703125 26.960938 11.65625 26.921875 11.59375 C 26.808594 11.382813 26.660156 11.121094 26.515625 10.867188 C 26.21875 10.359375 25.929688 9.871094 25.929688 9.871094 L 25.070313 10.378906 C 25.070313 10.378906 25.355469 10.863281 25.644531 11.367188 C 25.792969 11.617188 25.9375 11.875 26.046875 12.074219 C 26.082031 12.132813 26.101563 12.171875 26.125 12.21875 C 26.082031 12.242188 26.0625 12.257813 25.96875 12.277344 C 25.664063 12.34375 25.15625 12.335938 24.667969 12.191406 L 24.390625 13.15625 C 25.03125 13.339844 25.660156 13.367188 26.175781 13.253906 C 26.4375 13.199219 26.671875 13.117188 26.878906 12.941406 C 26.945313 12.886719 27.003906 12.804688 27.058594 12.71875 C 27.152344 15.792969 26.605469 18.042969 26.015625 19.542969 C 25.363281 21.191406 24.6875 21.910156 24.6875 21.910156 L 24.3125 22.320313 L 24.3125 22.324219 C 23.765625 22.859375 22.523438 23.804688 20.421875 23.957031 C 17.5 24.171875 15.5 22.34375 14.535156 21.316406 C 13.613281 20.339844 13.484375 19.59375 13.484375 19.59375 L 12.5 19.785156 C 12.5 19.785156 12.730469 20.859375 13.808594 22.003906 C 14.238281 22.460938 14.898438 23.089844 15.753906 23.65625 C 15.691406 23.660156 15.625 23.652344 15.558594 23.664063 C 15.167969 23.730469 14.78125 23.910156 14.511719 24.242188 C 13.09375 24.160156 12.097656 23.75 11.464844 23.339844 C 10.785156 22.894531 10.527344 22.511719 10.519531 22.5 C 9.851563 21.414063 9.457031 19.890625 9.296875 19.171875 C 9.566406 19.035156 9.902344 18.789063 10.25 18.363281 L 9.472656 17.730469 C 9.199219 18.0625 8.972656 18.214844 8.828125 18.289063 C 8.820313 18.292969 8.828125 18.289063 8.820313 18.292969 L 8.570313 18.371094 C 8.570313 18.371094 8.472656 18.414063 8.175781 18.351563 C 7.878906 18.289063 7.425781 18.101563 6.878906 17.515625 C 6.351563 16.953125 6.03125 16.023438 6.039063 15.183594 C 6.046875 14.339844 6.351563 13.660156 6.921875 13.371094 L 6.9375 13.359375 C 7.613281 12.984375 8.0625 12.933594 8.367188 12.996094 C 8.671875 13.058594 8.882813 13.234375 9.0625 13.488281 C 9.425781 14 9.53125 14.769531 9.53125 14.769531 L 9.601563 15.390625 L 11.628906 14.691406 L 11.578125 14.289063 C 11.578125 14.289063 11.484375 13.597656 11.1875 12.75 C 11.003906 12.238281 11.085938 11.574219 11.28125 10.886719 C 11.472656 10.199219 11.757813 9.519531 11.875 8.898438 C 12 8.242188 11.839844 7.773438 11.660156 7.453125 C 12.019531 6.726563 13.933594 3.277344 18.515625 3.015625 Z M 14.140625 3.410156 C 12.449219 4.488281 11.4375 5.882813 10.949219 6.6875 L 10.8125 6.703125 C 9.886719 6.789063 9.085938 6.9375 8.484375 7.066406 C 9.179688 5.585938 11.15625 4.875 11.15625 4.875 L 11.246094 4.84375 L 11.316406 4.785156 C 11.316406 4.785156 12.300781 3.972656 14.140625 3.410156 Z M 16.453125 7.320313 C 15.40625 7.375 14.691406 7.894531 14.308594 8.476563 C 13.792969 9.253906 13.765625 10.097656 13.765625 10.097656 L 14.761719 10.152344 C 14.761719 10.152344 14.804688 9.535156 15.140625 9.027344 C 15.476563 8.519531 15.992188 8.078125 17.378906 8.402344 L 17.609375 7.429688 C 17.1875 7.332031 16.800781 7.300781 16.453125 7.320313 Z M 10.648438 7.742188 C 10.851563 7.96875 11.011719 8.085938 10.894531 8.710938 C 10.8125 9.148438 10.527344 9.851563 10.3125 10.621094 C 10.101563 11.386719 9.949219 12.25 10.242188 13.082031 C 10.429688 13.613281 10.445313 13.8125 10.484375 14.03125 L 10.3125 14.089844 C 10.25 13.746094 10.261719 13.445313 9.882813 12.910156 C 9.597656 12.511719 9.164063 12.136719 8.5625 12.015625 C 8.117188 11.925781 7.609375 11.984375 7.039063 12.207031 C 6.644531 10.363281 6.898438 9.367188 7.203125 8.851563 C 7.367188 8.566406 7.554688 8.410156 7.691406 8.324219 C 7.828125 8.238281 7.882813 8.226563 7.882813 8.226563 L 7.890625 8.226563 C 7.890625 8.226563 9.257813 7.90625 10.648438 7.742188 Z M 18.648438 10.027344 L 17.726563 10.414063 C 17.726563 10.414063 18.40625 12.023438 18.855469 12.816406 C 18.824219 12.835938 18.820313 12.847656 18.714844 12.871094 C 18.378906 12.945313 17.738281 12.910156 17.011719 12.59375 L 16.609375 13.511719 C 17.5 13.898438 18.308594 13.984375 18.925781 13.847656 C 19.234375 13.78125 19.515625 13.667969 19.71875 13.410156 C 19.925781 13.152344 19.945313 12.714844 19.769531 12.425781 C 19.457031 11.90625 18.648438 10.027344 18.648438 10.027344 Z M 22.519531 10.625 L 21.519531 10.636719 C 21.519531 10.636719 21.546875 13.015625 23.453125 14.742188 L 23.449219 14.742188 C 24.25 15.46875 24.585938 15.941406 24.640625 16.109375 C 24.667969 16.195313 24.660156 16.1875 24.644531 16.21875 C 24.632813 16.25 24.574219 16.328125 24.457031 16.4375 C 24.308594 16.570313 23.722656 16.863281 23.089844 17.054688 C 22.457031 17.246094 21.746094 17.371094 21.296875 17.359375 C 21.128906 17.351563 21.105469 17.320313 21.078125 17.292969 C 21.046875 17.261719 21.015625 17.195313 21 17.089844 C 20.96875 16.882813 21.027344 16.617188 21.027344 16.617188 L 20.054688 16.371094 C 20.054688 16.371094 19.941406 16.773438 20.011719 17.238281 C 20.046875 17.472656 20.132813 17.742188 20.34375 17.972656 C 20.558594 18.203125 20.898438 18.347656 21.269531 18.359375 C 21.910156 18.375 22.671875 18.226563 23.378906 18.011719 C 24.085938 17.796875 24.710938 17.554688 25.125 17.179688 C 25.289063 17.03125 25.453125 16.863281 25.558594 16.625 C 25.664063 16.386719 25.679688 16.078125 25.59375 15.800781 C 25.414063 15.253906 24.960938 14.765625 24.121094 14 C 22.550781 12.578125 22.519531 10.625 22.519531 10.625 Z M 7.6875 13.914063 C 7.367188 13.933594 7.03125 14.078125 6.726563 14.328125 L 7.289063 15.003906 C 7.152344 15.414063 7.015625 16.015625 7.128906 16.636719 L 8.113281 16.457031 C 8.058594 16.160156 8.140625 15.757813 8.230469 15.421875 C 8.355469 15.675781 8.453125 15.925781 8.453125 15.925781 L 9.417969 15.671875 C 9.417969 15.671875 9.273438 15.0625 8.882813 14.546875 C 8.683594 14.289063 8.40625 14.023438 8 13.9375 C 7.898438 13.914063 7.792969 13.90625 7.6875 13.914063 Z M 25.285156 17.765625 C 24.523438 18.628906 23.128906 18.746094 23.128906 18.746094 L 23.1875 19.746094 C 23.1875 19.746094 24.929688 19.6875 26.035156 18.421875 Z M 18.574219 18.121094 L 17.941406 18.894531 C 20.0625 20.617188 22.625 19.878906 22.625 19.878906 L 22.347656 18.921875 C 22.347656 18.921875 20.28125 19.503906 18.574219 18.121094 Z M 18.296875 19.722656 L 17.332031 19.996094 C 17.527344 20.691406 18.011719 21.1875 18.5625 21.496094 C 19.109375 21.804688 19.730469 21.949219 20.316406 22.027344 C 21.488281 22.179688 22.550781 22.035156 22.550781 22.035156 L 22.421875 21.042969 C 22.421875 21.042969 21.457031 21.167969 20.449219 21.035156 C 19.941406 20.972656 19.433594 20.839844 19.046875 20.625 C 18.664063 20.40625 18.410156 20.140625 18.296875 19.722656 Z M 25.113281 22.921875 C 25.363281 23.113281 25.789063 23.425781 26.464844 23.964844 C 26.890625 24.304688 27.316406 24.65625 27.625 24.9375 C 27.78125 25.082031 27.910156 25.207031 27.984375 25.292969 C 27.996094 25.304688 27.996094 25.304688 28.003906 25.3125 C 28 25.441406 27.972656 25.742188 27.890625 26.132813 C 27.800781 26.5625 27.671875 27.066406 27.546875 27.542969 C 27.335938 28.3125 27.199219 28.757813 27.125 29 L 25.949219 29 L 25.914063 28.714844 C 25.871094 28.332031 25.664063 28.097656 25.453125 27.9375 C 25.492188 27.863281 25.542969 27.792969 25.566406 27.71875 C 25.671875 27.410156 25.703125 27.085938 25.703125 26.769531 C 25.710938 26.132813 25.597656 25.492188 25.554688 25.140625 C 25.488281 24.566406 25.269531 24.074219 24.902344 23.738281 C 24.773438 23.625 24.628906 23.539063 24.472656 23.46875 C 24.738281 23.269531 24.957031 23.078125 25.113281 22.921875 Z M 9.882813 23.472656 C 10.035156 23.824219 10.300781 24.359375 10.984375 25.246094 C 11.945313 26.496094 13.53125 26.933594 14.277344 27.074219 C 14.320313 27.539063 14.375 27.984375 14.496094 28.386719 C 14.558594 28.601563 14.648438 28.808594 14.769531 29 L 4.835938 29 L 4.007813 26.9375 C 4.035156 26.917969 4.042969 26.910156 4.074219 26.890625 C 4.230469 26.78125 4.472656 26.625 4.765625 26.449219 C 5.34375 26.089844 6.125 25.625 6.921875 25.164063 C 8.296875 24.367188 9.386719 23.753906 9.882813 23.472656 Z M 23.695313 24.347656 C 23.933594 24.300781 24.085938 24.351563 24.230469 24.484375 C 24.375 24.613281 24.515625 24.863281 24.5625 25.257813 C 24.609375 25.664063 24.707031 26.253906 24.703125 26.765625 C 24.703125 27.019531 24.671875 27.25 24.625 27.394531 C 24.574219 27.542969 24.523438 27.589844 24.46875 27.617188 C 24.070313 27.820313 23.339844 27.777344 22.71875 27.625 C 22.433594 27.554688 22.1875 27.46875 21.992188 27.398438 C 22.050781 27.242188 22.089844 27.074219 22.089844 26.898438 C 22.089844 26.453125 21.882813 26.058594 21.566406 25.785156 C 21.902344 25.519531 22.269531 25.226563 22.652344 24.957031 C 22.894531 24.789063 23.125 24.632813 23.316406 24.523438 C 23.511719 24.414063 23.679688 24.351563 23.695313 24.347656 Z M 11.722656 24.546875 C 12.375 24.855469 13.15625 25.121094 14.152344 25.222656 C 14.140625 25.386719 14.140625 25.558594 14.160156 25.742188 C 14.171875 25.828125 14.175781 25.910156 14.183594 26 C 13.492188 25.816406 12.386719 25.433594 11.773438 24.636719 C 11.730469 24.582031 11.761719 24.601563 11.722656 24.546875 Z M 16.125 24.640625 C 16.570313 24.671875 17.128906 24.828125 17.578125 25.050781 L 19.433594 26.019531 C 19.246094 26.265625 19.128906 26.570313 19.128906 26.898438 C 19.128906 27.164063 19.207031 27.410156 19.332031 27.628906 C 18.675781 28.003906 17.40625 28.65625 16.359375 28.734375 C 16.015625 28.757813 15.851563 28.695313 15.738281 28.609375 C 15.628906 28.523438 15.53125 28.371094 15.453125 28.101563 C 15.292969 27.5625 15.273438 26.644531 15.15625 25.625 C 15.105469 25.21875 15.179688 25.007813 15.265625 24.886719 C 15.355469 24.765625 15.488281 24.6875 15.71875 24.652344 C 15.835938 24.632813 15.972656 24.628906 16.125 24.640625 Z M 21.136719 24.859375 C 20.980469 24.980469 20.785156 25.121094 20.660156 25.21875 C 20.707031 25.183594 20.53125 25.257813 20.355469 25.253906 C 20.210938 25.253906 20.132813 25.242188 20.09375 25.234375 L 19.5625 24.957031 C 19.863281 24.976563 20.171875 24.976563 20.492188 24.953125 C 20.722656 24.9375 20.921875 24.894531 21.136719 24.859375 Z M 20.609375 26.421875 C 20.878906 26.421875 21.089844 26.628906 21.089844 26.898438 C 21.089844 27.167969 20.878906 27.375 20.609375 27.375 C 20.339844 27.375 20.128906 27.167969 20.128906 26.898438 C 20.128906 26.628906 20.339844 26.421875 20.609375 26.421875 Z M 21.441406 28.238281 C 21.597656 28.308594 21.886719 28.441406 22.429688 28.578125 L 22.429688 29 L 20.703125 29 L 20.375 28.351563 C 20.453125 28.363281 20.53125 28.375 20.609375 28.375 C 20.640625 28.375 20.667969 28.367188 20.699219 28.367188 C 20.859375 28.417969 21.011719 28.453125 21.132813 28.417969 C 21.320313 28.359375 21.332031 28.316406 21.441406 28.238281 Z M 24.671875 28.609375 L 24.671875 28.625 C 24.671875 28.625 24.910156 28.726563 24.921875 28.828125 L 24.941406 29 L 23.429688 29 L 23.429688 28.75 C 23.839844 28.78125 24.265625 28.753906 24.671875 28.609375 Z M 19.441406 28.726563 L 19.582031 29 L 18.910156 29 C 19.101563 28.90625 19.285156 28.8125 19.441406 28.726563 Z"/></svg>