<svg xmlns="http://www.w3.org/2000/svg" viewBox="0 0 32 32"><path d="M 25.792969 4.3925781 C 24.572969 4.3925781 23.525391 5.4002031 23.525391 6.6582031 C 23.525391 6.8892031 23.565812 7.1207969 23.632812 7.3417969 L 21.701172 9.1464844 C 20.156172 7.8404844 18.217406 7.1107344 16.191406 7.0527344 C 14.386406 7.0147344 12.630047 7.4956094 11.123047 8.4746094 L 12.111328 9.5019531 C 13.321328 8.7729531 14.724297 8.4170781 16.154297 8.4550781 C 18.506297 8.5130781 20.569703 9.5585156 22.095703 11.603516 L 25.042969 8.8007812 C 25.138969 8.8387813 25.494969 8.8967187 25.792969 8.8867188 C 27.011969 8.8867188 28 7.8693906 28 6.6503906 C 28 5.4403906 27.011969 4.3935781 25.792969 4.3925781 z M 7.8828125 6.0664062 C 7.5251875 6.0567813 7.168625 6.1832656 6.890625 6.4472656 C 6.323625 6.9852656 6.3040313 7.8695469 6.8320312 8.4355469 C 7.1490312 8.7715469 7.5997812 8.9244219 8.0507812 8.8574219 L 9.2304688 10.095703 C 7.8674688 11.669703 7.0519063 13.686297 7.0039062 15.779297 C 6.9559062 17.507297 7.4085469 19.197547 8.3105469 20.685547 L 9.3476562 19.675781 C 8.6946563 18.494781 8.37725 17.169641 8.40625 15.806641 C 8.45425 14.021641 9.1264063 12.322281 10.316406 10.988281 C 10.758406 10.480281 11.161812 10.172234 11.382812 9.9902344 L 9.2324219 7.734375 C 9.3194219 7.292375 9.1939531 6.8318594 8.8769531 6.5058594 C 8.5984531 6.2223594 8.2404375 6.0760312 7.8828125 6.0664062 z M 16.029297 10.015625 C 12.976297 10.024625 10.415344 12.220484 10.027344 15.271484 C 9.6223438 18.555484 11.949375 21.55475 15.234375 21.96875 C 18.519375 22.37375 21.521547 20.047859 21.935547 16.755859 C 22.341547 13.480859 20.01275 10.471406 16.71875 10.066406 C 16.49475 10.032406 16.262297 10.015625 16.029297 10.015625 z M 23.623047 11.373047 L 22.595703 12.351562 C 23.238703 13.523562 23.614937 14.847172 23.585938 16.201172 C 23.527938 18.294172 22.566547 20.426297 20.560547 22.029297 C 20.560547 22.029297 21.473531 22.998328 22.644531 24.236328 C 22.557531 24.687328 22.681047 25.148609 22.998047 25.474609 C 23.535047 26.031609 24.420328 26.051437 24.986328 25.523438 C 25.552328 24.986438 25.571156 24.101156 25.035156 23.535156 C 24.727156 23.199156 24.275219 23.046281 23.824219 23.113281 C 23.805219 23.094281 22.710406 21.933062 22.691406 21.914062 C 24.083406 20.349062 24.918563 18.342234 24.976562 16.240234 C 25.014562 14.531234 24.525047 12.832047 23.623047 11.373047 z M 15.998047 13 C 17.250047 13.024 18.232047 13.982 18.248047 15.25 C 18.240047 16.145 17.773094 16.849531 16.996094 17.269531 L 17.498047 19 L 14.498047 19 L 15.001953 17.269531 C 14.217953 16.865531 13.764234 16.129 13.740234 15.25 C 13.780234 13.959 14.754047 13.024 15.998047 13 z M 9.8261719 20.435547 L 6.9941406 23.199219 C 5.5541406 22.681219 4 23.728797 4 25.341797 C 4 26.598797 4.9705625 27.605469 6.2265625 27.605469 C 7.7825625 27.605469 8.8384844 26.0795 8.3964844 24.6875 C 8.4154844 24.6685 10.191172 22.912109 10.201172 22.912109 C 11.756172 24.208109 13.694703 24.936141 15.720703 24.994141 C 17.525703 25.032141 19.282062 24.544219 20.789062 23.574219 C 20.674062 23.459219 20.050547 22.796875 19.810547 22.546875 C 18.591547 23.266875 17.189766 23.62275 15.759766 23.59375 C 13.157766 23.52675 11.333172 22.441547 9.8261719 20.435547 z"/></svg>