<svg xmlns="http://www.w3.org/2000/svg" viewBox="0 0 32 32"><path d="M 16 5.9375 L 15.625 6.0625 L 5.625 10.0625 L 3.3125 11 L 5.625 11.9375 L 9.53125 13.5 L 5.625 15.0625 L 3.3125 16 L 5.625 16.9375 L 9.53125 18.5 L 5.625 20.0625 L 3.3125 21 L 5.625 21.9375 L 15.625 25.9375 L 16 26.0625 L 16.375 25.9375 L 26.375 21.9375 L 28.6875 21 L 26.375 20.0625 L 22.46875 18.5 L 26.375 16.9375 L 28.6875 16 L 26.375 15.0625 L 22.46875 13.5 L 26.375 11.9375 L 28.6875 11 L 26.375 10.0625 L 16.375 6.0625 Z M 16 8.09375 L 23.28125 11 L 16 13.90625 L 8.71875 11 Z M 12.25 14.59375 L 15.625 15.9375 L 16 16.0625 L 16.375 15.9375 L 19.75 14.59375 L 23.28125 16 L 16 18.90625 L 8.71875 16 Z M 12.25 19.59375 L 15.625 20.9375 L 16 21.0625 L 16.375 20.9375 L 19.75 19.59375 L 23.28125 21 L 16 23.90625 L 8.71875 21 Z"/></svg>