<svg xmlns="http://www.w3.org/2000/svg" viewBox="0 0 32 32"><path d="M 11.5 3 L 5.53125 4.90625 L 9.875 7.5625 L 16.25 5.15625 L 11.875 3.0625 C 11.769531 3.007813 11.605469 3 11.5 3 Z M 5 5.84375 L 6.3125 12.1875 C 6.3125 12.292969 6.425781 12.394531 6.53125 12.5 L 10.34375 15.5 L 9.3125 8.46875 Z M 16.71875 6.09375 L 10.40625 8.46875 L 11.46875 15.4375 L 16.71875 12.71875 C 16.875 12.664063 16.96875 12.460938 16.96875 12.25 Z M 22.96875 12.21875 C 22.875 12.21875 22.765625 12.261719 22.6875 12.3125 L 19.71875 14.1875 L 23.1875 16.34375 L 26.375 14.03125 L 23.21875 12.3125 C 23.140625 12.261719 23.0625 12.21875 22.96875 12.21875 Z M 6.71875 13.96875 L 7.84375 19.53125 C 7.84375 19.636719 7.894531 19.757813 8 19.8125 L 11.46875 23.0625 L 10.625 17.0625 Z M 17.03125 13.96875 L 11.78125 16.96875 L 12.5 23.0625 L 17.03125 20.03125 C 17.1875 19.925781 17.304688 19.742188 17.25 19.53125 Z M 27 14.875 L 26.90625 14.96875 C 26.851563 15.023438 26.863281 15.09375 26.8125 15.09375 L 23.59375 17.28125 L 23.4375 20.65625 L 23.4375 20.84375 L 26.3125 18.59375 C 26.417969 18.488281 26.480469 18.386719 26.53125 18.28125 Z M 18.59375 14.9375 C 18.496094 14.9375 18.386719 14.980469 18.28125 15.03125 L 18.1875 15.09375 L 18.34375 19.53125 C 18.34375 19.636719 18.335938 19.800781 18.28125 19.90625 L 22.0625 17.125 L 18.875 15.03125 C 18.796875 14.980469 18.691406 14.9375 18.59375 14.9375 Z M 22.65625 17.96875 L 18.4375 20.90625 L 18.5625 24.53125 L 18.5625 24.8125 L 22.21875 21.90625 C 22.324219 21.800781 22.4375 21.6875 22.4375 21.53125 Z M 8.3125 21.21875 L 9.09375 25.4375 C 9.09375 25.542969 9.144531 25.582031 9.25 25.6875 L 12.40625 29 L 12.3125 28.78125 L 11.625 24.4375 Z M 17.4375 21.28125 L 12.71875 24.3125 L 13.34375 28.6875 L 13.40625 29 L 17.34375 25.84375 C 17.5 25.738281 17.5625 25.59375 17.5625 25.4375 Z"/></svg>