<svg xmlns="http://www.w3.org/2000/svg" viewBox="0 0 32 32"><path d="M 2 7 L 2 24 L 30 24 L 30 7 L 2 7 z M 6 9 L 26 9 C 26 10.105 26.895 11 28 11 L 28 20 C 26.895 20 26 20.895 26 22 L 6 22 C 6 20.895 5.105 20 4 20 L 4 11 C 5.105 11 6 10.105 6 9 z M 16 11 C 13.789 11 12 13.016 12 15.5 C 12 17.984 13.789 20 16 20 C 18.211 20 20 17.984 20 15.5 C 20 13.016 18.211 11 16 11 z M 16 13 C 17.102 13 18 14.121 18 15.5 C 18 16.879 17.102 18 16 18 C 14.898 18 14 16.879 14 15.5 C 14 14.121 14.898 13 16 13 z M 8.5 14 C 7.672 14 7 14.672 7 15.5 C 7 16.328 7.672 17 8.5 17 C 9.328 17 10 16.328 10 15.5 C 10 14.672 9.328 14 8.5 14 z M 23.5 14 C 22.672 14 22 14.672 22 15.5 C 22 16.328 22.672 17 23.5 17 C 24.328 17 25 16.328 25 15.5 C 25 14.672 24.328 14 23.5 14 z"/></svg>