<svg xmlns="http://www.w3.org/2000/svg" viewBox="0 0 32 32"><path d="M 14.5 5 C 10.789 5 7.44325 6.5839531 5.90625 9.0019531 C 4.29525 9.0519531 3 10.377 3 12 C 3 12.899 3.407 14.021359 4 14.818359 L 4 27 L 6 27 L 6 14.068359 L 5.7324219 13.78125 C 5.3004219 13.31425 5 12.469 5 12 C 5 11.448 5.448 11 6 11 C 6.065 11 6.1414687 11.01125 6.2304688 11.03125 L 7.0136719 11.21875 L 7.3613281 10.490234 C 8.3473281 8.4352344 11.283 7 14.5 7 L 17.5 7 C 20.717 7 23.652672 8.4352344 24.638672 10.490234 L 24.986328 11.21875 L 25.769531 11.03125 C 25.858531 11.01125 25.935 11 26 11 C 26.552 11 27 11.448 27 12 C 27 12.469 26.699578 13.31425 26.267578 13.78125 L 26 14.068359 L 26 27 L 28 27 L 28 14.818359 C 28.593 14.021359 29 12.899 29 12 C 29 10.377 27.70475 9.0519531 26.09375 9.0019531 C 24.55675 6.5839531 21.211 5 17.5 5 L 14.5 5 z M 10 12 A 1 1.5 0 0 0 10 15 A 1 1.5 0 0 0 10 12 z M 22 12 A 1 1.5 0 0 0 22 15 A 1 1.5 0 0 0 22 12 z M 16 13.017578 C 15.085 13.017578 14.170094 13.340828 13.371094 13.986328 C 9.8140937 16.864328 9.730375 16.935578 9.484375 17.142578 L 9.3769531 17.232422 C 8.4889531 17.975422 8 18.959 8 20 C 8 22.206 9.794 24 12 24 C 13.498 24 14.914 23.639141 16 22.994141 C 17.086 23.639141 18.502 24 20 24 C 22.206 24 24 22.206 24 20 C 24 18.959 23.511047 17.976422 22.623047 17.232422 L 22.515625 17.142578 C 22.269625 16.935578 22.186906 16.863375 18.628906 13.984375 C 17.830906 13.339875 16.915 13.017578 16 13.017578 z M 16 15.003906 C 16.463375 15.003906 16.926594 15.182516 17.371094 15.541016 C 20.898094 18.395016 20.983563 18.466875 21.226562 18.671875 L 21.339844 18.767578 C 21.640844 19.019578 22 19.437 22 20 C 22 21.103 21.103 22 20 22 C 18.661 22 17.400906 21.628859 16.628906 21.005859 L 16.033203 20.525391 C 16.107831 19.656302 16.386231 19 17 19 C 18.105 19 19 18.798437 19 18.273438 C 19 17.569437 17.657 17 16 17 C 14.343 17 13 17.569437 13 18.273438 C 13 18.798437 13.895 19 15 19 C 15.613769 19 15.892169 19.656302 15.966797 20.525391 L 15.371094 21.005859 C 14.599094 21.628859 13.339 22 12 22 C 10.897 22 10 21.103 10 20 C 10 19.438 10.359109 19.019578 10.662109 18.767578 L 10.775391 18.671875 C 11.019391 18.466875 11.102906 18.395969 14.628906 15.542969 C 15.073906 15.183469 15.536625 15.003906 16 15.003906 z"/></svg>