<svg xmlns="http://www.w3.org/2000/svg" viewBox="0 0 32 32"><path d="M 23.6875 7.0058594 C 23.526016 6.9907344 23.359813 7.003625 23.195312 7.046875 C 19.681313 7.972875 21.258063 7.5569375 16.414062 8.8359375 C 15.975062 8.9519375 15.623703 9.2723125 15.470703 9.6953125 C 7.2137031 8.9523125 0 10.952734 0 14.552734 C 0 16.206734 1.5339219 17.865719 4.0449219 19.261719 L 4.1328125 20.144531 C 3.5488125 20.366531 3.1831875 20.944547 3.2421875 21.560547 L 3.4570312 23.755859 C 3.5270312 24.462859 4.1296563 25.001 4.8476562 25 C 5.1066563 25 4.6966094 25.087641 10.974609 23.431641 C 11.603609 23.265641 12.030906 22.689828 12.003906 22.048828 C 22.833906 24.294828 32.103047 21.754328 31.998047 17.861328 C 31.999047 16.470328 30.889609 14.572172 27.099609 12.701172 L 24.826172 7.8046875 C 24.612422 7.3464375 24.171953 7.0512344 23.6875 7.0058594 z M 23.554688 8.3730469 L 26.888672 15.556641 L 27.929688 15.28125 L 28.144531 17.476562 L 22.716797 18.908203 L 22.521484 16.958984 L 23.265625 16.761719 L 22.935547 16.037109 L 20.046875 16.798828 L 19.841797 17.664062 L 20.802734 17.410156 L 21.005859 19.363281 L 15.361328 20.847656 L 15.138672 18.654297 L 16.189453 18.378906 L 17.84375 12.134766 L 16.984375 12.359375 L 16.775391 10.162109 C 21.443391 8.9281094 20.025688 9.3020469 23.554688 8.3730469 z M 13.167969 11.269531 C 16.000969 11.213531 16.374922 14.816781 15.294922 16.425781 C 14.680922 17.264781 13.779812 17.855844 12.757812 18.089844 L 11.660156 18.378906 L 9.2402344 19.015625 L 9.3632812 20.179688 L 10.390625 19.90625 L 10.615234 22.105469 L 4.8496094 23.625 L 4.6347656 21.427734 L 5.6367188 21.162109 L 5.0800781 15.503906 L 4.0742188 15.769531 L 3.8554688 13.572266 C 12.763469 11.225266 12.365969 11.280531 13.167969 11.269531 z M 21.095703 11.470703 C 20.870703 12.430703 21.026797 11.770312 20.341797 14.695312 L 22.328125 14.171875 C 21.210125 11.721875 21.462703 12.273703 21.095703 11.470703 z M 11.082031 13.943359 C 10.98982 13.950771 10.892578 13.966391 10.791016 13.994141 C 9.7810156 14.261141 10.224594 14.145578 8.8085938 14.517578 L 9.03125 16.798828 C 10.44025 16.423828 10.063437 16.523891 10.773438 16.337891 C 12.757187 15.884141 12.465206 13.832192 11.082031 13.943359 z"/></svg>