<svg xmlns="http://www.w3.org/2000/svg" viewBox="0 0 32 32"><path d="M 8 5 C 6.346 5 5 6.346 5 8 C 5 9.654 6.346 11 8 11 C 9.654 11 11 9.654 11 8 C 11 6.346 9.654 5 8 5 z M 24 5 C 22.346 5 21 6.346 21 8 C 21 9.654 22.346 11 24 11 C 25.654 11 27 9.654 27 8 C 27 6.346 25.654 5 24 5 z M 8 7 C 8.552 7 9 7.448 9 8 C 9 8.552 8.552 9 8 9 C 7.448 9 7 8.552 7 8 C 7 7.448 7.448 7 8 7 z M 24 7 C 24.552 7 25 7.448 25 8 C 25 8.552 24.552 9 24 9 C 23.448 9 23 8.552 23 8 C 23 7.448 23.448 7 24 7 z M 6.8476562 12 C 6.4166562 12 6.0344375 12.274594 5.8984375 12.683594 L 4.1269531 17.998047 C 3.8539531 18.815047 4.13375 19.714094 4.84375 20.246094 L 8 22.5 L 8 28 L 10 28 L 10 22.5 C 10 21.873 9.7006406 21.273719 9.1816406 20.886719 L 6.0234375 18.632812 L 7.4492188 14.359375 C 7.7892188 15.254375 8.3554688 16.701172 8.3554688 16.701172 C 8.5934688 17.318172 9.0327031 17.842547 9.5957031 18.185547 L 12 20 L 20 20 L 22.40625 18.185547 C 22.96825 17.843547 23.407531 17.318078 23.644531 16.705078 C 23.644531 16.705078 24.202687 15.277516 24.554688 14.353516 L 25.994141 18.619141 L 22.802734 20.898438 C 22.300734 21.273437 22 21.873 22 22.5 L 22 28 L 24 28 L 23.982422 22.513672 L 27.177734 20.232422 C 27.867734 19.714422 28.146047 18.816 27.873047 18 L 26.101562 12.683594 C 25.966563 12.274594 25.583344 12 25.152344 12 L 24.503906 12 C 24.051906 12 23.236656 12.157937 22.847656 13.210938 C 22.593656 13.906937 21.78325 15.975469 21.78125 15.980469 C 21.69825 16.194469 21.543656 16.375281 21.347656 16.488281 C 21.311656 16.508281 21.278094 16.530687 21.246094 16.554688 L 20 17.492188 L 20 12 L 12 12 L 12 17.492188 L 10.753906 16.554688 C 10.720906 16.530687 10.687344 16.509281 10.652344 16.488281 C 10.455344 16.374281 10.30275 16.194562 10.21875 15.976562 C 10.21875 15.976563 9.4083438 13.905031 9.1523438 13.207031 C 8.7653437 12.156031 7.9480937 12 7.4960938 12 L 6.8476562 12 z M 14 14 L 18 14 L 18 18 L 14 18 L 14 14 z M 4.2578125 21.056641 L 4.0546875 23.105469 C 4.0326875 23.326469 3.9748125 23.539234 3.8828125 23.740234 L 1.9335938 28 L 4.1328125 28 L 5.7011719 24.572266 C 5.8851719 24.171266 5.9999219 23.744734 6.0449219 23.302734 L 6.1347656 22.396484 L 4.2617188 21.060547 C 4.2607187 21.059547 4.2588125 21.057641 4.2578125 21.056641 z M 27.742188 21.056641 L 25.865234 22.396484 L 25.955078 23.304688 C 26.000078 23.744688 26.114828 24.170266 26.298828 24.572266 L 27.867188 28 L 30.066406 28 L 28.117188 23.740234 C 28.025187 23.539234 27.968312 23.325469 27.945312 23.105469 L 27.742188 21.056641 z"/></svg>