<svg xmlns="http://www.w3.org/2000/svg" viewBox="0 0 32 32"><path d="M 16.117188 4.1035156 C 13.148188 4.0285156 10.174984 5.0325625 7.8339844 6.8515625 C 5.0579844 8.9875625 3.198 12.321031 3 15.832031 L 3 17.410156 C 3.103 19.040156 3.5373906 20.631844 4.2753906 22.089844 C 5.3233906 24.136844 6.9159062 25.855641 8.8789062 27.056641 C 12.570906 29.372641 17.423234 29.620875 21.365234 27.796875 C 23.841234 26.669875 25.950625 24.741422 27.265625 22.357422 C 28.105625 20.840422 28.612859 19.163547 28.755859 17.435547 C 28.780859 16.794547 28.780859 16.152719 28.755859 15.511719 C 28.586859 13.603719 28.044047 11.716469 26.998047 10.105469 C 27.747047 11.753469 27.955828 13.579187 27.673828 15.367188 C 27.404828 16.885188 26.719359 18.299219 25.693359 19.449219 C 25.800359 18.899219 25.989937 18.370406 26.085938 17.816406 C 26.205938 17.104406 26.268969 16.37525 26.167969 15.65625 C 26.074969 14.59225 25.955734 13.234906 25.552734 12.253906 C 25.557734 12.630906 25.526734 13.008719 25.552734 13.386719 C 25.621734 15.105719 24.972359 17.190172 23.943359 18.576172 C 22.958359 19.933172 21.516234 21.013672 19.865234 21.388672 C 19.139234 21.537672 18.327734 21.535812 17.677734 21.132812 C 17.064734 20.763813 16.723 20.062047 16.625 19.373047 C 16.488 18.275047 16.74875 17.160922 17.21875 16.169922 C 17.80375 14.945922 18.704078 13.899578 19.830078 13.142578 C 20.063078 12.979578 20.338625 12.862859 20.515625 12.630859 C 21.152625 11.840859 21.804156 11.060469 22.535156 10.355469 C 23.272156 9.6074688 23.976953 8.9381719 24.751953 8.3261719 C 23.283953 8.2851719 22.077203 8.8823281 20.783203 9.4863281 C 19.202203 10.263328 17.702641 11.196484 16.306641 12.271484 C 15.418641 12.955484 14.935016 13.626234 13.916016 14.115234 C 13.328016 14.405234 12.659625 14.477625 12.015625 14.390625 C 13.019625 14.777625 14.135578 14.662562 15.142578 14.351562 C 15.767578 14.152563 16.020703 14.000547 16.595703 13.685547 C 16.691703 13.614547 16.805109 13.654875 16.912109 13.671875 C 16.907109 13.890875 16.97225 14.152453 16.78125 14.314453 C 16.31125 14.802453 15.749922 15.192156 15.169922 15.535156 C 14.488922 15.922156 13.752609 16.233422 12.974609 16.357422 C 12.324609 16.481422 11.651938 16.361531 11.085938 16.019531 C 10.350938 15.557531 10.069891 14.634688 10.087891 13.804688 C 10.139891 12.582688 10.635078 11.415828 11.330078 10.423828 C 12.389078 8.9408281 13.941781 7.8284844 15.675781 7.2714844 C 16.374781 7.0184844 17.113844 6.9271094 17.839844 6.7871094 C 16.850844 6.6681094 15.849469 6.5844062 14.855469 6.6914062 C 13.861469 6.7704062 12.885656 7.0415 11.972656 7.4375 C 11.709656 7.5475 11.452969 7.6824219 11.167969 7.7324219 C 12.617969 6.1194219 14.640828 5.0209063 16.798828 4.7539062 C 18.025828 4.5579062 18.785 4.5033281 20 4.7363281 C 18.6 4.2343281 17.606188 4.0845156 16.117188 4.1035156 z M 20.337891 10.105469 C 20.282891 10.371469 20.068406 10.580922 19.816406 10.669922 C 19.556406 10.773922 19.287719 10.849484 19.011719 10.896484 C 19.431719 10.605484 19.885891 10.357469 20.337891 10.105469 z"/></svg>