<svg xmlns="http://www.w3.org/2000/svg" viewBox="0 0 32 32"><path d="M 22.625 3.03125 C 22.304688 3.0625 21.976563 3.148438 21.65625 3.28125 L 21.65625 3.25 C 21.640625 3.253906 21.609375 3.277344 21.59375 3.28125 C 19.160156 4.136719 14.5 6.28125 10.28125 10.5 C 6.03125 14.75 3.980469 19.496094 3.0625 21.84375 L 3.0625 21.875 C 2.65625 23.089844 2.945313 24.40625 3.75 25.34375 L 3.78125 25.375 L 3.78125 25.40625 L 6.78125 28.375 L 6.90625 28.5 C 7.734375 29.328125 9.171875 29.328125 10 28.5 L 14.09375 24.40625 C 14.921875 23.578125 14.921875 22.109375 14.09375 21.28125 L 12.125 19.3125 C 12.46875 18.597656 13.359375 16.839844 14.9375 15.1875 C 16.503906 13.546875 18.300781 12.710938 19 12.40625 L 21.0625 14.46875 L 21.15625 14.53125 C 21.625 14.84375 22.160156 15.019531 22.71875 15 C 23.242188 14.980469 23.785156 14.722656 24.1875 14.28125 L 24.21875 14.3125 L 24.28125 14.21875 L 28.3125 10.21875 C 29.140625 9.390625 29.140625 7.921875 28.3125 7.09375 L 25.21875 4 C 24.78125 3.5625 24.191406 3.234375 23.5625 3.09375 C 23.257813 3.027344 22.945313 3 22.625 3.03125 Z M 22.78125 5.03125 C 23.160156 5.003906 23.539063 5.164063 23.78125 5.40625 L 26.90625 8.5 C 27.078125 8.671875 27.078125 8.609375 26.90625 8.78125 L 22.71875 12.96875 C 22.722656 12.964844 22.71875 12.996094 22.625 13 C 22.546875 13.003906 22.429688 12.9375 22.3125 12.875 L 22.25 12.875 L 19.90625 10.5 L 19.4375 10.03125 L 18.84375 10.25 C 18.84375 10.25 15.769531 11.398438 13.46875 13.8125 C 11.207031 16.179688 9.96875 19.09375 9.96875 19.09375 L 9.71875 19.71875 L 10.1875 20.21875 L 12.6875 22.71875 C 12.859375 22.890625 12.859375 22.828125 12.6875 23 L 8.59375 27.09375 C 8.421875 27.265625 8.484375 27.265625 8.3125 27.09375 L 5.25 24.0625 C 5.242188 24.054688 5.257813 24.039063 5.25 24.03125 L 5.21875 24 C 4.871094 23.566406 4.765625 23.105469 4.9375 22.5625 C 4.941406 22.550781 4.933594 22.542969 4.9375 22.53125 C 5.824219 20.273438 7.777344 15.847656 11.71875 11.90625 C 15.675781 7.949219 20.164063 5.914063 22.34375 5.15625 L 22.375 5.125 L 22.40625 5.125 C 22.527344 5.070313 22.65625 5.039063 22.78125 5.03125 Z"/></svg>