<svg xmlns="http://www.w3.org/2000/svg" viewBox="0 0 32 32"><path d="M 9.9277344 3 C 8.9747344 3 8.1174063 3.5308125 7.6914062 4.3828125 L 7.3828125 5 L 7 5 C 5.897 5 5 5.897 5 7 L 5 11 L 6 11 L 6 27 C 6 28.103 6.897 29 8 29 L 24 29 C 25.103 29 26 28.103 26 27 L 26 11 L 27 11 L 27 7 C 27 5.897 26.103 5 25 5 L 24.617188 5 L 24.308594 4.3828125 C 23.883594 3.5308125 23.026266 3 22.072266 3 L 9.9277344 3 z M 9.9277344 5 L 22.072266 5 C 22.263266 5 22.434531 5.1053906 22.519531 5.2753906 L 23.382812 7 L 25 7 L 25 9 L 7 9 L 7 7 L 8.6171875 7 L 9.4804688 5.2753906 C 9.5654687 5.1053906 9.7367344 5 9.9277344 5 z M 8 11 L 24 11 L 24 27 L 8 27 L 8 24 L 14 24 L 14 22 L 8 22 L 8 20 L 14 20 L 14 18 L 8 18 L 8 16 L 14 16 L 14 14 L 8 14 L 8 11 z"/></svg>