<svg xmlns="http://www.w3.org/2000/svg" viewBox="0 0 32 32"><path d="M 18.65625 4 C 16.558594 4 15 5.707031 15 7.65625 L 15 11.03125 C 12.242188 11.175781 9.742188 11.90625 7.71875 13.0625 C 6.945313 12.316406 5.914063 12 4.90625 12 C 3.816406 12 2.707031 12.355469 1.9375 13.21875 L 1.9375 13.25 L 1.90625 13.28125 C 1.167969 14.203125 0.867188 15.433594 1.0625 16.65625 C 1.242188 17.777344 1.898438 18.917969 3.03125 19.65625 C 3.023438 19.769531 3 19.882813 3 20 C 3 22.605469 4.574219 24.886719 6.9375 26.46875 C 9.300781 28.050781 12.488281 29 16 29 C 19.511719 29 22.699219 28.050781 25.0625 26.46875 C 27.425781 24.886719 29 22.605469 29 20 C 29 19.882813 28.976563 19.769531 28.96875 19.65625 C 30.101563 18.917969 30.757813 17.777344 30.9375 16.65625 C 31.132813 15.433594 30.832031 14.203125 30.09375 13.28125 L 30.0625 13.25 C 29.292969 12.386719 28.183594 12 27.09375 12 C 26.085938 12 25.054688 12.316406 24.28125 13.0625 C 22.257813 11.90625 19.757813 11.175781 17 11.03125 L 17 7.65625 C 17 6.675781 17.558594 6 18.65625 6 C 19.175781 6 19.820313 6.246094 20.8125 6.59375 C 21.65625 6.890625 22.75 7.21875 24.15625 7.3125 C 24.496094 8.289063 25.414063 9 26.5 9 C 27.875 9 29 7.875 29 6.5 C 29 5.125 27.875 4 26.5 4 C 25.554688 4 24.738281 4.535156 24.3125 5.3125 C 23.113281 5.242188 22.246094 4.992188 21.46875 4.71875 C 20.566406 4.402344 19.734375 4 18.65625 4 Z M 16 13 C 19.152344 13 21.964844 13.867188 23.9375 15.1875 C 25.910156 16.507813 27 18.203125 27 20 C 27 21.796875 25.910156 23.492188 23.9375 24.8125 C 21.964844 26.132813 19.152344 27 16 27 C 12.847656 27 10.035156 26.132813 8.0625 24.8125 C 6.089844 23.492188 5 21.796875 5 20 C 5 18.203125 6.089844 16.507813 8.0625 15.1875 C 10.035156 13.867188 12.847656 13 16 13 Z M 4.90625 14 C 5.285156 14 5.660156 14.09375 5.96875 14.25 C 4.882813 15.160156 4.039063 16.242188 3.53125 17.4375 C 3.277344 17.117188 3.125 16.734375 3.0625 16.34375 C 2.953125 15.671875 3.148438 14.976563 3.46875 14.5625 C 3.472656 14.554688 3.464844 14.539063 3.46875 14.53125 C 3.773438 14.210938 4.3125 14 4.90625 14 Z M 27.09375 14 C 27.6875 14 28.226563 14.210938 28.53125 14.53125 C 28.535156 14.535156 28.527344 14.558594 28.53125 14.5625 C 28.851563 14.976563 29.046875 15.671875 28.9375 16.34375 C 28.875 16.734375 28.722656 17.117188 28.46875 17.4375 C 27.960938 16.242188 27.117188 15.160156 26.03125 14.25 C 26.339844 14.09375 26.714844 14 27.09375 14 Z M 11 16 C 9.894531 16 9 16.894531 9 18 C 9 19.105469 9.894531 20 11 20 C 12.105469 20 13 19.105469 13 18 C 13 16.894531 12.105469 16 11 16 Z M 21 16 C 19.894531 16 19 16.894531 19 18 C 19 19.105469 19.894531 20 21 20 C 22.105469 20 23 19.105469 23 18 C 23 16.894531 22.105469 16 21 16 Z M 21.25 21.53125 C 20.101563 22.597656 18.171875 23.28125 16 23.28125 C 13.828125 23.28125 11.898438 22.589844 10.75 21.65625 C 11.390625 23.390625 13.445313 25 16 25 C 18.554688 25 20.609375 23.398438 21.25 21.53125 Z"/></svg>