<svg xmlns="http://www.w3.org/2000/svg" viewBox="0 0 32 32"><path d="M 7.5625 7 C 3.28125 7.71875 0 11.449219 0 15.9375 C 0 18.167969 0.820313 20.203125 2.15625 21.78125 C 5.328125 20.246094 7.546875 16.792969 7.5625 12.75 Z M 10.5625 7 L 10.5625 12.6875 C 10.5625 16.746094 12.789063 20.242188 15.96875 21.78125 C 14.632813 20.203125 13.8125 18.167969 13.8125 15.9375 C 13.8125 13.707031 14.628906 11.671875 15.96875 10.09375 C 14.617188 8.496094 12.714844 7.359375 10.5625 7 Z M 15.96875 10.09375 C 17.304688 11.671875 18.1875 13.707031 18.1875 15.9375 C 18.1875 18.167969 17.304688 20.203125 15.96875 21.78125 C 19.140625 20.246094 21.421875 16.789063 21.4375 12.75 L 21.4375 7 C 19.285156 7.363281 17.320313 8.496094 15.96875 10.09375 Z M 24.4375 7 L 24.4375 12.6875 C 24.4375 16.746094 26.664063 20.242188 29.84375 21.78125 C 31.179688 20.203125 32 18.167969 32 15.9375 C 32 11.449219 28.71875 7.71875 24.4375 7 Z M 9.0625 18.21875 C 8.5 20.554688 6.820313 22.546875 4.71875 23.875 C 6.007813 24.582031 7.488281 25 9.0625 25 C 10.636719 25 12.117188 24.582031 13.40625 23.875 C 11.308594 22.546875 9.625 20.554688 9.0625 18.21875 Z M 22.9375 18.21875 C 22.375 20.554688 20.695313 22.546875 18.59375 23.875 C 19.882813 24.582031 21.363281 25 22.9375 25 C 24.511719 25 25.992188 24.582031 27.28125 23.875 C 25.183594 22.546875 23.5 20.554688 22.9375 18.21875 Z"/></svg>