<svg xmlns="http://www.w3.org/2000/svg" viewBox="0 0 32 32"><path d="M 10 7 C 6.686 7 4 9.686 4 13 L 4 16 L 26 16 L 26 13 C 26 9.686 23.314 7 20 7 L 10 7 z M 15.013672 10.148438 C 15.102047 10.148438 15.192641 10.189938 15.244141 10.273438 L 15.71875 11.275391 L 16.824219 11.441406 C 17.015219 11.467406 17.105172 11.711844 16.951172 11.839844 L 16.154297 12.623047 L 16.335938 13.716797 C 16.374938 13.922797 16.181953 14.062656 16.001953 13.972656 L 15.011719 13.458984 L 14.023438 13.972656 C 13.856438 14.062656 13.651453 13.922797 13.689453 13.716797 L 13.869141 12.623047 L 13.072266 11.839844 C 12.931266 11.710844 13.009844 11.466406 13.214844 11.441406 L 14.306641 11.275391 L 14.794922 10.273438 C 14.839922 10.189937 14.925297 10.148438 15.013672 10.148438 z M 9.0039062 10.162109 C 9.0902812 10.162109 9.1762031 10.202156 9.2207031 10.285156 L 9.7070312 11.283203 L 10.808594 11.449219 C 11.001594 11.475219 11.064828 11.719656 10.923828 11.847656 L 10.130859 12.628906 L 10.322266 13.716797 C 10.360266 13.921797 10.143562 14.062656 9.9765625 13.972656 L 9.0039062 13.460938 L 8.0175781 13.972656 C 7.8385781 14.062656 7.646875 13.921797 7.671875 13.716797 L 7.8632812 12.628906 L 7.0703125 11.847656 C 6.9163125 11.719656 7.0052656 11.475219 7.1972656 11.449219 L 8.3007812 11.283203 L 8.7851562 10.285156 C 8.8301562 10.202156 8.9175313 10.162109 9.0039062 10.162109 z M 21.001953 10.166016 C 21.088203 10.166016 21.178969 10.208016 21.230469 10.291016 L 21.716797 11.287109 L 22.802734 11.453125 C 22.992734 11.479125 23.082688 11.722609 22.929688 11.849609 L 22.136719 12.630859 L 22.328125 13.716797 C 22.354125 13.921797 22.161422 14.061656 21.982422 13.972656 L 20.998047 13.462891 L 20.015625 13.972656 C 19.862625 14.061656 19.644594 13.921797 19.683594 13.716797 L 19.861328 12.630859 L 19.082031 11.849609 C 18.929031 11.721609 19.005938 11.478125 19.210938 11.453125 L 20.308594 11.287109 L 20.794922 10.291016 C 20.833422 10.208016 20.915703 10.166016 21.001953 10.166016 z M 4 18 L 4 19 L 4 21 L 4 24 C 4 24.552 4.448 25 5 25 L 8 25 C 8.552 25 9 24.552 9 24 L 9 21 L 17 21 L 17 24 C 17 24.552 17.448 25 18 25 L 21 25 C 21.552 25 22 24.552 22 24 L 22 21 L 22 20 L 24 20 L 24 21.882812 C 24 23.332813 24.978344 24.664406 26.402344 24.941406 C 28.317344 25.313406 30 23.85 30 22 L 30 19.708984 C 30 19.316984 29.683969 19 29.292969 19 L 28.708984 19 C 28.316984 19 28 19.316984 28 19.708984 L 28 22 C 28 22.551 27.551 23 27 23 C 26.449 23 26 22.551 26 22 L 26 18 L 22 18 L 4 18 z"/></svg>