<svg xmlns="http://www.w3.org/2000/svg" viewBox="0 0 32 32"><path d="M 22.5 4 C 20.578125 4 19 5.578125 19 7.5 C 19 9.421875 20.578125 11 22.5 11 C 24.421875 11 26 9.421875 26 7.5 C 26 5.578125 24.421875 4 22.5 4 Z M 22.5 6 C 23.355469 6 24 6.644531 24 7.5 C 24 8.355469 23.355469 9 22.5 9 C 21.644531 9 21 8.355469 21 7.5 C 21 6.644531 21.644531 6 22.5 6 Z M 9 9 L 9 11 L 17.59375 11 L 14 14.59375 C 13.226563 15.367188 13.226563 16.632813 14 17.40625 L 16 19.40625 L 16 24 L 18 24 L 18 19.40625 C 18 18.878906 17.78125 18.375 17.40625 18 L 15.40625 16 L 19 12.40625 C 19.601563 11.804688 19.722656 10.933594 19.4375 10.25 C 19.152344 9.566406 18.441406 9 17.59375 9 Z M 12.625 17.8125 L 9 21.4375 L 10.40625 22.84375 L 14.03125 19.21875 Z M 7 21 C 6.449219 21 6 21.449219 6 22 C 6 22.550781 6.449219 23 7 23 C 7.277344 23 7.539063 22.898438 7.71875 22.71875 C 7.898438 22.539063 8 22.277344 8 22 C 8 21.449219 7.550781 21 7 21 Z M 7.71875 22.71875 C 7.539063 22.898438 7.40625 23.128906 7.40625 23.40625 C 7.40625 23.957031 7.855469 24.40625 8.40625 24.40625 C 8.683594 24.40625 8.945313 24.304688 9.125 24.125 C 9.304688 23.945313 9.40625 23.683594 9.40625 23.40625 C 9.40625 22.855469 8.957031 22.40625 8.40625 22.40625 C 8.128906 22.40625 7.898438 22.539063 7.71875 22.71875 Z M 9.125 24.125 C 8.945313 24.304688 8.8125 24.535156 8.8125 24.8125 C 8.8125 25.363281 9.261719 25.8125 9.8125 25.8125 C 10.363281 25.8125 10.8125 25.363281 10.8125 24.8125 C 10.8125 24.261719 10.363281 23.8125 9.8125 23.8125 C 9.535156 23.8125 9.304688 23.945313 9.125 24.125 Z M 15.0625 25 C 14.511719 25 14.0625 25.449219 14.0625 26 C 14.0625 26.550781 14.511719 27 15.0625 27 C 15.613281 27 16.0625 26.550781 16.0625 26 C 16.0625 25.449219 15.613281 25 15.0625 25 Z M 16.0625 26 C 16.0625 26.550781 16.511719 27 17.0625 27 C 17.613281 27 18.0625 26.550781 18.0625 26 C 18.0625 25.449219 17.613281 25 17.0625 25 C 16.511719 25 16.0625 25.449219 16.0625 26 Z M 18.0625 26 C 18.0625 26.550781 18.511719 27 19.0625 27 C 19.613281 27 20.0625 26.550781 20.0625 26 C 20.0625 25.449219 19.613281 25 19.0625 25 C 18.511719 25 18.0625 25.449219 18.0625 26 Z"/></svg>