<svg xmlns="http://www.w3.org/2000/svg" viewBox="0 0 32 32"><path d="M 15.394531 3 C 8.5605313 3 3 8.5880313 3 15.457031 C 3 22.197031 7.9999687 29 19.167969 29 C 21.980969 29 25.769688 27.921 25.929688 27.875 L 28 27.28125 L 26.285156 25.970703 C 25.660156 25.492703 24.949219 24.896797 24.199219 24.216797 C 26.494219 21.898797 27.789062 18.769031 27.789062 15.457031 C 27.789062 8.5880312 22.228531 3 15.394531 3 z M 15.394531 5 C 21.126531 5 25.789062 9.6910312 25.789062 15.457031 C 25.789062 18.236031 24.721297 20.846594 22.779297 22.808594 L 21.308594 24.294922 L 22.857422 25.697266 C 23.122422 25.937266 23.382719 26.168672 23.636719 26.388672 C 22.351719 26.676672 20.587969 27 19.167969 27 C 8.7109687 27 5 20.782031 5 15.457031 C 5 9.6910312 9.6625312 5 15.394531 5 z M 16.246094 9.0019531 C 13.666094 8.9509531 11.518516 10.396547 11.478516 12.935547 C 11.468516 13.497547 11.488828 14.751531 12.923828 15.644531 C 14.620828 16.697531 17.190156 16.698844 17.160156 18.214844 C 17.140156 19.268844 15.865672 19.488516 15.263672 19.478516 C 15.112672 19.478516 13.767062 19.459625 12.914062 18.265625 L 10.947266 20.363281 C 12.332266 21.698281 13.8485 21.978047 15.0625 21.998047 C 15.5645 22.008047 19.810859 22.008906 19.880859 18.003906 C 19.890859 17.220906 19.779078 16.047844 18.455078 15.214844 C 16.769078 14.150844 14.270781 14.250625 14.300781 12.765625 C 14.320781 11.620625 15.825484 11.509531 16.146484 11.519531 C 16.166484 11.519531 17.461516 11.530047 18.103516 12.373047 L 20.001953 10.355469 C 19.529953 9.9134687 18.424094 9.0319531 16.246094 9.0019531 z"/></svg>