<svg xmlns="http://www.w3.org/2000/svg" viewBox="0 0 32 32"><path d="M 16 6 C 9.382813 6 4 11.382813 4 18 C 4 20.894531 5.035156 23.550781 6.75 25.625 L 7.03125 26 L 24.96875 26 L 25.25 25.625 C 26.964844 23.550781 28 20.894531 28 18 C 28 11.382813 22.617188 6 16 6 Z M 16 8 C 21.535156 8 26 12.464844 26 18 C 26 20.265625 25.207031 22.324219 23.9375 24 L 8.0625 24 C 6.792969 22.324219 6 20.265625 6 18 C 6 12.464844 10.464844 8 16 8 Z M 16 9 C 15.449219 9 15 9.449219 15 10 C 15 10.550781 15.449219 11 16 11 C 16.550781 11 17 10.550781 17 10 C 17 9.449219 16.550781 9 16 9 Z M 12 10.0625 C 11.449219 10.0625 11 10.511719 11 11.0625 C 11 11.613281 11.449219 12.0625 12 12.0625 C 12.550781 12.0625 13 11.613281 13 11.0625 C 13 10.511719 12.550781 10.0625 12 10.0625 Z M 20 10.0625 C 19.449219 10.0625 19 10.511719 19 11.0625 C 19 11.613281 19.449219 12.0625 20 12.0625 C 20.550781 12.0625 21 11.613281 21 11.0625 C 21 10.511719 20.550781 10.0625 20 10.0625 Z M 9.0625 13 C 8.511719 13 8.0625 13.449219 8.0625 14 C 8.0625 14.550781 8.511719 15 9.0625 15 C 9.613281 15 10.0625 14.550781 10.0625 14 C 10.0625 13.449219 9.613281 13 9.0625 13 Z M 22.65625 13.03125 L 17 16.28125 C 16.707031 16.109375 16.363281 16 16 16 C 14.894531 16 14 16.894531 14 18 C 14 19.105469 14.894531 20 16 20 C 17.09375 20 17.984375 19.121094 18 18.03125 C 18 18.019531 18 18.011719 18 18 L 23.65625 14.78125 Z M 8 17 C 7.449219 17 7 17.449219 7 18 C 7 18.550781 7.449219 19 8 19 C 8.550781 19 9 18.550781 9 18 C 9 17.449219 8.550781 17 8 17 Z M 24 17 C 23.449219 17 23 17.449219 23 18 C 23 18.550781 23.449219 19 24 19 C 24.550781 19 25 18.550781 25 18 C 25 17.449219 24.550781 17 24 17 Z M 9.0625 21 C 8.511719 21 8.0625 21.449219 8.0625 22 C 8.0625 22.550781 8.511719 23 9.0625 23 C 9.613281 23 10.0625 22.550781 10.0625 22 C 10.0625 21.449219 9.613281 21 9.0625 21 Z M 22.9375 21 C 22.386719 21 21.9375 21.449219 21.9375 22 C 21.9375 22.550781 22.386719 23 22.9375 23 C 23.488281 23 23.9375 22.550781 23.9375 22 C 23.9375 21.449219 23.488281 21 22.9375 21 Z"/></svg>