<svg xmlns="http://www.w3.org/2000/svg" viewBox="0 0 32 32"><path d="M 17.75 2.8125 L 16.9375 3.03125 C 16.9375 3.03125 12.773438 4.125 9.90625 5.5 C 9.898438 5.503906 9.882813 5.496094 9.875 5.5 C 7.03125 6.769531 3.4375 9.15625 3.4375 9.15625 L 2.75 9.625 L 3.09375 10.40625 C 3.09375 10.40625 5.753906 16.367188 6.96875 19 C 6.972656 19.011719 6.996094 19.019531 7 19.03125 C 7.378906 19.875 8.070313 20.347656 8.8125 20.71875 C 8.894531 21.417969 9.1875 22.113281 9.53125 22.75 C 10.085938 23.785156 10.855469 24.769531 11.65625 25.65625 C 13.257813 27.429688 14.96875 28.78125 14.96875 28.78125 L 15.28125 29.03125 L 15.6875 29 C 15.6875 29 17.855469 28.824219 20.1875 28.25 C 21.355469 27.964844 22.582031 27.582031 23.625 27.03125 C 24.667969 26.480469 25.621094 25.75 25.96875 24.59375 C 26.863281 21.609375 28.96875 14.90625 28.96875 14.90625 L 29.21875 14.09375 L 28.4375 13.71875 C 28.4375 13.71875 24.527344 11.761719 21.34375 10.6875 C 20.035156 7.777344 18.09375 3.5625 18.09375 3.5625 Z M 16.65625 5.25 C 16.929688 5.835938 17.957031 8.042969 18.84375 9.96875 C 15.988281 9.285156 13.03125 8.90625 13.03125 8.90625 L 12.1875 8.8125 L 11.9375 9.59375 C 11.9375 9.59375 11.597656 10.664063 11.53125 10.875 L 8.4375 12.96875 L 9.5625 14.625 L 10.625 13.90625 C 10.042969 15.796875 9.703125 16.917969 9.1875 18.625 C 9.003906 18.488281 8.871094 18.355469 8.8125 18.21875 L 8.8125 18.1875 C 7.734375 15.855469 5.722656 11.414063 5.28125 10.4375 C 5.964844 9.992188 8.464844 8.3125 10.71875 7.3125 C 12.949219 6.238281 15.84375 5.472656 16.65625 5.25 Z M 13.59375 11.03125 C 14.671875 11.183594 17.917969 11.636719 20.40625 12.4375 C 23.042969 13.289063 26.019531 14.78125 26.78125 15.15625 C 26.507813 16.035156 25.25 20.03125 24.34375 23 L 24.03125 24 C 23.925781 24.34375 23.492188 24.824219 22.6875 25.25 C 21.882813 25.675781 20.789063 26.050781 19.71875 26.3125 C 17.769531 26.792969 16.226563 26.90625 15.90625 26.9375 C 15.636719 26.714844 14.480469 25.777344 13.15625 24.3125 C 12.421875 23.5 11.710938 22.582031 11.28125 21.78125 C 10.851563 20.980469 10.738281 20.351563 10.84375 20 C 11.664063 17.269531 13.285156 12.027344 13.59375 11.03125 Z M 14.40625 15.84375 L 13.8125 17.75 L 17.59375 18.96875 L 18.1875 17.03125 Z M 19.71875 17.4375 L 19.09375 19.34375 L 22.78125 20.5625 L 23.40625 18.65625 Z M 15.625 19.96875 L 13.75 20.65625 C 13.75 20.65625 14.582031 22.953125 16.96875 23.625 L 16.96875 23.65625 C 16.988281 23.664063 17.011719 23.648438 17.03125 23.65625 C 19.363281 24.394531 21.375 22.90625 21.375 22.90625 L 20.21875 21.28125 C 20.21875 21.28125 18.867188 22.164063 17.625 21.75 L 17.59375 21.75 L 17.5625 21.71875 C 16.207031 21.363281 15.625 19.96875 15.625 19.96875 Z"/></svg>