<svg xmlns="http://www.w3.org/2000/svg" viewBox="0 0 32 32"><path d="M 13.28125 4 C 10.820313 4 8.71875 4.785156 7.25 6.1875 C 5.78125 7.589844 5 9.585938 5 11.84375 C 5 13.546875 5.652344 14.859375 6.3125 16.03125 C 6.972656 17.203125 7.636719 18.253906 8 19.5625 C 8.4375 21.175781 8.742188 23.105469 9.25 24.71875 C 9.503906 25.523438 9.808594 26.257813 10.28125 26.875 C 10.753906 27.492188 11.503906 28 12.375 28 C 13.210938 28 14.042969 27.566406 14.46875 26.90625 C 14.894531 26.246094 15 25.464844 15 24.625 C 15 23.59375 15 21.984375 15.21875 20.71875 C 15.328125 20.085938 15.515625 19.558594 15.6875 19.28125 C 15.859375 19.003906 15.867188 19 16 19 C 16.132813 19 16.140625 19 16.3125 19.28125 C 16.484375 19.5625 16.671875 20.085938 16.78125 20.71875 C 17.003906 21.984375 17 23.59375 17 24.625 C 17 25.464844 17.105469 26.246094 17.53125 26.90625 C 17.957031 27.566406 18.789063 28 19.625 28 C 20.5 28 21.25 27.496094 21.71875 26.875 C 22.1875 26.253906 22.496094 25.496094 22.75 24.6875 C 23.257813 23.070313 23.566406 21.148438 24 19.5625 C 24.363281 18.253906 25.027344 17.203125 25.6875 16.03125 C 26.347656 14.859375 27 13.546875 27 11.84375 C 27.050781 7.304688 23.59375 4 19.0625 4 C 17.746094 4 16.191406 4.488281 15.9375 4.5625 C 15.125 4.242188 14.238281 4 13.28125 4 Z M 13.28125 6 C 15.597656 6 18.25 8.4375 18.25 8.4375 L 19.65625 7 C 19.65625 7 18.996094 6.480469 18.53125 6.09375 C 18.742188 6.0625 18.925781 6 19.0625 6 C 22.683594 6 25.039063 8.238281 25 11.8125 L 25 11.84375 C 25 13.054688 24.585938 13.96875 23.96875 15.0625 C 23.351563 16.15625 22.519531 17.378906 22.0625 19.03125 C 21.585938 20.769531 21.28125 22.695313 20.84375 24.09375 C 20.625 24.792969 20.355469 25.355469 20.125 25.65625 C 19.894531 25.957031 19.820313 26 19.625 26 C 19.320313 26 19.320313 25.96875 19.21875 25.8125 C 19.117188 25.65625 19 25.242188 19 24.625 C 19 23.605469 19.019531 21.914063 18.75 20.375 C 18.613281 19.605469 18.425781 18.863281 18.03125 18.21875 C 17.636719 17.574219 16.882813 17 16 17 C 15.117188 17 14.363281 17.574219 13.96875 18.21875 C 13.574219 18.863281 13.382813 19.605469 13.25 20.375 C 12.980469 21.914063 13 23.605469 13 24.625 C 13 25.242188 12.882813 25.65625 12.78125 25.8125 C 12.679688 25.96875 12.679688 26 12.375 26 C 12.175781 26 12.101563 25.953125 11.875 25.65625 C 11.648438 25.359375 11.375 24.820313 11.15625 24.125 C 10.71875 22.734375 10.414063 20.789063 9.9375 19.03125 C 9.480469 17.378906 8.648438 16.15625 8.03125 15.0625 C 7.414063 13.96875 7 13.058594 7 11.84375 C 7 10.042969 7.605469 8.625 8.65625 7.625 C 9.707031 6.625 11.230469 6 13.28125 6 Z"/></svg>