<svg xmlns="http://www.w3.org/2000/svg" viewBox="0 0 32 32"><path d="M 14.21875 5 C 13.539063 5 12.96875 5.570313 12.96875 6.25 C 12.96875 7.761719 12.203125 8.816406 11.34375 9.5625 C 10.914063 9.9375 10.453125 10.222656 10.125 10.40625 C 9.960938 10.496094 9.84375 10.550781 9.75 10.59375 C 9.703125 10.617188 9.679688 10.648438 9.65625 10.65625 C 9.632813 10.664063 9.535156 10.6875 9.625 10.65625 C 9.140625 10.847656 8.8125 11.296875 8.8125 11.8125 L 8.8125 14.03125 C 8.8125 14.710938 9.382813 15.28125 10.0625 15.28125 L 11.1875 15.28125 L 11.1875 20.5 C 11.1875 20.855469 11.1875 22.34375 11.875 23.875 C 12.5625 25.40625 14.136719 27 16.71875 27 C 20.652344 27 22.605469 25.441406 22.75 25.3125 C 23.019531 25.074219 23.1875 24.722656 23.1875 24.375 L 23.1875 21.71875 C 23.1875 21.273438 22.921875 20.84375 22.53125 20.625 C 22.15625 20.417969 21.699219 20.460938 21.3125 20.6875 L 21.28125 20.65625 C 21.28125 20.65625 21.25 20.6875 21.25 20.6875 C 21.179688 20.726563 20.09375 21.34375 18.90625 21.34375 C 18.289063 21.34375 18.246094 21.167969 18.125 20.9375 C 18.003906 20.707031 17.96875 20.3125 17.96875 20.40625 L 17.96875 15.46875 L 21.0625 15.46875 C 21.742188 15.46875 22.3125 14.902344 22.3125 14.21875 L 22.3125 11.21875 C 22.3125 10.535156 21.742188 9.96875 21.0625 9.96875 L 17.96875 9.96875 L 17.96875 6.25 C 17.96875 5.570313 17.398438 5 16.71875 5 Z M 14.78125 7 L 15.96875 7 L 15.96875 11.96875 L 20.3125 11.96875 L 20.3125 13.46875 L 15.96875 13.46875 L 15.96875 20.40625 C 15.96875 20.578125 15.976563 21.164063 16.34375 21.875 C 16.710938 22.585938 17.636719 23.34375 18.90625 23.34375 C 19.808594 23.34375 20.589844 23.128906 21.1875 22.90625 L 21.1875 23.9375 C 20.925781 24.144531 19.761719 25 16.71875 25 C 14.878906 25 14.203125 24.136719 13.71875 23.0625 C 13.234375 21.988281 13.1875 20.707031 13.1875 20.5 L 13.1875 13.28125 L 10.8125 13.28125 L 10.8125 12.3125 C 10.910156 12.261719 11 12.226563 11.125 12.15625 C 11.546875 11.921875 12.09375 11.554688 12.65625 11.0625 C 13.636719 10.207031 14.527344 8.792969 14.78125 7 Z"/></svg>