<svg xmlns="http://www.w3.org/2000/svg" viewBox="0 0 32 32"><path d="M 16 4 C 9.382813 4 4 9.382813 4 16 C 4 22.617188 9.382813 28 16 28 C 22.617188 28 28 22.617188 28 16 C 28 9.382813 22.617188 4 16 4 Z M 16 6 C 21.535156 6 26 10.464844 26 16 C 26 21.535156 21.535156 26 16 26 C 10.464844 26 6 21.535156 6 16 C 6 10.464844 10.464844 6 16 6 Z M 19.5 9 C 18.671875 9 18 9.671875 18 10.5 C 18 11.328125 18.671875 12 19.5 12 C 20.328125 12 21 11.328125 21 10.5 C 21 9.671875 20.328125 9 19.5 9 Z M 16 11 C 13.25 11 11 13.25 11 16 C 11 18.75 13.25 21 16 21 C 18.75 21 21 18.75 21 16 C 21 13.25 18.75 11 16 11 Z M 16 13 C 17.667969 13 19 14.332031 19 16 C 19 17.667969 17.667969 19 16 19 C 14.332031 19 13 17.667969 13 16 C 13 14.332031 14.332031 13 16 13 Z M 9.5 15 C 8.671875 15 8 15.671875 8 16.5 C 8 17.328125 8.671875 18 9.5 18 C 10.328125 18 11 17.328125 11 16.5 C 11 15.671875 10.328125 15 9.5 15 Z M 19.5 20 C 18.671875 20 18 20.671875 18 21.5 C 18 22.328125 18.671875 23 19.5 23 C 20.328125 23 21 22.328125 21 21.5 C 21 20.671875 20.328125 20 19.5 20 Z"/></svg>