<svg xmlns="http://www.w3.org/2000/svg" viewBox="0 0 32 32"><path d="M 16 3 L 3 7 L 6.105469 7.953125 L 9 8.84375 L 9 11.507813 C 8.875 11.660156 8.78125 11.808594 8.707031 11.964844 C 8.527344 12.34375 8.414063 12.765625 8.3125 13.265625 C 8.121094 14.214844 8.019531 15.441406 8.007813 16.785156 C 7.398438 17.332031 7 18.117188 7 19 C 7 20.277344 7.90625 21.199219 9.035156 21.628906 C 9.488281 22.933594 10.242188 24.367188 11.328125 25.582031 C 12.515625 26.90625 14.101563 28 16 28 C 17.898438 28 19.484375 26.90625 20.671875 25.582031 C 21.757813 24.367188 22.511719 22.933594 22.964844 21.628906 C 24.09375 21.199219 25 20.277344 25 19 C 25 18.117188 24.605469 17.320313 23.988281 16.769531 C 23.976563 15.429688 23.875 14.210938 23.6875 13.265625 C 23.585938 12.765625 23.472656 12.34375 23.292969 11.964844 C 23.21875 11.808594 23.125 11.660156 23 11.507813 L 23 8.84375 L 29 7 Z M 16 5.09375 L 22.203125 7 L 16 8.90625 L 9.796875 7 Z M 11 9.460938 L 16 11 L 16.296875 10.910156 L 21 9.460938 L 21 11.78125 C 20.988281 11.796875 21 11.800781 20.953125 11.832031 C 20.796875 11.964844 20.472656 12.15625 20.027344 12.335938 C 19.132813 12.691406 17.746094 13 16 13 C 14.253906 13 12.867188 12.691406 11.972656 12.335938 C 11.527344 12.15625 11.203125 11.964844 11.046875 11.832031 C 11 11.800781 11.011719 11.796875 11 11.78125 Z M 10.265625 13.707031 C 10.554688 13.882813 10.867188 14.046875 11.234375 14.191406 C 12.410156 14.660156 14.023438 15 16 15 C 17.976563 15 19.589844 14.660156 20.765625 14.191406 C 21.132813 14.046875 21.445313 13.882813 21.734375 13.707031 C 21.890625 14.515625 22 15.695313 22 17 L 22 17.847656 L 22.5 18.140625 C 22.804688 18.3125 23 18.621094 23 19 C 23 19.535156 22.601563 19.945313 22.078125 19.988281 L 21.40625 20.042969 L 21.207031 20.6875 C 20.875 21.769531 20.132813 23.183594 19.175781 24.25 C 18.222656 25.316406 17.109375 26 16 26 C 14.890625 26 13.777344 25.316406 12.824219 24.25 C 11.867188 23.183594 11.125 21.769531 10.792969 20.6875 L 10.59375 20.042969 L 9.921875 19.988281 C 9.398438 19.945313 9 19.535156 9 19 C 9 18.625 9.199219 18.316406 9.507813 18.140625 L 10.019531 17.84375 L 10 17 L 10 16.988281 C 10 15.691406 10.109375 14.515625 10.265625 13.707031 Z M 8.171875 17 L 9.003906 17 L 8.164063 17.019531 Z M 13 18 C 12.449219 18 12 18.449219 12 19 C 12 19.550781 12.449219 20 13 20 C 13.550781 20 14 19.550781 14 19 C 14 18.449219 13.550781 18 13 18 Z M 19 18 C 18.449219 18 18 18.449219 18 19 C 18 19.550781 18.449219 20 19 20 C 19.550781 20 20 19.550781 20 19 C 20 18.449219 19.550781 18 19 18 Z"/></svg>