<svg xmlns="http://www.w3.org/2000/svg" viewBox="0 0 32 32"><path d="M 16 2 L 15.800781 6 C 15.200781 6 14.5 5.9996094 14 6.0996094 L 12.900391 2.3007812 L 13.599609 6.1992188 C 12.999609 6.2992187 12.400781 6.5007812 11.800781 6.8007812 L 9.9003906 3.4003906 L 11.400391 6.9003906 C 10.800391 7.2003906 10.299219 7.5007812 9.6992188 7.8007812 L 7.3007812 5.0996094 L 9.5 8.0996094 C 8.9 8.4996094 8.4 8.9003906 8 9.4003906 L 5 7.3007812 L 7.6992188 9.6992188 C 7.2992187 10.199219 6.9 10.700781 6.5 11.300781 L 3.4003906 9.9003906 L 6.4003906 11.5 C 6.1003906 12.1 5.7996094 12.700391 5.5996094 13.400391 L 2.4003906 12.800781 L 5.5 13.699219 C 5.3 14.399219 5.1996094 15.100781 5.0996094 15.800781 L 2 16 L 5 16.199219 L 5 17 C 5 17.5 4.9996094 18.000391 5.0996094 18.400391 L 2.3007812 19.199219 L 5.0996094 18.699219 C 5.1996094 19.499219 5.3992188 20.200391 5.6992188 20.900391 L 3.4003906 22.199219 L 5.8007812 21.199219 C 6.1007812 21.899219 6.5003906 22.599219 6.9003906 23.199219 L 5 24.699219 L 7 23.300781 C 7.5 24.000781 7.9996094 24.499609 8.5996094 25.099609 L 7.3007812 27 L 8.8007812 25.300781 C 9.4007812 25.800781 10.100781 26.299219 10.800781 26.699219 L 9.9003906 28.699219 L 10.900391 26.800781 C 11.600391 27.200781 12.399219 27.499219 13.199219 27.699219 L 12.800781 29.800781 L 13.400391 27.800781 C 14.200391 28.000781 15.000781 28.099609 15.800781 28.099609 L 16 30 L 16.099609 27.900391 C 16.899609 27.900391 17.8 27.799609 18.5 27.599609 L 19.099609 29.599609 L 18.699219 27.5 C 19.499219 27.3 20.3 26.999609 21 26.599609 L 22.099609 28.5 L 21.199219 26.5 C 21.899219 26.1 22.599219 25.699609 23.199219 25.099609 L 24.699219 26.800781 L 23.400391 25 C 24.000391 24.5 24.5 23.899219 25 23.199219 L 27 24.699219 L 25.099609 23 C 25.499609 22.4 25.899219 21.7 26.199219 21 L 28.699219 22 L 26.400391 20.699219 C 26.700391 19.999219 26.9 19.3 27 18.5 L 29.699219 19.099609 L 26.900391 18.300781 C 26.900391 17.800781 27 17.400391 27 16.900391 L 27 16.099609 L 30 16 L 26.900391 15.800781 C 26.800391 15.100781 26.7 14.399219 26.5 13.699219 L 29.599609 12.800781 L 26.300781 13.400391 C 26.100781 12.800391 25.8 12.1 25.5 11.5 L 28.5 9.9003906 L 25.300781 11.199219 C 25.000781 10.599219 24.599609 10.099609 24.099609 9.5996094 L 27 7.3007812 L 24 9.4003906 C 23.6 8.9003906 23.1 8.4996094 22.5 8.0996094 L 24.699219 5.0996094 L 22.199219 7.9003906 C 21.699219 7.5003906 21.099609 7.2 20.599609 7 L 22.099609 3.4003906 L 20.199219 6.8007812 L 18.400391 6.1992188 L 19.099609 2.3007812 L 18 6.0996094 C 17.4 5.9996094 16.799219 6 16.199219 6 L 16 2 z M 16 6.9003906 C 21.5 6.9003906 26 11.400391 26 16.900391 C 26 22.500391 21.5 26.900391 16 26.900391 C 10.5 26.900391 6 22.400391 6 16.900391 C 6 11.400391 10.5 6.9003906 16 6.9003906 z M 16 8 C 11.1 8 7.0996094 12.000391 7.0996094 16.900391 C 7.0996094 21.800391 11.1 25.800781 16 25.800781 C 20.9 25.800781 24.900391 21.800391 24.900391 16.900391 C 24.900391 12.000391 20.9 8 16 8 z M 20.5 11.5 L 20.5 18.099609 C 20.5 18.599609 20.5 18.8 21 19 C 20.8 19.3 20.600781 19.400391 20.300781 19.400391 L 14 19.400391 C 13.9 19.500391 13.8 19.699219 13 20.699219 C 12.9 20.199219 12.399609 19.400391 12.099609 19.400391 L 8.5996094 19.400391 C 8.7996094 19.000391 8.7992187 18.999609 8.6992188 18.599609 C 8.4992188 18.099609 8.6003906 17.600781 8.9003906 17.300781 C 9.2003906 17.000781 9.5992187 16.500781 9.6992188 16.300781 C 9.5992188 16.100781 9.5003906 15.699609 9.4003906 15.599609 C 9.6003906 15.299609 9.8996094 15.000781 10.099609 14.800781 C 10.199609 15.000781 10.300391 15.3 10.400391 15.5 C 10.500391 15.4 10.699219 15.199609 10.699219 15.099609 C 10.599219 15.399609 10.599609 15.600781 10.599609 15.800781 C 10.599609 16.000781 10.700391 16.300391 10.900391 16.900391 L 11.599609 18.5 L 12.300781 18.5 C 12.500781 18.5 12.800391 18.999219 13.400391 19.699219 C 13.500391 19.599219 13.5 19.500391 13.5 19.400391 C 13.5 19.100391 12.900391 17.9 12.900391 17.5 C 12.900391 17 13.199219 16.7 13.699219 16 C 13.699219 16.2 13.599609 16.4 13.599609 16.5 C 13.599609 16.9 14.000781 17.7 14.300781 18.5 L 15.300781 18.5 L 15.300781 18.400391 C 15.200781 18.300391 15.1 18.1 15 18 C 15.2 17.7 15.499609 17.299219 15.599609 17.199219 C 15.799609 17.599219 15.999609 18.2 16.099609 18.5 L 16.599609 18.5 C 16.499609 18.3 16.400391 18.000391 16.400391 17.900391 C 16.300391 17.700391 16.199609 17.6 16.099609 17.5 C 16.299609 17.2 16.599219 16.799219 16.699219 16.699219 C 16.799219 16.999219 17.200391 17.9 17.400391 18.5 L 17.900391 18.5 C 17.800391 18.3 17.600391 17.700781 17.400391 17.300781 C 17.300391 17.100781 17.199609 17.000391 17.099609 16.900391 C 17.299609 16.600391 17.599219 16.199609 17.699219 16.099609 C 17.999219 16.899609 18.399609 18 18.599609 18.5 L 19.699219 18.5 C 19.799219 18.5 20 18.199609 20 18.099609 L 20 14.300781 C 20 14.000781 19.800391 13.499609 19.400391 12.599609 C 19.600391 12.599609 20 12.2 20.5 11.5 z M 22.099609 11.5 L 22.099609 17.400391 C 22.099609 18.500391 22.699609 18.700391 23.099609 18.900391 C 23.199609 19.000391 23.399219 18.999609 23.699219 19.099609 C 23.599219 19.199609 23.400391 19.199219 22.900391 19.199219 C 22.000391 19.399219 21.5 19.199219 21.5 18.199219 L 21.5 14.300781 C 21.5 14.000781 21.300391 13.499609 20.900391 12.599609 C 21.200391 12.599609 21.599609 12.2 22.099609 11.5 z M 9.5 13.199219 C 9.5 13.299219 9.5992188 13.499609 9.6992188 13.599609 C 9.7992187 13.699609 9.9003906 13.9 9.9003906 14 C 9.9003906 14.1 9.7996094 14.299219 9.5996094 14.699219 C 9.4996094 14.499219 9.2996094 14.299219 9.0996094 14.199219 C 8.9996094 14.099219 8.9003906 14.000391 8.9003906 13.900391 C 8.9003906 13.900391 9.1 13.599219 9.5 13.199219 z M 10.599609 13.199219 C 10.599609 13.299219 10.700781 13.499609 10.800781 13.599609 C 10.900781 13.699609 11 13.9 11 14 C 11 14.1 10.899219 14.299219 10.699219 14.699219 C 10.599219 14.499219 10.399219 14.299219 10.199219 14.199219 C 10.099219 14.099219 10 14.000391 10 13.900391 C 10.1 13.900391 10.199609 13.599219 10.599609 13.199219 z M 13 14.300781 C 13 14.400781 13.099219 14.599219 13.199219 14.699219 C 13.299219 14.799219 13.400391 14.999609 13.400391 15.099609 C 13.400391 15.199609 13.299219 15.400781 13.199219 15.800781 C 13.099219 15.600781 12.899219 15.400781 12.699219 15.300781 C 12.599219 15.200781 12.5 15.1 12.5 15 C 12.4 15 12.6 14.700781 13 14.300781 z M 10.400391 17.5 C 10.400391 17.5 10.299219 17.600781 10.199219 17.800781 C 10.149219 17.850781 10.125 17.899609 10.125 17.974609 C 10.125 18.049609 10.149219 18.150781 10.199219 18.300781 C 10.199219 18.350781 10.224219 18.424219 10.261719 18.511719 C 10.299219 18.599219 10.350391 18.700781 10.400391 18.800781 L 10.900391 18.800781 L 10.599609 18.099609 C 10.549609 17.949609 10.500391 17.849219 10.462891 17.761719 C 10.425391 17.674219 10.400391 17.6 10.400391 17.5 z"/></svg>