<svg xmlns="http://www.w3.org/2000/svg" viewBox="0 0 32 32"><path d="M 16 3.6992188 L 8.0996094 10 L 10 10 L 10 12.523438 L 5.0996094 16.199219 L 7 17.123047 L 7 20.527344 L 2 24.300781 L 6 25.880859 L 6 28 L 8 28 L 8 26 L 15 26 L 15 28 L 17 28 L 17 26 L 24 26 L 24 28 L 26 28 L 26 25.884766 L 30.099609 24.300781 L 25 20.453125 L 25 17.146484 L 27 16.199219 L 22 12.449219 L 22 10 L 23.900391 10 L 16 3.6992188 z M 16 6.3007812 L 18.199219 8 L 13.900391 8 L 16 6.3007812 z M 12 10 L 20 10 L 20 12 L 12 12 L 12 10 z M 11.400391 14 L 20.699219 14 L 23 15.800781 L 22.699219 16 L 9.1992188 16 L 9 15.800781 L 11.400391 14 z M 9 18 L 23 18 L 23 20 L 9 20 L 9 18 z M 8.3007812 22 L 9 22 L 23 22 L 23.699219 22 L 26 23.699219 L 25.300781 24 L 6.6992188 24 L 6 23.699219 L 8.3007812 22 z"/></svg>