<svg xmlns="http://www.w3.org/2000/svg" viewBox="0 0 32 32"><path d="M 14 5 C 8.578125 5 4 8.710938 4 13.5 C 4 15.117188 4.59375 16.601563 5.5 17.875 L 5.125 20.78125 L 4.90625 22.53125 L 6.5 21.84375 L 9 20.8125 C 10.25 21.429688 11.65625 21.820313 13.15625 21.9375 C 13.886719 24.890625 16.976563 27 20.5 27 C 21.953125 27 23.28125 26.589844 24.4375 25.96875 L 25.625 26.65625 L 27.34375 27.59375 L 27.09375 25.65625 L 26.875 23.84375 C 27.539063 22.890625 28 21.800781 28 20.59375 C 28 18.035156 26.292969 15.890625 23.875 14.84375 C 23.960938 14.40625 24 13.96875 24 13.5 C 24 8.710938 19.421875 5 14 5 Z M 14 7 C 18.519531 7 22 10.007813 22 13.5 C 22 13.765625 21.980469 14.027344 21.9375 14.28125 C 21.464844 14.199219 20.996094 14.15625 20.5 14.15625 C 16.699219 14.15625 13.410156 16.617188 13.03125 19.9375 C 11.710938 19.804688 10.5 19.425781 9.46875 18.84375 L 9.03125 18.625 L 8.59375 18.8125 L 7.3125 19.34375 L 7.53125 17.8125 L 7.5625 17.375 L 7.3125 17.0625 C 6.472656 16.023438 6 14.804688 6 13.5 C 6 10.007813 9.480469 7 14 7 Z M 10.5625 9.15625 C 9.785156 9.15625 9.15625 9.785156 9.15625 10.5625 C 9.15625 11.339844 9.785156 12 10.5625 12 C 11.339844 12 11.96875 11.339844 11.96875 10.5625 C 11.96875 9.785156 11.339844 9.15625 10.5625 9.15625 Z M 17.25 9.15625 C 16.472656 9.15625 15.8125 9.785156 15.8125 10.5625 C 15.8125 11.339844 16.472656 12 17.25 12 C 18.027344 12 18.65625 11.339844 18.65625 10.5625 C 18.65625 9.785156 18.027344 9.15625 17.25 9.15625 Z M 20.5 16.15625 C 23.640625 16.15625 26 18.25 26 20.59375 C 26 21.480469 25.679688 22.285156 25.09375 23 L 24.8125 23.34375 L 24.875 23.75 L 24.90625 23.9375 L 24.4375 23.6875 L 23.9375 24.03125 C 23.003906 24.636719 21.8125 25 20.5 25 C 17.359375 25 15 22.9375 15 20.59375 C 15 18.25 17.359375 16.15625 20.5 16.15625 Z M 18 17.4375 C 17.410156 17.4375 16.90625 17.910156 16.90625 18.5 C 16.90625 19.089844 17.410156 19.5625 18 19.5625 C 18.585938 19.5625 19.0625 19.089844 19.0625 18.5 C 19.0625 17.910156 18.589844 17.4375 18 17.4375 Z M 23.03125 17.4375 C 22.445313 17.4375 21.96875 17.910156 21.96875 18.5 C 21.96875 19.089844 22.441406 19.5625 23.03125 19.5625 C 23.621094 19.5625 24.09375 19.089844 24.09375 18.5 C 24.09375 17.910156 23.621094 17.4375 23.03125 17.4375 Z"/></svg>