<svg xmlns="http://www.w3.org/2000/svg" viewBox="0 0 32 32"><path d="M 14.34375 4 C 12.871094 4.050781 9.742188 4.988281 9.09375 5.65625 C 8.855469 5.902344 8.742188 6.230469 8.8125 6.5 C 8.929688 6.738281 13.875 14.5 13.875 14.5 C 14.609375 15.6875 15.210938 15.5 15.40625 15.4375 C 15.601563 15.378906 16.191406 15.199219 16.125 13.8125 C 16.054688 12.191406 15.589844 4.992188 15.53125 4.65625 C 15.449219 4.351563 15.1875 4.117188 14.84375 4.03125 C 14.714844 4 14.554688 3.992188 14.34375 4 Z M 21.8125 11.09375 C 21.664063 11.097656 21.535156 11.132813 21.40625 11.21875 C 21.25 11.320313 21.128906 11.472656 18.9375 14.46875 C 18.9375 14.46875 17.949219 15.832031 17.9375 15.84375 C 17.675781 16.160156 17.683594 16.609375 17.9375 17 C 18.203125 17.402344 18.625 17.613281 19.03125 17.5 C 19.03125 17.5 19.035156 17.523438 19.03125 17.53125 C 19.234375 17.457031 19.59375 17.34375 20.25 17.1875 C 24.34375 16.195313 24.496094 16.167969 24.65625 16.0625 C 24.902344 15.894531 25.019531 15.589844 25 15.25 C 25 15.238281 25.003906 15.230469 25 15.21875 C 24.894531 14.214844 23.148438 11.609375 22.28125 11.1875 C 22.128906 11.113281 21.960938 11.089844 21.8125 11.09375 Z M 8.0625 15.125 C 7.765625 15.113281 7.496094 15.273438 7.3125 15.5625 C 6.921875 16.1875 6.769531 18.132813 6.90625 19.4375 C 6.957031 19.871094 7.011719 20.253906 7.125 20.46875 C 7.28125 20.765625 7.546875 20.925781 7.84375 20.9375 C 8.035156 20.945313 8.179688 20.90625 11.78125 19.75 C 11.78125 19.75 13.367188 19.253906 13.375 19.25 C 13.773438 19.148438 14.035156 18.78125 14.0625 18.3125 C 14.089844 17.832031 13.84375 17.402344 13.4375 17.25 C 13.4375 17.25 12.316406 16.78125 12.3125 16.78125 C 8.441406 15.183594 8.257813 15.128906 8.0625 15.125 Z M 19.09375 19.53125 C 18.796875 19.523438 18.46875 19.664063 18.25 19.9375 C 17.945313 20.308594 17.914063 20.816406 18.15625 21.1875 L 18.78125 22.21875 C 20.917969 25.691406 21.09375 25.910156 21.25 26.03125 C 21.488281 26.21875 21.78125 26.25 22.09375 26.125 C 23.003906 25.761719 24.984375 23.253906 25.125 22.28125 C 25.171875 21.941406 25.078125 21.65625 24.84375 21.46875 C 24.691406 21.355469 24.566406 21.308594 20.96875 20.125 C 20.96875 20.125 19.394531 19.605469 19.375 19.59375 C 19.28125 19.558594 19.191406 19.535156 19.09375 19.53125 Z M 14.71875 20.65625 C 14.507813 20.703125 14.324219 20.832031 14.1875 21 C 14.1875 21 13.410156 21.9375 13.40625 21.9375 C 10.691406 25.121094 10.597656 25.25 10.53125 25.4375 C 10.492188 25.546875 10.457031 25.695313 10.46875 25.8125 C 10.484375 25.984375 10.558594 26.128906 10.6875 26.28125 C 11.316406 27.027344 14.351563 28.132813 15.3125 27.96875 C 15.648438 27.90625 15.863281 27.75 15.96875 27.46875 C 16.03125 27.285156 16.050781 27.160156 16.0625 23.375 C 16.0625 23.375 16.0625 21.707031 16.0625 21.6875 C 16.089844 21.277344 15.839844 20.886719 15.40625 20.71875 C 15.183594 20.632813 14.929688 20.609375 14.71875 20.65625 Z"/></svg>