<svg xmlns="http://www.w3.org/2000/svg" viewBox="0 0 32 32"><path d="M 26.199219 12.832031 C 22.875 12.832031 20.910156 15.984375 20.785156 15.984375 C 20.660156 15.984375 18.707031 12.832031 15.355469 12.832031 C 12.007813 12.832031 11.050781 15.984375 10.949219 15.984375 C 10.847656 15.984375 10.078125 13.398438 7.183594 13.398438 C 4.839844 13.398438 4.511719 14.476563 4.3125 14.476563 C 4.3125 14.476563 4.488281 13.320313 4.839844 11.261719 L 10.621094 11.261719 L 10.621094 9 L 2.800781 9 L 1.480469 16.574219 L 4.011719 16.574219 C 4.011719 16.574219 4.589844 15.507813 6.125 15.507813 C 7.660156 15.507813 8.59375 16.6875 8.59375 18.019531 C 8.59375 19.347656 7.5625 20.804688 6.125 20.804688 C 4.691406 20.804688 3.859375 19.574219 3.859375 18.722656 C 2.675781 18.722656 1.039063 18.722656 1.039063 18.722656 C 1.039063 19.476563 1.644531 23 6.125 23 C 9.777344 23 10.949219 20.277344 10.949219 19.953125 C 10.949219 20.226563 12.359375 23 15.359375 23 C 18.835938 23 20.585938 19.953125 20.785156 19.953125 C 20.988281 19.953125 23.054688 23 26.203125 23 C 29.351563 23 30.964844 20.226563 30.964844 17.890625 C 30.960938 15.554688 29.527344 12.832031 26.199219 12.832031 Z M 19.105469 17.9375 L 19.101563 17.9375 C 19.082031 17.964844 17.15625 20.300781 15.371094 20.300781 C 13.578125 20.300781 13.246094 18.515625 13.246094 17.9375 C 13.246094 17.359375 13.578125 15.574219 15.371094 15.574219 C 17.15625 15.574219 19.082031 17.910156 19.101563 17.9375 Z M 28.347656 17.9375 C 28.347656 18.515625 28.015625 20.304688 26.222656 20.304688 C 24.441406 20.304688 22.515625 17.96875 22.492188 17.941406 L 22.492188 17.9375 C 22.515625 17.910156 24.441406 15.574219 26.222656 15.574219 C 28.015625 15.574219 28.347656 17.363281 28.347656 17.9375 Z"/></svg>