<svg xmlns="http://www.w3.org/2000/svg" viewBox="0 0 32 32"><path d="M 6 4 L 6 9 L 5 9 L 5 11 L 8 11 L 8 6 L 24 6 L 24 26 L 8 26 L 8 23 L 6 23 L 6 28 L 26 28 L 26 4 Z M 16 10 C 13.800781 10 12 11.800781 12 14 C 12 15.113281 12.476563 16.117188 13.21875 16.84375 C 11.886719 17.746094 11 19.285156 11 21 L 13 21 C 13 19.34375 14.34375 18 16 18 C 17.65625 18 19 19.34375 19 21 L 21 21 C 21 19.285156 20.113281 17.746094 18.78125 16.84375 C 19.523438 16.117188 20 15.113281 20 14 C 20 11.800781 18.199219 10 16 10 Z M 6 12 L 6 14 L 5 14 L 5 16 L 8 16 L 8 12 Z M 16 12 C 17.117188 12 18 12.882813 18 14 C 18 15.117188 17.117188 16 16 16 C 14.882813 16 14 15.117188 14 14 C 14 12.882813 14.882813 12 16 12 Z M 6 17 L 6 19 L 5 19 L 5 21 L 8 21 L 8 17 Z"/></svg>