<svg xmlns="http://www.w3.org/2000/svg" viewBox="0 0 32 32"><path d="M 5.3457031 5 C 4.2727031 5 4 5.2774687 4 6.3554688 L 4 24.646484 C 4 25.737484 4.2727031 26 5.3457031 26 L 26.597656 26 C 27.741656 26 28 25.755422 28 24.607422 L 28 6.4160156 C 28 5.2620156 27.746656 5 26.597656 5 L 5.3457031 5 z M 24.931641 7.0859375 C 25.073641 7.0859375 25.234953 7.1039375 25.376953 7.0859375 C 25.839953 7.0499375 26 7.2862344 26 7.7402344 C 25.995 7.7492344 25.994141 7.7546719 25.994141 7.7636719 L 26 7.7636719 L 26 21.109375 C 26 21.370375 25.962047 21.746094 25.623047 21.746094 C 25.054047 21.728094 24.36375 22.073234 23.96875 21.490234 C 23.70275 21.091234 23.609437 21.307547 23.398438 21.435547 C 20.949438 22.797547 17.524344 21.760344 16.777344 17.527344 C 16.497344 15.995344 16.744094 14.450406 17.496094 12.941406 C 18.037094 11.845406 20.106281 9.4519687 23.738281 11.542969 L 23.738281 8.2871094 C 23.738281 7.0851094 23.734641 7.0859375 24.931641 7.0859375 z M 10.847656 10.675781 C 11.808406 10.643656 12.773875 10.833422 13.734375 11.232422 C 15.611375 12.002422 15 13.946 15 17.125 C 15.124 18.308 14.803734 19.799266 15.427734 21.197266 C 15.514734 21.399266 15.444734 21.5585 15.302734 21.6875 C 14.917734 21.9945 13.819375 21.789609 13.484375 21.349609 C 13.397375 21.248609 13.400688 21.183453 13.304688 21.064453 C 13.139688 20.885453 12.970766 20.964328 12.759766 21.111328 C 10.127766 22.780328 6.3255781 22.092 6.0175781 19.125 C 5.8755781 17.781 6.5850312 16.506141 7.8320312 15.869141 C 9.5840313 14.975141 12.786141 15.327172 12.869141 14.451172 C 12.920141 13.982172 12.782563 13.529219 12.351562 13.199219 C 11.090563 12.273219 9.2366406 12.799484 8.6816406 14.271484 C 8.4846406 14.780484 8.2549063 14.707344 7.8789062 14.652344 C 7.4339062 14.583344 7.0906562 14.505391 6.8476562 14.400391 C 5.5266563 13.877391 7.2402812 11.864172 7.9882812 11.451172 C 8.9307812 10.960672 9.8869063 10.707906 10.847656 10.675781 z M 21.308594 13.003906 C 20.595219 13.039406 19.911563 13.435406 19.539062 14.191406 C 18.813063 15.667406 18.831484 17.214406 19.521484 18.691406 C 20.303484 20.380406 22.743766 20.571938 23.634766 18.460938 C 23.944766 17.728938 24.205672 15.254516 23.263672 13.978516 C 22.765672 13.293516 22.021969 12.968406 21.308594 13.003906 z M 12.867188 17.013672 C 12.816937 16.996266 12.746484 16.995828 12.646484 17.017578 C 11.548484 17.227578 10.428078 17.400203 9.3300781 17.658203 C 8.7900781 17.780203 8.4214531 18.178156 8.4394531 18.785156 C 8.4704531 19.855156 9.6180781 19.943 9.9550781 20 C 11.822078 20.017 13.061047 18.872641 12.998047 17.431641 C 12.984547 17.264391 13.017938 17.065891 12.867188 17.013672 z M 6.2929688 23.005859 C 6.4523437 22.980609 6.6477344 23.037109 6.8027344 23.037109 C 13.004734 23.018109 19.020656 23.01225 25.222656 23.03125 C 25.540656 23.03125 26 22.824141 26 23.494141 C 26 24.202141 25.480016 23.958984 25.166016 23.958984 L 6.8359375 23.966797 C 6.4889375 23.966797 5.9829531 24.191844 6.0019531 23.464844 C 6.0114531 23.138844 6.1335938 23.031109 6.2929688 23.005859 z"/></svg>