<svg xmlns="http://www.w3.org/2000/svg" viewBox="0 0 32 32"><path d="M 5 5 L 5 27 L 27 27 L 27 5 L 5 5 z M 7 7 L 25 7 L 25 25 L 7 25 L 7 7 z M 15.992188 9.0097656 C 15.910187 8.9897656 15.839578 9.0000156 15.767578 9.0410156 C 15.613578 9.1230156 15.529563 9.3088906 15.601562 9.4628906 C 16.085562 10.594891 17.783125 14.496094 19.203125 17.121094 L 20.521484 16.410156 C 19.174484 13.795156 16.836734 10.163531 16.177734 9.1445312 C 16.136734 9.0725313 16.064188 9.0307656 15.992188 9.0097656 z M 15.248047 11.263672 C 14.898047 11.222672 14.558047 11.366547 14.373047 11.685547 L 15.886719 12.580078 C 16.123719 12.159078 15.978406 11.604422 15.566406 11.357422 C 15.463406 11.306422 15.351047 11.284672 15.248047 11.263672 z M 14.248047 11.902344 L 13.435547 13.292969 L 14.980469 14.15625 L 15.761719 12.808594 L 14.248047 11.902344 z M 13.34375 13.445312 L 10.132812 19.044922 L 11.646484 19.919922 L 14.857422 14.351562 L 13.34375 13.445312 z M 9 15 L 9 17 L 10.929688 17 L 12.099609 15 L 9 15 z M 14.839844 15 L 13.689453 17 L 18.769531 17 C 18.489531 16.45 18.059531 15.59 17.769531 15 L 14.839844 15 z M 20.130859 15 C 20.380859 15.46 20.710547 16.089063 20.810547 16.289062 C 20.830547 16.309063 20.890156 16.430703 20.910156 16.470703 L 21.130859 17 L 23 17 L 23 15 L 20.130859 15 z M 20.625 16.605469 L 19.308594 17.316406 L 20.296875 18.859375 L 21.324219 18.273438 L 20.625 16.605469 z M 21.427734 18.53125 L 20.460938 19.046875 L 21.488281 21.496094 C 21.673281 21.928094 22.168078 22.134203 22.580078 21.908203 C 22.992078 21.691203 23.126141 21.144906 22.869141 20.753906 L 21.427734 18.53125 z M 9.9980469 19.240234 L 9.453125 21.845703 L 9.5878906 21.90625 L 11.542969 20.136719 L 9.9980469 19.240234 z"/></svg>