<svg xmlns="http://www.w3.org/2000/svg" viewBox="0 0 32 32"><path d="M 20.84375 2 C 19.203125 2 17.546875 2.851563 16.4375 4.15625 L 16.4375 4.1875 C 15.648438 5.167969 14.792969 6.714844 15.0625 8.5 C 14.933594 8.449219 14.925781 8.464844 14.78125 8.40625 C 14.089844 8.125 13.234375 7.8125 12.21875 7.8125 C 8.238281 7.8125 5.21875 11.417969 5.21875 16.15625 C 5.21875 19.222656 6.25 22.097656 7.625 24.25 C 8.3125 25.328125 9.09375 26.214844 9.90625 26.875 C 10.71875 27.535156 11.570313 28 12.53125 28 C 13.492188 28 14.210938 27.675781 14.75 27.4375 C 15.289063 27.199219 15.707031 27 16.5 27 C 17.214844 27 17.578125 27.195313 18.125 27.4375 C 18.671875 27.679688 19.417969 28 20.40625 28 C 21.476563 28 22.386719 27.476563 23.125 26.8125 C 23.863281 26.148438 24.484375 25.292969 25 24.46875 C 25.515625 23.644531 25.921875 22.835938 26.21875 22.1875 C 26.367188 21.863281 26.476563 21.59375 26.5625 21.375 C 26.648438 21.15625 26.691406 21.09375 26.75 20.84375 L 26.9375 20.03125 L 26.1875 19.6875 C 26.011719 19.609375 25.3125 19.261719 24.6875 18.625 C 24.0625 17.988281 23.53125 17.117188 23.53125 15.78125 C 23.53125 14.488281 24.027344 13.621094 24.5625 13 C 24.828125 12.691406 25.105469 12.4375 25.3125 12.28125 C 25.417969 12.203125 25.5 12.164063 25.5625 12.125 C 25.625 12.085938 25.613281 12.097656 25.71875 12.03125 L 26.5625 11.5 L 26 10.65625 C 24.367188 8.144531 21.753906 7.8125 20.71875 7.8125 C 20.238281 7.8125 19.898438 7.980469 19.46875 8.0625 C 19.710938 7.835938 20.023438 7.695313 20.21875 7.4375 C 20.222656 7.433594 20.214844 7.410156 20.21875 7.40625 C 20.230469 7.394531 20.242188 7.386719 20.25 7.375 L 20.28125 7.375 C 21.347656 6.183594 21.9375 4.582031 21.84375 2.9375 L 21.78125 2 Z M 19.65625 4.3125 C 19.484375 4.972656 19.203125 5.601563 18.75 6.09375 L 18.6875 6.15625 C 18.304688 6.671875 17.714844 7.054688 17.125 7.28125 C 17.289063 6.628906 17.574219 5.96875 17.96875 5.46875 C 17.976563 5.457031 17.992188 5.449219 18 5.4375 C 18.4375 4.9375 19.042969 4.5625 19.65625 4.3125 Z M 12.21875 9.8125 C 12.777344 9.8125 13.390625 10.023438 14.03125 10.28125 C 14.671875 10.539063 15.269531 10.875 16.125 10.875 C 16.976563 10.875 17.621094 10.539063 18.375 10.28125 C 19.128906 10.023438 19.933594 9.8125 20.71875 9.8125 C 21.242188 9.8125 22.535156 10.144531 23.625 11.15625 C 23.433594 11.328125 23.265625 11.453125 23.0625 11.6875 C 22.300781 12.570313 21.53125 13.945313 21.53125 15.78125 C 21.53125 17.6875 22.363281 19.121094 23.25 20.03125 C 23.800781 20.59375 24.140625 20.726563 24.5625 20.96875 C 24.507813 21.09375 24.476563 21.191406 24.40625 21.34375 C 24.136719 21.929688 23.765625 22.679688 23.3125 23.40625 C 22.859375 24.132813 22.308594 24.839844 21.78125 25.3125 C 21.253906 25.785156 20.78125 26 20.40625 26 C 19.839844 26 19.507813 25.84375 18.9375 25.59375 C 18.367188 25.34375 17.582031 25 16.5 25 C 15.363281 25 14.523438 25.335938 13.9375 25.59375 C 13.351563 25.851563 13.046875 26 12.53125 26 C 12.285156 26 11.753906 25.800781 11.15625 25.3125 C 10.558594 24.824219 9.902344 24.082031 9.3125 23.15625 C 8.128906 21.304688 7.21875 18.761719 7.21875 16.15625 C 7.21875 12.214844 9.417969 9.8125 12.21875 9.8125 Z"/></svg>