<svg xmlns="http://www.w3.org/2000/svg" viewBox="0 0 32 32"><path d="M 10.375 3.96875 C 10.082031 3.972656 9.90625 4 9.90625 4 L 8.875 4.09375 L 9 5.125 C 9 5.125 9.246094 7.410156 10.875 9.09375 C 7.570313 9.605469 5 12.332031 5 15.65625 C 5 19.242188 6.597656 22.085938 8.46875 24 C 9.402344 24.957031 10.394531 25.679688 11.34375 26.1875 C 12.292969 26.695313 13.164063 27 14 27 C 14.546875 27 15.078125 26.90625 15.5625 26.75 C 15.855469 26.65625 16.144531 26.65625 16.4375 26.75 C 16.921875 26.90625 17.453125 27 18 27 C 18.90625 27 19.777344 26.617188 20.71875 26.03125 C 21.660156 25.445313 22.640625 24.632813 23.5625 23.625 C 25.40625 21.613281 27 18.820313 27 15.65625 C 27 11.964844 23.824219 9 20 9 C 18.972656 9 18.023438 9.25 17.15625 9.65625 C 17.152344 9.628906 17.132813 9.582031 17.125 9.53125 C 17.636719 6.863281 19.5 5.875 19.5 5.875 L 18.5 4.125 C 18.5 4.125 17.089844 4.972656 16.0625 6.78125 C 15.738281 6.285156 15.308594 5.796875 14.78125 5.375 C 13.195313 4.109375 11.25 3.960938 10.375 3.96875 Z M 11.34375 6.09375 C 12.035156 6.199219 12.890625 6.425781 13.53125 6.9375 C 14.183594 7.457031 14.621094 8.21875 14.875 8.875 C 14.179688 8.773438 13.308594 8.519531 12.65625 8 C 12.011719 7.484375 11.597656 6.746094 11.34375 6.09375 Z M 12 11 C 13.300781 11 14.457031 11.472656 15.34375 12.21875 L 16 12.75 L 16.65625 12.21875 C 17.542969 11.472656 18.699219 11 20 11 C 22.804688 11 25 13.113281 25 15.65625 C 25 18.136719 23.699219 20.53125 22.09375 22.28125 C 21.292969 23.15625 20.421875 23.839844 19.65625 24.3125 C 18.890625 24.785156 18.195313 25 18 25 C 17.671875 25 17.363281 24.941406 17.0625 24.84375 C 16.375 24.621094 15.625 24.621094 14.9375 24.84375 C 14.636719 24.941406 14.328125 25 14 25 C 13.730469 25 13.039063 24.84375 12.28125 24.4375 C 11.523438 24.03125 10.664063 23.402344 9.875 22.59375 C 8.296875 20.976563 7 18.65625 7 15.65625 C 7 13.113281 9.195313 11 12 11 Z"/></svg>