<svg xmlns="http://www.w3.org/2000/svg" viewBox="0 0 32 32"><path d="M 24.75 1.375 L 23.65625 3.03125 C 25.21875 4.042969 26.515625 5.433594 27.4375 7.09375 L 29.1875 6.125 C 28.109375 4.183594 26.585938 2.5625 24.75 1.375 Z M 23.0625 3.875 L 21.9375 5.53125 C 23.140625 6.363281 24.128906 7.339844 24.84375 8.59375 L 26.5625 7.59375 C 25.679688 6.046875 24.457031 4.839844 23.0625 3.875 Z M 17 5 C 12.570313 5 9 8.570313 9 13 L 11 13 C 11 9.628906 13.628906 7 17 7 C 20.371094 7 23 9.628906 23 13 C 23 15.246094 22.347656 16.472656 21.625 17.6875 C 20.902344 18.902344 20 20.167969 20 22 C 20 23.65625 18.65625 25 17 25 L 17 27 C 19.746094 27 22 24.746094 22 22 C 22 20.832031 22.597656 20.027344 23.375 18.71875 C 24.152344 17.410156 25 15.652344 25 13 C 25 8.570313 21.429688 5 17 5 Z M 17 8 C 14.253906 8 12 10.253906 12 13 L 14 13 C 14 11.34375 15.34375 10 17 10 C 18.65625 10 20 11.34375 20 13 L 22 13 C 22 10.253906 19.746094 8 17 8 Z M 17 13 C 16.449219 13 16 13.449219 16 14 C 16 14.550781 16.449219 15 17 15 C 17.550781 15 18 14.550781 18 14 C 18 13.449219 17.550781 13 17 13 Z M 14 16 C 13.449219 16 13 16.449219 13 17 C 13 17.550781 13.449219 18 14 18 C 14.550781 18 15 17.550781 15 17 C 15 16.449219 14.550781 16 14 16 Z M 10.21875 17.9375 L 9.03125 19.15625 L 11.84375 21.96875 L 13.0625 20.78125 Z M 8 22 C 7.449219 22 7 22.449219 7 23 C 7 23.550781 7.449219 24 8 24 C 8.550781 24 9 23.550781 9 23 C 9 22.449219 8.550781 22 8 22 Z M 5 25 C 4.449219 25 4 25.449219 4 26 C 4 26.550781 4.449219 27 5 27 C 5.550781 27 6 26.550781 6 26 C 6 25.449219 5.550781 25 5 25 Z"/></svg>