<svg xmlns="http://www.w3.org/2000/svg" viewBox="0 0 32 32"><path d="M 18.089844 6.0839844 C 12.65294 5.9903691 6.6645625 7.3569375 2 10 C 4.682 8.955 7.3833906 8.1995 10.275391 7.5625 C 13.943391 6.7545 17.71125 6.3267969 21.03125 6.8417969 C 28.44425 7.9987969 30.599938 13.042375 25.835938 18.109375 C 25.339938 18.634375 24.661297 19.211828 24.029297 19.673828 L 16.851562 9.1015625 L 7.6445312 22.505859 L 7.5527344 22.470703 C 3.2737344 20.993703 3.2114219 18.481125 5.9824219 15.328125 C 6.9934219 14.248125 8.3586562 13.342906 9.8476562 12.503906 C 10.839656 11.944906 11.894516 11.403766 12.978516 11.009766 C 9.8135156 11.996766 6.8968594 13.581344 5.0058594 15.527344 C 3.6588594 16.917344 3.015 18.303594 3 19.558594 C 2.976 21.265594 4.8364375 22.550875 7.0234375 23.421875 L 5.2753906 26 L 10.212891 26 L 10.216797 25.992188 L 10.230469 26 L 11.398438 24.226562 C 12.445438 24.266562 13.582828 24.22075 14.673828 24.09375 L 13.509766 26 L 20.082031 26 L 18.476562 23.326172 C 19.349563 23.077172 20.233453 22.776406 21.064453 22.441406 L 22.919922 25.257812 L 23.378906 26 L 28.316406 26 L 24.65625 20.599609 C 25.55525 20.011609 26.457812 19.291703 27.132812 18.595703 C 29.018812 16.650703 29.956563 14.705219 29.976562 12.949219 C 30.015563 9.7642187 27.090187 7.2017656 21.742188 6.3847656 C 20.569187 6.2053281 19.344514 6.1055879 18.089844 6.0839844 z M 16.808594 16.021484 L 17.511719 17.044922 L 20.523438 21.617188 C 19.715438 21.959188 18.871672 22.262766 18.013672 22.509766 L 16.798828 20.535156 L 15.257812 23.126953 C 14.166813 23.289953 13.073484 23.31025 12.021484 23.28125 L 16.808594 16.021484 z"/></svg>