<svg xmlns="http://www.w3.org/2000/svg" viewBox="0 0 32 32"><path d="M 8.4765625 5.109375 L 7.4902344 6.8769531 L 3 14.734375 L 3 15 C 3 17.757 5.243 20 8 20 C 10.757 20 13 17.757 13 15 L 13 14.734375 L 8.7890625 7.3632812 L 13.005859 8.9453125 C 13.005515 8.9639792 13 8.9812527 13 9 C 13 10.301609 13.838749 11.402139 15 11.816406 L 15 24 L 11 24 L 11 26 L 15 26 L 17 26 L 17 24 L 17 11.816406 C 17.501684 11.637435 17.936818 11.329853 18.275391 10.931641 L 22.990234 12.765625 L 19 19.75 L 19 20.015625 C 19 22.771625 21.243 25 24 25 C 26.757 25 29 22.771625 29 20.015625 L 29 19.75 L 24 11 L 18.994141 9.0625 C 18.994589 9.0412083 19 9.021397 19 9 C 19 7.346 17.654 6 16 6 C 15.081786 6 14.269528 6.4241192 13.71875 7.0761719 L 8.4765625 5.109375 z M 16 8 C 16.552 8 17 8.449 17 9 C 17 9.551 16.552 10 16 10 C 15.448 10 15 9.551 15 9 C 15 8.449 15.448 8 16 8 z M 8 10.015625 L 10.277344 14 L 5.7226562 14 L 8 10.015625 z M 24 15.03125 L 26.267578 19 L 21.732422 19 L 24 15.03125 z M 5.1855469 16 L 10.814453 16 C 10.400209 17.161642 9.3021724 18 8 18 C 6.6978276 18 5.5997912 17.161642 5.1855469 16 z M 21.179688 21 L 26.820312 21 C 26.410531 22.169868 25.308062 23.015625 24 23.015625 C 22.691938 23.015625 21.589469 22.169868 21.179688 21 z"/></svg>