<svg xmlns="http://www.w3.org/2000/svg" viewBox="0 0 32 32"><path d="M 16 3 C 8.832031 3 3 8.832031 3 16 C 3 23.167969 8.832031 29 16 29 C 23.167969 29 29 23.167969 29 16 C 29 8.832031 23.167969 3 16 3 Z M 14.875 5.0625 C 14.917969 5.058594 14.957031 5.066406 15 5.0625 L 15 15 L 11.9375 15 C 11.722656 12.1875 10.628906 9.621094 8.90625 7.59375 C 10.550781 6.203125 12.605469 5.292969 14.875 5.0625 Z M 17 5.0625 C 19.316406 5.269531 21.417969 6.175781 23.09375 7.59375 C 21.371094 9.621094 20.277344 12.1875 20.0625 15 L 17 15 Z M 7.5 9.03125 C 8.867188 10.6875 9.730469 12.738281 9.9375 15 L 5.0625 15 C 5.265625 12.738281 6.140625 10.6875 7.5 9.03125 Z M 24.5 9.03125 C 25.859375 10.6875 26.734375 12.738281 26.9375 15 L 22.0625 15 C 22.269531 12.738281 23.132813 10.6875 24.5 9.03125 Z M 5.0625 17 L 9.9375 17 C 9.730469 19.261719 8.867188 21.3125 7.5 22.96875 C 6.140625 21.3125 5.265625 19.261719 5.0625 17 Z M 11.9375 17 L 15 17 L 15 26.9375 C 12.683594 26.730469 10.582031 25.824219 8.90625 24.40625 C 10.628906 22.378906 11.722656 19.8125 11.9375 17 Z M 17 17 L 20.0625 17 C 20.277344 19.8125 21.371094 22.378906 23.09375 24.40625 C 21.417969 25.824219 19.316406 26.730469 17 26.9375 Z M 22.0625 17 L 26.9375 17 C 26.734375 19.261719 25.859375 21.3125 24.5 22.96875 C 23.132813 21.3125 22.269531 19.261719 22.0625 17 Z"/></svg>