<svg xmlns="http://www.w3.org/2000/svg" viewBox="0 0 32 32"><path d="M 6 6 C 4.355469 6 3 7.355469 3 9 L 3 15.78125 C 2.390625 16.332031 2 17.121094 2 18 L 2 27 L 7 27 L 7 25 L 25 25 L 25 27 L 30 27 L 30 18 C 30 17.121094 29.609375 16.332031 29 15.78125 L 29 9 C 29 7.355469 27.644531 6 26 6 Z M 6 8 L 26 8 C 26.554688 8 27 8.445313 27 9 L 27 15 L 25 15 L 25 14 C 25 12.355469 23.644531 11 22 11 L 18 11 C 17.234375 11 16.53125 11.300781 16 11.78125 C 15.46875 11.300781 14.765625 11 14 11 L 10 11 C 8.355469 11 7 12.355469 7 14 L 7 15 L 5 15 L 5 9 C 5 8.445313 5.445313 8 6 8 Z M 10 13 L 14 13 C 14.554688 13 15 13.445313 15 14 L 15 15 L 9 15 L 9 14 C 9 13.445313 9.445313 13 10 13 Z M 18 13 L 22 13 C 22.554688 13 23 13.445313 23 14 L 23 15 L 17 15 L 17 14 C 17 13.445313 17.445313 13 18 13 Z M 5 17 L 27 17 C 27.554688 17 28 17.445313 28 18 L 28 25 L 27 25 L 27 23 L 5 23 L 5 25 L 4 25 L 4 18 C 4 17.445313 4.445313 17 5 17 Z"/></svg>