<svg xmlns="http://www.w3.org/2000/svg" viewBox="0 0 32 32"><path d="M 13.59375 4.40625 C 10.894531 5.304688 9 7.699219 9 10.5 C 9 11.5 9.289063 12.507813 9.6875 13.40625 C 8.6875 13.40625 7.710938 13.6875 6.8125 14.1875 C 4.414063 15.585938 3.210938 18.414063 3.8125 21.3125 L 5.8125 20.90625 C 5.414063 18.90625 6.210938 16.90625 7.8125 15.90625 C 9.914063 14.707031 12.789063 15.601563 14.1875 18 C 14.886719 19.199219 15.113281 20.511719 14.8125 21.8125 C 14.511719 23.011719 13.8125 23.992188 12.8125 24.59375 C 11.210938 25.492188 9 25.210938 7.5 23.8125 L 6.1875 25.3125 C 7.488281 26.511719 9.210938 27.09375 10.8125 27.09375 C 11.914063 27.09375 12.90625 26.8125 13.90625 26.3125 C 14.804688 25.8125 15.5 25.085938 16 24.1875 C 16.5 25.085938 17.195313 25.8125 18.09375 26.3125 C 18.992188 26.8125 20.085938 27.09375 21.1875 27.09375 C 22.789063 27.09375 24.511719 26.511719 25.8125 25.3125 L 24.5 23.8125 C 23 25.210938 20.789063 25.492188 19.1875 24.59375 C 18.1875 23.992188 17.488281 23.011719 17.1875 21.8125 C 16.886719 20.511719 17.113281 19.199219 17.8125 18 C 19.210938 15.601563 21.988281 14.707031 24.1875 15.90625 C 25.789063 16.804688 26.585938 18.804688 26.1875 20.90625 L 28.1875 21.3125 C 28.6875 18.414063 27.492188 15.585938 25.09375 14.1875 C 24.195313 13.6875 23.1875 13.40625 22.1875 13.40625 C 22.6875 12.507813 22.90625 11.601563 22.90625 10.5 C 22.90625 7.699219 20.988281 5.304688 18.1875 4.40625 L 17.59375 6.3125 C 19.59375 6.914063 20.90625 8.601563 20.90625 10.5 C 20.90625 13 18.707031 15 15.90625 15 C 13.105469 15 10.90625 13 10.90625 10.5 C 10.90625 8.601563 12.1875 6.914063 14.1875 6.3125 Z M 16 10 C 14.898438 10 13.898438 10.1875 13 10.6875 C 13.101563 11.386719 13.398438 12.007813 14 12.40625 C 14.601563 12.105469 15.304688 12 15.90625 12 C 16.507813 12 17.210938 12.105469 17.8125 12.40625 C 18.414063 12.007813 18.8125 11.386719 18.8125 10.6875 C 18.113281 10.1875 17.101563 10 16 10 Z M 16 16 C 16.601563 16 17 16.398438 17 17 C 17 17.601563 16.601563 18 16 18 C 15.398438 18 15 17.601563 15 17 C 15 16.398438 15.398438 16 16 16 Z M 9.96875 17.3125 C 9.632813 17.289063 9.300781 17.351563 9 17.5 C 9.199219 19.601563 10.300781 21.488281 12 22.6875 C 12.5 22.386719 12.804688 21.914063 12.90625 21.3125 L 12.90625 20.90625 C 11.90625 20.105469 11.199219 18.992188 11 17.59375 C 10.648438 17.445313 10.304688 17.335938 9.96875 17.3125 Z M 22.09375 17.40625 C 21.695313 17.40625 21.300781 17.488281 21 17.6875 C 20.800781 18.988281 20.101563 20.199219 19 21 L 19 21.40625 C 19.101563 22.007813 19.507813 22.511719 19.90625 22.8125 C 21.707031 21.613281 22.800781 19.695313 23 17.59375 C 22.699219 17.492188 22.394531 17.40625 22.09375 17.40625 Z"/></svg>