<svg xmlns="http://www.w3.org/2000/svg" viewBox="0 0 32 32"><path d="M 5 5 L 5 27 L 27 27 L 27 5 L 5 5 z M 7 7 L 25 7 L 25 25 L 7 25 L 7 7 z M 15 10 C 13 10 13.030391 10.019531 12.400391 10.269531 C 11.230391 10.739531 10.389844 11.720469 10.089844 12.980469 C 10.039844 13.210469 10.019766 13.589766 10.009766 15.759766 C 9.9897656 18.469766 10.009688 18.870156 10.179688 19.410156 C 10.599687 20.740156 11.790703 21.719453 12.970703 21.939453 C 13.370703 22.009453 18.26 22.030938 18.75 21.960938 C 19.63 21.840937 20.299453 21.490078 20.939453 20.830078 C 21.409453 20.360078 21.700625 19.849922 21.890625 19.169922 C 22.030625 18.699922 22.020938 15.349375 21.960938 15.109375 C 21.910937 14.899375 21.790859 14.689375 21.630859 14.609375 C 21.580859 14.589375 21.280938 14.559063 20.960938 14.539062 C 20.420938 14.519063 20.359453 14.510391 20.189453 14.400391 C 19.929453 14.250391 19.849609 14.069141 19.849609 13.619141 C 19.849609 12.739141 19.48 11.909922 18.75 11.169922 C 18.23 10.639922 17.660234 10.280078 16.990234 10.080078 C 16.840234 10.040078 16.19 10 15 10 z M 13.769531 13 L 16.0625 13 C 16.4875 13 16.832031 13.344531 16.832031 13.769531 C 16.832031 14.194531 16.4875 14.539063 16.0625 14.539062 L 13.769531 14.539062 C 13.344531 14.539062 13 14.194531 13 13.769531 C 13 13.344531 13.344531 13 13.769531 13 z M 13.769531 17.460938 L 18.042969 17.460938 C 18.467969 17.460938 18.8125 17.805469 18.8125 18.230469 C 18.8125 18.655469 18.467969 19 18.042969 19 L 13.769531 19 C 13.344531 19 13 18.655469 13 18.230469 C 13 17.805469 13.344531 17.460937 13.769531 17.460938 z"/></svg>