<svg xmlns="http://www.w3.org/2000/svg" viewBox="0 0 32 32"><path d="M 16 4 C 12.699219 4 10 6.699219 10 10 C 10 11.007813 10.246094 11.945313 10.6875 12.78125 C 8.863281 12.335938 6.640625 12 4 12 L 2.71875 12 L 6.21875 26 L 7 26 C 10.40625 26 12.5 26.488281 13.71875 26.9375 C 14.328125 27.164063 14.714844 27.386719 14.9375 27.53125 C 15.160156 27.675781 15.1875 27.6875 15.1875 27.6875 L 15.46875 28 L 16.53125 28 L 16.8125 27.6875 C 16.8125 27.6875 16.839844 27.675781 17.0625 27.53125 C 17.285156 27.386719 17.671875 27.164063 18.28125 26.9375 C 19.5 26.488281 21.59375 26 25 26 L 25.78125 26 L 29.28125 12 L 28 12 C 25.371094 12 23.152344 12.316406 21.34375 12.75 C 21.773438 11.925781 22 10.992188 22 10 C 22 6.699219 19.300781 4 16 4 Z M 16 6 C 18.222656 6 20 7.777344 20 10 C 20 12.222656 18.222656 14 16 14 C 13.777344 14 12 12.222656 12 10 C 12 7.777344 13.777344 6 16 6 Z M 5.3125 14.125 C 8.421875 14.277344 10.960938 14.816406 12.625 15.4375 C 13.964844 15.9375 14.625 16.324219 15 16.5625 L 15 25.3125 C 14.820313 25.230469 14.65625 25.144531 14.4375 25.0625 C 13.085938 24.5625 10.867188 24.140625 7.78125 24.0625 Z M 26.6875 14.125 L 24.21875 24.0625 C 21.132813 24.140625 18.914063 24.5625 17.5625 25.0625 C 17.34375 25.144531 17.179688 25.230469 17 25.3125 L 17 16.5625 C 17.375 16.320313 18.03125 15.929688 19.34375 15.4375 C 20.996094 14.816406 23.539063 14.277344 26.6875 14.125 Z"/></svg>