<svg xmlns="http://www.w3.org/2000/svg" viewBox="0 0 32 32"><path d="M 13 4 C 11.089844 4 9.542969 5.386719 9.15625 7.1875 C 6.824219 7.605469 5 9.550781 5 12 C 5 12.246094 5.027344 12.464844 5.0625 12.6875 C 4.417969 13.636719 4 14.753906 4 16 C 4 17.796875 4.894531 19.308594 6.15625 20.40625 C 6.066406 20.761719 6 21.117188 6 21.5 C 6 23.972656 8.027344 26 10.5 26 C 10.527344 26 10.539063 26 10.5625 26 C 11.144531 27.128906 12.152344 28 13.5 28 C 14.476563 28 15.363281 27.589844 16 26.9375 C 16.636719 27.589844 17.523438 28 18.5 28 C 19.847656 28 20.855469 27.128906 21.4375 26 C 21.460938 26 21.472656 26 21.5 26 C 23.847656 26 25.773438 24.171875 25.96875 21.875 L 26 21.875 C 26 21.8125 25.972656 21.75 25.96875 21.6875 C 25.972656 21.625 26 21.5625 26 21.5 C 26 21.128906 25.867188 20.8125 25.78125 20.46875 C 27.078125 19.367188 28 17.828125 28 16 C 28 14.753906 27.582031 13.636719 26.9375 12.6875 C 26.972656 12.464844 27 12.246094 27 12 C 27 9.550781 25.175781 7.605469 22.84375 7.1875 C 22.457031 5.386719 20.910156 4 19 4 C 17.800781 4 16.734375 4.558594 16 5.40625 C 15.265625 4.558594 14.199219 4 13 4 Z M 13 6 C 14.117188 6 15 6.882813 15 8 L 15 10 C 15 11.667969 13.667969 13 12 13 L 12 15 C 13.132813 15 14.160156 14.609375 15 13.96875 L 15 24.5 C 15 25.339844 14.339844 26 13.5 26 C 12.753906 26 12.15625 25.484375 12.03125 24.78125 L 11.84375 23.8125 L 10.875 23.96875 C 10.699219 23.996094 10.589844 24 10.5 24 C 9.109375 24 8 22.890625 8 21.5 C 8 21.191406 8.050781 20.902344 8.15625 20.625 C 8.164063 20.601563 8.179688 20.585938 8.1875 20.5625 C 8.496094 19.792969 9.167969 19.230469 10 19.0625 L 9.59375 17.09375 C 8.550781 17.304688 7.644531 17.859375 7 18.65625 C 6.371094 17.953125 6 17.023438 6 16 C 6 15.0625 6.320313 14.226563 6.875 13.53125 L 7.1875 13.15625 L 7.09375 12.65625 C 7.039063 12.421875 7 12.214844 7 12 C 7 10.332031 8.332031 9 10 9 L 11 9 L 11 8 C 11 6.882813 11.882813 6 13 6 Z M 19 6 C 20.117188 6 21 6.882813 21 8 L 21 9 L 22 9 C 23.667969 9 25 10.332031 25 12 C 25 12.214844 24.960938 12.421875 24.90625 12.65625 L 24.8125 13.15625 L 25.125 13.53125 C 25.679688 14.226563 26 15.0625 26 16 C 26 17.199219 25.488281 18.269531 24.65625 19 C 23.972656 18.394531 23.101563 18 22.125 18 C 21.179688 18 20.328125 18.335938 19.65625 18.90625 L 20.9375 20.4375 C 21.261719 20.164063 21.660156 20 22.125 20 C 23.089844 20 23.859375 20.722656 23.96875 21.65625 C 23.886719 22.972656 22.835938 24 21.5 24 C 21.410156 24 21.300781 23.996094 21.125 23.96875 L 20.15625 23.8125 L 19.96875 24.78125 C 19.84375 25.484375 19.246094 26 18.5 26 C 17.660156 26 17 25.339844 17 24.5 L 17 13.96875 C 17.839844 14.609375 18.867188 15 20 15 L 20 13 C 18.332031 13 17 11.667969 17 10 L 17 8 C 17 6.882813 17.882813 6 19 6 Z"/></svg>