<svg xmlns="http://www.w3.org/2000/svg" viewBox="0 0 32 32"><path d="M 19 2.03125 L 18.28125 2.71875 L 12.71875 8.3125 L 12 9 L 11 10 L 8.71875 12.3125 L 8.15625 12.875 L 8.59375 13.5625 C 8.59375 13.5625 9.203125 14.5 9.6875 15.53125 C 9.929688 16.046875 10.148438 16.59375 10.21875 16.96875 C 10.253906 17.15625 10.257813 17.269531 10.25 17.3125 C 10.140625 17.398438 8.824219 18.441406 7.25 19.71875 C 5.609375 21.046875 3.867188 22.445313 3.15625 23.15625 C 1.601563 24.710938 1.601563 27.257813 3.15625 28.8125 C 4.703125 30.359375 7.226563 30.347656 8.78125 28.8125 L 8.8125 28.8125 C 9.527344 28.097656 10.960938 26.382813 12.28125 24.75 C 13.570313 23.15625 14.65625 21.800781 14.71875 21.71875 C 14.714844 21.722656 14.761719 21.65625 15.125 21.71875 C 15.488281 21.78125 16.003906 21.96875 16.5 22.21875 C 17.492188 22.714844 18.40625 23.375 18.40625 23.375 L 19.09375 23.875 L 19.6875 23.28125 L 22 21 L 23 20 L 23.6875 19.28125 L 29.28125 13.71875 L 29.96875 13 L 29.28125 12.28125 L 19.71875 2.71875 Z M 20.3125 7.25 C 20.503906 7.265625 20.652344 7.339844 20.78125 7.46875 C 21.292969 7.984375 20.546875 9.988281 20.1875 10.84375 C 19.828125 11.703125 19.941406 12.375 20.40625 12.84375 C 21.199219 13.644531 23.296875 11.761719 24.1875 12.65625 C 25.074219 13.550781 23.460938 15.453125 24.03125 16.03125 C 24.042969 16.042969 24.050781 16.050781 24.0625 16.0625 L 22.28125 17.84375 L 14.15625 9.71875 L 15.53125 8.34375 C 15.550781 8.367188 15.570313 8.382813 15.59375 8.40625 C 16.273438 9.089844 17.667969 8.4375 18.25 8.0625 C 18.9375 7.621094 19.742188 7.203125 20.3125 7.25 Z M 12.71875 11.15625 L 20.84375 19.28125 L 20.5625 19.5625 L 18.84375 21.3125 C 18.457031 21.046875 18.1875 20.828125 17.40625 20.4375 C 16.808594 20.140625 16.160156 19.867188 15.46875 19.75 C 14.777344 19.632813 13.902344 19.660156 13.28125 20.28125 L 13.25 20.34375 L 13.21875 20.375 C 13.21875 20.375 12.039063 21.871094 10.71875 23.5 C 9.398438 25.128906 7.867188 26.945313 7.40625 27.40625 C 6.617188 28.195313 5.382813 28.195313 4.59375 27.40625 C 3.804688 26.617188 3.804688 25.382813 4.59375 24.59375 C 5.054688 24.132813 6.871094 22.601563 8.5 21.28125 C 10.128906 19.960938 11.625 18.78125 11.625 18.78125 L 11.65625 18.75 L 11.71875 18.71875 C 12.351563 18.089844 12.3125 17.253906 12.1875 16.59375 C 12.0625 15.933594 11.78125 15.289063 11.5 14.6875 C 11.121094 13.875 10.898438 13.578125 10.65625 13.1875 L 12.4375 11.4375 Z M 6.25 24.65625 C 5.644531 24.65625 5.15625 25.144531 5.15625 25.75 C 5.15625 26.355469 5.644531 26.84375 6.25 26.84375 C 6.855469 26.84375 7.34375 26.355469 7.34375 25.75 C 7.34375 25.144531 6.855469 24.65625 6.25 24.65625 Z"/></svg>