<svg xmlns="http://www.w3.org/2000/svg" viewBox="0 0 32 32"><path d="M 22.875 3.15625 L 21.75 4.8125 C 21.75 4.8125 22.363281 5.289063 22.65625 5.96875 C 22.910156 6.566406 23.09375 7.265625 22.125 8.4375 L 21.25 9.3125 C 18.304688 6.804688 15.3125 6.6875 15.3125 6.6875 L 14.75 6.6875 L 14.4375 7.1875 C 14.4375 7.1875 11.886719 11.523438 9.4375 16 C 8.210938 18.238281 7 20.515625 6.15625 22.3125 C 5.734375 23.210938 5.402344 23.992188 5.1875 24.625 C 5.082031 24.941406 5.007813 25.207031 4.96875 25.5 C 4.929688 25.792969 4.820313 26.195313 5.3125 26.6875 C 5.804688 27.179688 6.207031 27.070313 6.5 27.03125 C 6.792969 26.992188 7.058594 26.917969 7.375 26.8125 C 8.007813 26.597656 8.789063 26.265625 9.6875 25.84375 C 11.484375 25 13.761719 23.789063 16 22.5625 C 20.472656 20.109375 24.8125 17.5625 24.8125 17.5625 L 25.3125 17.25 L 25.3125 16.65625 C 25.3125 16.65625 25.179688 13.699219 22.6875 10.75 L 23.03125 10.375 C 23.117188 10.289063 23.195313 10.230469 23.28125 10.15625 L 23.53125 9.9375 C 24.710938 9.03125 25.828125 9.066406 26.8125 9.3125 C 27.9375 9.59375 28.71875 10.1875 28.71875 10.1875 L 29.96875 8.625 C 29.96875 8.625 28.859375 7.769531 27.28125 7.375 C 26.953125 7.292969 26.59375 7.246094 26.21875 7.21875 L 28.25 5.1875 L 26.8125 3.75 L 24.71875 5.84375 C 24.667969 5.601563 24.589844 5.367188 24.5 5.15625 C 23.9375 3.84375 22.875 3.15625 22.875 3.15625 Z M 15.8125 8.8125 C 16.46875 8.875 18.347656 9.148438 20.59375 11.40625 C 22.84375 13.671875 23.121094 15.535156 23.1875 16.1875 C 23.023438 16.285156 22.167969 16.800781 21.5 17.1875 C 21.238281 16.601563 20.820313 15.8125 20.1875 14.96875 L 18.59375 16.1875 C 19.296875 17.125 19.585938 17.769531 19.75 18.1875 C 18.386719 18.964844 16.824219 19.828125 15.03125 20.8125 C 14.933594 20.863281 14.847656 20.917969 14.75 20.96875 C 14.566406 20.421875 14.265625 19.761719 13.71875 19 L 12.09375 20.15625 C 12.585938 20.84375 12.828125 21.410156 12.9375 21.78125 C 12.957031 21.84375 12.957031 21.859375 12.96875 21.90625 C 11.472656 22.707031 10.027344 23.476563 8.84375 24.03125 C 8.226563 24.320313 7.789063 24.480469 7.34375 24.65625 C 7.519531 24.210938 7.679688 23.773438 7.96875 23.15625 C 8.777344 21.433594 9.972656 19.1875 11.1875 16.96875 C 11.773438 15.898438 12.21875 15.097656 12.75 14.15625 C 13.070313 14.4375 13.484375 14.816406 13.9375 15.40625 L 15.5 14.1875 C 14.851563 13.339844 14.214844 12.742188 13.75 12.375 C 14.796875 10.539063 15.632813 9.121094 15.8125 8.8125 Z"/></svg>