<svg xmlns="http://www.w3.org/2000/svg" viewBox="0 0 32 32"><path d="M 5 6 C 3.355 6 2 7.355 2 9 L 2 23 C 2 24.645 3.355 26 5 26 L 27 26 C 28.645 26 30 24.645 30 23 L 30 9 C 30 7.355 28.645 6 27 6 L 5 6 z M 5 8 L 27 8 C 27.566 8 28 8.434 28 9 L 28 23 C 28 23.566 27.566 24 27 24 L 5 24 C 4.434 24 4 23.566 4 23 L 4 9 C 4 8.434 4.434 8 5 8 z M 10.998047 11 C 10.533047 11 10.002203 11.265344 9.6582031 11.652344 C 9.3922031 11.973344 9.103125 12.483187 9.203125 12.992188 C 9.680125 13.048187 10.201 12.749328 10.5 12.361328 C 10.832 12.007328 11.020047 11.509 10.998047 11 z M 13 13 L 13 19 L 13.931641 19 L 13.931641 16.945312 L 15.228516 16.945312 C 16.403516 16.945312 17.234375 16.136656 17.234375 14.972656 C 17.234375 13.797656 16.414 13 15.25 13 L 13 13 z M 7.8378906 13.523438 C 6.7988906 13.523438 6 14.433281 6 15.738281 C 6 17.438281 7.1944531 19 7.9394531 19 C 8.3894531 19 8.5543437 18.697266 9.1523438 18.697266 C 9.7033437 18.697266 9.8767031 19 10.345703 19 C 11.236703 19 11.972 17.190078 12 17.080078 C 11.853 17.006078 10.997047 16.602906 10.998047 15.628906 C 10.998047 14.682906 11.779406 14.258234 11.816406 14.240234 C 11.384406 13.597234 10.704266 13.523438 10.447266 13.523438 C 9.8502656 13.523438 9.3279688 13.845703 9.0429688 13.845703 C 8.7489688 13.845703 8.3158906 13.523438 7.8378906 13.523438 z M 13.931641 13.787109 L 15.005859 13.787109 C 15.814859 13.787109 16.28125 14.218656 16.28125 14.972656 C 16.28125 15.726656 15.814859 16.169922 15.005859 16.169922 L 13.931641 16.169922 L 13.931641 13.787109 z M 19.429688 14.53125 C 18.443687 14.53125 17.711453 15.097047 17.689453 15.873047 L 18.53125 15.873047 C 18.59825 15.507047 18.94025 15.263672 19.40625 15.263672 C 19.98225 15.263672 20.294922 15.529578 20.294922 16.017578 L 20.294922 16.349609 L 19.130859 16.427734 C 18.055859 16.494734 17.466797 16.938125 17.466797 17.703125 C 17.466797 18.479125 18.065688 19 18.929688 19 C 19.516687 19 20.061688 18.700375 20.304688 18.234375 L 20.326172 18.234375 L 20.326172 18.955078 L 21.191406 18.955078 L 21.191406 15.962891 C 21.191406 15.097891 20.493688 14.53125 19.429688 14.53125 z M 21.574219 14.587891 L 23.148438 18.966797 L 23.070312 19.232422 C 22.926313 19.676422 22.693203 19.853516 22.283203 19.853516 C 22.206203 19.853516 22.062812 19.841797 22.007812 19.841797 L 22.007812 20.5625 C 22.063813 20.5735 22.294328 20.583984 22.361328 20.583984 C 23.270328 20.583984 23.703078 20.2295 24.080078 19.1875 L 25.708984 14.587891 L 24.765625 14.587891 L 23.669922 18.134766 L 23.646484 18.134766 L 22.550781 14.587891 L 21.574219 14.587891 z M 20.294922 16.980469 L 20.294922 17.314453 L 20.292969 17.314453 C 20.292969 17.879453 19.816547 18.277344 19.185547 18.277344 C 18.686547 18.277344 18.376953 18.045688 18.376953 17.679688 C 18.376953 17.302688 18.675672 17.079875 19.263672 17.046875 L 20.294922 16.980469 z"/></svg>