<svg xmlns="http://www.w3.org/2000/svg" viewBox="0 0 32 32"><path d="M 5 6 C 3.355469 6 2 7.355469 2 9 L 2 23 C 2 24.644531 3.355469 26 5 26 L 27 26 C 28.644531 26 30 24.644531 30 23 L 30 9 C 30 7.355469 28.644531 6 27 6 Z M 5 8 L 27 8 C 27.566406 8 28 8.433594 28 9 L 28 23 C 28 23.566406 27.566406 24 27 24 L 5 24 C 4.433594 24 4 23.566406 4 23 L 4 9 C 4 8.433594 4.433594 8 5 8 Z M 12 9 C 8.144531 9 5 12.144531 5 16 C 5 19.855469 8.144531 23 12 23 C 13.484375 23 14.863281 22.546875 16 21.75 C 17.132813 22.542969 18.511719 23 20 23 C 23.855469 23 27 19.855469 27 16 C 27 12.144531 23.855469 9 20 9 C 18.511719 9 17.132813 9.457031 16 10.25 C 14.863281 9.453125 13.484375 9 12 9 Z M 12 11 C 13.28125 11 14.429688 11.496094 15.3125 12.28125 C 14.902344 12.792969 14.566406 13.371094 14.34375 14 L 16.5625 14 C 16.703125 14.320313 16.835938 14.652344 16.90625 15 L 14.09375 15 C 14.039063 15.324219 14 15.65625 14 16 C 14 16.34375 14.039063 16.675781 14.09375 17 L 16.90625 17 C 16.835938 17.347656 16.703125 17.679688 16.5625 18 L 14.34375 18 C 14.566406 18.628906 14.902344 19.207031 15.3125 19.71875 C 14.429688 20.503906 13.28125 21 12 21 C 9.226563 21 7 18.773438 7 16 C 7 13.226563 9.226563 11 12 11 Z M 20 11 C 22.773438 11 25 13.226563 25 16 C 25 18.773438 22.773438 21 20 21 C 19.085938 21 18.238281 20.742188 17.5 20.3125 C 18.441406 19.121094 19 17.628906 19 16 C 19 14.371094 18.441406 12.878906 17.5 11.6875 C 18.238281 11.257813 19.085938 11 20 11 Z"/></svg>