<svg xmlns="http://www.w3.org/2000/svg" viewBox="0 0 32 32"><path d="M 16 3 C 8.832 3 3 8.832 3 16 C 3 23.168 8.832 29 16 29 C 23.168 29 29 23.168 29 16 C 29 8.832 23.168 3 16 3 z M 16 5 C 22.065 5 27 9.935 27 16 C 27 22.065 22.065 27 16 27 C 9.935 27 5 22.065 5 16 C 5 9.935 9.935 5 16 5 z M 13.199219 9 C 10.845219 11.26 10.378594 16.589141 11.808594 22.869141 C 14.628594 23.499141 18.718672 21.799688 22.888672 18.429688 C 24.025672 13.679688 16.334219 10.14 13.199219 9 z M 16 14 C 17.105 14 18 14.895 18 16 C 18 17.105 17.105 18 16 18 C 14.895 18 14 17.105 14 16 C 14 14.895 14.895 14 16 14 z"/></svg>