<svg xmlns="http://www.w3.org/2000/svg" viewBox="0 0 32 32"><path d="M 16 3 C 14.90625 3 14 3.90625 14 5 C 14 5.359375 14.109375 5.707031 14.28125 6 L 8 6 L 8 8.375 L 8.21875 8.625 L 11.875 13 C 11.324219 13.035156 10.902344 13.511719 10.9375 14.0625 C 10.972656 14.613281 11.449219 15.035156 12 15 L 12.65625 15 L 11.09375 20.5625 L 11.03125 20.71875 L 10.375 22 L 9 22 C 8.96875 22 8.9375 22 8.90625 22 C 8.355469 22.027344 7.925781 22.496094 7.953125 23.046875 C 7.980469 23.597656 8.449219 24.027344 9 24 L 7.1875 26.40625 L 7 26.65625 L 7 29 L 25 29 L 25 26.65625 L 24.8125 26.40625 L 23 24 C 23.359375 24.003906 23.695313 23.816406 23.878906 23.503906 C 24.058594 23.191406 24.058594 22.808594 23.878906 22.496094 C 23.695313 22.183594 23.359375 21.996094 23 22 L 21.625 22 L 20.96875 20.71875 L 20.9375 20.65625 L 20.90625 20.5625 L 19.34375 15 L 20 15 C 20.550781 15.042969 21.035156 14.628906 21.078125 14.078125 C 21.121094 13.527344 20.707031 13.042969 20.15625 13 L 23.78125 8.625 L 24 8.375 L 24 6 L 17.71875 6 C 17.890625 5.707031 18 5.359375 18 5 C 18 3.90625 17.09375 3 16 3 Z M 10.3125 8 L 21.6875 8 L 17.53125 13 L 14.46875 13 Z M 14.75 15 L 17.25 15 L 19.03125 21.28125 L 19.0625 21.375 L 19.375 22 L 12.625 22 L 12.9375 21.375 L 12.96875 21.28125 Z M 11.5 24 L 20.5 24 L 22.75 27 L 9.25 27 Z"/></svg>