<svg xmlns="http://www.w3.org/2000/svg" viewBox="0 0 32 32"><path d="M 10 3.8828125 L 3 7.3828125 L 3 28 L 17 28 L 29 28 L 29 10 L 17 10 L 17 7.3828125 L 10 3.8828125 z M 10 6.1171875 L 15 8.6171875 L 15 26 L 5 26 L 5 8.6171875 L 10 6.1171875 z M 7 10 L 7 12 L 9 12 L 9 10 L 7 10 z M 11 10 L 11 12 L 13 12 L 13 10 L 11 10 z M 17 12 L 27 12 L 27 26 L 17 26 L 17 12 z M 7 14 L 7 16 L 9 16 L 9 14 L 7 14 z M 11 14 L 11 16 L 13 16 L 13 14 L 11 14 z M 19 14 L 19 16 L 21 16 L 21 14 L 19 14 z M 23 14 L 23 16 L 25 16 L 25 14 L 23 14 z M 7 18 L 7 20 L 9 20 L 9 18 L 7 18 z M 11 18 L 11 20 L 13 20 L 13 18 L 11 18 z M 19 18 L 19 20 L 21 20 L 21 18 L 19 18 z M 23 18 L 23 20 L 25 20 L 25 18 L 23 18 z M 7 22 L 7 24 L 9 24 L 9 22 L 7 22 z M 11 22 L 11 24 L 13 24 L 13 22 L 11 22 z M 19 22 L 19 24 L 21 24 L 21 22 L 19 22 z M 23 22 L 23 24 L 25 24 L 25 22 L 23 22 z"/></svg>