<svg xmlns="http://www.w3.org/2000/svg" viewBox="0 0 32 32"><path d="M 16 4 C 12.773 4 9.97275 6.25775 9.21875 9.34375 C 7.97275 9.82775 6.93825 10.81225 6.40625 12.03125 C 2.91025 11.77225 1.1842379e-15 14.555 0 18 C 0 21.309 2.691 24 6 24 L 9 24 L 9 22 L 6 22 C 3.793 22 2 20.207 2 18 C 2 15.793 3.793 14 6 14 C 6.277 14 6.559 14.02275 6.875 14.09375 L 7.875 14.3125 L 8.0625 13.34375 C 8.3085 12.23875 9.2075 11.35975 10.3125 11.09375 L 10.96875 10.9375 L 11.0625 10.28125 C 11.4225 7.84725 13.543 6 16 6 C 17.895 6 19.61275 7.055 20.46875 8.75 L 20.84375 9.53125 L 21.6875 9.25 C 22.1555 9.086 22.582 9 23 9 C 25.207 9 27 10.793 27 13 C 27 13.039 27.004 13.09 27 13.125 C 26.992 13.191 26.97675 13.2415 26.96875 13.3125 L 26.90625 14.03125 L 27.5625 14.3125 C 29.0395 14.9405 30 16.395 30 18 C 30 20.207 28.207 22 26 22 L 24 22 L 24 24 L 26 24 C 29.309 24 32 21.309 32 18 C 32 15.836 30.844 13.8755 29 12.8125 C 28.895 9.5945 26.242 7 23 7 C 22.609 7 22.2075 7.039 21.8125 7.125 C 20.5235 5.18 18.371 4 16 4 z M 21 13 C 20.363 13 19.847656 13.515344 19.847656 14.152344 C 19.847656 14.195344 19.867094 14.231438 19.871094 14.273438 C 19.418094 13.905437 18.759891 13.915891 18.337891 14.337891 C 17.915891 14.759891 17.905437 15.418094 18.273438 15.871094 C 18.231437 15.866094 18.195344 15.847656 18.152344 15.847656 C 17.516344 15.846656 17 16.363 17 17 C 17 17.637 17.515344 18.152344 18.152344 18.152344 C 18.195344 18.152344 18.231437 18.132906 18.273438 18.128906 C 17.905438 18.581906 17.915891 19.240109 18.337891 19.662109 C 18.759891 20.084109 19.418094 20.094563 19.871094 19.726562 C 19.866094 19.768563 19.847656 19.804656 19.847656 19.847656 C 19.846656 20.483656 20.363 21 21 21 C 21.637 21 22.152344 20.484656 22.152344 19.847656 C 22.152344 19.804656 22.132906 19.768563 22.128906 19.726562 C 22.581906 20.094562 23.240109 20.084109 23.662109 19.662109 C 24.084109 19.240109 24.094562 18.581906 23.726562 18.128906 C 23.768563 18.133906 23.804656 18.152344 23.847656 18.152344 C 24.483656 18.153344 25 17.637 25 17 C 25 16.363 24.484656 15.847656 23.847656 15.847656 C 23.804656 15.847656 23.768562 15.867094 23.726562 15.871094 C 24.094562 15.418094 24.084109 14.759891 23.662109 14.337891 C 23.240109 13.915891 22.581906 13.905437 22.128906 14.273438 C 22.133906 14.231438 22.152344 14.195344 22.152344 14.152344 C 22.153344 13.516344 21.637 13 21 13 z M 12 15 A 1 1 0 0 0 11 16 A 1 1 0 0 0 11 18 A 1 1 0 0 0 12 19 A 1 1 0 0 0 13 18 A 1 1 0 0 0 13 16 A 1 1 0 0 0 12 15 z M 15 21 C 14.363 21 13.847656 21.515344 13.847656 22.152344 C 13.847656 22.195344 13.867094 22.231438 13.871094 22.273438 C 13.418094 21.905438 12.759891 21.915891 12.337891 22.337891 C 11.915891 22.759891 11.905437 23.418094 12.273438 23.871094 C 12.231438 23.866094 12.195344 23.847656 12.152344 23.847656 C 11.516344 23.846656 11 24.363 11 25 C 11 25.637 11.515344 26.152344 12.152344 26.152344 C 12.195344 26.152344 12.231438 26.132906 12.273438 26.128906 C 11.905437 26.581906 11.915891 27.240109 12.337891 27.662109 C 12.759891 28.084109 13.418094 28.094562 13.871094 27.726562 C 13.866094 27.768563 13.847656 27.804656 13.847656 27.847656 C 13.846656 28.483656 14.363 29 15 29 C 15.637 29 16.152344 28.484656 16.152344 27.847656 C 16.152344 27.804656 16.132906 27.768562 16.128906 27.726562 C 16.581906 28.094562 17.240109 28.084109 17.662109 27.662109 C 18.084109 27.240109 18.094563 26.581906 17.726562 26.128906 C 17.768563 26.133906 17.804656 26.152344 17.847656 26.152344 C 18.483656 26.153344 19 25.637 19 25 C 19 24.363 18.484656 23.847656 17.847656 23.847656 C 17.804656 23.847656 17.768563 23.867094 17.726562 23.871094 C 18.094562 23.418094 18.084109 22.759891 17.662109 22.337891 C 17.240109 21.915891 16.581906 21.905438 16.128906 22.273438 C 16.133906 22.231437 16.152344 22.195344 16.152344 22.152344 C 16.153344 21.516344 15.637 21 15 21 z"/></svg>