<svg xmlns="http://www.w3.org/2000/svg" viewBox="0 0 32 32"><path d="M 16 3 C 8.832 3 3 8.832 3 16 C 3 23.168 8.832 29 16 29 C 23.168 29 29 23.168 29 16 C 29 8.832 23.168 3 16 3 z M 16 5 C 22.065 5 27 9.935 27 16 C 27 22.065 22.065 27 16 27 C 9.935 27 5 22.065 5 16 C 5 9.935 9.935 5 16 5 z M 16 9 C 12.134 9 9 12.134 9 16 C 9 16.225 9.0122031 16.447016 9.0332031 16.666016 C 9.2072031 14.063016 11.353 12 14 12 C 15.309106 12 16.486738 12.515344 17.375 13.341797 L 16.511719 14.074219 C 16.347719 14.031219 16.178 14 16 14 C 14.895 14 14 14.895 14 16 C 14 17.105 14.895 18 16 18 C 17.105 18 18 17.105 18 16 C 18 15.822 17.968781 15.652281 17.925781 15.488281 L 21.853516 10.853516 C 21.943516 10.762516 22 10.638 22 10.5 C 22 10.224 21.776 10 21.5 10 C 21.362 10 21.237484 10.056484 21.146484 10.146484 L 20.53125 10.667969 C 19.309714 9.6293989 17.729173 9 16 9 z"/></svg>