<svg xmlns="http://www.w3.org/2000/svg" viewBox="0 0 32 32"><path d="M 3 5 L 3 23 L 8 23 L 8 28.078125 L 14.351563 23 L 29 23 L 29 5 Z M 5 7 L 27 7 L 27 21 L 13.648438 21 L 10 23.917969 L 10 21 L 5 21 Z M 10 12 C 8.894531 12 8 12.894531 8 14 C 8 15.105469 8.894531 16 10 16 C 11.105469 16 12 15.105469 12 14 C 12 12.894531 11.105469 12 10 12 Z M 16 12 C 14.894531 12 14 12.894531 14 14 C 14 15.105469 14.894531 16 16 16 C 17.105469 16 18 15.105469 18 14 C 18 12.894531 17.105469 12 16 12 Z M 22 12 C 20.894531 12 20 12.894531 20 14 C 20 15.105469 20.894531 16 22 16 C 23.105469 16 24 15.105469 24 14 C 24 12.894531 23.105469 12 22 12 Z"/></svg>