<svg xmlns="http://www.w3.org/2000/svg" viewBox="0 0 32 32"><path d="M 15.400391 3 C 8.7003906 3 3 9 3 16 C 3 23 8.7007812 29 15.300781 29 L 17.099609 29 C 22.199609 29 26.900391 25.6 28.900391 21 L 26.800781 21 C 25.028321 24.265058 21.687618 26.658048 18 26.964844 L 18 25.199219 C 18 23.890885 18.557771 22.721122 19.568359 22.021484 L 19.597656 22.001953 L 19.876953 21.779297 C 20.380488 21.91846 20.921601 22 21.5 22 C 23.249999 22 24.689774 21.307744 25.623047 20.257812 C 26.556319 19.207881 27 17.847222 27 16.5 C 27 15.152778 26.556319 13.792119 25.623047 12.742188 C 24.837383 11.858316 23.689203 11.233939 22.302734 11.056641 C 22.094247 10.216386 21.719521 9.413221 21.123047 8.7421875 C 20.189774 7.6922556 18.749999 7 17 7 C 15.250001 7 13.810226 7.6922556 12.876953 8.7421875 C 12.280479 9.413221 11.905753 10.216386 11.697266 11.056641 C 10.310797 11.233939 9.1626162 11.858316 8.3769531 12.742188 C 7.4436807 13.792118 7 15.152778 7 16.5 C 7 17.847222 7.4436807 19.207881 8.3769531 20.257812 C 9.3102255 21.307744 10.750001 22 12.5 22 C 13.078399 22 13.619512 21.91846 14.123047 21.779297 L 14.402344 22.001953 L 14.431641 22.021484 C 15.442226 22.721123 16 23.890885 16 25.199219 L 16 27 L 15.400391 27 C 9.7003906 27 5 22 5 16 C 5 10 9.7007812 5 15.300781 5 L 17.099609 5 C 21.099609 5 24.899219 7.5 26.699219 11 L 29 11 C 27 6.4 22.299219 3 17.199219 3 L 15.400391 3 z M 17 9 C 18.249999 9 19.060226 9.4327449 19.626953 10.070312 C 19.895918 10.372898 20.101298 10.734474 20.248047 11.125 C 19.061082 11.368913 18.076908 11.954739 17.376953 12.742188 C 17.239239 12.897116 17.116541 13.061097 17 13.228516 C 16.883459 13.061097 16.760761 12.897116 16.623047 12.742188 C 15.923092 11.954738 14.938918 11.368913 13.751953 11.125 C 13.898702 10.734474 14.104082 10.372898 14.373047 10.070312 C 14.939774 9.4327449 15.750001 9 17 9 z M 11.550781 13.105469 C 11.664925 14.247553 12.083859 15.365582 12.876953 16.257812 C 13.576908 17.045261 14.561082 17.631087 15.748047 17.875 C 15.601298 18.265526 15.395918 18.627102 15.126953 18.929688 C 14.560226 19.567256 13.749999 20 12.5 20 C 11.250001 20 10.439774 19.567256 9.8730469 18.929688 C 9.3063199 18.292119 9 17.402778 9 16.5 C 9 15.597222 9.3063199 14.707881 9.8730469 14.070312 C 10.279894 13.612609 10.820336 13.267729 11.550781 13.105469 z M 22.449219 13.105469 C 23.179664 13.267729 23.720106 13.612609 24.126953 14.070312 C 24.69368 14.707882 25 15.597222 25 16.5 C 25 17.402778 24.69368 18.292119 24.126953 18.929688 C 23.560226 19.567256 22.749999 20 21.5 20 C 20.250001 20 19.439774 19.567256 18.873047 18.929688 C 18.604082 18.627102 18.398702 18.265526 18.251953 17.875 C 19.438918 17.631087 20.423092 17.045261 21.123047 16.257812 C 21.916141 15.365582 22.335075 14.247553 22.449219 13.105469 z M 13.554688 13.138672 C 14.228197 13.310938 14.741114 13.636243 15.126953 14.070312 C 15.558595 14.555911 15.836078 15.188928 15.945312 15.861328 C 15.271803 15.689062 14.758886 15.363757 14.373047 14.929688 C 13.941405 14.444089 13.663922 13.811072 13.554688 13.138672 z M 20.445312 13.138672 C 20.336078 13.811072 20.058595 14.444089 19.626953 14.929688 C 19.241114 15.363757 18.728197 15.689062 18.054688 15.861328 C 18.163922 15.188928 18.441405 14.555911 18.873047 14.070312 C 19.258886 13.636243 19.771803 13.310938 20.445312 13.138672 z M 17 19.771484 C 17.116541 19.938903 17.239239 20.102884 17.376953 20.257812 C 17.548168 20.450429 17.741215 20.626494 17.945312 20.792969 C 17.572822 21.166686 17.277551 21.603421 17 22.046875 C 16.722449 21.603421 16.427178 21.166686 16.054688 20.792969 C 16.258785 20.626494 16.451832 20.450429 16.623047 20.257812 C 16.760761 20.102884 16.883459 19.938903 17 19.771484 z"/></svg>