<svg xmlns="http://www.w3.org/2000/svg" viewBox="0 0 32 32"><path d="M 6.1191406 12 C 5.7591406 12 5.4903906 12.219063 5.4003906 12.539062 L 3.6601562 19 L 4.890625 18.990234 C 5.230625 18.990234 5.5096094 18.770937 5.5996094 18.460938 L 6.890625 13.710938 L 7.8808594 13.710938 C 8.3008594 13.710937 8.6907813 13.989219 8.8007812 14.449219 C 8.9207813 14.989219 8.5008594 15.570312 7.8808594 15.570312 L 7.3691406 15.570312 C 7.0191406 15.570312 6.7403906 15.799609 6.6503906 16.099609 L 6.3300781 17.279297 L 7.9296875 17.279297 C 9.7896875 17.279297 10.849531 15.489063 10.519531 14.039062 C 10.239531 12.809063 9.1707031 12 7.9707031 12 L 6.1191406 12 z M 30.720703 12 C 30.470703 12 30.259219 12.160625 30.199219 12.390625 L 28.419922 19 C 29.449922 19 30.410156 18.309297 30.660156 17.279297 L 31.990234 12.410156 C 32.050234 12.200156 31.890156 12 31.660156 12 L 30.720703 12 z M 11.351562 14 L 11.189453 14.623047 C 11.075453 15.077047 11.398328 15.492188 11.861328 15.492188 L 14.574219 15.492188 C 14.763219 15.492187 14.686734 15.691281 14.677734 15.738281 L 14.271484 17.232422 C 14.252484 17.298422 14.224813 17.478516 14.007812 17.478516 L 12.361328 17.478516 C 12.106328 17.478516 12.106328 17.109375 12.361328 17.109375 L 13.382812 17.109375 C 13.703812 17.109375 13.959687 16.892609 14.054688 16.599609 L 14.214844 15.984375 L 11.927734 15.984375 C 10.075734 15.984375 9.8683906 18.980469 11.900391 18.980469 L 14.611328 18.990234 C 15.140328 18.990234 15.58675 18.649438 15.71875 18.148438 L 16.380859 15.720703 C 16.607859 14.822703 15.926109 14 15.037109 14 L 11.351562 14 z M 2.5039062 14.009766 C 1.4169063 14.009766 0.42203125 14.6705 0.08203125 15.9375 C -0.33396875 17.5255 0.87707812 19 2.4550781 19 L 3.0410156 19 L 3.3808594 17.771484 C 3.4378594 17.563484 3.276125 17.382812 3.078125 17.382812 L 2.5390625 17.382812 C 1.3760625 17.382812 1.3670625 15.625 2.5390625 15.625 L 3.4199219 15.625 C 3.7509219 15.625 4.0046094 15.417234 4.0996094 15.115234 L 4.3925781 14.009766 L 2.5039062 14.009766 z M 19.78125 14.009766 L 19.78125 14.017578 L 17.503906 14.017578 L 16.265625 18.611328 C 16.208625 18.819328 16.367406 19 16.566406 19 L 17.455078 19 C 17.682078 19 17.890266 18.858812 17.947266 18.632812 L 18.759766 15.636719 L 19.695312 15.636719 C 20.290312 15.636719 20.717641 16.184422 20.556641 16.732422 L 20.054688 18.603516 C 19.997687 18.811516 20.140422 19 20.357422 19 L 21.263672 19 C 21.480672 19 21.689094 18.857859 21.746094 18.630859 L 22.162109 17.080078 C 22.587109 15.521078 21.41525 14.009766 19.78125 14.009766 z M 24.939453 14.011719 C 24.098453 14.011719 23.342234 14.578391 23.115234 15.400391 L 22.605469 17.271484 C 22.369469 18.103484 23.002266 19.001953 23.947266 19.001953 L 27.09375 19.001953 C 27.41475 19.001953 27.680625 18.783234 27.765625 18.490234 L 28.039062 17.507812 L 24.570312 17.507812 C 24.400312 17.507813 24.286984 17.346312 24.333984 17.195312 L 24.712891 15.787109 C 24.750891 15.607109 24.882078 15.503906 25.080078 15.503906 L 26.630859 15.503906 C 26.753859 15.503906 26.848312 15.618 26.820312 15.75 L 26.78125 15.873047 C 26.75225 15.967047 26.696562 16.005859 26.601562 16.005859 L 25.580078 16.005859 C 25.249078 16.005859 24.986156 16.222625 24.910156 16.515625 L 24.740234 17.128906 L 27.263672 17.128906 C 27.764672 17.128906 28.227375 16.816875 28.359375 16.296875 L 28.511719 15.738281 C 28.747719 14.840281 28.076687 14.009719 27.179688 14.011719 L 24.939453 14.011719 z"/></svg>