<svg xmlns="http://www.w3.org/2000/svg" viewBox="0 0 32 32"><path d="M 16 3 C 8.832 3 3 8.832 3 16 C 3 23.168 8.832 29 16 29 C 23.168 29 29 23.168 29 16 C 29 8.832 23.168 3 16 3 z M 16 5 C 22.065 5 27 9.935 27 16 C 27 22.065 22.065 27 16 27 C 9.935 27 5 22.065 5 16 C 5 9.935 9.935 5 16 5 z M 16.126953 9 C 15.863953 9 15.645906 9.20575 15.628906 9.46875 L 15.277344 14.951172 L 14.964844 10.388672 C 14.945844 10.125672 14.727844 9.9238281 14.464844 9.9238281 C 14.201844 9.9238281 13.985797 10.126672 13.966797 10.388672 L 13.652344 14.890625 L 13.359375 11.304688 C 13.337375 11.046687 13.122281 10.847703 12.863281 10.845703 L 12.859375 10.845703 C 12.601375 10.845703 12.385328 11.041828 12.361328 11.298828 L 11.90625 16.001953 L 11.71875 14.949219 C 11.68175 14.744219 11.520453 14.583875 11.314453 14.546875 C 11.105453 14.513875 10.899922 14.603203 10.794922 14.783203 L 10.080078 16 L 8 16 L 8 17 L 10.365234 17 C 10.542234 17 10.708875 16.905906 10.796875 16.753906 L 10.972656 16.453125 L 11.564453 19.742188 C 11.609453 19.987187 11.841172 20.158297 12.076172 20.154297 C 12.325172 20.143297 12.530688 19.950172 12.554688 19.701172 L 12.818359 16.972656 L 13.191406 21.541016 C 13.213406 21.801016 13.431406 22 13.691406 22 L 13.693359 22 C 13.955359 21.998 14.170453 21.796156 14.189453 21.535156 L 14.460938 17.648438 L 14.796875 22.533203 C 14.814875 22.796203 15.033875 23 15.296875 23 L 15.298828 23 C 15.562828 22.999 15.779875 22.79425 15.796875 22.53125 L 16.111328 17.603516 L 16.345703 21.529297 C 16.360703 21.790297 16.574938 21.996 16.835938 22 L 16.84375 22 C 17.10175 22 17.317797 21.803922 17.341797 21.544922 L 17.689453 17.689453 L 17.949219 21.533203 C 17.967219 21.793203 18.182359 21.997 18.443359 22 L 18.449219 22 C 18.707219 22 18.923266 21.804875 18.947266 21.546875 L 19.404297 16.636719 L 19.701172 18.798828 C 19.731172 19.020828 19.906906 19.196562 20.128906 19.226562 C 20.357906 19.253562 20.565297 19.136641 20.654297 18.931641 L 21.498047 17 L 24 17 L 24 16 L 21.169922 16 C 20.970922 16 20.792891 16.118781 20.712891 16.300781 L 20.449219 16.902344 L 19.802734 12.201172 C 19.768734 11.949172 19.553875 11.779531 19.296875 11.769531 C 19.042875 11.775531 18.834547 11.971609 18.810547 12.224609 L 18.527344 15.265625 L 18.259766 11.3125 C 18.242766 11.0525 18.026625 10.848703 17.765625 10.845703 C 17.488625 10.834703 17.284719 11.040781 17.261719 11.300781 L 16.945312 14.816406 L 16.626953 9.4707031 C 16.610953 9.2067031 16.392906 9.001 16.128906 9 L 16.126953 9 z"/></svg>