<svg xmlns="http://www.w3.org/2000/svg" viewBox="0 0 32 32"><path d="M 16 3 C 8.832 3 3 8.832 3 16 C 3 23.168 8.832 29 16 29 C 23.168 29 29 23.168 29 16 C 29 8.832 23.168 3 16 3 z M 16 5 C 22.065 5 27 9.935 27 16 C 27 17.238499 26.78347 18.425251 26.404297 19.537109 L 18.015625 15.802734 C 17.90547 15.701476 17.793969 15.601833 17.669922 15.517578 C 17.510156 15.409062 17.339219 15.314844 17.160156 15.238281 C 16.981094 15.161719 16.79375 15.102891 16.599609 15.0625 C 16.495905 15.040925 16.38638 15.039628 16.279297 15.029297 L 15.167969 14.535156 C 15.138277 14.487932 15.097696 14.449168 15.076172 14.396484 C 15.026953 14.276016 15 14.1425 15 14 C 15 13.8575 15.026953 13.723984 15.076172 13.603516 C 15.125391 13.483047 15.197734 13.376484 15.287109 13.287109 C 15.376484 13.197734 15.483047 13.125391 15.603516 13.076172 C 15.723984 13.026953 15.8575 13 16 13 C 16.57 13 17 13.43 17 14 L 19 14 C 19 13.83875 18.986172 13.679746 18.960938 13.525391 C 18.935703 13.371035 18.9 13.221719 18.851562 13.076172 C 18.560938 12.202891 17.87 11.504453 17 11.189453 L 17 10 L 15 10 L 15 11.189453 C 14.855 11.241953 14.714063 11.306113 14.580078 11.378906 C 14.446094 11.451699 14.318203 11.533828 14.197266 11.625 C 14.076328 11.716172 13.963281 11.816191 13.857422 11.923828 C 13.645703 12.139102 13.465391 12.384648 13.326172 12.654297 C 13.256562 12.789121 13.196875 12.930625 13.148438 13.076172 C 13.094028 13.239665 13.06013 13.409526 13.035156 13.583984 L 6.4082031 10.634766 C 8.2938562 7.2776415 11.88351 5 16 5 z M 5.5957031 12.462891 L 13.984375 16.197266 C 14.236403 16.42894 14.521752 16.625711 14.839844 16.761719 C 15.114556 16.879179 15.413154 16.941032 15.720703 16.970703 L 16.832031 17.464844 C 16.861723 17.512068 16.902304 17.550832 16.923828 17.603516 C 16.973047 17.723984 17 17.8575 17 18 C 17 18.4275 16.757891 18.776172 16.396484 18.923828 C 16.276016 18.973047 16.1425 19 16 19 C 15.8575 19 15.723984 18.973047 15.603516 18.923828 C 15.483047 18.874609 15.376484 18.802266 15.287109 18.712891 C 15.108359 18.534141 15 18.285 15 18 L 13 18 C 13 18.16125 13.013828 18.320254 13.039062 18.474609 C 13.064297 18.628965 13.1 18.778281 13.148438 18.923828 C 13.196875 19.069375 13.256562 19.210879 13.326172 19.345703 C 13.395781 19.480527 13.475703 19.608281 13.564453 19.730469 C 13.653203 19.852656 13.751563 19.968535 13.857422 20.076172 C 13.963281 20.183809 14.076328 20.283828 14.197266 20.375 C 14.318203 20.466172 14.446094 20.548301 14.580078 20.621094 C 14.714062 20.693887 14.855 20.758047 15 20.810547 L 15 22 L 17 22 L 17 20.810547 C 18.015 20.443047 18.784297 19.555098 18.960938 18.474609 C 18.964049 18.455578 18.962102 18.435165 18.964844 18.416016 L 25.591797 21.365234 C 23.706144 24.722359 20.11649 27 16 27 C 9.935 27 5 22.065 5 16 C 5 14.761501 5.2165305 13.574749 5.5957031 12.462891 z"/></svg>