<svg xmlns="http://www.w3.org/2000/svg" viewBox="0 0 32 32"><path d="M 16 3 C 8.832 3 3 8.832 3 16 C 3 23.168 8.832 29 16 29 C 23.168 29 29 23.168 29 16 C 29 8.832 23.168 3 16 3 z M 16 5 C 22.065 5 27 9.935 27 16 C 27 22.065 22.065 27 16 27 C 9.935 27 5 22.065 5 16 C 5 9.935 9.935 5 16 5 z M 9 12 L 9 20 L 11 20 L 11 18 L 13 18 C 14.654 18 16 16.654 16 15 C 16 13.346 14.654 12 13 12 L 9 12 z M 17 12 L 17 20 L 20.5 20 C 22.43 20 24 18.206 24 16 C 24 13.794 22.43 12 20.5 12 L 17 12 z M 11 14 L 13 14 C 13.551 14 14 14.448 14 15 C 14 15.552 13.551 16 13 16 L 11 16 L 11 14 z M 19 14 L 20.5 14 C 21.313 14 22 14.916 22 16 C 22 17.084 21.313 18 20.5 18 L 19 18 L 19 14 z"/></svg>