<svg xmlns="http://www.w3.org/2000/svg" viewBox="0 0 32 32"><path d="M 3.71875 2.28125 L 2.28125 3.71875 L 28.28125 29.71875 L 29.71875 28.28125 L 21.875 20.4375 C 23.382813 18.203125 25 15.199219 25 12 C 25 7.589844 21.410156 4 17 4 C 13.878906 4 11.160156 5.792969 9.84375 8.40625 Z M 17 6 C 20.308594 6 23 8.691406 23 12 C 23 14.53125 21.726563 17.03125 20.4375 19 L 14.03125 12.59375 C 14.21875 11.089844 15.429688 10 17 10 C 18.078125 10 19.09375 10.589844 19.625 11.53125 L 21.34375 10.53125 C 20.457031 8.96875 18.796875 8 17 8 C 14.921875 8 13.171875 9.203125 12.40625 10.96875 L 11.375 9.9375 C 12.21875 7.640625 14.414063 6 17 6 Z M 11.15625 15.34375 L 11 15.46875 L 11 16 C 11 17.429688 12.214844 17.980469 13.03125 18.34375 C 13.78125 18.675781 14 18.8125 14 19 C 14 19.6875 12.917969 20 11.90625 20 L 11.90625 22 C 13.867188 22 15.28125 21.226563 15.78125 20 Z M 9 22 L 9 23 C 9 25.757813 11.242188 28 14 28 C 16.90625 28 18 26.160156 18.875 24.6875 C 19.085938 24.335938 19.28125 24.003906 19.5 23.6875 L 18.0625 22.25 C 18.039063 22.285156 18.023438 22.34375 18 22.375 C 17.683594 22.808594 17.410156 23.257813 17.15625 23.6875 C 16.320313 25.089844 15.769531 26 14 26 C 12.347656 26 11 24.652344 11 23 L 11 22 Z"/></svg>