<svg xmlns="http://www.w3.org/2000/svg" viewBox="0 0 32 32"><path d="M 9.519531 6.988281 C 9.519531 7.359375 9.519531 8.945313 9.519531 8.945313 L 12.335938 8.945313 C 12.335938 8.945313 12.691406 8.957031 12.691406 8.550781 C 12.691406 8.179688 12.695313 6.589844 12.695313 6.589844 L 9.878906 6.589844 C 9.878906 6.589844 9.519531 6.582031 9.519531 6.988281 Z M 9.519531 11.054688 C 9.519531 11.425781 9.519531 21.640625 9.519531 21.640625 L 12.332031 21.640625 C 12.332031 21.640625 12.691406 21.648438 12.691406 21.246094 C 12.691406 21.164063 12.695313 10.65625 12.695313 10.65625 L 9.882813 10.65625 C 9.882813 10.65625 9.519531 10.648438 9.519531 11.054688 Z M 5.386719 6.988281 L 5.386719 10.65625 L 0.359375 10.65625 C 0.359375 10.65625 0 10.648438 0 11.054688 L 0 21.640625 L 8.203125 21.640625 C 8.203125 21.640625 8.5625 21.648438 8.5625 21.242188 C 8.5625 20.871094 8.5625 6.589844 8.5625 6.589844 L 5.746094 6.589844 C 5.746094 6.589844 5.386719 6.582031 5.386719 6.988281 Z M 5.390625 18.886719 C 5.390625 19.292969 5.03125 19.28125 5.03125 19.28125 L 3.109375 19.28125 L 3.109375 13.40625 C 3.109375 13 3.46875 13.011719 3.46875 13.011719 L 5.390625 13.011719 Z M 13.785156 11.054688 L 13.785156 21.640625 L 19.171875 21.640625 L 19.171875 23.054688 L 14.144531 23.054688 C 14.144531 23.054688 13.785156 23.042969 13.785156 23.449219 C 13.785156 23.820313 13.785156 25.410156 13.785156 25.410156 L 21.984375 25.410156 C 21.984375 25.410156 22.347656 25.417969 22.347656 25.011719 C 22.347656 24.640625 22.347656 10.664063 22.347656 10.664063 L 14.144531 10.65625 C 14.144531 10.65625 13.785156 10.648438 13.785156 11.054688 Z M 16.894531 13.40625 C 16.894531 13 17.253906 13.011719 17.253906 13.011719 L 19.175781 13.011719 L 19.175781 18.886719 C 19.175781 19.292969 18.816406 19.28125 18.816406 19.28125 L 16.894531 19.28125 Z M 23.796875 10.65625 C 23.796875 10.65625 23.4375 10.648438 23.4375 11.054688 L 23.4375 21.640625 L 28.824219 21.640625 L 28.824219 23.054688 L 23.796875 23.054688 C 23.796875 23.054688 23.4375 23.042969 23.4375 23.449219 C 23.4375 23.820313 23.4375 25.410156 23.4375 25.410156 L 31.640625 25.410156 C 31.640625 25.410156 31.996094 25.417969 31.996094 25.011719 C 31.996094 24.640625 32 10.664063 32 10.664063 Z M 28.828125 18.886719 C 28.828125 19.292969 28.46875 19.28125 28.46875 19.28125 L 26.546875 19.28125 L 26.546875 13.40625 C 26.546875 13 26.90625 13.011719 26.90625 13.011719 L 28.828125 13.011719 Z"/></svg>