<svg xmlns="http://www.w3.org/2000/svg" viewBox="0 0 32 32"><path d="M 16 3 C 10.486 3 6 7.486 6 13 C 6 18.514 10.486 23 16 23 C 21.514 23 26 18.514 26 13 C 26 7.486 21.514 3 16 3 z M 16 5 C 20.411 5 24 8.589 24 13 C 24 17.411 20.411 21 16 21 C 11.589 21 8 17.411 8 13 C 8 8.589 11.589 5 16 5 z M 15 7 L 15 8.1894531 C 14.855 8.2419531 14.714063 8.3061133 14.580078 8.3789062 C 14.446094 8.4516992 14.318203 8.5338281 14.197266 8.625 C 14.076328 8.7161719 13.963281 8.8161914 13.857422 8.9238281 C 13.645703 9.1391016 13.465391 9.3846484 13.326172 9.6542969 C 13.256562 9.7891211 13.196875 9.930625 13.148438 10.076172 C 13.051562 10.367266 13 10.6775 13 11 C 13 11.205 13.022109 11.405469 13.0625 11.599609 C 13.143281 11.987891 13.300547 12.350391 13.517578 12.669922 C 13.626094 12.829688 13.748516 12.978984 13.884766 13.115234 C 14.157266 13.387734 14.481719 13.608594 14.839844 13.761719 C 15.197969 13.914844 15.59 14 16 14 C 16.1425 14 16.276016 14.026953 16.396484 14.076172 C 16.516953 14.125391 16.623516 14.197734 16.712891 14.287109 C 16.802266 14.376484 16.874609 14.483047 16.923828 14.603516 C 16.973047 14.723984 17 14.8575 17 15 C 17 15.4275 16.757891 15.776172 16.396484 15.923828 C 16.276016 15.973047 16.1425 16 16 16 C 15.8575 16 15.723984 15.973047 15.603516 15.923828 C 15.483047 15.874609 15.376484 15.802266 15.287109 15.712891 C 15.108359 15.534141 15 15.285 15 15 L 13 15 C 13 15.16125 13.013828 15.320254 13.039062 15.474609 C 13.064297 15.628965 13.1 15.778281 13.148438 15.923828 C 13.196875 16.069375 13.256562 16.210879 13.326172 16.345703 C 13.395781 16.480527 13.475703 16.608281 13.564453 16.730469 C 13.653203 16.852656 13.751563 16.968535 13.857422 17.076172 C 13.963281 17.183809 14.076328 17.283828 14.197266 17.375 C 14.318203 17.466172 14.446094 17.548301 14.580078 17.621094 C 14.714062 17.693887 14.855 17.758047 15 17.810547 L 15 19 L 17 19 L 17 17.810547 C 18.015 17.443047 18.784297 16.555098 18.960938 15.474609 C 18.986172 15.320254 19 15.16125 19 15 C 19 14.795 18.977891 14.594531 18.9375 14.400391 C 18.897109 14.20625 18.838281 14.018906 18.761719 13.839844 C 18.685156 13.660781 18.590937 13.489844 18.482422 13.330078 C 18.373906 13.170312 18.251484 13.021016 18.115234 12.884766 C 17.978984 12.748516 17.829687 12.626094 17.669922 12.517578 C 17.510156 12.409063 17.339219 12.314844 17.160156 12.238281 C 16.981094 12.161719 16.79375 12.102891 16.599609 12.0625 C 16.405469 12.022109 16.205 12 16 12 C 15.8575 12 15.723984 11.973047 15.603516 11.923828 C 15.483047 11.874609 15.376484 11.802266 15.287109 11.712891 C 15.197734 11.623516 15.125391 11.516953 15.076172 11.396484 C 15.026953 11.276016 15 11.1425 15 11 C 15 10.8575 15.026953 10.723984 15.076172 10.603516 C 15.125391 10.483047 15.197734 10.376484 15.287109 10.287109 C 15.376484 10.197734 15.483047 10.125391 15.603516 10.076172 C 15.723984 10.026953 15.8575 10 16 10 C 16.57 10 17 10.43 17 11 L 19 11 C 19 10.83875 18.986172 10.679746 18.960938 10.525391 C 18.935703 10.371035 18.9 10.221719 18.851562 10.076172 C 18.560938 9.2028906 17.87 8.5044531 17 8.1894531 L 17 7 L 15 7 z M 2 21 L 2 29 L 4 29 L 4 23 L 9.3808594 23 C 8.5298594 22.435 7.7610781 21.758 7.0800781 21 L 2 21 z M 24.919922 21 C 24.238922 21.758 23.470141 22.435 22.619141 23 L 28 23 L 28 29 L 30 29 L 30 21 L 24.919922 21 z M 6 25 L 6 27 L 26 27 L 26 25 L 6 25 z"/></svg>