<svg xmlns="http://www.w3.org/2000/svg" viewBox="0 0 32 32"><path d="M 27.1875 5.09375 L 16.125 10.34375 C 15.804688 10.128906 15.414063 10 15 10 C 13.894531 10 13 10.894531 13 12 C 13 13.105469 13.894531 14 15 14 C 16.050781 14 16.921875 13.1875 17 12.15625 L 23.0625 9.28125 C 24.878906 10.046875 26 11.046875 26 12 C 26 13.886719 21.722656 16 16 16 C 10.277344 16 6 13.886719 6 12 C 6 10.113281 10.277344 8 16 8 C 16.171875 8 16.328125 7.996094 16.5 8 L 20.03125 6.34375 C 18.777344 6.132813 17.433594 6 16 6 C 9.160156 6 4 8.578125 4 12 L 4 22 C 4 22.988281 4.445313 23.894531 5.125 24.625 C 5.804688 25.355469 6.730469 25.945313 7.8125 26.4375 C 9.976563 27.421875 12.839844 28 16 28 C 19.160156 28 22.023438 27.421875 24.1875 26.4375 C 25.269531 25.945313 26.195313 25.355469 26.875 24.625 C 27.554688 23.894531 28 22.988281 28 22 L 28 12 C 28 10.523438 27.023438 9.210938 25.375 8.1875 L 28.03125 6.90625 Z M 6 15.40625 C 7.015625 16.171875 8.378906 16.800781 10 17.25 L 10 25.15625 C 9.5 25 9.042969 24.816406 8.625 24.625 C 7.71875 24.210938 7.027344 23.714844 6.59375 23.25 C 6.160156 22.785156 6 22.394531 6 22 Z M 26 15.40625 L 26 22 C 26 22.394531 25.839844 22.785156 25.40625 23.25 C 24.972656 23.714844 24.28125 24.210938 23.375 24.625 C 22.957031 24.816406 22.5 25 22 25.15625 L 22 17.25 C 23.621094 16.800781 24.984375 16.171875 26 15.40625 Z M 12 17.6875 C 13.242188 17.894531 14.582031 18 16 18 C 17.417969 18 18.757813 17.894531 20 17.6875 L 20 25.625 C 18.769531 25.855469 17.421875 26 16 26 C 14.578125 26 13.230469 25.855469 12 25.625 Z"/></svg>