<svg xmlns="http://www.w3.org/2000/svg" viewBox="0 0 32 32"><path d="M 14.53125 2.78125 L 14.03125 5.0625 C 14.03125 5.0625 13.90625 5.628906 13.625 6.25 C 13.34375 6.871094 12.859375 7.429688 12.59375 7.53125 L 12.59375 7.5625 C 8.1875 9 5 13.125 5 18 C 5 24.0625 9.9375 29 16 29 C 22.0625 29 27 24.0625 27 18 C 27 12.695313 23.234375 8.246094 18.21875 7.21875 C 18.132813 7.199219 17.328125 6.636719 16.78125 6 C 16.234375 5.363281 15.84375 4.75 15.84375 4.75 Z M 15.3125 7.34375 C 15.945313 8.082031 16.644531 8.933594 17.8125 9.1875 C 21.910156 10.027344 25 13.640625 25 18 C 25 19.246094 24.734375 20.421875 24.28125 21.5 C 24.515625 20.859375 24.625 20.144531 24.625 19.6875 C 24.625 19.03125 24.339844 17.9375 23.28125 17.9375 C 22.285156 17.9375 20.246094 20.011719 19.1875 20.03125 C 17.9375 20.054688 16.199219 17.574219 13.71875 17.59375 C 11.769531 17.617188 10.238281 19.160156 10.21875 20.8125 C 10.199219 21.746094 10.519531 22.429688 11.15625 22.875 C 11.582031 23.148438 11.945313 23.34375 13.21875 23.34375 C 15.316406 23.34375 17.988281 20.738281 19.21875 20.78125 C 20.195313 20.824219 21.738281 23.1875 22.5 23.25 C 23.09375 23.292969 23.398438 23.023438 23.90625 22.28125 C 22.386719 25.085938 19.425781 27 16 27 C 11.015625 27 7 22.984375 7 18 C 7 13.972656 9.621094 10.59375 13.25 9.4375 L 13.28125 9.40625 L 13.3125 9.40625 C 14.382813 9.003906 14.9375 8.125 15.3125 7.34375 Z M 18.3125 22.25 C 18.175781 22.261719 18.023438 22.300781 17.84375 22.375 C 17.484375 22.523438 17.109375 22.851563 16.875 23.0625 C 16.640625 23.273438 16.589844 23.453125 16.71875 23.625 C 16.847656 23.796875 16.984375 23.703125 17.34375 23.40625 C 17.703125 23.109375 17.914063 22.84375 18.65625 22.84375 C 19.398438 22.84375 19.539063 23.128906 19.6875 23.40625 C 19.835938 23.679688 19.851563 23.710938 20 23.625 C 20.171875 23.539063 20.273438 23.429688 20.1875 23.21875 C 20.101563 23.007813 19.941406 22.609375 19.6875 22.4375 C 19.433594 22.265625 19.089844 22.25 18.75 22.25 C 18.582031 22.25 18.449219 22.238281 18.3125 22.25 Z M 20.5 24.53125 C 20.464844 24.539063 20.421875 24.558594 20.375 24.59375 C 19.949219 24.910156 18.980469 25.28125 17.625 25.28125 C 16.269531 25.28125 15.644531 24.996094 15.21875 24.65625 C 15.15625 24.613281 15.191406 24.625 15.0625 24.625 C 14.933594 24.625 14.824219 24.695313 14.71875 24.78125 C 14.613281 24.867188 14.570313 25.070313 14.71875 25.21875 C 15.652344 26.066406 17.199219 26.011719 18.34375 25.90625 C 19.488281 25.800781 20.488281 25.105469 20.59375 25 C 20.742188 24.851563 20.675781 24.742188 20.65625 24.65625 C 20.640625 24.59375 20.605469 24.507813 20.5 24.53125 Z"/></svg>