<svg xmlns="http://www.w3.org/2000/svg" viewBox="0 0 32 32"><path d="M 21.3125 3.5 C 20.546875 3.5 19.765625 3.796875 19.1875 4.375 C 18.804688 4.757813 18.566406 5.226563 18.4375 5.71875 C 18.230469 5.675781 18.027344 5.625 17.8125 5.625 C 17.046875 5.625 16.265625 5.890625 15.6875 6.46875 C 14.53125 7.625 14.53125 9.53125 15.6875 10.6875 L 16.53125 11.53125 L 11.53125 16.53125 L 10.6875 15.6875 C 10.109375 15.109375 9.359375 14.8125 8.59375 14.8125 C 7.828125 14.8125 7.046875 15.109375 6.46875 15.6875 C 5.722656 16.4375 5.46875 17.5 5.6875 18.46875 C 5.207031 18.59375 4.753906 18.808594 4.375 19.1875 C 3.21875 20.34375 3.21875 22.25 4.375 23.40625 L 4.40625 23.4375 L 5.75 24.8125 L 5.0625 25.5 L 6.5 26.9375 L 7.1875 26.25 L 8.59375 27.625 C 9.75 28.78125 11.65625 28.78125 12.8125 27.625 C 13.1875 27.25 13.429688 26.792969 13.5625 26.3125 C 14.523438 26.519531 15.570313 26.273438 16.3125 25.53125 C 17.46875 24.375 17.46875 22.46875 16.3125 21.3125 L 15.46875 20.46875 L 20.46875 15.46875 L 21.3125 16.3125 C 22.46875 17.46875 24.375 17.46875 25.53125 16.3125 C 26.269531 15.570313 26.519531 14.523438 26.3125 13.5625 C 26.796875 13.429688 27.246094 13.191406 27.625 12.8125 C 28.78125 11.65625 28.78125 9.75 27.625 8.59375 L 26.25 7.1875 L 26.9375 6.5 L 25.5 5.0625 L 24.8125 5.75 L 23.40625 4.375 C 22.828125 3.796875 22.078125 3.5 21.3125 3.5 Z M 21.3125 5.5 C 21.5625 5.5 21.804688 5.585938 22 5.78125 L 26.21875 10 C 26.613281 10.394531 26.609375 10.984375 26.21875 11.375 C 25.828125 11.765625 25.207031 11.765625 24.8125 11.375 L 20.625 7.1875 C 20.234375 6.796875 20.234375 6.175781 20.625 5.78125 C 20.820313 5.585938 21.0625 5.5 21.3125 5.5 Z M 17.8125 7.59375 C 18.0625 7.59375 18.304688 7.710938 18.5 7.90625 L 24.09375 13.5 C 24.484375 13.894531 24.484375 14.511719 24.09375 14.90625 C 23.703125 15.296875 23.113281 15.265625 22.71875 14.875 L 22.6875 14.875 L 17.09375 9.28125 C 16.703125 8.890625 16.734375 8.300781 17.125 7.90625 C 17.316406 7.722656 17.570313 7.59375 17.8125 7.59375 Z M 17.9375 12.9375 L 19.0625 14.0625 L 14.0625 19.0625 L 12.9375 17.9375 Z M 8.59375 16.8125 C 8.84375 16.8125 9.085938 16.929688 9.28125 17.125 L 9.3125 17.125 L 14.90625 22.71875 C 15.296875 23.109375 15.265625 23.699219 14.875 24.09375 C 14.484375 24.464844 13.886719 24.480469 13.5 24.09375 L 12.8125 23.40625 L 12.6875 23.3125 L 8.59375 19.1875 L 7.90625 18.5 C 7.515625 18.105469 7.515625 17.488281 7.90625 17.09375 C 8.101563 16.898438 8.34375 16.8125 8.59375 16.8125 Z M 6.46875 20.3125 C 6.71875 20.3125 6.992188 20.429688 7.1875 20.625 L 11.375 24.8125 C 11.765625 25.203125 11.765625 25.824219 11.375 26.21875 C 10.984375 26.609375 10.394531 26.609375 10 26.21875 L 5.78125 22 C 5.386719 21.605469 5.390625 21.015625 5.78125 20.625 C 5.976563 20.429688 6.21875 20.3125 6.46875 20.3125 Z"/></svg>