<svg xmlns="http://www.w3.org/2000/svg" viewBox="0 0 32 32"><path d="M 8.53125 10 L 8.53125 15.84375 C 8.355469 14.691406 7.625 13 4.875 13 C 1.125 13 0.980469 15.878906 1 16.625 C 1 16.625 0.8125 20 4.78125 20 C 7.71875 20 8.25 18.4375 8.34375 18 L 6.75 18 C 6.628906 18.285156 6.167969 19.058594 4.78125 19.03125 C 2.890625 18.996094 2.582031 17.417969 2.53125 17 L 8.53125 17 L 8.53125 20 L 10 20 L 10 19.09375 C 10 19.09375 10.746094 20 12.75 20 C 14.449219 20 15.839844 19.101563 16.25 17.4375 C 16.324219 17.140625 16.367188 16.84375 16.375 16.5 C 16.414063 14.21875 14.667969 13.011719 12.78125 13 C 10.894531 12.988281 10 14.28125 10 14.28125 L 10 10 Z M 16.25 17.4375 C 15.941406 19.40625 17.726563 20.007813 19.125 20 C 20.523438 19.992188 21.40625 19.582031 22 18.84375 L 22 20 L 23.53125 20 L 23.53125 15.65625 C 23.492188 14.917969 23.382813 13.132813 20.125 13 C 20.125 13 17.011719 12.71875 16.6875 15 L 18.28125 15 C 18.28125 15 18.410156 13.96875 20.03125 14 C 21.5625 14.03125 22.007813 15.089844 22 16 C 22 16 20.5 15.996094 20.0625 16 C 19.273438 16.003906 16.65625 15.90625 16.25 17.4375 Z M 22.53125 13 L 26 19.46875 L 24.65625 22 L 26.34375 22 L 31 13 L 29.40625 13 L 26.84375 18 L 24.28125 13 Z M 4.84375 14 C 6.992188 14 7 16 7 16 L 2.53125 16 C 2.53125 16 2.6875 14 4.84375 14 Z M 12.4375 14 C 14.863281 13.9375 14.78125 16.5 14.78125 16.5 C 14.78125 16.5 14.820313 18.96875 12.4375 19 C 10.054688 19.03125 10.09375 16.46875 10.09375 16.46875 C 10.09375 16.46875 10.011719 14.0625 12.4375 14 Z M 19.75 17 C 19.96875 16.988281 20.125 17 20.125 17 L 21.84375 17 C 21.84375 17 22.125 19.097656 19.40625 19.0625 C 19.40625 19.0625 17.871094 19.066406 17.78125 17.875 C 17.78125 17.210938 19.09375 17.035156 19.75 17 Z"/></svg>