<svg xmlns="http://www.w3.org/2000/svg" viewBox="0 0 32 32"><path d="M 25 4.03125 C 24.234375 4.03125 23.484375 4.328125 22.90625 4.90625 L 13 14.78125 L 12.78125 15 L 12.71875 15.3125 L 12.03125 18.8125 L 11.71875 20.28125 L 13.1875 19.96875 L 16.6875 19.28125 L 17 19.21875 L 17.21875 19 L 27.09375 9.09375 C 28.246094 7.941406 28.246094 6.058594 27.09375 4.90625 C 26.515625 4.328125 25.765625 4.03125 25 4.03125 Z M 25 5.96875 C 25.234375 5.96875 25.464844 6.089844 25.6875 6.3125 C 26.132813 6.757813 26.132813 7.242188 25.6875 7.6875 L 16 17.375 L 14.28125 17.71875 L 14.625 16 L 24.3125 6.3125 C 24.535156 6.089844 24.765625 5.96875 25 5.96875 Z M 4 8 L 4 28 L 24 28 L 24 14.8125 L 22 16.8125 L 22 26 L 6 26 L 6 10 L 15.1875 10 L 17.1875 8 Z"/></svg>