<svg xmlns="http://www.w3.org/2000/svg" viewBox="0 0 32 32"><path d="M 16 3 C 8.832 3 3 8.832 3 16 C 3 23.168 8.832 29 16 29 C 23.168 29 29 23.168 29 16 C 29 8.832 23.168 3 16 3 z M 16 5 C 22.065 5 27 9.935 27 16 C 27 22.065 22.065 27 16 27 C 9.935 27 5 22.065 5 16 C 5 9.935 9.935 5 16 5 z M 9.0800781 17 C 9.5680781 20.387 12.481 23 16 23 C 19.519 23 22.431922 20.387 22.919922 17 L 20.898438 17 C 20.433438 19.279 18.415 21 16 21 C 13.585 21 11.566563 19.279 11.101562 17 L 9.0800781 17 z"/></svg>