<svg xmlns="http://www.w3.org/2000/svg" viewBox="0 0 32 32"><path d="M 18.015625 7.9980469 C 17.875156 7.9943594 17.73375 8.0239687 17.59375 8.0742188 C 16.74375 8.4122187 16.417969 8.9140625 16.417969 8.9140625 C 16.417969 8.9140625 15.3175 10.527875 15.0625 12.921875 C 15.0215 13.306875 14.978594 13.702609 14.933594 14.099609 C 14.697594 16.101609 14.433594 18.078125 14.433594 18.078125 C 14.433594 18.078125 13.908828 18.575609 13.423828 18.599609 C 12.938828 18.623609 13.152344 17.201172 13.152344 17.201172 C 13.152344 17.201172 13.528906 15.075938 13.503906 14.710938 C 13.478906 14.345937 13.447813 14.145531 13.007812 14.019531 C 12.562812 13.888531 12.082031 14.4375 12.082031 14.4375 C 12.082031 14.4375 10.807266 16.277453 10.697266 16.564453 L 10.632812 16.681641 L 10.568359 16.603516 C 10.568359 16.603516 11.467422 14.037047 10.607422 13.998047 C 9.7474219 13.959047 9.1835938 14.914063 9.1835938 14.914062 C 9.1835938 14.914062 8.2021094 16.511406 8.1621094 16.691406 L 8.0996094 16.615234 C 8.0996094 16.615234 8.5049219 14.831047 8.4199219 14.373047 C 8.3399219 13.915047 7.8945312 14.007813 7.8945312 14.007812 C 7.8945312 14.007812 7.3305469 13.944922 7.1855469 14.294922 C 7.0405469 14.645922 6.5005469 16.912109 6.4355469 17.662109 C 6.4355469 17.662109 5.0257031 18.645297 4.0957031 18.654297 C 3.1707031 18.669297 3.2597656 18.080078 3.2597656 18.080078 C 3.2597656 18.080078 6.6604687 16.981094 5.7304688 14.746094 C 5.3154687 14.171094 4.8295313 13.991 4.1445312 14 C 3.4595313 14.015 2.6300781 14.384891 2.0800781 15.587891 C 1.8150781 16.162891 1.7394531 16.707094 1.6894531 17.121094 C 1.6894531 17.121094 1.075 17.238469 0.75 16.980469 C 0.425 16.722469 0.25 16.980469 0.25 16.980469 C 0.25 16.980469 -0.31085938 17.662094 0.24414062 17.871094 C 0.79914063 18.080094 1.6503906 18.167969 1.6503906 18.167969 C 1.7303906 18.532969 1.9608594 19.116281 2.6308594 19.613281 C 3.6408594 20.358281 5.5703125 19.550781 5.5703125 19.550781 L 6.3652344 19.123047 C 6.3652344 19.123047 6.3907031 19.833547 6.9707031 19.935547 C 7.5507031 20.037547 7.7899219 19.984516 8.7949219 17.603516 C 9.3849219 16.386516 9.4257812 16.455078 9.4257812 16.455078 L 9.4902344 16.439453 C 9.4902344 16.439453 9.0359375 18.719656 9.2109375 19.347656 C 9.3859375 19.970656 10.150391 19.902344 10.150391 19.902344 C 10.150391 19.902344 10.565391 20.018141 10.900391 18.869141 C 11.235391 17.720141 11.880859 16.439453 11.880859 16.439453 L 11.960938 16.439453 C 11.960938 16.439453 11.679375 18.782969 12.109375 19.542969 C 12.539375 20.302969 13.654297 19.800781 13.654297 19.800781 C 13.654297 19.800781 14.434687 19.419734 14.554688 19.302734 C 14.554688 19.302734 15.480156 20.072641 16.785156 19.931641 C 19.700156 19.371641 20.740234 18.669922 20.740234 18.669922 C 20.740234 18.669922 21.239922 19.858703 22.794922 19.970703 C 24.569922 20.102703 25.535156 19.064453 25.535156 19.064453 C 25.535156 19.064453 25.520625 19.721703 26.140625 19.970703 C 26.760625 20.218703 27.175781 18.859375 27.175781 18.859375 L 28.210938 16.074219 L 28.304688 16.074219 C 28.304688 16.074219 28.360859 17.890734 29.380859 18.177734 C 30.400859 18.464734 31.730469 17.511719 31.730469 17.511719 C 31.730469 17.511719 32.049141 17.340453 31.994141 16.814453 C 31.938141 16.293453 31.458984 16.482422 31.458984 16.482422 C 31.458984 16.482422 30.679141 17.071906 29.994141 17.003906 C 29.309141 16.940906 29.523438 15.498047 29.523438 15.498047 C 29.523438 15.498047 29.674531 14.129578 29.269531 14.017578 C 28.864531 13.900578 28.369141 14.373047 28.369141 14.373047 C 28.369141 14.373047 27.748125 14.987844 27.453125 15.839844 L 27.373047 15.863281 C 27.373047 15.863281 27.469375 14.374203 27.359375 14.033203 C 27.279375 13.863203 26.539922 13.877688 26.419922 14.179688 C 26.299922 14.481688 25.709922 16.575172 25.669922 17.451172 C 25.669922 17.451172 24.513906 18.404547 23.503906 18.560547 C 22.493906 18.716547 22.253906 18.103516 22.253906 18.103516 C 22.253906 18.103516 24.909453 17.586125 24.814453 15.453125 C 24.719453 13.320125 22.603281 14.110156 22.363281 14.285156 C 22.133281 14.455156 20.979141 14.951891 20.619141 16.962891 C 20.609141 17.030891 20.583984 17.328125 20.583984 17.328125 C 20.583984 17.328125 19.523594 18.018125 18.933594 18.203125 C 18.933594 18.203125 20.583359 15.497625 18.568359 14.265625 C 17.998359 13.934625 17.503984 14.241437 17.208984 14.523438 C 17.300984 14.408437 17.413203 14.262609 17.533203 14.099609 C 18.297203 13.024609 19.463734 11.022281 19.052734 9.2382812 C 18.835234 8.3165313 18.437031 8.0091094 18.015625 7.9980469 z M 17.720703 9.3183594 C 17.803112 9.3261956 17.871875 9.4237812 17.914062 9.6523438 C 18.094062 10.625344 16.714391 13.129563 16.150391 14.101562 C 16.007391 14.338563 15.914062 14.486328 15.914062 14.486328 C 15.917063 14.385328 15.932031 14.253562 15.957031 14.101562 C 16.129031 13.026562 16.734375 10.9375 16.734375 10.9375 C 16.734375 10.9375 17.3636 9.2844026 17.720703 9.3183594 z M 4.3808594 15.126953 C 4.4441016 15.138484 4.4999219 15.165031 4.5449219 15.207031 C 4.9099219 15.548031 4.7748438 16.245125 4.0898438 16.703125 C 3.4048437 17.165125 3.0957031 17.072266 3.0957031 17.072266 C 3.1307031 15.709016 3.9381641 15.046234 4.3808594 15.126953 z M 23.121094 15.220703 C 23.297344 15.232953 23.404297 15.367188 23.404297 15.367188 C 23.404297 15.367188 23.874844 15.864375 23.339844 16.609375 C 22.804844 17.354375 22.019531 17.300781 22.019531 17.300781 C 22.019531 17.300781 21.870781 16.789547 22.425781 15.810547 C 22.700781 15.318547 22.944844 15.208453 23.121094 15.220703 z M 17.296875 15.453125 C 17.528643 15.478508 17.693359 15.566406 17.693359 15.566406 C 17.693359 15.566406 18.503047 16.172203 17.873047 17.783203 C 17.243047 19.390203 15.708984 18.736328 15.708984 18.736328 C 15.708984 18.736328 15.534297 18.161781 16.029297 16.550781 C 16.338672 15.543281 16.910596 15.41082 17.296875 15.453125 z"/></svg>