<svg xmlns="http://www.w3.org/2000/svg" viewBox="0 0 32 32"><path d="M 23.96875 5 C 18.71075 5.604 9.7705781 5.2995938 6.1425781 5.1835938 L 6.1425781 6.4355469 C 8.5425781 6.8895469 9.0886719 6.805125 9.1386719 8.203125 C 9.3116719 12.026125 9.2266719 20.465578 9.1386719 24.017578 C 9.1206719 25.354578 8.3745781 25.309047 6.1425781 25.748047 L 6.1425781 27 C 13.440578 26.767 18.449281 26.789 24.238281 27 C 24.312281 26.075 24.753594 22.379 24.933594 21 L 23.701172 21 C 22.309172 24.293 22.040594 25.416016 19.058594 25.416016 L 14.675781 25.416016 C 13.202781 25.416016 12.501953 24.813109 12.501953 23.537109 L 12.501953 16.712891 C 15.767953 16.712891 16.822266 16.810547 16.822266 16.810547 C 18.317266 16.833547 18.55 18.031 19 20 L 20 20 C 19.894 15.167 19.784 16.977 20 12 L 19 12 C 18.352 14.787 18.309656 15.117063 16.847656 15.164062 C 16.847656 15.164062 15.349953 15.311109 12.501953 15.287109 L 12.501953 7.2460938 C 12.501953 6.9390937 12.526297 6.7675781 13.029297 6.7675781 L 19.757812 6.7675781 C 21.465812 6.7675781 21.878531 8.954 22.394531 11 L 23.599609 11 C 23.643609 10.113 23.81975 6.632 23.96875 5 z"/></svg>