<svg xmlns="http://www.w3.org/2000/svg" viewBox="0 0 32 32"><path d="M 16 2 L 2 16 L 16 30 L 30 16 L 16 2 z M 16 4.0097656 L 28 16 L 16 28 L 4 16 L 16 4.0097656 z M 16 6 L 6 16 L 16 26 L 26 16 L 16 6 z M 16.310547 10.009766 C 16.988418 10.060279 17.630422 10.313406 18.201172 10.738281 C 19.310172 11.565281 21.005672 13.402344 21.013672 13.402344 C 21.038672 13.435344 21.064063 13.533594 21.039062 13.558594 C 20.526062 14.096594 20.013391 14.625859 19.525391 15.130859 C 17.978391 13.666859 17.688219 13.392719 17.324219 13.136719 C 16.521219 12.565719 15.454953 12.682141 14.751953 13.369141 C 14.652953 13.468141 14.668953 13.526375 14.751953 13.609375 C 14.883953 13.750375 16.024844 14.890469 16.339844 15.230469 C 15.801844 15.759469 15.272562 16.272734 14.726562 16.802734 C 14.180563 16.231734 13.618266 15.645219 13.072266 15.074219 C 12.104266 16.034219 11.186391 16.936891 10.275391 17.837891 C 9.6543906 17.225891 9.0331094 16.604187 8.4121094 15.992188 C 8.5031094 15.901188 8.95025 15.438031 12.78125 11.582031 C 13.95 10.403281 15.180762 9.9255762 16.310547 10.009766 z M 21.734375 14.189453 C 22.355375 14.793453 22.967891 15.389953 23.587891 16.001953 C 22.677891 16.944953 19.890109 19.74175 19.037109 20.59375 C 17.431109 22.18975 15.503313 22.313531 14.195312 21.519531 C 13.194313 20.907531 12.416531 20.062234 10.894531 18.490234 C 11.440531 17.927234 11.971 17.391516 12.5 16.853516 C 13.989 18.293516 14.171531 18.474859 14.519531 18.755859 C 15.355531 19.417859 16.446031 19.368828 17.207031 18.673828 C 17.372031 18.516828 17.372031 18.507797 17.207031 18.341797 C 16.727031 17.861797 16.248344 17.374719 15.777344 16.886719 C 15.711344 16.828719 15.636328 16.778688 15.736328 16.679688 C 16.224328 16.191688 16.711406 15.702844 17.191406 15.214844 C 17.208406 15.206844 17.225203 15.197062 17.283203 15.164062 C 17.837203 15.751062 18.407891 16.340922 18.962891 16.919922 C 19.913891 15.984922 20.832375 15.082453 21.734375 14.189453 z"/></svg>