<svg xmlns="http://www.w3.org/2000/svg" viewBox="0 0 32 32"><path d="M 12 5 L 12 10 L 10 10 L 10 8 L 4 8 L 4 26 L 6 26 L 6 27 C 6 28.644531 7.355469 30 9 30 C 10.644531 30 12 28.644531 12 27 L 12 26 L 28 26 L 28 10 L 24 10 L 24 5 Z M 14 7 L 22 7 L 22 12 L 14 12 Z M 6 10 L 8 10 L 8 24 L 6 24 Z M 10 12 L 12 12 L 12 14 L 24 14 L 24 12 L 26 12 L 26 24 L 10 24 Z M 13 16 L 13 18 L 15 18 L 15 16 Z M 17 16 L 17 18 L 19 18 L 19 16 Z M 21 16 L 21 18 L 23 18 L 23 16 Z M 13 20 L 13 22 L 15 22 L 15 20 Z M 17 20 L 17 22 L 19 22 L 19 20 Z M 21 20 L 21 22 L 23 22 L 23 20 Z M 8 26 L 10 26 L 10 27 C 10 27.554688 9.554688 28 9 28 C 8.445313 28 8 27.554688 8 27 Z"/></svg>