<svg xmlns="http://www.w3.org/2000/svg" viewBox="0 0 32 32"><path d="M 6 3 L 6 29 L 26 29 L 26 9.5996094 L 25.699219 9.3007812 L 19.699219 3.3007812 L 19.400391 3 L 6 3 z M 8 5 L 18 5 L 18 11 L 24 11 L 24 27 L 8 27 L 8 5 z M 20 6.4003906 L 22.599609 9 L 20 9 L 20 6.4003906 z M 11 11 L 11 20 L 13 20 L 13 17 L 13.599609 17 L 16.099609 21.400391 L 14 25 L 16 25 L 17 23.199219 L 18 25 L 20 25 L 18 21.400391 L 20 18 L 18 18 L 17 19.699219 L 15.300781 16.699219 C 16.300781 16.199219 16.900391 15.2 16.900391 14 C 16.900391 12.4 15.500391 11 13.900391 11 L 11 11 z M 13 13 L 14 13 C 14.6 13 15 13.4 15 14 C 15 14.6 14.6 15 14 15 L 13 15 L 13 13 z"/></svg>