<svg xmlns="http://www.w3.org/2000/svg" viewBox="0 0 32 32"><path d="M 16 3 C 8.817 3 3 8.817 3 16 C 3 23.183 8.817 29 16 29 C 23.183 29 29 23.183 29 16 C 29 8.817 23.183 3 16 3 z M 16 4 C 22.63 4 28 9.37 28 16 C 28 22.63 22.63 28 16 28 C 9.37 28 4 22.63 4 16 C 4 9.37 9.37 4 16 4 z M 16 5 C 9.926 5 5 9.926 5 16 C 5 22.074 9.926 27 16 27 C 22.074 27 27 22.074 27 16 C 27 9.926 22.074 5 16 5 z M 16 6 C 21.523 6 26 10.477 26 16 C 26 21.523 21.523 26 16 26 C 10.477 26 6 21.523 6 16 C 6 10.477 10.477 6 16 6 z M 15.990234 7 C 15.575234 7 15.168719 7.0289375 14.761719 7.0859375 L 14.984375 10.890625 L 13.728516 7.2890625 C 12.926516 7.4920625 12.164219 7.8115625 11.449219 8.2265625 L 13.130859 11.693359 L 10.570312 8.8144531 C 9.9133125 9.3164531 9.3242656 9.8957344 8.8222656 10.552734 L 11.701172 13.121094 L 8.234375 11.441406 C 7.819375 12.155406 7.4991094 12.918938 7.2871094 13.710938 L 10.929688 14.986328 L 7.0859375 14.763672 C 7.0279375 15.169672 6.9980469 15.575 6.9980469 16 C 6.9980469 16.415 7.0271719 16.821563 7.0761719 17.226562 L 10.919922 17.003906 L 7.2890625 18.269531 C 7.4920625 19.071531 7.8115625 19.833828 8.2265625 20.548828 L 11.693359 18.867188 L 8.8144531 21.427734 C 9.3164531 22.084734 9.9055 22.673781 10.5625 23.175781 L 13.121094 20.296875 L 11.441406 23.763672 C 12.156406 24.188672 12.918703 24.498938 13.720703 24.710938 L 14.986328 21.060547 L 14.763672 24.912109 C 15.168672 24.970109 15.575234 25 15.990234 25 C 16.415234 25 16.819609 24.970156 17.224609 24.910156 L 17.003906 21.039062 L 18.277344 24.708984 C 19.069344 24.496984 19.831875 24.178672 20.546875 23.763672 L 18.867188 20.296875 L 21.425781 23.164062 C 22.081781 22.672062 22.672062 22.082781 23.164062 21.425781 L 20.296875 18.867188 L 23.763672 20.537109 C 24.179672 19.832109 24.496219 19.061531 24.699219 18.269531 L 21.068359 17.003906 L 24.902344 17.226562 C 24.960344 16.821563 24.990234 16.415 24.990234 16 C 24.990234 15.575 24.960391 15.170625 24.900391 14.765625 L 21.058594 14.986328 L 24.699219 13.722656 C 24.487219 12.920656 24.168906 12.158359 23.753906 11.443359 L 20.285156 13.123047 L 23.164062 10.564453 C 22.662063 9.9084531 22.082781 9.3181719 21.425781 8.8261719 L 18.867188 11.693359 L 20.537109 8.2265625 C 19.832109 7.8205625 19.071531 7.5010625 18.269531 7.2890625 L 17.003906 10.921875 L 17.226562 7.0878906 C 16.820562 7.0298906 16.415234 7 15.990234 7 z"/></svg>