<svg xmlns="http://www.w3.org/2000/svg" viewBox="0 0 32 32"><path d="M 16 2 L 4 9 L 4 23 L 16 30 L 28 23 L 28 9 L 16 2 z M 16 3 L 27 9.4882812 L 27 22.488281 L 16 29 L 5 22.488281 L 5 9.4882812 L 16 3 z M 16 4 L 6 10 L 6 22 L 16 28 L 26 22 L 26 10 L 16 4 z M 16 6.9472656 C 20.956 6.9472656 25 10.991 25 16 C 25 20.988 20.956 25.042969 16 25.042969 C 11.022 25.042969 7 20.988 7 16 C 7 10.991 11.022 6.9472656 16 6.9472656 z M 16.001953 8 C 15.645953 8 15.268828 8.029125 14.923828 8.078125 L 15.111328 11.460938 L 14.003906 8.2460938 C 13.291906 8.4340938 12.619094 8.7218906 11.996094 9.0878906 L 13.480469 12.173828 L 11.214844 9.6113281 C 10.640844 10.056328 10.116875 10.571063 9.671875 11.164062 L 12.212891 13.449219 L 9.1484375 11.955078 C 8.7924375 12.568078 8.4944063 13.240891 8.3164062 13.962891 L 11.541016 15.099609 L 8.1289062 14.892578 C 8.0799062 15.248578 8.0605469 15.624 8.0605469 16 C 8.0605469 16.376 8.0908594 16.731891 8.1308594 17.087891 L 11.53125 16.890625 L 8.3183594 18.027344 C 8.4963594 18.739344 8.7824375 19.411922 9.1484375 20.044922 L 12.214844 18.550781 L 9.6621094 20.824219 C 10.106109 21.408219 10.621844 21.942187 11.214844 22.367188 L 13.470703 19.816406 L 11.986328 22.902344 C 12.599328 23.267344 13.272141 23.553953 13.994141 23.751953 L 15.111328 20.509766 L 14.912109 23.921875 C 15.268109 23.970875 15.645953 24 16.001953 24 C 16.376953 24 16.732891 23.969922 17.087891 23.919922 L 16.888672 20.46875 L 18.025391 23.742188 C 18.737391 23.545187 19.410203 23.268578 20.033203 22.892578 L 18.550781 19.816406 L 20.804688 22.367188 C 21.398687 21.922187 21.912656 21.407219 22.347656 20.824219 L 19.806641 18.550781 L 22.873047 20.033203 C 23.229047 19.410203 23.525125 18.739812 23.703125 18.007812 L 20.490234 16.890625 L 23.882812 17.087891 C 23.931813 16.731891 23.951172 16.376 23.951172 16 C 23.951172 15.624 23.931812 15.248578 23.882812 14.892578 L 20.480469 15.099609 L 23.693359 13.972656 C 23.505359 13.260656 23.239281 12.568078 22.863281 11.955078 L 19.798828 13.447266 L 22.339844 11.164062 C 21.894844 10.580062 21.380641 10.056328 20.806641 9.6113281 L 18.542969 12.171875 L 20.015625 9.0976562 C 19.402625 8.7326563 18.729813 8.4440938 18.007812 8.2460938 L 16.890625 11.480469 L 17.089844 8.078125 C 16.733844 8.019125 16.377953 8 16.001953 8 z"/></svg>