<svg xmlns="http://www.w3.org/2000/svg" viewBox="0 0 32 32"><path d="M 21.03125 4 C 20.292969 4.015625 19.515625 4.085938 18.71875 4.21875 C 15.53125 4.75 11.960938 6.28125 9.09375 9.09375 C 6.277344 11.964844 4.75 15.550781 4.21875 18.75 C 3.6875 21.949219 3.996094 24.808594 5.59375 26.40625 C 7.183594 27.996094 10.046875 28.332031 13.25 27.8125 C 16.453125 27.292969 20.035156 25.777344 22.90625 22.90625 C 25.726563 20.085938 27.25 16.515625 27.78125 13.3125 C 28.3125 10.109375 28.007813 7.230469 26.4375 5.59375 L 26.40625 5.59375 L 26.40625 5.5625 C 25.589844 4.78125 24.441406 4.335938 23.125 4.125 C 22.464844 4.019531 21.769531 3.984375 21.03125 4 Z M 21.03125 6.03125 C 21.664063 6.03125 22.257813 6.070313 22.78125 6.15625 C 23.808594 6.328125 24.578125 6.640625 24.96875 7 C 24.976563 7.007813 24.992188 7.023438 25 7.03125 C 25.722656 7.816406 26.277344 10.199219 25.8125 13 C 25.34375 15.824219 23.980469 19.019531 21.5 21.5 C 18.96875 24.03125 15.757813 25.386719 12.9375 25.84375 C 10.117188 26.300781 7.710938 25.710938 7 25 C 6.296875 24.296875 5.71875 21.886719 6.1875 19.0625 C 6.65625 16.238281 8.015625 13.03125 10.5 10.5 C 13.03125 8.015625 16.21875 6.65625 19.03125 6.1875 C 19.734375 6.070313 20.398438 6.03125 21.03125 6.03125 Z M 21.28125 9.28125 L 19 11.5625 L 17.21875 9.78125 L 15.78125 11.21875 L 17.5625 13 L 16 14.5625 L 14.21875 12.78125 L 12.78125 14.21875 L 14.5625 16 L 13 17.5625 L 11.21875 15.78125 L 9.78125 17.21875 L 11.5625 19 L 9.28125 21.28125 L 10.71875 22.71875 L 13 20.4375 L 14.78125 22.21875 L 16.21875 20.78125 L 14.4375 19 L 16 17.4375 L 17.78125 19.21875 L 19.21875 17.78125 L 17.4375 16 L 19 14.4375 L 20.78125 16.21875 L 22.21875 14.78125 L 20.4375 13 L 22.71875 10.71875 Z"/></svg>