<svg xmlns="http://www.w3.org/2000/svg" viewBox="0 0 32 32"><path d="M 21 7 C 19.875 7 18.886719 7.632813 18.375 8.5625 C 18.035156 8.761719 17.351563 9.195313 16.59375 10.03125 C 15.660156 10.046875 13.917969 10.117188 11.9375 10.75 C 9.820313 11.425781 7.550781 12.796875 6.28125 15.3125 C 6.269531 15.339844 6.230469 15.347656 6.21875 15.375 C 6.167969 15.429688 5.683594 15.929688 5.15625 16.71875 C 4.605469 17.546875 4 18.632813 4 19.90625 C 4 20.824219 4.320313 21.746094 5 22.40625 C 5.222656 22.625 5.511719 22.777344 5.8125 22.90625 C 5.695313 23.0625 5.570313 23.214844 5.46875 23.375 C 5.238281 23.734375 5 23.988281 5 24.65625 C 5 25.074219 5.304688 25.472656 5.53125 25.625 C 5.757813 25.777344 5.917969 25.835938 6.09375 25.875 C 6.441406 25.953125 6.804688 25.960938 7.21875 25.96875 C 8.050781 25.980469 9.132813 25.933594 10.34375 25.875 C 12.769531 25.757813 15.734375 25.652344 17.84375 26 L 18.15625 24 C 17.15625 23.835938 16.046875 23.769531 14.9375 23.75 C 15.550781 23.097656 16 22.28125 16 21.28125 C 16 19.683594 14.96875 18.472656 13.78125 17.84375 C 12.59375 17.214844 11.214844 17 10 17 L 10 19 C 10.941406 19 12.070313 19.214844 12.84375 19.625 C 13.617188 20.035156 14 20.472656 14 21.28125 C 14 21.933594 13.46875 22.550781 12.59375 23.0625 C 11.71875 23.574219 10.550781 23.84375 10.1875 23.84375 L 10.1875 23.875 C 9.105469 23.925781 8.183594 23.96875 7.5 23.96875 C 7.605469 23.828125 7.699219 23.703125 7.8125 23.5625 C 8.304688 22.957031 8.8125 22.4375 8.8125 22.4375 L 7.34375 21.0625 C 7.34375 21.0625 7.3125 21.125 7.3125 21.125 C 6.808594 21.273438 6.589844 21.175781 6.375 20.96875 C 6.160156 20.761719 6 20.335938 6 19.90625 C 6 19.375 6.394531 18.519531 6.84375 17.84375 C 7.292969 17.167969 7.71875 16.6875 7.71875 16.6875 L 7.84375 16.5625 L 7.90625 16.40625 C 8.835938 14.34375 10.679688 13.257813 12.5625 12.65625 C 14.445313 12.054688 16.304688 12 17 12 L 17.5 12 L 17.8125 11.59375 C 17.949219 11.40625 18.097656 11.273438 18.25 11.125 C 18.703125 12.214844 19.757813 13 21 13 C 22.589844 13 23.882813 11.726563 23.96875 10.15625 C 24.425781 10.269531 24.878906 10.421875 25.25 10.625 C 25.570313 10.800781 25.828125 10.996094 25.96875 11.125 C 25.960938 11.164063 25.953125 11.144531 25.9375 11.1875 C 25.871094 11.371094 25.734375 11.585938 25.5625 11.84375 C 25.214844 12.355469 24.640625 12.945313 23.625 13.34375 L 23 13.59375 L 23 14.28125 C 23 15.683594 22.875 19.132813 20.9375 20.5 L 22.09375 22.125 C 24.902344 20.140625 24.9375 16.5625 24.9375 14.875 C 25.980469 14.335938 26.757813 13.648438 27.21875 12.96875 C 27.492188 12.5625 27.691406 12.183594 27.8125 11.84375 C 27.933594 11.503906 28 11.234375 28 10.90625 C 28 10.132813 27.617188 9.9375 27.3125 9.65625 C 27.007813 9.375 26.625 9.113281 26.1875 8.875 C 25.375 8.433594 24.351563 8.082031 23.25 8.03125 C 22.699219 7.402344 21.894531 7 21 7 Z M 21 9 C 21.5625 9 22 9.4375 22 10 C 22 10.5625 21.5625 11 21 11 C 20.4375 11 20 10.5625 20 10 C 20 9.4375 20.4375 9 21 9 Z M 19 16.375 C 18.328125 17.324219 18.027344 18.285156 17.90625 19.0625 C 17.785156 19.839844 17.816406 20.558594 17.8125 20.59375 C 17.8125 20.605469 17.8125 20.613281 17.8125 20.625 C 17.8125 20.886719 17.859375 20.921875 17.875 20.96875 C 17.890625 21.015625 17.894531 21.03125 17.90625 21.0625 C 17.929688 21.125 17.96875 21.183594 18 21.25 C 18.058594 21.378906 18.125 21.53125 18.21875 21.71875 C 18.410156 22.09375 18.679688 22.585938 18.96875 23.09375 C 19.550781 24.105469 20.132813 25.152344 20.90625 25.8125 C 21.023438 25.917969 21.160156 25.992188 21.3125 26.03125 C 21.773438 26.136719 21.976563 26.015625 22.1875 25.96875 C 22.398438 25.921875 22.605469 25.882813 22.84375 25.84375 C 23.316406 25.769531 23.898438 25.738281 24.71875 25.96875 L 25.28125 24.03125 C 24.160156 23.71875 23.199219 23.769531 22.53125 23.875 C 22.289063 23.914063 22.128906 23.964844 21.96875 24 C 21.691406 23.671875 21.160156 22.917969 20.6875 22.09375 C 20.414063 21.617188 20.171875 21.152344 20 20.8125 C 19.917969 20.652344 19.855469 20.527344 19.8125 20.4375 C 19.808594 20.429688 19.816406 20.410156 19.8125 20.40625 C 19.816406 20.09375 19.808594 19.808594 19.875 19.375 C 19.960938 18.824219 20.164063 18.183594 20.625 17.53125 Z"/></svg>