<svg xmlns="http://www.w3.org/2000/svg" viewBox="0 0 32 32"><path d="M 27.59375 12.894531 C 27.039063 10.828125 25.953125 8.984375 24.484375 7.515625 C 23.019531 6.046875 21.171875 4.960938 19.101563 4.40625 C 18.113281 4.140625 17.074219 4 16 4 C 14.925781 4 13.882813 4.140625 12.890625 4.40625 C 10.824219 4.960938 8.980469 6.050781 7.511719 7.515625 C 6.046875 8.984375 4.957031 10.828125 4.40625 12.894531 C 4.140625 13.886719 4 14.925781 4 16 C 4 17.074219 4.140625 18.113281 4.40625 19.101563 C 4.957031 21.167969 6.042969 23.011719 7.511719 24.480469 C 8.980469 25.949219 10.828125 27.039063 12.894531 27.59375 C 13.882813 27.859375 14.925781 28 16 28 C 17.074219 28 18.113281 27.859375 19.105469 27.59375 C 21.171875 27.042969 23.015625 25.953125 24.484375 24.484375 C 25.949219 23.019531 27.039063 21.175781 27.589844 19.109375 C 27.855469 18.117188 28 17.074219 28 16 C 28 14.925781 27.859375 13.882813 27.59375 12.894531 Z M 16.40625 5.34375 C 17.21875 5.371094 18.003906 5.492188 18.757813 5.695313 C 20.59375 6.183594 22.234375 7.152344 23.539063 8.460938 C 24.078125 8.996094 24.5625 9.59375 24.976563 10.238281 L 24.542969 10.488281 C 24.152344 9.882813 23.695313 9.320313 23.1875 8.8125 L 22.292969 9.707031 C 21.203125 8.617188 19.832031 7.808594 18.300781 7.398438 L 18.628906 6.175781 C 17.914063 5.984375 17.171875 5.871094 16.40625 5.839844 Z M 19.601563 16 C 19.601563 16.324219 19.554688 16.636719 19.476563 16.9375 L 23.164063 17.925781 C 22.820313 19.199219 22.148438 20.339844 21.242188 21.246094 L 18.546875 18.546875 C 18.105469 18.984375 17.550781 19.3125 16.929688 19.476563 L 17.917969 23.164063 C 17.304688 23.328125 16.664063 23.417969 16 23.417969 C 15.335938 23.417969 14.691406 23.328125 14.078125 23.164063 L 15.066406 19.476563 C 14.445313 19.3125 13.890625 18.984375 13.449219 18.539063 L 10.75 21.238281 C 9.84375 20.332031 9.175781 19.191406 8.835938 17.914063 L 12.519531 16.925781 C 12.441406 16.632813 12.398438 16.320313 12.398438 16 C 12.398438 15.679688 12.441406 15.367188 12.523438 15.070313 L 8.835938 14.082031 C 9.175781 12.804688 9.847656 11.664063 10.753906 10.757813 L 13.453125 13.457031 C 13.890625 13.015625 14.445313 12.6875 15.066406 12.523438 L 14.078125 8.835938 C 14.691406 8.671875 15.335938 8.582031 16 8.582031 C 16.664063 8.582031 17.304688 8.671875 17.917969 8.835938 L 16.929688 12.519531 C 17.550781 12.6875 18.105469 13.011719 18.546875 13.453125 L 21.246094 10.753906 C 22.152344 11.660156 22.824219 12.804688 23.164063 14.078125 L 19.476563 15.066406 C 19.558594 15.363281 19.601563 15.675781 19.601563 16 Z M 8.457031 8.460938 C 9.761719 7.15625 11.402344 6.1875 13.238281 5.695313 C 13.933594 5.507813 14.660156 5.390625 15.40625 5.351563 L 15.40625 5.851563 C 14.703125 5.890625 14.023438 6.003906 13.367188 6.179688 L 13.695313 7.402344 C 12.160156 7.8125 10.792969 8.621094 9.703125 9.710938 L 8.808594 8.8125 C 8.300781 9.320313 7.847656 9.882813 7.457031 10.488281 L 7.023438 10.238281 C 7.433594 9.59375 7.917969 9 8.457031 8.460938 Z M 6.519531 20.894531 C 6.171875 20.222656 5.894531 19.503906 5.695313 18.757813 C 5.460938 17.878906 5.332031 16.953125 5.332031 16 C 5.332031 15.046875 5.460938 14.121094 5.695313 13.238281 C 5.894531 12.492188 6.171875 11.777344 6.519531 11.105469 L 6.953125 11.355469 C 6.628906 11.988281 6.367188 12.664063 6.179688 13.367188 L 7.402344 13.695313 C 7.203125 14.429688 7.101563 15.203125 7.101563 16 C 7.101563 16.796875 7.203125 17.566406 7.398438 18.300781 L 6.175781 18.628906 C 6.363281 19.332031 6.625 20.007813 6.953125 20.644531 Z M 15.40625 26.648438 C 14.660156 26.609375 13.9375 26.492188 13.238281 26.304688 C 11.398438 25.8125 9.757813 24.84375 8.453125 23.535156 C 7.914063 22.996094 7.433594 22.402344 7.019531 21.761719 L 7.453125 21.511719 C 7.847656 22.113281 8.300781 22.675781 8.804688 23.183594 L 9.703125 22.289063 C 10.789063 23.378906 12.160156 24.1875 13.695313 24.597656 L 13.367188 25.820313 C 14.023438 25.996094 14.707031 26.109375 15.40625 26.148438 Z M 23.539063 23.542969 C 22.234375 24.847656 20.59375 25.8125 18.757813 26.304688 C 18.003906 26.507813 17.21875 26.628906 16.40625 26.65625 L 16.40625 26.15625 C 17.171875 26.128906 17.914063 26.011719 18.628906 25.824219 L 18.300781 24.597656 C 19.832031 24.191406 21.203125 23.382813 22.292969 22.292969 L 23.1875 23.191406 C 23.695313 22.679688 24.152344 22.117188 24.542969 21.511719 L 24.976563 21.761719 C 24.5625 22.40625 24.082031 23.003906 23.539063 23.542969 Z M 25.480469 20.894531 L 25.046875 20.644531 C 25.371094 20.011719 25.632813 19.339844 25.820313 18.636719 L 24.597656 18.308594 C 24.792969 17.570313 24.898438 16.800781 24.898438 16 C 24.898438 15.203125 24.796875 14.429688 24.597656 13.695313 L 25.820313 13.367188 C 25.632813 12.664063 25.371094 11.988281 25.046875 11.355469 L 25.480469 11.105469 C 25.828125 11.777344 26.105469 12.492188 26.304688 13.238281 C 26.539063 14.117188 26.664063 15.046875 26.664063 16 C 26.664063 16.957031 26.539063 17.882813 26.304688 18.765625 C 26.105469 19.511719 25.824219 20.222656 25.480469 20.894531 Z"/></svg>