<svg xmlns="http://www.w3.org/2000/svg" viewBox="0 0 32 32"><path d="M 16 2 C 15.496094 2 15.003906 2.183594 14.625 2.5625 L 11.8125 5.40625 C 11.660156 5.488281 11.53125 5.605469 11.4375 5.75 L 2.5625 14.625 C 1.804688 15.378906 1.804688 16.617188 2.5625 17.375 L 14.625 29.4375 C 15.382813 30.191406 16.617188 30.191406 17.375 29.4375 L 29.4375 17.375 C 30.195313 16.621094 30.195313 15.382813 29.4375 14.625 L 17.375 2.5625 C 16.996094 2.183594 16.503906 2 16 2 Z M 16 4.03125 L 27.96875 16 L 16 27.96875 L 4.03125 16 L 12.3125 7.71875 L 14.0625 9.46875 C 14.015625 9.636719 14 9.816406 14 10 C 14 10.738281 14.402344 11.371094 15 11.71875 L 15 20.28125 C 14.402344 20.628906 14 21.261719 14 22 C 14 23.105469 14.894531 24 16 24 C 17.105469 24 18 23.105469 18 22 C 18 21.261719 17.597656 20.628906 17 20.28125 L 17 12.4375 L 20.0625 15.5 C 20.019531 15.660156 20 15.828125 20 16 C 20 17.105469 20.894531 18 22 18 C 23.105469 18 24 17.105469 24 16 C 24 14.894531 23.105469 14 22 14 C 21.828125 14 21.660156 14.019531 21.5 14.0625 L 17.9375 10.5 C 17.980469 10.339844 18 10.171875 18 10 C 18 8.894531 17.105469 8 16 8 C 15.816406 8 15.636719 8.015625 15.46875 8.0625 L 13.71875 6.3125 Z"/></svg>