<svg xmlns="http://www.w3.org/2000/svg" viewBox="0 0 32 32"><path d="M 21.119141 5.0019531 C 20.911766 4.9825469 20.701766 5.0924219 20.603516 5.2949219 C 20.481516 5.5469219 20.577406 5.8533281 20.816406 5.9863281 C 23.881406 7.7063281 25.957031 11.019172 25.957031 14.826172 C 25.957031 19.095172 23.342484 22.746609 19.646484 24.224609 L 19.646484 20.005859 C 20.287484 19.799859 20.771484 19.195656 20.771484 18.472656 C 20.771484 17.873656 20.464234 17.356172 19.990234 17.076172 C 20.365234 13.438172 21.998047 14.396281 21.998047 13.238281 L 21.998047 12.564453 C 21.998047 10.825453 18.030781 5.1612969 16.175781 5.0292969 C 16.062781 5.0202969 15.949031 5.0202969 15.832031 5.0292969 C 13.972031 5.1662969 10.005859 10.826453 10.005859 12.564453 L 10.005859 13.242188 C 10.005859 14.400187 11.645625 13.438078 12.015625 17.080078 C 11.537625 17.359078 11.234375 17.876562 11.234375 18.476562 C 11.234375 19.199562 11.712516 19.803766 12.353516 20.009766 L 12.353516 24.228516 C 8.6565156 22.755516 6.0429688 19.104078 6.0429688 14.830078 C 6.0429688 11.028078 8.1185937 7.7152344 11.183594 5.9902344 C 11.427594 5.8532344 11.518484 5.5508281 11.396484 5.2988281 C 11.265484 5.0288281 10.939734 4.9243125 10.677734 5.0703125 C 7.2927344 6.9703125 5 10.629078 5 14.830078 C 5 20.078078 8.574625 24.477016 13.390625 25.666016 L 13.390625 20.90625 C 13.733625 21.02025 14.073688 21.117406 14.429688 21.191406 L 14.429688 26.851562 C 8.5706875 26.074563 4.0371094 20.989078 4.0371094 14.830078 C 4.0371094 13.329078 4.3087813 11.8895 4.8007812 10.5625 C 4.8997813 10.2975 4.7745781 10.004531 4.5175781 9.8945312 C 4.2465781 9.7755313 3.9301719 9.9113125 3.8261719 10.195312 C 3.2931719 11.636313 3 13.196078 3 14.830078 C 3 21.927078 8.5346563 27.716 15.472656 28 L 15.472656 21.324219 C 15.779656 21.342219 16.148344 21.347219 16.527344 21.324219 L 16.527344 27.994141 C 23.465344 27.715141 29 21.927078 29 14.830078 C 29 13.196078 28.706828 11.637406 28.173828 10.191406 C 28.069828 9.9124063 27.753422 9.7696719 27.482422 9.8886719 C 27.225422 9.9986719 27.099219 10.295641 27.199219 10.556641 C 27.691219 11.883641 27.962891 13.325172 27.962891 14.826172 C 27.962891 20.985172 23.434312 26.069656 17.570312 26.847656 L 17.570312 21.1875 C 17.927312 21.1185 18.271375 21.021344 18.609375 20.902344 L 18.609375 25.662109 C 23.425375 24.477109 27 20.075172 27 14.826172 C 27 10.625172 24.707266 6.9654062 21.322266 5.0664062 C 21.258016 5.0299062 21.188266 5.0084219 21.119141 5.0019531 z M 12.845703 17.390625 C 13.436703 17.390625 13.914062 17.875609 13.914062 18.474609 C 13.914062 19.068609 13.441703 19.558594 12.845703 19.558594 C 12.249703 19.558594 11.775391 19.068609 11.775391 18.474609 C 11.775391 17.880609 12.249703 17.390625 12.845703 17.390625 z M 19.154297 17.392578 C 19.741297 17.392578 20.224609 17.872563 20.224609 18.476562 C 20.224609 19.075563 19.746297 19.560547 19.154297 19.560547 C 18.567297 19.560547 18.085938 19.080563 18.085938 18.476562 C 18.085938 17.877562 18.563297 17.392578 19.154297 17.392578 z"/></svg>