<svg xmlns="http://www.w3.org/2000/svg" viewBox="0 0 32 32"><path d="M 5 5 L 5 27 L 27 27 L 27 5 L 5 5 z M 7 7 L 25 7 L 25 25 L 7 25 L 7 7 z M 15.5 9 C 13.019 9 11 11.243 11 14 C 11 16.757 13.019 19 15.5 19 C 16.921 19 18.175 18.249516 19 17.103516 L 19 18.5 C 19 20.43 17.43 22 15.5 22 C 14.109 22 12.915563 21.178 12.351562 20 L 11.275391 20 C 11.896391 21.742 13.547 23 15.5 23 C 17.981 23 20 20.981 20 18.5 L 20 10 L 19 10 L 19 10.896484 C 18.175 9.7504844 16.921 9 15.5 9 z M 15.5 10 C 17.43 10 19 11.794 19 14 C 19 16.206 17.43 18 15.5 18 C 13.57 18 12 16.206 12 14 C 12 11.794 13.57 10 15.5 10 z"/></svg>