<svg xmlns="http://www.w3.org/2000/svg" viewBox="0 0 32 32"><path d="M 11 7 C 6.027344 7 2 11.027344 2 16 C 2 20.972656 6.027344 25 11 25 C 15.972656 25 20 20.972656 20 16 C 20 15.382813 19.933594 14.78125 19.8125 14.199219 L 19.765625 14 L 11 14 L 11 17 L 17 17 C 16.523438 19.835938 13.972656 22 11 22 C 7.6875 22 5 19.3125 5 16 C 5 12.6875 7.6875 10 11 10 C 12.5 10 13.867188 10.554688 14.921875 11.464844 L 17.070313 9.359375 C 15.46875 7.894531 13.339844 7 11 7 Z M 25 11 L 25 14 L 22 14 L 22 16 L 25 16 L 25 19 L 27 19 L 27 16 L 30 16 L 30 14 L 27 14 L 27 11 Z"/></svg>