<svg xmlns="http://www.w3.org/2000/svg" viewBox="0 0 32 32"><path d="M 16 3 C 8.832 3 3 8.832 3 16 C 3 23.168 8.832 29 16 29 C 23.168 29 29 23.168 29 16 C 29 8.832 23.168 3 16 3 z M 16 5 C 22.065 5 27 9.935 27 16 C 27 22.065 22.065 27 16 27 C 9.935 27 5 22.065 5 16 C 5 9.935 9.935 5 16 5 z M 15.890625 7.0195312 C 15.625875 7.0242813 15.346687 7.1704531 15.179688 7.5019531 C 15.183687 7.4939531 15.193266 7.4844687 15.197266 7.4804688 C 14.986266 7.9834688 15.408922 9.9650625 16.169922 11.289062 C 16.063922 11.348062 15.997031 11.405312 15.832031 11.570312 C 14.919031 11.980313 13.455078 14.121094 13.455078 14.121094 C 12.263078 14.578094 10.191703 15.941203 10.470703 17.158203 C 10.483703 17.285203 10.529656 17.390609 10.597656 17.474609 C 10.479656 17.567609 10.364094 17.686172 10.246094 17.826172 C 9.7430937 18.410172 10.022141 19.313422 10.994141 18.857422 C 11.662141 18.553422 12.246297 18.003266 12.529297 17.572266 C 12.529297 17.572266 12.297797 17.361719 11.841797 17.386719 C 13.012797 17.107719 13.306922 17.278937 13.794922 17.335938 C 14.132922 17.500937 14.132812 15.884766 14.132812 15.884766 C 14.132812 15.262766 14.040062 14.574859 13.664062 14.130859 C 14.193062 14.646859 14.893656 15.512406 14.847656 16.691406 C 14.813656 17.465406 14.205078 17.664062 14.205078 17.664062 C 13.820078 18.366062 12.377922 20.451484 12.919922 22.146484 C 12.919922 22.146484 12.509281 21.517891 12.488281 21.212891 C 11.752281 22.032891 10.523219 23.424453 11.449219 23.939453 C 12.574219 24.561453 16.050156 20.192875 16.785156 17.921875 C 18.248156 17.041875 19.127328 15.922828 19.486328 15.173828 C 20.414328 17.014828 23.696406 18.913109 23.941406 17.412109 C 24.047406 16.731109 23.087 16.709219 22.875 16.324219 C 22.3 15.305219 21.522672 15.025875 20.388672 15.296875 C 20.879672 14.958875 21.382812 15.039063 21.382812 15.039062 C 21.395813 14.768062 21.383328 14.489328 20.986328 13.986328 C 21.151328 13.457328 20.998047 13.039063 20.998047 13.039062 C 21.653047 12.675062 22.131516 12.007891 22.228516 11.212891 C 22.380516 9.9018906 21.434047 8.7096406 20.123047 8.5566406 C 19.188047 8.4506406 18.274172 8.8815781 17.826172 9.6425781 C 16.845172 11.338578 17.885437 12.641937 18.773438 13.085938 C 18.164438 13.026938 17.324125 12.581766 17.078125 11.634766 C 16.837125 10.695766 17.10075 9.8075781 17.34375 9.2675781 C 17.34375 9.2675781 16.799484 8.8136406 16.646484 8.6816406 C 16.646484 8.6816406 16.061469 8.68225 15.605469 8.90625 C 16.108469 8.26325 16.671875 8.296875 16.671875 8.296875 C 16.671875 8.025875 16.646531 7.6677656 16.519531 7.3847656 C 16.405531 7.1522656 16.155375 7.0147812 15.890625 7.0195312 z M 19.470703 9.2929688 C 19.887828 9.3379687 20.291313 9.6097344 20.695312 9.9902344 C 21.198313 10.468234 21.933875 11.042344 21.421875 12.027344 C 20.892875 13.021344 19.515922 13.431937 18.669922 12.835938 C 17.828922 12.226938 17.240016 11.008078 18.166016 9.9550781 C 18.622516 9.4285781 19.053578 9.2479688 19.470703 9.2929688 z M 20.378906 10.828125 C 20.064469 10.869 19.78375 11.343016 20.03125 11.634766 C 20.34325 12.015766 21.387547 11.736125 20.685547 10.953125 C 20.591547 10.847375 20.483719 10.8145 20.378906 10.828125 z M 17.179688 13.410156 C 17.307063 13.410156 17.435656 13.457781 17.535156 13.550781 L 17.980469 14.007812 C 18.166469 14.193812 18.166469 14.509313 17.980469 14.695312 L 17.570312 15.105469 C 17.384313 15.304469 17.066187 15.304469 16.867188 15.105469 L 16.423828 14.662109 C 16.237828 14.463109 16.237828 14.159937 16.423828 13.960938 L 16.833984 13.550781 C 16.926984 13.457781 17.052312 13.410156 17.179688 13.410156 z"/></svg>