<svg xmlns="http://www.w3.org/2000/svg" viewBox="0 0 32 32"><path d="M 17.119141 3.0039062 C 15.622141 3.5319063 15.245766 4.3373594 15.134766 5.0683594 C 14.748766 4.7943594 14.794531 3.8969687 14.769531 3.6679688 C 14.388531 3.7139687 13.288844 4.7791406 13.339844 6.1191406 C 13.237844 6.1441406 13.140062 6.1750781 13.039062 6.2050781 C 12.709062 5.7580781 11.766203 4.6069375 10.533203 4.2109375 C 10.131203 4.0969375 9.7193594 4.0292969 9.3183594 4.0292969 C 7.8463594 4.0292969 6.97875 4.9079687 6.96875 4.9179688 L 6.5585938 5.3945312 L 7.1816406 5.5175781 C 7.1916406 5.5175781 8.2272969 5.7351562 8.6542969 6.4101562 C 8.7252969 6.5221563 8.744625 6.7444219 8.765625 6.9824219 C 8.775625 7.1244219 8.7467031 7.2625313 8.7207031 7.3945312 C 8.7007031 7.4905313 8.6788281 7.5923594 8.6738281 7.6933594 C 8.2828281 7.7103594 7.9525938 7.7868281 7.6835938 7.9238281 C 7.3185937 8.1118281 7.06975 8.4091563 6.96875 8.7851562 C 6.71475 9.7091562 7.5373594 10.740391 7.5683594 10.775391 C 7.6643594 10.948391 7.7054219 12.186594 7.4824219 12.683594 C 7.4524219 12.754594 7.3696719 12.82025 7.2636719 12.90625 C 7.2276719 12.93125 7.1933438 12.962188 7.1523438 12.992188 C 6.8423438 13.225188 6.3691406 13.585344 6.3691406 14.402344 C 6.3691406 15.524344 7.5069219 16.134094 8.4199219 16.621094 C 8.5719219 16.702094 8.7147969 16.777516 8.8417969 16.853516 C 8.9787969 16.934516 9.4609375 17.433688 9.4609375 18.179688 C 9.4609375 18.529688 9.4294844 20.193703 9.2714844 21.345703 C 8.6824844 20.843703 8.1444375 20.032047 8.0234375 19.123047 C 8.0234375 19.123047 6.5415156 20.270797 6.9785156 22.716797 C 7.2425156 24.213797 8.1552813 25.056188 9.3632812 25.492188 C 9.8102812 26.461188 10.855297 27.811766 12.779297 28.009766 C 13.510297 28.608766 14.525812 28.998047 16.007812 28.998047 L 16.017578 28.998047 C 17.494578 28.998047 18.510094 28.608766 19.246094 28.009766 C 21.169094 27.811766 22.215109 26.461188 22.662109 25.492188 C 23.870109 25.050187 24.777875 24.213797 25.046875 22.716797 C 25.462875 20.261797 23.976563 19.119141 23.976562 19.119141 C 23.854563 20.027141 23.316516 20.834891 22.728516 21.337891 C 22.571516 20.185891 22.539062 18.519922 22.539062 18.169922 C 22.539062 17.423922 23.021203 16.927703 23.158203 16.845703 C 23.285203 16.769703 23.433078 16.692328 23.580078 16.611328 C 24.494078 16.124328 25.630859 15.516531 25.630859 14.394531 C 25.630859 13.572531 25.157656 13.216422 24.847656 12.982422 C 24.806656 12.952422 24.772328 12.926484 24.736328 12.896484 C 24.629328 12.810484 24.547578 12.744828 24.517578 12.673828 C 24.294578 12.176828 24.334641 10.937625 24.431641 10.765625 C 24.461641 10.735625 25.28025 9.7053437 25.03125 8.7773438 C 24.92925 8.4013438 24.680453 8.1020625 24.314453 7.9140625 C 24.045453 7.7770625 23.710219 7.7005469 23.324219 7.6855469 C 23.319219 7.5835469 23.300297 7.4877187 23.279297 7.3867188 C 23.249297 7.2547188 23.222422 7.1185625 23.232422 6.9765625 C 23.252422 6.7375625 23.274703 6.5183437 23.345703 6.4023438 C 23.771703 5.7273438 24.806406 5.5097656 24.816406 5.5097656 L 25.441406 5.3886719 L 25.029297 4.90625 C 25.024297 4.89625 24.151688 4.0175781 22.679688 4.0175781 C 22.278688 4.0175781 21.868031 4.0847969 21.457031 4.2167969 C 20.229031 4.6127969 19.279219 5.7639375 18.949219 6.2109375 C 18.792219 6.1599375 18.629891 6.1152188 18.462891 6.0742188 C 18.249891 5.2722188 18.919922 4.1191406 18.919922 4.1191406 C 18.919922 4.1191406 18.230938 3.967625 17.210938 4.890625 C 17.078937 4.560625 16.799141 3.8519063 17.119141 3.0039062 z M 9.328125 4.7929688 C 9.638125 4.7929688 9.9375625 4.8386875 10.226562 4.9296875 C 11.129563 5.2236875 11.831625 6.1065938 12.140625 6.5585938 C 12.059625 6.5945937 11.978484 6.6289219 11.896484 6.6699219 C 11.769484 6.7309219 11.646156 6.7964219 11.535156 6.8574219 C 11.403156 6.5834219 11.114375 6.1627031 10.484375 5.7207031 C 10.063375 5.4267031 9.5614375 5.2695312 9.0234375 5.2695312 C 8.8524375 5.2745312 8.6884062 5.2944531 8.5664062 5.3144531 C 8.3994063 5.2034531 8.2312188 5.1109219 8.0742188 5.0449219 C 8.3182188 4.9439219 8.769125 4.7929688 9.328125 4.7929688 z M 22.666016 4.7929688 C 23.224016 4.7929688 23.675922 4.944875 23.919922 5.046875 C 23.762922 5.117875 23.594734 5.2074531 23.427734 5.3144531 C 23.305734 5.2944531 23.143937 5.2734375 22.960938 5.2734375 C 22.427937 5.2734375 21.920906 5.4315625 21.503906 5.7265625 C 20.879906 6.1685625 20.590125 6.5842812 20.453125 6.8632812 C 20.341125 6.7972813 20.22575 6.7367812 20.09375 6.6757812 C 20.01275 6.6347812 19.935516 6.5985 19.853516 6.5625 C 20.163516 6.1005 20.864578 5.2186875 21.767578 4.9296875 C 22.051578 4.8386875 22.357016 4.7929688 22.666016 4.7929688 z M 22.833984 5.8515625 C 22.792984 5.9025625 22.752797 5.9586719 22.716797 6.0136719 C 22.549797 6.2776719 22.519141 6.6039688 22.494141 6.9179688 C 22.469141 7.2429688 22.438484 7.5502969 22.271484 7.7792969 C 22.058484 7.8202969 21.8605 7.8669687 21.6875 7.9179688 C 21.5705 7.7609687 21.403297 7.5626094 21.154297 7.3496094 C 21.225297 7.1056094 21.433844 6.5320312 21.839844 6.2070312 C 22.123844 5.9890312 22.457984 5.8665625 22.833984 5.8515625 z M 9.1601562 5.8574219 C 9.5361562 5.8724219 9.8713906 5.9898906 10.150391 6.2128906 C 10.556391 6.5328906 10.764938 7.1066094 10.835938 7.3496094 C 10.586937 7.5626094 10.414734 7.7559688 10.302734 7.9179688 C 10.129734 7.8719687 9.93275 7.8202969 9.71875 7.7792969 C 9.55175 7.5562969 9.5279531 7.2488281 9.5019531 6.9238281 C 9.4769531 6.6088281 9.4443438 6.2835312 9.2773438 6.0195312 C 9.2413438 5.9635313 9.2011563 5.9084219 9.1601562 5.8574219 z M 15.996094 6.6503906 C 17.412094 6.6503906 18.681578 6.920125 19.767578 7.453125 C 20.488578 7.803125 20.762281 8.07175 20.863281 8.21875 C 19.137281 8.98475 18.179922 10.563125 18.169922 10.578125 L 17.990234 10.873047 L 18.275391 10.675781 C 18.275391 10.675781 18.284922 10.670156 18.294922 10.660156 C 18.736922 10.315156 20.274828 9.1470938 21.548828 8.7460938 C 21.903828 8.6340937 22.59375 8.4414062 23.21875 8.4414062 C 23.53875 8.4414062 23.791375 8.4938437 23.984375 8.5898438 C 24.162375 8.6808437 24.273219 8.811375 24.324219 8.984375 C 24.451219 9.446375 24.014656 10.132938 23.847656 10.335938 C 23.822656 10.365937 23.80125 10.401266 23.78125 10.447266 C 23.76625 10.214266 23.755625 9.9657969 23.765625 9.7167969 C 23.562625 10.163797 23.436813 11.315437 23.507812 11.898438 C 23.690812 13.385438 24.304688 14.146484 24.304688 14.146484 C 24.263687 14.065484 24.213969 13.755625 24.167969 13.390625 C 24.203969 13.420625 24.243297 13.450469 24.279297 13.480469 L 24.304688 13.501953 C 24.537688 13.689953 24.755859 13.861781 24.755859 14.425781 C 24.755859 15.146781 23.973656 15.566656 23.222656 15.972656 C 23.075656 16.048656 22.933875 16.129078 22.796875 16.205078 C 22.354875 16.459078 21.883125 17.053406 21.828125 17.941406 C 21.782125 18.682406 21.874953 20.474922 22.001953 21.794922 C 21.372953 22.038922 20.646328 22.118672 19.986328 22.138672 C 19.884328 21.930672 19.788031 21.708609 19.707031 21.474609 C 19.671031 21.372609 18.712187 18.880406 18.367188 18.316406 C 18.646187 20.295406 19.255547 22.056281 19.560547 22.863281 C 19.382547 22.838281 19.190797 22.828125 18.966797 22.828125 L 13.027344 22.828125 C 12.804344 22.828125 12.606594 22.842281 12.433594 22.863281 C 12.738594 22.056281 13.352953 20.295406 13.626953 18.316406 C 13.281953 18.884406 12.323109 21.377609 12.287109 21.474609 C 12.206109 21.707609 12.108813 21.930672 12.007812 22.138672 C 11.347812 22.118672 10.627187 22.037922 9.9921875 21.794922 C 10.119188 20.474922 10.211016 18.687406 10.166016 17.941406 C 10.120016 17.057406 9.6421719 16.458078 9.2011719 16.205078 C 9.0641719 16.124078 8.9173906 16.048656 8.7753906 15.972656 C 8.0193906 15.566656 7.2421875 15.146781 7.2421875 14.425781 C 7.2421875 13.862781 7.4613125 13.684953 7.6953125 13.501953 L 7.7207031 13.480469 C 7.7567031 13.450469 7.7910313 13.420625 7.8320312 13.390625 C 7.7860312 13.755625 7.7363125 14.065484 7.6953125 14.146484 C 7.6953125 14.146484 8.3091875 13.385438 8.4921875 11.898438 C 8.5631875 11.314438 8.4354219 10.157797 8.2324219 9.7167969 C 8.2424219 9.9657969 8.23375 10.213266 8.21875 10.447266 C 8.19875 10.406266 8.1773437 10.366937 8.1523438 10.335938 C 7.9903438 10.132938 7.5537812 9.446375 7.6757812 8.984375 C 7.7217813 8.806375 7.832625 8.6808438 8.015625 8.5898438 C 8.208625 8.4938437 8.46225 8.4414063 8.78125 8.4414062 C 9.40525 8.4414062 10.095172 8.6290938 10.451172 8.7460938 C 11.725172 9.1520938 13.262125 10.315156 13.703125 10.660156 C 13.713125 10.670156 13.724609 10.675781 13.724609 10.675781 L 14.007812 10.873047 L 13.830078 10.578125 C 13.820078 10.563125 12.861859 8.98475 11.130859 8.21875 C 11.232859 8.07175 11.506563 7.808125 12.226562 7.453125 C 13.312563 6.920125 14.585094 6.6503906 15.996094 6.6503906 z M 14.609375 11.638672 C 14.611375 11.638672 15.348188 12.531016 15.992188 12.541016 L 16.001953 12.541016 C 16.646953 12.536016 17.382813 11.638672 17.382812 11.638672 C 16.880813 11.943672 16.428094 12.048594 15.996094 12.058594 C 15.565094 12.048594 15.112375 11.942672 14.609375 11.638672 z M 9.8144531 11.703125 C 9.5652793 11.708824 9.3066875 11.739937 9.0390625 11.804688 C 9.255926 11.855422 9.488908 11.928276 9.7207031 12.013672 C 9.5067031 12.115672 9.3892813 12.373094 9.3632812 12.621094 C 9.3072813 13.129094 9.6289062 13.591797 9.6289062 13.591797 C 9.6649062 13.210797 9.7390781 12.940047 9.8300781 12.748047 C 9.8500781 13.271047 9.9924688 13.942469 10.480469 14.480469 C 10.830469 14.866469 12.288578 15.662063 13.267578 14.789062 C 13.318578 14.911062 13.374922 15.058703 13.419922 15.220703 C 13.566922 15.743703 13.28125 16.505859 13.28125 16.505859 C 13.28125 16.505859 14.047328 15.636469 13.986328 14.855469 C 14.534328 14.830469 15.073594 14.429234 15.058594 13.865234 C 15.058594 13.865234 14.098859 14.394922 13.255859 13.419922 C 12.825359 12.922922 11.55867 11.66323 9.8144531 11.703125 z M 22.177734 11.712891 C 20.430646 11.672818 19.168781 12.931812 18.738281 13.429688 C 17.890281 14.403688 16.935547 13.876953 16.935547 13.876953 C 16.925547 14.429953 17.463719 14.834469 18.011719 14.855469 C 17.950719 15.642469 18.716797 16.505859 18.716797 16.505859 C 18.716797 16.505859 18.433078 15.743703 18.580078 15.220703 C 18.626078 15.058703 18.682422 14.915063 18.732422 14.789062 C 19.712422 15.667063 21.168672 14.866469 21.513672 14.480469 C 22.000672 13.942469 22.136109 13.271047 22.162109 12.748047 C 22.253109 12.941047 22.335234 13.211797 22.365234 13.591797 C 22.365234 13.591797 22.691859 13.128094 22.630859 12.621094 C 22.600859 12.367094 22.483391 12.114438 22.275391 12.023438 L 22.269531 12.023438 C 22.502531 11.932438 22.737078 11.860453 22.955078 11.814453 C 22.686703 11.749703 22.427318 11.718615 22.177734 11.712891 z M 10.800781 12.53125 C 11.790781 13.08925 12.699078 13.834203 13.080078 14.408203 C 12.791078 14.575203 11.978391 14.936266 11.150391 14.322266 C 10.627391 13.936266 10.652781 12.99325 10.800781 12.53125 z M 21.193359 12.53125 C 21.345359 12.99325 21.367844 13.937125 20.839844 14.328125 C 20.012844 14.942125 19.205016 14.581203 18.916016 14.408203 C 19.296016 13.829203 20.204359 13.08925 21.193359 12.53125 z M 7.8300781 20.550781 C 8.3830781 22.296781 10.226422 22.797516 11.607422 22.853516 C 11.470422 23.066516 11.342953 23.239328 11.251953 23.361328 L 11.181641 23.433594 C 10.816641 23.829594 10.744656 24.371875 10.972656 25.046875 C 9.8206563 25.040875 8.6235313 24.548828 8.0195312 23.548828 C 7.4055313 22.533828 7.5760781 20.803781 7.8300781 20.550781 z M 24.169922 20.554688 C 24.422922 20.809687 24.595563 22.538828 23.976562 23.548828 C 23.367562 24.548828 22.169344 25.036641 21.027344 25.056641 C 21.255344 24.381641 21.183359 23.832406 20.818359 23.441406 C 20.798359 23.416406 20.773047 23.390234 20.748047 23.365234 C 20.657047 23.243234 20.529578 23.071422 20.392578 22.857422 C 21.772578 22.796422 23.616922 22.300687 24.169922 20.554688 z M 12.982422 23.478516 L 19.011719 23.478516 C 19.777719 23.478516 20.117766 23.67675 20.259766 23.84375 C 20.472766 24.08775 20.486687 24.482625 20.304688 25.015625 C 19.970688 25.969625 19.072094 28.295781 15.996094 28.300781 C 12.920094 28.295781 12.0225 25.975625 11.6875 25.015625 C 11.4995 24.482625 11.515375 24.09175 11.734375 23.84375 C 11.881375 23.67675 12.216422 23.478516 12.982422 23.478516 z M 17.632812 24.25 C 17.419812 24.25 17.266687 24.295719 17.179688 24.386719 C 17.067688 24.503719 17.104766 24.650562 17.134766 24.726562 C 17.185766 24.858563 17.413922 25.300031 17.794922 25.707031 C 17.931922 25.854031 18.128563 25.935547 18.351562 25.935547 C 18.574562 25.935547 18.794172 25.854656 18.951172 25.722656 C 19.068172 25.620656 19.469484 25.254734 19.646484 24.802734 C 19.712484 24.635734 19.696609 24.498344 19.599609 24.402344 C 19.534609 24.336344 19.397047 24.255 19.123047 24.25 L 17.632812 24.25 z M 12.880859 24.255859 C 12.601859 24.255859 12.464438 24.336344 12.398438 24.402344 C 12.302437 24.504344 12.287516 24.6405 12.353516 24.8125 C 12.531516 25.2745 12.932828 25.650812 13.048828 25.757812 C 13.205828 25.894813 13.428484 25.974609 13.646484 25.974609 C 13.869484 25.974609 14.068078 25.889187 14.205078 25.742188 C 14.586078 25.326187 14.809234 24.873328 14.865234 24.736328 C 14.895234 24.660328 14.930359 24.509578 14.818359 24.392578 C 14.728359 24.300578 14.581047 24.255859 14.373047 24.255859 L 12.880859 24.255859 z M 10.339844 25.757812 C 10.644844 25.813813 10.958203 25.852906 11.283203 25.878906 C 11.461203 26.284906 11.65825 26.685781 11.90625 27.050781 C 11.17525 26.751781 10.669844 26.239812 10.339844 25.757812 z M 21.65625 25.757812 C 21.32625 26.239813 20.818891 26.751781 20.087891 27.050781 C 20.336891 26.685781 20.535891 26.284906 20.712891 25.878906 C 21.037891 25.853906 21.35125 25.813813 21.65625 25.757812 z"/></svg>