<svg xmlns="http://www.w3.org/2000/svg" viewBox="0 0 32 32"><path d="M 16 3 C 14.321849 3 12.887833 4.0417948 12.294922 5.5097656 C 11.768292 5.1922818 11.158512 5 10.5 5 C 8.57 5 7 6.57 7 8.5 L 7 15 L 7 17 L 5.5 17 C 4.121 17 3 18.121 3 19.5 C 3 20.184 3.2734844 20.822781 3.7714844 21.300781 L 8.7226562 26.060547 C 10.691656 27.956547 13.276 29 16 29 C 18.724 29 21.307391 27.956547 23.275391 26.060547 L 28.230469 21.300781 C 28.727469 20.822781 29 20.184 29 19.5 C 29 18.121 27.879 17 26.5 17 L 25 17 L 25 15 L 25 8.5 C 25 6.57 23.43 5 21.5 5 C 20.841488 5 20.231708 5.1922818 19.705078 5.5097656 C 19.112167 4.0417948 17.678151 3 16 3 z M 16 5 C 17.103 5 18 5.897 18 7 L 18 15 L 20 15 L 20 8.5 C 20 7.673 20.673 7 21.5 7 C 22.327 7 23 7.673 23 8.5 L 23 15 L 23 18 L 23 19 L 26.5 19 C 26.775 19 27 19.225 27 19.5 C 27 19.682 26.902703 19.804375 26.845703 19.859375 L 21.890625 24.617188 C 20.294625 26.153187 18.203 27 16 27 C 13.797 27 11.704422 26.153187 10.107422 24.617188 L 5.15625 19.859375 C 5.09825 19.804375 5 19.682 5 19.5 C 5 19.225 5.225 19 5.5 19 L 9 19 L 9 18 L 9 15 L 9 8.5 C 9 7.673 9.673 7 10.5 7 C 11.327 7 12 7.673 12 8.5 L 12 15 L 14 15 L 14 8.5 L 14 7 C 14 5.897 14.897 5 16 5 z M 16 17 C 12.505 17 10.261969 20.305312 10.167969 20.445312 L 9.7988281 21 L 10.167969 21.554688 C 10.261969 21.694688 12.505 25 16 25 C 19.495 25 21.738031 21.694688 21.832031 21.554688 L 22.201172 21 L 21.832031 20.445312 C 21.738031 20.305312 19.495 17 16 17 z M 16 19 C 17.697 19 19.058609 20.248 19.724609 21 C 19.057609 21.752 17.695 23 16 23 C 14.303 23 12.941391 21.752 12.275391 21 C 12.942391 20.248 14.305 19 16 19 z M 16 20 A 1 1 0 0 0 16 22 A 1 1 0 0 0 16 20 z"/></svg>