<svg xmlns="http://www.w3.org/2000/svg" viewBox="0 0 32 32"><path d="M 21 3.03125 L 20.34375 3.75 C 18.875 5.367188 17.664063 6.089844 16.65625 6.5625 C 15.648438 7.035156 14.800781 7.175781 13.96875 7.8125 C 13.082031 8.492188 11.792969 9.796875 11.25 12.125 C 10.085938 12.378906 9.234375 12.824219 8.5625 13.40625 C 7.898438 13.980469 7.398438 14.632813 6.78125 15.34375 C 6.777344 15.351563 6.785156 15.367188 6.78125 15.375 C 5.898438 16.390625 5.125 17.484375 3.625 18.0625 L 3 18.3125 L 3 29 L 22.0625 29 C 23.15625 28.941406 23.914063 28.183594 24.375 27.4375 C 24.835938 26.691406 25.089844 25.882813 25.21875 25.21875 C 25.550781 23.527344 26.15625 18.65625 26.15625 18.65625 L 26.1875 18.5625 L 26.1875 18.46875 C 26.15625 17.792969 25.878906 17.21875 25.53125 16.6875 L 26.65625 13.34375 L 28.4375 10.65625 L 28.9375 9.9375 L 28.28125 9.34375 L 21.71875 3.65625 Z M 21.0625 5.78125 L 26.28125 10.3125 L 24.90625 12.34375 L 24.8125 12.4375 L 24.78125 12.59375 L 23.875 15.28125 C 23.402344 15.085938 22.914063 14.949219 22.375 14.96875 L 22.3125 14.96875 L 16 15 L 15 15 L 15 18.875 C 14.859375 19.964844 14.253906 20.386719 13.5 20.6875 C 13.25 20.789063 13.21875 20.734375 13 20.78125 L 13 14.96875 C 12.835938 11.261719 14.15625 10.195313 15.1875 9.40625 C 15.472656 9.1875 16.308594 8.933594 17.5 8.375 C 18.496094 7.90625 19.734375 7.066406 21.0625 5.78125 Z M 11.0625 14.375 C 11.058594 14.601563 10.988281 14.761719 11 15 C 11 15.011719 11 15.019531 11 15.03125 L 11 23 L 12 23 C 12 23 13.070313 22.988281 14.21875 22.53125 C 15.367188 22.074219 16.753906 21.003906 17 19.125 L 17 17 L 22.375 16.96875 L 22.40625 16.96875 C 23.328125 16.917969 24.09375 17.617188 24.15625 18.53125 C 24.152344 18.546875 24.105469 18.917969 24.09375 19 L 20 19 L 20 21 L 23.84375 21 C 23.738281 21.773438 23.640625 22.257813 23.53125 23 L 20 23 L 20 25 L 23.21875 25 C 23.113281 25.445313 22.902344 25.976563 22.65625 26.375 C 22.382813 26.820313 22.148438 26.988281 21.9375 27 L 5 27 L 5 19.53125 C 6.621094 18.671875 7.628906 17.433594 8.28125 16.6875 C 8.957031 15.914063 9.421875 15.328125 9.875 14.9375 C 10.171875 14.683594 10.636719 14.539063 11.0625 14.375 Z"/></svg>