<svg xmlns="http://www.w3.org/2000/svg" viewBox="0 0 32 32"><path d="M 16.160156 4.0039062 C 15.942766 3.9920313 15.723406 4.0033125 15.503906 4.0390625 C 14.076906 4.2710625 13 5.5914219 13 7.1074219 L 13 9 L 9.1367188 9 C 5.358617 9 2.2647575 12.130065 2.0234375 16.070312 L 2 16 L 1 21 L 2.3066406 19.693359 C 2.4961367 20.92762 2.7538066 22.225845 3.0292969 23.242188 L 4.21875 28 L 9 28 L 9 24.552734 C 9.739 24.801734 10.627 25 11.5 25 C 11.89 25 12.918 24.961422 14 24.607422 L 14 28 L 18.78125 28 L 19.943359 23.330078 C 19.976359 23.235078 20.700172 21.124 20.951172 17 L 26 17 C 28.206 17 30 15.206 30 13 L 30 10.822266 C 30 8.5722656 28.418297 7.0019531 26.154297 7.0019531 C 24.863297 7.0019531 23.881375 7.3409688 23.234375 7.6679688 C 22.529375 6.9299688 21.204 6 19 6 L 18.828125 6 C 18.653125 5.506 18.351406 5.0628437 17.941406 4.7148438 C 17.438156 4.2865938 16.812328 4.0395312 16.160156 4.0039062 z M 15.824219 6.0136719 C 16.128219 5.9646719 16.419484 6.0443281 16.646484 6.2363281 C 16.871484 6.4273281 17 6.706 17 7 L 17 8 L 19 8 C 21.298 8 22.080469 9.4002656 22.105469 9.4472656 L 22.685547 10.578125 L 23.65625 9.7539062 C 23.69225 9.7229063 24.561297 9.0019531 26.154297 9.0019531 C 27.310297 9.0019531 28 9.6812656 28 10.822266 L 28 13 C 28 14.103 27.103 15 26 15 L 19.039062 15 L 19.001953 15.960938 C 18.827953 20.381938 18.062297 22.650813 18.029297 22.757812 L 17.21875 26 L 16 26 L 16 21 L 14.400391 22.199219 C 13.385391 22.961219 11.806 23 11.5 23 C 10.188 23 8.8275625 22.360219 8.6015625 22.199219 L 7 20.998047 L 7 26 L 5.78125 26 L 4.9648438 22.740234 C 4.4598438 20.872234 4 17.9265 4 16.5625 C 4 13.4945 6.3047188 11 9.1367188 11 L 15 11 L 15 7.1074219 C 15 6.5694219 15.361219 6.0896719 15.824219 6.0136719 z M 20 9 A 1 1 0 0 0 20 11 A 1 1 0 0 0 20 9 z"/></svg>