<svg xmlns="http://www.w3.org/2000/svg" viewBox="0 0 32 32"><path d="M 7.9101562 5 L 7.8144531 5.8925781 C 7.7084531 6.8795781 6.8834844 7.7026406 5.8964844 7.8066406 L 5 7.8984375 L 5 24.189453 L 5.8691406 24.304688 C 6.8931406 24.438688 7.6593125 25.167156 7.8203125 26.160156 L 7.9570312 27 L 24.269531 27 L 24.34375 26.082031 C 24.42075 25.153031 25.179328 24.371578 26.111328 24.267578 L 27 24.167969 L 27 7.9492188 L 26.160156 7.8144531 C 25.171156 7.6544531 24.406734 6.8645312 24.302734 5.8945312 L 24.207031 5 L 7.9101562 5 z M 9.6035156 7 L 22.513672 7 C 22.914672 8.171 23.829 9.1145 25 9.5625 L 25 22.488281 C 23.854 22.906281 22.934969 23.848 22.542969 25 L 9.5703125 25 C 9.1253125 23.838 8.188 22.936391 7 22.525391 L 7 9.5996094 C 8.218 9.1856094 9.1865156 8.217 9.6035156 7 z M 10.275391 10 C 10.082391 10 9.8972812 10.386609 10.238281 10.474609 C 10.871281 10.640609 11.34375 10.88625 11.34375 11.78125 L 11.34375 15.859375 C 11.34375 19.220375 11.335109 20.489766 11.037109 21.009766 C 10.720109 21.424766 10.593219 21.427453 10.199219 21.564453 C 9.9752187 21.564453 9.8942188 22 10.199219 22 C 11.602219 22 10.925125 21.919922 12.328125 21.919922 C 13.711125 21.919922 13.139094 22 14.496094 22 C 14.728094 22 14.685094 21.669469 14.496094 21.605469 C 13.615094 21.299469 13.612875 21.190844 13.546875 21.089844 C 13.144875 20.461844 13.318359 17.685562 13.318359 16.476562 C 13.318359 16.262563 13.565563 15.960938 13.851562 15.960938 L 18.148438 15.960938 C 18.434438 15.960938 18.681641 16.262563 18.681641 16.476562 C 18.681641 17.685562 18.855125 20.460844 18.453125 21.089844 C 18.387125 21.194844 18.384906 21.299469 17.503906 21.605469 C 17.314906 21.670469 17.275906 22 17.503906 22 C 18.859906 22 18.287875 21.919922 19.671875 21.919922 C 21.074875 21.919922 20.397781 22 21.800781 22 C 22.102781 22 22.024781 21.564453 21.800781 21.564453 C 21.402781 21.427453 21.279891 21.420766 20.962891 21.009766 C 20.661891 20.489766 20.65625 19.220375 20.65625 15.859375 L 20.65625 11.78125 C 20.65625 10.89025 21.127719 10.639609 21.761719 10.474609 C 22.105719 10.386609 21.911656 10 21.722656 10 C 20.311656 10 20.926625 10.080078 19.515625 10.080078 C 18.252625 10.080078 18.879234 10 17.615234 10 C 17.488234 10 17.286172 10.334547 17.576172 10.435547 C 17.766172 10.500547 18.644531 10.584531 18.644531 12.019531 C 18.644531 13.856531 18.651469 14.206469 18.605469 14.730469 C 18.605469 14.783469 18.515375 15.246094 18.109375 15.246094 L 13.890625 15.246094 C 13.484625 15.246094 13.394531 14.782469 13.394531 14.730469 C 13.347531 14.207469 13.355469 13.856531 13.355469 12.019531 C 13.355469 10.584531 14.234828 10.499547 14.423828 10.435547 C 14.713828 10.334547 14.512766 10 14.384766 10 C 13.121766 10 13.746422 10.080078 12.482422 10.080078 C 11.071422 10.080078 11.686391 10 10.275391 10 z"/></svg>