<svg xmlns="http://www.w3.org/2000/svg" viewBox="0 0 32 32"><path d="M 24.21875 4 C 22.984375 4 22.253906 4.496094 21.71875 5.3125 C 21.230469 5.242188 20.761719 5.1875 20.375 5.1875 C 19.125 5.1875 18.058594 5.816406 17.3125 6.625 C 16.589844 7.40625 16.121094 8.359375 15.71875 9.3125 C 15.714844 9.316406 15.691406 9.308594 15.6875 9.3125 C 14.648438 11.265625 13.542969 13.832031 9.78125 15.59375 C 6.980469 16.914063 5.621094 18.84375 5.28125 20.75 C 4.488281 21.246094 4 21.980469 4 23.3125 C 4 25.390625 5.5 26.59375 7.375 27.125 C 8.4375 28.265625 9.859375 29 11.625 29 C 14.695313 29 18.300781 26.980469 22.625 22.5 L 22.65625 22.5 C 27.433594 17.71875 29 13.753906 29 10.9375 C 29 9.105469 28.492188 7.800781 27.53125 7.15625 C 27.808594 4.878906 25.710938 4 24.21875 4 Z M 20.375 7.1875 C 20.503906 7.1875 20.675781 7.207031 20.84375 7.21875 C 20.035156 9.496094 19.214844 12.664063 16.125 15.75 C 13.167969 18.773438 10 19.324219 7.625 19.90625 C 8.082031 19.035156 8.960938 18.191406 10.625 17.40625 C 14.949219 15.378906 16.457031 12.117188 17.4375 10.28125 C 17.460938 10.25 17.480469 10.21875 17.5 10.1875 C 17.859375 9.316406 18.292969 8.496094 18.78125 7.96875 C 19.269531 7.441406 19.746094 7.1875 20.375 7.1875 Z M 24.96875 9 C 25.472656 8.976563 26.042969 9.066406 26.71875 9.3125 C 26.859375 9.652344 27 10.164063 27 10.9375 C 27 13.007813 25.800781 16.542969 21.25 21.09375 C 21.238281 21.105469 21.230469 21.113281 21.21875 21.125 C 18.257813 24.195313 15.738281 25.851563 13.75 26.5625 C 11.417969 26.414063 8.832031 24.617188 17.875 18 C 21.535156 15.324219 21.429688 9.175781 24.96875 9 Z"/></svg>