<svg xmlns="http://www.w3.org/2000/svg" viewBox="0 0 32 32"><path d="M 27.699219 8.8125 C 30.144531 2.570313 25.398438 3.007813 25.398438 3.007813 C 22.351563 3.007813 18.542969 5.738281 18.542969 5.738281 C 18.542969 5.738281 14 4.53125 9.457031 7.234375 C 4.507813 10.339844 4.671875 15.855469 4.671875 15.855469 C 8.695313 10.183594 14.300781 7.878906 14.300781 7.878906 L 14.300781 8.253906 C 6.027344 13.816406 4.070313 21.957031 3.582031 23.617188 C 3.089844 25.277344 3.417969 29 6.898438 29 C 10.382813 29 13.917969 26.238281 13.917969 26.238281 C 13.917969 26.238281 14.679688 26.402344 16.746094 26.402344 C 25.453125 26.402344 27.519531 18.851563 27.519531 18.851563 L 19.792969 18.851563 C 19.792969 18.851563 19.25 21.316406 16.476563 21.316406 C 12.664063 21.316406 12.882813 17.40625 12.882813 17.40625 L 27.628906 17.40625 C 28.335938 7.34375 19.414063 5.898438 19.414063 5.898438 C 19.414063 5.898438 22.566406 3.703125 25.289063 3.703125 C 29.601563 3.703125 27.5625 8.675781 27.5625 8.675781 Z M 13.484375 26.128906 C 13.484375 26.128906 8.171875 29.300781 5.785156 27.101563 C 4.511719 24.902344 6.585938 21.789063 6.585938 21.789063 C 6.585938 21.789063 8.34375 24.996094 13.484375 26.128906 Z M 19.875 13.980469 L 12.863281 13.980469 C 12.863281 13.980469 12.773438 10.617188 16.457031 10.617188 C 20.015625 10.617188 19.875 13.980469 19.875 13.980469 Z"/></svg>