<svg xmlns="http://www.w3.org/2000/svg" viewBox="0 0 32 32"><path d="M 10.351562 4 C 10.117563 4 10 4.1165625 10 4.3515625 L 10 27.644531 C 10 27.878531 10.116563 27.996094 10.351562 27.996094 L 12.648438 27.996094 C 12.882437 27.996094 13.001953 27.879531 13.001953 27.644531 L 13.001953 22.808594 L 14.810547 21.085938 L 20.048828 27.75 C 20.190828 27.915 20.354922 28 20.544922 28 L 23.716797 28 C 23.882797 28 23.977 27.952422 24 27.857422 L 23.933594 27.498047 L 17.023438 18.910156 L 23.650391 12.498047 C 23.773391 12.370047 23.730438 12 23.398438 12 L 20.117188 12 C 19.951187 12 19.785141 12.085953 19.619141 12.251953 L 13 18.974609 L 13 4.3515625 C 13 4.1165625 12.883437 4 12.648438 4 L 10.351562 4 z"/></svg>