<svg xmlns="http://www.w3.org/2000/svg" viewBox="0 0 32 32"><path d="M 16 3 C 8.832 3 3 8.832 3 16 C 3 23.168 8.832 29 16 29 C 18.369 29 20.583047 28.353188 22.498047 27.242188 L 21.056641 25.759766 C 19.540641 26.547766 17.823 27 16 27 C 9.935 27 5 22.065 5 16 C 5 9.935 9.935 5 16 5 C 22.065 5 27 9.935 27 16 C 27 16.026 26.996094 16.051172 26.996094 16.076172 C 27.715094 16.192172 28.381078 16.459281 28.955078 16.863281 C 28.974078 16.576281 29 16.292 29 16 C 29 8.832 23.168 3 16 3 z M 11.5 12 A 1.5 1.5 0 0 0 11.5 15 A 1.5 1.5 0 0 0 11.5 12 z M 20 12 C 17.906 12 16.390625 13.207031 16.390625 13.207031 L 17.609375 14.792969 C 17.609375 14.792969 18.692953 14 20.001953 14 C 21.310953 14 22.392578 14.792969 22.392578 14.792969 L 23.611328 13.207031 C 23.609328 13.207031 22.094 12 20 12 z M 15 17.007812 L 15 18.498047 C 15.902 18.498047 16.476562 18.912906 16.476562 19.128906 C 16.476563 19.344035 15.904518 19.754497 15.009766 19.757812 C 15.006431 19.757805 15.003337 19.757812 15 19.757812 L 15 19.759766 L 15 21.248047 L 15 21.25 C 15.003337 21.25 15.006431 21.250007 15.009766 21.25 C 15.905498 21.253316 16.476562 21.663777 16.476562 21.878906 C 16.476563 22.094906 15.901 22.509766 15 22.509766 L 15 24 C 16.669 24 17.976562 23.067906 17.976562 21.878906 C 17.976562 21.34662 17.704942 20.872619 17.265625 20.503906 C 17.704942 20.135194 17.976562 19.661193 17.976562 19.128906 C 17.976563 17.939906 16.669 17.007812 15 17.007812 z M 22.75 18 C 21.22 18 20 19.290781 20 20.800781 C 20 21.678781 20.505141 22.325219 20.869141 22.699219 L 24.5 26.429688 L 28.140625 22.699219 C 28.504625 22.326219 29 21.808781 29 20.800781 C 29 19.290781 27.78 18 26.25 18 C 25.52 18 24.92 18.25 24.5 18.5 C 24.08 18.25 23.48 18 22.75 18 z M 22.75 20 C 22.989 20 23.232563 20.07375 23.476562 20.21875 L 24.5 20.828125 L 25.523438 20.21875 C 25.767437 20.07375 26.011 20 26.25 20 C 26.65 20 27 20.374781 27 20.800781 C 27 20.987781 26.991984 21.012734 26.708984 21.302734 L 24.501953 23.564453 L 22.302734 21.304688 C 22.189734 21.188688 22 20.968781 22 20.800781 C 22 20.374781 22.35 20 22.75 20 z"/></svg>