<svg xmlns="http://www.w3.org/2000/svg" viewBox="0 0 32 32"><path d="M 7.5566406 5.0058594 C 6.8996406 5.0338594 1.8892031 5.4591875 1.5332031 5.4921875 C 1.1772031 5.5211875 0.784625 5.6858281 1.140625 6.5488281 C 1.496625 7.4118281 7.1857031 19.951406 7.3457031 20.316406 C 7.5047031 20.680406 7.9178125 21.275156 8.8828125 21.035156 C 9.8718125 20.791156 13.302734 19.874094 15.177734 19.371094 C 16.166734 21.207094 18.1875 24.928938 18.5625 25.460938 C 19.0595 26.174937 19.405922 26.053453 20.169922 25.814453 C 20.769922 25.627453 29.525922 22.407141 29.919922 22.244141 C 30.313922 22.076141 30.556062 21.961688 30.289062 21.554688 C 30.092063 21.257687 27.781266 18.092594 26.572266 16.433594 C 27.402266 16.208594 30.350063 15.407406 30.664062 15.316406 C 31.033063 15.219406 31.084812 15.038594 30.882812 14.808594 C 30.685813 14.578594 27.940031 11.064703 27.457031 10.470703 C 26.974031 9.8767031 26.734453 9.9804375 26.439453 10.023438 C 26.139453 10.066437 22.666672 10.665422 22.263672 10.732422 C 21.860672 10.804422 21.607469 10.967266 21.855469 11.322266 C 22.075469 11.638266 24.359234 14.952641 24.865234 15.681641 L 15.785156 17.904297 L 8.5605469 5.5605469 C 8.2745469 5.1245469 8.2126406 4.9718594 7.5566406 5.0058594 z M 7.4433594 5.8632812 C 7.6123594 5.8532813 7.5932969 5.8910937 7.6542969 5.9960938 C 7.6542969 5.9960938 14.319641 17.760797 14.431641 17.966797 C 14.553641 18.172797 14.484953 18.235766 14.376953 18.259766 C 14.268953 18.283766 9.1821563 19.528797 8.9101562 19.591797 C 8.6381562 19.653797 8.6384688 19.625297 8.6054688 19.529297 C 8.5724688 19.433297 2.5605625 6.7449375 2.4765625 6.5859375 C 2.3925625 6.4279375 2.3965625 6.3027344 2.4765625 6.3027344 C 2.5565625 6.3027344 7.2793594 5.8722812 7.4433594 5.8632812 z M 26.771484 10.845703 C 26.838859 10.861328 26.909641 10.911797 26.994141 11.029297 C 27.163141 11.264297 29.459828 14.240469 29.548828 14.355469 C 29.632828 14.466469 29.482156 14.534031 29.285156 14.582031 C 29.088156 14.625031 25.835938 15.449219 25.835938 15.449219 L 23.177734 11.720703 C 23.102734 11.610703 23.042469 11.504469 23.230469 11.480469 C 23.417469 11.456469 26.436266 10.894234 26.572266 10.865234 C 26.640266 10.848234 26.704109 10.830078 26.771484 10.845703 z M 25.527344 16.617188 C 25.590094 16.624312 25.642891 16.66875 25.712891 16.78125 C 25.849891 17.01225 28.63875 20.881719 28.71875 21.011719 C 28.79875 21.140719 28.881047 21.227359 28.623047 21.318359 C 28.370047 21.414359 20.014469 24.295188 19.855469 24.367188 C 19.691469 24.439187 19.563422 24.462391 19.357422 24.150391 C 19.151422 23.838391 16.433594 19.03125 16.433594 19.03125 L 25.28125 16.677734 C 25.39125 16.641734 25.464594 16.610063 25.527344 16.617188 z"/></svg>