<svg xmlns="http://www.w3.org/2000/svg" viewBox="0 0 32 32"><path d="M 5 5 L 5 27 L 27 27 L 27 5 L 5 5 z M 7 7 L 25 7 L 25 25 L 7 25 L 7 7 z M 12.611328 12.107422 C 10.251328 12.107422 9 13.601719 9 16.136719 C 9 18.574719 10.251047 19.892578 12.498047 19.892578 C 14.310047 19.892578 15.177734 19.042969 15.177734 19.042969 L 14.666016 17.646484 C 14.666016 17.646484 13.834031 18.578125 12.582031 18.578125 C 11.474031 18.578125 10.685547 17.615219 10.685547 16.074219 C 10.685547 14.100219 11.679156 13.396484 12.660156 13.396484 C 14.477156 13.396484 14.703969 14.852937 15.417969 17.085938 C 15.929969 18.639938 16.894922 19.892578 19.669922 19.892578 C 21.656922 19.892578 23.004 19.283734 23 17.677734 C 23 15.685734 21.288422 15.470156 19.857422 15.160156 C 19.152422 14.998156 18.941406 14.710516 18.941406 14.228516 C 18.941406 13.681516 19.375078 13.361328 20.080078 13.361328 C 20.850078 13.361328 21.266031 13.649797 21.332031 14.341797 L 22.939453 14.148438 C 22.812453 12.703437 21.818641 12.109375 20.181641 12.109375 C 18.741641 12.109375 17.326172 12.651344 17.326172 14.402344 C 17.326172 15.492344 17.8565 16.183906 19.1875 16.503906 C 20.4175 16.792906 21.371094 16.884859 21.371094 17.755859 C 21.371094 18.350859 20.793125 18.591797 19.703125 18.591797 C 18.083125 18.591797 17.410391 17.741359 17.025391 16.568359 C 16.149391 13.919359 15.829328 12.107422 12.611328 12.107422 z"/></svg>