<svg xmlns="http://www.w3.org/2000/svg" viewBox="0 0 32 32"><path d="M 3.2558594 9.1503906 C 1.8358594 9.1503906 1.2050781 9.7001562 1.2050781 11.410156 C 1.2050781 12.540156 1.3652344 13.170625 1.3652344 14.140625 C 1.3652344 14.690625 1.0269531 15.270313 0.001953125 15.320312 L 0.001953125 16.685547 C 1.0269531 16.710547 1.3652344 17.291797 1.3652344 17.841797 C 1.3652344 18.811797 1.2050781 19.391484 1.2050781 20.521484 C 1.2050781 22.231484 1.8354687 22.78125 3.2304688 22.78125 L 4.2558594 22.78125 L 4.2558594 21.570312 L 3.9414062 21.570312 C 3.2864062 21.570312 3.0761719 21.306406 3.0761719 20.441406 C 3.0761719 19.576406 3.15625 18.835234 3.15625 17.865234 C 3.15625 16.655234 2.7615625 16.186953 1.9765625 16.001953 L 1.9765625 15.921875 C 2.7665625 15.736875 3.15625 15.266641 3.15625 14.056641 C 3.15625 13.111641 3.0761719 12.345469 3.0761719 11.480469 C 3.0761719 10.615469 3.2614062 10.376953 3.9414062 10.376953 L 4.6464844 10.376953 L 4.6464844 17.917969 C 4.6464844 19.522969 5.1957813 20.572266 6.8007812 20.572266 C 7.3007812 20.572266 7.6954687 20.491719 7.9804688 20.386719 L 7.7167969 18.677734 C 7.5617969 18.718734 7.48625 18.71875 7.40625 18.71875 C 7.22125 18.71875 6.9863281 18.5575 6.9863281 18.0625 L 6.9863281 9.1503906 L 3.2558594 9.1503906 z M 27.744141 9.15625 L 27.744141 10.367188 L 28.060547 10.367188 C 28.770547 10.367188 28.925781 10.602656 28.925781 11.472656 C 28.925781 12.287656 28.845703 13.101875 28.845703 14.046875 C 28.845703 15.256875 29.240391 15.727109 30.025391 15.912109 L 30.025391 15.992188 C 29.235391 16.177187 28.845703 16.647422 28.845703 17.857422 C 28.845703 18.802422 28.925781 19.566641 28.925781 20.431641 C 28.925781 21.326641 28.740547 21.5625 28.060547 21.5625 L 28.060547 21.587891 L 27.744141 21.587891 L 27.744141 22.847656 L 28.769531 22.847656 C 30.159531 22.847656 30.794922 22.297891 30.794922 20.587891 C 30.794922 19.457891 30.634766 18.877422 30.634766 17.857422 C 30.634766 17.307422 30.975 16.727734 32 16.677734 L 32 15.3125 C 30.975 15.2775 30.634766 14.696484 30.634766 14.146484 C 30.634766 13.121484 30.794922 12.517969 30.794922 11.417969 C 30.794922 9.7079688 30.164531 9.15625 28.769531 9.15625 L 27.744141 9.15625 z M 11.242188 12.306641 C 9.3221875 12.306641 7.4851562 13.912594 7.5351562 16.433594 C 7.5351562 19.033594 9.2459531 20.558594 11.501953 20.558594 C 12.446953 20.558594 13.4975 20.219063 14.3125 19.664062 L 13.521484 18.273438 C 12.941484 18.613437 12.3925 18.773438 11.8125 18.773438 C 10.7625 18.773438 9.9463281 18.274453 9.7363281 17.064453 L 14.498047 17.064453 C 14.523047 16.879453 14.578125 16.51375 14.578125 16.09375 C 14.607125 13.96175 13.447188 12.306641 11.242188 12.306641 z M 18.308594 12.332031 C 16.523594 12.332031 15.3125 13.357734 15.3125 14.802734 C 15.3125 16.087734 16.443672 16.746328 17.388672 17.111328 C 18.203672 17.426328 18.992187 17.691797 18.992188 18.216797 C 18.992188 18.611797 18.67875 18.871094 17.96875 18.871094 C 17.31375 18.871094 16.653359 18.606641 15.943359 18.056641 L 14.917969 19.582031 C 15.707969 20.237031 16.912109 20.6875 17.912109 20.6875 C 20.012109 20.6875 21.144531 19.581719 21.144531 18.136719 C 21.148531 16.692719 20.017188 16.087094 18.992188 15.746094 C 18.177187 15.431094 17.443359 15.247656 17.443359 14.722656 C 17.443359 14.327656 17.757891 14.091797 18.337891 14.091797 C 18.917891 14.091797 19.442578 14.326094 20.017578 14.746094 L 21.068359 13.357422 C 20.413359 12.857422 19.518594 12.332031 18.308594 12.332031 z M 24.693359 12.332031 C 22.908359 12.332031 21.699219 13.357734 21.699219 14.802734 C 21.699219 16.087734 22.828438 16.746328 23.773438 17.111328 C 24.588438 17.426328 25.378906 17.691797 25.378906 18.216797 C 25.378906 18.611797 25.063516 18.871094 24.353516 18.871094 C 23.698516 18.871094 23.038125 18.606641 22.328125 18.056641 L 21.279297 19.582031 C 22.069297 20.237031 23.273437 20.6875 24.273438 20.6875 C 26.373438 20.6875 27.505859 19.581719 27.505859 18.136719 C 27.505859 16.691719 26.378516 16.087094 25.353516 15.746094 C 24.563516 15.431094 23.828125 15.247656 23.828125 14.722656 C 23.828125 14.327656 24.144609 14.091797 24.724609 14.091797 C 25.304609 14.091797 25.829297 14.326094 26.404297 14.746094 L 27.453125 13.357422 C 26.798125 12.857422 25.903359 12.332031 24.693359 12.332031 z M 11.267578 14.066406 C 12.212578 14.066406 12.582031 14.722188 12.582031 15.617188 L 9.7421875 15.617188 C 9.9021875 14.567187 10.532578 14.066406 11.267578 14.066406 z"/></svg>