<svg xmlns="http://www.w3.org/2000/svg" viewBox="0 0 32 32"><path d="M 9.625 5 C 7.089844 5 5 7.089844 5 9.625 L 5 22.375 C 5 24.910156 7.089844 27 9.625 27 L 22.375 27 C 24.910156 27 27 24.910156 27 22.375 L 27 9.625 C 27 7.089844 24.910156 5 22.375 5 Z M 9.625 7 L 22.375 7 C 23.828125 7 25 8.171875 25 9.625 L 25 22.375 C 25 23.828125 23.828125 25 22.375 25 L 9.625 25 C 8.171875 25 7 23.828125 7 22.375 L 7 9.625 C 7 8.171875 8.171875 7 9.625 7 Z M 16 9.21875 C 11.984375 9.21875 8.71875 11.867188 8.71875 15.125 C 8.71875 18.046875 11.3125 20.476563 14.8125 20.9375 C 15.050781 20.988281 15.355469 21.109375 15.4375 21.3125 C 15.511719 21.496094 15.492188 21.78125 15.46875 21.96875 C 15.46875 21.96875 15.394531 22.484375 15.375 22.59375 C 15.34375 22.777344 15.222656 23.328125 16 23 C 16.777344 22.671875 20.191406 20.507813 21.71875 18.75 C 22.773438 17.59375 23.28125 16.429688 23.28125 15.125 C 23.28125 11.867188 20.015625 9.21875 16 9.21875 Z M 11.71875 13.40625 C 11.929688 13.40625 12.09375 13.570313 12.09375 13.78125 L 12.09375 16.28125 L 13.15625 16.28125 C 13.367188 16.28125 13.53125 16.476563 13.53125 16.6875 C 13.53125 16.898438 13.367188 17.0625 13.15625 17.0625 L 11.71875 17.0625 C 11.507813 17.0625 11.3125 16.898438 11.3125 16.6875 L 11.3125 13.78125 C 11.3125 13.570313 11.507813 13.40625 11.71875 13.40625 Z M 14.28125 13.40625 C 14.492188 13.40625 14.65625 13.570313 14.65625 13.78125 L 14.65625 16.6875 C 14.65625 16.898438 14.492188 17.0625 14.28125 17.0625 C 14.070313 17.0625 13.875 16.898438 13.875 16.6875 L 13.875 13.78125 C 13.875 13.570313 14.070313 13.40625 14.28125 13.40625 Z M 15.46875 13.40625 C 15.507813 13.394531 15.554688 13.40625 15.59375 13.40625 C 15.710938 13.40625 15.804688 13.464844 15.875 13.5625 L 17.375 15.5625 L 17.375 13.78125 C 17.375 13.570313 17.539063 13.40625 17.75 13.40625 C 17.960938 13.40625 18.125 13.570313 18.125 13.78125 L 18.125 16.6875 C 18.125 16.851563 18.03125 16.980469 17.875 17.03125 C 17.835938 17.042969 17.789063 17.0625 17.75 17.0625 C 17.632813 17.0625 17.507813 17.003906 17.4375 16.90625 L 15.96875 14.875 L 15.96875 16.6875 C 15.96875 16.898438 15.804688 17.0625 15.59375 17.0625 C 15.382813 17.0625 15.1875 16.898438 15.1875 16.6875 L 15.1875 13.78125 C 15.1875 13.617188 15.3125 13.457031 15.46875 13.40625 Z M 19.03125 13.40625 L 20.46875 13.40625 C 20.679688 13.40625 20.84375 13.570313 20.84375 13.78125 C 20.84375 13.992188 20.679688 14.15625 20.46875 14.15625 L 19.40625 14.15625 L 19.40625 14.84375 L 20.46875 14.84375 C 20.679688 14.84375 20.84375 15.007813 20.84375 15.21875 C 20.84375 15.429688 20.679688 15.625 20.46875 15.625 L 19.40625 15.625 L 19.40625 16.28125 L 20.46875 16.28125 C 20.679688 16.28125 20.84375 16.476563 20.84375 16.6875 C 20.84375 16.898438 20.679688 17.0625 20.46875 17.0625 L 19.03125 17.0625 C 18.820313 17.0625 18.65625 16.898438 18.65625 16.6875 L 18.65625 13.78125 C 18.65625 13.570313 18.820313 13.40625 19.03125 13.40625 Z"/></svg>