<svg xmlns="http://www.w3.org/2000/svg" viewBox="0 0 32 32"><path d="M 22 3 C 18.699219 3 16 5.699219 16 9 C 16 9.992188 16.382813 11.003906 16.875 12.125 C 17.367188 13.246094 17.988281 14.433594 18.625 15.53125 C 19.898438 17.726563 21.1875 19.5625 21.1875 19.5625 L 22 20.75 L 22.8125 19.5625 C 22.8125 19.5625 24.101563 17.726563 25.375 15.53125 C 26.011719 14.433594 26.632813 13.246094 27.125 12.125 C 27.617188 11.003906 28 9.992188 28 9 C 28 5.699219 25.300781 3 22 3 Z M 11.96875 4.9375 L 4 8.34375 L 4 27.53125 L 12.03125 24.0625 L 20.03125 27.0625 L 28 23.65625 L 28 14.9375 C 27.363281 16.160156 26.65625 17.332031 26 18.375 L 26 22.34375 L 21 24.46875 L 21 22.84375 L 19.53125 20.71875 C 19.375 20.492188 19.191406 20.222656 19 19.9375 L 19 24.5625 L 13 22.3125 L 13 7.4375 L 14.09375 7.84375 C 14.191406 7.167969 14.367188 6.515625 14.625 5.90625 Z M 22 5 C 24.21875 5 26 6.78125 26 9 C 26 9.386719 25.757813 10.300781 25.3125 11.3125 C 24.867188 12.324219 24.238281 13.472656 23.625 14.53125 C 22.808594 15.9375 22.457031 16.4375 22 17.125 C 21.542969 16.4375 21.191406 15.9375 20.375 14.53125 C 19.761719 13.472656 19.132813 12.324219 18.6875 11.3125 C 18.242188 10.300781 18 9.386719 18 9 C 18 6.78125 19.78125 5 22 5 Z M 11 7.5 L 11 22.34375 L 6 24.46875 L 6 9.65625 Z M 22 7.5 C 21.171875 7.5 20.5 8.171875 20.5 9 C 20.5 9.828125 21.171875 10.5 22 10.5 C 22.828125 10.5 23.5 9.828125 23.5 9 C 23.5 8.171875 22.828125 7.5 22 7.5 Z"/></svg>