<svg xmlns="http://www.w3.org/2000/svg" viewBox="0 0 32 32"><path d="M 7 6 L 7 8 L 3 8 L 3 26 L 7 26 L 7 28 L 9 28 L 9 26 L 11 26 L 11 28 L 13 28 L 13 26 L 15 26 L 15 28 L 17 28 L 17 26 L 19 26 L 19 28 L 21 28 L 21 26 L 23 26 L 23 28 L 25 28 L 25 26 L 29 26 L 29 8 L 25 8 L 25 6 L 23 6 L 23 8 L 21 8 L 21 6 L 19 6 L 19 8 L 17 8 L 17 6 L 15 6 L 15 8 L 13 8 L 13 6 L 11 6 L 11 8 L 9 8 L 9 6 Z M 5 10 L 27 10 L 27 24 L 5 24 Z M 8 12 C 7.449219 12 7 12.449219 7 13 C 7 13.550781 7.449219 14 8 14 C 8.550781 14 9 13.550781 9 13 C 9 12.449219 8.550781 12 8 12 Z M 12 12 C 11.449219 12 11 12.449219 11 13 C 11 13.550781 11.449219 14 12 14 C 12.550781 14 13 13.550781 13 13 C 13 12.449219 12.550781 12 12 12 Z M 16 12 C 15.449219 12 15 12.449219 15 13 C 15 13.550781 15.449219 14 16 14 C 16.550781 14 17 13.550781 17 13 C 17 12.449219 16.550781 12 16 12 Z M 20 12 C 19.449219 12 19 12.449219 19 13 C 19 13.550781 19.449219 14 20 14 C 20.550781 14 21 13.550781 21 13 C 21 12.449219 20.550781 12 20 12 Z M 24 12 C 23.449219 12 23 12.449219 23 13 C 23 13.550781 23.449219 14 24 14 C 24.550781 14 25 13.550781 25 13 C 25 12.449219 24.550781 12 24 12 Z M 8 16 C 7.449219 16 7 16.449219 7 17 C 7 17.550781 7.449219 18 8 18 C 8.550781 18 9 17.550781 9 17 C 9 16.449219 8.550781 16 8 16 Z M 24 16 C 23.449219 16 23 16.449219 23 17 C 23 17.550781 23.449219 18 24 18 C 24.550781 18 25 17.550781 25 17 C 25 16.449219 24.550781 16 24 16 Z M 8 20 C 7.449219 20 7 20.449219 7 21 C 7 21.550781 7.449219 22 8 22 C 8.550781 22 9 21.550781 9 21 C 9 20.449219 8.550781 20 8 20 Z M 12 20 C 11.449219 20 11 20.449219 11 21 C 11 21.550781 11.449219 22 12 22 C 12.550781 22 13 21.550781 13 21 C 13 20.449219 12.550781 20 12 20 Z M 16 20 C 15.449219 20 15 20.449219 15 21 C 15 21.550781 15.449219 22 16 22 C 16.550781 22 17 21.550781 17 21 C 17 20.449219 16.550781 20 16 20 Z M 20 20 C 19.449219 20 19 20.449219 19 21 C 19 21.550781 19.449219 22 20 22 C 20.550781 22 21 21.550781 21 21 C 21 20.449219 20.550781 20 20 20 Z M 24 20 C 23.449219 20 23 20.449219 23 21 C 23 21.550781 23.449219 22 24 22 C 24.550781 22 25 21.550781 25 21 C 25 20.449219 24.550781 20 24 20 Z"/></svg>