<svg xmlns="http://www.w3.org/2000/svg" viewBox="0 0 32 32"><path d="M 2 7 L 2 25 L 30 25 L 30 7 Z M 4 9 L 28 9 L 28 23 L 4 23 Z M 6 11 L 6 13 L 16 13 L 16 11 Z M 22 11 L 22 12.0625 C 20.875 12.25 20 13.203125 20 14.375 C 20 15.128906 20.417969 15.820313 21.09375 16.15625 L 24 17.625 C 24 17.847656 23.847656 18 23.625 18 L 22.375 18 C 22.152344 18 22 17.847656 22 17.625 L 22 17 L 20 17 L 20 17.625 C 20 18.796875 20.875 19.75 22 19.9375 L 22 21 L 24 21 L 24 19.9375 C 25.125 19.75 26 18.796875 26 17.625 C 26 16.871094 25.582031 16.183594 24.90625 15.84375 L 22 14.375 C 22 14.152344 22.152344 14 22.375 14 L 23.625 14 C 23.847656 14 24 14.152344 24 14.375 L 24 15 L 26 15 L 26 14.375 C 26 13.203125 25.125 12.25 24 12.0625 L 24 11 Z M 6 14 L 6 16 L 13 16 L 13 14 Z M 8.5 17 C 7.894531 17 7.46875 17.34375 7.1875 17.65625 C 6.90625 17.96875 6.699219 18.316406 6.53125 18.6875 C 6.195313 19.433594 6 20.238281 6 21 L 8 21 C 8 20.679688 8.15625 19.984375 8.375 19.5 C 8.4375 19.359375 8.5 19.3125 8.5625 19.21875 C 8.636719 19.320313 8.691406 19.386719 8.78125 19.53125 C 8.925781 19.765625 9.085938 20.046875 9.28125 20.3125 C 9.476563 20.578125 9.714844 21.015625 10.46875 21.03125 C 11.0625 21.042969 11.246094 20.828125 11.4375 20.6875 C 11.628906 20.546875 11.761719 20.414063 11.90625 20.28125 C 12.003906 20.191406 12.082031 20.125 12.15625 20.0625 C 12.183594 20.101563 12.292969 20.167969 12.84375 20.40625 C 13.511719 20.699219 14.523438 21 16 21 L 16 19 C 14.769531 19 14.128906 18.800781 13.65625 18.59375 C 13.183594 18.386719 12.824219 18 12 18 C 11.398438 18 11.246094 18.234375 11.0625 18.375 C 10.898438 18.5 10.785156 18.632813 10.65625 18.75 C 10.597656 18.65625 10.570313 18.609375 10.5 18.5 C 10.332031 18.226563 10.132813 17.917969 9.84375 17.625 C 9.554688 17.332031 9.097656 17 8.5 17 Z"/></svg>