<svg xmlns="http://www.w3.org/2000/svg" viewBox="0 0 32 32"><path d="M 22.40625 3 C 21.558594 3.039063 20.679688 3.65625 20.28125 4.625 L 20.28125 4.65625 L 20.25 4.65625 C 19.828125 5.777344 19.234375 6.949219 18.5625 8.09375 C 17.738281 8.027344 16.882813 8 16 8 C 12.863281 8 10.019531 8.4375 7.875 9.21875 C 6.804688 9.609375 5.910156 10.089844 5.21875 10.6875 C 4.609375 11.210938 4.167969 11.902344 4.0625 12.6875 C 4.03125 12.769531 4.011719 12.851563 4 12.9375 C 3.996094 12.988281 3.996094 13.042969 4 13.09375 C 4 13.378906 4 13.753906 4.03125 14.21875 C 4.035156 14.25 4.027344 14.28125 4.03125 14.3125 C 4.046875 14.539063 4.09375 14.769531 4.125 15.03125 C 4.15625 15.277344 4.179688 15.515625 4.21875 15.75 C 4.425781 17.101563 4.832031 18.707031 5.65625 20.28125 C 6.238281 21.394531 7.042969 22.488281 8.125 23.40625 C 8.15625 23.4375 8.277344 23.589844 8.28125 23.59375 C 9.296875 24.609375 11.308594 25.683594 14.53125 25.9375 C 14.675781 25.949219 14.820313 25.960938 14.96875 25.96875 C 15.300781 25.988281 15.640625 26 16 26 C 16.511719 26 17.007813 25.980469 17.46875 25.9375 C 17.542969 25.929688 17.613281 25.914063 17.6875 25.90625 C 18.007813 25.871094 18.300781 25.832031 18.59375 25.78125 C 18.644531 25.773438 18.699219 25.757813 18.75 25.75 C 18.804688 25.738281 18.851563 25.730469 18.90625 25.71875 C 19.644531 25.570313 20.308594 25.375 20.9375 25.125 C 21.359375 24.964844 21.695313 24.796875 22.03125 24.625 C 22.191406 24.539063 22.347656 24.464844 22.5 24.375 C 22.9375 24.125 23.296875 23.90625 23.5625 23.71875 C 23.996094 23.410156 25.054688 22.535156 26.09375 20.78125 C 27.007813 19.234375 27.828125 17.03125 27.96875 14.21875 C 28 13.738281 28 13.351563 28 13.0625 C 28 13.042969 28 13.023438 28 13 C 28 12.988281 28 12.980469 28 12.96875 C 28 12.949219 28 12.925781 28 12.90625 C 28 12.875 27.972656 12.84375 27.96875 12.8125 C 27.96875 12.78125 27.96875 12.75 27.96875 12.71875 C 27.851563 11.722656 27.15625 10.914063 26.28125 10.3125 C 25.65625 9.882813 24.890625 9.523438 24.03125 9.21875 C 24.34375 8.835938 24.652344 8.453125 25 8.09375 C 25.03125 8.0625 25.0625 8.03125 25.09375 8 L 25.0625 7.96875 C 25.800781 7.300781 26.128906 6.3125 25.90625 5.53125 C 25.671875 4.710938 25.105469 4.132813 24.53125 3.71875 C 23.960938 3.304688 23.253906 2.960938 22.40625 3 Z M 22.5 5 C 22.664063 4.992188 23.054688 5.109375 23.375 5.34375 C 23.695313 5.574219 23.953125 5.898438 24 6.0625 C 24.046875 6.226563 24.117188 6.234375 23.75 6.53125 L 23.6875 6.5625 L 23.65625 6.59375 C 20.582031 9.734375 18.800781 13.453125 18.28125 15.90625 C 17.550781 15.964844 16.78125 16 16 16 C 15.691406 16 15.394531 15.980469 15.09375 15.96875 C 17.597656 13.503906 20.609375 9.421875 22.125 5.375 C 22.308594 4.929688 22.335938 5.007813 22.5 5 Z M 16 10 C 16.449219 10 16.882813 10.011719 17.3125 10.03125 C 15.5625 12.578125 13.601563 14.769531 12.34375 15.75 C 10.894531 15.550781 9.589844 15.25 8.5625 14.875 C 7.644531 14.539063 6.953125 14.171875 6.53125 13.8125 C 6.109375 13.453125 6 13.179688 6 13 C 6 12.96875 6 12.9375 6 12.90625 C 6.03125 12.730469 6.171875 12.496094 6.53125 12.1875 C 6.953125 11.828125 7.644531 11.460938 8.5625 11.125 C 10.398438 10.457031 13.0625 10 16 10 Z M 22.78125 10.9375 C 23.78125 11.246094 24.613281 11.597656 25.15625 11.96875 C 25.820313 12.425781 26 12.78125 26 13 C 26 13.019531 26 13.042969 26 13.0625 C 25.980469 13.242188 25.847656 13.484375 25.46875 13.8125 C 25.046875 14.171875 24.355469 14.539063 23.4375 14.875 C 22.605469 15.175781 21.585938 15.433594 20.46875 15.625 C 20.867188 14.378906 21.65625 12.667969 22.78125 10.9375 Z M 25.6875 16.0625 C 25.597656 16.519531 25.523438 16.984375 25.375 17.46875 C 25.339844 17.574219 25.316406 17.679688 25.28125 17.78125 C 25.257813 17.855469 25.214844 17.925781 25.1875 18 C 24.933594 18.664063 24.640625 19.25 24.34375 19.75 C 23.46875 21.230469 22.4375 22.070313 22.40625 22.09375 C 21.695313 22.597656 20.535156 23.394531 18.53125 23.78125 C 18.417969 23.800781 18.300781 23.824219 18.1875 23.84375 C 17.542969 23.949219 16.816406 24 16 24 C 15.679688 24 15.386719 23.984375 15.09375 23.96875 C 14.964844 23.960938 14.84375 23.949219 14.71875 23.9375 C 14.265625 23.898438 13.859375 23.851563 13.46875 23.78125 C 13.160156 23.722656 12.875 23.671875 12.59375 23.59375 C 12.402344 23.542969 12.234375 23.492188 12.0625 23.4375 C 11.300781 23.183594 10.632813 22.855469 10.0625 22.46875 C 9.941406 22.378906 9.828125 22.296875 9.75 22.21875 L 9.71875 22.1875 C 9.550781 22.019531 9.328125 21.84375 8.96875 21.4375 C 8.609375 21.03125 8.15625 20.433594 7.71875 19.6875 C 7.226563 18.851563 6.734375 17.808594 6.40625 16.53125 C 6.371094 16.378906 6.339844 16.242188 6.3125 16.09375 C 6.777344 16.359375 7.304688 16.574219 7.875 16.78125 C 10.019531 17.5625 12.863281 18 16 18 C 19.136719 18 21.980469 17.5625 24.125 16.78125 C 24.703125 16.570313 25.21875 16.328125 25.6875 16.0625 Z"/></svg>