<svg xmlns="http://www.w3.org/2000/svg" viewBox="0 0 32 32"><path d="M 22.5 6 C 21.84375 6 21.296875 6.414063 21.09375 7 L 17 7 L 17 9 L 21.25 9 L 21.5625 10 L 18 10 C 15.390625 10 14.078125 11.40625 13.59375 12 L 10.21875 12 C 9.832031 11.773438 8.449219 11 6.5 11 C 4.339844 11 2.5625 11.84375 2.5625 11.84375 L 3.4375 13.65625 C 3.4375 13.65625 4.867188 13 6.5 13 C 7.308594 13 8.070313 13.246094 8.625 13.46875 L 7.75 15.28125 C 7.199219 15.113281 6.605469 15 6 15 C 2.691406 15 0 17.691406 0 21 C 0 24.308594 2.691406 27 6 27 C 8.972656 27 11.433594 24.839844 11.90625 22 L 15.375 22 C 16.132813 22 16.851563 21.558594 17.1875 20.875 L 17.15625 20.875 L 18.25 18.65625 C 19.914063 17.890625 21.269531 16.5625 22.21875 15.3125 C 22.480469 14.96875 22.703125 14.652344 22.90625 14.34375 L 25.03125 21.28125 L 26.96875 20.71875 L 25.84375 17.03125 C 25.898438 17.027344 25.945313 17 26 17 C 28.207031 17 30 18.792969 30 21 C 30 23.207031 28.207031 25 26 25 C 23.792969 25 22 23.207031 22 21 C 22 19.933594 22.410156 18.96875 23.09375 18.25 L 22.46875 16.15625 C 20.976563 17.25 20 19.015625 20 21 C 20 24.308594 22.691406 27 26 27 C 29.308594 27 32 24.308594 32 21 C 32 17.691406 29.308594 15 26 15 C 25.734375 15 25.476563 15.027344 25.21875 15.0625 L 23.375 9 L 25 9 L 25 6 Z M 18 12 L 22 12 C 21.851563 12.269531 21.40625 13.066406 20.625 14.09375 C 19.695313 15.3125 18.402344 16.609375 17.15625 17.0625 L 16.75 17.1875 L 16.59375 17.5625 L 15.375 20 L 6 20 L 6 22 L 9.84375 22 C 9.398438 23.722656 7.859375 25 6 25 C 3.792969 25 2 23.207031 2 21 C 2 18.792969 3.792969 17 6 17 C 7.472656 17 8.742188 17.808594 9.4375 19 L 11.65625 19 C 11.25 17.851563 10.496094 16.863281 9.53125 16.15625 L 10.625 14 L 14.53125 14 L 14.84375 13.5625 C 14.84375 13.5625 15.8125 12 18 12 Z"/></svg>