<svg xmlns="http://www.w3.org/2000/svg" viewBox="0 0 32 32"><path d="M 13 4 L 13 6 L 9 6 C 7.355469 6 6 7.355469 6 9 L 6 13 L 4 13 L 4 19 L 10 19 L 10 13 L 8 13 L 8 9 C 8 8.433594 8.433594 8 9 8 L 13 8 L 13 10 L 19 10 L 19 4 Z M 15 6 L 17 6 L 17 8 L 15 8 Z M 20 6 L 20 8 L 23 8 C 23.566406 8 24 8.433594 24 9 L 24 13 L 22 13 L 22 19 L 28 19 L 28 13 L 26 13 L 26 9 C 26 7.355469 24.644531 6 23 6 Z M 6 15 L 8 15 L 8 17 L 6 17 Z M 24 15 L 26 15 L 26 17 L 24 17 Z M 6 20 L 6 23 C 6 24.644531 7.355469 26 9 26 L 13 26 L 13 28 L 19 28 L 19 22 L 13 22 L 13 24 L 9 24 C 8.433594 24 8 23.566406 8 23 L 8 20 Z M 24 20 L 24 23 C 24 23.566406 23.566406 24 23 24 L 20 24 L 20 26 L 23 26 C 24.644531 26 26 24.644531 26 23 L 26 20 Z M 15 24 L 17 24 L 17 26 L 15 26 Z"/></svg>