<svg xmlns="http://www.w3.org/2000/svg" viewBox="0 0 32 32"><path d="M 10 2 C 10 9 15.570312 8.4257812 15.570312 8.4257812 C 15.448313 3.9997812 11.901172 2.804875 11.451172 2.671875 C 15.376172 2.978875 16.429688 8.0078125 16.429688 8.0078125 C 18.688687 4.8388125 20.824219 5.390625 20.824219 5.390625 C 18.064219 5.492625 17.287109 8.4257812 17.287109 8.4257812 C 21.048109 9.3867812 22 5.421875 22 5.421875 C 17.453 3.805875 16.480469 7.5976562 16.480469 7.5976562 C 17.000469 1.9996562 10 2 10 2 z M 16 9 C 12.536 9 9.5233594 9.9832656 7.1933594 11.697266 C 5.9653594 13.750266 5 16.312 5 19 C 5 21.688 5.5359063 24.279031 6.7539062 26.332031 C 9.0839063 28.047031 12.536 29 16 29 C 19.464 29 22.916094 28.047031 25.246094 26.332031 C 26.464094 24.279031 27 21.688 27 19 C 27 16.312 26.034641 13.750266 24.806641 11.697266 C 22.476641 9.9732656 19.464 9 16 9 z M 16 10.300781 C 19.004 10.300781 21.911609 10.977516 24.099609 12.103516 C 24.582609 13.176516 24.721 13.991094 25 15.246094 C 22.619 14.806094 19.443 14.419922 16 14.419922 C 12.557 14.419922 9.381 14.806094 7 15.246094 C 7.279 14.002094 7.4073906 13.197516 7.9003906 12.103516 C 10.088391 10.977516 12.996 10.300781 16 10.300781 z M 10.443359 16 C 11.238359 16 11.886719 16.638359 11.886719 17.443359 C 11.886719 18.238359 11.238359 18.876953 10.443359 18.876953 C 9.6483594 18.876953 9 18.238359 9 17.443359 C 9 16.638359 9.6483594 16 10.443359 16 z M 14.144531 16.001953 C 14.949531 16.001953 15.587891 16.638359 15.587891 17.443359 C 15.588891 18.237359 14.950531 18.876953 14.144531 18.876953 C 13.349531 18.876953 12.710937 18.238359 12.710938 17.443359 C 12.710938 16.638359 13.349531 16.001953 14.144531 16.001953 z M 17.855469 16.001953 C 18.650469 16.001953 19.289062 16.638359 19.289062 17.443359 C 19.289062 18.237359 18.650469 18.876953 17.855469 18.876953 C 17.050469 18.876953 16.412109 18.238359 16.412109 17.443359 C 16.412109 16.638359 17.050469 16.001953 17.855469 16.001953 z M 21.556641 16.001953 C 22.351641 16.001953 23 16.638359 23 17.443359 C 23 18.238359 22.351641 18.876953 21.556641 18.876953 C 20.761641 18.876953 20.113281 18.238359 20.113281 17.443359 C 20.113281 16.638359 20.761641 16.001953 21.556641 16.001953 z M 10.443359 19.574219 C 11.238359 19.574219 11.886719 20.212578 11.886719 21.017578 C 11.886719 21.812578 11.238359 22.451172 10.443359 22.451172 C 9.6483594 22.451172 9 21.812578 9 21.017578 C 9 20.212578 9.6483594 19.574219 10.443359 19.574219 z M 14.144531 19.574219 C 14.949531 19.574219 15.587891 20.212578 15.587891 21.017578 C 15.588891 21.812578 14.950531 22.451172 14.144531 22.451172 C 13.349531 22.451172 12.710937 21.812578 12.710938 21.017578 C 12.710938 20.212578 13.349531 19.574219 14.144531 19.574219 z M 17.855469 19.574219 C 18.650469 19.574219 19.289062 20.212578 19.289062 21.017578 C 19.289062 21.812578 18.650469 22.451172 17.855469 22.451172 C 17.050469 22.451172 16.412109 21.812578 16.412109 21.017578 C 16.412109 20.212578 17.050469 19.574219 17.855469 19.574219 z M 21.556641 19.574219 C 22.351641 19.574219 23 20.212578 23 21.017578 C 23 21.812578 22.351641 22.451172 21.556641 22.451172 C 20.761641 22.451172 20.113281 21.812578 20.113281 21.017578 C 20.113281 20.212578 20.761641 19.574219 21.556641 19.574219 z M 10.443359 23.123047 C 11.238359 23.123047 11.886719 23.761406 11.886719 24.566406 C 11.886719 25.361406 11.238359 26 10.443359 26 C 9.6483594 26 9 25.361406 9 24.566406 C 9 23.761406 9.6483594 23.123047 10.443359 23.123047 z M 14.144531 23.123047 C 14.949531 23.123047 15.587891 23.761406 15.587891 24.566406 C 15.588891 25.361406 14.950531 26 14.144531 26 C 13.349531 26 12.710937 25.361406 12.710938 24.566406 C 12.710938 23.761406 13.349531 23.123047 14.144531 23.123047 z M 17.855469 23.123047 C 18.650469 23.123047 19.289062 23.761406 19.289062 24.566406 C 19.289062 25.361406 18.650469 26 17.855469 26 C 17.050469 26 16.412109 25.361406 16.412109 24.566406 C 16.412109 23.761406 17.050469 23.123047 17.855469 23.123047 z M 21.556641 23.123047 C 22.351641 23.123047 23 23.761406 23 24.566406 C 23 25.361406 22.351641 26 21.556641 26 C 20.761641 26 20.113281 25.361406 20.113281 24.566406 C 20.113281 23.761406 20.761641 23.123047 21.556641 23.123047 z"/></svg>