<svg xmlns="http://www.w3.org/2000/svg" viewBox="0 0 32 32"><path d="M 15.96875 4 C 9.671875 4 5 8.945313 5 15.90625 C 5 22.191406 9.460938 28 15.96875 28 C 22.527344 28 27 22.191406 27 15.90625 C 27 8.882813 22.210938 4 15.96875 4 Z M 15.96875 6 C 21.210938 6 25 9.753906 25 15.90625 C 25 21.261719 21.34375 26 15.96875 26 C 10.652344 26 7 21.261719 7 15.90625 C 7 9.792969 10.675781 6 15.96875 6 Z M 15.96875 6.3125 C 14.925781 6.3125 13.972656 6.71875 13.3125 7.375 C 12.652344 8.03125 12.234375 8.867188 11.9375 9.78125 C 11.339844 11.613281 11.21875 13.796875 11.21875 15.71875 C 11.21875 17.480469 11.285156 19.726563 11.84375 21.65625 C 12.121094 22.621094 12.515625 23.535156 13.1875 24.25 C 13.859375 24.964844 14.855469 25.4375 15.96875 25.4375 C 17.089844 25.4375 18.066406 24.960938 18.75 24.25 C 19.433594 23.539063 19.839844 22.621094 20.125 21.65625 C 20.699219 19.726563 20.78125 17.5 20.78125 15.71875 C 20.78125 13.652344 20.621094 11.492188 20 9.6875 C 19.6875 8.785156 19.265625 7.941406 18.59375 7.3125 C 17.921875 6.683594 16.996094 6.3125 15.96875 6.3125 Z M 15.96875 8.3125 C 16.539063 8.3125 16.875 8.460938 17.21875 8.78125 C 17.5625 9.101563 17.882813 9.613281 18.125 10.3125 C 18.609375 11.714844 18.78125 13.753906 18.78125 15.71875 C 18.78125 17.4375 18.675781 19.546875 18.21875 21.09375 C 17.988281 21.867188 17.671875 22.5 17.3125 22.875 C 16.953125 23.25 16.59375 23.4375 15.96875 23.4375 C 15.359375 23.4375 15.007813 23.25 14.65625 22.875 C 14.304688 22.5 13.972656 21.871094 13.75 21.09375 C 13.300781 19.539063 13.21875 17.425781 13.21875 15.71875 C 13.21875 13.890625 13.375 11.851563 13.84375 10.40625 C 14.078125 9.683594 14.410156 9.148438 14.75 8.8125 C 15.089844 8.476563 15.414063 8.3125 15.96875 8.3125 Z"/></svg>