<svg xmlns="http://www.w3.org/2000/svg" viewBox="0 0 32 32"><path d="M 28 5 L 28 3 C 26.011719 3 24.460938 3.554688 23.394531 4.640625 C 22.777344 5.269531 22.445313 5.96875 22.253906 6.570313 C 21.746094 6.21875 21.15625 6 20.5 6 C 17.976563 6 17.023438 8.007813 17 9.375 C 17 9.59375 16.992188 9.824219 16.976563 10.0625 C 16.304688 12.050781 15 10.734375 15 8 C 11.777344 11.421875 15.25 12.683594 13.269531 14.664063 C 12.847656 15.085938 11.839844 15.25 11.210938 14.476563 C 10.378906 13.488281 12.070313 11.863281 10.46875 10.648438 C 10.761719 12.476563 9.351563 12.097656 8.875 11.707031 C 8.253906 11.199219 7.125 10.082031 9 7 C 7.082031 7.875 5.925781 9.652344 6 11 C 6.199219 14.535156 11.664063 17.605469 9.457031 19.667969 C 8.34375 20.710938 6.15625 19.300781 7 17 C 5.949219 17.535156 4.714844 18.808594 5.109375 20.789063 C 5.382813 22.160156 7.375 25.25 4 27 C 4 27 4.015625 27.003906 4.042969 27.011719 L 3.957031 29 C 4.023438 29.003906 4.292969 29.011719 4.726563 29.011719 C 7.539063 29.011719 17.273438 28.578125 23.265625 22.839844 C 26.40625 19.832031 28 15.847656 28 11 C 28 9.617188 27.371094 7 25 7 C 24.707031 7 24.433594 7.039063 24.175781 7.101563 C 24.289063 6.765625 24.484375 6.382813 24.820313 6.039063 C 25.5 5.351563 26.566406 5 28 5 Z M 25 9 C 25.945313 9 26 10.984375 26 11 C 26 15.277344 24.613281 18.773438 21.886719 21.390625 C 17.460938 25.632813 10.488281 26.683594 6.703125 26.933594 C 7.625 26.722656 8.734375 26.292969 9.949219 25.472656 C 15.800781 22.265625 18.878906 14.703125 18.992188 9.667969 L 19 9.667969 L 19 9.394531 C 19.003906 9.160156 19.097656 8 20.5 8 C 21.355469 8 22 9.214844 22 10 L 24 10 C 24 9.570313 24.105469 9 25 9 Z"/></svg>