<svg xmlns="http://www.w3.org/2000/svg" viewBox="0 0 32 32"><path d="M 15.945312 5 C 13.192813 5.015 10.445203 6.0892031 8.3457031 8.2207031 C 5.4727031 11.142703 6.7763594 9.8176875 2.9433594 13.679688 C 1.6843594 14.957688 1.6843594 17.043312 2.9433594 18.320312 C 6.8893594 22.296312 5.5624063 20.954953 8.4414062 23.876953 L 8.4472656 23.871094 C 12.686266 28.070094 19.478734 28.047297 23.677734 23.779297 C 26.556734 20.863297 25.252641 22.180359 29.056641 18.318359 C 30.315641 17.041359 30.315641 14.956688 29.056641 13.679688 L 23.580078 8.1210938 L 23.574219 8.1289062 C 21.454719 6.0294063 18.697812 4.985 15.945312 5 z M 16.009766 7.015625 C 18.309766 7.016375 20.610188 7.8944375 22.367188 9.6484375 C 25.875187 13.156438 25.881187 18.845375 22.367188 22.359375 C 18.853188 25.867375 13.17025 25.861516 9.65625 22.353516 C 6.14225 18.845516 6.14225 13.156438 9.65625 9.6484375 C 11.41025 7.8914375 13.709766 7.014875 16.009766 7.015625 z M 17.640625 10 C 17.553625 9.963 16.349609 11.310547 16.349609 11.310547 L 15.53125 11.298828 C 15.53125 11.298828 14.254016 9.9639531 14.166016 10.001953 L 12.919922 10.519531 C 12.832922 10.550531 12.931641 12.320312 12.931641 12.320312 L 12.363281 12.888672 C 12.363281 12.888672 10.542719 12.833063 10.511719 12.914062 L 10.005859 14.148438 C 9.9688594 14.235437 11.316406 15.458984 11.316406 15.458984 L 11.322266 16.263672 C 11.322266 16.263672 9.9688594 17.498937 10.005859 17.585938 L 10.597656 18.832031 C 10.634656 18.919031 12.4375 18.863281 12.4375 18.863281 L 13.023438 19.443359 C 13.023438 19.443359 13.012609 21.426031 13.099609 21.457031 L 14.353516 21.974609 C 14.440516 22.011609 15.644531 20.509766 15.644531 20.509766 L 16.460938 20.521484 C 16.460938 20.521484 17.738312 22.005609 17.820312 21.974609 L 19.068359 21.505859 C 19.155359 21.468859 19.056641 19.503906 19.056641 19.503906 L 19.623047 18.935547 C 19.623047 18.935547 21.445562 18.991297 21.476562 18.904297 L 21.980469 17.669922 C 22.024469 17.602922 20.677734 16.380859 20.677734 16.380859 L 20.671875 15.570312 C 20.671875 15.570312 22.025281 14.335047 21.988281 14.248047 L 21.394531 13 C 21.357531 12.913 19.554688 12.96875 19.554688 12.96875 L 18.96875 12.388672 C 18.96875 12.388672 18.981531 10.612219 18.894531 10.574219 L 17.640625 10 z M 15.826172 13.878906 C 16.972172 13.825906 17.952047 14.707031 17.998047 15.832031 C 18.044047 16.964031 17.151859 17.923563 16.005859 17.976562 C 14.860859 18.029563 13.879031 17.149578 13.832031 16.017578 C 13.785031 14.885578 14.680172 13.924906 15.826172 13.878906 z"/></svg>