<svg xmlns="http://www.w3.org/2000/svg" viewBox="0 0 32 32"><path d="M 31 4.96875 L 29.78125 5.28125 C 23.492188 6.796875 20.863281 12.449219 19.5625 15.46875 C 18.808594 14.714844 17.578125 14 15.8125 14 C 13.15625 14 11.117188 15.496094 9.59375 17.25 C 8.171875 18.886719 7.1875 20.757813 6.375 22.15625 C 4.746094 22.839844 1.96875 23 1.96875 23 L 0.46875 23.03125 L 1.09375 24.40625 C 1.09375 24.40625 1.445313 25.152344 2.21875 25.78125 C 2.992188 26.410156 4.242188 27 6 27 C 8.457031 27 11.789063 26 15 26 L 20 26 L 20 25.9375 C 20.503906 25.949219 21.015625 25.757813 21.28125 25.3125 L 23.78125 21.125 L 23.8125 21.125 C 24.3125 20.28125 23.714844 19.109375 22.75 19 L 21 19 C 20.691406 19 20.453125 19.050781 20.15625 19.0625 C 20.257813 18.828125 20.261719 18.816406 20.375 18.5625 C 20.472656 18.339844 20.558594 18.152344 20.65625 17.9375 C 20.664063 17.921875 20.679688 17.890625 20.6875 17.875 C 20.839844 17.574219 21.171875 16.953125 21.34375 16.5625 C 21.414063 16.53125 21.480469 16.507813 21.59375 16.46875 C 21.9375 16.355469 22.421875 16.238281 22.9375 16.09375 C 23.453125 15.949219 24 15.78125 24.5 15.5625 C 25 15.34375 25.503906 15.097656 25.84375 14.46875 C 26.222656 13.773438 26.320313 13.058594 26.4375 12.34375 C 26.554688 11.628906 26.652344 10.917969 26.84375 10.40625 C 27.449219 8.792969 28.601563 7.910156 30.34375 7.25 L 31 7 Z M 24.71875 10.90625 C 24.640625 11.285156 24.523438 11.691406 24.46875 12.03125 C 24.355469 12.714844 24.207031 13.277344 24.09375 13.5 C 24.066406 13.503906 23.9375 13.609375 23.6875 13.71875 C 23.40625 13.84375 23.003906 13.976563 22.59375 14.09375 C 23.183594 12.929688 23.773438 12.03125 24.71875 10.90625 Z M 15.8125 16 C 17.125 16 17.816406 16.476563 18.25 16.9375 C 18.554688 17.261719 18.5625 17.386719 18.625 17.53125 C 18.589844 17.609375 18.566406 17.671875 18.53125 17.75 C 18.191406 18.527344 17.996094 18.972656 17.875 19.25 C 14.179688 19.773438 11.648438 21 10 21 L 10 23 C 13.109375 23 16.003906 21 21 21 L 21.53125 21 L 19.71875 24 L 15 24 C 11.398438 24 7.835938 25 6 25 C 5.292969 25 4.765625 24.882813 4.34375 24.71875 C 5.324219 24.566406 6.449219 24.367188 7.4375 23.90625 L 7.71875 23.78125 L 7.875 23.5 C 8.75 22.015625 9.773438 20.082031 11.09375 18.5625 C 12.414063 17.042969 13.902344 16 15.8125 16 Z"/></svg>