<svg xmlns="http://www.w3.org/2000/svg" viewBox="0 0 32 32"><path d="M 13.46875 4 C 12.621094 4 11.859375 4.269531 11.125 4.59375 L 7 4.59375 L 7 21 L 8.1875 20.75 L 11.78125 20.03125 L 12.59375 19.875 L 12.59375 16.71875 C 12.734375 16.742188 12.867188 16.804688 13 16.84375 L 13 28.21875 L 14.1875 27.96875 L 17.78125 27.25 L 18.59375 27.09375 L 18.59375 23.9375 C 18.894531 23.984375 19.15625 24.125 19.46875 24.125 C 22.894531 24.125 25.65625 21.179688 25.65625 17.65625 C 25.65625 14.179688 22.960938 11.289063 19.59375 11.21875 C 19.625 10.960938 19.65625 10.703125 19.65625 10.4375 C 19.65625 6.914063 16.894531 4 13.46875 4 Z M 13.46875 6 C 15.757813 6 17.65625 7.941406 17.65625 10.4375 C 17.65625 12.933594 15.757813 14.90625 13.46875 14.90625 C 12.9375 14.90625 12.4375 14.789063 11.96875 14.59375 L 10.59375 14.03125 L 10.59375 18.21875 L 9 18.5625 L 9 6.59375 L 11.375 6.59375 L 11.59375 6.46875 C 12.160156 6.164063 12.792969 6 13.46875 6 Z M 12.625 6.78125 C 12.066406 6.78125 11.546875 6.957031 11.09375 7.21875 L 10.59375 7.5 L 10.59375 13.3125 L 11.09375 13.59375 C 11.546875 13.855469 12.070313 14.03125 12.625 14.03125 C 14.511719 14.03125 15.9375 12.328125 15.9375 10.40625 C 15.9375 8.484375 14.511719 6.78125 12.625 6.78125 Z M 12.59375 8.78125 C 12.605469 8.78125 12.613281 8.78125 12.625 8.78125 C 13.285156 8.78125 13.9375 9.4375 13.9375 10.40625 C 13.9375 11.375 13.285156 12.03125 12.625 12.03125 C 12.613281 12.03125 12.605469 12.03125 12.59375 12.03125 Z M 19.46875 13.21875 C 21.757813 13.21875 23.65625 15.160156 23.65625 17.65625 C 23.65625 20.152344 21.757813 22.125 19.46875 22.125 C 18.9375 22.125 18.4375 22.007813 17.96875 21.8125 L 16.59375 21.25 L 16.59375 25.4375 L 15 25.78125 L 15 16.71875 C 15.5625 16.566406 16.105469 16.332031 16.59375 16.03125 L 16.59375 20.53125 L 17.09375 20.8125 C 17.546875 21.074219 18.070313 21.25 18.625 21.25 C 20.511719 21.25 21.9375 19.546875 21.9375 17.625 C 21.9375 15.703125 20.511719 14 18.625 14 C 18.773438 13.765625 18.878906 13.503906 19 13.25 C 19 13.246094 19.03125 13.253906 19.03125 13.25 C 19.171875 13.230469 19.324219 13.21875 19.46875 13.21875 Z M 18.59375 16 C 18.605469 16 18.613281 16 18.625 16 C 19.285156 16 19.9375 16.65625 19.9375 17.625 C 19.9375 18.59375 19.285156 19.25 18.625 19.25 C 18.613281 19.25 18.605469 19.25 18.59375 19.25 Z"/></svg>