<svg xmlns="http://www.w3.org/2000/svg" viewBox="0 0 32 32"><path d="M 25.71875 4.78125 C 25.332031 4.816406 24.957031 4.929688 24.59375 5.125 L 19.875 7.625 L 13.5 6.0625 L 13.125 5.96875 L 12.75 6.15625 L 10.59375 7.40625 L 9.3125 8.15625 L 10.5 9.0625 L 13.21875 11.125 L 9.8125 12.9375 L 6.15625 11.28125 L 5.71875 11.09375 L 5.28125 11.3125 L 3.53125 12.25 L 2.375 12.875 L 3.25 13.8125 L 8.65625 19.625 L 9.15625 20.21875 L 9.84375 19.84375 L 15 17.09375 L 13.96875 22.78125 L 13.625 24.59375 L 15.34375 23.875 L 17.90625 22.78125 L 18.28125 22.625 L 18.4375 22.25 L 22.15625 13.21875 L 27.40625 10.40625 C 28.851563 9.628906 29.433594 7.789063 28.65625 6.34375 C 28.269531 5.621094 27.609375 5.128906 26.875 4.90625 C 26.507813 4.796875 26.105469 4.746094 25.71875 4.78125 Z M 25.90625 6.78125 C 26.03125 6.773438 26.160156 6.777344 26.28125 6.8125 C 26.523438 6.886719 26.742188 7.035156 26.875 7.28125 C 27.140625 7.777344 26.964844 8.359375 26.46875 8.625 L 20.875 11.65625 L 20.5625 11.8125 L 20.4375 12.15625 L 16.71875 21.09375 L 16.28125 21.28125 L 17.34375 15.375 L 17.71875 13.34375 L 15.90625 14.3125 L 9.59375 17.71875 L 5.625 13.40625 L 5.78125 13.3125 L 9.4375 14.9375 L 9.90625 15.15625 L 10.3125 14.90625 L 25.53125 6.875 C 25.65625 6.808594 25.78125 6.789063 25.90625 6.78125 Z M 13.375 8.09375 L 17.21875 9.03125 L 15.15625 10.09375 L 12.90625 8.375 Z M 3 26 L 3 28 L 29 28 L 29 26 Z"/></svg>