<svg xmlns="http://www.w3.org/2000/svg" viewBox="0 0 32 32"><path d="M 16 3 C 8.832031 3 3 8.832031 3 16 C 3 23.167969 8.832031 29 16 29 C 23.167969 29 29 23.167969 29 16 C 29 8.832031 23.167969 3 16 3 Z M 16 5 C 22.085938 5 27 9.914063 27 16 C 27 22.085938 22.085938 27 16 27 C 9.914063 27 5 22.085938 5 16 C 5 9.914063 9.914063 5 16 5 Z M 11.5 8.1875 C 8.800781 9.789063 7 12.699219 7 16 L 13.5 16 C 13.5 15.101563 14.011719 14.3125 14.8125 13.8125 Z M 20.5 8.1875 L 17.3125 13.8125 C 18.113281 14.210938 18.59375 15 18.59375 16 L 25 16 C 25 12.699219 23.199219 9.789063 20.5 8.1875 Z M 10.90625 11.1875 L 12.1875 13.5 C 12.085938 13.699219 12.007813 13.800781 11.90625 14 L 9.3125 14 C 9.613281 13 10.207031 11.988281 10.90625 11.1875 Z M 21.09375 11.1875 C 21.894531 11.988281 22.386719 13 22.6875 14 L 20.09375 14 C 19.992188 13.800781 19.914063 13.601563 19.8125 13.5 Z M 16 14.40625 C 15.101563 14.40625 14.40625 15.101563 14.40625 16 C 14.40625 16.898438 15.101563 17.59375 16 17.59375 C 16.898438 17.59375 17.59375 16.898438 17.59375 16 C 17.59375 15.101563 16.898438 14.40625 16 14.40625 Z M 14.6875 18.1875 L 11.5 23.8125 C 12.800781 24.613281 14.398438 25 16 25 C 17.601563 25 19.199219 24.613281 20.5 23.8125 L 17.3125 18.1875 C 16.914063 18.386719 16.5 18.5 16 18.5 C 15.5 18.5 15.085938 18.386719 14.6875 18.1875 Z M 15.6875 20.5 L 16.3125 20.5 L 17.59375 22.8125 C 17.09375 22.914063 16.5 23 16 23 C 15.5 23 14.90625 22.914063 14.40625 22.8125 Z"/></svg>