<svg xmlns="http://www.w3.org/2000/svg" viewBox="0 0 32 32"><path d="M 9.1601562 3.8886719 L 8.2832031 4.5351562 C 5.2622031 6.7731563 3.3557344 10.194922 3.0527344 13.919922 L 2.9648438 15 L 10.9375 15 L 11.076172 14.162109 C 11.263172 13.035109 11.842031 11.999141 12.707031 11.244141 L 13.345703 10.6875 L 9.1601562 3.8886719 z M 22.839844 3.8886719 L 18.654297 10.6875 L 19.292969 11.244141 C 20.157969 11.998141 20.736828 13.035109 20.923828 14.162109 L 21.0625 15 L 29.035156 15 L 28.945312 13.919922 C 28.642312 10.194922 26.735844 6.7731563 23.714844 4.5351562 L 22.839844 3.8886719 z M 8.6289062 6.8378906 L 10.78125 10.339844 C 10.09525 11.105844 9.5869219 12.017 9.2949219 13 L 5.1894531 13 C 5.6244531 10.631 6.8339063 8.4648906 8.6289062 6.8378906 z M 23.371094 6.8378906 C 25.165094 8.4648906 26.375547 10.631 26.810547 13 L 22.703125 13 C 22.411125 12.017 21.902797 11.105844 21.216797 10.339844 L 23.371094 6.8378906 z M 16 12 C 14.346 12 13 13.347906 13 15.003906 C 13 16.655906 14.346 18 16 18 C 17.654 18 19 16.655906 19 15.003906 C 19 13.347906 17.654 12 16 12 z M 16 14 C 16.551 14 17 14.450906 17 15.003906 C 17 15.552906 16.551 16 16 16 C 15.449 16 15 15.552906 15 15.003906 C 15 14.450906 15.449 14 16 14 z M 13.345703 19.306641 L 9.171875 26.109375 L 10.136719 26.601562 C 11.958719 27.529563 13.932 28 16 28 C 18.068 28 20.042281 27.529563 21.863281 26.601562 L 22.828125 26.109375 L 18.652344 19.306641 L 17.861328 19.638672 C 16.719328 20.118672 15.278719 20.118672 14.136719 19.638672 L 13.345703 19.306641 z M 14.185547 21.763672 C 15.344547 22.076672 16.657406 22.076672 17.816406 21.763672 L 19.964844 25.263672 C 17.454844 26.241672 14.547109 26.241672 12.037109 25.263672 L 14.185547 21.763672 z"/></svg>