<svg xmlns="http://www.w3.org/2000/svg" viewBox="0 0 32 32"><path d="M 11.404297 3.359375 C 10.558989 3.3033199 9.7282187 3.4545628 9 3.875 C 8.0290418 4.435583 7.3824561 5.3924554 7.0351562 6.4941406 C 6.6878566 7.5958258 6.6075884 8.8654625 6.734375 10.251953 C 6.7472175 10.392393 6.7719235 10.538778 6.7890625 10.681641 C 6.6565239 10.738327 6.516949 10.790405 6.3886719 10.849609 C 5.1245423 11.433054 4.0655937 12.136668 3.2851562 12.988281 C 2.5047189 13.839894 2 14.878834 2 16 C 2 17.121166 2.5047188 18.160106 3.2851562 19.011719 C 4.0655937 19.863332 5.1245423 20.566946 6.3886719 21.150391 C 6.516949 21.209595 6.6565239 21.261673 6.7890625 21.318359 C 6.7719235 21.461222 6.7472175 21.607607 6.734375 21.748047 C 6.6075884 23.134538 6.6878566 24.404174 7.0351562 25.505859 C 7.3824561 26.607544 8.0290418 27.564417 9 28.125 C 9.9709582 28.685583 11.122263 28.76765 12.25 28.517578 C 13.377738 28.267506 14.516954 27.701483 15.654297 26.898438 C 15.769442 26.817137 15.884905 26.722947 16 26.636719 C 16.115095 26.722947 16.230558 26.817137 16.345703 26.898438 C 17.483046 27.701483 18.622262 28.267506 19.75 28.517578 C 20.877737 28.76765 22.029042 28.685583 23 28.125 C 23.970958 27.564417 24.617544 26.607544 24.964844 25.505859 C 25.312144 24.404174 25.392412 23.134538 25.265625 21.748047 C 25.252783 21.607607 25.228076 21.461222 25.210938 21.318359 C 25.343476 21.261673 25.483051 21.209595 25.611328 21.150391 C 26.875458 20.566946 27.934406 19.863332 28.714844 19.011719 C 29.495281 18.160106 30 17.121166 30 16 C 30 14.878834 29.495281 13.839894 28.714844 12.988281 C 27.934406 12.136668 26.875458 11.433054 25.611328 10.849609 C 25.483051 10.790405 25.343476 10.738327 25.210938 10.681641 C 25.228076 10.538778 25.252783 10.392393 25.265625 10.251953 C 25.392412 8.8654622 25.312144 7.5958262 24.964844 6.4941406 C 24.617544 5.3924558 23.970958 4.435583 23 3.875 C 22.029042 3.314417 20.877737 3.2323501 19.75 3.4824219 C 18.622262 3.7324945 17.483046 4.2985163 16.345703 5.1015625 C 16.230558 5.1828631 16.115095 5.2770534 16 5.3632812 C 15.884905 5.2770534 15.769442 5.1828632 15.654297 5.1015625 C 14.516954 4.2985167 13.377738 3.7324941 12.25 3.4824219 C 11.968066 3.4199038 11.686066 3.37806 11.404297 3.359375 z M 11.273438 5.3515625 C 11.44385 5.3643925 11.625005 5.3926711 11.818359 5.4355469 C 12.574044 5.6031175 13.479049 6.027269 14.433594 6.6914062 C 13.638579 7.445577 12.856199 8.3035536 12.109375 9.2636719 C 10.905846 9.4303655 9.7722189 9.6771858 8.7226562 9.9882812 C 8.6249172 8.8300209 8.708758 7.8336973 8.9414062 7.0957031 C 9.1795887 6.3401532 9.5360797 5.8752664 10 5.6074219 C 10.34794 5.4065385 10.762201 5.3130725 11.273438 5.3515625 z M 20.726562 5.3515625 C 21.237799 5.3130724 21.65206 5.4065385 22 5.6074219 C 22.46392 5.8752664 22.820412 6.3401534 23.058594 7.0957031 C 23.291242 7.8336973 23.375082 8.830021 23.277344 9.9882812 C 22.227781 9.6771858 21.094154 9.4303655 19.890625 9.2636719 C 19.143801 8.3035536 18.361421 7.445577 17.566406 6.6914062 C 18.520951 6.0272696 19.425956 5.6031175 20.181641 5.4355469 C 20.374995 5.3926712 20.556151 5.3643925 20.726562 5.3515625 z M 16 7.9589844 C 16.351492 8.2839608 16.702356 8.645337 17.052734 9.0234375 C 16.704015 9.0111056 16.355492 9 16 9 C 15.644508 9 15.295985 9.0111056 14.947266 9.0234375 C 15.297644 8.645337 15.648508 8.2839609 16 7.9589844 z M 16 11 C 16.964537 11 17.899388 11.05672 18.798828 11.152344 C 19.331359 11.883468 19.847811 12.66469 20.330078 13.5 C 20.81238 14.335371 21.230731 15.173194 21.597656 16 C 21.230731 16.826806 20.81238 17.664629 20.330078 18.5 C 19.847811 19.33531 19.331359 20.116532 18.798828 20.847656 C 17.899388 20.94328 16.964537 21 16 21 C 15.035463 21 14.100612 20.94328 13.201172 20.847656 C 12.668641 20.116532 12.152189 19.33531 11.669922 18.5 C 11.18762 17.664629 10.769268 16.826806 10.402344 16 C 10.769268 15.173194 11.18762 14.335371 11.669922 13.5 C 12.152189 12.66469 12.668641 11.883468 13.201172 11.152344 C 14.100612 11.05672 15.035463 11 16 11 z M 10.484375 11.599609 C 10.299345 11.895429 10.115237 12.192151 9.9375 12.5 C 9.7597627 12.80785 9.5953134 13.115677 9.4316406 13.423828 C 9.2796229 12.932067 9.1426994 12.44671 9.0371094 11.980469 C 9.4941217 11.838603 9.981943 11.71397 10.484375 11.599609 z M 21.515625 11.599609 C 22.018057 11.71397 22.505878 11.838603 22.962891 11.980469 C 22.857301 12.44671 22.720377 12.932067 22.568359 13.423828 C 22.404687 13.115677 22.240237 12.80785 22.0625 12.5 C 21.884763 12.192151 21.700655 11.895429 21.515625 11.599609 z M 7.1542969 12.703125 C 7.409859 13.768497 7.7627696 14.873405 8.2207031 16 C 7.7627696 17.126595 7.409859 18.231503 7.1542969 19.296875 C 6.1028081 18.802492 5.282404 18.230459 4.7597656 17.660156 C 4.2245315 17.076109 4 16.535689 4 16 C 4 15.464311 4.2245315 14.923891 4.7597656 14.339844 C 5.282404 13.769541 6.1028081 13.197508 7.1542969 12.703125 z M 24.845703 12.703125 C 25.897191 13.197508 26.717596 13.769541 27.240234 14.339844 C 27.775468 14.923891 28 15.464311 28 16 C 28 16.535689 27.775468 17.076109 27.240234 17.660156 C 26.717596 18.230459 25.897191 18.802492 24.845703 19.296875 C 24.590141 18.231503 24.23723 17.126595 23.779297 16 C 24.23723 14.873405 24.590141 13.768497 24.845703 12.703125 z M 16 13 C 14.35499 13 13 14.35499 13 16 C 13 17.64501 14.35499 19 16 19 C 17.64501 19 19 17.64501 19 16 C 19 14.35499 17.64501 13 16 13 z M 16 15 C 16.564129 15 17 15.435871 17 16 C 17 16.564129 16.564129 17 16 17 C 15.435871 17 15 16.564129 15 16 C 15 15.435871 15.435871 15 16 15 z M 9.4316406 18.576172 C 9.5953134 18.884323 9.7597627 19.19215 9.9375 19.5 C 10.115237 19.807849 10.299345 20.104571 10.484375 20.400391 C 9.981943 20.28603 9.4941217 20.161397 9.0371094 20.019531 C 9.1426994 19.55329 9.2796229 19.067933 9.4316406 18.576172 z M 22.568359 18.576172 C 22.720377 19.067933 22.857301 19.55329 22.962891 20.019531 C 22.505878 20.161397 22.018057 20.28603 21.515625 20.400391 C 21.700655 20.104571 21.884763 19.807849 22.0625 19.5 C 22.240237 19.19215 22.404687 18.884323 22.568359 18.576172 z M 8.7226562 22.011719 C 9.7722189 22.322814 10.905846 22.569634 12.109375 22.736328 C 12.856199 23.696446 13.638579 24.554423 14.433594 25.308594 C 13.479049 25.97273 12.574044 26.396882 11.818359 26.564453 C 11.044942 26.735955 10.46392 26.660422 10 26.392578 C 9.5360797 26.124733 9.1795888 25.659846 8.9414062 24.904297 C 8.708758 24.166302 8.6249172 23.169979 8.7226562 22.011719 z M 23.277344 22.011719 C 23.375082 23.169979 23.29124 24.166302 23.058594 24.904297 C 22.820412 25.659847 22.46392 26.124733 22 26.392578 C 21.53608 26.660422 20.955057 26.735956 20.181641 26.564453 C 19.425956 26.396882 18.520951 25.97273 17.566406 25.308594 C 18.361421 24.554423 19.143801 23.696446 19.890625 22.736328 C 21.094154 22.569634 22.227781 22.322814 23.277344 22.011719 z M 14.947266 22.976562 C 15.295985 22.988894 15.644508 23 16 23 C 16.355492 23 16.704015 22.988894 17.052734 22.976562 C 16.702356 23.354663 16.351492 23.716039 16 24.041016 C 15.648508 23.716039 15.297644 23.354663 14.947266 22.976562 z"/></svg>