<svg xmlns="http://www.w3.org/2000/svg" viewBox="0 0 32 32"><path d="M 5 5 L 5 27 L 27 27 L 27 5 L 5 5 z M 7 7 L 25 7 L 25 25 L 7 25 L 7 7 z M 17.058594 8.9941406 C 16.880594 8.9641406 16.704109 9.0817188 16.662109 9.2617188 L 15.798828 13.007812 C 14.128828 13.049812 12.634078 13.601844 11.580078 14.464844 C 11.307078 14.179844 10.926 14 10.5 14 C 9.672 14 9 14.672 9 15.5 C 9 16.172 9.4456875 16.734781 10.054688 16.925781 C 10.022687 17.114781 10 17.305 10 17.5 C 10 19.985 12.686 22 16 22 C 19.314 22 22 19.985 22 17.5 C 22 17.305 21.977312 17.114781 21.945312 16.925781 C 22.554312 16.734781 23 16.172 23 15.5 C 23 14.672 22.328 14 21.5 14 C 21.074 14 20.692922 14.179844 20.419922 14.464844 C 19.431922 13.655844 18.056672 13.117531 16.513672 13.019531 L 17.269531 9.7382812 L 20.039062 10.195312 C 20.132062 10.650313 20.517 11 21 11 C 21.552 11 22 10.552 22 10 C 22 9.448 21.552 9 21 9 C 20.632 9 20.324391 9.2088594 20.150391 9.5058594 L 17.058594 8.9941406 z M 13.091797 15.818359 C 13.694797 15.818359 14.181641 16.305203 14.181641 16.908203 C 14.181641 17.511203 13.693797 18 13.091797 18 C 12.489797 18 12 17.511203 12 16.908203 C 12 16.306203 12.488797 15.818359 13.091797 15.818359 z M 18.908203 15.818359 C 19.511203 15.818359 20 16.306203 20 16.908203 C 20 17.510203 19.511203 18 18.908203 18 C 18.306203 18 17.818359 17.511203 17.818359 16.908203 C 17.818359 16.305203 18.305203 15.818359 18.908203 15.818359 z M 13.472656 19.021484 C 13.562031 19.014609 13.654063 19.042469 13.726562 19.105469 C 14.880562 20.093469 17.117484 20.093469 18.271484 19.105469 C 18.417484 18.980469 18.639625 18.995578 18.765625 19.142578 C 18.891625 19.289578 18.875516 19.510719 18.728516 19.636719 C 18.027516 20.238719 17.033 20.583984 16 20.583984 C 14.967 20.583984 13.973484 20.238719 13.271484 19.636719 C 13.124484 19.510719 13.108375 19.289578 13.234375 19.142578 C 13.297375 19.069078 13.383281 19.028359 13.472656 19.021484 z"/></svg>