<svg xmlns="http://www.w3.org/2000/svg" viewBox="0 0 32 32"><path d="M 16 3 C 8.832031 3 3 8.832031 3 16 C 3 23.167969 8.832031 29 16 29 C 23.167969 29 29 23.167969 29 16 C 29 8.832031 23.167969 3 16 3 Z M 16 5 C 22.085938 5 27 9.914063 27 16 C 27 22.085938 22.085938 27 16 27 C 9.914063 27 5 22.085938 5 16 C 5 9.914063 9.914063 5 16 5 Z M 12 10 L 12 22 L 14 22 L 14 18 L 17.40625 18 L 19 22 L 21 22 L 19.3125 17.75 C 20.875 17.207031 22 15.75 22 14 C 22 11.789063 20.210938 10 18 10 Z M 14 12 L 18 12 C 19.191406 12 20 12.808594 20 14 C 20 15.191406 19.191406 16 18 16 L 14 16 Z"/></svg>