<svg xmlns="http://www.w3.org/2000/svg" viewBox="0 0 32 32"><path d="M 9 4 C 6.800781 4 5 5.800781 5 8 C 5 9.113281 5.476563 10.117188 6.21875 10.84375 C 4.886719 11.746094 4 13.285156 4 15 L 4 20.625 L 6 21.625 L 6 28 L 12 28 L 12 21.625 L 14 20.625 L 14 15 C 14 13.285156 13.113281 11.746094 11.78125 10.84375 C 12.523438 10.117188 13 9.113281 13 8 C 13 5.800781 11.199219 4 9 4 Z M 22 4 C 19.800781 4 18 5.800781 18 8 C 18 9.152344 18.523438 10.175781 19.3125 10.90625 C 18.40625 11.585938 17.746094 12.597656 17.53125 13.8125 C 17.53125 13.824219 17.53125 13.832031 17.53125 13.84375 L 16.03125 21.8125 L 15.78125 23 L 19 23 L 19 28 L 25 28 L 25 23 L 28.21875 23 L 27.96875 21.8125 L 26.46875 13.84375 C 26.46875 13.832031 26.46875 13.824219 26.46875 13.8125 C 26.253906 12.597656 25.59375 11.585938 24.6875 10.90625 C 25.476563 10.175781 26 9.152344 26 8 C 26 5.800781 24.199219 4 22 4 Z M 9 6 C 10.117188 6 11 6.882813 11 8 C 11 9.117188 10.117188 10 9 10 C 7.882813 10 7 9.117188 7 8 C 7 6.882813 7.882813 6 9 6 Z M 22 6 C 23.117188 6 24 6.882813 24 8 C 24 9.117188 23.117188 10 22 10 C 20.882813 10 20 9.117188 20 8 C 20 6.882813 20.882813 6 22 6 Z M 9 12 C 10.65625 12 12 13.34375 12 15 L 12 19.375 L 10 20.375 L 10 26 L 8 26 L 8 20.375 L 6 19.375 L 6 15 C 6 13.34375 7.34375 12 9 12 Z M 22 12 C 23.230469 12 24.277344 12.816406 24.5 14.15625 L 24.5 14.1875 L 24.53125 14.1875 L 25.8125 21 L 23 21 L 23 26 L 21 26 L 21 21 L 18.1875 21 L 19.46875 14.1875 L 19.5 14.1875 L 19.5 14.15625 C 19.722656 12.816406 20.769531 12 22 12 Z"/></svg>