<svg xmlns="http://www.w3.org/2000/svg" viewBox="0 0 32 32"><path d="M 16 4 C 14.898438 4 12.398438 4 11.5 5.5 L 11.5 5.59375 C 11.398438 5.792969 9.8125 9.292969 9.3125 10.59375 C 8.710938 12.195313 9.414063 14.113281 10.3125 15.3125 C 11.011719 16.414063 19.699219 27.195313 20 27.59375 L 20.59375 28.40625 L 25.59375 24.3125 L 25.09375 23.5 C 23.992188 22.101563 22.085938 19.804688 20.1875 17.40625 C 21.585938 15.707031 21.8125 15.414063 21.8125 15.3125 C 22.710938 14.113281 23.414063 12.195313 22.8125 10.59375 C 22.3125 9.292969 20.695313 5.792969 20.59375 5.59375 L 20.59375 5.5 C 20.59375 5.398438 20.5 5.414063 20.5 5.3125 C 19.300781 4.011719 17 4 16 4 Z M 16 6 C 17.800781 6 18.488281 6.300781 18.6875 6.5 C 18.6875 6.699219 18.695313 7.011719 18.59375 7.3125 L 18.59375 7.5 C 18.59375 7.699219 18.507813 7.886719 18.40625 8.1875 C 17.804688 7.988281 17.101563 8 16 8 C 14.898438 8 14.195313 7.992188 13.59375 8.09375 C 13.492188 7.894531 13.507813 7.605469 13.40625 7.40625 L 13.40625 7.1875 C 13.304688 6.789063 13.3125 6.605469 13.3125 6.40625 C 13.511719 6.304688 14.199219 6 16 6 Z M 11.90625 9.5 C 12.105469 10.101563 12.40625 10.800781 12.90625 11.5 C 13.707031 12.699219 20.605469 21.199219 22.90625 24 L 21 25.59375 C 18.101563 22.09375 12.40625 14.988281 11.90625 14.1875 C 11.304688 13.386719 10.792969 12.113281 11.09375 11.3125 C 11.195313 10.914063 11.507813 10.199219 11.90625 9.5 Z M 20.09375 9.5 C 20.394531 10.199219 20.707031 10.914063 20.90625 11.3125 C 21.207031 12.113281 20.695313 13.386719 20.09375 14.1875 C 19.992188 14.289063 19.710938 14.710938 18.8125 15.8125 C 18.3125 15.113281 17.6875 14.507813 17.1875 13.90625 C 18.6875 12.007813 18.992188 11.601563 19.09375 11.5 C 19.492188 10.800781 19.894531 10.101563 20.09375 9.5 Z M 14.40625 10 L 17.59375 10 C 17.492188 10.101563 17.507813 10.207031 17.40625 10.40625 C 17.40625 10.605469 17 11.011719 16 12.3125 C 15.300781 11.414063 14.695313 10.707031 14.59375 10.40625 C 14.492188 10.304688 14.507813 10.199219 14.40625 10 Z M 10.90625 18.59375 C 8.804688 21.195313 6.90625 23.5 6.90625 23.5 L 6.3125 24.3125 L 11.3125 28.40625 L 12 27.59375 C 12 27.59375 13.394531 25.914063 15.09375 23.8125 C 14.695313 23.3125 14.210938 22.6875 13.8125 22.1875 C 12.613281 23.585938 11.601563 24.792969 11 25.59375 L 9.09375 24 C 9.792969 23.199219 10.886719 21.789063 12.1875 20.1875 C 11.6875 19.585938 11.304688 19.09375 10.90625 18.59375 Z"/></svg>