<svg xmlns="http://www.w3.org/2000/svg" viewBox="0 0 32 32"><path d="M 25.90625 4 C 25.210938 4 24.242188 4.03125 23.21875 4.125 C 21.171875 4.316406 18.808594 4.660156 17.34375 6.125 C 16.113281 7.355469 13.570313 10.621094 11.21875 13.6875 C 10.753906 14.292969 10.773438 14.28125 10.34375 14.84375 L 8.625 14.75 C 7.347656 14.683594 6.117188 15.222656 5.3125 16.21875 L 3.21875 18.78125 L 2.1875 20.09375 L 3.8125 20.40625 L 7.09375 21.0625 L 10.9375 24.90625 L 11.59375 28.1875 L 11.9375 29.8125 L 13.21875 28.78125 L 15.78125 26.6875 C 16.777344 25.882813 17.316406 24.652344 17.25 23.375 L 17.15625 21.6875 C 17.738281 21.246094 17.71875 21.257813 18.34375 20.78125 C 21.417969 18.425781 24.695313 15.898438 25.90625 14.6875 C 27.359375 13.234375 27.683594 10.835938 27.875 8.78125 C 28.066406 6.726563 27.96875 4.96875 27.96875 4.96875 L 27.9375 4.0625 L 27.03125 4.03125 C 27.03125 4.03125 26.601563 4 25.90625 4 Z M 25 6 C 25.398438 6 25.679688 6.023438 25.96875 6.03125 C 25.980469 6.613281 26.003906 7.21875 25.875 8.59375 C 25.699219 10.488281 25.121094 12.597656 24.46875 13.25 C 23.578125 14.140625 20.1875 16.839844 17.125 19.1875 C 14.417969 21.261719 12.511719 22.71875 11.96875 23.125 L 8.90625 20.0625 C 9.316406 19.511719 10.71875 17.597656 12.78125 14.90625 C 15.125 11.851563 17.832031 8.449219 18.75 7.53125 C 19.433594 6.847656 21.519531 6.269531 23.40625 6.09375 C 24.089844 6.03125 24.601563 6 25 6 Z M 20.4375 9.53125 C 19.320313 9.53125 18.4375 10.445313 18.4375 11.5625 C 18.4375 12.679688 19.320313 13.59375 20.4375 13.59375 C 21.554688 13.59375 22.46875 12.679688 22.46875 11.5625 C 22.46875 10.445313 21.554688 9.53125 20.4375 9.53125 Z M 8.5 16.75 L 8.875 16.78125 C 8.273438 17.578125 7.289063 18.855469 7.15625 19.03125 L 5.8125 18.75 L 6.84375 17.5 C 7.246094 17.003906 7.859375 16.714844 8.5 16.75 Z M 6.21875 21.9375 C 5.363281 22.792969 4.875 23.976563 4.53125 24.96875 C 4.1875 25.960938 4.03125 26.78125 4.03125 26.78125 L 3.71875 28.25 L 5.1875 27.96875 C 5.1875 27.96875 5.984375 27.832031 6.96875 27.5 C 7.953125 27.167969 9.136719 26.675781 10.03125 25.78125 L 8.625 24.375 C 8.179688 24.820313 7.296875 25.210938 6.5 25.5 C 6.804688 24.667969 7.25 23.722656 7.625 23.34375 Z M 15.21875 23.125 L 15.25 23.5 C 15.285156 24.140625 15.03125 24.753906 14.53125 25.15625 L 13.25 26.1875 L 12.96875 24.84375 C 13.144531 24.714844 14.421875 23.722656 15.21875 23.125 Z"/></svg>