<svg xmlns="http://www.w3.org/2000/svg" viewBox="0 0 32 32"><path d="M 19 3 C 13.489 3 9 7.489 9 13 C 9 15.395 9.839 17.5875 11.25 19.3125 L 3.28125 27.28125 L 4.71875 28.720703 L 12.6875 20.751953 C 14.4115 22.161953 16.605 23 19 23 C 24.511 23 29 18.511 29 13 C 29 7.489 24.511 3 19 3 z M 19 5 C 23.43 5 27 8.57 27 13 C 27 17.43 23.43 21 19 21 C 14.57 21 11 17.43 11 13 C 11 8.57 14.57 5 19 5 z M 19 8 C 16.791 8 15 9.791 15 12 C 15 15 19 19 19 19 C 19 19 23 15 23 12 C 23 9.791 21.209 8 19 8 z M 19 10 C 20.105 10 21 10.895 21 12 C 21 13.104 20.105 14 19 14 C 17.895 14 17 13.104 17 12 C 17 10.895 17.895 10 19 10 z"/></svg>