<svg xmlns="http://www.w3.org/2000/svg" viewBox="0 0 32 32"><path d="M 10 3 C 7.804688 3 6.203125 4.605469 5.28125 6.5 C 4.359375 8.394531 3.960938 10.679688 4 12.6875 C 4.046875 15.019531 5.0625 17.375 5.0625 17.375 L 5.34375 18 L 13.75 18 L 13.96875 17.25 C 13.96875 17.25 14.757813 14.308594 14.96875 11.5 C 15.050781 10.394531 15.015625 8.472656 14.40625 6.65625 C 14.101563 5.746094 13.660156 4.855469 12.9375 4.15625 C 12.214844 3.457031 11.1875 3 10 3 Z M 22 3 C 20.8125 3 19.785156 3.457031 19.0625 4.15625 C 18.339844 4.855469 17.898438 5.746094 17.59375 6.65625 C 16.984375 8.472656 16.949219 10.394531 17.03125 11.5 C 17.242188 14.308594 18.03125 17.25 18.03125 17.25 L 18.25 18 L 26.65625 18 L 26.9375 17.375 C 26.9375 17.375 27.953125 15.019531 28 12.6875 C 28.039063 10.679688 27.640625 8.394531 26.71875 6.5 C 25.796875 4.605469 24.195313 3 22 3 Z M 10 5 C 10.703125 5 11.128906 5.203125 11.53125 5.59375 C 11.933594 5.984375 12.292969 6.605469 12.53125 7.3125 C 13.003906 8.726563 13.0625 10.527344 13 11.375 C 12.835938 13.550781 12.316406 15.371094 12.15625 16 L 6.71875 16 C 6.476563 15.316406 6.027344 13.984375 6 12.65625 C 5.964844 10.960938 6.355469 8.894531 7.09375 7.375 C 7.832031 5.855469 8.769531 5 10 5 Z M 22 5 C 23.230469 5 24.167969 5.855469 24.90625 7.375 C 25.644531 8.894531 26.03125 10.960938 26 12.65625 C 25.972656 13.984375 25.523438 15.316406 25.28125 16 L 19.84375 16 C 19.683594 15.371094 19.164063 13.550781 19 11.375 C 18.9375 10.527344 18.996094 8.726563 19.46875 7.3125 C 19.707031 6.605469 20.066406 5.984375 20.46875 5.59375 C 20.871094 5.203125 21.296875 5 22 5 Z M 5 21 L 5 22 C 4.988281 23.378906 5.121094 24.988281 5.8125 26.40625 C 6.503906 27.824219 7.957031 29 10 29 C 12.261719 29 13.980469 26.785156 14 24 C 14.003906 23.355469 13.976563 22.597656 13.75 21.75 L 13.5625 21 Z M 18.4375 21 L 18.25 21.75 C 18.023438 22.597656 17.996094 23.355469 18 24 C 18.019531 26.785156 19.738281 29 22 29 C 24.042969 29 25.496094 27.824219 26.1875 26.40625 C 26.878906 24.988281 27.011719 23.378906 27 22 L 27 21 Z M 7.15625 23 L 11.90625 23 C 11.941406 23.328125 12.003906 23.664063 12 24 C 11.984375 26.023438 10.929688 27 10 27 C 8.621094 27 8.050781 26.464844 7.59375 25.53125 C 7.265625 24.863281 7.226563 23.902344 7.15625 23 Z M 20.09375 23 L 24.84375 23 C 24.773438 23.902344 24.734375 24.863281 24.40625 25.53125 C 23.949219 26.464844 23.378906 27 22 27 C 21.070313 27 20.015625 26.023438 20 24 C 19.996094 23.664063 20.058594 23.328125 20.09375 23 Z"/></svg>