<svg xmlns="http://www.w3.org/2000/svg" viewBox="0 0 32 32"><path d="M 16 3 C 8.832 3 3 8.832 3 16 C 3 23.168 8.832 29 16 29 C 23.168 29 29 23.168 29 16 C 29 8.832 23.168 3 16 3 z M 16 5 C 22.065 5 27 9.935 27 16 C 27 22.065 22.065 27 16 27 C 9.935 27 5 22.065 5 16 C 5 9.935 9.935 5 16 5 z M 11 12 C 8.906 12 7.390625 13.207031 7.390625 13.207031 L 8.609375 14.792969 C 8.609375 14.792969 9.6929531 14 11.001953 14 C 12.310953 14 13.392578 14.792969 13.392578 14.792969 L 14.611328 13.207031 C 14.609328 13.207031 13.094 12 11 12 z M 21 12 C 18.906 12 17.390625 13.207031 17.390625 13.207031 L 18.609375 14.792969 C 18.609375 14.792969 19.692953 14 21.001953 14 C 22.310953 14 23.392578 14.792969 23.392578 14.792969 L 24.611328 13.207031 C 24.609328 13.207031 23.094 12 21 12 z M 10.810547 19 L 9.0898438 20 C 9.2635938 20.29875 9.455 20.584668 9.6640625 20.857422 C 9.873125 21.130176 10.100547 21.389297 10.341797 21.632812 C 10.824297 22.119844 11.368438 22.545859 11.960938 22.896484 C 12.257188 23.071797 12.56375 23.228887 12.882812 23.365234 C 13.201875 23.501582 13.532344 23.616797 13.871094 23.710938 C 14.209844 23.805078 14.55875 23.87709 14.914062 23.925781 C 15.269375 23.974473 15.63125 24 16 24 C 16.36875 24 16.730625 23.974473 17.085938 23.925781 C 18.8625 23.682324 20.451953 22.850391 21.658203 21.632812 C 21.899453 21.389297 22.126875 21.130176 22.335938 20.857422 C 22.545 20.584668 22.736406 20.29875 22.910156 20 L 21.189453 19 C 20.279453 20.56625 18.695957 21.689238 16.820312 21.945312 C 16.552363 21.981895 16.27875 22 16 22 C 15.72125 22 15.447637 21.981895 15.179688 21.945312 C 14.911738 21.90873 14.649453 21.853906 14.394531 21.783203 C 13.884688 21.641797 13.403359 21.435 12.958984 21.171875 C 12.514609 20.90875 12.107188 20.589766 11.746094 20.224609 C 11.565547 20.042031 11.396621 19.846973 11.240234 19.642578 C 11.083848 19.438184 10.940547 19.22375 10.810547 19 z"/></svg>