<svg xmlns="http://www.w3.org/2000/svg" viewBox="0 0 32 32"><path d="M 8 5 C 4.686 5 2 7.686 2 11 C 2 14.314 4.686 17 8 17 L 15.023438 17 C 15.936438 18.208 17.37 19 19 19 C 20.63 19 22.064563 18.208 22.976562 17 L 25.5 17 C 27.985 17 30 14.985 30 12.5 C 30 10.015 27.985 8 25.5 8 C 24.596 8 23.757734 8.2714688 23.052734 8.7304688 C 22.157734 6.5424688 20.01 5 17.5 5 C 15.564 5 13.847 5.92075 12.75 7.34375 C 11.653 5.92075 9.936 5 8 5 z M 5 21 L 5 23 L 30 23 L 30 21 L 5 21 z M 2 25 L 2 27 L 9 27 L 9 25 L 2 25 z M 11 25 L 11 27 L 27 27 L 27 25 L 11 25 z"/></svg>