<svg xmlns="http://www.w3.org/2000/svg" viewBox="0 0 32 32"><path d="M 16.03125 4 C 15.671875 4.359375 15.40625 4.785156 15.09375 5.46875 C 14.78125 6.152344 14.503906 7.011719 14.5 7.96875 C 14.496094 8.925781 14.828125 10.019531 15.6875 10.84375 C 16.546875 11.667969 17.859375 12.203125 19.6875 12.4375 C 21.210938 12.632813 22.191406 12.882813 22.75 13.21875 C 23.308594 13.554688 23.539063 13.898438 23.71875 14.71875 L 25.6875 14.28125 C 25.429688 13.101563 24.777344 12.097656 23.78125 11.5 C 22.785156 10.902344 21.566406 10.644531 19.9375 10.4375 C 18.378906 10.238281 17.507813 9.800781 17.0625 9.375 C 16.617188 8.949219 16.5 8.511719 16.5 7.96875 C 16.5 7.425781 16.675781 6.816406 16.90625 6.3125 C 17.136719 5.808594 17.492188 5.351563 17.4375 5.40625 Z M 21.5625 4.3125 L 21.5625 6.3125 C 22.183594 6.3125 22.984375 6.40625 23.59375 6.75 C 24.203125 7.09375 24.71875 7.601563 24.84375 9.0625 L 24.9375 10 L 25.84375 10 C 26.359375 10 27.433594 10.160156 27.96875 10.625 C 28.234375 10.859375 28.40625 11.132813 28.46875 11.65625 C 28.53125 12.179688 28.4375 12.980469 27.96875 14.125 L 29.84375 14.875 C 30.402344 13.515625 30.585938 12.386719 30.46875 11.40625 C 30.351563 10.425781 29.875 9.644531 29.28125 9.125 C 28.378906 8.335938 27.398438 8.132813 26.59375 8.0625 C 26.246094 6.617188 25.523438 5.527344 24.59375 5 C 23.472656 4.363281 22.304688 4.3125 21.5625 4.3125 Z M 1 16 L 1 22 L 31 22 L 31 16 Z M 3 18 L 23 18 L 23 20 L 3 20 Z M 25 18 L 26 18 L 26 20 L 25 20 Z M 28 18 L 29 18 L 29 20 L 28 20 Z"/></svg>