<svg xmlns="http://www.w3.org/2000/svg" viewBox="0 0 32 32"><path d="M 5 5 L 5 27 L 27 27 L 27 5 L 5 5 z M 7 7 L 25 7 L 25 25 L 7 25 L 7 7 z M 16.119141 9.9980469 C 16.098141 9.9980469 15.905766 10.003906 15.884766 10.003906 C 15.391766 10.003906 13.712922 10.152109 12.919922 12.037109 C 12.619922 12.753109 12.736156 14.031734 12.785156 14.927734 C 12.746156 14.949734 12.668734 14.980469 12.552734 14.980469 C 12.394734 14.980469 12.208 14.927266 12 14.822266 C 11.736 14.691266 11.284516 14.889984 11.228516 15.208984 C 11.193516 15.392984 11.269172 15.662531 11.826172 15.894531 C 12.041172 15.988531 12.553828 16.094625 12.673828 16.390625 C 12.723828 16.514625 12.705187 16.672375 12.617188 16.859375 C 12.614187 16.863375 12.609375 16.865141 12.609375 16.869141 C 12.577375 16.944141 11.844891 18.724766 10.212891 19.009766 C 10.085891 19.031766 9.9988594 19.152109 10.005859 19.287109 C 10.030859 19.808109 11.123375 20.010844 11.609375 20.089844 C 11.659375 20.160844 11.698719 20.460453 11.761719 20.689453 C 11.790719 20.790453 11.864688 20.914062 12.054688 20.914062 C 12.244688 20.914062 12.521891 20.798828 12.962891 20.798828 C 13.582891 20.798828 13.79525 20.9485 14.28125 21.3125 C 14.63025 21.5745 15.250234 22.054141 15.990234 21.994141 C 16.723234 22.028141 17.213609 21.6985 17.724609 21.3125 C 18.207609 20.9485 18.422969 20.798828 19.042969 20.798828 C 19.500969 20.798828 19.732172 20.90625 19.951172 20.90625 L 19.957031 20.90625 C 20.112031 20.90625 20.203187 20.824547 20.242188 20.685547 C 20.306188 20.456547 20.345531 20.160844 20.394531 20.089844 C 21.335531 19.932844 21.851609 19.712203 21.974609 19.408203 C 22.052609 19.210203 21.942781 19.040953 21.800781 19.001953 C 20.168781 18.716953 19.436297 16.936328 19.404297 16.861328 C 19.401297 16.857328 19.400484 16.855563 19.396484 16.851562 C 19.312484 16.663563 19.292797 16.506812 19.341797 16.382812 C 19.433797 16.146812 19.782719 16.030172 20.011719 15.951172 C 20.075719 15.928172 20.134594 15.908719 20.183594 15.886719 C 20.588594 15.718719 20.793063 15.509625 20.789062 15.265625 C 20.785062 15.074625 20.645828 14.904359 20.423828 14.818359 C 20.282828 14.758359 20.084359 14.747359 19.943359 14.818359 C 19.749359 14.915359 19.577781 14.969563 19.425781 14.976562 C 19.326781 14.973563 19.263609 14.945828 19.224609 14.923828 C 19.273609 14.023828 19.391797 12.749203 19.091797 12.033203 C 18.517797 10.665203 17.342141 9.9980469 16.119141 9.9980469 z"/></svg>