<svg xmlns="http://www.w3.org/2000/svg" viewBox="0 0 32 32"><path d="M 19.625 9.0507812 C 18.738281 9.0507812 17.871094 9.2265625 17.109375 9.5234375 C 16.8125 9.6367185 16.730469 9.753906 16.730469 9.984375 L 16.730469 22.476562 C 16.730469 22.71875 16.917969 22.90625 17.152344 22.929688 L 28.0625 22.929688 C 30.238281 22.929688 32 21.1875 32 19.011719 C 32 16.839844 30.238281 15.074219 28.0625 15.074219 C 27.523438 15.074219 27.011719 15.183594 26.542969 15.382812 C 26.230469 11.835938 23.253906 9.0507813 19.625 9.0507812 z M 15.925781 9.9726562 C 15.820313 9.9726562 15.726563 10.011719 15.652344 10.074219 C 15.554688 10.152344 15.492187 10.273438 15.492188 10.40625 L 15.492188 10.449219 L 15.3125 19.273438 L 15.402344 20.902344 L 15.492188 22.492188 C 15.496093 22.726562 15.6875 22.921875 15.925781 22.921875 C 16.160156 22.921875 16.355469 22.726563 16.359375 22.488281 L 16.550781 19.273438 L 16.359375 10.40625 C 16.355469 10.25 16.269531 10.113281 16.144531 10.035156 C 16.078125 9.9960942 16.003906 9.9726562 15.925781 9.9726562 z M 14.582031 10.738281 C 14.5 10.738281 14.425781 10.761719 14.363281 10.804688 C 14.25 10.874999 14.175781 11 14.175781 11.144531 L 14.175781 11.21875 L 14.023438 19.269531 C 14.023438 19.273438 14.175781 22.539062 14.175781 22.539062 L 14.175781 22.550781 C 14.179688 22.644531 14.214844 22.726563 14.269531 22.792969 C 14.347656 22.882813 14.457031 22.941406 14.582031 22.941406 C 14.691406 22.941406 14.792969 22.894531 14.867188 22.820312 C 14.937499 22.746094 14.984375 22.648438 14.988281 22.535156 L 15.003906 22.210938 L 15.160156 19.269531 L 14.988281 11.140625 C 14.984375 11.003906 14.910156 10.878906 14.804688 10.808594 C 14.738281 10.761719 14.664063 10.738281 14.582031 10.738281 z M 10.5625 11.671875 C 10.386719 11.671875 10.242188 11.8125 10.238281 11.992188 L 10.035156 19.269531 L 10.238281 22.609375 C 10.242188 22.789063 10.386719 22.929688 10.5625 22.929688 C 10.738281 22.929688 10.878906 22.789063 10.886719 22.609375 L 11.113281 19.269531 L 10.886719 11.992188 C 10.878906 11.812499 10.738281 11.671875 10.5625 11.671875 z M 11.890625 11.832031 C 11.699219 11.832031 11.542969 11.984375 11.539062 12.179688 L 11.351562 19.269531 L 11.539062 22.578125 C 11.542968 22.773438 11.699219 22.925781 11.890625 22.925781 C 12.082031 22.925781 12.234375 22.773438 12.242188 22.578125 L 12.449219 19.269531 L 12.242188 12.179688 C 12.238281 11.984374 12.082031 11.832031 11.890625 11.832031 z M 9.2421875 11.9375 C 9.0820305 11.9375 8.9531245 12.066406 8.9453125 12.230469 L 8.7265625 19.269531 L 8.9453125 22.632812 C 8.9531245 22.796875 9.0820305 22.925781 9.2421875 22.925781 C 9.4023435 22.925781 9.5312495 22.796875 9.5390625 22.628906 L 9.7851562 19.269531 L 9.5390625 12.230469 C 9.5312495 12.066406 9.4023435 11.9375 9.2421875 11.9375 z M 13.230469 12.0625 C 13.023438 12.0625 12.855469 12.226563 12.851562 12.4375 L 12.683594 19.269531 L 12.851562 22.558594 C 12.855468 22.765625 13.019531 22.933594 13.230469 22.933594 C 13.4375 22.933594 13.605469 22.765625 13.609375 22.554688 L 13.800781 19.269531 L 13.609375 12.4375 C 13.605469 12.226563 13.4375 12.0625 13.230469 12.0625 z M 7.9140625 12.523438 C 7.7695305 12.523438 7.6484383 12.640625 7.6445312 12.789062 L 7.4101562 19.285156 L 7.6445312 22.683594 C 7.6484382 22.832031 7.7695305 22.949219 7.9140625 22.949219 C 8.0585935 22.949219 8.1757808 22.832031 8.1835938 22.683594 L 8.4492188 19.289062 L 8.1835938 12.789062 C 8.1757808 12.640624 8.0585935 12.523438 7.9140625 12.523438 z M 6.6367188 13.742188 C 6.5078127 13.742188 6.3984383 13.847656 6.3945312 13.980469 L 6.1445312 19.269531 L 6.3945312 22.683594 C 6.4023443 22.816406 6.5078127 22.925781 6.6367188 22.925781 C 6.7656247 22.925781 6.8710943 22.816406 6.8789062 22.683594 L 7.1601562 19.269531 L 6.8789062 13.980469 C 6.8710943 13.847656 6.7656247 13.742187 6.6367188 13.742188 z M 4.0703125 15.578125 C 3.9726555 15.578125 3.8906245 15.65625 3.8828125 15.765625 L 3.6015625 19.265625 L 3.8828125 22.65625 C 3.8906245 22.761719 3.9726555 22.839844 4.0703125 22.839844 C 4.1679685 22.839844 4.2499995 22.761719 4.2578125 22.65625 L 4.578125 19.265625 L 4.2578125 15.761719 C 4.2499995 15.65625 4.1679685 15.578125 4.0703125 15.578125 z M 2.8046875 15.699219 C 2.7187495 15.699219 2.6523442 15.765625 2.6445312 15.855469 L 2.34375 19.265625 L 2.6445312 22.550781 C 2.6523442 22.640625 2.7187495 22.707031 2.8046875 22.707031 C 2.8867185 22.707031 2.9531248 22.640625 2.9648438 22.550781 L 3.3007812 19.265625 L 2.9648438 15.855469 C 2.9531248 15.765625 2.8867185 15.699219 2.8046875 15.699219 z M 5.3476562 15.804688 C 5.2343753 15.804688 5.1406245 15.894531 5.1328125 16.015625 L 4.8671875 19.265625 L 5.1328125 22.683594 C 5.1406245 22.804688 5.2343753 22.894531 5.3476562 22.894531 C 5.4609382 22.894531 5.554688 22.804688 5.5625 22.683594 L 5.8632812 19.265625 L 5.5625 16.015625 C 5.554688 15.894531 5.4609383 15.804687 5.3476562 15.804688 z M 1.546875 16.261719 C 1.476563 16.261719 1.4218753 16.316406 1.4101562 16.390625 L 1.0976562 19.265625 L 1.4101562 22.074219 C 1.4218753 22.152344 1.476563 22.207031 1.546875 22.207031 C 1.613281 22.207031 1.6679685 22.152344 1.6796875 22.078125 L 2.0351562 19.265625 L 1.6796875 16.390625 C 1.6679685 16.316406 1.613281 16.261719 1.546875 16.261719 z M 0.36328125 17.363281 C 0.29687525 17.363281 0.242188 17.414063 0.234375 17.488281 L 0 19.265625 L 0.234375 21.011719 C 0.242188 21.085938 0.29687525 21.136719 0.36328125 21.136719 C 0.42578125 21.136719 0.48046925 21.085938 0.48828125 21.015625 L 0.765625 19.265625 L 0.48828125 17.488281 C 0.48046925 17.414063 0.42578125 17.363281 0.36328125 17.363281 z"/></svg>