<svg xmlns="http://www.w3.org/2000/svg" viewBox="0 0 32 32"><path d="M 17.378906 4.9179688 C 16.331437 4.9330156 15.328156 5.3603438 14.597656 6.1523438 L 12.65625 8.4511719 C 12.29325 8.8451719 11.7265 9.048 11.0625 9 L 7.96875 9 C 6.30275 9 4.8809063 9.8206719 4.2539062 11.138672 C 3.7409062 12.219672 3.8908906 13.424828 4.7128906 14.423828 L 6.7109375 16.476562 C 6.9809375 16.809563 7.0653594 17.087328 6.8183594 17.611328 L 5.3769531 20.132812 C 4.8299531 21.281812 4.9831094 22.564359 5.7871094 23.568359 C 6.6821094 24.684359 8.2012656 25.192609 9.6972656 24.849609 L 12.582031 24.070312 C 13.155031 23.939312 13.756562 24.067547 14.226562 24.435547 L 16.736328 26.242188 C 17.427328 26.786187 18.269953 27.066406 19.126953 27.066406 C 19.670953 27.066406 20.220234 26.953656 20.740234 26.722656 C 21.964234 26.182656 22.750797 25.111516 22.841797 23.853516 L 23.042969 21.066406 C 23.074969 20.610406 23.370859 20.191016 23.880859 19.916016 L 26.150391 18.533203 C 27.383391 17.872203 28.087234 16.642219 27.990234 15.324219 C 27.891234 13.978219 26.986859 12.839516 25.630859 12.353516 L 22.751953 11.320312 C 22.237953 11.136313 21.860141 10.751969 21.744141 10.292969 L 21.056641 7.5703125 C 20.741641 6.3253125 19.760641 5.3819688 18.431641 5.0429688 C 18.081141 4.9542188 17.728063 4.9129531 17.378906 4.9179688 z M 17.494141 6.9199219 C 17.650688 6.9249219 17.800047 6.9462187 17.935547 6.9804688 C 18.542547 7.1344688 18.983234 7.5405 19.115234 8.0625 L 19.802734 10.783203 C 20.082734 11.888203 20.929266 12.792125 22.072266 13.203125 L 24.953125 14.236328 C 25.564125 14.454328 25.953141 14.917656 25.994141 15.472656 C 26.034141 16.007656 25.74625 16.479875 25.15625 16.796875 L 22.888672 18.181641 C 21.818672 18.755641 21.129875 19.779828 21.046875 20.923828 L 20.845703 23.708984 C 20.792703 24.438984 20.189594 24.781531 19.933594 24.894531 C 19.414594 25.123531 18.627453 25.186484 17.939453 24.646484 L 15.429688 22.839844 C 14.757688 22.310844 13.907391 22.025391 13.025391 22.025391 C 12.718391 22.025391 12.407609 22.060813 12.099609 22.132812 L 9.2167969 22.912109 C 8.3467969 23.107109 7.6695625 22.717312 7.3515625 22.320312 C 7.1645625 22.087312 6.8924375 21.604547 7.1484375 21.060547 L 8.5917969 18.541016 C 9.1737969 17.321016 9.0630312 16.203344 8.2070312 15.152344 L 6.2070312 13.095703 C 5.8580312 12.669703 5.9365 12.263094 6.0625 11.996094 C 6.2805 11.537094 6.90975 11 7.96875 11 L 10.978516 10.998047 C 12.168516 11.095047 13.347297 10.651391 14.154297 9.7753906 L 16.09375 7.4765625 C 16.4935 7.0438125 17.0245 6.9049219 17.494141 6.9199219 z"/></svg>