<svg xmlns="http://www.w3.org/2000/svg" viewBox="0 0 32 32"><path d="M 12.941406 6 C 12.325156 5.99875 11.710234 6.233125 11.240234 6.703125 L 11.230469 6.7148438 L 5.4101562 12.533203 C 3.5301563 14.413203 3.5301563 17.473516 5.4101562 19.353516 C 7.3001562 21.233516 10.350234 21.233516 12.240234 19.353516 L 19.910156 11.683594 C 20.380156 11.203594 20.380156 10.444609 19.910156 9.9746094 C 19.440156 9.5046094 18.680937 9.5046094 18.210938 9.9746094 L 10.529297 17.644531 C 9.5892969 18.594531 8.0591406 18.594531 7.1191406 17.644531 C 6.6491406 17.174531 6.4199219 16.563359 6.4199219 15.943359 C 6.4199219 15.323359 6.6491406 14.704375 7.1191406 14.234375 L 14.650391 6.7148438 C 14.175391 6.2398437 13.557656 6.00125 12.941406 6 z M 19.056641 6.0039062 C 17.822891 6.0039062 16.590391 6.4740625 15.650391 7.4140625 L 7.9707031 15.09375 C 7.5007031 15.56375 7.5007031 16.324922 7.9707031 16.794922 C 8.4407031 17.264922 9.2096875 17.264922 9.6796875 16.794922 L 17.349609 9.1230469 C 18.289609 8.1730469 19.819766 8.1730469 20.759766 9.1230469 C 20.999766 9.3630469 21.299141 9.4746094 21.619141 9.4746094 C 21.919141 9.4746094 22.240703 9.3630469 22.470703 9.1230469 C 22.940703 8.6530469 22.940703 7.8840625 22.470703 7.4140625 C 21.525703 6.4740625 20.290391 6.0039062 19.056641 6.0039062 z M 24.175781 11.232422 C 22.940781 11.232422 21.704766 11.705391 20.759766 12.650391 L 13.089844 20.320312 C 12.619844 20.790313 12.619844 21.559297 13.089844 22.029297 C 13.559844 22.499297 14.319062 22.499297 14.789062 22.029297 L 22.470703 14.349609 C 23.410703 13.409609 24.940859 13.409609 25.880859 14.349609 C 26.820859 15.299609 26.820859 16.819531 25.880859 17.769531 L 18.349609 25.289062 C 19.289609 26.229062 20.819766 26.229063 21.759766 25.289062 L 27.589844 19.470703 C 29.469844 17.590703 29.469844 14.530391 27.589844 12.650391 C 26.644844 11.705391 25.410781 11.232422 24.175781 11.232422 z M 24.175781 14.857422 C 23.865781 14.857422 23.555312 14.975938 23.320312 15.210938 L 15.650391 22.880859 C 14.710391 23.820859 13.180234 23.820859 12.240234 22.880859 L 12.230469 22.880859 C 11.760469 22.410859 10.999297 22.410859 10.529297 22.880859 C 10.299297 23.120859 10.179688 23.420234 10.179688 23.740234 C 10.179687 24.040234 10.299297 24.359844 10.529297 24.589844 C 11.469297 25.529844 12.699453 26 13.939453 26 C 15.179453 26 16.409609 25.529844 17.349609 24.589844 L 25.029297 16.910156 C 25.499297 16.440156 25.499297 15.680938 25.029297 15.210938 C 24.794297 14.975938 24.485781 14.857422 24.175781 14.857422 z"/></svg>