<svg xmlns="http://www.w3.org/2000/svg" viewBox="0 0 32 32"><path d="M 16 2.90625 C 12.726563 2.90625 10.0625 5.570313 10.0625 8.84375 C 10.0625 10.789063 10.96875 12.167969 11.71875 13.21875 C 12.46875 14.269531 13 14.992188 13 16.03125 L 13 19.21875 L 4.78125 21.03125 L 4 21.1875 L 4 26 L 5 26 L 5 27 C 5 27.574219 5.253906 28.117188 5.65625 28.46875 C 6.058594 28.820313 6.574219 29 7.09375 29 L 24.90625 29 C 25.425781 29 25.941406 28.820313 26.34375 28.46875 C 26.746094 28.117188 27 27.574219 27 27 L 27 26 L 28 26 L 28 21.1875 L 27.21875 21.03125 L 19 19.21875 L 19 16.03125 C 19 14.992188 19.53125 14.269531 20.28125 13.21875 C 21.03125 12.167969 21.9375 10.789063 21.9375 8.84375 C 21.9375 5.570313 19.273438 2.90625 16 2.90625 Z M 16 4.90625 C 18.195313 4.90625 19.9375 6.648438 19.9375 8.84375 C 19.9375 10.195313 19.382813 11.042969 18.65625 12.0625 C 17.929688 13.082031 17 14.285156 17 16.03125 L 17 19 L 15 19 L 15 16.03125 C 15 14.285156 14.070313 13.082031 13.34375 12.0625 C 12.617188 11.042969 12.0625 10.195313 12.0625 8.84375 C 12.0625 6.648438 13.804688 4.90625 16 4.90625 Z M 14 21 L 18 21 L 26 22.78125 L 26 24 L 6 24 L 6 22.78125 Z M 7 26 L 25 26 L 25 26.96875 C 24.988281 26.976563 24.972656 27 24.90625 27 L 7.09375 27 C 7.027344 27 7.011719 26.976563 7 26.96875 Z"/></svg>