<svg xmlns="http://www.w3.org/2000/svg" viewBox="0 0 32 32"><path d="M 5 6 C 3.355469 6 2 7.355469 2 9 L 2 23 C 2 24.644531 3.355469 26 5 26 L 27 26 C 28.644531 26 30 24.644531 30 23 L 30 9 C 30 7.355469 28.644531 6 27 6 Z M 5 8 L 27 8 C 27.566406 8 28 8.433594 28 9 L 28 23 C 28 23.566406 27.566406 24 27 24 L 5 24 C 4.433594 24 4 23.566406 4 23 L 4 9 C 4 8.433594 4.433594 8 5 8 Z M 16.5 11.4375 C 16.027344 11.4375 15.65625 11.808594 15.65625 12.28125 C 15.65625 12.75 16.027344 13.125 16.5 13.125 C 16.96875 13.125 17.34375 12.75 17.34375 12.28125 C 17.34375 11.808594 16.96875 11.4375 16.5 11.4375 Z M 11.0625 12.1875 L 9.6875 12.40625 L 9.5 13.625 L 9 13.71875 L 8.8125 14.84375 L 9.5 14.84375 L 9.5 17.1875 C 9.5 17.796875 9.652344 18.210938 9.96875 18.46875 C 10.234375 18.683594 10.617188 18.78125 11.15625 18.78125 C 11.570313 18.78125 11.824219 18.703125 12 18.65625 L 12 17.40625 C 11.902344 17.433594 11.679688 17.46875 11.53125 17.46875 C 11.214844 17.46875 11.0625 17.308594 11.0625 16.9375 L 11.0625 14.84375 L 11.90625 14.84375 L 12.09375 13.625 L 11.0625 13.625 Z M 6.90625 13.53125 C 6.359375 13.53125 5.886719 13.671875 5.5625 13.9375 C 5.222656 14.214844 5.0625 14.636719 5.0625 15.125 C 5.0625 16.007813 5.589844 16.371094 6.46875 16.6875 C 7.035156 16.886719 7.21875 17.027344 7.21875 17.25 C 7.21875 17.464844 7.050781 17.59375 6.71875 17.59375 C 6.308594 17.59375 5.628906 17.386719 5.1875 17.125 L 5 18.34375 C 5.378906 18.558594 6.085938 18.78125 6.8125 18.78125 C 7.390625 18.78125 7.863281 18.667969 8.1875 18.40625 C 8.550781 18.121094 8.75 17.671875 8.75 17.125 C 8.75 16.222656 8.203125 15.847656 7.3125 15.53125 C 6.839844 15.355469 6.5625 15.246094 6.5625 15.03125 C 6.5625 14.847656 6.703125 14.71875 6.96875 14.71875 C 7.457031 14.71875 7.96875 14.925781 8.3125 15.09375 L 8.5 13.875 C 8.226563 13.746094 7.679688 13.53125 6.90625 13.53125 Z M 20.71875 13.53125 C 20.25 13.53125 19.820313 13.746094 19.4375 14.15625 L 19.375 13.625 L 17.9375 13.625 L 17.9375 20.5625 L 19.5625 20.28125 L 19.5625 18.6875 C 19.808594 18.765625 20.054688 18.78125 20.28125 18.78125 C 20.683594 18.78125 21.265625 18.679688 21.71875 18.1875 C 22.152344 17.714844 22.375 17 22.375 16.03125 C 22.375 15.175781 22.230469 14.507813 21.90625 14.09375 C 21.621094 13.722656 21.226563 13.53125 20.71875 13.53125 Z M 24.9375 13.53125 C 23.566406 13.53125 22.71875 14.5625 22.71875 16.1875 C 22.71875 17.097656 22.925781 17.785156 23.375 18.21875 C 23.777344 18.609375 24.378906 18.78125 25.125 18.78125 C 25.8125 18.78125 26.441406 18.640625 26.84375 18.375 L 26.65625 17.25 C 26.261719 17.464844 25.800781 17.59375 25.28125 17.59375 C 24.96875 17.59375 24.75 17.511719 24.59375 17.375 C 24.425781 17.230469 24.34375 17.019531 24.3125 16.6875 L 26.96875 16.6875 C 26.976563 16.609375 27 16.242188 27 16.125 C 27 15.320313 26.8125 14.667969 26.46875 14.21875 C 26.117188 13.765625 25.605469 13.53125 24.9375 13.53125 Z M 15 13.5625 C 14.546875 13.5625 14.175781 13.820313 14.03125 14.25 L 13.9375 13.625 L 12.53125 13.625 L 12.53125 18.6875 L 14.15625 18.6875 L 14.15625 15.40625 C 14.355469 15.160156 14.640625 15.0625 15.03125 15.0625 C 15.117188 15.0625 15.203125 15.074219 15.3125 15.09375 L 15.3125 13.59375 C 15.199219 13.566406 15.097656 13.5625 15 13.5625 Z M 15.6875 13.625 L 15.6875 18.6875 L 17.3125 18.6875 L 17.3125 13.625 Z M 24.90625 14.625 C 25.269531 14.625 25.472656 14.972656 25.5 15.6875 L 24.3125 15.6875 C 24.359375 14.964844 24.535156 14.625 24.90625 14.625 Z M 20.15625 14.78125 C 20.566406 14.78125 20.78125 15.199219 20.78125 16.0625 C 20.78125 16.554688 20.710938 16.957031 20.5625 17.21875 C 20.433594 17.464844 20.234375 17.59375 20 17.59375 C 19.839844 17.59375 19.691406 17.566406 19.5625 17.5 L 19.5625 15.09375 C 19.835938 14.808594 20.066406 14.78125 20.15625 14.78125 Z"/></svg>