<svg xmlns="http://www.w3.org/2000/svg" viewBox="0 0 32 32"><path d="M 17.09375 7 C 12.445313 7 6.375 10.785156 6.375 15 C 6.375 17.269531 8.230469 19 10.5 19 C 12.230469 19 13.53125 17.71875 13.53125 16.3125 C 13.53125 15.015625 12.652344 13.5 10.8125 13.5 C 10.378906 13.5 8.875 13.796875 8.875 15.3125 C 8.875 16.394531 9.726563 16.9375 10.375 16.9375 C 11.347656 16.9375 11.46875 16.53125 11.46875 16.3125 C 11.46875 15.988281 11.261719 15.859375 10.9375 15.75 C 10.722656 15.75 10.484375 15.875 10.375 15.875 C 10.265625 15.875 9.9375 15.746094 9.9375 15.3125 C 9.9375 14.878906 10.398438 14.6875 10.9375 14.6875 C 11.800781 14.6875 12.3125 15.539063 12.3125 16.1875 C 12.3125 16.511719 12.214844 17.6875 10.59375 17.6875 C 9.40625 17.6875 8 16.839844 8 15.21875 C 8 13.597656 9.421875 12.625 10.71875 12.625 C 14.179688 12.625 14.71875 16.09375 14.71875 16.09375 L 16.21875 16.84375 C 16.21875 16.84375 16.125 16.308594 16.125 15.875 C 16.125 14.46875 16.765625 13.90625 18.0625 13.90625 C 20.007813 13.90625 20.773438 15.554688 21.53125 16.3125 L 23.46875 17.15625 C 23.46875 17.15625 22.5 15.875 22.5 14.6875 C 22.5 13.28125 23.800781 13.90625 25.53125 13.90625 C 27.371094 13.90625 29.84375 13.5 29.84375 12.09375 C 29.519531 12.09375 28.863281 12.71875 27.78125 12.71875 C 27.023438 12.503906 25.089844 11.53125 24.875 11.53125 L 24.4375 10.5625 C 25.84375 11.425781 27.152344 12.09375 28.125 12.09375 C 29.097656 12.09375 29.9375 11.3125 29.9375 11.3125 C 29.074219 8.175781 29.078125 8.394531 23.78125 7.3125 L 23.78125 8.1875 C 23.5625 7.863281 21.085938 7.109375 17.84375 7 Z M 27.5625 8.625 C 28.320313 8.625 28.96875 9.273438 28.96875 10.03125 C 28.96875 10.789063 28.320313 11.4375 27.5625 11.4375 C 26.804688 11.4375 26.15625 10.789063 26.15625 10.03125 C 26.15625 9.273438 26.699219 8.625 27.5625 8.625 Z M 27.5625 9.3125 C 27.023438 9.3125 26.59375 9.742188 26.59375 10.28125 C 26.59375 10.820313 27.023438 11.25 27.5625 11.25 C 28.101563 11.25 28.53125 10.820313 28.53125 10.28125 C 28.53125 9.742188 28.101563 9.3125 27.5625 9.3125 Z M 27.78125 9.71875 C 27.996094 9.71875 28.21875 9.847656 28.21875 10.0625 C 28.109375 10.277344 27.996094 10.375 27.78125 10.375 C 27.566406 10.375 27.34375 10.277344 27.34375 10.0625 C 27.34375 9.953125 27.566406 9.71875 27.78125 9.71875 Z M 3.65625 18.9375 C 2.792969 18.9375 2.03125 19.699219 2.03125 20.5625 L 2.03125 21 C 2.03125 21.863281 2.667969 22.40625 3.53125 22.40625 L 5.15625 22.40625 C 5.371094 22.40625 5.59375 22.519531 5.59375 22.84375 L 5.59375 23.28125 C 5.59375 23.496094 5.371094 23.6875 5.15625 23.6875 L 2.125 23.6875 L 2.125 24.46875 C 2.125 24.792969 2.363281 25 2.6875 25 L 5.375 25 C 6.238281 25 7 24.238281 7 23.375 L 7 22.71875 C 7 21.855469 6.472656 21.4375 5.5 21.4375 L 3.96875 21.4375 C 3.644531 21.4375 3.53125 21.308594 3.53125 21.09375 L 3.53125 20.78125 C 3.53125 20.566406 3.769531 20.34375 4.09375 20.34375 L 6.6875 20.34375 L 6.6875 19.5 C 6.6875 19.175781 6.464844 18.9375 6.25 18.9375 Z M 16.15625 18.9375 C 15.292969 18.9375 14.53125 19.699219 14.53125 20.5625 L 14.53125 21 C 14.53125 21.863281 15.199219 22.40625 16.0625 22.40625 L 17.6875 22.40625 C 17.902344 22.40625 18.09375 22.519531 18.09375 22.84375 L 18.09375 23.28125 C 18.09375 23.496094 17.902344 23.6875 17.6875 23.6875 L 14.53125 23.6875 L 14.53125 24.46875 C 14.53125 24.792969 14.769531 25 15.09375 25 L 17.78125 25 C 18.644531 25 19.40625 24.238281 19.40625 23.375 L 19.40625 22.71875 C 19.40625 21.855469 18.878906 21.4375 17.90625 21.4375 L 16.28125 21.4375 C 15.957031 21.4375 15.84375 21.308594 15.84375 21.09375 L 15.84375 20.78125 C 15.84375 20.566406 16.050781 20.34375 16.375 20.34375 L 19.09375 20.34375 L 19.09375 19.5 C 19.09375 19.175781 18.855469 18.9375 18.53125 18.9375 Z M 22.21875 19.0625 C 21.355469 19.0625 20.59375 19.824219 20.59375 20.6875 L 20.59375 23.375 C 20.59375 24.238281 21.355469 25 22.21875 25 L 24.5 25 C 24.824219 25 25.03125 24.792969 25.03125 24.46875 L 25.03125 23.6875 L 22.4375 23.6875 C 22.113281 23.6875 22 23.496094 22 23.28125 L 22 22.5 L 25.125 22.5 C 25.558594 22.5 26 22.183594 26 21.75 L 26 20.6875 C 26 19.824219 25.238281 19.0625 24.375 19.0625 Z M 22.4375 20.25 L 24.0625 20.25 C 24.277344 20.25 24.5 20.472656 24.5 20.6875 L 24.5 21.3125 L 21.90625 21.3125 C 22.015625 21.3125 22 20.6875 22 20.6875 C 22 20.472656 22.222656 20.25 22.4375 20.25 Z M 12.4375 20.46875 L 12.4375 20.5625 C 12.113281 20.5625 11.90625 20.769531 11.90625 21.09375 L 11.90625 23.28125 C 11.90625 23.605469 11.667969 23.8125 11.34375 23.8125 L 9.9375 23.8125 C 9.613281 23.8125 9.40625 23.605469 9.40625 23.28125 L 9.40625 21.09375 C 9.40625 20.769531 9.074219 20.5625 8.75 20.5625 L 8.53125 20.5625 C 8.207031 20.5625 8 20.769531 8 21.09375 L 8 23.375 C 8 24.457031 8.65625 25 9.84375 25 L 10.0625 25 C 10.601563 25 11.035156 24.777344 11.46875 24.5625 C 11.683594 24.453125 11.796875 24.34375 11.90625 24.34375 C 11.90625 24.34375 11.984375 24.359375 12.09375 24.46875 L 12.4375 24.90625 L 12.875 24.90625 C 13.199219 24.90625 13.40625 24.5625 13.40625 24.34375 L 13.40625 21 C 13.40625 20.675781 13.074219 20.46875 12.75 20.46875 Z"/></svg>