<svg xmlns="http://www.w3.org/2000/svg" viewBox="0 0 32 32"><path d="M 7 4 C 5.355469 4 4 5.355469 4 7 C 4 8.644531 5.355469 10 7 10 C 8.644531 10 10 8.644531 10 7 C 10 5.355469 8.644531 4 7 4 Z M 18.9375 4.90625 C 18.625 4.910156 18.308594 4.933594 18 4.96875 C 15.53125 5.257813 13.226563 6.523438 11.46875 8.28125 C 10.234375 9.511719 9.210938 11.28125 8.875 14.5625 C 8.863281 14.59375 8.851563 14.625 8.84375 14.65625 C 8.84375 14.667969 8.84375 14.675781 8.84375 14.6875 C 8.820313 14.738281 8.796875 14.789063 8.78125 14.84375 C 8.777344 14.867188 8.785156 14.878906 8.78125 14.90625 C 8.78125 14.9375 8.78125 14.96875 8.78125 15 C 8.78125 15.011719 8.78125 15.019531 8.78125 15.03125 C 8.785156 15.09375 8.796875 15.15625 8.8125 15.21875 C 8.828125 15.28125 8.847656 15.347656 8.875 15.40625 C 8.925781 16.304688 9.050781 17.222656 9.375 18.09375 L 9.34375 18.09375 C 9.359375 18.179688 9.460938 18.609375 9.46875 19.03125 C 9.472656 19.347656 9.359375 19.636719 9.34375 19.71875 C 8.734375 20.324219 8.003906 20.957031 7.3125 21.5 C 6.621094 22.042969 6.023438 22.511719 5.59375 22.9375 L 5.5625 22.9375 C 5.03125 23.480469 4.816406 24.308594 4.96875 25 C 5.121094 25.699219 5.523438 26.304688 6.0625 26.84375 C 6.597656 27.378906 7.207031 27.777344 7.90625 27.9375 C 8.605469 28.097656 9.453125 27.890625 10 27.34375 C 10.4375 26.90625 10.859375 26.289063 11.40625 25.59375 C 11.953125 24.898438 12.574219 24.144531 13.1875 23.53125 C 13.117188 23.601563 13.421875 23.4375 13.8125 23.4375 C 14.128906 23.4375 14.390625 23.46875 14.59375 23.5 C 14.644531 23.507813 14.75 23.527344 14.78125 23.53125 C 15.652344 23.855469 16.570313 23.976563 17.46875 24.03125 C 17.480469 24.03125 17.488281 24.0625 17.5 24.0625 C 17.570313 24.082031 17.644531 24.089844 17.71875 24.09375 C 17.75 24.105469 17.78125 24.117188 17.8125 24.125 C 17.84375 24.125 17.875 24.125 17.90625 24.125 C 17.925781 24.125 17.949219 24.125 17.96875 24.125 C 17.980469 24.125 17.988281 24.125 18 24.125 C 18.0625 24.121094 18.125 24.109375 18.1875 24.09375 C 18.226563 24.089844 18.242188 24.066406 18.28125 24.0625 C 18.292969 24.0625 18.300781 24.0625 18.3125 24.0625 C 21.324219 23.8125 23.34375 22.722656 24.625 21.4375 C 26.382813 19.679688 27.648438 17.375 27.9375 14.90625 C 28.226563 12.4375 27.457031 9.800781 25.28125 7.625 C 23.378906 5.722656 21.125 4.890625 18.9375 4.90625 Z M 7 6 C 7.5625 6 8 6.4375 8 7 C 8 7.5625 7.5625 8 7 8 C 6.4375 8 6 7.5625 6 7 C 6 6.4375 6.4375 6 7 6 Z M 18.9375 6.90625 C 20.625 6.875 22.316406 7.472656 23.875 9.03125 C 25.660156 10.8125 26.164063 12.761719 25.9375 14.6875 C 25.710938 16.613281 24.699219 18.550781 23.21875 20.03125 C 22.222656 21.027344 20.777344 21.804688 18.25 22.03125 L 10.875 14.65625 C 11.167969 11.835938 11.863281 10.761719 12.90625 9.71875 C 14.386719 8.238281 16.289063 7.195313 18.21875 6.96875 C 18.460938 6.941406 18.695313 6.910156 18.9375 6.90625 Z M 11.34375 18 L 14.90625 21.53125 C 14.640625 21.488281 14.308594 21.4375 13.8125 21.4375 C 13.203125 21.441406 12.429688 21.476563 11.78125 22.125 C 11.0625 22.84375 10.402344 23.632813 9.84375 24.34375 C 9.285156 25.054688 8.789063 25.710938 8.5625 25.9375 C 8.445313 26.054688 8.503906 26.035156 8.34375 26 C 8.183594 25.964844 7.859375 25.765625 7.5 25.40625 C 7.148438 25.054688 6.972656 24.730469 6.9375 24.5625 C 6.902344 24.394531 6.867188 24.441406 6.96875 24.34375 C 7.179688 24.132813 7.816406 23.625 8.53125 23.0625 C 9.246094 22.5 10.0625 21.84375 10.78125 21.125 C 11.472656 20.433594 11.480469 19.632813 11.46875 19 C 11.460938 18.519531 11.386719 18.238281 11.34375 18 Z"/></svg>