<svg xmlns="http://www.w3.org/2000/svg" viewBox="0 0 32 32"><path d="M 5 6 C 3.355469 6 2 7.355469 2 9 L 2 23 C 2 24.644531 3.355469 26 5 26 L 27 26 C 28.644531 26 30 24.644531 30 23 L 30 9 C 30 7.355469 28.644531 6 27 6 Z M 5 8 L 27 8 C 27.554688 8 28 8.445313 28 9 L 28 23 C 28 23.554688 27.554688 24 27 24 L 5 24 C 4.445313 24 4 23.554688 4 23 L 4 9 C 4 8.445313 4.445313 8 5 8 Z M 6 15 C 5.449219 15 5 15.449219 5 16 C 5 16.550781 5.449219 17 6 17 C 6.550781 17 7 16.550781 7 16 C 7 15.449219 6.550781 15 6 15 Z"/></svg>