<svg xmlns="http://www.w3.org/2000/svg" viewBox="0 0 32 32"><path d="M 16.375 3.9980469 C 15.078125 3.9745239 13.726562 4.178125 12.320312 4.609375 C 10.440313 5.189375 8.8492969 6.2795312 7.5292969 7.7695312 C 7.3492969 7.9795313 7.220625 8.1992188 7.390625 8.4492188 C 7.530625 8.6392187 7.4496094 8.740625 7.3496094 8.890625 C 6.4196094 10.190625 5.79 11.619453 5.5 13.189453 C 5.47 13.389453 5.3692188 13.470781 5.1992188 13.550781 C 4.5392187 13.880781 4.1490625 14.420391 4.0390625 15.150391 L 4 16.390625 L 4 17.689453 C 4 19.129453 4.9796875 20.050234 6.4296875 19.990234 C 6.7896875 19.970234 7 19.779219 7 19.449219 L 7 15.072266 C 7 15.047266 7.0471562 13.807469 7.1601562 13.230469 C 7.3941562 12.054469 7.8094687 11.073578 8.3554688 10.267578 C 9.9424687 7.7095781 12.768 6 16 6 C 20.971 6 25 10.029 25 15 L 25 19.289062 C 25 19.619062 25.079922 19.880937 25.419922 19.960938 C 26.549922 20.190938 27.729922 19.400234 27.919922 18.240234 C 28.049922 17.440234 27.960938 16.300234 27.960938 15.490234 C 27.950937 14.610234 27.560234 13.929531 26.740234 13.519531 C 26.610234 13.459531 26.510703 13.390703 26.470703 13.220703 C 26.180703 11.630703 25.540313 10.130078 24.570312 8.8300781 C 24.520312 8.7600781 24.410703 8.6796094 24.470703 8.5996094 C 24.870703 8.0596094 24.460625 7.7492187 24.140625 7.4492188 C 21.816875 5.2010938 19.228125 4.0497974 16.375 3.9980469 z M 10.359375 16.001953 C 9.7295625 15.961406 9.2210781 16.371953 9.0800781 17.095703 C 8.8660781 18.136703 9.0795 19.13425 9.6875 20.03125 C 10.1075 20.64025 10.752906 20.929469 11.503906 20.980469 C 11.986906 21.005469 13.703891 21.072312 14.087891 20.945312 C 14.588891 20.767313 14.928156 20.471469 15.035156 19.980469 C 15.133156 19.490469 14.525781 18.787969 13.675781 18.042969 C 12.799781 17.280969 11.654531 16.493266 11.019531 16.197266 C 10.791531 16.078766 10.569313 16.015469 10.359375 16.001953 z M 21.982422 18.007812 C 21.046494 17.92165 19.715859 18.538359 19.115234 18.787109 C 15.882234 20.086109 17.128719 21.335281 18.136719 21.613281 L 20.417969 21.970703 C 22.028969 22.098703 23.036047 20.640344 22.998047 19.152344 C 22.962797 18.363719 22.543979 18.05951 21.982422 18.007812 z M 24.296875 21.001953 C 24.236125 21.007078 24.178266 21.034437 24.134766 21.085938 C 24.114766 21.116938 24.105703 21.147969 24.095703 21.167969 C 23.726703 22.398969 22.056719 26.584625 16.261719 27.015625 C 9.4487187 27.517625 19.912813 29.108031 22.882812 26.707031 C 23.911812 25.865031 25.047047 25.024516 24.998047 22.603516 C 24.979047 22.110516 24.775609 21.320688 24.474609 21.054688 C 24.421109 21.013687 24.357625 20.996828 24.296875 21.001953 z"/></svg>