<svg xmlns="http://www.w3.org/2000/svg" viewBox="0 0 32 32"><path d="M 10 5 C 5.038 5 1 9.037 1 14 L 1 15 C 1 15.769952 1.3019681 16.46739 1.7832031 17 C 1.3019681 17.53261 1 18.230048 1 19 L 1 20 C 1 23.859 4.14 27 8 27 L 24 27 C 27.86 27 31 23.859 31 20 L 31 19 C 31 18.230048 30.698032 17.53261 30.216797 17 C 30.698032 16.46739 31 15.769952 31 15 L 31 14 C 31 9.037 26.962 5 22 5 L 10 5 z M 10 7 L 22 7 C 24.798746 7 27.21277 8.6542426 28.332031 11.033203 C 28.221743 11.020776 28.113467 11 28 11 C 27.39 11 26.829375 11.180234 26.359375 11.490234 C 25.729375 10.590234 24.68 10 23.5 10 C 22.74 10 22.040703 10.250156 21.470703 10.660156 C 20.850703 9.6701562 19.75 9 18.5 9 C 17.52 9 16.64 9.4105469 16 10.060547 C 15.36 9.4105469 14.48 9 13.5 9 C 12.25 9 11.149297 9.6701563 10.529297 10.660156 C 9.9592969 10.250156 9.26 10 8.5 10 C 7.32 10 6.270625 10.590234 5.640625 11.490234 C 5.170625 11.180234 4.61 11 4 11 C 3.8865328 11 3.7782571 11.020776 3.6679688 11.033203 C 4.7872295 8.6542426 7.2012543 7 10 7 z M 13.5 11 C 14.33 11 15 11.67 15 12.5 L 15 15 C 15 15.55 14.55 16 14 16 L 13 16 C 12.45 16 12 15.55 12 15 L 12 12.5 C 12 11.67 12.67 11 13.5 11 z M 18.5 11 C 19.33 11 20 11.67 20 12.5 L 20 15 C 20 15.55 19.55 16 19 16 L 18 16 C 17.45 16 17 15.55 17 15 L 17 12.5 C 17 11.67 17.67 11 18.5 11 z M 8.5 12 C 9.33 12 10 12.67 10 13.5 L 10 15 C 10 15.55 9.55 16 9 16 L 8 16 C 7.45 16 7 15.55 7 15 L 7 13.5 C 7 12.67 7.67 12 8.5 12 z M 23.5 12 C 24.33 12 25 12.67 25 13.5 L 25 15 C 25 15.55 24.55 16 24 16 L 23 16 C 22.45 16 22 15.55 22 15 L 22 13.5 C 22 12.67 22.67 12 23.5 12 z M 4 13 C 4.55 13 5 13.45 5 14 L 5 15 C 5 15.55 4.55 16 4 16 C 3.45 16 3 15.55 3 15 L 3 14 C 3 13.45 3.45 13 4 13 z M 28 13 C 28.55 13 29 13.45 29 14 L 29 15 C 29 15.55 28.55 16 28 16 C 27.45 16 27 15.55 27 15 L 27 14 C 27 13.45 27.45 13 28 13 z M 4 18 C 4.55 18 5 18.45 5 19 C 5 19.55 4.55 20 4 20 C 3.45 20 3 19.55 3 19 C 3 18.45 3.45 18 4 18 z M 8 18 L 9 18 C 9.55 18 10 18.45 10 19 L 10 20 C 10 20.55 9.55 21 9 21 C 7.9 21 7 20.1 7 19 C 7 18.45 7.45 18 8 18 z M 13 18 L 14 18 C 14.55 18 15 18.45 15 19 L 15 20 C 15 20.55 14.55 21 14 21 L 13 21 C 12.45 21 12 20.55 12 20 L 12 19 C 12 18.45 12.45 18 13 18 z M 18 18 L 19 18 C 19.55 18 20 18.45 20 19 L 20 20 C 20 20.55 19.55 21 19 21 L 18 21 C 17.45 21 17 20.55 17 20 L 17 19 C 17 18.45 17.45 18 18 18 z M 23 18 L 24 18 C 24.55 18 25 18.45 25 19 C 25 20.1 24.1 21 23 21 C 22.45 21 22 20.55 22 20 L 22 19 C 22 18.45 22.45 18 23 18 z M 28 18 C 28.55 18 29 18.45 29 19 C 29 19.55 28.55 20 28 20 C 27.45 20 27 19.55 27 19 C 27 18.45 27.45 18 28 18 z M 5.8007812 21.380859 C 6.5407813 22.360859 7.69 23 9 23 C 9.77 23 10.47 22.700703 11 22.220703 C 11.53 22.700703 12.23 23 13 23 L 14 23 C 14.77 23 15.47 22.700703 16 22.220703 C 16.53 22.700703 17.23 23 18 23 L 19 23 C 19.77 23 20.47 22.700703 21 22.220703 C 21.53 22.700703 22.23 23 23 23 C 24.31 23 25.459219 22.360859 26.199219 21.380859 C 26.699219 21.770859 27.32 22 28 22 C 28.208418 22 28.412646 21.978463 28.609375 21.9375 C 27.851042 23.735349 26.070567 25 24 25 L 8 25 C 5.9294325 25 4.1489579 23.735349 3.390625 21.9375 C 3.5873538 21.978463 3.7915819 22 4 22 C 4.68 22 5.3007813 21.770859 5.8007812 21.380859 z"/></svg>