<svg xmlns="http://www.w3.org/2000/svg" viewBox="0 0 32 32"><path d="M 12.345703 3 C 10.864703 4.134 10.798625 4.9638125 10.765625 5.1328125 C 10.723625 5.0198125 10.469734 4.2141875 10.052734 3.8671875 C 9.8977344 4.2461875 9.8892969 4.6687344 10.029297 5.0527344 C 10.170297 5.4467344 10.306828 5.7474531 10.423828 5.9394531 C 9.6738281 5.7844531 9.0961875 5.7094531 8.1171875 5.9394531 L 7.9433594 5.9394531 L 9.4902344 6.609375 C 8.5432344 7.495375 7.7977813 8.5725312 7.3007812 9.7695312 L 7.2207031 10.162109 L 7.3007812 10.242188 L 7.65625 10.023438 C 7.50125 10.567438 7.4086562 10.932422 7.3476562 11.232422 C 6.8376563 11.806422 6.3999219 12.440094 6.0449219 13.121094 C 5.3419219 13.168094 4.55425 13.627016 4.15625 13.791016 L 4.296875 13.949219 L 5.6464844 13.996094 C 5.6234844 14.043094 5.6147969 14.099484 5.5917969 14.146484 C 5.2497969 14.446484 3.7259219 15.913687 4.0449219 17.929688 L 4.9902344 16.880859 C 5.0132344 16.960859 5.023875 17.038047 5.046875 17.123047 C 5.046875 18.318047 5.0668437 21.324687 8.0898438 24.179688 C 10.133844 26.054688 12.589656 27.001953 15.472656 27.001953 C 21.177656 27.001953 25.925781 22.909891 25.925781 17.087891 C 26.244781 16.632891 25.868031 17.228156 26.707031 15.910156 L 27.316406 16.580078 L 27.433594 16.556641 C 27.346594 16.009641 27.208578 15.472125 27.017578 14.953125 C 26.946578 14.729125 26.838266 14.518078 26.697266 14.330078 L 26.699219 14.330078 L 27.669922 14.662109 C 27.219922 13.542109 26.549594 12.9285 26.183594 12.5625 L 26.517578 11.710938 C 26.526578 11.710938 27.094391 10.407484 26.400391 10.271484 C 26.372391 9.7414844 26.090109 9.0058594 25.537109 9.0058594 C 25.181109 8.5088594 24.708609 8.4285156 24.099609 8.7285156 C 23.673609 8.9365156 23.274109 9.1969531 22.912109 9.5019531 C 22.664109 9.2019531 22.771484 9.5195156 22.771484 8.1035156 C 21.032484 6.9645156 20.643625 7.5551406 19.265625 8.2441406 L 19.289062 8.2675781 C 18.256062 7.9045781 17.175031 7.6945313 16.082031 7.6445312 C 15.824031 7.2365312 15.21125 6.75075 14.90625 6.46875 L 16.068359 6.8007812 C 15.810359 6.5427812 14.811844 6.1968437 14.464844 6.0898438 C 15.317844 5.8978437 15.862031 5.1149688 16.457031 4.5429688 C 14.821031 4.0699688 13.273187 4.2657031 11.867188 5.0957031 L 12.431641 3.0234375 L 12.345703 3 z M 11.998047 3.6464844 C 11.876047 4.0354844 11.777219 4.4310313 11.699219 4.8320312 L 11.619141 5.1660156 L 11.595703 5.3867188 L 11.712891 5.5039062 C 12.739891 4.8709062 13.845687 4.5941875 15.054688 4.6171875 L 16.044922 4.640625 C 15.490922 5.273625 14.739531 5.6667344 13.769531 5.8027344 C 13.406531 5.8697344 13.041828 5.9154531 12.673828 5.9394531 L 12.664062 5.9160156 L 12.546875 5.859375 C 12.323875 5.812375 12.091625 5.846125 11.890625 5.953125 C 11.773625 5.944125 11.661594 5.931875 11.558594 5.921875 L 11.439453 6 L 11.462891 6.0566406 C 11.556891 6.0656406 11.645906 6.0798437 11.753906 6.0898438 L 11.660156 6.2480469 L 11.818359 6.2246094 L 11.322266 6.7558594 C 11.125266 6.8968594 11.069 7.0554062 11.125 7.1914062 L 11.378906 7.03125 L 11.433594 7.03125 C 11.721594 6.64925 12.146141 6.3943125 12.619141 6.3203125 L 12.619141 6.1777344 C 12.919141 6.2007344 13.229297 6.225375 13.529297 6.234375 C 13.829297 6.234375 13.92225 6.2560625 13.78125 6.2890625 C 14.11825 6.4790625 14.442953 6.6918281 14.751953 6.9238281 C 15.384953 7.3968281 15.858203 7.9500312 16.158203 8.5820312 C 16.571203 9.4350312 16.791016 10.320375 16.791016 11.234375 C 16.789016 11.680375 16.742391 12.1255 16.650391 12.5625 C 16.485391 13.3075 16.233391 14.03175 15.900391 14.71875 L 16.017578 14.740234 C 16.870578 13.817234 17.980266 13.990234 18.322266 13.990234 L 18.023438 14.267578 L 19.072266 15.097656 L 18.992188 16.537109 C 18.739187 15.960109 18.219312 15.548375 17.445312 15.234375 C 18.218312 15.928375 18.551656 16.223641 18.472656 16.181641 C 18.247656 16.050641 18.308797 16.091813 17.966797 16.007812 C 18.158797 16.199813 18.787312 16.889516 18.820312 16.978516 L 18.828125 16.986328 L 18.820312 16.996094 C 18.820312 17.080094 18.895063 16.939359 18.164062 18.068359 C 14.639062 17.351359 13.182922 16.066469 11.544922 15.105469 L 12.097656 15.162109 C 11.544656 14.295109 11.367828 14.332453 10.298828 13.939453 L 10.794922 13.544922 C 10.382922 13.403922 9.94275 13.404359 9.46875 13.568359 L 9.8242188 13.070312 L 9.7675781 12.990234 C 9.0695781 13.192234 8.8399844 13.422484 8.7089844 13.521484 C 8.6569844 13.263484 8.5788125 12.940875 8.1328125 12.171875 L 8.0800781 13.439453 L 7.4609375 13.205078 C 7.5309375 12.023078 7.7140781 10.836031 8.0800781 9.7070312 L 8.1367188 9.6289062 C 8.1927187 9.4929063 8.3332656 9.2720156 8.5722656 8.9160156 L 8.6894531 8.7578125 L 8.0800781 9.3320312 L 8.3320312 9.1132812 L 7.859375 9.5488281 L 7.6621094 9.6054688 C 8.2391094 8.4754688 8.7455469 7.6689531 9.1855469 7.2519531 C 9.6215469 6.8159531 9.9358125 6.50275 10.132812 6.34375 L 9.8320312 6.3984375 C 9.3030313 6.2014375 8.9229219 6.0668594 8.6699219 6.0058594 C 8.7869219 5.9828594 8.8433125 5.9824219 8.8203125 5.9824219 C 9.3033125 5.9824219 9.6407812 6.0041094 9.8007812 6.0371094 C 10.042781 6.1151094 10.295781 6.1542969 10.550781 6.1542969 L 10.572266 6.0742188 L 10.179688 4.3964844 L 10.8125 5.7558594 C 10.9445 5.5508594 11.038844 5.3239375 11.089844 5.0859375 C 11.169844 4.7859375 11.3425 4.4777344 11.5625 4.1777344 C 11.7825 3.8777344 11.918047 3.6794844 11.998047 3.6464844 z M 13.158203 6.3476562 C 13.049328 6.3614062 12.943562 6.40225 12.851562 6.46875 C 12.256562 6.78275 11.538188 7.4495312 11.492188 7.5195312 C 11.412187 7.5995313 11.332281 7.7963438 11.238281 8.1523438 C 11.149281 8.5143438 11.104516 8.8848125 11.103516 9.2578125 C 10.883516 8.8828125 10.610922 8.9574687 10.169922 8.9804688 L 10.503906 9.3378906 C 9.7309063 9.3378906 9.4104844 10.059891 9.3964844 10.087891 C 9.7154844 10.087891 9.6127344 9.7307656 10.802734 9.5097656 C 10.600734 9.2157656 10.647266 9.2761719 10.572266 9.2011719 C 11.589266 9.9891719 11.346906 10.205594 12.753906 10.308594 L 12.617188 10.087891 C 13.011188 9.7518906 13.259547 9.2777188 13.310547 8.7617188 C 13.390547 8.0117188 13.255437 7.3772187 12.898438 6.8242188 L 13.507812 6.46875 C 13.510813 6.43975 13.502375 6.4116719 13.484375 6.3886719 C 13.378875 6.3471719 13.267078 6.3339063 13.158203 6.3476562 z M 13.740234 6.65625 L 13.763672 6.7734375 L 13.939453 6.8867188 L 13.822266 6.9082031 L 13.845703 7.0507812 C 14.271703 7.0277813 14.694359 7.1221719 15.068359 7.3261719 C 14.951359 7.0681719 14.598234 6.65625 13.740234 6.65625 z M 12.636719 6.9472656 C 12.764641 6.9695781 12.867656 7.1173437 12.972656 7.4023438 C 13.089656 7.7863438 13.136281 8.1868906 13.113281 8.5878906 C 13.089281 9.0228906 12.955703 9.3939219 12.720703 9.6699219 C 12.584703 9.8289219 12.466922 9.9463906 12.419922 10.025391 C 12.242922 10.043391 12.065625 10.036906 11.890625 10.003906 L 11.556641 9.84375 L 11.304688 9.5449219 C 11.342688 9.0759219 11.364219 8.6622188 11.449219 8.3242188 C 11.505219 7.9682188 11.609 7.7165312 11.75 7.5195312 C 12.003 7.2195313 12.247 7.0467969 12.5 6.9667969 C 12.54925 6.9467969 12.594078 6.9398281 12.636719 6.9472656 z M 14.183594 7.2890625 C 13.997875 7.3412813 13.8725 7.6482812 13.8125 8.2070312 C 13.7325 8.9520312 13.929234 9.5914531 14.365234 10.064453 C 14.801234 10.537453 15.217891 10.561078 15.587891 10.205078 C 15.957891 9.8490781 15.747594 9.09875 15.058594 7.96875 C 14.895594 7.69975 14.665625 7.4772656 14.390625 7.3222656 L 14.388672 7.3222656 C 14.313672 7.2825156 14.2455 7.2716562 14.183594 7.2890625 z M 14.25 7.4882812 C 14.334281 7.4679375 14.48625 7.5485312 14.71875 7.7382812 C 15.01875 7.9912813 15.247687 8.4887188 15.429688 9.2617188 C 15.733688 10.574719 14.501922 10.491187 14.169922 9.4921875 C 14.422922 9.5951875 14.661094 9.5801406 14.746094 8.9941406 L 14.746094 8.7753906 L 14.689453 8.7988281 C 14.487453 8.6538281 14.572375 8.5878125 14.609375 8.5078125 L 14.632812 8.484375 C 14.590813 8.428375 14.398875 8.103125 14.046875 8.703125 C 14.023875 8.070125 14.0695 7.6779688 14.1875 7.5429688 C 14.2015 7.5137187 14.221906 7.4950625 14.25 7.4882812 z M 20.613281 7.7382812 C 20.740281 7.8272813 21.148 7.9919219 21.5 8.5449219 C 21.697 8.9389219 21.687203 9.0034531 21.658203 9.0644531 C 21.635203 9.1774531 21.635578 9.2674375 21.517578 9.3984375 C 21.437578 9.5154375 21.264844 9.6179062 20.964844 9.7539062 C 20.608844 9.1449063 20.192109 8.6489688 19.662109 8.2929688 L 20.613281 7.7382812 z M 21.375 7.75 C 21.641297 7.7422656 22.010203 7.9001406 22.470703 8.2128906 L 22.447266 9.2382812 C 22.705266 10.086281 23.238094 10.044922 23.496094 10.044922 L 23.337891 9.8242188 L 24.388672 9.5722656 C 23.966672 9.5962656 23.543094 9.5962656 23.121094 9.5722656 C 23.721094 9.4742656 24.683672 8.2139688 25.138672 9.0429688 C 25.297672 9.3989687 25.438219 9.8487031 25.574219 10.345703 L 25.654297 10.068359 C 25.595297 9.8353594 25.568219 9.5954688 25.574219 9.3554688 C 25.827219 9.3784687 25.986766 9.514125 26.009766 9.828125 C 26.032766 10.128125 26.090922 10.523625 26.169922 11.015625 L 26.388672 10.484375 C 26.604672 10.484375 26.599484 10.316078 26.271484 11.455078 C 25.291484 11.047078 24.626797 11.060547 24.091797 11.060547 L 24.945312 10.310547 C 23.759313 10.694547 23.398953 10.817016 22.376953 11.291016 C 22.324953 11.038016 22.142953 10.657422 21.626953 10.357422 C 21.476953 10.535422 21.49575 10.400734 21.59375 11.052734 L 21.476562 11.052734 C 21.418563 10.669734 21.284031 10.29975 21.082031 9.96875 L 21.279297 9.8105469 C 21.673297 9.4775469 21.831391 9.1402031 21.775391 8.7832031 C 21.752391 8.4832031 21.522578 8.1495 21.142578 7.8125 C 21.208328 7.773 21.286234 7.7525781 21.375 7.75 z M 12.185547 8.0429688 C 11.805547 8.0429688 11.642641 8.6381094 11.806641 9.0371094 C 11.854641 9.1401094 11.948547 9.213375 12.060547 9.234375 C 12.137921 9.2475259 12.494141 9.1779584 12.494141 8.5390625 L 12.472656 8.5390625 C 12.219656 8.4870625 12.369453 8.2826719 12.439453 8.2636719 C 12.359453 8.1226719 12.279547 8.0659688 12.185547 8.0429688 z M 10.466797 10.269531 C 9.9216875 10.309328 9.6247656 10.494781 9.5722656 10.519531 C 9.5952656 10.542531 9.7136094 10.678078 9.8496094 10.955078 C 10.046609 10.655078 10.261547 10.481031 10.560547 10.457031 C 10.479547 10.983031 10.506625 11.521109 10.640625 12.037109 C 10.645625 12.060109 10.762688 12.853969 11.929688 13.167969 C 12.459687 13.308969 13.196656 13.223063 14.222656 12.914062 L 13.791016 12.9375 C 13.594016 12.2435 13.490672 11.774687 13.513672 11.554688 C 14.043672 11.141687 14.541125 11.025219 14.953125 11.199219 L 15.070312 11.199219 L 14.517578 10.84375 L 14.183594 10.865234 C 13.906594 10.921234 13.607391 11.062766 13.275391 11.259766 L 13.419922 10.955078 C 11.788922 11.630078 11.791563 11.611 11.726562 11.625 C 10.751563 11.845 10.836797 10.481891 10.841797 10.462891 L 11.117188 10.40625 L 11.095703 10.289062 C 10.858953 10.258563 10.6485 10.256266 10.466797 10.269531 z M 24.226562 10.603516 L 23.53125 11.212891 L 23.554688 11.347656 L 24.384766 11.324219 C 24.905766 11.343219 25.422641 11.409484 25.931641 11.521484 L 24.826172 11.638672 L 24.769531 11.779297 L 26.017578 12.863281 C 26.479578 13.327281 26.903203 13.829281 27.283203 14.363281 C 26.758203 14.208281 26.800062 14.203125 26.289062 14.203125 L 26.865234 15.726562 L 26.445312 15.126953 L 26.328125 15.150391 L 26.46875 15.585938 C 26.30475 15.862937 25.358281 17.663266 23.113281 19.322266 C 21.261281 20.719266 19.521313 21.154937 19.320312 21.210938 L 18.964844 20.878906 L 18.908203 21.019531 L 19.578125 21.769531 L 19.246094 21.548828 L 19.404297 21.746094 L 19.349609 21.746094 L 18.322266 21.113281 L 18.757812 22.359375 L 17.867188 21.052734 L 17.810547 21.169922 L 18.167969 22.527344 C 17.881969 22.143344 17.182906 20.999875 15.503906 20.671875 L 17.027344 21.666016 C 15.566344 21.888016 14.075203 21.784234 12.658203 21.365234 C 12.461203 21.309234 12.241391 21.249922 12.025391 21.169922 L 12.080078 21.027344 L 9.9804688 19.978516 L 11.203125 21.027344 C 8.498125 21.454344 5.9072969 19.837141 5.2792969 17.119141 L 5.1640625 16.349609 L 4.1191406 17.394531 C 5.0331406 14.699531 5.3202969 14.681375 6.5292969 14.109375 C 6.1022969 13.861375 6.4535156 13.954828 4.7285156 13.673828 C 5.4695156 13.401828 6.2753906 12.951969 8.1503906 13.917969 C 8.2053906 13.884969 8.2642187 13.857891 8.3242188 13.837891 C 8.3522188 13.687891 8.3430938 13.798203 8.3710938 13.283203 C 8.5540937 13.752203 8.5397188 13.692703 8.5117188 13.720703 L 8.5917969 13.742188 C 9.1867969 13.437188 9.0086719 13.532172 9.3886719 13.326172 L 9.1367188 13.958984 L 10.181641 13.6875 L 9.7871094 14.080078 L 9.9042969 14.197266 C 10.115297 14.113266 11.323406 14.356266 11.816406 14.947266 L 10.710938 14.830078 C 12.557937 15.908078 13.124172 17.36275 13.326172 18.09375 L 13.40625 18.037109 C 13.27525 16.992109 12.82525 16.44725 12.65625 16.15625 C 12.85325 16.39025 14.494031 17.7785 17.832031 18.3125 C 17.302031 18.2895 16.748312 18.566219 16.195312 19.199219 L 18.384766 18.251953 L 17.949219 19.279297 C 18.305219 18.806297 18.643359 18.173828 18.943359 17.423828 L 18.943359 17.400391 L 18.998047 17.259766 L 18.943359 18.009766 C 19.576359 16.050766 20.128563 14.329188 20.601562 12.867188 L 21.234375 11.564453 L 21.234375 11.470703 L 20.982422 11.273438 L 21.455078 11.273438 L 21.732422 11.470703 L 21.849609 11.414062 L 21.689453 10.664062 L 22.267578 11.550781 L 24.226562 10.603516 z M 26.158203 11.783203 L 25.976562 12.392578 L 25.306641 11.839844 L 26.158203 11.783203 z M 14.214844 12.117188 C 14.294844 12.614187 14.435906 12.947531 14.628906 13.144531 C 14.192906 13.453531 13.338266 13.796531 12.447266 13.894531 L 12.470703 13.949219 C 12.861703 14.008219 13.262766 13.968031 13.634766 13.832031 L 13.300781 14.441406 C 13.497781 14.361406 13.773859 14.109047 14.130859 13.748047 C 14.688859 13.490047 14.726125 13.509047 15.078125 12.998047 C 14.483125 12.698047 14.341844 12.356188 14.214844 12.117188 z M 6.1542969 19.560547 C 8.4932969 22.143547 11.727734 21.317828 11.802734 21.298828 C 13.433734 22.067828 15.080578 22.405875 17.142578 21.796875 C 17.297578 21.796875 18.094125 22.592906 18.328125 23.628906 L 18.525391 23.488281 L 18.408203 22.382812 C 18.830203 22.804813 19.574531 23.440234 20.019531 22.990234 C 19.288531 22.742234 18.917719 22.546859 18.636719 21.505859 C 18.852719 21.702859 18.992453 21.926031 19.939453 22.207031 L 20 22.152344 L 19.507812 21.486328 C 20.055812 21.261328 19.343812 21.533469 21.007812 20.980469 C 21.208813 22.588469 21.429063 23.288734 21.039062 25.177734 C 18.700063 26.349734 18.409437 26.226875 18.273438 26.296875 C 16.876438 25.743875 15.887875 24.811016 15.296875 23.541016 L 16.703125 24.314453 C 16.244125 23.878453 15.844344 23.540328 14.902344 22.236328 L 15.455078 23.320312 L 14.626953 22.964844 C 15.292953 23.953844 15.728047 25.386203 17.748047 26.408203 C 12.085047 27.542203 8.4190781 23.028781 8.3300781 22.925781 C 8.8500781 23.357781 9.4062344 23.747844 9.9902344 24.089844 C 10.149234 24.169844 10.322891 24.205531 10.462891 24.144531 L 9.7128906 23.175781 C 10.143891 23.372781 10.157172 23.385203 12.951172 24.533203 C 10.959172 23.563203 9.4920313 22.621891 8.5820312 21.712891 C 8.5590313 22.012891 8.5273438 22.185547 8.5273438 22.185547 C 8.9353437 22.527547 9.2650938 22.951641 9.4960938 23.431641 C 7.6680937 22.545641 6.7962969 21.201547 6.1542969 19.560547 z"/></svg>