<svg xmlns="http://www.w3.org/2000/svg" viewBox="0 0 32 32"><path d="M 20.152344 4 C 19.415344 4 18.704313 4.3074219 18.195312 4.8574219 C 17.928313 4.8164219 17.646234 4.8046875 17.365234 4.8046875 C 14.874234 4.8046875 12.557922 6.1295937 11.044922 8.0585938 C 10.575922 8.6615937 10.402344 9.0633437 10.027344 9.6523438 C 9.9603438 9.7863438 9.7863594 9.9190625 9.6933594 10.039062 C 9.4903594 10.268063 9.3028594 10.511672 9.1308594 10.763672 C 8.9298594 10.295672 8.5409219 10.066406 8.0449219 10.066406 C 4.9509219 10.066406 4 15.236406 4 17.566406 C 4 18.236406 4.0533125 19.079937 4.3203125 19.710938 C 4.8823125 21.049937 6.5041563 22.777594 7.5351562 23.808594 C 6.5541562 24.408594 5.3906719 24.548078 4.3886719 24.330078 C 4.9786719 25.147078 5.8481719 25.76325 6.8261719 26.03125 C 6.3701719 26.19225 5.88825 26.287781 5.40625 26.300781 C 6.19625 26.983781 7.2014219 27.371094 8.2324219 27.371094 C 9.2104219 27.371094 10.121766 27.036938 10.884766 26.460938 C 10.884766 27.263938 11.379672 28 12.263672 28 C 12.732672 28 13.173063 27.732078 13.414062 27.330078 C 13.668062 27.732078 14.098078 28 14.580078 28 C 15.049078 28 15.491422 27.732078 15.732422 27.330078 C 15.986422 27.732078 16.427484 28 16.896484 28 C 17.365484 28 17.8085 27.732078 18.0625 27.330078 C 18.3035 27.732078 18.745844 28 19.214844 28 C 19.991844 28 20.580078 27.329406 20.580078 26.566406 L 20.580078 25.039062 L 20.634766 25.025391 C 22.201766 24.583391 25.227828 22.88375 26.298828 21.71875 C 27.463828 20.43375 28 17.326672 28 15.638672 C 28 14.393672 27.771922 12.772344 26.794922 11.902344 C 26.433922 11.581344 25.951078 11.246094 25.455078 11.246094 C 25.133078 11.246094 24.853344 11.407438 24.652344 11.648438 C 24.331344 9.7324375 23.486672 7.8849375 22.013672 6.5859375 C 22.093672 6.4919375 22.228516 6.384 22.228516 6.25 C 22.228516 6.008 21.691234 5.7545 21.490234 5.6875 C 21.611234 5.5535 22.09375 5.0978281 22.09375 4.9238281 C 22.09375 4.8698281 22.067344 4.8036719 22.027344 4.7636719 C 21.545344 4.2816719 20.835344 4 20.152344 4 z M 14.324219 6.4648438 C 15.248219 6.4648438 15.837891 7.3474062 15.837891 8.1914062 C 15.837891 9.0484062 15.248219 9.9335938 14.324219 9.9335938 C 13.400219 9.9335938 12.8125 9.0484062 12.8125 8.1914062 C 12.8125 7.3474063 13.401219 6.4648438 14.324219 6.4648438 z M 14.580078 7.1191406 C 14.045078 7.1191406 13.75 7.6696719 13.75 8.1386719 C 13.75 8.6216719 14.045078 9.15625 14.580078 9.15625 C 15.102078 9.15625 15.410156 8.6206719 15.410156 8.1386719 C 15.410156 7.6696719 15.102078 7.1191406 14.580078 7.1191406 z M 19.923828 7.7773438 C 22.641828 7.7773438 24.263672 10.214422 24.263672 12.732422 C 24.263672 14.554422 23.473094 16.414766 22.121094 17.634766 C 22.734094 14.568766 19.519922 15.90625 18.169922 15.90625 C 14.940922 15.90625 15.291516 12.617859 16.228516 9.5058594 C 17.178516 8.4878594 18.503828 7.7773438 19.923828 7.7773438 z M 15.544922 10.361328 C 15.316922 11.258328 15.142578 12.16975 15.142578 13.09375 C 15.142578 16.26575 17.196969 16.68775 20.167969 16.09375 C 20.367969 16.05375 20.582875 16.013672 20.796875 16.013672 C 21.465875 16.013672 21.759766 16.347578 21.759766 17.017578 C 21.759766 17.379578 21.679938 17.728172 21.585938 18.076172 C 20.768938 18.652172 19.777438 19.013672 18.773438 19.013672 C 14.911437 19.013672 13.105922 14.089328 15.544922 10.361328 z M 9.0898438 11.607422 C 8.9028437 12.370422 8.8085938 13.1475 8.8085938 13.9375 C 8.8085938 18.2505 11.808937 22.214844 16.335938 22.214844 C 19.536937 22.214844 22.321578 20.17825 23.767578 17.40625 C 23.633578 20.04525 22.455922 22.656422 20.419922 24.357422 C 20.192922 23.915422 19.723844 23.607422 19.214844 23.607422 C 18.745844 23.607422 18.3035 23.875344 18.0625 24.277344 C 17.8085 23.875344 17.365484 23.607422 16.896484 23.607422 C 16.427484 23.607422 15.986422 23.875344 15.732422 24.277344 C 15.491422 23.875344 15.049078 23.607422 14.580078 23.607422 C 14.098078 23.607422 13.668062 23.875344 13.414062 24.277344 C 13.173063 23.875344 12.732672 23.607422 12.263672 23.607422 C 11.740672 23.607422 11.285922 23.914141 11.044922 24.369141 C 8.8619219 22.534141 7.6953125 19.656078 7.6953125 16.830078 C 7.6953125 15.009078 8.1518437 13.187422 9.0898438 11.607422 z M 12.263672 24.0625 C 12.799672 24.0625 13.214844 24.517063 13.214844 25.039062 L 13.214844 26.566406 C 13.214844 27.102406 12.799672 27.558594 12.263672 27.558594 C 11.727672 27.558594 11.324219 27.088406 11.324219 26.566406 L 11.324219 25.039062 C 11.324219 24.516062 11.727672 24.0625 12.263672 24.0625 z M 14.580078 24.0625 C 15.116078 24.0625 15.517578 24.517063 15.517578 25.039062 L 15.517578 26.566406 C 15.517578 27.088406 15.116078 27.558594 14.580078 27.558594 C 14.044078 27.558594 13.628906 27.088406 13.628906 26.566406 L 13.628906 25.039062 C 13.628906 24.516062 14.044078 24.0625 14.580078 24.0625 z M 16.896484 24.0625 C 17.432484 24.0625 17.847656 24.517063 17.847656 25.039062 L 17.847656 26.566406 C 17.847656 27.102406 17.432484 27.558594 16.896484 27.558594 C 16.360484 27.558594 15.945312 27.088406 15.945312 26.566406 L 15.945312 25.039062 C 15.945312 24.516062 16.360484 24.0625 16.896484 24.0625 z M 19.228516 24.0625 C 19.764516 24.0625 20.179688 24.517063 20.179688 25.039062 L 20.179688 26.566406 C 20.179688 27.088406 19.764516 27.558594 19.228516 27.558594 C 18.692516 27.558594 18.277344 27.088406 18.277344 26.566406 L 18.277344 25.039062 C 18.277344 24.516062 18.692516 24.0625 19.228516 24.0625 z"/></svg>