<svg xmlns="http://www.w3.org/2000/svg" viewBox="0 0 32 32"><path d="M 12 4 L 12 15.46875 C 10.25 16.738281 9 18.675781 9 21 C 9 24.855469 12.144531 28 16 28 C 19.855469 28 23 24.855469 23 21 C 23 18.675781 21.75 16.738281 20 15.46875 L 20 14 L 22 14 L 22 12 L 20 12 L 20 10 L 22 10 L 22 8 L 20 8 L 20 6 L 22 6 L 22 4 Z M 14 6 L 18 6 L 18 16.40625 L 18.5 16.6875 C 19.996094 17.554688 21 19.148438 21 21 C 21 23.773438 18.773438 26 16 26 C 13.226563 26 11 23.773438 11 21 C 11 19.148438 12.003906 17.554688 13.5 16.6875 L 14 16.40625 Z M 15 8 L 15 18.1875 C 13.839844 18.601563 13 19.699219 13 21 C 13 22.65625 14.34375 24 16 24 C 17.65625 24 19 22.65625 19 21 C 19 19.699219 18.160156 18.601563 17 18.1875 L 17 8 Z"/></svg>