<svg xmlns="http://www.w3.org/2000/svg" viewBox="0 0 32 32"><path d="M 21.75 4 C 20.148438 4 18.53125 4.625 17.3125 5.84375 L 9.65625 13.46875 L 9.53125 13.625 C 8.554688 14.601563 8 15.933594 8 17.3125 L 8 19.625 L 4.90625 22.6875 L 4.875 22.75 C 3.722656 23.957031 3.71875 25.90625 4.90625 27.09375 C 6.109375 28.296875 8.109375 28.296875 9.3125 27.09375 L 12.375 24 L 14.6875 24 C 16.066406 24 17.398438 23.445313 18.375 22.46875 L 26.15625 14.6875 C 28.589844 12.253906 28.589844 8.277344 26.15625 5.84375 C 24.9375 4.625 23.351563 4 21.75 4 Z M 21.75 6 C 22.835938 6 23.914063 6.414063 24.75 7.25 C 26.421875 8.921875 26.421875 11.609375 24.75 13.28125 L 16.96875 21.0625 C 16.367188 21.664063 15.539063 22 14.6875 22 L 11.5625 22 L 7.875 25.6875 C 7.4375 26.125 6.75 26.125 6.3125 25.6875 C 5.875 25.25 5.875 24.5625 6.3125 24.125 L 10 20.4375 L 10 17.3125 C 10 16.460938 10.335938 15.632813 10.9375 15.03125 L 11.78125 14.1875 L 12.78125 15.21875 L 14.21875 13.78125 L 13.21875 12.78125 L 14.78125 11.21875 L 15.78125 12.21875 L 17.21875 10.78125 L 16.21875 9.78125 L 17.78125 8.21875 L 18.78125 9.21875 L 20.21875 7.78125 L 19.25 6.8125 C 20 6.269531 20.875 6 21.75 6 Z M 22.28125 8.28125 L 10.0625 20.5 L 11.5 21.9375 L 23.71875 9.71875 Z"/></svg>