<svg xmlns="http://www.w3.org/2000/svg" viewBox="0 0 32 32"><path d="M 16 3 C 8.819 3 3 8.819 3 16 C 3 23.181 8.819 29 16 29 C 23.181 29 29 23.181 29 16 C 29 8.819 23.181 3 16 3 z M 16 3.6914062 C 22.799 3.6914062 28.308594 9.201 28.308594 16 C 28.308594 22.799 22.799 28.308594 16 28.308594 C 9.201 28.308594 3.6914062 22.799 3.6914062 16 C 3.6914062 9.201 9.201 3.6914062 16 3.6914062 z M 16 4.1054688 C 9.432 4.1054688 4.1054688 9.432 4.1054688 16 C 4.1054688 22.568 9.432 27.894531 16 27.894531 C 22.568 27.894531 27.894531 22.568 27.894531 16 C 27.894531 9.432 22.568 4.1054688 16 4.1054688 z M 16 4.8027344 C 19.161 4.8027344 22.018734 6.1127031 24.052734 8.2207031 L 13.615234 8.2207031 L 13.615234 12.498047 L 5.3632812 12.498047 C 6.8312812 8.0320469 11.041 4.8027344 16 4.8027344 z M 9.6835938 7.859375 L 9.7734375 8.5878906 L 9.0234375 8.7871094 L 9.7402344 8.9296875 L 9.6992188 9.6992188 L 10.054688 9.0585938 L 10.777344 9.3378906 L 10.28125 8.8027344 L 10.769531 8.1992188 L 10.103516 8.5097656 L 9.6835938 7.859375 z M 13.867188 8.5351562 L 24.236328 8.5351562 L 24.236328 11.193359 L 16.599609 11.193359 L 16.599609 12.8125 L 20.958984 12.8125 L 20.958984 15.486328 L 16.591797 15.486328 L 16.591797 25.744141 L 13.830078 25.744141 L 13.830078 15.429688 L 7.7128906 15.429688 L 5.6152344 12.8125 L 13.867188 12.8125 L 13.867188 8.5351562 z M 13.970703 8.6347656 L 13.970703 12.917969 L 5.8417969 12.917969 L 7.765625 15.328125 L 13.935547 15.328125 L 13.935547 25.644531 L 16.492188 25.644531 L 16.492188 15.380859 L 20.859375 15.380859 L 20.859375 12.917969 L 16.492188 12.917969 L 16.492188 11.09375 L 24.130859 11.09375 L 24.130859 11.087891 L 24.130859 8.6347656 L 13.970703 8.6347656 z M 11.183594 8.75 L 11.292969 9.9980469 L 10.060547 10.28125 L 11.28125 10.564453 L 11.171875 11.822266 L 11.816406 10.746094 L 12.980469 11.244141 L 12.158203 10.296875 L 12.986328 9.3476562 L 11.832031 9.8359375 L 11.183594 8.75 z M 24.601562 8.8457031 C 26.216562 10.785703 27.185547 13.28 27.185547 16 C 27.191547 22.18 22.18 27.191406 16 27.191406 C 9.82 27.191406 4.8027344 22.18 4.8027344 16 C 4.8027344 14.889 4.9645312 13.808875 5.2695312 12.796875 L 7.5664062 15.748047 L 13.578125 15.748047 L 13.578125 26.064453 L 16.964844 26.064453 L 16.964844 15.800781 L 21.330078 15.800781 L 21.330078 12.513672 L 16.970703 12.513672 L 16.970703 11.507812 L 24.601562 11.507812 L 24.601562 8.8457031 z M 14.535156 9.2265625 L 23.542969 9.2265625 L 23.542969 10.505859 L 15.941406 10.505859 L 15.941406 13.451172 L 20.287109 13.451172 L 20.287109 14.705078 L 15.941406 14.705078 L 15.941406 25.052734 L 14.537109 25.052734 L 14.537109 14.705078 L 8.046875 14.705078 L 6.9921875 13.451172 L 14.535156 13.451172 L 14.535156 9.2265625 z M 22.830078 11.816406 L 22.945312 13.007812 L 21.775391 13.289062 L 22.939453 13.546875 L 22.845703 14.746094 L 23.449219 13.720703 L 24.560547 14.181641 L 23.767578 13.289062 L 24.554688 12.367188 L 23.458984 12.84375 L 22.830078 11.816406 z M 11.796875 15.832031 L 11.884766 17.115234 L 10.642578 17.320312 L 11.890625 17.628906 L 11.697266 18.876953 L 12.378906 17.78125 L 13.505859 18.347656 L 12.677734 17.361328 L 13.5625 16.466797 L 12.373047 16.953125 L 11.796875 15.832031 z M 17.880859 16.068359 L 17.949219 16.8125 L 17.220703 16.980469 L 17.949219 17.148438 L 17.886719 17.892578 L 18.269531 17.251953 L 18.955078 17.539062 L 18.462891 16.978516 L 18.951172 16.414062 L 18.263672 16.707031 L 17.880859 16.068359 z"/></svg>