<svg xmlns="http://www.w3.org/2000/svg" viewBox="0 0 32 32"><path d="M 19 3 L 19 5 L 22.59375 5 L 18.1875 9.40625 C 17.015625 8.523438 15.574219 8 14 8 C 10.144531 8 7 11.144531 7 15 C 7 18.515625 9.617188 21.417969 13 21.90625 L 13 25 L 10 25 L 10 27 L 13 27 L 13 30 L 15 30 L 15 27 L 18 27 L 18 25 L 15 25 L 15 21.90625 C 18.382813 21.417969 21 18.515625 21 15 C 21 13.425781 20.476563 11.984375 19.59375 10.8125 L 24 6.40625 L 24 10 L 26 10 L 26 3 Z M 14 10 C 16.773438 10 19 12.226563 19 15 C 19 17.773438 16.773438 20 14 20 C 11.226563 20 9 17.773438 9 15 C 9 12.226563 11.226563 10 14 10 Z"/></svg>