<svg xmlns="http://www.w3.org/2000/svg" viewBox="0 0 32 32"><path d="M 14 4 C 13.476563 4 12.941406 4.183594 12.5625 4.5625 C 12.183594 4.941406 12 5.476563 12 6 L 12 7 L 5 7 L 5 9 L 6.09375 9 L 8 27.09375 L 8.09375 28 L 23.90625 28 L 24 27.09375 L 25.90625 9 L 27 9 L 27 7 L 20 7 L 20 6 C 20 5.476563 19.816406 4.941406 19.4375 4.5625 C 19.058594 4.183594 18.523438 4 18 4 Z M 14 6 L 18 6 L 18 7 L 14 7 Z M 8.125 9 L 23.875 9 L 22.09375 26 L 9.90625 26 Z M 12 12 L 12 23 L 14 23 L 14 12 Z M 15 12 L 15 23 L 17 23 L 17 12 Z M 18 12 L 18 23 L 20 23 L 20 12 Z"/></svg>