<svg xmlns="http://www.w3.org/2000/svg" viewBox="0 0 32 32"><path d="M 16 3.59375 L 15.28125 4.28125 L 9.34375 10.25 L 8.34375 11.21875 L 9.625 11.84375 C 9.625 11.84375 10.640625 12.210938 12.0625 12.53125 L 7.65625 16.9375 L 6.65625 17.90625 L 7.90625 18.53125 C 7.90625 18.53125 8.984375 18.835938 9.53125 19.03125 L 5.9375 22.625 L 4.96875 23.625 L 6.21875 24.25 C 6.21875 24.25 8.65625 25.425781 13 25.84375 L 13 29 L 15 29 L 15 25.96875 C 15.335938 25.980469 15.648438 26 16 26 C 16.351563 26 16.664063 25.980469 17 25.96875 L 17 29 L 19 29 L 19 25.84375 C 23.351563 25.425781 25.8125 24.25 25.8125 24.25 L 27.03125 23.625 L 26.0625 22.625 L 22.46875 19.03125 C 23.015625 18.835938 24.09375 18.53125 24.09375 18.53125 L 25.34375 17.90625 L 24.34375 16.9375 L 19.9375 12.53125 C 21.359375 12.210938 22.375 11.84375 22.375 11.84375 L 23.65625 11.21875 L 22.65625 10.25 L 16.71875 4.28125 Z M 16 6.4375 L 20 10.40625 C 19.40625 10.605469 19.285156 10.761719 17.8125 10.90625 L 16 11.09375 L 14.1875 10.90625 C 12.714844 10.761719 12.59375 10.605469 12 10.40625 Z M 16 11.4375 L 17.1875 12.59375 L 21.78125 17.1875 C 21.316406 17.351563 21.328125 17.40625 20.375 17.59375 L 18.53125 17.96875 L 19.875 19.28125 L 23.53125 22.9375 C 22.257813 23.394531 20.078125 24 16 24 C 11.960938 24 9.789063 23.394531 8.5 22.9375 L 12.125 19.28125 L 13.46875 17.96875 L 11.625 17.59375 C 10.671875 17.40625 10.683594 17.351563 10.21875 17.1875 L 14.8125 12.59375 Z"/></svg>