<svg xmlns="http://www.w3.org/2000/svg" viewBox="0 0 32 32"><path d="M 17 5 L 17 21.074219 L 2.7324219 25.035156 L 3.2675781 26.962891 L 20.015625 22.314453 C 20.179437 24.924586 22.349292 27 25 27 C 27.757 27 30 24.757 30 22 C 30 19.243 27.757 17 25 17 C 22.901506 17 21.107665 18.302147 20.367188 20.138672 L 19 20.517578 L 19 7 L 30 7 L 30 5 L 17 5 z M 12.460938 9.7636719 L 1.9160156 12.787109 L 4.6914062 22.470703 L 15.236328 19.445312 L 12.460938 9.7636719 z M 11.089844 12.236328 L 12.763672 18.074219 L 6.0644531 19.994141 L 4.390625 14.158203 L 11.089844 12.236328 z M 25 19 C 26.654 19 28 20.346 28 22 C 28 23.654 26.654 25 25 25 C 23.346 25 22 23.654 22 22 C 22 20.346 23.346 19 25 19 z"/></svg>