<svg xmlns="http://www.w3.org/2000/svg" viewBox="0 0 32 32"><path d="M 16 3 C 15.074219 3 14.054688 3.269531 13.1875 3.53125 C 12.335938 3.789063 11.710938 4.054688 11.6875 4.0625 C 11.6875 4.0625 11.65625 4.0625 11.65625 4.0625 L 8.78125 5.03125 L 8.6875 5.0625 C 8.628906 5.078125 8.535156 5.105469 8.3125 5.1875 L 8 5.28125 L 8 5.3125 C 7.164063 5.671875 5.855469 6.449219 5.09375 8.0625 C 4.058594 10.25 4 12.96875 4 12.96875 L 4 15 L 8 15 L 8 29 L 24 29 L 24 15 L 28 15 L 28 12.90625 C 28 12.90625 27.914063 12.058594 27.75 11.03125 C 27.585938 10.003906 27.417969 8.871094 26.84375 7.96875 C 25.910156 6.5 24.75 5.753906 24 5.375 L 24 5.28125 L 23.59375 5.15625 C 23.535156 5.128906 23.546875 5.144531 23.5 5.125 L 23.3125 5.0625 L 20.34375 4.0625 C 20.34375 4.0625 20.3125 4.0625 20.3125 4.0625 C 20.289063 4.054688 19.664063 3.789063 18.8125 3.53125 C 17.945313 3.269531 16.925781 3 16 3 Z M 16 5 C 16.433594 5 17.425781 5.230469 18.21875 5.46875 C 18.425781 5.53125 18.414063 5.535156 18.59375 5.59375 C 18.53125 5.6875 18.484375 5.777344 18.40625 5.875 C 17.9375 6.457031 17.28125 7 16 7 C 14.71875 7 14.0625 6.457031 13.59375 5.875 C 13.515625 5.777344 13.46875 5.6875 13.40625 5.59375 C 13.585938 5.535156 13.574219 5.53125 13.78125 5.46875 C 14.574219 5.230469 15.566406 5 16 5 Z M 11.4375 6.21875 C 11.585938 6.503906 11.777344 6.808594 12.03125 7.125 C 12.769531 8.042969 14.09375 9 16 9 C 17.90625 9 19.230469 8.042969 19.96875 7.125 C 20.222656 6.808594 20.414063 6.503906 20.5625 6.21875 L 22 6.71875 L 22 27 L 10 27 L 10 6.71875 Z M 8 7.5625 L 8 13 L 6 13 C 6.003906 12.945313 6.15625 10.523438 6.90625 8.9375 C 7.207031 8.300781 7.605469 7.859375 8 7.5625 Z M 24 7.71875 C 24.367188 8.027344 24.773438 8.429688 25.15625 9.03125 C 25.316406 9.285156 25.628906 10.40625 25.78125 11.34375 C 25.925781 12.230469 25.992188 12.921875 26 13 L 24 13 Z"/></svg>