<svg xmlns="http://www.w3.org/2000/svg" viewBox="0 0 32 32"><path d="M 28 8.558594 C 27.117188 8.949219 26.167969 9.214844 25.171875 9.332031 C 26.1875 8.722656 26.96875 7.757813 27.335938 6.609375 C 26.386719 7.171875 25.332031 7.582031 24.210938 7.804688 C 23.3125 6.847656 22.03125 6.246094 20.617188 6.246094 C 17.898438 6.246094 15.691406 8.453125 15.691406 11.171875 C 15.691406 11.558594 15.734375 11.933594 15.820313 12.292969 C 11.726563 12.089844 8.097656 10.128906 5.671875 7.148438 C 5.246094 7.875 5.003906 8.722656 5.003906 9.625 C 5.003906 11.332031 5.871094 12.839844 7.195313 13.722656 C 6.386719 13.695313 5.628906 13.476563 4.964844 13.105469 C 4.964844 13.128906 4.964844 13.148438 4.964844 13.167969 C 4.964844 15.554688 6.660156 17.546875 8.914063 17.996094 C 8.5 18.109375 8.066406 18.171875 7.617188 18.171875 C 7.300781 18.171875 6.988281 18.140625 6.691406 18.082031 C 7.316406 20.039063 9.136719 21.460938 11.289063 21.503906 C 9.605469 22.824219 7.480469 23.609375 5.175781 23.609375 C 4.777344 23.609375 4.386719 23.585938 4 23.539063 C 6.179688 24.9375 8.765625 25.753906 11.546875 25.753906 C 20.605469 25.753906 25.558594 18.25 25.558594 11.742188 C 25.558594 11.53125 25.550781 11.316406 25.542969 11.105469 C 26.503906 10.410156 27.339844 9.542969 28 8.558594 Z"/></svg>