<svg xmlns="http://www.w3.org/2000/svg" viewBox="0 0 32 32"><path d="M 16 3 C 8.8321388 3 3 8.832144 3 16 C 3 23.167856 8.8321388 29 16 29 C 23.167861 29 29 23.167856 29 16 C 29 8.832144 23.167861 3 16 3 z M 16 5 C 22.086982 5 27 9.9130223 27 16 C 27 22.086978 22.086982 27 16 27 C 9.9130183 27 5 22.086978 5 16 C 5 9.9130223 9.9130183 5 16 5 z M 22.181641 11 L 20.736328 11.207031 C 20.618328 11.226031 20.533156 11.328266 20.535156 11.447266 C 20.534156 11.459266 20.534156 11.472375 20.535156 11.484375 L 20.615234 11.90625 C 20.692234 12.33125 20.772562 12.870484 20.851562 13.521484 C 20.929562 14.192484 20.971563 14.867969 20.976562 15.542969 C 20.989562 16.832969 20.829641 17.773531 20.556641 18.394531 C 20.282641 19.014531 19.661094 19.609047 18.996094 19.748047 C 18.092094 19.939047 17.169094 20.021141 16.246094 19.994141 L 15.753906 19.994141 C 14.829906 20.022141 13.906953 19.939047 13.001953 19.748047 C 12.334953 19.612047 11.725219 19.031156 11.449219 18.410156 C 11.180219 17.790156 10.979281 16.834969 10.988281 15.542969 C 10.993281 14.866969 11.035234 14.192484 11.115234 13.521484 C 11.192234 12.868484 11.270656 12.33025 11.347656 11.90625 L 11.429688 11.484375 C 11.430688 11.472375 11.430687 11.459266 11.429688 11.447266 C 11.429688 11.329266 11.344516 11.228031 11.228516 11.207031 L 9.8125 11.001953 L 9.7792969 11.001953 C 9.6672969 11.003953 9.5709219 11.0785 9.5449219 11.1875 C 9.5189219 11.2845 9.5050313 11.35975 9.4570312 11.59375 C 9.3690312 12.04475 9.2872656 12.484953 9.1972656 13.126953 C 9.1022656 13.824953 9.0463906 14.526469 9.0253906 15.230469 C 8.9913906 15.720469 8.9913906 16.213125 9.0253906 16.703125 C 9.0623906 18.002125 9.2862656 19.039359 9.6972656 19.818359 C 10.109266 20.595359 10.805109 21.154094 11.787109 21.496094 C 12.769109 21.838094 14.136625 22.005047 15.890625 21.998047 L 16.111328 21.998047 C 17.866328 22.005047 19.234844 21.838094 20.214844 21.496094 C 21.195844 21.155094 21.891734 20.595359 22.302734 19.818359 C 22.713734 19.041359 22.938609 18.003125 22.974609 16.703125 C 23.007609 16.213125 23.008609 15.720469 22.974609 15.230469 C 22.954609 14.526469 22.897734 13.824953 22.802734 13.126953 C 22.712734 12.492953 22.629969 12.052797 22.542969 11.591797 C 22.493969 11.357797 22.481078 11.2855 22.455078 11.1875 C 22.430078 11.0775 22.333703 10.999 22.220703 11 L 22.181641 11 z"/></svg>