<svg xmlns="http://www.w3.org/2000/svg" viewBox="0 0 32 32"><path d="M 15 3 L 15 4.625 C 13.039063 4.832031 10.539063 5.609375 8.21875 6.90625 C 5.503906 8.425781 3 10.664063 3 13.65625 C 3 15.441406 4.449219 17 6.34375 17 C 7.25 17 8.03125 16.621094 8.625 16.09375 C 8.636719 16.085938 8.644531 16.074219 8.65625 16.0625 C 9.242188 16.675781 10.089844 17 11 17 C 11.988281 17 12.820313 16.582031 13.40625 16.03125 C 13.820313 16.425781 14.363281 16.71875 15 16.875 L 15 23.59375 C 13.464844 23.871094 12.40625 24.6875 12.40625 24.6875 L 13.59375 26.3125 C 13.59375 26.3125 14.753906 25.5 16 25.5 C 17.246094 25.5 18.40625 26.3125 18.40625 26.3125 L 19.59375 24.6875 C 19.59375 24.6875 18.535156 23.871094 17 23.59375 L 17 16.84375 C 17.5625 16.6875 18.054688 16.429688 18.4375 16.09375 C 19.023438 16.6875 19.855469 17 20.75 17 C 21.757813 17 22.601563 16.566406 23.1875 16 C 23.230469 16.039063 23.269531 16.085938 23.3125 16.125 C 23.917969 16.644531 24.714844 17 25.59375 17 C 27.460938 17 29 15.496094 29 13.6875 C 29 10.703125 26.539063 8.472656 23.84375 6.9375 C 21.539063 5.625 19.007813 4.832031 17 4.625 L 17 3 Z M 15.9375 7 C 16.070313 7.1875 16.1875 7.28125 16.34375 7.59375 C 16.855469 8.625 17.429688 10.441406 17.5 13.40625 C 17.492188 13.46875 17.492188 13.53125 17.5 13.59375 C 17.503906 13.730469 17.5 13.859375 17.5 14 C 17.5 14.015625 17.410156 14.324219 17.15625 14.5625 C 16.902344 14.800781 16.535156 15 16 15 C 14.910156 15 14.5 14.125 14.5 14 C 14.5 13.859375 14.5 13.730469 14.5 13.59375 C 14.5 13.5625 14.5 13.53125 14.5 13.5 C 14.554688 10.238281 15.121094 8.402344 15.625 7.4375 C 15.75 7.195313 15.828125 7.148438 15.9375 7 Z M 18.46875 7.625 C 18.679688 7.746094 18.847656 7.789063 19.0625 7.9375 C 20.636719 9.023438 22.117188 10.734375 22.21875 13.6875 C 22.191406 13.921875 22.09375 14.25 21.875 14.5 C 21.632813 14.78125 21.324219 15 20.75 15 C 20.277344 15 20.03125 14.859375 19.84375 14.65625 C 19.65625 14.453125 19.5 14.125 19.5 13.59375 C 19.503906 13.5 19.492188 13.402344 19.46875 13.3125 C 19.398438 10.722656 18.984375 8.941406 18.46875 7.625 Z M 13.375 7.96875 C 12.941406 9.25 12.59375 10.898438 12.53125 13.3125 C 12.53125 13.324219 12.53125 13.332031 12.53125 13.34375 C 12.515625 13.40625 12.503906 13.46875 12.5 13.53125 C 12.5 13.550781 12.5 13.574219 12.5 13.59375 C 12.5 13.828125 12.367188 14.21875 12.125 14.5 C 11.882813 14.78125 11.574219 15 11 15 C 10.527344 15 10.28125 14.859375 10.09375 14.65625 C 9.90625 14.453125 9.75 14.125 9.75 13.59375 C 9.75 13.507813 9.738281 13.425781 9.71875 13.34375 C 9.71875 13.332031 9.71875 13.324219 9.71875 13.3125 C 9.957031 10.929688 11.40625 9.308594 12.9375 8.1875 C 13.15625 8.027344 13.160156 8.105469 13.375 7.96875 Z M 10.21875 8.21875 C 8.875 9.667969 7.6875 11.449219 7.6875 14 C 7.6875 14.023438 7.59375 14.34375 7.3125 14.59375 C 7.03125 14.84375 6.636719 15 6.34375 15 C 5.535156 15 5 14.371094 5 13.65625 C 5 11.851563 6.765625 10.011719 9.1875 8.65625 C 9.519531 8.472656 9.871094 8.382813 10.21875 8.21875 Z M 22.15625 8.375 C 22.382813 8.488281 22.625 8.53125 22.84375 8.65625 C 25.242188 10.023438 27 11.871094 27 13.6875 C 27 14.378906 26.425781 15 25.59375 15 C 25.273438 15 24.894531 14.855469 24.625 14.625 C 24.355469 14.394531 24.25 14.117188 24.25 14 C 24.25 13.859375 24.253906 13.726563 24.25 13.59375 C 24.253906 13.5 24.242188 13.402344 24.21875 13.3125 C 24.0625 11.191406 23.191406 9.65625 22.15625 8.375 Z M 6 24 C 5.449219 24 5 24.449219 5 25 C 5 25.550781 5.449219 26 6 26 C 6.550781 26 7 25.550781 7 25 C 7 24.449219 6.550781 24 6 24 Z M 10 24 C 9.449219 24 9 24.449219 9 25 C 9 25.550781 9.449219 26 10 26 C 10.550781 26 11 25.550781 11 25 C 11 24.449219 10.550781 24 10 24 Z M 22 24 C 21.449219 24 21 24.449219 21 25 C 21 25.550781 21.449219 26 22 26 C 22.550781 26 23 25.550781 23 25 C 23 24.449219 22.550781 24 22 24 Z M 26 24 C 25.449219 24 25 24.449219 25 25 C 25 25.550781 25.449219 26 26 26 C 26.550781 26 27 25.550781 27 25 C 27 24.449219 26.550781 24 26 24 Z M 8 27 C 7.449219 27 7 27.449219 7 28 C 7 28.550781 7.449219 29 8 29 C 8.550781 29 9 28.550781 9 28 C 9 27.449219 8.550781 27 8 27 Z M 12 27 C 11.449219 27 11 27.449219 11 28 C 11 28.550781 11.449219 29 12 29 C 12.550781 29 13 28.550781 13 28 C 13 27.449219 12.550781 27 12 27 Z M 16 27 C 15.449219 27 15 27.449219 15 28 C 15 28.550781 15.449219 29 16 29 C 16.550781 29 17 28.550781 17 28 C 17 27.449219 16.550781 27 16 27 Z M 20 27 C 19.449219 27 19 27.449219 19 28 C 19 28.550781 19.449219 29 20 29 C 20.550781 29 21 28.550781 21 28 C 21 27.449219 20.550781 27 20 27 Z M 24 27 C 23.449219 27 23 27.449219 23 28 C 23 28.550781 23.449219 29 24 29 C 24.550781 29 25 28.550781 25 28 C 25 27.449219 24.550781 27 24 27 Z"/></svg>