<svg xmlns="http://www.w3.org/2000/svg" viewBox="0 0 32 32"><path d="M 15.511719 2.9882812 C 11.549219 3.0757812 7.75 4 5 5.5 L 5 18.300781 C 5 24.400781 9.4 26.199609 16 29.099609 C 22.6 26.199609 27 24.400781 27 18.300781 L 27 5.5 C 23.6 3.65 19.474219 2.9007813 15.511719 2.9882812 z M 21.019531 5.5019531 C 22.725781 5.4628906 24.4 5.5492187 26 5.6992188 L 26 18.199219 C 26 23.299219 22.9 24.900391 16 27.900391 C 9.1 24.900391 6 23.299219 6 18.199219 L 6 11 C 10.5 6.875 15.900781 5.6191406 21.019531 5.5019531 z M 16.169922 11.03125 C 15.15332 11.025977 14.186719 11.361719 13.699219 11.699219 L 13.699219 24 L 15.599609 24 L 15.599609 20 C 16.999609 20.4 19.699219 19.9 19.699219 15.5 C 19.699219 12 17.864258 11.040039 16.169922 11.03125 z M 22.541016 11.064453 C 21.271484 11.163086 20.099609 12 20.099609 13.5 C 20.099609 16.3 23.099609 15.999609 23.099609 17.599609 C 23.199609 18.999609 21.399219 18.900391 20.199219 17.900391 L 20.199219 19.599609 C 22.299219 20.899609 24.9 20.099219 25 17.699219 C 25.1 14.699219 21.900391 15.000391 21.900391 13.400391 C 21.900391 12.300391 23.699219 12.200781 24.699219 13.300781 L 24.699219 11.699219 C 24.099219 11.211719 23.302734 11.005273 22.541016 11.064453 z M 7 11.199219 L 7 17.099609 C 7 21.499609 11.699219 20.100391 12.699219 19.400391 L 12.699219 11.199219 L 10.800781 11.199219 L 10.800781 18.300781 C 10.500781 18.500781 8.9003906 18.999219 8.9003906 17.199219 L 8.9003906 11.199219 L 7 11.199219 z M 16.054688 12.560547 C 16.74375 12.499609 17.699219 12.875 17.699219 15.5 C 17.799219 19.5 15.7 18.5 15.5 18.5 L 15.5 12.699219 C 15.625 12.649219 15.825 12.580859 16.054688 12.560547 z"/></svg>