<svg xmlns="http://www.w3.org/2000/svg" viewBox="0 0 32 32"><path d="M 16 5 C 13.179017 5 10.783344 6.6265632 9.6699219 9 L 9.5996094 9 L 9.4511719 9.5234375 C 9.3852737 9.7001962 9.3252545 9.8790419 9.2734375 10.0625 C 9.2670384 10.082322 9.2580844 10.101152 9.2519531 10.121094 L 5.5996094 7.1992188 L 4.4003906 8.8007812 L 7.0996094 11 L 4 11 L 4 13 L 9.0664062 13 C 9.107897 13.318868 9.1740687 13.629611 9.2695312 13.927734 C 9.3220228 14.114642 9.3840771 14.296594 9.4511719 14.476562 L 9.5996094 15 L 9.6699219 15 C 10.206106 16.142961 11.033489 17.115298 12.070312 17.8125 C 8.5100119 19.34733 6 22.893578 6 27 L 8 27 C 8 22.6 11.6 19 16 19 C 20.4 19 24 22.6 24 27 L 26 27 C 26 22.893276 23.490404 19.345194 19.929688 17.810547 C 20.965459 17.113458 21.794286 16.142127 22.330078 15 L 22.400391 15 L 22.429688 14.791016 C 22.795743 13.937686 23 12.99599 23 12 C 23 8.1 19.9 5 16 5 z M 16 7 C 17.660989 7 19.097242 7.7856467 20.001953 9 L 11.998047 9 C 12.902758 7.7856467 14.339011 7 16 7 z M 11.099609 11 L 20.900391 11 C 20.910732 11.031023 20.909656 11.070575 20.917969 11.103516 C 20.968798 11.394098 21 11.692868 21 12 C 21 12.307132 20.968798 12.605902 20.917969 12.896484 C 20.909656 12.929425 20.910732 12.968977 20.900391 13 L 11.099609 13 C 11.089268 12.968977 11.090344 12.929425 11.082031 12.896484 C 11.031202 12.605902 11 12.307132 11 12 C 11 11.692868 11.031202 11.394098 11.082031 11.103516 C 11.090344 11.070575 11.089268 11.031023 11.099609 11 z M 11.998047 15 L 20.001953 15 C 19.097242 16.214353 17.660989 17 16 17 C 14.339011 17 12.902758 16.214353 11.998047 15 z"/></svg>