<svg xmlns="http://www.w3.org/2000/svg" viewBox="0 0 32 32"><path d="M 8 5 C 4.7 5 2 7.7 2 11 C 2 13 3 14.800781 4.5 15.800781 C 1.8 17.200781 0 19.9 0 23 L 2 23 C 2 19.7 4.7 17 8 17 C 11.3 17 14 19.7 14 23 L 16 23 C 16 19.8 18.600781 17.1 21.800781 17 L 22 17 C 24.5 17 26.6 15.500391 27.5 13.400391 C 27.5 13.400391 27.499609 13.300781 27.599609 13.300781 C 27.699609 13.200781 27.699219 13.000391 27.699219 12.900391 C 27.699219 12.800391 27.700781 12.799219 27.800781 12.699219 C 27.800781 12.599219 27.900391 12.400781 27.900391 12.300781 C 27.900391 12.200781 27.9 12.1 28 12 C 28 11.9 27.999609 11.799219 28.099609 11.699219 L 28.099609 11.199219 L 28.099609 11.099609 C 28.099609 7.7996094 25.399609 5.0996094 22.099609 5.0996094 C 18.799609 5.0996094 16.099609 7.7996094 16.099609 11.099609 C 16.099609 13.099609 17.099609 14.900391 18.599609 15.900391 C 17.099609 16.600391 15.899609 17.799219 15.099609 19.199219 C 14.299609 17.799219 13.099609 16.600391 11.599609 15.900391 C 12.999609 14.800391 14 13 14 11 C 14 7.7 11.3 5 8 5 z M 8 7 C 10.2 7 12 8.8 12 11 C 12 13.2 10.2 15 8 15 C 5.8 15 4 13.2 4 11 C 4 8.8 5.8 7 8 7 z M 22 7 C 24.2 7 26 8.8 26 11 C 26 13.2 24.2 15 22 15 C 19.8 15 18 13.2 18 11 C 18 8.8 19.8 7 22 7 z M 24.099609 18 L 24.099609 20.099609 C 23.499609 20.199609 22.900391 20.500781 22.400391 20.800781 L 20.900391 19.300781 L 19.5 20.699219 L 21 22.199219 C 20.6 22.699219 20.400781 23.3 20.300781 24 L 18 24 L 18 26 L 20.099609 26 C 20.199609 26.6 20.500781 27.200781 20.800781 27.800781 L 19.300781 29.300781 L 20.699219 30.699219 L 22.199219 29.199219 C 22.699219 29.499219 23.300391 29.800391 23.900391 29.900391 L 23.900391 32 L 25.900391 32 L 25.900391 29.900391 C 26.500391 29.800391 27.099609 29.499219 27.599609 29.199219 L 29.099609 30.699219 L 30.5 29.300781 L 29 27.800781 C 29.4 27.300781 29.599219 26.7 29.699219 26 L 32 26 L 32 24 L 29.900391 24 C 29.800391 23.4 29.499219 22.799219 29.199219 22.199219 L 30.699219 20.699219 L 29.300781 19.300781 L 27.800781 20.800781 C 27.300781 20.500781 26.699609 20.199609 26.099609 20.099609 L 26.099609 18 L 24.099609 18 z M 25 22 C 26.7 22 28 23.3 28 25 C 28 26.7 26.7 28 25 28 C 23.3 28 22 26.7 22 25 C 22 23.3 23.3 22 25 22 z M 25 24 C 24.875 24 24.75 24.03125 24.632812 24.085938 C 24.515625 24.140625 24.40625 24.21875 24.3125 24.3125 C 24.21875 24.40625 24.140625 24.515625 24.085938 24.632812 C 24.03125 24.75 24 24.875 24 25 C 24 25.125 24.03125 25.25 24.085938 25.367188 C 24.140625 25.484375 24.21875 25.59375 24.3125 25.6875 C 24.40625 25.78125 24.515625 25.859375 24.632812 25.914062 C 24.75 25.96875 24.875 26 25 26 C 25.5 26 26 25.5 26 25 C 26 24.5 25.5 24 25 24 z"/></svg>