<svg xmlns="http://www.w3.org/2000/svg" viewBox="0 0 32 32"><path d="M 16 5 C 12.1 5 9 8.1 9 12 C 9 14.4375 10.209961 16.561523 12.070312 17.8125 C 8.5100119 19.34733 6 22.893578 6 27 L 8 27 C 8 22.6 11.6 19 16 19 C 19.9 19 23 15.9 23 12 C 23 8.1 19.9 5 16 5 z M 16 7 C 18.8 7 21 9.2 21 12 C 21 14.8 18.8 17 16 17 C 13.2 17 11 14.8 11 12 C 11 9.2 13.2 7 16 7 z M 24.099609 18 L 24.099609 20.099609 C 23.499609 20.199609 22.900391 20.500781 22.400391 20.800781 L 20.900391 19.300781 L 19.5 20.699219 L 21 22.199219 C 20.6 22.699219 20.400781 23.3 20.300781 24 L 18 24 L 18 26 L 20.099609 26 C 20.199609 26.6 20.500781 27.200781 20.800781 27.800781 L 19.300781 29.300781 L 20.699219 30.699219 L 22.199219 29.199219 C 22.699219 29.499219 23.300391 29.800391 23.900391 29.900391 L 23.900391 32 L 25.900391 32 L 25.900391 29.900391 C 26.500391 29.800391 27.099609 29.499219 27.599609 29.199219 L 29.099609 30.699219 L 30.5 29.300781 L 29 27.800781 C 29.4 27.300781 29.599219 26.7 29.699219 26 L 32 26 L 32 24 L 29.900391 24 C 29.800391 23.4 29.499219 22.799219 29.199219 22.199219 L 30.699219 20.699219 L 29.300781 19.300781 L 27.800781 20.800781 C 27.300781 20.500781 26.699609 20.199609 26.099609 20.099609 L 26.099609 18 L 24.099609 18 z M 25 22 C 26.7 22 28 23.3 28 25 C 28 26.7 26.7 28 25 28 C 23.3 28 22 26.7 22 25 C 22 23.3 23.3 22 25 22 z M 25 24 C 24.875 24 24.75 24.03125 24.632812 24.085938 C 24.515625 24.140625 24.40625 24.21875 24.3125 24.3125 C 24.21875 24.40625 24.140625 24.515625 24.085938 24.632812 C 24.03125 24.75 24 24.875 24 25 C 24 25.375 24.28125 25.75 24.632812 25.914062 C 24.75 25.96875 24.875 26 25 26 C 25.5 26 26 25.5 26 25 C 26 24.5 25.5 24 25 24 z"/></svg>