<svg xmlns="http://www.w3.org/2000/svg" viewBox="0 0 32 32"><path d="M 23.09375 4 C 22.648438 4.007813 22.195313 4.070313 21.75 4.15625 C 19.972656 4.496094 18.191406 5.402344 16.875 6.71875 C 15.558594 8.035156 14.941406 9.585938 15 11.09375 C 15.046875 12.269531 15.503906 13.382813 16.21875 14.34375 L 4.28125 26.28125 L 5.71875 27.71875 L 17.65625 15.78125 C 18.617188 16.496094 19.730469 16.953125 20.90625 17 C 22.414063 17.058594 23.964844 16.441406 25.28125 15.125 C 26.597656 13.808594 27.503906 12.027344 27.84375 10.25 C 28.183594 8.472656 27.96875 6.59375 26.6875 5.3125 C 26.046875 4.671875 25.261719 4.300781 24.40625 4.125 C 23.980469 4.039063 23.539063 3.992188 23.09375 4 Z M 23.09375 6 C 23.402344 5.996094 23.699219 6.007813 23.96875 6.0625 C 24.507813 6.167969 24.957031 6.394531 25.28125 6.71875 C 25.929688 7.367188 26.167969 8.519531 25.90625 9.875 C 25.644531 11.230469 24.875 12.6875 23.875 13.6875 C 22.875 14.6875 21.925781 15.035156 21 15 C 20.074219 14.964844 19.132813 14.507813 18.3125 13.6875 C 17.492188 12.867188 17.035156 11.925781 17 11 C 16.964844 10.074219 17.3125 9.125 18.3125 8.125 C 19.3125 7.125 20.769531 6.355469 22.125 6.09375 C 22.464844 6.027344 22.785156 6.003906 23.09375 6 Z"/></svg>