<svg xmlns="http://www.w3.org/2000/svg" viewBox="0 0 32 32"><path d="M 22.96875 4 C 22.816406 4.003906 22.65625 4.023438 22.5 4.0625 L 6.25 8.34375 C 4.9375 8.6875 4 9.890625 4 11.25 L 4 25 C 4 26.644531 5.355469 28 7 28 L 25 28 C 26.644531 28 28 26.644531 28 25 L 28 12 C 28 10.355469 26.644531 9 25 9 L 11.625 9 L 23 6 L 23 8 L 25 8 L 25 6 C 25 4.875 24.042969 3.984375 22.96875 4 Z M 7 11 L 25 11 C 25.566406 11 26 11.433594 26 12 L 26 25 C 26 25.566406 25.566406 26 25 26 L 7 26 C 6.433594 26 6 25.566406 6 25 L 6 12 C 6 11.433594 6.433594 11 7 11 Z M 22.5 17 C 21.671875 17 21 17.671875 21 18.5 C 21 19.328125 21.671875 20 22.5 20 C 23.328125 20 24 19.328125 24 18.5 C 24 17.671875 23.328125 17 22.5 17 Z"/></svg>