<svg xmlns="http://www.w3.org/2000/svg" viewBox="0 0 32 32"><path d="M 17.699219 4 C 12.699219 4 7.5996094 7.3007812 6.5996094 12.300781 C 5.9996094 15.300781 6.8007813 18.099609 4.3007812 18.099609 C 3.2007812 18.099609 2.4992187 19.400781 3.1992188 20.300781 C 4.5992187 22.200781 6.5003906 23.3 8.4003906 24 L 9.015625 24.246094 A 2.5 2.5 0 0 0 11.5 27 A 2.5 2.5 0 0 0 13.945312 25 L 17.900391 25 L 18.052734 25 A 2.5 2.5 0 0 0 20.5 27 A 2.5 2.5 0 0 0 22.871094 23.708984 C 27.060778 21.5787 29.388667 17.337865 28.599609 12.800781 C 27.999609 7.7007813 22.999219 4 17.699219 4 z M 17.699219 6 C 22.199219 6 26.200391 9.1007812 26.900391 13.300781 C 27.500391 16.900781 25.599609 20.399609 22.099609 22.099609 L 21.646484 22.28125 A 2.5 2.5 0 0 0 20.5 22 A 2.5 2.5 0 0 0 18.501953 23 C 18.501261 23 18.500692 23 18.5 23 L 18.099609 23 L 13.900391 23 C 13.778038 23 13.620854 22.984092 13.480469 22.978516 A 2.5 2.5 0 0 0 11.5 22 A 2.5 2.5 0 0 0 10.132812 22.410156 C 10.12233 22.406702 10.109976 22.403846 10.099609 22.400391 L 9.1992188 22.099609 C 7.7992187 21.599609 6.5996094 20.900391 5.5996094 19.900391 C 7.9996094 19.200391 8.2007812 16.400781 8.3007812 14.800781 C 8.4007812 14.100781 8.4 13.399219 8.5 12.699219 C 9.4 8.4992187 13.799219 6 17.699219 6 z M 14.5 11 A 1.5 1.5 0 0 0 14.5 14 A 1.5 1.5 0 0 0 14.5 11 z M 20.5 11 A 1.5 1.5 0 0 0 20.5 14 A 1.5 1.5 0 0 0 20.5 11 z M 13.605469 14.978516 C 13.542969 14.969141 13.475391 14.975 13.400391 15 C 13.100391 15.1 12.9 15.299609 13 15.599609 C 13.5 17.899609 15.7 19 17.5 19 C 19.3 19 21.5 17.899609 22 15.599609 C 22 15.299609 21.899609 15.1 21.599609 15 C 21.299609 15 21.1 15.100391 21 15.400391 C 20.6 17.200391 18.9 18 17.5 18 C 16.1 18 14.4 17.200391 14 15.400391 C 13.925 15.175391 13.792969 15.006641 13.605469 14.978516 z"/></svg>