<svg xmlns="http://www.w3.org/2000/svg" viewBox="0 0 32 32"><path d="M 5 5 L 5 27 L 27 27 L 27 5 L 5 5 z M 7 7 L 25 7 L 25 25 L 7 25 L 7 7 z M 16 9 C 12.1 9 9 12.1 9 16 C 9 17.3 9.4 18.5 10 19.5 L 9 23 L 12.5 22.099609 C 13.5 22.699609 14.7 23 16 23 C 19.9 23 23 19.9 23 16 C 23 12.1 19.9 9 16 9 z M 16 10.5 C 19 10.5 21.5 13 21.5 16 C 21.5 19 19 21.5 16 21.5 C 15 21.5 14.100781 21.200781 13.300781 20.800781 L 12.800781 20.5 L 12.199219 20.699219 L 11.199219 21 L 11.5 20 L 11.699219 19.400391 L 11.400391 18.900391 C 10.900391 18.100391 10.599609 17.099609 10.599609 16.099609 C 10.499609 12.999609 13 10.5 16 10.5 z M 13.800781 13.099609 C 13.700781 13.099609 13.500391 13.100781 13.400391 13.300781 C 13.200391 13.400781 12.800781 13.799609 12.800781 14.599609 C 12.800781 15.299609 13.300391 16.099219 13.400391 16.199219 C 13.500391 16.299219 14.499609 17.899609 16.099609 18.599609 C 17.099609 18.999609 17.5 19.1 18 19 C 18.3 18.9 18.999609 18.599219 19.099609 18.199219 C 19.199609 17.799219 19.200781 17.499219 19.300781 17.699219 C 19.300781 17.599219 19.2 17.6 19 17.5 C 18.8 17.4 18.000391 17 17.900391 17 C 17.700391 17 17.6 16.899609 17.5 17.099609 C 17.4 17.199609 17.1 17.599219 17 17.699219 C 16.9 17.799219 16.899219 17.799219 16.699219 17.699219 C 15.699219 17.199219 15.1 16.800781 14.5 15.800781 C 14.4 15.500781 14.7 15.500391 15 14.900391 C 15.1 14.800391 15 14.699609 15 14.599609 C 14.9 14.499609 14.6 13.700391 14.5 13.400391 C 14.3 13.100391 14.199609 13.099609 14.099609 13.099609 L 13.800781 13.099609 z"/></svg>