<svg xmlns="http://www.w3.org/2000/svg" viewBox="0 0 32 32"><path d="M 14.800781 4 L 14.199219 6.8007812 L 13 7.0996094 L 11 5 L 9.0996094 6.0996094 L 9.9003906 9 L 9.0996094 9.8007812 L 6.1992188 9 L 5.0996094 10.900391 L 7.1992188 13 L 6.9003906 14 L 4 14.800781 L 4 17 L 6.9003906 17.800781 L 7.1992188 19 L 5.1992188 21 L 6.1992188 22.900391 L 9.1992188 22.099609 L 9.9003906 23 L 9 25.699219 L 11 26.900391 L 13 24.800781 L 14.099609 25.099609 L 14.800781 28 L 17.099609 28 L 17.800781 25.099609 L 19 24.800781 L 21.099609 26.900391 L 23.099609 25.699219 L 22.199219 22.900391 L 23 22.099609 L 25.900391 22.900391 L 26.900391 20.900391 L 24.800781 19 L 25 17.800781 L 28 17.099609 L 28 15 L 25.400391 14.099609 L 25.800781 15.199219 L 25.900391 15.599609 L 25.599609 15.800781 L 24.5 16.400391 L 24.199219 16.599609 L 23.900391 16.300781 L 23 15.300781 L 22.900391 15.300781 L 22.599609 16.599609 L 22.5 17 L 22.099609 17 L 21.400391 17 C 20.900391 19.5 18.600391 21.400391 15.900391 21.400391 C 12.700391 21.400391 10.199219 18.799219 10.199219 15.699219 C 10.199219 12.999219 12.199219 10.799219 14.699219 10.199219 L 14.699219 9.5 L 14.699219 9.1992188 L 15 9.0996094 L 16.300781 8.6992188 L 15.400391 7.8007812 L 15.199219 7.5996094 L 15.400391 7.3007812 L 16 6.3007812 L 16.199219 6 L 16.5 6.1992188 L 17.699219 6.5 L 17.099609 4 L 14.800781 4 z M 21 4 L 20.699219 5.4003906 L 20 5.5996094 L 19 4.5 L 18 5.0996094 L 18.400391 6.5996094 L 17.900391 7 L 16.400391 6.5996094 L 15.800781 7.5996094 L 16.900391 8.6992188 L 16.800781 9.1992188 L 15.300781 9.5996094 L 15.300781 10.800781 L 16.900391 11.199219 L 17 11.900391 L 15.800781 13 L 16.400391 14 L 18 13.599609 L 18.400391 14.099609 L 18 15.5 L 19.099609 16.099609 L 20.099609 15 L 20.699219 15.199219 L 21.099609 16.699219 L 22.300781 16.699219 L 22.699219 15.199219 L 23.300781 15 L 24.400391 16.199219 L 25.5 15.5 L 24.900391 14 L 25.300781 13.599609 L 26.800781 14.099609 L 27.300781 13 L 26.199219 12 L 26.300781 11.300781 L 28 10.900391 L 28 9.8007812 L 26.5 9.3007812 L 26.400391 8.6992188 L 27.5 7.5996094 L 27 6.5996094 L 25.300781 7 L 24.900391 6.5996094 L 25.300781 5.0996094 L 24.300781 4.5 L 23.199219 5.5996094 L 22.599609 5.4003906 L 22.199219 4 L 21 4 z M 21.599609 7.3007812 C 23.299609 7.3007812 24.599609 8.7007813 24.599609 10.300781 C 24.699609 12.000781 23.299609 13.300781 21.599609 13.300781 C 19.899609 13.300781 18.599609 11.900781 18.599609 10.300781 C 18.599609 8.6007813 19.999609 7.3007813 21.599609 7.3007812 z"/></svg>