<svg xmlns="http://www.w3.org/2000/svg" viewBox="0 0 32 32"><path d="M 9 5 C 7.355 5 6 6.355 6 8 L 6 27 L 20 27 L 20 20 L 22 20 L 22 24 C 22 25.645 23.355 27 25 27 C 26.645 27 28 25.645 28 24 L 28 13.8125 C 28 13.0155 27.687 12.28075 27.125 11.71875 L 22.40625 7 L 21 8.40625 L 23.84375 11.25 C 22.76975 11.707 22 12.766 22 14 C 22 15.645 23.355 17 25 17 C 25.352 17 25.684 16.9265 26 16.8125 L 26 24 C 26 24.566 25.566 25 25 25 C 24.434 25 24 24.566 24 24 L 24 20 C 24 18.906 23.094 18 22 18 L 20 18 L 20 8 C 20 6.355 18.645 5 17 5 L 9 5 z M 9 7 L 17 7 C 17.566 7 18 7.434 18 8 L 18 11 L 18 12 L 18 14 L 18 18 L 18 25 L 8 25 L 8 18 L 8 14 L 8 12 L 8 11 L 8 8 C 8 7.434 8.434 7 9 7 z M 13.089844 10.560547 L 10.660156 15.439453 L 11.560547 15.910156 L 12.660156 16.439453 L 11.089844 19.560547 L 12.910156 20.439453 L 15.339844 15.560547 L 14.439453 15.089844 L 13.339844 14.560547 L 14.910156 11.439453 L 13.089844 10.560547 z M 25 13 C 25.562 13 26 13.438 26 14 C 26 14.562 25.562 15 25 15 C 24.437 15 24 14.562 24 14 C 24 13.438 24.437 13 25 13 z"/></svg>