<svg xmlns="http://www.w3.org/2000/svg" viewBox="0 0 32 32"><path d="M 29 9 L 27.449219 9.109375 L 26.300781 11.359375 L 25.650391 9.2304688 L 24.039062 9.3398438 L 24.259766 9.9296875 C 23.839766 9.4596875 23.079219 9.3992187 22.449219 9.4492188 L 20.480469 9.5800781 L 20.320312 11.160156 C 20.270312 11.110156 19.670391 9.5299219 17.650391 9.6699219 C 15.610391 9.7999219 14.840703 11.339766 14.470703 12.009766 L 14.669922 9.9804688 L 13.240234 10.070312 L 12.919922 13.349609 L 11.029297 10.220703 L 9.6796875 10.310547 L 9.1796875 15.470703 L 7.6503906 10.439453 L 6.4492188 10.519531 L 3.5996094 16.529297 L 5.1992188 16.429688 L 5.5996094 15.529297 L 7.5800781 15.400391 L 7.8007812 16.259766 L 10.640625 16.080078 L 10.949219 12.820312 L 12.830078 15.939453 L 14.080078 15.859375 L 14.279297 13.869141 C 14.769297 15.299141 15.740781 15.890781 17.050781 15.800781 C 19.050781 15.680781 19.699297 14.389688 20.029297 13.929688 L 19.869141 15.480469 L 21.289062 15.390625 L 21.490234 13.5 L 22.449219 15.320312 L 24.269531 15.199219 L 23.009766 13.279297 C 24.149766 12.819297 24.659375 11.939844 24.609375 10.839844 L 25.400391 12.960938 L 25.160156 15.140625 L 26.580078 15.050781 L 26.820312 12.869141 L 29 9 z M 21.769531 10.789062 C 22.389531 10.759063 22.739922 10.790625 22.919922 10.890625 C 23.059922 10.970625 23.119844 11.140156 23.089844 11.410156 C 23.059844 11.690156 22.930937 11.88 22.710938 12 C 22.500937 12.11 22.140859 12.180937 21.630859 12.210938 L 21.769531 10.789062 z M 17.560547 11.119141 C 17.760547 11.109141 17.969922 11.160234 18.169922 11.240234 C 18.329922 11.320234 18.520703 11.460625 18.720703 11.640625 L 20.279297 11.539062 L 20.220703 12.130859 L 17.070312 12.339844 L 16.949219 13.519531 L 18.660156 13.410156 C 18.430156 13.720156 18.180391 13.969375 17.900391 14.109375 C 17.690391 14.229375 17.470234 14.300312 17.240234 14.320312 C 16.810234 14.350312 16.449922 14.219687 16.169922 13.929688 C 15.879922 13.629687 15.760547 13.249297 15.810547 12.779297 C 15.860547 12.289297 16.070937 11.890313 16.460938 11.570312 C 16.790937 11.300313 17.160547 11.139141 17.560547 11.119141 z M 6.8808594 12.400391 L 7.3007812 14.25 L 6.109375 14.330078 L 6.8808594 12.400391 z M 32 15.119141 L 27.339844 15.429688 L 25.759766 19.490234 L 25.080078 15.570312 L 23.560547 15.669922 L 24.75 21.480469 L 26.349609 21.380859 L 28.710938 15.689453 L 28.080078 21.269531 L 31.310547 21.070312 L 31.460938 19.779297 L 29.740234 19.890625 L 29.859375 18.900391 L 31.580078 18.789062 L 31.740234 17.400391 L 30.009766 17.519531 L 30.109375 16.619141 L 31.839844 16.509766 L 32 15.119141 z M 23.400391 15.679688 L 21.980469 15.779297 L 21.339844 21.689453 L 22.75 21.599609 L 23.400391 15.679688 z M 21.740234 15.800781 L 17.990234 16.039062 L 17.849609 17.419922 L 18.960938 17.349609 L 18.519531 21.570312 L 16.910156 16.119141 L 15.720703 16.189453 L 12.970703 21.970703 L 13.080078 20.949219 L 11.259766 21.060547 L 11.359375 20.080078 L 13.179688 19.970703 L 13.310547 18.589844 L 11.490234 18.699219 L 11.580078 17.820312 L 13.400391 17.699219 L 13.529297 16.330078 L 10.289062 16.529297 L 10.160156 17.849609 C 9.9701563 16.859609 9.0390625 16.609688 8.0390625 16.679688 L 6.0898438 16.800781 L 5.9492188 18.320312 C 5.7692188 18.040312 5.270625 16.780391 3.390625 16.900391 C 1.350625 17.030391 0.13976562 18.679141 0.009765625 20.119141 C -0.15023438 21.959141 1.1900781 23.090234 2.8300781 22.990234 C 4.0800781 22.920234 5.1296875 22.120469 5.6796875 21.230469 L 5.5390625 22.660156 L 6.9492188 22.580078 L 7.1308594 20.740234 L 8.0996094 22.509766 L 14.410156 22.130859 L 14.810547 21.330078 L 16.779297 21.199219 L 16.990234 21.970703 L 19.890625 21.789062 L 20.380859 17.259766 L 21.589844 17.179688 L 21.740234 15.800781 z M 7.9863281 18.039062 C 8.4996094 18.052187 8.7344531 18.189922 8.6894531 18.669922 C 8.6194531 19.359922 7.96 19.420938 7.25 19.460938 L 7.3808594 18.060547 C 7.6133594 18.045547 7.8152344 18.034688 7.9863281 18.039062 z M 16.119141 18.080078 L 16.509766 19.939453 L 15.330078 20.019531 L 16.119141 18.080078 z M 3.25 18.349609 C 3.84 18.309609 4.2305469 18.520859 4.5605469 19.130859 L 5.8808594 19.050781 L 5.75 20.519531 L 4.4003906 20.599609 C 4.0203906 21.109609 3.5892187 21.499297 2.9492188 21.529297 C 1.8792187 21.599297 1.4495312 20.78 1.5195312 20 C 1.5795313 19.22 2.3 18.409609 3.25 18.349609 z M 10.029297 19.199219 L 9.7402344 22.160156 L 8.640625 20.509766 C 9.300625 20.239766 9.7792969 19.869219 10.029297 19.199219 z"/></svg>