<svg xmlns="http://www.w3.org/2000/svg" viewBox="0 0 32 32"><path d="M 3.109375 12.019531 C 1.749375 12.019531 1.1707813 12.169375 0.80078125 12.609375 C 0.59078125 12.869375 0.52976563 13.130078 0.50976562 13.830078 L 2.4394531 13.830078 C 2.4794531 13.310078 2.6292188 13.189453 3.1992188 13.189453 C 3.8492187 13.189453 4.0898438 13.390938 4.0898438 13.960938 L 4.0898438 15.099609 L 4.0507812 15.099609 C 3.8307812 14.509609 3.4908594 14.369141 2.3808594 14.369141 C 0.89085938 14.369141 0.26953125 14.900156 0.26953125 16.160156 C 0.26953125 17.520156 0.81007812 18 2.3300781 18 C 3.4200781 18 3.8396094 17.789766 4.0996094 17.009766 L 4.1503906 17.009766 L 4.0898438 17.960938 L 6 17.960938 L 6 14.150391 C 6 13.740391 5.9007813 13.180938 5.8007812 12.960938 C 5.4607813 12.270938 4.759375 12.019531 3.109375 12.019531 z M 10.789062 12.019531 C 9.7090625 12.019531 9.3701562 12.210547 8.9101562 13.060547 L 8.8691406 13.060547 L 8.9492188 12.029297 L 7.0292969 12.029297 L 7.0292969 20.480469 L 9.0097656 20.480469 L 9.0097656 16.970703 L 9.0507812 16.970703 C 9.2807813 17.750703 9.7202344 18 10.740234 18 C 11.580234 18 12.060391 17.889531 12.400391 17.519531 C 12.850391 17.029531 13 16.380859 13 14.880859 C 13 13.490859 12.849375 12.900703 12.359375 12.470703 C 12.019375 12.170703 11.509063 12.019531 10.789062 12.019531 z M 17.759766 12.019531 C 16.679766 12.019531 16.340859 12.210547 15.880859 13.060547 L 15.839844 13.060547 L 15.919922 12.029297 L 14 12.029297 L 14 20.480469 L 15.970703 20.480469 L 15.970703 16.970703 L 16.009766 16.970703 C 16.249766 17.750703 16.690937 18 17.710938 18 C 18.550937 18 19.029141 17.889531 19.369141 17.519531 C 19.829141 17.029531 19.980469 16.380859 19.980469 14.880859 C 19.980469 13.490859 19.829844 12.900703 19.339844 12.470703 C 18.999844 12.170703 18.479766 12.019531 17.759766 12.019531 z M 23.539062 12.019531 C 22.399062 12.019531 21.729063 12.179844 21.289062 12.589844 C 20.839063 12.989844 20.669922 13.610859 20.669922 14.880859 C 20.669922 16.350859 20.810234 16.989922 21.240234 17.419922 C 21.690234 17.869922 22.389531 18 23.769531 18 C 24.999531 18 25.620469 17.839609 25.980469 17.349609 C 26.200469 17.059609 26.320312 16.609141 26.320312 16.119141 L 26.320312 16 L 24.449219 16 C 24.449219 16.55 24.250781 16.699219 23.550781 16.699219 C 22.770781 16.699219 22.550781 16.449609 22.550781 15.599609 C 22.550781 15.559609 22.550547 15.459375 22.560547 15.359375 L 26.330078 15.359375 L 26.330078 14.810547 C 26.330078 12.660547 25.679062 12.019531 23.539062 12.019531 z M 30.349609 12.019531 C 29.579609 12.019531 29.199375 12.279297 28.859375 13.029297 L 28.830078 13.029297 L 28.919922 12.029297 L 27 12.029297 L 27 17.960938 L 28.910156 17.960938 L 28.910156 14.560547 C 28.910156 14.160547 28.910937 14.089453 28.960938 13.939453 C 29.080938 13.639453 29.299141 13.480469 29.619141 13.480469 C 30.029141 13.480469 30.130859 13.679219 30.130859 14.449219 C 30.130859 14.479219 30.129141 14.560391 30.119141 14.650391 L 31.869141 14.650391 C 31.859141 14.430391 31.859375 14.259688 31.859375 14.179688 C 31.859375 13.199688 31.779531 12.850469 31.519531 12.480469 C 31.299531 12.180469 30.889609 12.019531 30.349609 12.019531 z M 23.5 13.380859 C 24.31 13.380859 24.480469 13.489375 24.480469 14.109375 C 24.480469 14.129375 24.480234 14.210781 24.490234 14.300781 L 22.580078 14.300781 L 22.589844 14.130859 C 22.639844 13.530859 22.78 13.380859 23.5 13.380859 z M 10.039062 13.439453 C 10.909062 13.439453 11.080078 13.690313 11.080078 15.070312 C 11.080078 16.270312 10.890313 16.550781 10.070312 16.550781 C 9.1803125 16.550781 9.0097656 16.280859 9.0097656 14.880859 C 9.0097656 13.690859 9.1990625 13.439453 10.039062 13.439453 z M 17.019531 13.439453 C 17.889531 13.439453 18.050781 13.690313 18.050781 15.070312 C 18.050781 16.270312 17.859063 16.550781 17.039062 16.550781 C 16.149062 16.550781 15.980469 16.280859 15.980469 14.880859 C 15.980469 13.690859 16.169531 13.439453 17.019531 13.439453 z M 3.0996094 15.529297 C 3.8596094 15.529297 4.0800781 15.649375 4.0800781 16.109375 C 4.0800781 16.629375 3.8904688 16.779297 3.2304688 16.779297 C 2.3904688 16.779297 2.1992187 16.650859 2.1992188 16.130859 C 2.1992188 15.680859 2.4396094 15.529297 3.0996094 15.529297 z"/></svg>