<svg xmlns="http://www.w3.org/2000/svg" viewBox="0 0 32 32"><path d="M 16 3 C 8.832031 3 3 8.832031 3 16 C 3 23.167969 8.832031 29 16 29 C 23.167969 29 29 23.167969 29 16 C 29 8.832031 23.167969 3 16 3 Z M 16 5 C 22.085938 5 27 9.914063 27 16 C 27 18.726563 26.011719 21.207031 24.375 23.125 L 9.03125 7.46875 C 10.925781 5.917969 13.351563 5 16 5 Z M 7.625 8.875 L 22.96875 24.53125 C 21.074219 26.082031 18.648438 27 16 27 C 9.914063 27 5 22.085938 5 16 C 5 13.273438 5.988281 10.792969 7.625 8.875 Z"/></svg>