<svg xmlns="http://www.w3.org/2000/svg" viewBox="0 0 32 32"><path d="M 16 3 C 12.436 3 9.0039375 4.3095 6.3359375 6.6875 C 5.9229375 7.0545 5.8869063 7.6856562 6.2539062 8.0976562 C 6.6209062 8.5096562 7.2510625 8.5466875 7.6640625 8.1796875 C 9.9660625 6.1286875 12.927 5 16 5 C 19.073 5 22.033938 6.1286875 24.335938 8.1796875 C 24.526937 8.3496875 24.764 8.4335938 25 8.4335938 C 25.275 8.4335938 25.548094 8.3206094 25.746094 8.0996094 C 26.113094 7.6876094 26.077063 7.0545 25.664062 6.6875 C 22.996062 4.3095 19.564 3 16 3 z M 11 10 C 10.448 10 10 10.448 10 11 L 10 14.5 C 10 17.023 12.636 19 16 19 C 19.364 19 22 17.023 22 14.5 L 22 11 C 22 10.448 21.552 10 21 10 C 20.448 10 20 10.448 20 11 L 20 14.5 C 20 15.855 18.168 17 16 17 C 13.832 17 12 15.855 12 14.5 L 12 11 C 12 10.448 11.552 10 11 10 z M 4.3261719 13.013672 C 3.7781719 12.925672 3.2686875 13.295844 3.1796875 13.839844 C 3.0606875 14.565844 3 15.311641 3 16.056641 C 3 22.140641 7.0071406 27.449797 12.744141 28.966797 C 12.830141 28.989797 12.916 29 13 29 C 13.443 29 13.847797 28.704813 13.966797 28.257812 C 14.107797 27.722813 13.789859 27.174203 13.255859 27.033203 C 8.3948594 25.747203 5 21.234641 5 16.056641 C 5 15.419641 5.0513438 14.782109 5.1523438 14.162109 C 5.2423438 13.617109 4.8711719 13.102672 4.3261719 13.013672 z M 27.671875 13.013672 C 27.126875 13.102672 26.758656 13.617109 26.847656 14.162109 C 26.949656 14.782109 27 15.419641 27 16.056641 C 27 21.233641 23.604141 25.74725 18.744141 27.03125 C 18.210141 27.17225 17.892203 27.721859 18.033203 28.255859 C 18.151203 28.704859 18.557 29 19 29 C 19.084 29 19.169859 28.988797 19.255859 28.966797 C 24.992859 27.449797 29 22.140641 29 16.056641 C 29 15.311641 28.940313 14.565844 28.820312 13.839844 C 28.732313 13.295844 28.220875 12.925672 27.671875 13.013672 z M 16 20 C 15.448 20 15 20.448 15 21 L 15 24 C 15 24.552 15.448 25 16 25 C 16.552 25 17 24.552 17 24 L 17 21 C 17 20.448 16.552 20 16 20 z"/></svg>