<svg xmlns="http://www.w3.org/2000/svg" viewBox="0 0 32 32"><path d="M 16.03125 3.46875 L 15.375 4.03125 C 15.375 4.03125 13.035156 5.941406 10.71875 8.71875 C 8.402344 11.496094 6 15.160156 6 19 C 6 21.765625 7.132813 24.070313 8.96875 25.625 C 10.691406 27.082031 12.996094 27.871094 15.5 27.96875 C 15.667969 27.976563 15.832031 28 16 28 C 16.167969 28 16.332031 27.976563 16.5 27.96875 C 19.003906 27.871094 21.308594 27.082031 23.03125 25.625 C 24.867188 24.070313 26 21.765625 26 19 C 26 15.542969 23.585938 11.941406 21.28125 9.0625 C 18.976563 6.183594 16.6875 4.0625 16.6875 4.0625 Z M 15.96875 6.25 C 16.488281 6.742188 17.851563 7.976563 19.71875 10.3125 C 21.914063 13.058594 24 16.558594 24 19 C 24 21.234375 23.132813 22.929688 21.71875 24.125 C 21.375 24.414063 21 24.679688 20.59375 24.90625 C 20.839844 24.316406 21 23.675781 21 23 C 21 16.75 17.65625 12.9375 17.65625 12.9375 L 15.84375 10.90625 L 15.90625 13.625 C 15.90625 13.625 15.910156 14.898438 15.75 16.125 C 15.667969 16.738281 15.554688 17.347656 15.40625 17.6875 C 15.363281 17.785156 15.34375 17.796875 15.3125 17.84375 C 15.207031 17.804688 14.890625 17.648438 14.59375 17.34375 C 14.257813 17 14.03125 16.65625 14.03125 16.65625 L 13.0625 15.15625 L 12.3125 16.78125 C 12.3125 16.78125 11 19.457031 11 23 C 11 23.675781 11.160156 24.316406 11.40625 24.90625 C 11 24.679688 10.625 24.414063 10.28125 24.125 C 8.867188 22.929688 8 21.234375 8 19 C 8 16.042969 10.097656 12.621094 12.28125 10 C 14.132813 7.78125 15.445313 6.695313 15.96875 6.25 Z M 17.65625 16.78125 C 18.339844 18.265625 19 20.339844 19 23 C 19 24.65625 17.65625 26 16 26 C 14.34375 26 13 24.65625 13 23 C 13 21.40625 13.308594 20.058594 13.59375 19.09375 C 14.042969 19.496094 14.59375 19.90625 15.40625 19.90625 C 15.882813 19.90625 16.335938 19.6875 16.625 19.40625 C 16.914063 19.125 17.078125 18.792969 17.21875 18.46875 C 17.445313 17.941406 17.5625 17.355469 17.65625 16.78125 Z"/></svg>