<svg xmlns="http://www.w3.org/2000/svg" viewBox="0 0 32 32"><path d="M 24.65625 3.03125 C 23.546875 3.03125 22.433594 3.441406 21.59375 4.28125 L 18.8125 7.09375 L 17.8125 6.09375 L 16.40625 7.5 L 17.40625 8.5 L 7.90625 18 C 6.867188 19.039063 6.273438 19.792969 5.90625 20.46875 C 5.539063 21.144531 5.410156 21.753906 5.34375 22.15625 C 5.277344 22.558594 5.242188 22.777344 5 23.21875 C 4.757813 23.660156 4.265625 24.296875 3.28125 25.28125 L 2.59375 26 L 3.28125 26.71875 L 5.28125 28.71875 L 6 29.40625 L 6.71875 28.71875 C 7.679688 27.757813 8.292969 27.292969 8.71875 27.0625 C 9.144531 26.832031 9.371094 26.789063 9.78125 26.71875 C 10.191406 26.648438 10.78125 26.535156 11.46875 26.15625 C 12.15625 25.777344 12.9375 25.15625 14 24.09375 L 23.5 14.59375 L 24.5 15.59375 L 25.90625 14.1875 L 24.90625 13.1875 L 27.71875 10.40625 C 29.398438 8.726563 29.398438 5.960938 27.71875 4.28125 C 26.878906 3.441406 25.765625 3.03125 24.65625 3.03125 Z M 24.65625 5.03125 C 25.246094 5.03125 25.820313 5.257813 26.28125 5.71875 C 27.199219 6.636719 27.199219 8.082031 26.28125 9 L 23.5 11.78125 L 20.21875 8.5 L 23 5.71875 C 23.460938 5.257813 24.066406 5.03125 24.65625 5.03125 Z M 18.8125 9.90625 L 22.09375 13.1875 L 12.59375 22.6875 C 11.609375 23.671875 10.941406 24.164063 10.5 24.40625 C 10.058594 24.648438 9.839844 24.683594 9.4375 24.75 C 9.035156 24.816406 8.457031 24.914063 7.78125 25.28125 C 7.320313 25.53125 6.695313 26.128906 6.09375 26.65625 L 5.34375 25.90625 C 5.890625 25.289063 6.492188 24.65625 6.75 24.1875 C 7.128906 23.5 7.242188 22.878906 7.3125 22.46875 C 7.382813 22.058594 7.425781 21.863281 7.65625 21.4375 C 7.886719 21.011719 8.351563 20.367188 9.3125 19.40625 Z"/></svg>