<svg xmlns="http://www.w3.org/2000/svg" viewBox="0 0 32 32"><path d="M 24.84375 4.0625 L 23.875 4.34375 L 16.1875 6.53125 L 15.25 6.8125 L 15.4375 7.5 L 8.21875 5.40625 L 7.25 5.125 L 6.96875 6.09375 L 4.15625 15.65625 C 3.816406 16.839844 3.609375 18.253906 4 19.625 C 4.316406 20.734375 5.109375 21.800781 6.34375 22.4375 L 5.4375 25.71875 L 2.5625 24.875 L 2 26.8125 L 9.6875 29.03125 L 10.25 27.09375 L 7.375 26.25 L 8.28125 23 C 9.664063 23.113281 10.890625 22.613281 11.75 21.84375 C 12.8125 20.890625 13.410156 19.621094 13.75 18.4375 L 16.21875 10.1875 L 18.25 17.40625 L 18.25 17.4375 C 18.589844 18.621094 19.1875 19.890625 20.25 20.84375 C 21.117188 21.621094 22.328125 22.089844 23.71875 21.96875 L 24.625 25.25 L 21.75 26.09375 L 22.3125 28.03125 L 30 25.8125 L 29.4375 23.875 L 26.5625 24.71875 L 25.625 21.4375 C 26.859375 20.800781 27.652344 19.734375 27.96875 18.625 C 28.359375 17.253906 28.183594 15.839844 27.84375 14.65625 L 25.125 5.03125 Z M 23.5 6.53125 L 24.75 11 L 18.5 11 L 17.71875 8.1875 Z M 8.625 7.625 L 14.375 9.25 L 13.5625 12 L 7.3125 12 Z M 19.0625 13 L 25.3125 13 L 25.9375 15.21875 C 26.207031 16.148438 26.300781 17.253906 26.0625 18.09375 C 25.824219 18.933594 25.371094 19.523438 24.15625 19.875 C 22.941406 20.226563 22.242188 19.957031 21.59375 19.375 C 20.945313 18.792969 20.425781 17.804688 20.15625 16.875 Z M 6.71875 14 L 12.96875 14 L 11.84375 17.875 L 11.8125 17.875 C 11.542969 18.804688 11.054688 19.792969 10.40625 20.375 C 9.757813 20.957031 9.058594 21.226563 7.84375 20.875 C 6.628906 20.523438 6.175781 19.933594 5.9375 19.09375 C 5.699219 18.253906 5.792969 17.148438 6.0625 16.21875 Z"/></svg>