<svg xmlns="http://www.w3.org/2000/svg" viewBox="0 0 32 32"><path d="M 16 3 C 10.488281 3 6 7.488281 6 13 C 6 16.683594 8.023438 19.890625 11 21.625 L 11 22 L 10.96875 23 C 10.96875 23 11 23 11 23 C 11.046875 23 11.988281 23.027344 12.96875 23.625 C 13.835938 24.152344 14.746094 25.035156 14.96875 27 L 7 27 L 7 29 L 25 29 L 25 27 L 17.03125 27 C 17.253906 25.035156 18.164063 24.152344 19.03125 23.625 C 20.011719 23.027344 20.953125 23 21 23 C 21 23 21.03125 23 21.03125 23 L 21 22 L 21 21.625 C 23.976563 19.890625 26 16.683594 26 13 C 26 7.488281 21.511719 3 16 3 Z M 16 5 C 20.429688 5 24 8.570313 24 13 C 24 17.429688 20.429688 21 16 21 C 11.570313 21 8 17.429688 8 13 C 8 8.570313 11.570313 5 16 5 Z M 19 11 C 18.449219 11 18 11.449219 18 12 C 18 12.550781 18.449219 13 19 13 C 19.550781 13 20 12.550781 20 12 C 20 11.449219 19.550781 11 19 11 Z M 17 13 C 16.449219 13 16 13.449219 16 14 C 16 14.550781 16.449219 15 17 15 C 17.550781 15 18 14.550781 18 14 C 18 13.449219 17.550781 13 17 13 Z M 20 14 C 19.449219 14 19 14.449219 19 15 C 19 15.550781 19.449219 16 20 16 C 20.550781 16 21 15.550781 21 15 C 21 14.449219 20.550781 14 20 14 Z M 15 15 C 14.449219 15 14 15.449219 14 16 C 14 16.550781 14.449219 17 15 17 C 15.550781 17 16 16.550781 16 16 C 16 15.449219 15.550781 15 15 15 Z M 18 16 C 17.449219 16 17 16.449219 17 17 C 17 17.550781 17.449219 18 18 18 C 18.550781 18 19 17.550781 19 17 C 19 16.449219 18.550781 16 18 16 Z M 15.28125 23 L 16.71875 23 C 16.457031 23.296875 16.21875 23.621094 16 24 C 15.78125 23.621094 15.542969 23.296875 15.28125 23 Z"/></svg>