<svg xmlns="http://www.w3.org/2000/svg" viewBox="0 0 32 32"><path d="M 16 2 C 14.617188 2 13.46875 2.96875 13.125 4.25 C 12.773438 4.105469 12.402344 4 12 4 C 10.355469 4 9 5.355469 9 7 L 9 17.75 L 8.125 16.875 C 6.960938 15.710938 5.039063 15.710938 3.875 16.875 C 2.710938 18.039063 2.710938 19.960938 3.875 21.125 L 10.65625 27.90625 C 11.832031 29.078125 13.457031 30 15.375 30 L 20 30 C 23.855469 30 27 26.855469 27 23 L 27 11 C 27 9.355469 25.644531 8 24 8 C 23.648438 8 23.316406 8.074219 23 8.1875 L 23 7 C 23 5.355469 21.644531 4 20 4 C 19.597656 4 19.226563 4.105469 18.875 4.25 C 18.53125 2.96875 17.382813 2 16 2 Z M 16 4 C 16.566406 4 17 4.433594 17 5 L 17 15 L 19 15 L 19 7 C 19 6.433594 19.433594 6 20 6 C 20.566406 6 21 6.433594 21 7 L 21 15 L 23 15 L 23 11 C 23 10.433594 23.433594 10 24 10 C 24.566406 10 25 10.433594 25 11 L 25 23 C 25 25.773438 22.773438 28 20 28 L 15.375 28 C 14.101563 28 13.007813 27.378906 12.09375 26.46875 L 5.28125 19.71875 C 4.882813 19.320313 4.882813 18.679688 5.28125 18.28125 C 5.679688 17.882813 6.320313 17.882813 6.71875 18.28125 L 9.28125 20.875 L 11 22.59375 L 11 7 C 11 6.433594 11.433594 6 12 6 C 12.566406 6 13 6.433594 13 7 L 13 15 L 15 15 L 15 5 C 15 4.433594 15.433594 4 16 4 Z"/></svg>