<svg xmlns="http://www.w3.org/2000/svg" viewBox="0 0 32 32"><path d="M 17 4 L 17 5.1894531 C 16.855 5.2419531 16.714063 5.3061133 16.580078 5.3789062 C 16.312109 5.5244922 16.069141 5.7085547 15.857422 5.9238281 C 15.645703 6.1391016 15.465391 6.3846484 15.326172 6.6542969 C 15.117344 7.0587695 15 7.51625 15 8 C 15 8.205 15.022109 8.4054688 15.0625 8.5996094 C 15.143281 8.9878906 15.300547 9.3503906 15.517578 9.6699219 C 15.626094 9.8296875 15.748516 9.9789844 15.884766 10.115234 C 16.021016 10.251484 16.170313 10.373906 16.330078 10.482422 C 16.809375 10.807969 17.385 11 18 11 C 18.1425 11 18.276016 11.026953 18.396484 11.076172 C 18.516953 11.125391 18.623516 11.197734 18.712891 11.287109 C 18.802266 11.376484 18.874609 11.483047 18.923828 11.603516 C 18.973047 11.723984 19 11.8575 19 12 C 19 12.4275 18.757891 12.776172 18.396484 12.923828 C 18.276016 12.973047 18.1425 13 18 13 C 17.8575 13 17.723984 12.973047 17.603516 12.923828 C 17.483047 12.874609 17.376484 12.802266 17.287109 12.712891 C 17.197734 12.623516 17.125391 12.516953 17.076172 12.396484 C 17.026953 12.276016 17 12.1425 17 12 L 15 12 C 15 12.16125 15.013828 12.320254 15.039062 12.474609 C 15.064297 12.628965 15.1 12.778281 15.148438 12.923828 C 15.29375 13.360469 15.539844 13.753262 15.857422 14.076172 C 15.963281 14.183809 16.076328 14.283828 16.197266 14.375 C 16.318203 14.466172 16.446094 14.548301 16.580078 14.621094 C 16.714063 14.693887 16.855 14.758047 17 14.810547 L 17 16 L 19 16 L 19 14.810547 C 20.16 14.390547 21 13.29 21 12 C 21 10.565 19.958594 9.3452344 18.599609 9.0625 C 18.405469 9.0221094 18.205 9 18 9 C 17.8575 9 17.723984 8.9730469 17.603516 8.9238281 C 17.483047 8.8746094 17.376484 8.8022656 17.287109 8.7128906 C 17.197734 8.6235156 17.125391 8.5169531 17.076172 8.3964844 C 17.026953 8.2760156 17 8.1425 17 8 C 17 7.8575 17.026953 7.7239844 17.076172 7.6035156 C 17.125391 7.4830469 17.197734 7.3764844 17.287109 7.2871094 C 17.465859 7.1083594 17.715 7 18 7 C 18.57 7 19 7.43 19 8 L 21 8 C 21 7.83875 20.986172 7.6797461 20.960938 7.5253906 C 20.935703 7.3710352 20.9 7.2217187 20.851562 7.0761719 C 20.560938 6.2028906 19.87 5.5044531 19 5.1894531 L 19 4 L 17 4 z M 10.515625 18 C 9.484625 18.004 8.6992188 18.265625 8.6992188 18.265625 L 8.6796875 18.273438 L 3.0078125 20.449219 L 4.9921875 26.019531 L 9.921875 24.128906 L 17.058594 28.058594 L 29.382812 22.953125 L 28.617188 21.109375 L 17.179688 25.84375 L 10.078125 21.933594 L 6.1875 23.421875 L 5.546875 21.617188 L 9.34375 20.160156 C 9.35275 20.156156 9.819625 20 10.515625 20 C 11.218625 20 12.038281 20.156062 12.738281 20.789062 L 12.751953 20.796875 L 12.755859 20.800781 C 13.786859 21.695781 14.564484 22.321156 15.646484 22.660156 C 16.728484 23.000156 17.955859 23.03925 20.005859 23.03125 L 19.996094 21.03125 C 17.984094 21.03925 16.933094 20.968 16.246094 20.75 C 15.558094 20.539 15.070125 20.159781 14.078125 19.300781 L 14.066406 19.292969 C 12.909406 18.253969 11.534625 17.996 10.515625 18 z"/></svg>