<svg xmlns="http://www.w3.org/2000/svg" viewBox="0 0 32 32"><path d="M 16 4 C 16 4 15 6.015625 15 7 C 15 7.550781 15.449219 8 16 8 C 16.550781 8 17 7.550781 17 7 C 17 6.0625 16 4 16 4 Z M 13 5 C 13 5 12 7.0625 12 8 C 12 8.550781 12.449219 9 13 9 C 13.550781 9 14 8.550781 14 8 C 14 7.015625 13 5 13 5 Z M 19 5 C 19 5 18 7.015625 18 8 C 18 8.550781 18.449219 9 19 9 C 19.550781 9 20 8.550781 20 8 C 20 7.0625 19 5 19 5 Z M 10 6 C 10 6 9 8.0625 9 9 C 9 9.550781 9.449219 10 10 10 C 10.550781 10 11 9.550781 11 9 C 11 8.015625 10 6 10 6 Z M 22 6 C 22 6 21 8.015625 21 9 C 21 9.550781 21.449219 10 22 10 C 22.550781 10 23 9.550781 23 9 C 23 8.0625 22 6 22 6 Z M 7 7 C 7 7 6 9.0625 6 10 C 6 10.550781 6.449219 11 7 11 C 7.550781 11 8 10.550781 8 10 C 8 9.015625 7 7 7 7 Z M 25 7 C 25 7 24 9.015625 24 10 C 24 10.550781 24.449219 11 25 11 C 25.550781 11 26 10.550781 26 10 C 26 9.0625 25 7 25 7 Z M 4 8 C 4 8 3 10.0625 3 11 C 3 11.550781 3.449219 12 4 12 C 4.550781 12 5 11.550781 5 11 C 5 10.015625 4 8 4 8 Z M 28 8 C 28 8 27 10.015625 27 11 C 27 11.550781 27.449219 12 28 12 C 28.550781 12 29 11.550781 29 11 C 29 10.0625 28 8 28 8 Z M 15 9 L 15 18 L 14.96875 18 C 14.414063 18 14 17.585938 14 17.03125 L 14 10 L 12 10 L 12 17.03125 C 12 17.371094 12.050781 17.695313 12.15625 18 L 11.96875 18 C 11.417969 18 11 17.582031 11 17.03125 L 11 11 L 9 11 L 9 17.03125 C 9 17.371094 9.082031 17.695313 9.1875 18 L 9.0625 18 C 8.46875 18 8 17.53125 8 16.9375 L 8 12 L 6 12 L 6 16.9375 C 6 17.3125 6.09375 17.667969 6.21875 18 L 6.03125 18 C 5.453125 18 5 17.546875 5 16.96875 L 5 13 L 3 13 L 3 16.96875 C 3 18.628906 4.371094 20 6.03125 20 L 15 20 L 15 26 L 10 26 L 10 28 L 22 28 L 22 26 L 17 26 L 17 20 L 25.96875 20 C 27.628906 20 29 18.628906 29 16.96875 L 29 13 L 27 13 L 27 16.96875 C 27 17.546875 26.546875 18 25.96875 18 L 25.78125 18 C 25.90625 17.667969 26 17.3125 26 16.9375 L 26 12 L 24 12 L 24 16.9375 C 24 17.53125 23.53125 18 22.9375 18 L 22.8125 18 C 22.917969 17.695313 23 17.371094 23 17.03125 L 23 11 L 21 11 L 21 17.03125 C 21 17.582031 20.582031 18 20.03125 18 L 19.84375 18 C 19.949219 17.695313 20 17.371094 20 17.03125 L 20 10 L 18 10 L 18 17.03125 C 18 17.585938 17.585938 18 17.03125 18 L 17 18 L 17 9 Z"/></svg>