<svg xmlns="http://www.w3.org/2000/svg" viewBox="0 0 32 32"><path d="M 14.853516 3 C 7.7455156 3 2 8.814 2 16 C 2 23.186 7.7455156 29 14.853516 29 C 15.890516 29 16.895422 28.879672 17.857422 28.638672 C 12.197422 27.683672 7 22.385 7 16 C 7 9.615 12.34 4.3153281 18 3.3613281 C 17.039 3.1203281 15.890516 3 14.853516 3 z M 17.539062 7 C 15.717835 7.0069333 13.830625 7.5995781 12.203125 8.8066406 C 12.128125 8.8596406 12.064 8.9118437 12 8.9648438 C 15.291 8.0658438 18.956063 9.1655312 21.164062 12.019531 C 22.997063 14.398531 23.362922 17.41 22.419922 20 C 25.324922 17.167 25.881641 12.823547 23.556641 9.8105469 C 22.115516 7.9497969 19.88064 6.9910857 17.539062 7 z M 27.175781 10.025391 C 27.703781 11.244391 28 12.587 28 14 C 28 19.523 23.523 24 18 24 C 15.058 24 12.421797 22.721219 10.591797 20.699219 C 10.889797 21.373219 11.376781 22.106031 11.800781 22.707031 C 14.985781 27.279031 21.236906 28.372531 25.753906 25.144531 C 30.281906 21.916531 31.354922 15.601297 28.169922 11.029297 C 27.828922 10.538297 27.533781 10.313391 27.175781 10.025391 z M 14.5 12 C 14.224 12 14 12.224 14 12.5 L 14 14.5 C 14 14.776 13.776 15 13.5 15 L 11.5 15 C 11.224 15 11 15.224 11 15.5 L 11 16.5 C 11 16.776 11.224 17 11.5 17 L 13.5 17 C 13.776 17 14 17.224 14 17.5 L 14 19.5 C 14 19.776 14.224 20 14.5 20 L 15.5 20 C 15.776 20 16 19.776 16 19.5 L 16 17.5 C 16 17.224 16.224 17 16.5 17 L 18.5 17 C 18.776 17 19 16.776 19 16.5 L 19 15.5 C 19 15.224 18.776 15 18.5 15 L 16.5 15 C 16.224 15 16 14.776 16 14.5 L 16 12.5 C 16 12.224 15.776 12 15.5 12 L 14.5 12 z"/></svg>