<svg xmlns="http://www.w3.org/2000/svg" viewBox="0 0 32 32"><path d="M 22.853516 6.0078125 C 20.164121 6.0816133 18.078828 6.8123281 16.048828 7.5175781 C 13.877828 8.2715781 11.828234 8.9827188 8.9902344 9.0117188 C 7.0932344 9.0417187 5.1931719 8.7143594 3.3261719 8.0683594 L 2 7.609375 L 2 24.691406 L 2.6660156 24.927734 C 4.4050156 25.542734 6.183125 25.897422 7.953125 25.982422 C 8.234125 25.995422 8.5092969 26.001953 8.7792969 26.001953 C 11.792297 26.001953 14.098938 25.202687 16.335938 24.429688 C 18.693937 23.613688 20.918125 22.843328 23.953125 22.986328 C 25.527125 23.061328 27.112016 23.379687 28.666016 23.929688 L 30 24.402344 L 30 7.3144531 L 29.341797 7.0742188 C 27.616797 6.4492188 25.834922 6.0945781 24.044922 6.0175781 C 23.634422 5.9993281 23.237715 5.9972695 22.853516 6.0078125 z M 22.908203 7.9941406 C 23.247131 7.9836484 23.595781 7.9837969 23.957031 7.9980469 C 24.330995 8.0142703 24.705197 8.0481553 25.078125 8.0917969 C 25.344924 9.1855072 26.323979 10 27.5 10 C 27.671 10 27.838 9.9812188 28 9.9492188 L 28 19.050781 C 27.838 19.018781 27.671 19 27.5 19 C 26.264201 19 25.245058 19.898153 25.042969 21.076172 C 24.710892 21.041393 24.378543 21.017795 24.046875 21.001953 C 20.631875 20.851953 18.113688 21.710687 15.679688 22.554688 C 13.318688 23.372687 11.081828 24.145953 8.0488281 24.001953 C 7.6729998 23.983858 7.2965195 23.94781 6.9199219 23.902344 C 6.650967 22.811694 5.67385 22 4.5 22 C 4.329 22 4.162 22.018781 4 22.050781 L 4 12.949219 C 4.162 12.981219 4.329 13 4.5 13 C 5.7444763 13 6.7671584 12.088686 6.9589844 10.898438 C 7.6438975 10.970039 8.3294829 11.011452 9.0117188 11 C 12.176719 10.968 14.478078 10.166578 16.705078 9.3925781 C 18.665953 8.7100781 20.535709 8.0675859 22.908203 7.9941406 z M 16 12 C 16 13.439 15.439 14 14 14 L 14 16 C 14.775751 16 15.436786 15.848831 16 15.587891 L 16 20 L 18 20 L 18 12 L 16 12 z M 23.5 13 A 1.5 1.5 0 0 0 23.5 16 A 1.5 1.5 0 0 0 23.5 13 z M 8.5 16 A 1.5 1.5 0 0 0 8.5 19 A 1.5 1.5 0 0 0 8.5 16 z"/></svg>