<svg xmlns="http://www.w3.org/2000/svg" viewBox="0 0 32 32"><path d="M 15 8.328125 C 16.296875 8.328125 17.351563 9.382813 17.351563 10.679688 C 17.351563 11.972656 16.296875 13.027344 15 13.027344 C 13.703125 13.027344 12.648438 11.972656 12.648438 10.679688 C 12.648438 9.382813 13.703125 8.328125 15 8.328125 Z M 15 16.355469 C 18.132813 16.355469 20.679688 13.808594 20.679688 10.679688 C 20.679688 7.546875 18.132813 5 15 5 C 11.867188 5 9.324219 7.546875 9.324219 10.679688 C 9.324219 13.808594 11.867188 16.355469 15 16.355469 Z M 17.296875 20.988281 C 18.453125 20.722656 19.566406 20.265625 20.59375 19.621094 C 21.371094 19.132813 21.605469 18.105469 21.117188 17.328125 C 20.625 16.546875 19.601563 16.3125 18.820313 16.804688 C 16.496094 18.265625 13.503906 18.265625 11.175781 16.804688 C 10.398438 16.3125 9.371094 16.546875 8.882813 17.328125 C 8.394531 18.105469 8.628906 19.132813 9.40625 19.621094 C 10.433594 20.265625 11.546875 20.722656 12.703125 20.988281 L 9.527344 24.160156 C 8.878906 24.808594 8.878906 25.863281 9.527344 26.511719 C 9.855469 26.835938 10.277344 27 10.703125 27 C 11.128906 27 11.554688 26.835938 11.882813 26.511719 L 15 23.394531 L 18.121094 26.511719 C 18.769531 27.164063 19.820313 27.164063 20.472656 26.511719 C 21.121094 25.863281 21.121094 24.808594 20.472656 24.160156 C 20.472656 24.160156 17.296875 20.988281 17.296875 20.988281 Z"/></svg>