<svg xmlns="http://www.w3.org/2000/svg" viewBox="0 0 32 32"><path d="M 16 3 C 8.82 3 3 8.82 3 16 C 3 18.923 3.9755156 21.61025 5.6035156 23.78125 L 19.902344 3.5976562 C 18.670344 3.2096563 17.36 3 16 3 z M 21 4 L 21 22 L 27.525391 22 C 28.462391 20.204 29 18.166 29 16 C 29 10.593 25.697 5.959 21 4 z M 22.050781 8 L 22.052734 8 L 22.787109 8 L 22.787109 9.7070312 L 23.453125 9.7070312 L 23.453125 8.1425781 L 24.179688 8.1425781 L 24.179688 9.7070312 L 24.914062 9.7070312 L 24.914062 8 L 25.640625 8 L 25.640625 10.484375 L 22.050781 10.484375 L 22.050781 8 z M 23.515625 11.220703 L 25.386719 11.220703 C 26.194719 12.755703 25.631797 14.648437 23.841797 14.648438 C 21.785797 14.648438 21.581922 12.202969 22.419922 11.292969 L 23.033203 11.845703 C 22.358203 12.500703 22.675797 13.818359 23.841797 13.818359 C 24.895797 13.818359 25.274219 12.796516 24.824219 11.978516 L 24.240234 11.978516 L 24.240234 12.611328 L 23.515625 12.611328 L 23.515625 11.220703 z M 16 11.542969 L 8.6035156 22 L 16 22 L 16 11.542969 z M 25.632812 14.810547 L 25.632812 15.701172 L 24.884766 16.007812 L 24.884766 17.400391 L 25.632812 17.695312 L 25.632812 18.576172 L 22.052734 17.021484 L 22.052734 16.365234 L 25.632812 14.810547 z M 24.210938 16.275391 L 23.105469 16.714844 L 24.210938 17.154297 L 24.210938 16.275391 z M 23.146484 18.320312 C 23.954484 18.320312 24.240234 18.831391 24.240234 19.650391 L 24.240234 20.224609 L 25.640625 20.224609 L 25.640625 21 L 22.0625 21 L 22.0625 19.681641 C 22.0625 18.873641 22.348484 18.320312 23.146484 18.320312 z M 23.146484 19.138672 C 22.798484 19.138672 22.728516 19.4755 22.728516 19.8125 L 22.728516 20.222656 L 23.587891 20.222656 L 23.587891 19.689453 C 23.586891 19.383453 23.463484 19.138672 23.146484 19.138672 z M 5.7675781 24 C 8.1475781 27.039 11.84 29 16 29 L 16 24 L 5.7675781 24 z M 21 24 L 21 28 C 23.073 27.135 24.866422 25.744 26.232422 24 L 21 24 z"/></svg>