<svg xmlns="http://www.w3.org/2000/svg" viewBox="0 0 32 32"><path d="M 19.15625 3 C 18.390625 3.003906 17.644531 3.300781 17.09375 3.90625 C 17.085938 3.914063 17.101563 3.929688 17.09375 3.9375 C 15.863281 5.175781 15.386719 6.40625 14.96875 7.5 C 14.789063 7.972656 14.609375 8.417969 14.375 8.875 C 13.914063 8.34375 13.25 8 12.5 8 C 11.132813 8 10 9.132813 10 10.5 C 10 11.867188 11.132813 13 12.5 13 C 13.242188 13 13.882813 12.648438 14.34375 12.125 L 14.40625 12.1875 L 5.28125 21.28125 L 5 21.59375 L 5 25.5625 L 4 26.59375 L 5.40625 28 L 6.4375 27 L 10.40625 27 L 10.71875 26.71875 L 27.28125 10.125 L 27.3125 10.09375 C 28.464844 8.941406 28.464844 7.058594 27.3125 5.90625 L 26.09375 4.6875 C 25.515625 4.109375 24.765625 3.8125 24 3.8125 C 23.285156 3.8125 22.589844 4.089844 22.03125 4.59375 L 21.3125 3.90625 C 20.722656 3.316406 19.933594 2.996094 19.15625 3 Z M 19.1875 5 C 19.433594 5.003906 19.699219 5.105469 19.90625 5.3125 L 20.59375 6 L 14.46875 12.09375 C 15.824219 10.65625 16.421875 9.320313 16.84375 8.21875 C 17.273438 7.09375 17.542969 6.269531 18.5 5.3125 L 18.5625 5.25 C 18.710938 5.082031 18.941406 4.996094 19.1875 5 Z M 24 5.78125 C 24.234375 5.78125 24.464844 5.871094 24.6875 6.09375 L 25.90625 7.3125 C 26.351563 7.757813 26.351563 8.242188 25.90625 8.6875 L 25 9.5625 L 22.4375 7 L 23.21875 6.21875 L 23.3125 6.09375 C 23.535156 5.871094 23.765625 5.78125 24 5.78125 Z M 21 8.4375 L 23.5625 11 L 16 18.5625 L 13.4375 16 Z M 12.5 10 C 12.789063 10 13 10.210938 13 10.5 C 13 10.789063 12.789063 11 12.5 11 C 12.210938 11 12 10.789063 12 10.5 C 12 10.210938 12.210938 10 12.5 10 Z M 12 17.4375 L 14.5625 20 L 9.5625 25 L 7 25 L 7 22.4375 Z"/></svg>