<svg xmlns="http://www.w3.org/2000/svg" viewBox="0 0 32 32"><path d="M 15.144531 5.0136719 C 13.731238 4.939082 12.142266 5.1556875 10.587891 5.6953125 C 8.1178906 6.5523125 5.4463906 7.90025 3.5253906 9.65625 C 1.2433906 11.74625 0.87734375 13.565172 1.0273438 14.326172 C 1.5613438 17.025172 5.367625 18.785891 6.890625 20.087891 C 6.815625 20.128891 6.7456875 20.164172 6.6796875 20.201172 C 5.9156875 20.572172 3.0814688 22.029656 2.3554688 23.597656 C 1.5354688 25.375656 2.4911406 26.648266 3.1191406 26.822266 C 5.0781406 27.354266 7.01675 26.424516 8.09375 24.853516 C 9.17175 23.281516 9.0419219 21.229922 8.5449219 20.294922 C 8.5399219 20.280922 8.5303906 20.271812 8.5253906 20.257812 C 8.7223906 20.142813 8.923 20.027109 9.125 19.912109 C 9.514 19.687109 9.8935625 19.481734 10.226562 19.302734 C 10.038562 19.797734 9.9030312 20.394859 9.8320312 21.255859 C 9.7480313 22.263859 10.173563 23.568031 10.726562 24.082031 C 10.970562 24.307031 11.265266 24.3125 11.447266 24.3125 C 12.094266 24.3125 12.385031 23.790016 12.707031 23.166016 C 13.105031 22.405016 13.457031 21.521484 13.457031 21.521484 C 13.457031 21.521484 13.017656 23.912109 14.222656 23.912109 C 14.662656 23.912109 15.103781 23.358219 15.300781 23.074219 L 15.300781 23.078125 C 15.300781 23.078125 15.308031 23.060437 15.332031 23.023438 C 15.379031 22.954438 15.402344 22.914063 15.402344 22.914062 L 15.402344 22.900391 C 15.580344 22.602391 15.970641 21.919969 16.556641 20.792969 C 17.315641 19.335969 18.041016 17.515625 18.041016 17.515625 C 18.111016 17.915625 18.208031 18.310266 18.332031 18.697266 C 18.463031 19.132266 18.740938 19.609266 18.960938 20.072266 C 18.782937 20.310266 18.673828 20.447266 18.673828 20.447266 C 18.673828 20.451266 18.676687 20.455031 18.679688 20.457031 C 18.538688 20.640031 18.378844 20.836297 18.214844 21.029297 C 17.614844 21.726297 16.901594 22.524906 16.808594 22.753906 C 16.695594 23.023906 16.724453 23.224859 16.939453 23.380859 C 17.098453 23.499859 17.381781 23.518094 17.675781 23.496094 C 18.214781 23.459094 18.594344 23.330047 18.777344 23.248047 C 19.114344 23.130047 19.432656 22.967672 19.722656 22.763672 C 20.308656 22.341672 20.665812 21.736453 20.632812 20.939453 C 20.613813 20.499453 20.467062 20.058484 20.289062 19.646484 C 20.341062 19.573484 20.398219 19.495969 20.449219 19.417969 C 21.377219 18.093969 22.09375 16.640625 22.09375 16.640625 C 22.16375 17.040625 22.260766 17.435266 22.384766 17.822266 C 22.497766 18.193266 22.717922 18.601 22.919922 19 C 22.048922 19.692 21.508313 20.494484 21.320312 21.021484 C 20.973312 21.997484 21.246813 22.436109 21.757812 22.537109 C 21.987813 22.583109 22.314594 22.478906 22.558594 22.378906 C 22.920594 22.260906 23.261313 22.089141 23.570312 21.869141 C 24.156312 21.447141 24.723547 20.856688 24.685547 20.054688 C 24.671547 19.692688 24.569594 19.330422 24.433594 18.982422 C 25.169594 18.680422 26.12475 18.515344 27.34375 18.652344 C 29.95375 18.950344 30.465187 20.544984 30.367188 21.208984 C 30.269188 21.873984 29.720109 22.245469 29.537109 22.355469 C 29.354109 22.465469 29.2985 22.506844 29.3125 22.589844 C 29.3355 22.708844 29.419219 22.703781 29.574219 22.675781 C 29.790219 22.638781 30.942141 22.135344 30.994141 20.902344 C 31.069103 19.345129 29.53861 17.63228 26.826172 17.644531 L 26.822266 17.644531 C 25.880607 17.645115 24.95225 17.856237 24.107422 18.263672 C 23.830422 17.718672 23.544047 17.241766 23.498047 16.884766 C 23.442047 16.467766 23.382266 16.220562 23.447266 15.726562 C 23.513266 15.231563 23.807734 14.529516 23.802734 14.478516 C 23.797734 14.428516 23.736813 14.176875 23.132812 14.171875 C 22.528812 14.166875 22.007266 14.286406 21.947266 14.441406 C 21.840266 14.726406 21.757219 15.018406 21.699219 15.316406 C 21.591219 15.852406 20.490187 17.768578 19.867188 18.767578 C 19.661188 18.377578 19.488172 18.034766 19.451172 17.759766 C 19.395172 17.342766 19.333437 17.095562 19.398438 16.601562 C 19.464437 16.106562 19.760859 15.404516 19.755859 15.353516 C 19.750859 15.303516 19.689938 15.051875 19.085938 15.046875 C 18.481938 15.041875 17.959437 15.161406 17.898438 15.316406 C 17.837438 15.472406 17.771391 15.838406 17.650391 16.191406 C 17.528391 16.544406 16.061734 19.735453 15.677734 20.564453 C 15.480734 20.986453 15.311453 21.325688 15.189453 21.554688 C 15.170453 21.591687 15.157437 21.614813 15.148438 21.632812 C 15.162437 21.609813 15.171875 21.586703 15.171875 21.595703 C 15.068875 21.792703 15.007813 21.902344 15.007812 21.902344 L 15.007812 21.90625 C 14.927812 22.05325 14.838875 22.1875 14.796875 22.1875 C 14.768875 22.1875 14.707547 21.802391 14.810547 21.275391 C 15.030547 20.166391 15.551875 18.442813 15.546875 18.382812 C 15.541875 18.350812 15.643125 18.052578 15.203125 17.892578 C 14.776125 17.741578 14.623937 17.994141 14.585938 17.994141 C 14.547937 17.994141 14.519531 18.085938 14.519531 18.085938 C 14.519531 18.085938 14.991375 16.142578 13.609375 16.142578 C 12.746375 16.142578 11.546031 17.06825 10.957031 17.90625 C 10.587031 18.10325 9.7854063 18.530375 8.9414062 18.984375 C 8.6184062 19.158375 8.2866562 19.336859 7.9726562 19.505859 C 7.9496563 19.482859 7.93025 19.4605 7.90625 19.4375 C 6.22825 17.6865 3.1307188 16.448656 3.2617188 14.097656 C 3.3087188 13.240656 3.61475 10.991766 9.21875 8.2597656 C 13.81275 6.0237656 17.485188 6.6369531 18.117188 8.0019531 C 19.026187 9.9499531 16.152813 13.575656 11.382812 14.097656 C 9.5648125 14.294656 8.7272813 13.526531 8.4882812 13.269531 C 8.2402813 12.999531 8.2014219 12.985156 8.1074219 13.035156 C 7.9524219 13.117156 8.0514219 13.356047 8.1074219 13.498047 C 8.2484219 13.860047 8.8750469 14.427047 9.8730469 14.748047 C 10.750047 15.028047 12.763797 15.263109 15.341797 14.287109 C 18.237797 13.196109 20.450062 10.232453 19.789062 7.6894531 C 19.368437 6.0738281 17.50002 5.1379883 15.144531 5.0136719 z M 13.607422 17.289062 C 13.680719 17.294469 13.735125 17.321547 13.765625 17.373047 C 13.929625 17.644047 13.195813 19.638891 13.007812 20.087891 C 12.707812 20.807891 12.074453 22.641922 11.689453 22.544922 C 11.361453 22.462922 11.159047 21.064453 11.623047 19.689453 C 11.857047 18.997453 12.354391 18.172563 12.650391 17.851562 C 13.005141 17.463062 13.387531 17.272844 13.607422 17.289062 z M 23.347656 19.550781 C 23.402656 19.710781 23.431547 19.878875 23.435547 20.046875 C 23.430547 21.078875 22.676656 21.463047 22.222656 21.623047 C 22.128656 21.559047 22.141078 21.342828 22.455078 20.673828 C 22.577078 20.412828 22.859656 19.972781 23.347656 19.550781 z M 7.6035156 20.6875 C 7.9925156 22.0805 7.6179844 23.309344 6.7089844 24.277344 C 5.8469844 25.198344 4.6371875 25.546906 4.1171875 25.253906 C 3.5591875 24.936906 3.77975 23.579656 4.84375 22.597656 C 5.49075 22.001656 6.3259063 21.452281 6.8789062 21.113281 C 7.0059062 21.040281 7.1871094 20.929875 7.4121094 20.796875 C 7.4501094 20.773875 7.46875 20.765625 7.46875 20.765625 C 7.51075 20.738625 7.5565156 20.7155 7.6035156 20.6875 z M 19.380859 20.847656 C 19.380859 20.870656 19.386719 20.894875 19.386719 20.921875 C 19.380719 21.741875 18.573031 22.295625 18.207031 22.515625 L 18.210938 22.515625 L 18.210938 22.517578 C 18.083938 22.581578 17.966156 22.621844 17.910156 22.589844 C 17.868156 22.566844 17.962891 22.480469 17.962891 22.480469 C 17.962891 22.480469 18.614094 21.796375 18.871094 21.484375 C 19.021094 21.301375 19.193859 21.085656 19.380859 20.847656 z"/></svg>