<svg xmlns="http://www.w3.org/2000/svg" viewBox="0 0 32 32"><path d="M 5 4 L 5 23.4375 L 5.59375 23.6875 L 15.46875 27.90625 L 15.84375 28.09375 L 16.25 27.9375 L 26.375 23.6875 L 27 23.4375 L 27 4 Z M 7 6 L 25 6 L 25 9 L 7 9 Z M 7 11 L 25 11 L 25 22.09375 L 15.84375 25.90625 L 7 22.09375 Z M 16 13 C 13.238281 13 11 15.238281 11 18 C 11 20.761719 13.238281 23 16 23 C 18.761719 23 21 20.761719 21 18 C 21 15.238281 18.761719 13 16 13 Z M 16.1875 15.03125 C 17.59375 15.03125 18.734375 15.839844 18.78125 15.875 L 18.03125 16.90625 C 18.023438 16.898438 17.171875 16.28125 16.1875 16.28125 C 15.585938 16.28125 14.5625 16.449219 14.5625 17.0625 C 14.785156 17.320313 15.65625 17.308594 16.03125 17.3125 L 16.21875 17.3125 C 17.851563 17.3125 18.90625 17.933594 18.90625 18.9375 C 18.90625 19.871094 18.167969 20.96875 16.125 20.96875 C 14.585938 20.96875 13.304688 20.160156 13.25 20.125 L 13.9375 19.09375 C 13.949219 19.101563 14.960938 19.71875 16.125 19.71875 C 16.824219 19.71875 17.65625 19.507813 17.65625 18.9375 C 17.65625 18.777344 17.039063 18.5625 16.21875 18.5625 L 16.0625 18.5625 C 15.300781 18.558594 14.265625 18.542969 13.6875 17.96875 C 13.441406 17.722656 13.3125 17.425781 13.3125 17.0625 C 13.3125 15.832031 14.441406 15.03125 16.1875 15.03125 Z"/></svg>