<svg xmlns="http://www.w3.org/2000/svg" viewBox="0 0 32 32"><path d="M 8.5 5 C 6.58 5 5 6.58 5 8.5 L 5 9 L 7 9 L 7 8.5 C 7 7.62 7.62 7 8.5 7 L 9.5 7 C 10.38 7 11 7.62 11 8.5 C 11 8.96 10.650547 9.4798438 10.060547 9.8398438 C 8.8305469 10.599844 7.7498437 11.089844 6.8398438 11.589844 C 6.3898437 11.849844 5.9791406 12.090703 5.6191406 12.470703 C 5.2691406 12.850703 5 13.42 5 14 L 5 15 L 13 15 L 13 13 L 8.4394531 13 C 9.1694531 12.62 10.019141 12.240547 11.119141 11.560547 C 12.139141 10.930547 13 9.84 13 8.5 C 13 6.58 11.42 5 9.5 5 L 8.5 5 z M 23 5.5 L 22.279297 6.1894531 L 18 10.5 L 19.410156 11.910156 L 22 9.3105469 L 22 28 L 24 28 L 24 9.3105469 L 26.589844 11.910156 L 28 10.5 L 23.720703 6.1894531 L 23 5.5 z M 8.5898438 17 L 8.4394531 17.779297 C 8.4394531 17.779297 8.2708594 18.359453 7.8808594 18.939453 C 7.4808594 19.519453 6.98 20 6 20 L 6 22 C 7.38 22 8.32 21.319844 9 20.589844 L 9 27 L 11 27 L 11 17 L 8.5898438 17 z"/></svg>