<svg xmlns="http://www.w3.org/2000/svg" viewBox="0 0 32 32"><path d="M 10 3 C 5.037 3 1 7.037 1 12 L 1 13 C 1 14.65 2.35 16 4 16 C 4.77 16 5.47 15.700703 6 15.220703 C 6.53 15.700703 7.23 16 8 16 L 9 16 C 9.77 16 10.47 15.700703 11 15.220703 C 11.53 15.700703 12.23 16 13 16 L 14 16 C 14.77 16 15.47 15.700703 16 15.220703 C 16.53 15.700703 17.23 16 18 16 L 19 16 C 19.77 16 20.47 15.700703 21 15.220703 C 21.53 15.700703 22.23 16 23 16 L 24 16 C 24.77 16 25.47 15.700703 26 15.220703 C 26.53 15.700703 27.23 16 28 16 C 29.65 16 31 14.65 31 13 L 31 12 C 31 7.037 26.963 3 22 3 L 10 3 z M 10 5 L 22 5 C 24.798021 5 27.212536 6.6542426 28.332031 9.0332031 C 28.221743 9.0207762 28.113467 9 28 9 C 27.39 9 26.829375 9.1802344 26.359375 9.4902344 C 25.729375 8.5902344 24.68 8 23.5 8 C 22.74 8 22.040703 8.2501562 21.470703 8.6601562 C 20.850703 7.6701562 19.75 7 18.5 7 C 17.52 7 16.64 7.4105469 16 8.0605469 C 15.36 7.4105469 14.48 7 13.5 7 C 12.25 7 11.149297 7.6701563 10.529297 8.6601562 C 9.9592969 8.2501562 9.26 8 8.5 8 C 7.32 8 6.270625 8.5902344 5.640625 9.4902344 C 5.170625 9.1802344 4.61 9 4 9 C 3.8865328 9 3.7782571 9.0207762 3.6679688 9.0332031 C 4.7874638 6.6542426 7.2019794 5 10 5 z M 13.5 9 C 14.33 9 15 9.67 15 10.5 L 15 13 C 15 13.55 14.55 14 14 14 L 13 14 C 12.45 14 12 13.55 12 13 L 12 10.5 C 12 9.67 12.67 9 13.5 9 z M 18.5 9 C 19.33 9 20 9.67 20 10.5 L 20 13 C 20 13.55 19.55 14 19 14 L 18 14 C 17.45 14 17 13.55 17 13 L 17 10.5 C 17 9.67 17.67 9 18.5 9 z M 8.5 10 C 9.33 10 10 10.67 10 11.5 L 10 13 C 10 13.55 9.55 14 9 14 L 8 14 C 7.45 14 7 13.55 7 13 L 7 11.5 C 7 10.67 7.67 10 8.5 10 z M 23.5 10 C 24.33 10 25 10.67 25 11.5 L 25 13 C 25 13.55 24.55 14 24 14 L 23 14 C 22.45 14 22 13.55 22 13 L 22 11.5 C 22 10.67 22.67 10 23.5 10 z M 4 11 C 4.55 11 5 11.45 5 12 L 5 13 C 5 13.55 4.55 14 4 14 C 3.45 14 3 13.55 3 13 L 3 12 C 3 11.45 3.45 11 4 11 z M 28 11 C 28.55 11 29 11.45 29 12 L 29 13 C 29 13.55 28.55 14 28 14 C 27.45 14 27 13.55 27 13 L 27 12 C 27 11.45 27.45 11 28 11 z M 4 18 C 2.35 18 1 19.35 1 21 L 1 22 C 1 25.859 4.141 29 8 29 L 24 29 C 27.859 29 31 25.859 31 22 L 31 21 C 31 19.35 29.65 18 28 18 C 27.23 18 26.53 18.299297 26 18.779297 C 25.47 18.299297 24.77 18 24 18 L 23 18 C 22.23 18 21.53 18.299297 21 18.779297 C 20.47 18.299297 19.77 18 19 18 L 18 18 C 17.23 18 16.53 18.299297 16 18.779297 C 15.47 18.299297 14.77 18 14 18 L 13 18 C 12.23 18 11.53 18.299297 11 18.779297 C 10.47 18.299297 9.77 18 9 18 L 8 18 C 7.23 18 6.53 18.299297 6 18.779297 C 5.47 18.299297 4.77 18 4 18 z M 4 20 C 4.55 20 5 20.45 5 21 C 5 21.55 4.55 22 4 22 C 3.45 22 3 21.55 3 21 C 3 20.45 3.45 20 4 20 z M 8 20 L 9 20 C 9.55 20 10 20.45 10 21 L 10 22 C 10 22.55 9.55 23 9 23 C 7.9 23 7 22.1 7 21 C 7 20.45 7.45 20 8 20 z M 13 20 L 14 20 C 14.55 20 15 20.45 15 21 L 15 22 C 15 22.55 14.55 23 14 23 L 13 23 C 12.45 23 12 22.55 12 22 L 12 21 C 12 20.45 12.45 20 13 20 z M 18 20 L 19 20 C 19.55 20 20 20.45 20 21 L 20 22 C 20 22.55 19.55 23 19 23 L 18 23 C 17.45 23 17 22.55 17 22 L 17 21 C 17 20.45 17.45 20 18 20 z M 23 20 L 24 20 C 24.55 20 25 20.45 25 21 C 25 22.1 24.1 23 23 23 C 22.45 23 22 22.55 22 22 L 22 21 C 22 20.45 22.45 20 23 20 z M 28 20 C 28.55 20 29 20.45 29 21 C 29 21.55 28.55 22 28 22 C 27.45 22 27 21.55 27 21 C 27 20.45 27.45 20 28 20 z M 5.8007812 23.380859 C 6.5407813 24.360859 7.69 25 9 25 C 9.77 25 10.47 24.700703 11 24.220703 C 11.53 24.700703 12.23 25 13 25 L 14 25 C 14.77 25 15.47 24.700703 16 24.220703 C 16.53 24.700703 17.23 25 18 25 L 19 25 C 19.77 25 20.47 24.700703 21 24.220703 C 21.53 24.700703 22.23 25 23 25 C 24.31 25 25.459219 24.360859 26.199219 23.380859 C 26.699219 23.770859 27.32 24 28 24 C 28.208418 24 28.412646 23.978463 28.609375 23.9375 C 27.851042 25.735349 26.070567 27 24 27 L 8 27 C 5.9294325 27 4.1489579 25.735349 3.390625 23.9375 C 3.5873538 23.978463 3.7915819 24 4 24 C 4.68 24 5.3007813 23.770859 5.8007812 23.380859 z"/></svg>