<svg xmlns="http://www.w3.org/2000/svg" viewBox="0 0 32 32"><path d="M 7.4003906 3 C 6.5003906 6.1 7.2003906 8.9996094 7.4003906 9.5996094 C 8.2003906 9.2996094 9.8992187 7.7003906 7.6992188 5.9003906 C 8.9992188 6.3003906 9.7007813 7.4003906 9.8007812 8.4003906 C 10.000781 9.8003906 8.0996094 11 7.0996094 11 C 5.4996094 11.1 4 12.7 4 14 L 5.0996094 13.5 C 4.7996094 14.4 4.4992188 15.300391 4.6992188 16.400391 L 6 16.099609 C 5.2 17.399609 5.4996094 19.400391 5.5996094 20.400391 L 6.9003906 19.699219 L 7.3007812 21.5 L 8.5 21.199219 L 9 22.699219 L 10.300781 21.599609 L 9.3007812 22 L 8.9003906 20.300781 L 8 20.599609 L 7.6992188 18.900391 L 6.3007812 19.300781 C 6.1007812 18.000781 6.4 16.799609 7 15.599609 L 5.5 15.199219 C 6 12.999219 7.2992188 12.6 8.6992188 12.5 C 9.1992188 14.1 8.9996094 15.399609 8.5996094 16.599609 C 12.699609 19.499609 12.499219 22.599219 12.699219 24.199219 C 12.899219 25.699219 12.9 28.699609 14 29.099609 L 14 27.599609 L 14.300781 27.199219 L 14.599609 27.800781 L 15.099609 27 L 15.699219 28.099609 L 16.099609 26.900391 L 16.599609 27.699219 L 16.900391 27.099609 L 17.199219 27.5 L 17.199219 29 C 18.299219 28.6 18.3 25.599609 18.5 24.099609 C 18.7 22.499609 18.499609 19.4 22.599609 16.5 C 22.199609 15.3 22 14.000391 22.5 12.400391 C 23.9 12.600391 25.199219 12.899609 25.699219 15.099609 L 24.199219 15.5 C 24.799219 16.7 25.100391 17.899219 24.900391 19.199219 L 23.5 18.800781 L 23 20.599609 L 22.099609 20.199219 L 21.699219 21.900391 L 20.699219 21.5 L 22 22.599609 L 22.400391 21.199219 L 23.599609 21.5 L 24 19.699219 L 25.300781 20.400391 C 25.300781 19.400391 25.700391 17.499609 24.900391 16.099609 L 26.199219 16.400391 C 26.399219 15.300391 26.100781 14.4 25.800781 13.5 L 27 14 C 27 12.7 25.500391 11.1 23.900391 11 C 22.900391 10.9 20.999219 9.7003906 21.199219 8.4003906 C 21.299219 7.4003906 22.000781 6.2003906 23.300781 5.9003906 C 21.100781 7.8003906 22.799609 9.2996094 23.599609 9.5996094 C 23.799609 8.9996094 24.499609 6.1 23.599609 3 C 21.599609 4.2 19.2 6.3 19 10.5 L 16.199219 12.300781 L 16 17 L 21.199219 14.199219 L 21.599609 14.599609 L 20.699219 14.800781 L 18.5 16.800781 L 17.699219 16.5 L 16.300781 19 L 16.099609 25 L 17.199219 25.800781 L 15.599609 26.599609 L 14 25.800781 L 15.099609 25 L 14.900391 18.900391 L 13.5 16.400391 L 12.699219 16.699219 L 10.5 14.699219 L 9.5996094 14.5 L 10 14.099609 L 15 17 L 14.800781 12.300781 L 12 10.5 C 11.8 6.3 9.5003906 4.2 7.4003906 3 z M 8.1992188 13.5 C 7.2992188 13.6 6.4003906 13.900391 5.9003906 14.900391 C 6.6003906 15.100391 7.0996094 15.199609 8.0996094 15.599609 C 8.0996094 14.999609 8.1992188 14.2 8.1992188 13.5 z M 22.800781 13.5 C 22.800781 14.2 22.900391 14.999609 22.900391 15.599609 C 23.900391 15.199609 24.399609 15.100391 25.099609 14.900391 C 24.599609 13.900391 23.800781 13.6 22.800781 13.5 z M 8.0996094 15.800781 C 7.0996094 16.500781 6.6996094 17.499219 6.5996094 18.699219 C 7.1996094 18.499219 7.8 18.199219 8.5 18.199219 C 8.2 17.499219 8.0996094 16.700781 8.0996094 15.800781 z M 22.900391 15.800781 C 22.900391 16.700781 22.8 17.499219 22.5 18.199219 C 23.2 18.199219 23.800391 18.499219 24.400391 18.699219 C 24.300391 17.499219 23.900391 16.500781 22.900391 15.800781 z M 8.5996094 18.199219 C 8.3996094 18.699219 8.3007812 19.200391 8.3007812 19.900391 L 9.5 19.599609 C 9.2 19.099609 8.8996094 18.699219 8.5996094 18.199219 z M 9.5 19.599609 C 9.5 20.199609 9.4996094 20.699219 9.5996094 21.199219 C 9.9996094 21.099219 10.399219 21.000781 10.699219 20.800781 C 10.299219 20.500781 9.9 19.999609 9.5 19.599609 z M 22.400391 18.199219 C 22.100391 18.699219 21.8 19.099609 21.5 19.599609 L 22.699219 19.900391 C 22.699219 19.200391 22.600391 18.699219 22.400391 18.199219 z M 21.5 19.599609 C 21.1 19.999609 20.700781 20.500781 20.300781 20.800781 C 20.600781 21.000781 21.000391 21.099219 21.400391 21.199219 C 21.500391 20.699219 21.5 20.199609 21.5 19.599609 z M 10.699219 21 C 10.799219 21.3 10.800391 21.699609 10.900391 22.099609 L 11.699219 21.599609 C 11.299219 21.399609 10.999219 21.2 10.699219 21 z M 20.300781 21 C 20.000781 21.2 19.700781 21.399609 19.300781 21.599609 L 20.099609 22.099609 C 20.199609 21.699609 20.200781 21.3 20.300781 21 z"/></svg>