<svg xmlns="http://www.w3.org/2000/svg" viewBox="0 0 32 32"><path d="M 21.40625 5 C 20.980469 5 20.527344 5.167969 20.25 5.40625 C 19.972656 5.644531 19.84375 5.894531 19.75 6.0625 C 19.75 6.0625 17.339844 10.34375 15.4375 13.71875 C 15.414063 13.609375 15.371094 13.503906 15.3125 13.40625 C 15.300781 13.386719 13.34375 10 13.34375 10 C 13.246094 9.824219 13.09375 9.570313 12.8125 9.34375 C 12.53125 9.117188 12.125 8.9375 11.6875 8.9375 L 8.78125 8.9375 C 8.371094 8.9375 7.867188 9.109375 7.5625 9.59375 C 7.550781 9.59375 7.542969 9.59375 7.53125 9.59375 C 7.238281 10.078125 7.339844 10.660156 7.53125 11.03125 C 7.542969 11.042969 7.550781 11.050781 7.5625 11.0625 L 9.21875 13.96875 L 6.4375 18.875 C 6.425781 18.886719 6.417969 18.894531 6.40625 18.90625 C 6.191406 19.324219 6.160156 19.898438 6.4375 20.34375 C 6.683594 20.738281 7.207031 21 7.6875 21 L 10.5625 21 C 11.003906 21 11.445313 20.828125 11.71875 20.59375 C 11.992188 20.359375 12.125 20.109375 12.21875 19.9375 C 12.21875 19.9375 12.792969 18.910156 13.21875 18.15625 C 13.242188 18.234375 13.273438 18.304688 13.3125 18.375 C 13.324219 18.394531 17.4375 25.9375 17.4375 25.9375 C 17.539063 26.117188 17.691406 26.363281 17.96875 26.59375 C 18.246094 26.824219 18.683594 27 19.125 27 L 22 27 C 22.425781 27 22.945313 26.78125 23.21875 26.34375 C 23.511719 25.878906 23.480469 25.300781 23.28125 24.90625 C 23.269531 24.894531 23.261719 24.886719 23.25 24.875 L 19.4375 17.9375 L 25.5625 7.125 C 25.574219 7.105469 25.585938 7.082031 25.59375 7.0625 C 25.792969 6.664063 25.855469 6.125 25.5625 5.65625 C 25.28125 5.199219 24.734375 5 24.3125 5 Z M 21.53125 7 L 23.3125 7 L 17.4375 17.4375 C 17.324219 17.640625 17.339844 18.121094 17.46875 18.40625 L 17.4375 18.40625 L 17.46875 18.46875 L 17.46875 18.5 L 21.03125 25 L 19.21875 25 C 19.207031 24.984375 19.203125 25 19.1875 24.96875 C 19.1875 24.96875 15.828125 18.773438 15.375 17.9375 C 16.058594 16.726563 21.5 7.03125 21.5 7.03125 C 21.523438 6.988281 21.519531 7.019531 21.53125 7 Z M 9.78125 10.9375 L 11.5625 10.9375 C 11.570313 10.945313 11.566406 10.921875 11.59375 10.96875 C 11.605469 10.980469 11.613281 10.988281 11.625 11 C 11.625 11 12.867188 13.160156 13.3125 13.9375 C 12.800781 14.839844 10.46875 18.96875 10.46875 18.96875 C 10.449219 19.003906 10.449219 18.980469 10.4375 19 L 8.65625 19 L 11.25 14.46875 C 11.261719 14.429688 11.273438 14.386719 11.28125 14.34375 C 11.304688 14.292969 11.375 14.171875 11.375 13.96875 C 11.375 13.765625 11.304688 13.613281 11.28125 13.5625 C 11.261719 13.519531 11.242188 13.476563 11.21875 13.4375 Z"/></svg>