<?xml version="1.0" encoding="UTF-8" standalone="no"?>
<!DOCTYPE svg PUBLIC "-//W3C//DTD SVG 1.1//EN" "http://www.w3.org/Graphics/SVG/1.1/DTD/svg11.dtd">
<svg width="100%" height="100%" viewBox="0 0 468 467" version="1.1" xmlns="http://www.w3.org/2000/svg" xmlns:xlink="http://www.w3.org/1999/xlink" xml:space="preserve" xmlns:serif="http://www.serif.com/" style="fill-rule:evenodd;clip-rule:evenodd;stroke-linejoin:round;stroke-miterlimit:2;">
    <g transform="matrix(1,0,0,1,-2565,0)">
        <g id="orbos-logo-solo-darkdesign" transform="matrix(0.564847,0,0,0.659318,1282.43,0)">
            <rect x="2271.15" y="0" width="826.773" height="708.241" style="fill:none;"/>
            <g transform="matrix(7.36815,-6.3124,7.36815,6.3124,-18653.6,12196.2)">
                <path d="M2386,472.105C2365.09,472.105 2348.11,489.085 2348.11,510C2348.11,530.915 2365.09,547.895 2386,547.895C2406.91,547.895 2423.89,530.915 2423.89,510C2423.89,489.085 2406.91,472.105 2386,472.105ZM2386,473.895C2405.93,473.895 2422.11,490.073 2422.11,510C2422.11,529.927 2405.93,546.105 2386,546.105C2366.07,546.105 2349.89,529.927 2349.89,510C2349.89,490.073 2366.07,473.895 2386,473.895Z" style="fill:white;"/>
            </g>
            <g transform="matrix(1.23945,0,0,1.06186,-22017.8,-279.807)">
                <path d="M20142.7,632.12C20125.9,734.376 20037,812.508 19930,812.508C19823,812.508 19734.1,734.376 19717.3,632.12L19788.5,632.12C19804.3,695.603 19861.7,742.724 19930,742.724C19998.3,742.724 20055.7,695.603 20071.5,632.12L20142.7,632.12ZM19717.3,561.88C19734.1,459.624 19823,381.492 19930,381.492C20037,381.492 20125.9,459.624 20142.7,561.88L20071.5,561.88C20055.7,498.397 19998.3,451.276 19930,451.276C19861.7,451.276 19804.3,498.397 19788.5,561.88L19717.3,561.88Z" style="fill:url(#_Linear1);"/>
            </g>
            <g transform="matrix(2.36572,0,0,2.02675,-7989.61,-1167.97)">
                <path d="M4512,705L4558,751L4512,797L4466,751L4512,705Z" style="fill:white;"/>
            </g>
            <g transform="matrix(1.84874,0,0,1.58384,-1456.04,-685.38)">
                <circle cx="2386" cy="510" r="37" style="fill:white;"/>
            </g>
            <g transform="matrix(3.83552,0,0,3.28594,-21124.5,-1080.19)">
                <path d="M6275.77,348.281C6275.77,348.281 6265.02,350.542 6256.86,346.172L6255.26,350.756C6255.26,350.756 6261.45,353.854 6260.25,364.501L6275.77,348.281Z" style="fill:white;"/>
            </g>
            <g transform="matrix(-1.077,-3.15374,-3.68121,0.92268,11032.5,19588.1)">
                <path d="M6268.5,342.108C6268.5,342.108 6263.4,347.224 6248.27,344.08L6247.2,348.838C6247.2,348.838 6258.2,350.829 6259.27,360.241L6268.5,342.108Z" style="fill:white;"/>
            </g>
        </g>
    </g>
    <defs>
        <linearGradient id="_Linear1" x1="0" y1="0" x2="1" y2="0" gradientUnits="userSpaceOnUse" gradientTransform="matrix(425.31,0,0,431.016,19717.3,597)"><stop offset="0" style="stop-color:rgb(255,143,0);stop-opacity:1"/><stop offset="1" style="stop-color:rgb(254,0,255);stop-opacity:1"/></linearGradient>
    </defs>
</svg>
