<?xml version="1.0"?><svg xmlns="http://www.w3.org/2000/svg" viewBox="0 0 32 32">    <path d="M 8.828125 9 C 8.243125 9 7.5647188 9.3350781 7.1367188 9.8300781 C 6.8007188 10.239078 6.4393125 10.878531 6.5703125 11.519531 C 7.1733125 11.592531 7.8262188 11.220562 8.1992188 10.726562 C 8.6282187 10.268563 8.865125 9.641 8.828125 9 z M 4.7988281 11.660156 C 3.2138281 11.660156 2 13.037344 2 15.027344 C 2 17.627344 3.825125 20 4.953125 20 C 5.643125 20 5.8987813 19.548828 6.8007812 19.548828 C 7.6397812 19.548828 7.9019062 20 8.6289062 20 C 9.9799062 20 11.099625 17.245266 11.140625 17.072266 C 10.918625 16.974266 9.6171875 16.349281 9.6171875 14.863281 C 9.6171875 13.429281 10.805469 12.782953 10.855469 12.751953 C 10.209469 11.775953 9.1644375 11.660156 8.7734375 11.660156 C 7.8664375 11.660156 7.0637656 12.154297 6.6347656 12.154297 C 6.1867656 12.154297 5.5328281 11.660156 4.7988281 11.660156 z M 13 12 L 13 20 L 15 20 L 15 17 L 15.5 17 C 16.480869 17 17.173964 16.332692 17.582031 15.5 L 18 15.5 L 18 14.5 C 18 13.130937 16.869063 12 15.5 12 L 13 12 z M 20.222656 12 L 18 18.841797 L 18 20 L 20 20 L 20 19.158203 L 20.050781 19 L 21.949219 19 L 22 19.158203 L 22 20 L 24 20 L 24 18.841797 L 21.777344 12 L 20.222656 12 z M 24 12 L 24 13.296875 L 26 16.373047 L 26 20 L 28 20 L 28 16.373047 L 30 13.296875 L 30 12 L 28 12 L 28 12.703125 L 27 14.242188 L 26 12.703125 L 26 12 L 24 12 z M 15 14 L 15.5 14 C 15.786937 14 16 14.213063 16 14.5 C 16 14.786937 15.786937 15 15.5 15 L 15 15 L 15 14 z M 21 16.080078 L 21.298828 17 L 20.701172 17 L 21 16.080078 z"/></svg>