<svg xmlns="http://www.w3.org/2000/svg" viewBox="0 0 32 32"><path d="M 10.613281 4.0019531 C 8.2952813 4.0019531 6.1476094 5.7958906 5.7246094 8.0878906 L 3.0722656 22.550781 C 2.8552656 23.723781 3.1240313 24.8375 3.8320312 25.6875 C 4.5360313 26.5335 5.5757656 27 6.7597656 27 L 21.384766 27 C 23.702766 27 25.848484 25.205109 26.271484 22.912109 L 28.929688 8.4511719 C 29.142687 7.2741719 28.869156 6.1585937 28.160156 5.3085938 C 27.456156 4.4655938 26.417328 4.0019531 25.236328 4.0019531 L 10.613281 4.0019531 z M 10.613281 6 L 25.236328 6 C 25.814328 6 26.307953 6.2097969 26.626953 6.5917969 C 26.949953 6.9777969 27.069844 7.5107969 26.964844 8.0917969 L 24.306641 22.550781 C 24.061641 23.878781 22.722766 25 21.384766 25 L 6.7597656 25 C 6.1807656 25 5.6870938 24.789203 5.3710938 24.408203 C 5.0500937 24.023203 4.9320625 23.492109 5.0390625 22.912109 L 7.6914062 8.4492188 C 7.9374063 7.1212188 9.2742812 6 10.613281 6 z M 11.416016 7.9746094 L 10.996094 8.1992188 L 10.109375 9.5625 L 13.353516 14.269531 L 14.320312 15.666016 C 13.754312 16.246016 13.212438 16.8175 12.773438 17.3125 L 10.037109 15.845703 L 9.296875 16.570312 L 11.769531 18.839844 L 13.683594 21.716797 L 14.527344 21.117188 L 13.486328 18.089844 C 14.076328 17.731844 14.760125 17.2845 15.453125 16.8125 L 20.896484 22 L 22.404297 21.363281 L 22.701172 20.992188 L 18.226562 15.359375 L 18.013672 15.015625 C 18.947672 14.346625 19.594687 13.869594 19.679688 13.808594 C 20.052688 13.497594 19.977734 12.827031 19.552734 12.332031 C 19.118734 11.822031 18.466516 11.653937 18.103516 11.960938 C 18.103516 11.960937 17.424766 12.601281 16.509766 13.488281 L 16.279297 13.275391 L 11.416016 7.9746094 z"/></svg>