<svg xmlns="http://www.w3.org/2000/svg" viewBox="0 0 32 32"><path d="M 13.5 4 C 12.253906 4 11.191406 4.582031 10.375 5.40625 C 9.929688 5.234375 9.507813 5 9 5 C 6.800781 5 5 6.800781 5 9 C 5 10.027344 5.417969 10.945313 6.0625 11.65625 C 6.023438 11.765625 6 11.882813 6 12 L 6 25 C 6 26.644531 7.355469 28 9 28 L 21 28 C 22.644531 28 24 26.644531 24 25 L 24 23 L 25 23 C 26.644531 23 28 21.644531 28 20 L 28 16 C 28 14.355469 26.644531 13 25 13 L 24 13 L 24 11.8125 C 24.007813 11.738281 24.007813 11.667969 24 11.59375 C 24.609375 10.890625 25 9.996094 25 9 C 25 6.800781 23.199219 5 21 5 C 20.253906 5 19.59375 5.265625 19 5.625 C 18.40625 5.265625 17.746094 5 17 5 C 16.742188 5 16.539063 5.078125 16.3125 5.125 C 15.535156 4.472656 14.59375 4 13.5 4 Z M 13.5 6 C 14.234375 6 14.878906 6.332031 15.34375 6.84375 L 15.78125 7.3125 L 16.40625 7.125 C 16.628906 7.050781 16.808594 7 17 7 C 17.511719 7 17.980469 7.203125 18.34375 7.53125 L 19 8.125 L 19.65625 7.53125 C 20.019531 7.203125 20.488281 7 21 7 C 22.117188 7 23 7.882813 23 9 C 23 10.117188 22.117188 11 21 11 C 19.890625 11 18.28125 10.53125 18.28125 10.53125 L 17 10.15625 L 17 11.5 C 17 12.902344 17.300781 13.972656 17.5625 14.78125 C 17.824219 15.589844 18 16.105469 18 16.5 C 18 17.339844 17.339844 18 16.5 18 C 15.660156 18 15 17.339844 15 16.5 C 15 16.105469 15.175781 15.558594 15.4375 14.75 C 15.699219 13.941406 16 12.894531 16 11.5 L 16 9.71875 L 14.5 10.65625 C 14.5 10.65625 14.320313 10.746094 14.09375 10.84375 C 13.867188 10.941406 13.582031 11 13.5 11 C 12.855469 11 12.265625 10.753906 11.8125 10.34375 L 11.09375 9.6875 L 10.4375 10.375 C 10.070313 10.753906 9.570313 11 9 11 C 7.882813 11 7 10.117188 7 9 C 7 7.882813 7.882813 7 9 7 C 9.40625 7 9.773438 7.136719 10.09375 7.34375 L 10.90625 7.84375 L 11.46875 7.0625 C 11.921875 6.417969 12.648438 6 13.5 6 Z M 11.1875 12.25 C 11.871094 12.675781 12.636719 13 13.5 13 C 13.605469 13 13.652344 12.949219 13.75 12.9375 C 13.667969 13.324219 13.671875 13.820313 13.5625 14.15625 C 13.324219 14.890625 13 15.59375 13 16.5 C 13 18.421875 14.578125 20 16.5 20 C 18.421875 20 20 18.421875 20 16.5 C 20 15.59375 19.675781 14.886719 19.4375 14.15625 C 19.308594 13.757813 19.273438 13.195313 19.1875 12.71875 C 19.828125 12.867188 20.117188 13 21 13 C 21.34375 13 21.679688 12.925781 22 12.84375 L 22 13.6875 C 21.941406 13.882813 21.941406 14.085938 22 14.28125 L 22 21.8125 C 21.972656 21.945313 21.972656 22.085938 22 22.21875 L 22 25 C 22 25.566406 21.566406 26 21 26 L 9 26 C 8.433594 26 8 25.566406 8 25 L 8 12.84375 C 8.320313 12.925781 8.65625 13 9 13 C 9.824219 13 10.550781 12.679688 11.1875 12.25 Z M 24 15 L 25 15 C 25.566406 15 26 15.433594 26 16 L 26 20 C 26 20.566406 25.566406 21 25 21 L 24 21 Z"/></svg>