<svg xmlns="http://www.w3.org/2000/svg" viewBox="0 0 32 32"><path d="M 5 5 L 5 27 L 27 27 L 27 5 L 5 5 z M 7 7 L 25 7 L 25 25 L 7 25 L 7 7 z M 9 11.369141 L 9 19.980469 L 13.179688 19.980469 C 14.739688 19.970469 16.210938 19.220703 16.210938 17.470703 C 16.210938 16.380703 15.690625 15.460156 14.640625 15.160156 C 15.410625 14.780156 15.810547 14.36 15.810547 13.5 C 15.810547 11.78 14.540547 11.369141 13.060547 11.369141 L 9 11.369141 z M 18.140625 12 L 18.140625 12.849609 L 21.619141 12.849609 L 21.619141 12 L 18.140625 12 z M 10.900391 12.689453 L 12.679688 12.689453 C 13.349687 12.689453 13.970703 12.879922 13.970703 13.669922 C 13.970703 14.399922 13.490547 14.699219 12.810547 14.699219 L 10.900391 14.699219 L 10.900391 12.689453 z M 19.960938 13.429688 C 18.070937 13.429688 16.779297 14.840703 16.779297 16.720703 C 16.779297 18.660703 17.990938 20 19.960938 20 C 21.450937 20 22.420859 19.330391 22.880859 17.900391 L 21.369141 17.900391 C 21.199141 18.430391 20.539531 18.710937 20.019531 18.710938 C 19.009531 18.710938 18.490234 18.120859 18.490234 17.130859 L 22.980469 17.130859 C 22.990469 17.030859 23 16.910781 23 16.800781 C 23 14.960781 21.910937 13.429688 19.960938 13.429688 z M 19.900391 14.710938 C 20.770391 14.710938 21.199531 15.220781 21.269531 16.050781 L 18.490234 16.050781 C 18.540234 15.230781 19.080391 14.710938 19.900391 14.710938 z M 10.890625 16.130859 L 12.960938 16.130859 C 13.790938 16.130859 14.320312 16.479141 14.320312 17.369141 C 14.320312 18.229141 13.689922 18.5 12.919922 18.5 L 10.890625 18.5 L 10.890625 16.130859 z"/></svg>