<svg xmlns="http://www.w3.org/2000/svg" viewBox="0 0 32 32"><path d="M 15.996094 3 L 13 6.0039062 L 15 6.0039062 L 15 12 L 16 13 L 17 12 L 17 6.0039062 L 19 6.0039062 L 15.996094 3 z M 7 7 L 7 11 L 8.2929688 9.7070312 L 12.585938 14 L 14 14 L 14 12.585938 L 9.7070312 8.2929688 L 11 7 L 7 7 z M 12.414062 7 L 11.121094 8.2929688 L 14 11.171875 L 14 7 L 12.414062 7 z M 18 7 L 18 11.171875 L 20.878906 8.2929688 L 19.585938 7 L 18 7 z M 21 7 L 22.292969 8.2929688 L 18 12.585938 L 18 14 L 19.414062 14 L 23.707031 9.7070312 L 25 11 L 25 7 L 21 7 z M 8.2929688 11.121094 L 7 12.414062 L 7 14 L 11.171875 14 L 8.2929688 11.121094 z M 23.707031 11.121094 L 20.828125 14 L 25 14 L 25 12.414062 L 23.707031 11.121094 z M 6.0039062 13 L 3 16.003906 L 6.0039062 19 L 6.0039062 17 L 12 17 L 13 16 L 12 15 L 6.0039062 15 L 6.0039062 13 z M 25.996094 13 L 25.996094 15 L 20 15 L 19 16 L 20 17 L 25.996094 17 L 25.996094 19 L 29 15.996094 L 25.996094 13 z M 7 18 L 7 19.585938 L 8.2929688 20.878906 L 11.171875 18 L 7 18 z M 12.585938 18 L 8.2929688 22.292969 L 7 21 L 7 25 L 11 25 L 9.7070312 23.707031 L 14 19.414062 L 14 18 L 12.585938 18 z M 18 18 L 18 19.414062 L 22.292969 23.707031 L 21 25 L 25 25 L 25 21 L 23.707031 22.292969 L 19.414062 18 L 18 18 z M 20.828125 18 L 23.707031 20.878906 L 25 19.585938 L 25 18 L 20.828125 18 z M 16 19 L 15 20 L 15 25.996094 L 13 25.996094 L 16.003906 29 L 19 25.996094 L 17 25.996094 L 17 20 L 16 19 z M 14 20.828125 L 11.121094 23.707031 L 12.414062 25 L 14 25 L 14 20.828125 z M 18 20.828125 L 18 25 L 19.585938 25 L 20.878906 23.707031 L 18 20.828125 z"/></svg>