<svg xmlns="http://www.w3.org/2000/svg" viewBox="0 0 32 32"><path d="M 16 3 C 8.832031 3 3 8.832031 3 16 C 3 23.167969 8.832031 29 16 29 C 23.167969 29 29 23.167969 29 16 C 29 8.832031 23.167969 3 16 3 Z M 14.875 5.0625 C 14.917969 5.058594 14.957031 5.066406 15 5.0625 L 15 16.40625 L 15.28125 16.71875 L 23.0625 24.46875 C 21.15625 26.0625 18.6875 27 16 27 C 9.914063 27 5 22.085938 5 16 C 5 10.292969 9.320313 5.625 14.875 5.0625 Z M 17 5.0625 C 22.285156 5.539063 26.460938 9.714844 26.9375 15 L 17 15 Z M 18.4375 17 L 26.9375 17 C 26.730469 19.292969 25.863281 21.394531 24.46875 23.0625 Z"/></svg>