<svg xmlns="http://www.w3.org/2000/svg" viewBox="0 0 32 32"><path d="M 10.40625 5.9375 L 8.75 5.96875 C 5.008 6.10475 2 9.19475 2 12.96875 C 2 15.19875 3.0555 17.18375 4.6875 18.46875 C 4.2545 19.21075 4 20.082 4 21 C 4 23.758 6.242 26 9 26 L 10.160156 26 C 10.340156 25.37 10.659297 24.68 11.029297 24 L 9 24 C 7.348 24 6 22.652 6 21 C 6 19.348 7.348 18 9 18 L 10 18 L 10 17 C 10 15.898 10.89525 15.004 11.90625 15 L 12.90625 15.0625 L 13.09375 14.21875 C 13.46875 12.35875 15.102 11 17 11 C 18.605 11 20.0555 11.9605 20.6875 13.4375 L 20.96875 14.126953 L 21.873047 14.03125 C 21.917047 14.02225 21.953 14 22 14 C 23.652 14 24.996 15.3515 25 16.9375 L 24.96875 17.90625 L 25.75 18.095703 C 27.082 18.434703 28 19.637 28 21 C 28 22.652 26.652 24 25 24 L 24 24 C 24 24.73 23.779453 25.41 23.439453 26 L 25 26 C 27.758 26 30 23.758 30 21 C 30 18.98 28.78875 17.18025 26.96875 16.40625 C 26.68775 13.98825 24.6555 12.097 22.1875 12 C 21.1245 10.152 19.164 9 17 9 C 14.684 9 12.617 10.33975 11.625 12.34375 C 10.297 11.79675 9.34375 10.50775 9.34375 8.96875 C 9.34375 8.40975 9.4605 7.88725 9.6875 7.40625 L 10.40625 5.9375 z M 7.5 8.3125 C 7.473 8.5425 7.34375 8.72975 7.34375 8.96875 C 7.34375 10.92175 8.33175 12.63225 9.84375 13.65625 C 8.99575 14.21025 8.33175 15.07775 8.09375 16.09375 C 7.32375 16.23375 6.63325 16.555 6.03125 17 C 4.80525 16.086 4 14.62075 4 12.96875 C 4 10.73075 5.484 8.9565 7.5 8.3125 z M 20 20 C 20 20 18 22.895 18 24 C 18 25.105 18.895 26 20 26 C 20.137 26 20.27725 25.99575 20.40625 25.96875 C 21.31625 25.78075 22 24.969 22 24 C 22 22.895 20 20 20 20 z M 14 23 C 14 23 13.715 23.453 13.375 24 C 13.25 24.199 13.133 24.36275 13 24.59375 C 12.82 24.90675 12.656 25.21025 12.5 25.53125 C 12.422 25.69125 12.34425 25.848953 12.28125 26.001953 C 12.11725 26.387953 12 26.746 12 27 C 12 28.105 12.895 29 14 29 C 15.105 29 16 28.105 16 27 C 16 26.746 15.88275 26.387 15.71875 26 C 15.70275 25.969 15.7025 25.94125 15.6875 25.90625 C 15.6325 25.78525 15.563953 25.65625 15.501953 25.53125 C 15.228953 24.97625 14.915953 24.465 14.626953 24 C 14.285953 23.453 14 23 14 23 z"/></svg>