<svg xmlns="http://www.w3.org/2000/svg" viewBox="0 0 32 32"><path d="M 16 3 C 8.832 3 3 8.832 3 16 C 3 23.168 8.832 29 16 29 C 23.168 29 29 23.168 29 16 C 29 8.832 23.168 3 16 3 z M 16 5 C 22.065 5 27 9.935 27 16 C 27 22.065 22.065 27 16 27 C 9.935 27 5 22.065 5 16 C 5 9.935 9.935 5 16 5 z M 16.126953 9 C 15.862953 9 15.645906 9.20575 15.628906 9.46875 L 15.277344 13.136719 L 14.962891 10.388672 C 14.944891 10.125672 14.727844 9.9238281 14.464844 9.9238281 C 14.201844 9.9238281 13.983844 10.126672 13.964844 10.388672 L 13.650391 13.625 L 13.357422 11.304688 C 13.336422 11.046688 13.122281 10.847703 12.863281 10.845703 L 12.859375 10.845703 C 12.602375 10.845703 12.386328 11.041828 12.361328 11.298828 L 11.90625 16.001953 L 11.716797 14.949219 C 11.679797 14.744219 11.5185 14.583875 11.3125 14.546875 C 11.1045 14.513875 10.900922 14.604203 10.794922 14.783203 L 10.080078 16 L 8 16 L 8 17 L 10.365234 17 C 10.542234 17 10.706875 16.905906 10.796875 16.753906 L 10.972656 16.453125 L 11.564453 19.742188 C 11.608453 19.987188 11.839125 20.158297 12.078125 20.154297 C 12.328125 20.143297 12.530687 19.950172 12.554688 19.701172 L 12.818359 18 L 13.193359 21.541016 C 13.214359 21.801016 13.431406 22 13.691406 22 L 13.693359 22 C 13.955359 21.998 14.171453 21.796156 14.189453 21.535156 L 14.460938 19.044922 L 14.796875 22.533203 C 14.814875 22.796203 15.034875 23 15.296875 23 C 15.559875 22.999 15.777922 22.79425 15.794922 22.53125 L 16.109375 19 L 16.34375 21.529297 C 16.35975 21.790297 16.574937 21.996 16.835938 22 L 16.84375 22 C 17.10175 22 17.318797 21.802922 17.341797 21.544922 L 17.689453 18.71875 L 17.949219 21.533203 C 17.967219 21.793203 18.180406 21.997 18.441406 22 L 18.447266 22 C 18.705266 22 18.921312 21.804875 18.945312 21.546875 L 19.404297 16.636719 L 19.701172 18.798828 C 19.731172 19.020828 19.905953 19.195562 20.126953 19.226562 C 20.353953 19.253563 20.565297 19.136641 20.654297 18.931641 L 21.498047 17 L 24 17 L 24 16 L 21.171875 16 C 20.972875 16 20.794844 16.118781 20.714844 16.300781 L 20.451172 16.902344 L 19.804688 12.201172 C 19.770688 11.949172 19.547828 11.779531 19.298828 11.769531 C 19.044828 11.775531 18.8365 11.971609 18.8125 12.224609 L 18.527344 14 L 18.259766 11.3125 C 18.241766 11.0525 18.028578 10.848703 17.767578 10.845703 C 17.512578 10.834703 17.287672 11.040781 17.263672 11.300781 L 16.945312 13 L 16.626953 9.4707031 C 16.610953 9.2067031 16.393906 9.001 16.128906 9 L 16.126953 9 z M 15 14 L 17 14 L 17 15 L 18 15 L 18 17 L 17 17 L 17 18 L 15 18 L 15 17 L 14 17 L 14 15 L 15 15 L 15 14 z"/></svg>