<svg xmlns="http://www.w3.org/2000/svg" viewBox="0 0 32 32"><path d="M 16 3 C 8.832 3 3 8.832 3 16 C 3 23.168 8.832 29 16 29 C 23.168 29 29 23.168 29 16 C 29 8.832 23.168 3 16 3 z M 16 5 C 22.065 5 27 9.935 27 16 C 27 22.065 22.065 27 16 27 C 9.935 27 5 22.065 5 16 C 5 9.935 9.935 5 16 5 z M 14.498047 9 L 11 10.328125 L 11 13.953125 L 11.064453 13.978516 L 10.998047 14 L 8 15.138672 L 8 18.515625 L 11.001953 20 L 14 18.589844 L 14 18.591797 L 20.501953 21.007812 L 24 19.677734 L 24 16.054688 L 21 14.939453 L 21 11.417969 L 14.498047 9 z M 19.714844 15.527344 L 22.080078 16.40625 L 20.498047 17.007812 L 18.134766 16.128906 L 19.714844 15.527344 z M 15 16.027344 L 20 17.888672 L 20 19.753906 L 15 17.896484 L 15 16.027344 z M 23 17.126953 L 23 18.988281 L 21 19.748047 L 21 17.886719 L 23 17.126953 z"/></svg>