<svg xmlns="http://www.w3.org/2000/svg" viewBox="0 0 32 32"><path d="M 16 3 C 8.832 3 3 8.832 3 16 C 3 23.168 8.832 29 16 29 C 23.168 29 29 23.168 29 16 C 29 8.832 23.168 3 16 3 z M 16 5 C 22.065 5 27 9.935 27 16 C 27 17.238499 26.78347 18.425251 26.404297 19.537109 L 17 15.349609 L 17 14 L 14.28125 14 C 14.39825 13.617 14.54275 13.273 14.71875 13 C 15.15975 12.316 15.66775 12 16.46875 12 C 17.20275 12 17.62825 12.3045 18.28125 13.0625 L 19.8125 11.75 C 19.0035 10.816 17.90575 10 16.46875 10 C 15.00775 10 13.7885 10.78125 13.0625 11.90625 C 12.790148 12.328912 12.592151 12.811655 12.427734 13.314453 L 6.4082031 10.634766 C 8.2938562 7.2776415 11.88351 5 16 5 z M 5.5957031 12.462891 L 11 14.869141 L 11 15.5 L 12.03125 15.5 C 12.02325 15.668 12 15.832 12 16 C 12 16.168 12.02325 16.332 12.03125 16.5 L 11 16.5 L 11 18 L 12.21875 18 C 12.39075 18.762 12.6675 19.47975 13.0625 20.09375 C 13.7885 21.21875 15.00775 22 16.46875 22 C 17.83975 22 18.9765 21.30875 19.8125 20.34375 L 18.28125 19.03125 C 17.65525 19.75425 17.26975 20 16.46875 20 C 15.66775 20 15.15975 19.684 14.71875 19 C 14.54275 18.727 14.39925 18.383 14.28125 18 L 17 18 L 17 17.541016 L 25.591797 21.365234 C 23.706144 24.722359 20.11649 27 16 27 C 9.935 27 5 22.065 5 16 C 5 14.761501 5.2165305 13.574749 5.5957031 12.462891 z"/></svg>