<svg xmlns="http://www.w3.org/2000/svg" viewBox="0 0 32 32"><path d="M 19.46875 4 C 19.3125 3.988281 19.152344 4.007813 19 4.03125 C 18.386719 4.132813 17.832031 4.523438 17.53125 5.125 L 17.03125 6.0625 L 17.03125 6.09375 C 16.773438 6.628906 16.796875 7.25 17.03125 7.78125 L 15.96875 8.84375 C 14.558594 10.253906 13.578125 12.003906 13.09375 13.9375 L 12.375 16.78125 L 11.125 18 L 11.84375 18.71875 L 7.3125 23.28125 L 6.4375 23.40625 L 5 24.84375 L 7.15625 27 L 8.59375 25.5625 L 8.71875 24.6875 L 13.28125 20.15625 L 14 20.875 L 15.21875 19.625 L 18.0625 18.90625 C 19.996094 18.421875 21.746094 17.441406 23.15625 16.03125 L 24.21875 14.96875 C 24.75 15.191406 25.367188 15.199219 25.90625 14.9375 L 25.9375 14.9375 L 26.875 14.46875 C 28.082031 13.867188 28.359375 12.203125 27.40625 11.25 L 27.375 11.1875 L 20.9375 4.78125 L 20.75 4.59375 C 20.390625 4.234375 19.933594 4.03125 19.46875 4 Z M 19.3125 6 C 19.316406 6.003906 19.335938 5.992188 19.34375 6 L 26 12.65625 C 26.007813 12.664063 25.996094 12.683594 26 12.6875 L 25.03125 13.15625 C 25.023438 13.160156 25.007813 13.164063 25 13.15625 L 18.84375 7 C 18.835938 6.992188 18.839844 6.980469 18.84375 6.96875 Z M 18.3125 9.3125 L 22.6875 13.6875 L 21.75 14.59375 C 21.570313 14.773438 21.378906 14.929688 21.1875 15.09375 L 16.90625 10.8125 C 17.070313 10.621094 17.226563 10.429688 17.40625 10.25 Z M 15.78125 12.53125 L 19.46875 16.21875 C 18.859375 16.53125 18.230469 16.800781 17.5625 16.96875 L 16.09375 17.34375 L 16.71875 16.71875 L 15.28125 15.28125 L 14.65625 15.90625 L 15.03125 14.4375 C 15.199219 13.769531 15.46875 13.140625 15.78125 12.53125 Z"/></svg>