<svg xmlns="http://www.w3.org/2000/svg" viewBox="0 0 32 32"><path d="M 12.912109 5.0019531 C 12.603359 4.9923281 12.282844 5.0142187 11.964844 5.0742188 C 10.856844 5.2842187 10.420922 5.7308281 10.044922 6.0488281 C 10.023922 5.7958281 10.091828 5.5420625 10.173828 5.2890625 C 9.1958281 5.9850625 8.59875 6.9225156 8.34375 8.1035156 C 8.21375 7.7985156 8.1751094 7.4937812 8.1621094 7.1757812 C 7.6991094 7.7947813 7.5872812 8.5070937 7.6132812 9.2460938 C 7.6432813 10.144094 7.8894531 10.964188 8.5644531 11.617188 C 8.3694531 10.818187 8.4906094 10.057969 8.8496094 9.2929688 C 9.1606094 10.319969 9.77675 11.062156 10.71875 11.535156 C 10.72375 11.509156 10.726562 11.501281 10.726562 11.488281 C 10.726563 11.466281 10.726656 11.440922 10.722656 11.419922 C 10.631656 10.818922 10.683078 10.221813 10.830078 9.6328125 C 10.847078 9.5808125 10.839078 9.5208437 10.830078 9.4648438 C 10.692078 8.7688437 10.809734 8.1287969 11.302734 7.5917969 C 11.920734 6.9217969 12.990187 6.9094062 13.617188 7.5664062 C 13.920188 7.8804062 14.058422 8.2704062 14.107422 8.6914062 C 14.184422 9.3704063 14.032828 10.000078 13.673828 10.580078 C 13.634828 10.640078 13.629734 10.684328 13.677734 10.736328 C 14.136734 11.260328 13.445875 10.59075 15.296875 12.34375 C 15.378875 12.42175 15.459875 12.501984 15.546875 12.583984 C 15.922875 12.123984 16.216406 11.609172 16.441406 11.076172 C 16.830406 10.156172 17.029781 9.2146563 16.800781 8.2226562 C 16.424781 6.5906563 15.450156 5.5171875 13.785156 5.1171875 C 13.517156 5.0526875 13.220859 5.0115781 12.912109 5.0019531 z M 11.458984 9.0722656 C 11.384984 9.1582656 11.320156 9.2544219 11.285156 9.3574219 C 11.211156 9.5894219 11.134797 9.8206406 11.091797 10.056641 C 10.991797 10.593641 10.978094 11.134875 11.121094 11.671875 C 11.147094 11.757875 11.189578 11.813234 11.267578 11.865234 C 11.683578 12.140234 12.030094 12.484453 12.246094 12.939453 C 12.280094 13.021453 12.306797 13.107266 12.341797 13.197266 C 12.199797 13.034266 12.072781 12.870516 11.925781 12.728516 C 11.449781 12.273516 10.75825 11.998641 9.90625 11.431641 C 9.47825 11.144641 9.1137656 10.79225 8.8847656 10.28125 C 8.7327656 10.88325 8.7985625 11.419359 9.1015625 11.943359 C 8.5395625 11.793359 7.9816719 11.764156 7.3886719 11.785156 C 7.7736719 12.030156 8.11475 12.304219 8.34375 12.699219 C 8.50775 12.987219 8.4738438 13.146844 8.2148438 13.339844 C 7.4748437 13.846844 6.6009687 14.143297 5.9179688 14.779297 C 5.9689687 14.792297 6.0039688 14.783297 6.0429688 14.779297 C 6.3759688 14.727297 6.7087813 14.683656 7.0507812 14.722656 C 7.5177813 14.773656 7.8373437 15.019828 7.9023438 15.423828 C 7.9333437 15.612828 7.9244375 15.814813 7.8984375 16.007812 C 7.8724375 16.213813 7.8038594 16.415094 7.7558594 16.621094 C 8.5518594 15.938094 9.4250781 15.392797 10.455078 15.091797 C 10.121078 15.031797 9.7931719 14.972109 9.4511719 14.912109 C 10.407172 13.859109 12.263281 13.876672 12.488281 14.013672 C 11.783281 14.073672 11.108562 14.240625 10.476562 14.640625 C 11.155563 14.795625 10.883016 14.727109 11.541016 14.912109 C 10.875016 15.251109 10.398859 15.724531 10.130859 16.394531 C 10.480859 16.192531 10.857953 16.124203 11.251953 16.158203 C 12.176953 16.239203 12.708031 16.965094 12.332031 17.871094 C 12.237031 18.099094 12.093625 18.289547 11.890625 18.435547 L 11.904297 18.474609 C 12.177297 18.440609 12.453375 18.405094 12.734375 18.371094 C 12.595375 18.698094 12.349875 18.938625 12.046875 19.140625 C 12.734875 19.205625 13.903719 18.53825 14.011719 18.03125 C 13.743719 18.05225 13.345031 18.15675 13.332031 17.71875 C 13.328031 17.61575 13.319125 17.700641 13.453125 16.931641 C 13.409125 16.965641 13.362547 17.009828 13.310547 17.048828 C 12.999547 17.263828 12.826203 16.915719 12.908203 16.636719 C 12.986203 16.370719 13.071203 16.103219 13.158203 15.824219 C 12.846203 15.725219 12.497578 15.698641 12.142578 15.681641 C 12.358578 15.565641 13.565578 15.286375 14.642578 15.484375 C 15.070578 15.561375 14.822141 16.058312 14.619141 16.445312 C 15.056141 16.479312 15.317328 16.479156 15.611328 16.535156 C 16.541328 16.720156 16.341219 17.533562 16.324219 17.726562 C 17.107219 17.365563 17.683953 16.071125 17.501953 15.203125 C 17.333953 15.482125 17.125969 15.714172 16.792969 15.826172 C 16.805969 15.508172 16.641047 15.324891 16.373047 15.212891 C 16.347047 15.199891 16.320219 15.152953 16.324219 15.126953 C 16.393219 14.670953 16.286125 14.255469 16.078125 13.855469 C 15.806125 13.322469 15.403703 12.900094 14.970703 12.496094 C 13.719703 11.327094 13.045891 10.761531 12.837891 9.7695312 C 12.802891 9.6105312 12.799344 9.4514844 12.777344 9.2714844 C 12.743344 9.3274844 12.717313 9.3691094 12.695312 9.4121094 C 12.509312 9.8241094 12.457766 10.263938 12.509766 10.710938 C 12.531766 10.890938 12.587469 11.048734 12.730469 11.177734 C 13.154469 11.564734 13.577188 11.955469 13.992188 12.355469 C 14.425187 12.772469 14.823063 13.248641 15.039062 13.806641 C 14.970062 13.746641 14.924953 13.674469 14.876953 13.605469 C 14.565953 13.171469 14.162437 12.818125 13.773438 12.453125 C 13.276437 11.989125 12.773641 11.533828 12.306641 11.048828 C 11.458641 10.168828 11.484984 9.3682656 11.458984 9.0722656 z M 23.310547 12.587891 C 23.284547 12.587891 23.258516 12.597563 23.228516 12.601562 C 22.393516 12.743562 21.900281 13.267047 21.113281 13.873047 C 20.663281 14.221047 20.517703 14.035563 20.595703 13.851562 C 20.656703 13.701562 20.738406 13.563875 20.816406 13.421875 C 20.859406 13.344875 20.914797 13.276125 20.966797 13.203125 C 20.957797 13.194125 20.9455 13.189641 20.9375 13.181641 C 19.7695 13.967641 18.917406 15.003078 18.441406 16.330078 C 18.454406 16.343078 18.471375 16.356141 18.484375 16.369141 C 18.497375 16.343141 18.506437 16.317875 18.523438 16.296875 C 18.973437 15.776875 19.508469 15.360578 20.105469 15.017578 C 20.892469 14.562578 21.727531 14.230438 22.644531 14.148438 C 22.830531 14.131438 23.021891 14.144531 23.212891 14.144531 C 23.134891 14.174531 23.060422 14.183406 22.982422 14.191406 C 22.182422 14.294406 21.447859 14.578328 20.755859 14.986328 C 19.449859 15.755328 18.396859 16.800719 17.505859 18.011719 C 17.492859 18.028719 17.489563 18.049406 17.476562 18.066406 C 18.103562 18.294406 18.513109 18.810969 19.037109 19.167969 C 19.046109 19.163969 19.050688 19.158391 19.054688 19.150391 L 19.107422 19.033203 C 19.635422 17.877203 20.274953 16.786031 21.126953 15.832031 C 21.848953 15.024031 22.770078 14.746609 23.830078 14.974609 C 24.085078 15.030609 24.323219 15.162625 24.574219 15.265625 C 24.673219 15.205625 24.796875 15.129453 24.921875 15.064453 C 25.284875 14.879453 25.674172 14.763734 26.076172 14.677734 C 26.712172 14.544734 27.352953 14.466094 28.001953 14.621094 L 28.001953 14.599609 C 27.978953 14.580609 27.947781 14.563109 27.925781 14.537109 C 27.423781 14.039109 26.845406 13.661531 26.191406 13.394531 C 25.637406 13.171531 25.065844 13.055844 24.464844 13.089844 C 24.031844 13.115844 23.616937 13.223234 23.210938 13.365234 C 23.102937 13.404234 22.990906 13.434937 22.878906 13.460938 C 22.666906 13.512937 22.562781 13.326969 22.675781 13.167969 C 22.813781 12.969969 22.822219 12.988344 23.324219 12.652344 C 23.350219 12.635344 23.376922 12.617891 23.419922 12.587891 L 23.310547 12.587891 z M 13.898438 13.851562 C 14.404437 14.057562 14.728734 14.409531 14.927734 14.894531 C 14.442734 14.946531 14.041438 14.538562 13.898438 13.851562 z M 7.4277344 15.228516 C 6.3807344 16.287516 5.502 17.450375 5 18.859375 C 5.32 18.606375 5.6454844 18.370063 6.0214844 18.164062 C 5.6624844 19.122062 5.1725938 20.432813 5.6835938 22.507812 C 5.8825937 23.323812 6.1985625 24.087906 6.7265625 24.753906 C 6.8515625 24.912906 7.0006719 25.049313 7.1386719 25.195312 C 7.1476719 25.186312 7.1550625 25.183781 7.1640625 25.175781 C 7.1030625 24.874781 7.0696094 24.569375 7.0996094 24.234375 C 7.1946094 24.371375 7.2675156 24.492516 7.3535156 24.603516 C 7.8985156 25.290516 8.5954844 25.780813 9.3964844 26.132812 C 10.477484 26.617812 11.605625 26.703953 12.765625 26.501953 C 15.140625 26.084953 16.688203 24.412859 17.783203 22.255859 C 17.825203 22.180859 17.809141 22.134125 17.744141 22.078125 C 16.040141 20.660125 16.757484 21.239828 15.896484 20.548828 C 15.861484 20.587828 15.896453 20.539734 15.814453 20.677734 C 15.330453 21.498734 14.712109 22.194656 13.912109 22.722656 C 13.466109 23.014656 12.9825 23.230469 12.4375 23.230469 C 11.5035 23.230469 10.785781 22.821156 10.300781 22.035156 C 9.7817812 21.197156 9.7253125 20.287656 9.9453125 19.347656 C 10.282312 17.895656 11.247234 16.976937 11.615234 16.585938 C 10.806234 16.319938 10.187422 16.657641 9.6074219 17.181641 C 9.6424219 16.584641 9.7931875 16.056078 10.117188 15.580078 C 9.0661875 16.035078 8.1314531 16.654797 7.3144531 17.466797 C 7.3014531 17.217797 7.5486406 15.589875 7.5566406 15.546875 C 7.5696406 15.430875 7.5317344 15.318516 7.4277344 15.228516 z M 13.744141 15.960938 C 13.528141 16.433937 13.675547 16.923094 14.060547 17.246094 C 14.255547 17.409094 14.463203 17.559562 14.658203 17.726562 C 14.857203 17.889563 14.978 18.101281 15 18.363281 C 15.017 18.565281 15.035125 18.77075 15.078125 18.96875 C 15.173125 19.42375 15.4625 19.758875 15.8125 20.046875 C 16.5265 20.635875 17.239125 21.2195 17.953125 21.8125 C 18.727125 22.4565 18.554625 23.22175 18.515625 24.21875 C 18.476625 25.20275 19.043844 26.062922 19.964844 26.419922 C 20.007844 26.436922 20.052094 26.445797 20.121094 26.466797 C 19.442094 25.684797 19.683391 24.57075 20.150391 24.21875 C 20.163391 24.31375 20.167453 24.404141 20.189453 24.494141 C 20.596453 26.389141 22.154188 27.2515 23.867188 26.9375 C 24.559188 26.8125 25.190656 26.556891 25.722656 26.087891 C 25.809656 26.010891 25.883516 25.911594 25.978516 25.808594 C 25.143516 26.006594 24.428391 25.812516 23.775391 25.353516 C 23.805391 25.340516 23.831422 25.339844 23.857422 25.339844 C 24.778422 25.416844 25.614219 25.193797 26.324219 24.591797 C 27.168219 23.878797 27.474172 22.749812 27.076172 21.757812 C 26.719172 20.892812 26.057594 20.368937 25.183594 20.085938 C 24.772594 19.952938 24.224359 19.905938 23.943359 19.960938 C 24.371359 20.132938 24.552859 20.244563 24.755859 20.476562 C 25.300859 21.095562 25.205484 21.967547 24.521484 22.435547 C 24.015484 22.783547 23.445844 22.886172 22.839844 22.826172 C 22.787844 22.822172 22.739984 22.809781 22.708984 22.800781 C 22.829984 22.641781 22.968594 22.498937 23.058594 22.335938 C 23.465594 21.613937 23.293594 20.526781 22.683594 19.925781 C 22.592594 19.835781 22.484859 19.758828 22.380859 19.673828 C 22.367859 19.729828 22.376766 19.762969 22.384766 19.792969 C 22.566766 20.505969 22.033547 21.184203 21.310547 21.158203 C 20.981547 21.145203 20.709891 20.996922 20.462891 20.794922 C 19.618891 20.102922 18.771641 19.41475 17.931641 18.71875 C 17.676641 18.50775 17.3905 18.371703 17.0625 18.345703 C 16.8635 18.328703 16.661891 18.319641 16.462891 18.306641 C 16.207891 18.289641 16.080719 18.186313 16.011719 17.945312 C 15.972719 17.799312 15.947969 17.653812 15.917969 17.507812 C 15.852969 17.159813 15.649828 16.948484 15.298828 16.896484 C 15.108828 16.866484 14.912656 16.853031 14.722656 16.832031 C 14.160656 16.772031 13.866141 16.514937 13.744141 15.960938 z"/></svg>