<svg xmlns="http://www.w3.org/2000/svg" viewBox="0 0 32 32"><path d="M 24.5 3 L 24.1875 3.28125 L 20.46875 7 L 11 7 C 8.25 7 6 9.25 6 12 L 6 22 C 6 24.75 8.25 27 11 27 L 21 27 C 23.75 27 26 24.75 26 22 L 26 3 Z M 24 6.3125 L 24 22 C 24 23.667969 22.667969 25 21 25 L 11 25 C 9.332031 25 8 23.667969 8 22 L 8 12 C 8 10.332031 9.332031 9 11 9 L 21.3125 9 Z M 13 12 C 11.90625 12 11 12.90625 11 14 L 11 20 C 11 21.09375 11.90625 22 13 22 L 23.40625 22 L 21.71875 20.28125 L 21 19.5625 L 21 14 C 21 12.90625 20.09375 12 19 12 Z M 13 14 L 19 14 L 19 20 L 13 20 Z"/></svg>