<svg xmlns="http://www.w3.org/2000/svg" viewBox="0 0 32 32"><path d="M 6.0488281 5 C 5.9550781 5.0075 5.8655469 5.055625 5.8105469 5.140625 C 5.3105469 5.900625 5.2198438 7.3892188 6.0898438 8.1992188 C 6.2298437 8.3292188 6.3907813 8.41 6.5507812 8.5 C 6.4607813 8.57 6.3590625 8.6307031 6.2890625 8.7207031 L 3.2597656 12.759766 C 2.9597656 13.149766 2.920625 13.679141 3.140625 14.119141 L 3.7207031 15.279297 C 3.9407031 15.719297 4.3908594 16 4.8808594 16 L 6.140625 16 C 6.490625 16 6.8105469 15.859141 7.0605469 15.619141 L 8.609375 14.210938 L 11 19 L 25 19 L 25 15.490234 C 25.66 15.980234 25.840469 16.380937 26.730469 17.710938 C 26.930469 18.010938 27.330859 18.090625 27.630859 17.890625 L 28.710938 17.169922 C 29.010938 16.969922 29.090625 16.569766 28.890625 16.259766 L 28.089844 15.070312 C 26.949844 13.350312 25.040703 12 22.970703 12 L 13.400391 12 L 9.9394531 8.5898438 C 10.939453 7.6298438 11.080703 6.0996875 10.470703 5.1796875 C 10.330703 4.9696875 10.029609 4.9391406 9.8496094 5.1191406 L 8.0898438 7.4394531 L 6.3105469 5.0996094 C 6.2405469 5.0246094 6.1425781 4.9925 6.0488281 5 z M 13.568359 14 C 13.636484 14 13.705188 14.034016 13.742188 14.103516 L 14.121094 14.880859 L 14.980469 15.009766 C 15.128469 15.028766 15.183266 15.221266 15.072266 15.322266 L 14.453125 15.933594 L 14.601562 16.783203 C 14.629563 16.940203 14.462984 17.050562 14.333984 16.976562 L 13.566406 16.580078 L 12.800781 16.976562 C 12.661781 17.050563 12.50325 16.940203 12.53125 16.783203 L 12.679688 15.933594 L 12.060547 15.322266 C 11.940547 15.220266 12.005109 15.027766 12.162109 15.009766 L 13.021484 14.880859 L 13.400391 14.103516 C 13.432891 14.034016 13.500234 14 13.568359 14 z M 17.951172 14 C 18.019297 14 18.089953 14.034016 18.126953 14.103516 L 18.505859 14.880859 L 19.363281 15.009766 C 19.510281 15.028766 19.575078 15.221266 19.455078 15.322266 L 18.837891 15.933594 L 18.984375 16.783203 C 19.012375 16.940203 18.855797 17.050562 18.716797 16.976562 L 17.949219 16.580078 L 17.183594 16.976562 C 17.054594 17.050563 16.886063 16.940203 16.914062 16.783203 L 17.0625 15.933594 L 16.443359 15.322266 C 16.332359 15.220266 16.389875 15.027766 16.546875 15.009766 L 17.404297 14.880859 L 17.783203 14.103516 C 17.815703 14.034016 17.883047 14 17.951172 14 z M 22.433594 14 C 22.501719 14 22.570422 14.034016 22.607422 14.103516 L 22.986328 14.880859 L 23.845703 15.009766 C 23.993703 15.028766 24.0575 15.221266 23.9375 15.322266 L 23.318359 15.933594 L 23.466797 16.783203 C 23.494797 16.940203 23.336266 17.050562 23.197266 16.976562 L 22.431641 16.580078 L 21.664062 16.976562 C 21.535062 17.050563 21.368484 16.940203 21.396484 16.783203 L 21.544922 15.933594 L 20.925781 15.322266 C 20.814781 15.220266 20.870344 15.027766 21.027344 15.009766 L 21.886719 14.880859 L 22.265625 14.103516 C 22.298125 14.034016 22.365469 14 22.433594 14 z M 11 21 L 11 26.349609 C 11 26.709609 11.290391 27 11.650391 27 L 14.349609 27 C 14.709609 27 15 26.709609 15 26.349609 L 15 23 L 21 23 L 21 26.349609 C 21 26.709609 21.290391 27 21.650391 27 L 24.349609 27 C 24.709609 27 25 26.709609 25 26.349609 L 25 21 L 11 21 z"/></svg>