<svg xmlns="http://www.w3.org/2000/svg" viewBox="0 0 32 32"><path d="M 16 8 C 7.664063 8 1.25 15.34375 1.25 15.34375 L 0.65625 16 L 1.25 16.65625 C 1.25 16.65625 7.097656 23.324219 14.875 23.9375 C 15.246094 23.984375 15.617188 24 16 24 C 16.382813 24 16.753906 23.984375 17.125 23.9375 C 24.902344 23.324219 30.75 16.65625 30.75 16.65625 L 31.34375 16 L 30.75 15.34375 C 30.75 15.34375 24.335938 8 16 8 Z M 16 10 C 18.203125 10 20.234375 10.601563 22 11.40625 C 22.636719 12.460938 23 13.675781 23 15 C 23 18.613281 20.289063 21.582031 16.78125 21.96875 C 16.761719 21.972656 16.738281 21.964844 16.71875 21.96875 C 16.480469 21.980469 16.242188 22 16 22 C 15.734375 22 15.476563 21.984375 15.21875 21.96875 C 11.710938 21.582031 9 18.613281 9 15 C 9 13.695313 9.351563 12.480469 9.96875 11.4375 L 9.9375 11.4375 C 11.71875 10.617188 13.773438 10 16 10 Z M 16 12 C 14.34375 12 13 13.34375 13 15 C 13 16.65625 14.34375 18 16 18 C 17.65625 18 19 16.65625 19 15 C 19 13.34375 17.65625 12 16 12 Z M 7.25 12.9375 C 7.09375 13.609375 7 14.285156 7 15 C 7 16.753906 7.5 18.394531 8.375 19.78125 C 5.855469 18.324219 4.105469 16.585938 3.53125 16 C 4.011719 15.507813 5.351563 14.203125 7.25 12.9375 Z M 24.75 12.9375 C 26.648438 14.203125 27.988281 15.507813 28.46875 16 C 27.894531 16.585938 26.144531 18.324219 23.625 19.78125 C 24.5 18.394531 25 16.753906 25 15 C 25 14.285156 24.90625 13.601563 24.75 12.9375 Z"/></svg>