<svg xmlns="http://www.w3.org/2000/svg" viewBox="0 0 32 32"><path d="M 16 4 C 9.3844276 4 4 9.3844276 4 16 C 4 22.615572 9.3844276 28 16 28 C 22.615572 28 28 22.615572 28 16 C 28 9.3844276 22.615572 4 16 4 z M 16 6 C 21.534692 6 26 10.465308 26 16 C 26 21.027386 22.311682 25.161277 17.488281 25.878906 L 17.488281 18.916016 L 20.335938 18.916016 L 20.783203 16.023438 L 17.488281 16.023438 L 17.488281 14.443359 C 17.488281 13.242359 17.882859 12.175781 19.005859 12.175781 L 20.810547 12.175781 L 20.810547 9.6523438 C 20.493547 9.6093438 19.822688 9.515625 18.554688 9.515625 C 15.906688 9.515625 14.355469 10.913609 14.355469 14.099609 L 14.355469 16.023438 L 11.632812 16.023438 L 11.632812 18.916016 L 14.355469 18.916016 L 14.355469 25.853516 C 9.6088556 25.070647 6 20.973047 6 16 C 6 10.465308 10.465308 6 16 6 z"/></svg>