<svg xmlns="http://www.w3.org/2000/svg" viewBox="0 0 32 32"><path d="M 6 3 L 6 29 L 26 29 L 26 9.5996094 L 25.699219 9.3007812 L 19.699219 3.3007812 L 19.400391 3 L 6 3 z M 8 5 L 18 5 L 18 11 L 24 11 L 24 27 L 8 27 L 8 5 z M 20 6.4003906 L 22.599609 9 L 20 9 L 20 6.4003906 z M 10 9 L 10 11 L 16 11 L 16 9 L 10 9 z M 10 13 L 10 15 L 22 15 L 22 13 L 10 13 z M 13.5 16 C 12.6 16 11.9 16.600781 11.5 17.300781 C 11.1 18.000781 11 18.900391 11 19.900391 C 11 20.500391 11.200781 21.099219 11.300781 21.699219 C 10.900781 21.799219 10.5 22.099609 10 22.099609 L 10 24.099609 C 10.7 24.099609 11.4 24.000781 12 23.800781 C 12.1 24.000781 12.100781 24.100781 12.300781 24.300781 C 12.700781 24.700781 13.3 25 14 25 C 15.6 25 16.600781 23.899609 17.300781 23.099609 C 17.400781 22.899609 17.499609 22.799219 17.599609 22.699219 C 17.599609 22.799219 17.599219 22.9 17.699219 23 C 17.799219 23.2 17.899609 23.399609 18.099609 23.599609 C 18.299609 23.799609 18.7 24 19 24 C 19.6 24 19.999219 23.600391 20.199219 23.400391 C 20.399219 23.200391 20.600781 22.899219 20.800781 22.699219 C 21.200781 22.299219 21.500391 22 21.900391 22 L 21.900391 20 C 20.700391 20 19.800781 20.700781 19.300781 21.300781 C 19.300781 21.200781 19.299219 21.1 19.199219 21 C 19.099219 20.8 19.000781 20.600781 18.800781 20.300781 C 18.600781 20.000781 18.3 20 18 20 C 17.2 20 16.899609 20.500781 16.599609 20.800781 C 16.299609 21.100781 16.000781 21.500391 15.800781 21.900391 C 15.200781 22.600391 14.8 23 14 23 C 13.9 23 13.900781 22.900391 13.800781 22.900391 C 13.900781 22.900391 13.9 22.800781 14 22.800781 C 15.1 21.900781 16 20.699609 16 19.099609 C 16 18.299609 15.800391 17.6 15.400391 17 C 15.000391 16.4 14.3 16 13.5 16 z M 13.400391 18 C 13.700391 18 13.700781 17.999219 13.800781 18.199219 C 13.900781 18.399219 14 18.699219 14 19.199219 C 14 19.799219 13.699219 20.400391 13.199219 20.900391 C 13.199219 20.600391 13 20.2 13 20 C 13 19.2 13.100781 18.600781 13.300781 18.300781 C 13.400781 18.100781 13.400391 18 13.400391 18 z"/></svg>