<svg xmlns="http://www.w3.org/2000/svg" viewBox="0 0 32 32"><path d="M 10.5 6 L 11.0625 7.375 C 11.414063 8.230469 11.890625 10.367188 11.78125 11.375 C 10.417969 12.214844 9.582031 13.035156 8.9375 13.71875 C 8.148438 13.082031 6.589844 12 4 12 L 3 12 L 3 13 C 3 14.914063 3.691406 16.46875 3.9375 17 C 3.6875 17.527344 3 19.027344 3 21 L 3 22 L 4 22 C 6.570313 22 8.148438 20.914063 8.9375 20.28125 C 10.121094 21.5 11.808594 22.785156 13.9375 23.75 C 13.84375 24.371094 13.769531 25.238281 14.03125 26.25 L 14.21875 27 L 15 27 C 16.234375 27 17.296875 26.386719 18.15625 25.84375 C 18.859375 25.398438 19.199219 25.085938 19.375 24.9375 C 23.351563 24.796875 25.890625 22.652344 27.25 20.53125 C 28.65625 18.339844 29 16.15625 29 16.15625 L 29.03125 15.90625 L 28.9375 15.65625 C 28.9375 15.65625 26.648438 9.367188 20.4375 9.0625 C 19.777344 8.261719 18.855469 7.597656 17.5625 7.0625 C 16.035156 6.429688 14.113281 6 12 6 Z M 13.40625 8.125 C 14.667969 8.265625 15.847656 8.519531 16.78125 8.90625 C 18.058594 9.433594 18.949219 10.191406 19.15625 10.53125 L 19.4375 11 L 20 11 C 24.996094 11 26.792969 15.730469 26.9375 16.125 C 26.867188 16.492188 26.578125 17.886719 25.5625 19.46875 C 24.402344 21.277344 22.523438 23 19 23 L 18.625 23 L 18.34375 23.25 C 18.34375 23.25 17.816406 23.699219 17.09375 24.15625 C 16.714844 24.394531 16.390625 24.4375 16 24.59375 C 16.039063 24.136719 16 23.46875 16 23.46875 L 16.21875 22.59375 L 15.40625 22.3125 C 12.929688 21.367188 10.824219 19.585938 9.75 18.34375 L 9.0625 17.53125 L 8.3125 18.28125 C 8.3125 18.28125 6.980469 19.214844 5.25 19.65625 C 5.507813 18.484375 5.90625 17.4375 5.90625 17.4375 L 6.125 17 L 5.90625 16.5625 C 5.90625 16.5625 5.472656 15.414063 5.21875 14.1875 C 7.0625 14.59375 8.3125 15.71875 8.3125 15.71875 L 9.0625 16.46875 L 9.75 15.65625 C 10.644531 14.644531 13.054688 12.125 16.59375 11.65625 L 16.3125 9.6875 C 15.355469 9.8125 14.519531 10.089844 13.71875 10.40625 C 13.667969 9.566406 13.625 8.84375 13.40625 8.125 Z M 22.5 15 C 21.671875 15 21 15.671875 21 16.5 C 21 17.328125 21.671875 18 22.5 18 C 23.328125 18 24 17.328125 24 16.5 C 24 15.671875 23.328125 15 22.5 15 Z"/></svg>