<svg xmlns="http://www.w3.org/2000/svg" viewBox="0 0 32 32"><path d="M 16 6 C 14.9375 6 14.003906 6.5625 13.46875 7.40625 C 13.03125 7.15625 12.535156 7 12 7 C 10.355469 7 9 8.355469 9 10 L 9 13.65625 L 8.875 13.8125 C 8.800781 13.898438 8.730469 13.976563 8.65625 14.0625 C 8.144531 14.660156 7.65625 15.292969 7.21875 15.9375 L 6.90625 16.34375 C 6.480469 16.894531 6.21875 17.535156 6.09375 18.1875 C 6.078125 18.261719 6.042969 18.332031 6.03125 18.40625 C 5.855469 19.652344 6.226563 20.949219 7.09375 21.9375 L 9.46875 24.625 C 10.796875 26.136719 12.707031 27 14.71875 27 L 20 27 C 23.855469 27 27 23.855469 27 20 L 27 11 C 27 9.355469 25.644531 8 24 8 C 23.464844 8 22.96875 8.15625 22.53125 8.40625 C 21.996094 7.5625 21.0625 7 20 7 C 19.464844 7 18.96875 7.15625 18.53125 7.40625 C 17.996094 6.5625 17.0625 6 16 6 Z M 16 8 C 16.566406 8 17 8.433594 17 9 L 17 11.1875 C 16.683594 11.074219 16.351563 11 16 11 L 15 11 L 15 9 C 15 8.433594 15.433594 8 16 8 Z M 12 9 C 12.566406 9 13 9.433594 13 10 L 13 11 L 11.59375 11 L 11.3125 11.28125 C 11.3125 11.28125 11.085938 11.511719 11 11.59375 L 11 10 C 11 9.433594 11.433594 9 12 9 Z M 20 9 C 20.566406 9 21 9.433594 21 10 L 21 13 C 21 13.566406 20.566406 14 20 14 C 19.433594 14 19 13.566406 19 13 L 19 10 C 19 9.433594 19.433594 9 20 9 Z M 24 10 C 24.566406 10 25 10.433594 25 11 L 25 13 C 25 13.566406 24.566406 14 24 14 C 23.433594 14 23 13.566406 23 13 L 23 11 C 23 10.433594 23.433594 10 24 10 Z M 12.4375 13 L 16 13 C 16.5625 13 17 13.4375 17 14 C 17 14.5625 16.5625 15 16 15 L 12.875 15 L 12.59375 15.375 L 10.25 18.34375 L 11.8125 19.59375 L 13.65625 17.28125 C 14.015625 17.449219 14.425781 17.699219 14.875 18.0625 C 15.941406 18.929688 17 20.347656 17 23 L 19 23 C 19 20.132813 17.855469 18.15625 16.59375 16.9375 C 17.402344 16.769531 18.101563 16.273438 18.53125 15.59375 C 18.96875 15.84375 19.464844 16 20 16 C 20.765625 16 21.46875 15.699219 22 15.21875 C 22.53125 15.699219 23.234375 16 24 16 C 24.351563 16 24.683594 15.925781 25 15.8125 L 25 20 C 25 22.773438 22.773438 25 20 25 L 14.71875 25 C 13.28125 25 11.917969 24.394531 10.96875 23.3125 L 8.59375 20.59375 C 8.164063 20.105469 7.964844 19.507813 8 18.90625 C 8 18.898438 8.027344 18.832031 8.03125 18.8125 C 8.035156 18.78125 8.027344 18.75 8.03125 18.71875 C 8.078125 18.5 8.230469 18.078125 8.5625 17.53125 C 8.605469 17.460938 8.671875 17.382813 8.71875 17.3125 L 10.1875 15.375 C 11.292969 14.082031 12.214844 13.210938 12.4375 13 Z"/></svg>