<svg xmlns="http://www.w3.org/2000/svg" viewBox="0 0 32 32"><path d="M 18.683594 15.40625 C 18.683594 13.429688 21.894531 13.257813 21.894531 9.394531 C 21.894531 6.597656 19.949219 5.257813 19.75 5.136719 L 21.6875 5.136719 L 23.625 4 L 17.347656 4 C 10.960938 4 9.9375 8.46875 9.9375 9.949219 C 9.9375 12.15625 11.664063 14.898438 15.136719 14.898438 C 15.453125 14.898438 15.789063 14.878906 16.144531 14.839844 C 16.085938 15.003906 15.835938 15.566406 15.835938 16.074219 C 15.835938 17.136719 16.515625 17.8125 16.75 18.222656 C 12.949219 18.1875 8.375 19.835938 8.375 23.503906 C 8.375 24.84375 9.527344 28 14.941406 28 C 21.117188 28 22.988281 24.1875 22.988281 22.050781 C 22.984375 17.96875 18.683594 17.292969 18.683594 15.40625 Z M 16.585938 14.042969 C 14.425781 14.042969 12.601563 11.324219 12.601563 8.417969 C 12.601563 7.554688 13.015625 5.046875 15.40625 5.046875 C 18.484375 5.046875 19.234375 9.609375 19.234375 10.851563 C 19.234375 11.140625 19.4375 14.042969 16.585938 14.042969 Z M 16.4375 26.679688 C 14.457031 26.679688 11.039063 25.835938 11.039063 22.835938 C 11.039063 21.796875 11.644531 19.082031 16.902344 19.082031 C 17.171875 19.082031 17.40625 19.09375 17.605469 19.113281 C 18.699219 19.929688 20.964844 21.109375 20.964844 23.28125 C 20.964844 24.265625 20.378906 26.679688 16.4375 26.679688 Z"/></svg>