<svg xmlns="http://www.w3.org/2000/svg" viewBox="0 0 32 32"><path d="M 15 2 C 13.355469 2 12 3.355469 12 5 L 12 6.53125 L 11.875 6.125 C 11.398438 4.550781 9.699219 3.648438 8.125 4.125 C 6.550781 4.601563 5.648438 6.300781 6.125 7.875 L 8.71875 16.3125 C 8.53125 16.386719 8.328125 16.472656 8.125 16.59375 C 7.289063 17.09375 6.34375 18.105469 6.0625 19.71875 C 5.851563 20.914063 6.082031 21.964844 6.25 22.53125 C 6.25 22.542969 6.25 22.550781 6.25 22.5625 L 7.03125 25.0625 C 7.933594 27.996094 10.652344 30 13.71875 30 L 19 30 C 22.855469 30 26 26.855469 26 23 L 26 13.09375 C 26 13.050781 26 13.011719 26 12.96875 C 26 12.949219 26 12.925781 26 12.90625 C 26 12.894531 26 12.886719 26 12.875 C 25.992188 12.84375 25.980469 12.8125 25.96875 12.78125 C 25.878906 11.679688 25.210938 10.652344 24.125 10.21875 C 23.371094 9.917969 22.578125 9.960938 21.875 10.25 C 21.550781 9.636719 21.027344 9.117188 20.34375 8.84375 C 19.558594 8.53125 18.722656 8.582031 18 8.90625 L 18 5 C 18 3.355469 16.644531 2 15 2 Z M 15 4 C 15.566406 4 16 4.433594 16 5 L 16 11.59375 L 14.96875 14.21875 C 14.820313 14.589844 14.75 14.992188 14.75 15.375 L 10.65625 15.90625 L 8.0625 7.28125 C 7.898438 6.742188 8.179688 6.195313 8.71875 6.03125 C 9.257813 5.867188 9.804688 6.179688 9.96875 6.71875 L 12.03125 13.5625 L 13.15625 13.21875 L 14 13.21875 L 14 5 C 14 4.433594 14.433594 4 15 4 Z M 19.1875 10.625 C 19.316406 10.621094 19.464844 10.636719 19.59375 10.6875 C 20.117188 10.898438 20.367188 11.476563 20.15625 12 L 19.09375 14.65625 L 19.09375 14.6875 L 18.6875 15.71875 C 18.667969 15.773438 18.621094 15.796875 18.59375 15.84375 C 18.085938 15.449219 17.445313 15.195313 16.78125 15.1875 C 16.792969 15.113281 16.78125 15.042969 16.8125 14.96875 L 18.3125 11.25 C 18.46875 10.855469 18.800781 10.632813 19.1875 10.625 Z M 22.96875 12 C 23.101563 12 23.242188 12.011719 23.375 12.0625 C 23.769531 12.21875 23.992188 12.574219 24 12.96875 C 24 12.980469 24 12.988281 24 13 C 24 13.121094 23.984375 13.253906 23.9375 13.375 L 22.8125 16.15625 C 22.601563 16.679688 22.023438 16.929688 21.5 16.71875 C 20.976563 16.507813 20.757813 15.929688 20.96875 15.40625 L 22.03125 12.75 C 22.046875 12.710938 22.046875 12.664063 22.0625 12.625 C 22.167969 12.363281 22.359375 12.164063 22.59375 12.0625 C 22.710938 12.011719 22.835938 12 22.96875 12 Z M 16.5 17.15625 C 17.027344 17.03125 17.53125 17.347656 17.65625 17.875 C 17.734375 18.199219 17.691406 18.363281 17.59375 18.53125 C 17.496094 18.699219 17.289063 18.90625 16.84375 19.0625 L 12 20.3125 C 11.703125 20.390625 11.460938 20.601563 11.339844 20.878906 C 11.21875 21.160156 11.230469 21.480469 11.375 21.75 L 12.28125 23.40625 C 12.546875 23.890625 13.15625 24.066406 13.640625 23.796875 C 14.125 23.53125 14.300781 22.921875 14.03125 22.4375 L 13.75 21.9375 L 17.4375 20.96875 C 17.46875 20.960938 17.5 20.949219 17.53125 20.9375 C 18.304688 20.667969 18.925781 20.207031 19.3125 19.5625 C 19.628906 19.035156 19.75 18.421875 19.6875 17.8125 C 19.980469 18.128906 20.355469 18.390625 20.78125 18.5625 C 21.925781 19.019531 23.183594 18.730469 24 17.90625 L 24 23 C 24 25.773438 21.773438 28 19 28 L 13.71875 28 C 11.519531 28 9.585938 26.570313 8.9375 24.46875 L 8.1875 21.96875 C 8.105469 21.699219 7.941406 20.753906 8.0625 20.0625 C 8.25 18.988281 8.71875 18.574219 9.15625 18.3125 C 9.59375 18.050781 9.90625 18.03125 9.90625 18.03125 C 9.925781 18.03125 9.949219 18.03125 9.96875 18.03125 L 16.40625 17.1875 C 16.4375 17.179688 16.46875 17.167969 16.5 17.15625 Z"/></svg>