<svg xmlns="http://www.w3.org/2000/svg" viewBox="0 0 32 32"><path d="M 14 6 C 13.101563 6 12.4375 6.5 11.84375 7.15625 C 11.253906 7.804688 10.773438 8.6875 10.53125 9.75 C 10.527344 9.761719 10.535156 9.769531 10.53125 9.78125 C 10.269531 10.78125 9.898438 12.507813 9.59375 14 C 8.894531 13.394531 8 13 7 13 C 4.789063 13 3 14.789063 3 17 C 3 19.105469 3.542969 21.476563 5.53125 23.21875 C 7.519531 24.960938 10.765625 26 16 26 C 21.238281 26 24.515625 24.941406 26.5 23.1875 C 28.484375 21.433594 29 19.058594 29 17 C 29 14.789063 27.210938 13 25 13 C 24.007813 13 23.105469 13.371094 22.40625 13.96875 C 22.394531 13.957031 22.386719 13.949219 22.375 13.9375 C 22.375 13.933594 22.34375 13.941406 22.34375 13.9375 C 21.988281 12.289063 21.703125 10.902344 21.46875 9.78125 C 21.230469 8.65625 20.726563 7.746094 20.125 7.09375 C 19.523438 6.441406 18.859375 6 18 6 C 17.183594 6 16.648438 6.417969 16.28125 6.6875 C 16.152344 6.78125 16.082031 6.847656 16 6.90625 C 15.917969 6.847656 15.847656 6.78125 15.71875 6.6875 C 15.351563 6.417969 14.816406 6 14 6 Z M 14 8 C 13.984375 8 14.222656 8.082031 14.53125 8.3125 C 14.6875 8.425781 14.847656 8.550781 15.0625 8.6875 C 15.277344 8.824219 15.542969 9 16 9 C 16.457031 9 16.722656 8.824219 16.9375 8.6875 C 17.152344 8.550781 17.3125 8.425781 17.46875 8.3125 C 17.777344 8.082031 18.015625 8 18 8 C 17.941406 8 18.308594 8.09375 18.65625 8.46875 C 19.003906 8.84375 19.367188 9.445313 19.53125 10.21875 C 19.808594 11.53125 20.210938 13.398438 20.5625 15.03125 C 20.511719 15.066406 20.46875 15.089844 20.40625 15.125 C 19.730469 15.519531 18.417969 16 16 16 C 13.582031 16 12.269531 15.519531 11.59375 15.125 C 11.515625 15.082031 11.46875 15.042969 11.40625 15 C 11.75 13.339844 12.179688 11.34375 12.46875 10.25 C 12.46875 10.238281 12.46875 10.230469 12.46875 10.21875 C 12.628906 9.496094 12.988281 8.894531 13.34375 8.5 C 13.699219 8.105469 14.101563 8 14 8 Z M 7 15 C 8.160156 15 8.957031 15.769531 9 16.90625 C 9 16.917969 9 16.925781 9 16.9375 C 8.957031 17.125 8.96875 17.320313 9.03125 17.5 C 9.039063 17.53125 9.050781 17.5625 9.0625 17.59375 C 9.257813 19.542969 10.355469 20.847656 11.6875 21.40625 C 13.152344 22.023438 14.75 22 16 22 C 17.277344 22 18.894531 21.984375 20.34375 21.34375 C 21.691406 20.746094 22.816406 19.398438 22.96875 17.4375 C 23.011719 17.296875 23.023438 17.144531 23 17 C 23 16.988281 23 16.980469 23 16.96875 C 23.003906 16.925781 23.003906 16.886719 23 16.84375 C 23.066406 15.738281 23.863281 15 25 15 C 26.191406 15 27 15.808594 27 17 C 27 18.742188 26.621094 20.394531 25.15625 21.6875 C 23.691406 22.980469 20.960938 24 16 24 C 11.035156 24 8.304688 23 6.84375 21.71875 C 5.382813 20.4375 5 18.796875 5 17 C 5 15.808594 5.808594 15 7 15 Z M 11 17.0625 C 12.058594 17.578125 13.617188 18 16 18 C 18.382813 18 19.941406 17.578125 21 17.0625 C 20.984375 18.605469 20.441406 19.097656 19.53125 19.5 C 18.605469 19.910156 17.222656 20 16 20 C 14.75 20 13.347656 19.976563 12.4375 19.59375 C 11.539063 19.214844 11.011719 18.71875 11 17.0625 Z"/></svg>