<svg xmlns="http://www.w3.org/2000/svg" viewBox="0 0 32 32"><path d="M 23.25 4 C 21.988281 4 20.90625 4.457031 20.125 5.125 C 19.34375 5.792969 18.828125 6.660156 18.46875 7.46875 C 17.90625 8.734375 17.871094 9.492188 17.8125 9.96875 C 17.355469 10.160156 16.175781 10.625 15 10.625 C 13.46875 10.625 12.390625 10 10.375 10 C 9.128906 10 8.007813 10.460938 7.21875 11.28125 C 7.144531 11.359375 7.070313 11.445313 7 11.53125 C 6.726563 11.457031 6.347656 11.375 5.875 11.375 C 5.167969 11.375 4.539063 11.726563 4.0625 12.1875 C 3.585938 12.648438 3.234375 13.222656 2.9375 13.90625 C 2.34375 15.273438 2 17.042969 2 19 L 4 19 C 4 17.277344 4.304688 15.742188 4.75 14.71875 C 4.972656 14.207031 5.226563 13.832031 5.4375 13.625 C 5.648438 13.417969 5.789063 13.375 5.875 13.375 C 6.011719 13.375 6.0625 13.394531 6.15625 13.40625 C 6.078125 13.769531 6 14.140625 6 14.53125 C 6 16.917969 7.441406 18.363281 7.96875 18.84375 C 7.964844 19.222656 7.925781 20.402344 7.1875 21.40625 L 7 21.65625 L 7 28 L 9 28 L 9 22.125 C 10.046875 20.34375 10 18.40625 10 18.40625 L 9.96875 18 L 9.65625 17.71875 C 9.65625 17.71875 8 16.171875 8 14.53125 C 8 13.675781 8.265625 13.0625 8.65625 12.65625 C 9.046875 12.25 9.582031 12 10.375 12 C 11.914063 12 12.992188 12.625 15 12.625 C 17.113281 12.625 19.0625 11.625 19.0625 11.625 L 19.5625 11.375 L 19.625 10.8125 C 19.625 10.8125 19.726563 9.53125 20.28125 8.28125 C 20.558594 7.65625 20.964844 7.058594 21.4375 6.65625 C 21.855469 6.296875 22.335938 6.046875 23 6 L 23 7 C 24.507813 7 25.09375 8.40625 25.09375 8.40625 L 25.15625 8.5625 L 25.28125 8.71875 L 27 10.40625 L 26.8125 10.625 C 26.371094 10.507813 25.871094 10.382813 25.65625 10.3125 L 25.3125 10.1875 L 24.96875 10.3125 C 24.949219 10.320313 24.375 10.457031 23.9375 10.375 C 23.5 10.292969 23.175781 10.183594 22.9375 9.53125 L 21.0625 10.21875 C 21.214844 10.636719 21.429688 10.988281 21.6875 11.28125 C 21.597656 11.746094 21.605469 12.199219 21.65625 12.625 C 21.765625 13.574219 22 14.476563 22 15.21875 C 22 16.511719 20.40625 17.84375 20.40625 17.84375 L 20 18.15625 L 20 28 L 22 28 L 22 19.09375 C 22.5625 18.660156 24 17.417969 24 15.21875 C 24 14.113281 23.738281 13.132813 23.65625 12.40625 C 23.652344 12.382813 23.660156 12.367188 23.65625 12.34375 C 24.285156 12.445313 24.714844 12.328125 25.15625 12.21875 C 25.75 12.402344 26.875 12.71875 26.875 12.71875 L 27.46875 12.875 L 27.875 12.40625 L 28.53125 11.6875 C 29.207031 10.9375 29.183594 9.777344 28.46875 9.0625 L 26.71875 7.28125 L 26.6875 7.3125 C 26.53125 7.003906 26.027344 6.082031 25 5.5 L 25 4 Z M 12 17 L 12 18 C 12 20.457031 10.375 21.71875 10.375 21.71875 L 10 22 L 10 28 L 12 28 L 12 22.84375 C 12.417969 22.449219 13.253906 21.492188 13.71875 19.625 C 14.425781 19.941406 15.535156 20.160156 17 20.25 L 17 28 L 19 28 L 19 18.34375 L 18 18.34375 C 15.96875 18.34375 14.90625 18.027344 14.40625 17.78125 C 14.15625 17.65625 14.039063 17.542969 14 17.5 L 13.78125 17 Z"/></svg>