<svg xmlns="http://www.w3.org/2000/svg" viewBox="0 0 32 32"><path d="M 5 5 L 5 27 L 27 27 L 27 5 L 5 5 z M 7 7 L 25 7 L 25 25 L 7 25 L 7 7 z M 12.902344 10 C 12.333844 10.00375 11.768125 10.382812 11.765625 11.132812 C 11.765625 11.772812 12.286875 12.283203 12.921875 12.283203 C 13.100875 12.278203 14.071687 12.112234 14.054688 11.115234 C 14.042188 10.367234 13.470844 9.99625 12.902344 10 z M 19.603516 13.203125 C 18.754715 13.274146 17.826937 13.861984 17.179688 15.068359 L 17.558594 13.34375 L 14.626953 13.34375 L 14.214844 14.859375 L 15.589844 14.859375 L 14.746094 18.244141 C 14.043094 19.808141 12.300781 20.123422 12.300781 19.232422 C 12.313781 18.751422 12.269172 19.04175 13.701172 13.34375 L 10.445312 13.34375 L 10.033203 14.861328 L 11.388672 14.861328 C 10.446672 18.700328 10.412203 18.687875 10.408203 19.296875 C 10.408203 21.371875 13.097453 21.687469 14.439453 19.480469 L 14.09375 20.865234 L 16.015625 20.865234 L 17.115234 16.462891 C 17.742234 13.918891 20.268969 14.456594 19.667969 16.433594 C 19.279969 17.823594 17.936422 20.976562 20.732422 20.976562 C 21.746422 20.976562 22.553 20.323766 23 18.759766 L 22.238281 18.474609 C 21.629281 20.157609 20.882812 19.854359 20.882812 19.193359 C 20.895813 18.848359 20.912578 18.8655 21.517578 16.6875 C 22.212578 14.4025 21.018184 13.084756 19.603516 13.203125 z"/></svg>