<svg xmlns="http://www.w3.org/2000/svg" viewBox="0 0 32 32"><path d="M 6.023438 8.6875 C 6.023438 7.210938 7.222656 6.011719 8.699219 6.011719 C 10.03125 6.011719 11.132813 6.984375 11.339844 8.253906 C 12.78125 7.914063 14.363281 8.308594 15.488281 9.433594 L 15.640625 9.589844 L 13.667969 11.5625 L 13.515625 11.40625 C 12.875 10.765625 11.835938 10.765625 11.195313 11.410156 C 10.550781 12.050781 10.550781 13.09375 11.191406 13.730469 L 15.640625 18.179688 L 13.667969 20.152344 L 11.578125 18.0625 L 9.601563 16.089844 L 9.21875 15.703125 C 8.023438 14.511719 7.65625 12.808594 8.109375 11.296875 C 6.914063 11.027344 6.023438 9.964844 6.023438 8.6875 Z M 11.8125 13.882813 L 13.785156 15.859375 L 15.875 13.773438 L 18.234375 11.414063 C 18.878906 10.769531 19.914063 10.769531 20.554688 11.410156 C 21.195313 12.050781 21.195313 13.089844 20.554688 13.730469 L 20.402344 13.882813 L 22.375 15.859375 L 22.527344 15.703125 C 23.710938 14.523438 24.085938 12.839844 23.652344 11.34375 C 24.964844 11.171875 25.976563 10.046875 25.976563 8.6875 C 25.976563 7.210938 24.78125 6.011719 23.300781 6.011719 C 21.949219 6.011719 20.832031 7.015625 20.652344 8.320313 C 19.144531 7.878906 17.453125 8.253906 16.265625 9.4375 L 15.878906 9.824219 L 13.902344 11.796875 Z M 23.699219 20.664063 C 24.054688 19.210938 23.664063 17.613281 22.527344 16.480469 L 22.140625 16.089844 L 20.167969 14.117188 L 18.085938 12.03125 L 16.109375 14.003906 L 18.195313 16.09375 L 20.554688 18.453125 C 21.199219 19.097656 21.195313 20.132813 20.558594 20.773438 C 19.917969 21.414063 18.878906 21.414063 18.238281 20.769531 L 18.085938 20.621094 L 16.113281 22.597656 L 16.261719 22.746094 C 17.464844 23.949219 19.183594 24.316406 20.703125 23.847656 C 20.949219 25.070313 22.03125 25.992188 23.324219 25.992188 C 24.800781 25.992188 26 24.792969 26 23.316406 C 26 21.964844 25 20.847656 23.699219 20.664063 Z M 19.933594 18.300781 L 17.960938 16.324219 L 15.875 18.410156 L 13.902344 20.386719 L 13.515625 20.773438 C 12.875 21.414063 11.835938 21.414063 11.191406 20.769531 C 10.550781 20.128906 10.550781 19.09375 11.191406 18.449219 L 11.34375 18.300781 L 9.371094 16.324219 L 9.21875 16.476563 C 8.070313 17.621094 7.683594 19.242188 8.058594 20.707031 C 6.878906 20.984375 6 22.046875 6 23.3125 C 6 24.789063 7.199219 25.988281 8.675781 25.988281 C 9.945313 25.984375 11.011719 25.101563 11.285156 23.910156 C 12.742188 24.273438 14.351563 23.886719 15.488281 22.746094 L 15.878906 22.359375 L 17.851563 20.382813 Z"/></svg>