<svg xmlns="http://www.w3.org/2000/svg" viewBox="0 0 32 32"><path d="M 14.716797 4 C 14.177797 4.75 13.783297 5.2906563 13.404297 5.8476562 C 13.100297 5.4836562 12.6595 5.2623281 12.1875 5.2363281 C 10.6665 5.1403281 10.750641 5.1464844 10.681641 5.1464844 C 9.7646406 5.1514844 9.0072656 5.8661562 8.9472656 6.7851562 L 8.8632812 8.1894531 L 8.8632812 8.1953125 C 8.8112812 9.1553125 9.5400937 9.9790625 10.496094 10.039062 L 11.558594 10.103516 C 11.467594 11.003516 11.611609 11.845359 11.974609 12.568359 C 10.591609 13.147359 9.3381094 13.997312 8.2871094 15.070312 C 4.9381094 18.418312 5.0058594 22.588562 5.0058594 26.601562 L 6.2753906 25.251953 C 6.5383906 26.219953 6.9379375 27.145 7.4609375 28 L 8.9960938 28 C 8.1520938 26.854 7.5820781 25.527953 7.3300781 24.126953 L 9.4609375 21.859375 L 8.4511719 25.037109 C 10.698172 23.398109 14.151703 20.332797 20.970703 22.341797 C 22.773703 22.866797 24.693734 22.379828 25.552734 20.798828 C 25.984734 22.914828 25.611422 25.920141 24.357422 27.994141 L 25.814453 27.994141 C 26.593453 26.435141 27 24.560562 27 22.476562 C 27 19.839562 25.873875 17.17125 23.921875 15.15625 C 22.261875 13.44625 20.539391 12.707859 19.525391 12.380859 C 19.570391 12.274859 19.610484 12.165641 19.646484 12.056641 C 20.351484 9.9156406 19.195453 7.6074375 17.064453 6.8984375 C 16.077453 6.5664375 15.543938 6.59375 15.335938 6.59375 C 15.329937 6.58875 15.090406 6.2024375 15.816406 4.6484375 L 14.716797 4 z M 10.6875 6.4277344 C 10.7095 6.4277344 10.592281 6.4176719 12.113281 6.5136719 C 12.646281 6.5506719 12.534297 7.1469062 12.529297 7.2539062 C 12.245297 7.7539063 12.010078 8.281125 11.830078 8.828125 L 10.576172 8.7539062 C 10.324172 8.7369063 10.131531 8.519625 10.144531 8.265625 L 10.228516 6.8613281 C 10.241516 6.6173281 10.4435 6.4267344 10.6875 6.4277344 z M 14.146484 7.0429688 C 14.350484 7.5599687 14.857156 7.8902813 15.410156 7.8632812 C 15.805156 7.8472813 17.572594 8.0035 18.308594 9.5625 C 18.697594 10.3985 18.772109 11.817219 17.662109 12.824219 L 17.214844 12.273438 C 15.918844 10.966437 14.396484 12.074938 14.396484 13.210938 C 13.904484 12.977938 13.491031 12.604672 13.207031 12.138672 C 12.161031 10.391672 13.415484 8.1799688 14.146484 7.0429688 z M 10.955078 7.1875 L 10.902344 8.0234375 L 11.734375 8.078125 L 11.787109 7.2421875 L 10.955078 7.1875 z M 16.007812 12.96875 C 16.085047 12.971828 16.163812 13.007641 16.226562 13.087891 C 16.963563 13.998891 15.783734 12.540328 19.177734 16.736328 C 19.433734 17.052328 18.958266 17.448953 18.697266 17.126953 L 18.404297 16.763672 L 17.357422 17.619141 C 17.255422 17.703141 17.105484 17.689891 17.021484 17.587891 L 16.546875 17.003906 C 16.463875 16.901906 16.476125 16.751969 16.578125 16.667969 L 17.630859 15.804688 L 17.203125 15.277344 L 16.685547 15.707031 C 16.429547 15.916031 16.044062 15.407125 16.289062 15.203125 L 16.802734 14.779297 C 16.728734 14.688297 15.847094 13.601516 15.746094 13.478516 C 15.549594 13.241516 15.776109 12.959516 16.007812 12.96875 z M 18.810547 13.484375 C 19.226547 13.614375 19.63325 13.768313 20.03125 13.945312 C 21.67425 14.679312 23.045266 15.911641 23.947266 17.181641 C 24.763266 18.338641 24.9025 19.523422 24.3125 20.357422 C 23.7305 21.188422 22.583219 21.471563 21.324219 21.101562 C 17.407219 19.944562 13.876969 20.207047 10.792969 21.873047 L 12.386719 16.859375 C 6.0957187 23.557375 6.7426875 22.871891 6.3046875 23.337891 C 6.3636875 21.767891 6.5702344 20.121906 7.3652344 18.503906 C 8.0742344 17.067906 9.7944844 14.726187 12.771484 13.617188 C 13.624484 14.432187 14.664828 14.693672 15.048828 14.763672 C 14.816828 15.302672 14.912922 15.927094 15.294922 16.371094 C 15.135922 16.864094 15.234547 17.406594 15.560547 17.808594 L 16.035156 18.392578 C 16.323156 18.749578 16.757844 18.956078 17.214844 18.955078 C 17.860844 18.955078 18.245391 18.548781 18.400391 18.425781 C 19.248391 18.735781 19.878266 18.221109 19.947266 18.162109 C 20.625266 17.604109 20.725875 16.599969 20.171875 15.917969 L 18.46875 13.816406 C 18.58975 13.714406 18.704547 13.603375 18.810547 13.484375 z M 19.40625 24.404297 C 18.88125 24.404297 18.457031 24.832375 18.457031 25.359375 C 18.457031 25.886375 18.88125 26.3125 19.40625 26.3125 C 19.93125 26.3125 20.357422 25.886375 20.357422 25.359375 C 20.355422 24.832375 19.93025 24.405297 19.40625 24.404297 z M 13.505859 24.410156 C 12.980859 24.410156 12.556641 24.836281 12.556641 25.363281 C 12.556641 25.890281 12.980859 26.318359 13.505859 26.318359 C 14.030859 26.318359 14.455078 25.890281 14.455078 25.363281 C 14.453078 24.836281 14.029859 24.411156 13.505859 24.410156 z"/></svg>