<svg xmlns="http://www.w3.org/2000/svg" viewBox="0 0 32 32"><path d="M 11.480469 4 C 6.414063 4.113281 2.113281 8.414063 2 13.480469 C 1.933594 16.757813 3.527344 19.59375 6 21.296875 L 6 27.535156 L 9.445313 29.832031 L 10.554688 28.167969 L 8 26.464844 L 8 22.347656 C 8.636719 22.59375 9.304688 22.769531 10 22.875 L 10 25.71875 L 13.683594 26.949219 L 14.316406 25.050781 L 12 24.28125 L 12 22.980469 C 16.382813 22.878906 17.175781 21.566406 18.472656 21.027344 C 20.988281 20.011719 21.910156 18.6875 22.367188 17.789063 C 22.59375 17.339844 22.722656 17.078125 22.894531 16.902344 C 23.066406 16.726563 23.332031 16.542969 24.03125 16.375 L 24.035156 16.371094 C 24.675781 16.21875 25.226563 16.03125 25.714844 15.820313 C 25.8125 16.113281 25.921875 16.457031 26.03125 16.882813 C 26.507813 18.660156 27 21.574219 27 26 L 29 26 C 29 21.425781 28.492188 18.339844 27.96875 16.367188 C 27.785156 15.679688 27.601563 15.164063 27.425781 14.71875 C 27.632813 14.519531 27.8125 14.308594 27.957031 14.09375 C 28.605469 13.117188 28.597656 12.097656 28.597656 11.597656 C 28.597656 10.433594 28.3125 9.234375 27.511719 8.296875 C 26.707031 7.363281 25.414063 6.800781 23.800781 6.800781 C 22.007813 6.800781 20.398438 7.777344 19.546875 9.273438 C 18.1875 6.054688 15.375 4 11.5 4 Z M 11.515625 6 C 15.152344 6.007813 17.230469 7.707031 18.136719 10.96875 L 18.339844 11.699219 L 20.792969 11.699219 L 20.972656 10.929688 C 21.261719 9.707031 22.445313 8.800781 23.800781 8.800781 C 24.988281 8.800781 25.59375 9.136719 25.988281 9.601563 C 26.386719 10.066406 26.597656 10.765625 26.597656 11.597656 C 26.597656 12.097656 26.59375 12.53125 26.292969 12.984375 C 25.992188 13.433594 25.316406 14.015625 23.570313 14.425781 L 23.5625 14.425781 C 22.621094 14.65625 21.933594 15.023438 21.464844 15.503906 C 20.992188 15.988281 20.78125 16.496094 20.582031 16.886719 C 20.1875 17.664063 19.910156 18.289063 17.722656 19.171875 L 17.71875 19.175781 C 15.671875 20.019531 16.03125 21 11.5 21 C 7.214844 21 3.910156 17.785156 4 13.519531 C 4.085938 9.589844 7.582031 6.09375 11.515625 6 Z"/></svg>