<svg xmlns="http://www.w3.org/2000/svg" viewBox="0 0 32 32"><path d="M 17 4 L 17 6 L 21 6 L 21 4 Z M 16 7 L 16 9 L 14 9 C 11.253906 9 9 11.253906 9 14 L 9 18.1875 C 7.84375 18.605469 7 19.707031 7 21 C 7 22.292969 7.84375 23.394531 9 23.8125 L 9 26 L 7 26 L 7 28 L 24 28 L 24 26 L 11 26 L 11 23.8125 C 11.84375 23.507813 12.507813 22.84375 12.8125 22 L 24 22 L 24 20 L 12.8125 20 C 12.507813 19.160156 11.839844 18.492188 11 18.1875 L 11 14 C 11 12.34375 12.34375 11 14 11 L 16 11 L 16 17 L 22 17 L 22 7 Z M 18 9 L 20 9 L 20 15 L 18 15 Z M 10 20 C 10.5625 20 11 20.4375 11 21 C 11 21.5625 10.5625 22 10 22 C 9.4375 22 9 21.5625 9 21 C 9 20.4375 9.4375 20 10 20 Z"/></svg>