<svg xmlns="http://www.w3.org/2000/svg" viewBox="0 0 32 32"><path d="M 13 4 C 11.90625 4 11 4.90625 11 6 L 11 18 C 11 19.09375 11.90625 20 13 20 L 19 20 C 20.09375 20 21 19.09375 21 18 L 21 6 C 21 4.90625 20.09375 4 19 4 Z M 13 6 L 19 6 L 19 18 L 13 18 Z M 7 14 L 7 18 C 7 21.300781 9.699219 24 13 24 L 15 24 L 15 26 L 11 26 L 11 28 L 21 28 L 21 26 L 17 26 L 17 24 L 19 24 C 22.300781 24 25 21.300781 25 18 L 25 14 L 23 14 L 23 18 C 23 20.21875 21.21875 22 19 22 L 13 22 C 10.78125 22 9 20.21875 9 18 L 9 14 Z"/></svg>