<svg xmlns="http://www.w3.org/2000/svg" viewBox="0 0 32 32"><path d="M 16.140625 3 C 9.9483764 3 5 7.9372136 5 13.904297 C 5 17.197124 7.1111632 20.784771 9.4394531 23.697266 C 10.603598 25.153513 11.836336 26.42564 12.960938 27.361328 C 13.523238 27.829172 14.056487 28.214833 14.566406 28.5 C 15.076325 28.785167 15.547087 29 16.140625 29 C 16.742937 29 17.167069 28.770334 17.646484 28.484375 C 18.1259 28.198416 18.633948 27.816308 19.173828 27.349609 C 20.253589 26.416211 21.45694 25.146004 22.601562 23.691406 C 24.890808 20.782211 27 17.197124 27 13.904297 C 27 7.9372136 22.078552 3 16.140625 3 z M 16.140625 5 C 20.966698 5 25 9.03938 25 13.904297 C 25 16.26947 23.173052 19.730773 21.029297 22.455078 C 19.957419 23.81723 18.820223 25.010398 17.865234 25.835938 C 17.38774 26.248707 16.954319 26.569983 16.623047 26.767578 C 16.291775 26.965173 16.034813 27 16.140625 27 C 16.167165 27 15.897714 26.95229 15.542969 26.753906 C 15.188224 26.555519 14.733012 26.235844 14.238281 25.824219 C 13.248819 25.000969 12.089558 23.809721 11.001953 22.449219 C 8.8267431 19.728214 7 16.26947 7 13.904297 C 7 9.03938 11.004874 5 16.140625 5 z M 16 10 C 15.939 10 15.882266 10.014578 15.822266 10.017578 C 15.930266 10.326578 16 10.654 16 11 C 16 12.657 14.657 14 13 14 C 12.654 14 12.326578 13.930266 12.017578 13.822266 C 12.014578 13.882266 12 13.939 12 14 C 12 16.209 13.791 18 16 18 C 18.209 18 20 16.209 20 14 C 20 11.791 18.209 10 16 10 z" clip-rule="evenodd"/></svg>