<svg xmlns="http://www.w3.org/2000/svg" viewBox="0 0 32 32"><path d="M 17 4 C 14.162 4 11 6.6132812 11 10.363281 L 11 11 L 10 11 C 7.794 11 6 12.794 6 15 C 6 15.408 6.0645 15.811313 6.1875 16.195312 C 4.3455 16.758312 3 18.475 3 20.5 C 3 22.981 5.019 25 7.5 25 L 15 25 L 15 24.410156 L 10.769531 23 L 7.5 23 C 6.121 23 5 21.879 5 20.5 C 5 19.121 6.121 18 7.5 18 L 10.035156 18 L 8.5234375 16.328125 C 8.1864375 15.954125 8 15.483 8 15 C 8 13.897 8.897 13 10 13 L 13 13 L 13 10.363281 C 13 8.3622813 14.426125 6.7265 15.953125 6.1875 C 16.026125 8.0915 16.851937 8.879375 17.835938 9.609375 C 18.536938 10.130375 19 10.474 19 12 L 19 13 L 22 13 C 23.103 13 24 13.897 24 15 C 24 15.483 23.813562 15.954125 23.476562 16.328125 L 21.964844 18 L 24.5 18 C 25.879 18 27 19.121 27 20.5 C 27 21.879 25.879 23 24.5 23 L 21.923828 23 L 21 25 L 24.5 25 C 26.981 25 29 22.981 29 20.5 C 29 18.475 27.6555 16.758312 25.8125 16.195312 C 25.9365 15.811312 26 15.408 26 15 C 26 12.794 24.206 11 22 11 L 20.933594 11 C 20.676594 9.227 19.740344 8.5319062 19.027344 8.0039062 C 18.280344 7.4489063 17.785141 7.0814688 17.994141 5.1054688 L 18.111328 4 L 17 4 z M 17 15.5 L 14 21.96875 L 17 22.96875 L 17 28.5 L 20 22 L 17 21 L 17 15.5 z"/></svg>