<svg xmlns="http://www.w3.org/2000/svg" viewBox="0 0 32 32"><path d="M 15 3 C 13.355469 3 12 4.355469 12 6 L 12.015625 5.835938 L 11.03125 11.746094 L 9.140625 16.917969 C 9.105469 16.964844 9.0625 17 9 17 L 8 17 L 8 16 L 3 16 L 3 29 L 8 29 L 8 26 L 11.925781 26 C 13.570313 26 15.050781 25.203125 16 23.964844 C 16.949219 25.203125 18.429688 26 20.074219 26 L 24 26 L 24 29 L 29 29 L 29 16 L 24 16 L 24 17 L 23 17 C 22.9375 17 22.894531 16.964844 22.859375 16.917969 L 20.96875 11.746094 L 19.984375 5.835938 L 20 6 C 20 4.355469 18.644531 3 17 3 C 16.660156 3 16.3125 3.066406 16 3.226563 C 15.6875 3.066406 15.339844 3 15 3 Z M 14.964844 5.015625 C 14.984375 5.160156 15 5.488281 15 6 L 15 21.4375 C 14.722656 22.921875 13.445313 24 11.925781 24 L 8 24 L 8 19 L 9 19 C 9.785156 19 10.515625 18.574219 10.902344 17.890625 L 10.941406 17.816406 L 12.96875 12.253906 L 14 6.082031 L 14 6 C 14 5.449219 14.421875 5.035156 14.964844 5.015625 Z M 17.035156 5.015625 C 17.578125 5.035156 18 5.449219 18 6 L 18 6.082031 L 19.03125 12.253906 L 21.058594 17.816406 L 21.097656 17.890625 C 21.484375 18.574219 22.214844 19 23 19 L 24 19 L 24 24 L 20.074219 24 C 18.554688 24 17.277344 22.921875 17 21.4375 L 17 6 C 17 5.488281 17.015625 5.160156 17.035156 5.015625 Z M 5 18 L 6 18 L 6 27 L 5 27 Z M 26 18 L 27 18 L 27 27 L 26 27 Z"/></svg>