<svg xmlns="http://www.w3.org/2000/svg" viewBox="0 0 32 32"><path d="M 17.115234 4.0117188 C 15.084359 4.1029687 13.060984 4.7012969 11.021484 5.6542969 C 10.406484 5.9372969 10.1775 6.2314531 9.9375 6.6894531 C 9.3765 7.7354531 9.0555156 8.7255937 8.8535156 9.5585938 C 7.6985156 10.952594 6.8701406 12.614078 6.4941406 14.455078 C 5.9171406 15.435078 5.3563281 16.70975 5.2363281 18.34375 C 5.2363281 18.34375 5.1999375 18.757438 5.2109375 18.773438 C 3.2879375 18.522437 1.0605469 17.607422 1.0605469 17.607422 C 1.5565469 18.397422 4.3988437 19.062188 5.2148438 19.367188 C 5.2148438 19.367188 5.3085156 24.703719 8.7285156 26.511719 C 8.1135156 25.574719 8.0039062 25.412109 8.0039062 25.412109 C 8.0039062 25.412109 6.2223438 22.154187 6.5273438 19.742188 C 6.5653438 19.742188 6.6104375 19.753906 6.6484375 19.753906 C 7.9504375 24.513906 12.268094 28 17.371094 28 C 17.709094 28 18.030563 27.989891 18.351562 27.962891 C 19.113563 28.044891 19.854156 27.989 20.535156 27.75 C 20.911156 27.63 21.288719 27.401109 21.636719 27.162109 C 25.459719 25.033109 27.130844 22.695188 28.339844 19.117188 C 28.633844 18.246188 28.780047 17.185391 28.873047 16.275391 C 29.347047 11.792391 27.208047 7.4722031 23.248047 5.4082031 C 21.184047 4.3352031 19.146109 3.9204688 17.115234 4.0117188 z M 17.388672 6.1777344 C 23.183672 6.1777344 27.898438 10.922484 27.898438 16.771484 C 27.888438 20.909484 25.513031 24.504094 22.082031 26.246094 C 21.292031 26.502094 20.110594 26.702266 18.558594 26.447266 C 18.558594 26.447266 13.598234 25.189172 11.615234 20.576172 C 13.695234 20.614172 14.469281 20.566234 15.863281 20.365234 C 18.009281 20.055234 20.165953 19.483359 22.126953 18.568359 C 22.769953 18.274359 22.730438 17.511312 22.648438 16.945312 C 22.539437 16.248313 22.044375 16.286453 21.484375 16.689453 C 21.484375 16.689453 17.017484 19.879281 11.146484 19.613281 C 10.128484 17.870281 9.6875 13.580078 9.6875 13.580078 C 11.9425 11.663078 14.217422 10.334563 18.857422 10.726562 C 18.868422 10.377562 19.020094 9.2493125 17.746094 9.1953125 C 17.746094 9.1953125 12.655875 8.5905312 9.796875 11.019531 C 9.932875 10.120531 10.116391 9.4230469 10.400391 8.8730469 C 12.263391 7.1960469 14.703672 6.1777344 17.388672 6.1777344 z M 8.6191406 10.947266 C 8.6191406 10.947266 8.5550313 11.618484 8.5820312 12.021484 C 8.3970312 12.157484 8.0327969 12.462641 7.5917969 12.931641 C 7.8747969 12.233641 8.2051406 11.562266 8.6191406 10.947266 z M 8.5449219 14.585938 C 8.5449219 14.585938 8.6372969 17.199188 9.4042969 19.492188 L 7.1484375 19.117188 C 7.0294375 18.616187 6.959875 18.110891 6.921875 17.587891 C 7.161875 16.650891 7.6459219 15.457937 8.5449219 14.585938 z M 7.3515625 19.917969 C 8.1575625 20.091969 9.2022656 20.332063 9.6972656 20.414062 C 11.184266 24.597062 15.595703 27.183594 15.595703 27.183594 C 15.649703 27.210594 15.688187 27.222281 15.742188 27.238281 C 11.761188 26.606281 8.5165625 23.713969 7.3515625 19.917969 z"/></svg>