<svg xmlns="http://www.w3.org/2000/svg" viewBox="0 0 32 32"><path d="M 24 4 C 22.355469 4 21 5.355469 21 7 C 21 8.644531 22.355469 10 24 10 C 25.644531 10 27 8.644531 27 7 C 27 5.355469 25.644531 4 24 4 Z M 8.03125 4.21875 L 6.875 5.8125 L 13.1875 10.40625 C 13.078125 10.523438 12.949219 10.632813 12.84375 10.75 C 11.546875 12.167969 11.808594 14.464844 13.40625 15.53125 L 17.09375 17.96875 L 13.28125 20.21875 L 5.5 15.75 L 4.5 17.5 L 22.03125 27.5625 C 22.0625 27.574219 22.09375 27.585938 22.125 27.59375 C 22.125 27.59375 22.832031 27.9375 23.75 28 C 24.667969 28.0625 25.972656 27.796875 26.8125 26.65625 L 25.21875 25.46875 C 24.851563 25.96875 24.425781 26.035156 23.90625 26 C 23.4375 25.96875 23.105469 25.84375 23.03125 25.8125 L 22.9375 25.78125 L 15.25 21.375 L 18.09375 19.6875 C 19.324219 18.957031 19.378906 17.109375 18.1875 16.3125 L 14.53125 13.875 C 13.917969 13.464844 13.816406 12.636719 14.3125 12.09375 C 14.839844 11.515625 15.425781 10.894531 15.96875 10.375 C 16.75 9.625 17.777344 9.28125 18.59375 9.125 C 18.8125 9.082031 18.96875 9.230469 18.96875 9.46875 L 19 13.46875 L 19 13.9375 L 19.40625 14.25 L 23.375 17.28125 L 24.59375 15.71875 L 21 12.96875 L 20.96875 9.46875 C 20.960938 8.027344 19.621094 6.878906 18.1875 7.15625 C 17.125 7.363281 15.75 7.828125 14.59375 8.9375 Z M 24 6 C 24.5625 6 25 6.4375 25 7 C 25 7.5625 24.5625 8 24 8 C 23.4375 8 23 7.5625 23 7 C 23 6.4375 23.4375 6 24 6 Z"/></svg>