<svg xmlns="http://www.w3.org/2000/svg" viewBox="0 0 32 32"><path d="M 16 4 C 13.085938 4 10.734375 6.316406 10.5625 9.1875 C 7.980469 8.679688 5.304688 10.023438 4.34375 12.5625 C 3.34375 15.203125 4.601563 18.089844 7.0625 19.34375 C 5.425781 21.648438 5.769531 24.871094 7.96875 26.71875 C 10.285156 28.667969 13.773438 28.347656 15.71875 26.03125 C 15.839844 25.886719 15.871094 25.691406 15.96875 25.53125 C 16.074219 25.703125 16.117188 25.90625 16.25 26.0625 C 18.199219 28.378906 21.683594 28.699219 24 26.75 C 26.203125 24.894531 26.523438 21.679688 24.875 19.375 C 27.378906 18.136719 28.664063 15.222656 27.65625 12.5625 C 26.695313 10.023438 24.015625 8.679688 21.4375 9.1875 C 21.265625 6.316406 18.914063 4 16 4 Z M 16 6 C 17.945313 6 19.5 7.554688 19.5 9.5 C 19.5 9.65625 19.433594 9.9375 19.3125 10.28125 C 19.308594 10.292969 19.316406 10.300781 19.3125 10.3125 L 16.34375 14.53125 C 16.65625 13.5 17 12.328125 17 12 C 17 11.449219 16.550781 11 16 11 C 15.449219 11 15 11.449219 15 12 C 15 12.316406 15.273438 13.425781 15.53125 14.4375 L 12.625 10.0625 C 12.558594 9.832031 12.5 9.625 12.5 9.5 C 12.5 7.554688 14.054688 6 16 6 Z M 9.375 11 C 9.832031 10.984375 10.296875 11.046875 10.75 11.21875 C 10.828125 11.246094 10.957031 11.351563 11.125 11.46875 C 11.136719 11.476563 11.144531 11.460938 11.15625 11.46875 L 13.9375 15.6875 C 13.0625 15.09375 12.085938 14.453125 11.78125 14.34375 C 11.261719 14.15625 10.6875 14.417969 10.5 14.9375 C 10.3125 15.457031 10.574219 16.03125 11.09375 16.21875 C 11.394531 16.328125 12.566406 16.410156 13.625 16.46875 L 8.5625 17.875 C 8.433594 17.851563 8.324219 17.808594 8.25 17.78125 C 6.429688 17.09375 5.527344 15.070313 6.21875 13.25 C 6.734375 11.886719 8.007813 11.046875 9.375 11 Z M 22.625 11 C 23.992188 11.046875 25.265625 11.886719 25.78125 13.25 C 26.46875 15.066406 25.570313 17.09375 23.75 17.78125 C 23.625 17.828125 23.375 17.886719 23.09375 17.90625 L 18.21875 16.46875 C 19.308594 16.410156 20.585938 16.335938 20.90625 16.21875 C 21.425781 16.03125 21.6875 15.457031 21.5 14.9375 C 21.3125 14.417969 20.738281 14.15625 20.21875 14.34375 C 19.886719 14.460938 18.800781 15.171875 17.90625 15.78125 L 20.9375 11.40625 C 21.0625 11.320313 21.1875 11.242188 21.25 11.21875 C 21.703125 11.046875 22.167969 10.984375 22.625 11 Z M 14.3125 18.375 C 13.421875 18.996094 12.328125 19.761719 12.09375 20.03125 C 11.734375 20.449219 11.800781 21.109375 12.21875 21.46875 C 12.640625 21.828125 13.265625 21.761719 13.625 21.34375 C 13.894531 21.03125 14.589844 19.449219 15 18.5 L 15 22.1875 C 14.816406 23.386719 14.453125 24.433594 14.1875 24.75 C 12.9375 26.238281 10.738281 26.441406 9.25 25.1875 C 7.761719 23.9375 7.558594 21.738281 8.8125 20.25 C 8.917969 20.125 9.160156 19.9375 9.46875 19.75 L 9.59375 19.6875 Z M 17.78125 18.4375 L 22.5625 19.8125 C 22.839844 19.988281 23.058594 20.164063 23.15625 20.28125 C 24.40625 21.769531 24.207031 23.964844 22.71875 25.21875 C 21.230469 26.46875 19.035156 26.269531 17.78125 24.78125 C 17.527344 24.480469 17.1875 23.503906 17 22.375 L 17 18.5 C 17.410156 19.449219 18.105469 21.03125 18.375 21.34375 C 18.734375 21.761719 19.363281 21.828125 19.78125 21.46875 C 20.199219 21.109375 20.265625 20.449219 19.90625 20.03125 C 19.683594 19.773438 18.664063 19.054688 17.78125 18.4375 Z"/></svg>