<svg xmlns="http://www.w3.org/2000/svg" viewBox="0 0 32 32"><path d="M 7 3 L 7 8.46875 L 7.375 8.78125 L 11.40625 12 L 8.34375 12 L 4.59375 9.1875 L 3.40625 10.8125 L 7.65625 14 L 11.21875 14 L 7.625 17 L 3 17 L 3 19 L 8.375 19 L 8.625 18.78125 L 10.03125 17.625 C 10.023438 17.75 10 17.871094 10 18 C 10 18.175781 10.015625 18.351563 10.03125 18.53125 L 6.28125 22.28125 L 6 22.59375 L 6 29 L 8 29 L 8 23.4375 L 10.5625 20.875 C 10.835938 21.628906 11.183594 22.375 11.625 23.0625 C 12.632813 24.628906 14.109375 26 16 26 C 17.890625 26 19.367188 24.628906 20.375 23.0625 C 20.816406 22.375 21.164063 21.628906 21.4375 20.875 L 24 23.4375 L 24 29 L 26 29 L 26 22.59375 L 25.71875 22.28125 L 21.96875 18.53125 C 21.984375 18.351563 22 18.175781 22 18 C 22 17.878906 21.976563 17.773438 21.96875 17.65625 L 23.375 18.78125 L 23.65625 19 L 29 19 L 29 17 L 24.34375 17 L 20.59375 14 L 24.34375 14 L 28.59375 10.8125 L 27.40625 9.1875 L 23.65625 12 L 20.59375 12 L 24.625 8.78125 L 25 8.46875 L 25 3 L 23 3 L 23 7.53125 L 19.875 10.03125 C 19.71875 9.410156 19.40625 8.875 19 8.40625 L 19 5 L 17 5 L 17 7.15625 C 16.679688 7.074219 16.34375 7 16 7 C 15.65625 7 15.320313 7.074219 15 7.15625 L 15 5 L 13 5 L 13 8.40625 C 12.59375 8.875 12.28125 9.410156 12.125 10.03125 L 9 7.53125 L 9 3 Z M 16 9 C 17.117188 9 18 9.882813 18 11 C 18 12.117188 17.117188 13 16 13 C 14.882813 13 14 12.117188 14 11 C 14 9.882813 14.882813 9 16 9 Z M 16 15 C 17.230469 15 18.265625 15.296875 18.9375 15.78125 C 19.609375 16.265625 20 16.890625 20 18 C 20 19.109375 19.488281 20.753906 18.6875 22 C 17.886719 23.246094 16.867188 24 16 24 C 15.132813 24 14.113281 23.246094 13.3125 22 C 12.511719 20.753906 12 19.109375 12 18 C 12 16.890625 12.390625 16.265625 13.0625 15.78125 C 13.734375 15.296875 14.769531 15 16 15 Z"/></svg>