<svg xmlns="http://www.w3.org/2000/svg" viewBox="0 0 32 32"><path d="M 22 6 C 18.745659 6 16.09469 8.6041857 16.007812 11.837891 L 12.337891 17.083984 C 12.065931 17.032464 11.786701 17 11.5 17 C 10.551677 17 9.673638 17.297769 8.9472656 17.800781 L 4 15.84375 L 4 21.220703 L 7.1054688 22.449219 C 7.5429388 24.475474 9.3449541 26 11.5 26 C 13.703628 26 15.534282 24.405137 15.917969 22.310547 L 21.691406 17.984375 C 21.794183 17.989633 21.895937 18 22 18 C 25.309 18 28 15.309 28 12 C 28 8.691 25.309 6 22 6 z M 22 8 C 24.206 8 26 9.794 26 12 C 26 14.206 24.206 16 22 16 C 19.794 16 18 14.206 18 12 C 18 9.794 19.794 8 22 8 z M 22 9 A 3 3 0 0 0 22 15 A 3 3 0 0 0 22 9 z M 11.5 18 C 13.43 18 15 19.57 15 21.5 C 15 23.43 13.43 25 11.5 25 C 10.078718 25 8.8581368 24.145398 8.3105469 22.925781 L 10.580078 23.824219 C 10.882078 23.944219 11.192047 24.001953 11.498047 24.001953 C 12.494047 24.001953 13.436219 23.403875 13.824219 22.421875 C 14.333219 21.137875 13.703922 19.683781 12.419922 19.175781 L 10.142578 18.273438 C 10.560118 18.097145 11.019013 18 11.5 18 z"/></svg>