<svg xmlns="http://www.w3.org/2000/svg" viewBox="0 0 32 32"><path d="M 26.230469 5 C 26.080469 5 25.717484 6.0322187 25.521484 6.0742188 C 25.304484 6.1282188 24.359578 5.5992187 22.392578 6.8242188 C 21.338578 7.3742187 18.772578 9.5409219 18.767578 9.5449219 C 18.488578 9.7409219 17.935063 9.7418906 17.289062 10.212891 C 15.439063 11.466891 12.723734 10.651766 12.677734 10.634766 C 8.0697344 9.5177656 7.3437344 10.001281 6.0527344 11.113281 C 5.1857344 11.859281 5.0659219 12.634375 5.0449219 12.734375 C 4.8699219 13.584375 5.2622187 14.745109 5.3242188 15.412109 C 5.3992188 16.216109 5.2115313 16.102938 5.6445312 19.460938 C 5.6655312 19.502938 5.8164219 19.461438 5.8574219 19.523438 C 5.8574219 19.873438 5.6985469 20.026453 5.6855469 20.064453 C 5.6235469 20.251453 5.6235469 20.502422 5.6855469 20.732422 C 5.7815469 21.074422 6.0273437 22.244437 6.0273438 22.648438 C 6.0273438 24.389437 6.0457187 24.480078 6.1367188 24.705078 C 6.2987187 25.122078 6.65675 25.084078 6.84375 25.205078 C 6.97275 25.351078 6.8237187 25.559562 6.8867188 25.726562 C 6.9077187 25.809562 7.0365312 25.894547 7.1445312 25.935547 C 7.5275313 26.085547 8.269625 25.946078 8.390625 25.830078 C 8.457625 25.768078 8.4115313 25.644047 8.5195312 25.623047 C 8.7315312 25.623047 8.9691406 25.602531 9.1191406 25.519531 C 9.3311406 25.415531 9.2906406 25.269031 9.1816406 25.082031 C 9.1646406 25.049031 8.8894375 24.527062 8.7734375 24.414062 C 8.6864375 24.331063 8.5606563 24.290516 8.4726562 24.228516 C 8.2306562 24.024516 8.0449219 23.420016 8.0449219 23.416016 C 7.8529219 22.608016 7.6150469 21.525875 7.8730469 20.671875 C 8.0650469 19.954875 9.5194375 17.017672 9.5234375 17.013672 C 9.6944375 16.742672 10.231156 16.533703 10.660156 16.720703 C 10.910156 16.799703 11.463766 17.488375 13.384766 17.859375 C 15.380766 18.221375 17.442594 17.777344 18.058594 17.777344 C 18.175594 17.860344 17.979109 18.467875 18.037109 19.546875 C 18.037109 20.646875 18.021188 20.117969 17.867188 20.792969 C 17.775188 21.196969 18.008687 21.759094 17.804688 22.746094 C 17.746688 23.154094 17.392891 23.777656 17.462891 24.222656 C 17.483891 24.264656 17.505391 24.304187 17.525391 24.367188 C 17.546391 24.554188 17.586797 24.722156 17.716797 24.785156 C 18.020797 24.935156 18.217 24.638672 18.125 25.263672 C 18.096 25.392672 18.0175 25.763672 18.1875 25.888672 C 18.3705 26.042672 19.461031 26.031156 19.707031 25.910156 C 19.815031 25.848156 19.774609 25.722562 19.974609 25.601562 C 20.053609 25.564563 20.445312 25.584078 20.445312 25.330078 C 20.457313 25.255078 20.062594 24.502047 20.058594 24.498047 C 19.950594 24.352047 19.675891 24.310062 19.587891 24.164062 C 19.300891 23.743063 19.517375 22.304484 19.609375 22.021484 C 19.734375 21.563484 19.841703 21.088875 19.970703 20.671875 C 20.428703 18.900875 20.400203 18.563172 20.658203 17.826172 C 20.691203 17.751172 20.925891 16.864078 21.087891 16.580078 C 21.474891 15.872078 21.990422 15.230469 22.482422 14.605469 C 23.232422 13.651469 23.898437 12.651266 24.648438 11.697266 C 24.902438 11.405266 24.990438 11.127234 25.398438 11.365234 C 25.848437 11.602234 26.299516 11.656266 26.728516 12.072266 C 27.336516 12.605266 27.153703 12.831344 27.220703 13.027344 C 27.282703 13.235344 27.541797 13.464828 27.841797 13.423828 C 28.274797 13.340828 28.382438 13.318359 28.398438 13.318359 C 28.506438 13.297359 28.636219 13.111328 28.699219 12.986328 C 28.828219 12.757328 28.998047 12.610828 28.998047 12.298828 C 28.999047 11.973828 28.983578 12.178797 28.142578 10.091797 C 27.821578 9.1627969 27.929984 9.7916875 27.583984 8.5546875 C 27.516984 8.2836875 27.434172 7.9497031 27.326172 7.7207031 C 27.143172 7.3587031 27.134766 7.4082188 27.134766 7.3242188 C 27.134766 7.1032187 28.412781 5.4380937 27.925781 5.3710938 C 27.688781 5.3460937 27.418359 5.853125 27.068359 6.078125 C 26.710359 6.253125 26.734672 6.2871094 26.638672 6.2871094 C 26.530672 6.2871094 26.401859 6.161125 26.380859 6.078125 C 26.295859 5.841125 26.459469 5 26.230469 5 z"/></svg>