<svg xmlns="http://www.w3.org/2000/svg" viewBox="0 0 32 32"><path d="M 12 4 C 10.347656 4 9 5.347656 9 7 L 9 19.625 L 10 18.90625 L 11 19.625 L 11 7 C 11 6.449219 11.449219 6 12 6 L 13 6 L 13 4 Z M 24 4 C 22.347656 4 21 5.347656 21 7 L 21 8 L 12 8 L 12 10 L 21 10 L 21 12 L 12 12 L 12 14 L 21 14 L 21 16 L 12 16 L 12 18 L 21 18 L 21 19.625 L 22 18.90625 L 23 19.625 L 23 7 C 23 6.449219 23.449219 6 24 6 L 25 6 L 25 4 Z M 10 20.71875 L 9.375 21.21875 C 9.375 21.21875 8.371094 22 7.03125 22 C 5.691406 22 4.625 21.21875 4.625 21.21875 L 3.375 22.78125 C 3.375 22.78125 4.917969 24 7.03125 24 C 8.492188 24 9.421875 23.515625 10 23.15625 C 10.582031 23.511719 11.558594 24 13.03125 24 C 14.492188 24 15.421875 23.515625 16 23.15625 C 16.582031 23.511719 17.558594 24 19.03125 24 C 20.492188 24 21.421875 23.515625 22 23.15625 C 22.582031 23.511719 23.558594 24 25.03125 24 C 27.144531 24 28.625 22.78125 28.625 22.78125 L 27.375 21.21875 C 27.375 21.21875 26.371094 22 25.03125 22 C 23.691406 22 22.625 21.21875 22.625 21.21875 L 22 20.71875 L 21.375 21.21875 C 21.375 21.21875 20.371094 22 19.03125 22 C 17.691406 22 16.625 21.21875 16.625 21.21875 L 16 20.71875 L 15.375 21.21875 C 15.375 21.21875 14.371094 22 13.03125 22 C 11.691406 22 10.625 21.21875 10.625 21.21875 Z M 10 24.71875 L 9.375 25.21875 C 9.375 25.21875 8.371094 26 7.03125 26 C 5.691406 26 4.625 25.21875 4.625 25.21875 L 3.375 26.78125 C 3.375 26.78125 4.917969 28 7.03125 28 C 8.492188 28 9.421875 27.515625 10 27.15625 C 10.582031 27.511719 11.558594 28 13.03125 28 C 14.492188 28 15.421875 27.515625 16 27.15625 C 16.582031 27.511719 17.558594 28 19.03125 28 C 20.492188 28 21.421875 27.515625 22 27.15625 C 22.582031 27.511719 23.558594 28 25.03125 28 C 27.144531 28 28.625 26.78125 28.625 26.78125 L 27.375 25.21875 C 27.375 25.21875 26.371094 26 25.03125 26 C 23.691406 26 22.625 25.21875 22.625 25.21875 L 22 24.71875 L 21.375 25.21875 C 21.375 25.21875 20.371094 26 19.03125 26 C 17.691406 26 16.625 25.21875 16.625 25.21875 L 16 24.71875 L 15.375 25.21875 C 15.375 25.21875 14.371094 26 13.03125 26 C 11.691406 26 10.625 25.21875 10.625 25.21875 Z"/></svg>