<svg xmlns="http://www.w3.org/2000/svg" viewBox="0 0 32 32"><path d="M 7 3 C 6.449219 3 6 3.449219 6 4 C 6 4.550781 6.449219 5 7 5 C 7.550781 5 8 4.550781 8 4 C 8 3.449219 7.550781 3 7 3 Z M 7 5 C 6.246094 5 5.558594 5.207031 5 5.625 C 4.441406 6.042969 4 6.726563 4 7.5 L 4 25.5 C 4 26.273438 4.441406 26.957031 5 27.375 C 5.304688 27.605469 5.65625 27.773438 6.03125 27.875 C 6.023438 27.917969 6 27.953125 6 28 C 6 28.550781 6.449219 29 7 29 C 7.550781 29 8 28.550781 8 28 C 8 27.953125 7.976563 27.917969 7.96875 27.875 C 8.34375 27.773438 8.695313 27.605469 9 27.375 C 9.558594 26.957031 10 26.273438 10 25.5 L 10 25 L 22 25 L 22 25.5 C 22 26.273438 22.441406 26.957031 23 27.375 C 23.304688 27.605469 23.65625 27.773438 24.03125 27.875 C 24.023438 27.917969 24 27.953125 24 28 C 24 28.550781 24.449219 29 25 29 C 25.550781 29 26 28.550781 26 28 C 26 27.953125 25.976563 27.917969 25.96875 27.875 C 26.34375 27.773438 26.695313 27.605469 27 27.375 C 27.558594 26.957031 28 26.273438 28 25.5 L 28 7.5 C 28 6.726563 27.558594 6.042969 27 5.625 C 26.441406 5.207031 25.753906 5 25 5 C 24.246094 5 23.558594 5.207031 23 5.625 C 22.441406 6.042969 22 6.726563 22 7.5 L 22 8 L 10 8 L 10 7.5 C 10 6.726563 9.558594 6.042969 9 5.625 C 8.441406 5.207031 7.753906 5 7 5 Z M 25 5 C 25.550781 5 26 4.550781 26 4 C 26 3.449219 25.550781 3 25 3 C 24.449219 3 24 3.449219 24 4 C 24 4.550781 24.449219 5 25 5 Z M 7 7 C 7.351563 7 7.644531 7.125 7.8125 7.25 C 7.980469 7.375 8 7.445313 8 7.5 L 8 25.5 C 8 25.554688 7.980469 25.625 7.8125 25.75 C 7.644531 25.875 7.351563 26 7 26 C 6.648438 26 6.355469 25.875 6.1875 25.75 C 6.019531 25.625 6 25.554688 6 25.5 L 6 7.5 C 6 7.445313 6.019531 7.375 6.1875 7.25 C 6.355469 7.125 6.648438 7 7 7 Z M 25 7 C 25.351563 7 25.644531 7.125 25.8125 7.25 C 25.980469 7.375 26 7.445313 26 7.5 L 26 25.5 C 26 25.554688 25.980469 25.625 25.8125 25.75 C 25.644531 25.875 25.351563 26 25 26 C 24.648438 26 24.355469 25.875 24.1875 25.75 C 24.019531 25.625 24 25.554688 24 25.5 L 24 7.5 C 24 7.445313 24.019531 7.375 24.1875 7.25 C 24.355469 7.125 24.648438 7 25 7 Z M 10 10 L 22 10 L 22 23 L 10 23 Z M 12 12 L 12 14 L 20 14 L 20 12 Z M 15 15 L 15 17 L 20 17 L 20 15 Z M 12 18 L 12 20 L 20 20 L 20 18 Z"/></svg>