<svg xmlns="http://www.w3.org/2000/svg" viewBox="0 0 32 32"><path d="M 3.6992188 2.3007812 L 2.3007812 3.6992188 L 9.1425781 10.541016 C 9.1296473 10.594288 9.1113631 10.645487 9.0996094 10.699219 L 11 12.5 L 11 12.398438 L 15.601562 17 L 15.5 17 L 17.800781 19.300781 C 17.841141 19.300781 17.881516 19.313812 17.921875 19.320312 L 18.300781 19.699219 L 19.800781 21.199219 L 23.900391 25.298828 C 23.900536 25.299439 23.900245 25.30017 23.900391 25.300781 L 25.699219 27.099609 L 25.701172 27.099609 L 28.300781 29.699219 L 29.699219 28.300781 L 25.556641 24.158203 C 24.687255 21.339567 22.604721 19.027195 19.900391 17.900391 C 21.800391 16.600391 23 14.499609 23 12.099609 C 23 8.1996094 19.9 5.0996094 16 5.0996094 C 13.41738 5.0996094 11.187909 6.4883581 9.9550781 8.5566406 L 3.6992188 2.3007812 z M 16 7 C 18.8 7 21 9.2 21 12 C 21 14.086994 19.776043 15.83791 17.994141 16.595703 L 11.404297 10.005859 C 12.16209 8.2239568 13.913006 7 16 7 z M 9.1992188 13.300781 C 9.5992188 15.200781 10.599219 16.800781 12.199219 17.800781 C 8.4992188 19.300781 6 22.9 6 27 L 8 27 C 8 24.1 9.5007812 21.599219 11.800781 20.199219 C 12.500781 21.799219 14.1 23 16 23 C 16.8 23 17.599219 22.800391 18.199219 22.400391 L 16.699219 20.900391 C 16.499219 21.000391 16.2 21 16 21 C 14.9 21 13.999219 20.300781 13.699219 19.300781 L 14.900391 19 L 9.1992188 13.300781 z"/></svg>