<svg xmlns="http://www.w3.org/2000/svg" viewBox="0 0 32 32"><path d="M 15 3 C 16.4 5.4 17.699609 7.9992188 18.599609 10.699219 C 18.399609 8.0992188 17.2 4.5 15 3 z M 25.699219 4 C 24.199219 7.2 21.799609 6.3003906 20.099609 7.9003906 C 19.499609 8.4003906 19.099609 9.5007812 19.099609 10.300781 C 19.099609 11.000781 19.299219 11.599219 19.699219 12.199219 C 21.999219 11.699219 24.400391 10.000781 25.400391 7.8007812 C 25.400391 8.0007812 25.199609 8.4992188 25.099609 8.6992188 C 24.099609 10.399219 22.000781 11.900781 20.300781 12.800781 C 21.100781 13.500781 22 14 23 14 C 26.8 14 28.299219 7.5 25.699219 4 z M 18.5 10.699219 L 18.5 12.5 C 18.5 17.139463 17.553831 24.56665 12.615234 26.865234 C 9.3916427 26.231806 7 23.424784 7 20 C 7 16.1 10.1 13 14 13 C 14.8 13 15.499219 13.100391 16.199219 13.400391 C 16.299219 12.800391 16.500781 12.199609 16.800781 11.599609 L 16.900391 11.5 C 16.000391 11.2 15 11 14 11 C 9 11 5 15 5 20 C 5 25 9 29 14 29 C 19 29 23 25 23 20 C 23 18.7 22.699219 17.400781 22.199219 16.300781 C 22.099219 16.300781 22.000781 16.4 21.800781 16.5 C 21.400781 16.8 20.900391 16.999609 20.400391 17.099609 C 20.800391 17.999609 21 19 21 20 C 21 23.9 17.9 27 14 27 C 13.972258 27 13.945629 26.996407 13.917969 26.996094 C 17.696874 24.587755 19.5 20.876862 19.5 16.5 C 19.5 14.5 19.2 12.499219 18.5 10.699219 z"/></svg>