<svg xmlns="http://www.w3.org/2000/svg" viewBox="0 0 32 32"><path d="M 16 3 C 8.855469 3 3 8.855469 3 16 C 3 23.144531 8.855469 29 16 29 C 23.144531 29 29 23.144531 29 16 C 29 8.855469 23.144531 3 16 3 Z M 16 5 C 18.355469 5 20.550781 5.757813 22.34375 7.03125 C 20.171875 6.496094 18.125 6.410156 16.40625 6.53125 C 15.101563 6.625 13.976563 6.820313 13.125 7.03125 C 12.851563 7.097656 12.675781 7.15625 12.46875 7.21875 C 12.347656 6.539063 12.3125 5.980469 12.3125 5.65625 C 13.46875 5.242188 14.703125 5 16 5 Z M 10.375 6.59375 C 10.429688 7.132813 10.542969 7.777344 10.71875 8.5 C 10.714844 8.699219 10.769531 8.894531 10.875 9.0625 C 11.203125 10.222656 11.703125 11.535156 12.5 12.90625 C 12.519531 12.9375 12.539063 12.96875 12.5625 13 C 13.175781 14.039063 13.933594 15.109375 14.90625 16.15625 C 14.652344 17.019531 14.339844 17.816406 14 18.53125 C 13.421875 18.003906 12.691406 17.226563 11.90625 16.09375 C 10.578125 14.179688 9.3125 11.421875 9.25 7.71875 C 9.25 7.601563 9.226563 7.484375 9.1875 7.375 C 9.554688 7.085938 9.972656 6.835938 10.375 6.59375 Z M 17.4375 8.46875 C 19.625 8.421875 22.261719 8.761719 24.90625 10.03125 C 25.027344 10.113281 25.167969 10.164063 25.3125 10.1875 C 25.632813 10.695313 25.921875 11.21875 26.15625 11.78125 C 23.042969 10.386719 20.15625 10.117188 17.875 10.28125 C 16.050781 10.410156 14.6875 10.808594 13.8125 11.125 C 13.46875 10.4375 13.207031 9.773438 13 9.15625 C 13.195313 9.097656 13.375 9.03125 13.625 8.96875 C 14.375 8.78125 15.359375 8.582031 16.53125 8.5 C 16.824219 8.480469 17.125 8.476563 17.4375 8.46875 Z M 7.34375 9.25 C 7.683594 12.660156 8.933594 15.320313 10.25 17.21875 C 11.277344 18.703125 12.328125 19.730469 13 20.3125 C 12.546875 21 12.058594 21.578125 11.59375 22.09375 C 10.976563 21.480469 10.101563 20.503906 9.25 19.1875 C 7.894531 17.089844 6.660156 14.195313 6.78125 10.71875 C 6.800781 10.535156 6.765625 10.351563 6.6875 10.1875 C 6.890625 9.867188 7.109375 9.546875 7.34375 9.25 Z M 18.9375 12.25 C 21.113281 12.222656 23.78125 12.652344 26.65625 14.25 C 26.714844 14.289063 26.777344 14.320313 26.84375 14.34375 C 26.917969 14.835938 26.992188 15.335938 27 15.84375 C 25.691406 15.257813 23.589844 14.554688 20.84375 14.5 C 20.65625 14.417969 20.449219 14.398438 20.25 14.4375 C 20.1875 14.453125 20.121094 14.472656 20.0625 14.5 C 20.042969 14.5 20.019531 14.5 20 14.5 C 18.921875 14.53125 17.753906 14.6875 16.53125 14.96875 C 15.871094 14.277344 15.316406 13.574219 14.84375 12.875 C 15.589844 12.640625 16.675781 12.378906 18.03125 12.28125 C 18.320313 12.261719 18.625 12.253906 18.9375 12.25 Z M 5.125 14.40625 C 5.617188 16.714844 6.5625 18.699219 7.5625 20.25 C 8.527344 21.746094 9.480469 22.808594 10.1875 23.5 C 9.699219 23.914063 9.289063 24.210938 8.96875 24.4375 C 6.542969 22.417969 5 19.390625 5 16 C 5 15.460938 5.050781 14.925781 5.125 14.40625 Z M 21.34375 16.53125 C 22.128906 16.574219 22.851563 16.648438 23.5 16.78125 C 23.476563 16.984375 23.453125 17.171875 23.40625 17.4375 C 23.269531 18.195313 23.023438 19.195313 22.59375 20.28125 C 21.734375 22.449219 20.171875 24.957031 17.25 26.6875 C 17.152344 26.753906 17.066406 26.839844 17 26.9375 C 16.671875 26.96875 16.335938 27 16 27 C 15.523438 27 15.054688 26.964844 14.59375 26.90625 C 17.382813 24.933594 19.066406 22.519531 20.0625 20.4375 C 20.636719 19.238281 20.980469 18.148438 21.1875 17.28125 C 21.257813 16.984375 21.300781 16.765625 21.34375 16.53125 Z M 19.1875 16.5625 C 19.230469 16.558594 19.273438 16.566406 19.3125 16.5625 C 19.292969 16.65625 19.273438 16.710938 19.25 16.8125 C 19.074219 17.554688 18.753906 18.507813 18.25 19.5625 C 17.242188 21.667969 15.46875 24.148438 12.25 26.03125 C 12.144531 26.078125 12.050781 26.140625 11.96875 26.21875 C 11.519531 26.039063 11.105469 25.828125 10.6875 25.59375 C 11.011719 25.34375 11.40625 25.023438 11.8125 24.65625 C 12.082031 24.664063 12.34375 24.5625 12.539063 24.375 C 12.734375 24.1875 12.84375 23.925781 12.84375 23.65625 C 13.578125 22.871094 14.332031 21.925781 15.03125 20.75 C 15.117188 20.648438 15.179688 20.53125 15.21875 20.40625 C 15.785156 19.40625 16.285156 18.261719 16.6875 16.96875 C 17.566406 16.75 18.390625 16.632813 19.1875 16.5625 Z M 25.4375 17.34375 C 26.03125 17.558594 26.488281 17.769531 26.8125 17.9375 C 26.269531 20.960938 24.507813 23.554688 22.03125 25.1875 C 23.160156 23.816406 23.945313 22.355469 24.46875 21.03125 C 24.957031 19.800781 25.21875 18.679688 25.375 17.8125 C 25.410156 17.621094 25.414063 17.503906 25.4375 17.34375 Z"/></svg>