<?xml version="1.0" encoding="UTF-8" standalone="no"?>
<svg width="158px" height="50px" viewBox="0 0 158 50" version="1.1" xmlns="http://www.w3.org/2000/svg" xmlns:xlink="http://www.w3.org/1999/xlink" xmlns:sketch="http://www.bohemiancoding.com/sketch/ns">
    <g id="Page-1" stroke="none" stroke-width="1" sketch:type="MSPage">
        <g id="jwt_logo" sketch:type="MSLayerGroup" transform="translate(-292.000000, -563.000000)">
            <g id="Group" transform="translate(0.000000, 413.000000)" sketch:type="MSShapeGroup">
                <g transform="translate(150.000000, 125.000000)" id="Shape">
                    <path d="M156.1,25.8 L156.1,60.8 C156.1,68.5 149.8,74.8 142.1,74.8 L142.1,67.8 C146,67.8 149.1,64.7 149.1,60.8 L149.1,25.8 L156.1,25.8 L156.1,25.8 Z M283.9,32.8 L299.7,32.8 L299.7,25.8 L261.2,25.8 L261.2,32.8 L276.9,32.8 L276.9,74.8 L283.9,74.8 L283.9,32.8 L283.9,32.8 Z M240.1,25.8 L240.1,60.8 C240.1,64.7 237,67.8 233.1,67.8 C229.2,67.8 226.1,64.7 226.1,60.8 L226.1,39.8 C226.1,32.1 219.8,25.8 212.1,25.8 C204.4,25.8 198.1,32.1 198.1,39.8 L198.1,60.8 C198.1,64.7 195,67.8 191.1,67.8 C187.2,67.8 184.1,64.7 184.1,60.8 L184.1,25.8 L177.1,25.8 L177.1,60.8 C177.1,68.5 183.4,74.8 191.1,74.8 C198.8,74.8 205.1,68.5 205.1,60.8 L205.1,39.8 C205.1,35.9 208.2,32.8 212.1,32.8 C216,32.8 219.1,35.9 219.1,39.8 L219.1,39.8 L219.1,60.8 C219.1,68.5 225.4,74.8 233.1,74.8 C240.8,74.8 247.1,68.5 247.1,60.8 L247.1,25.8 L240.1,25.8 L240.1,25.8 Z"></path>
                </g>
            </g>
        </g>
    </g>
</svg>