<?xml version="1.0" encoding="UTF-8" standalone="no"?>
<!DOCTYPE svg PUBLIC "-//W3C//DTD SVG 1.1//EN" "http://www.w3.org/Graphics/SVG/1.1/DTD/svg11.dtd">
<svg width="100%" height="100%" viewBox="0 0 171 171" version="1.1" xmlns="http://www.w3.org/2000/svg" xmlns:xlink="http://www.w3.org/1999/xlink" xml:space="preserve" xmlns:serif="http://www.serif.com/" style="fill-rule:evenodd;clip-rule:evenodd;stroke-linecap:round;stroke-linejoin:round;stroke-miterlimit:1.5;">
    <g transform="matrix(1,0,0,1,-194,-2459)">
        <g id="Quickstarts-dark" transform="matrix(0.132812,0,0,0.236111,194.124,2459.75)">
            <rect x="0" y="0" width="1280" height="720" style="fill:none;"/>
            <g transform="matrix(2.62431,0,0,1.47618,-8679.44,-1487.96)">
                <circle cx="3551.19" cy="1251.86" r="239.558" style="fill:rgb(31,35,71);"/>
                <clipPath id="_clip1">
                    <circle cx="3551.19" cy="1251.86" r="239.558"/>
                </clipPath>
                <g clip-path="url(#_clip1)">
                    <g transform="matrix(1.71609,1.71609,-1.71609,1.71609,-1268.78,-7899.98)">
                        <circle cx="4070.83" cy="1262.14" r="98.714" style="fill:none;"/>
                        <clipPath id="_clip2">
                            <circle cx="4070.83" cy="1262.14" r="98.714"/>
                        </clipPath>
                        <g clip-path="url(#_clip2)">
                            <g transform="matrix(0.393909,0,0,0.393909,2445.45,776.948)">
                                <rect x="3997.77" y="961.766" width="18.465" height="269.97" style="fill:rgb(46,51,103);"/>
                            </g>
                            <g transform="matrix(0.393909,0,0,0.0527091,2526.22,1112.74)">
                                <rect x="3997.77" y="961.766" width="18.465" height="269.97" style="fill:rgb(46,51,103);"/>
                            </g>
                            <g transform="matrix(0.393909,0,0,0.0585947,2526.22,1125.08)">
                                <rect x="3997.77" y="961.766" width="18.465" height="269.97" style="fill:rgb(46,51,103);"/>
                            </g>
                            <g transform="matrix(0.393909,0,0,0.109604,2526.22,1101.98)">
                                <rect x="3997.77" y="961.766" width="18.465" height="269.97" style="fill:rgb(46,51,103);"/>
                            </g>
                            <g transform="matrix(0.393909,0,0,0.109604,2526.22,1230.48)">
                                <rect x="3997.77" y="961.766" width="18.465" height="269.97" style="fill:rgb(46,51,103);"/>
                            </g>
                            <g transform="matrix(0.393909,0,0,0.11556,2471.66,1220.64)">
                                <rect x="3997.77" y="961.766" width="18.465" height="269.97" style="fill:rgb(46,51,103);"/>
                            </g>
                            <g transform="matrix(0.393909,0,0,0.0184469,2471.66,1304.24)">
                                <rect x="3997.77" y="961.766" width="18.465" height="269.97" style="fill:rgb(46,51,103);"/>
                            </g>
                            <g transform="matrix(0.393909,0,0,0.0184469,2471.66,1297.09)">
                                <rect x="3997.77" y="961.766" width="18.465" height="269.97" style="fill:rgb(46,51,103);"/>
                            </g>
                            <g transform="matrix(-0.393909,-4.824e-17,6.08207e-17,-0.496639,5715.51,1883.31)">
                                <rect x="3997.77" y="961.766" width="18.465" height="269.97" style="fill:rgb(46,51,103);"/>
                            </g>
                            <g transform="matrix(-0.393909,-4.824e-17,3.58832e-17,-0.293008,5566,1632.49)">
                                <rect x="3997.77" y="961.766" width="18.465" height="269.97" style="fill:rgb(46,51,103);"/>
                            </g>
                            <g transform="matrix(-0.393909,-4.824e-17,7.80262e-18,-0.0637132,5566,1325.57)">
                                <rect x="3997.77" y="961.766" width="18.465" height="269.97" style="fill:rgb(46,51,103);"/>
                            </g>
                            <g transform="matrix(0.393909,0,0,0.0209215,2445.45,1253.19)">
                                <rect x="3997.77" y="961.766" width="18.465" height="269.97" style="fill:rgb(46,51,103);"/>
                            </g>
                            <g transform="matrix(-0.393909,-4.824e-17,3.23034e-18,-0.0263778,5715.51,1282.87)">
                                <rect x="3997.77" y="961.766" width="18.465" height="269.97" style="fill:rgb(46,51,103);"/>
                            </g>
                            <g transform="matrix(0.393909,0,0,0.053065,2445.45,1233.23)">
                                <rect x="3997.77" y="961.766" width="18.465" height="269.97" style="fill:rgb(46,51,103);"/>
                            </g>
                            <g transform="matrix(-0.393909,-4.824e-17,8.19339e-18,-0.0669041,5715.51,1308.03)">
                                <rect x="3997.77" y="961.766" width="18.465" height="269.97" style="fill:rgb(46,51,103);"/>
                            </g>
                        </g>
                    </g>
                </g>
                <circle cx="3551.19" cy="1251.86" r="239.558" style="fill:none;stroke:rgb(66,79,135);stroke-width:5.74px;"/>
            </g>
            <g transform="matrix(4.28611,0,0,2.41094,-17754,-2432.22)">
                <path d="M4201.07,1149.18L4218.25,1149.18L4183.89,1203.47L4183.89,1156.32L4166.7,1156.32L4201.07,1102.04L4201.07,1149.18Z" style="fill:rgb(90,26,68);stroke:rgb(255,32,105);stroke-width:5.27px;"/>
            </g>
            <g transform="matrix(3.31241,0,0,1.86323,-13113.8,-1584.1)">
                <path d="M4201.07,1149.18L4218.25,1149.18L4183.89,1203.47L4183.89,1156.32L4166.7,1156.32L4201.07,1102.04L4201.07,1149.18Z" style="fill:rgb(90,26,68);stroke:rgb(255,32,105);stroke-width:6.82px;"/>
            </g>
            <g transform="matrix(2.65128,0,0,1.49135,-10239.1,-1570.05)">
                <path d="M4201.07,1149.18L4218.25,1149.18L4183.89,1203.47L4183.89,1156.32L4166.7,1156.32L4201.07,1102.04L4201.07,1149.18Z" style="fill:rgb(90,26,68);stroke:rgb(255,32,105);stroke-width:8.52px;"/>
            </g>
            <g transform="matrix(1.53681e-16,1.41176,-2.5098,8.64457e-17,3897.62,-5414.72)">
                <path d="M4090.42,1177.8L4195.47,1370.82L3985.38,1370.82L4090.42,1177.8Z" style="fill:rgb(90,26,68);stroke:rgb(255,32,105);stroke-width:9px;"/>
            </g>
        </g>
    </g>
</svg>
