<?xml version="1.0" encoding="UTF-8" standalone="no"?>
<!DOCTYPE svg PUBLIC "-//W3C//DTD SVG 1.1//EN" "http://www.w3.org/Graphics/SVG/1.1/DTD/svg11.dtd">
<svg width="100%" height="100%" viewBox="0 0 256 151" version="1.1" xmlns="http://www.w3.org/2000/svg" xmlns:xlink="http://www.w3.org/1999/xlink" xml:space="preserve" xmlns:serif="http://www.serif.com/" style="fill-rule:evenodd;clip-rule:evenodd;stroke-linejoin:round;stroke-miterlimit:2;">
    <g transform="matrix(0.629388,0,0,1.44356,-7599.68,-233.123)">
        <g>
            <g transform="matrix(0.194437,-0.0645138,0.129819,0.0743761,8049.22,594.479)">
                <path d="M16251.9,9614.35C16251.9,9614.35 16191.6,9353.19 16153.6,9249.9C16126.3,9175.67 16028.7,9014.64 15984.6,8950.36C15848.4,8751.74 15598,8571.25 15583.4,8539.31L15725.8,8424.95C15725.8,8424.95 15655.3,8375.28 15745.8,8452.17C15762.8,8466.6 15827.9,8497.06 15856.6,8494.8C15856.6,8494.8 15852.2,8545.52 15870.1,8562.31C15942.1,8629.69 16036.5,8720.43 16097,8800C16273.1,9031.51 16423.6,9499.1 16423.6,9499.1L16251.9,9614.35Z" style="fill:url(#_Linear1);"/>
                <clipPath id="_clip2">
                    <path d="M16251.9,9614.35C16251.9,9614.35 16191.6,9353.19 16153.6,9249.9C16126.3,9175.67 16028.7,9014.64 15984.6,8950.36C15848.4,8751.74 15598,8571.25 15583.4,8539.31L15725.8,8424.95C15725.8,8424.95 15655.3,8375.28 15745.8,8452.17C15762.8,8466.6 15827.9,8497.06 15856.6,8494.8C15856.6,8494.8 15852.2,8545.52 15870.1,8562.31C15942.1,8629.69 16036.5,8720.43 16097,8800C16273.1,9031.51 16423.6,9499.1 16423.6,9499.1L16251.9,9614.35Z"/>
                </clipPath>
                <g clip-path="url(#_clip2)">
                    <g transform="matrix(4.77691,0,0,10.9563,-44355.9,6409.76)">
                        <g transform="matrix(0.803075,-0.148427,0.340431,0.350139,9814.78,519.36)">
                            <path d="M3314.01,549.049C3314.01,549.049 3287.17,528.135 3287.21,540C3287.26,551.865 3288.65,584.484 3288.65,584.484C3288.65,584.484 3314.5,591.056 3316.59,579.857C3318.68,568.658 3314.01,549.049 3314.01,549.049Z" style="fill:url(#_Linear3);"/>
                        </g>
                        <g transform="matrix(0.799448,-0.163361,0.343909,0.344658,9784.18,512.165)">
                            <path d="M3277.7,807.608L3279.42,786.38L3298.54,770.085L3314.14,774.549L3295.91,824.588L3277.7,807.608Z" style="fill:url(#_Linear4);"/>
                        </g>
                        <g transform="matrix(-0.0417398,-0.35655,0.765748,-0.0170406,12223.9,1456.25)">
                            <path d="M3254.86,740.373L3277.7,770.085L3298.93,757.722L3306.02,743.207L3283.62,727.208L3254.86,740.373Z" style="fill:url(#_Linear5);"/>
                        </g>
                        <g transform="matrix(0.869401,-0.031392,0.0405822,0.380082,9780.77,108.931)">
                            <path d="M3299.37,719.624L3304.91,707.476L3296.4,694.266L3306.9,671.373L3323.33,680.581L3322.06,733.594L3299.37,719.624Z" style="fill:url(#_Linear6);"/>
                        </g>
                        <g transform="matrix(0.837594,-0.106137,0.243434,0.365189,9716.83,371.625)">
                            <path d="M3266.42,715.383L3290.56,705.826L3280.28,662.73L3258.93,694.656L3266.42,715.383Z" style="fill:url(#_Linear7);"/>
                        </g>
                        <g transform="matrix(0.837594,-0.106137,0.243434,0.365189,9742.09,372.264)">
                            <path d="M3271.48,654.648L3287.87,656.118L3300.31,645.576L3305.1,656.279L3316.09,641.521L3283.62,607.419L3283.62,633.747L3271.48,654.648Z" style="fill:url(#_Linear8);"/>
                        </g>
                        <g transform="matrix(0.871218,0.0185082,-0.0424502,0.379849,9808.9,-40.5881)">
                            <path d="M3266.42,638.624L3274.75,631.849L3274.75,576.568L3260.01,559.79C3260.01,559.79 3270.24,625.065 3266.42,638.624Z" style="fill:url(#_Linear9);"/>
                        </g>
                        <g transform="matrix(0.974304,-0.0128276,0.0303979,0.438896,9417.54,19.5229)">
                            <path d="M3317.6,591.891L3293.78,599.207L3320.05,621.653L3317.6,591.891Z" style="fill:url(#_Linear10);"/>
                        </g>
                        <g transform="matrix(-0.594105,0.0810624,-0.260865,-0.363436,14720.1,153.147)">
                            <path d="M3317.6,591.891L3293.78,599.207L3310.72,631.972L3320.05,621.653L3317.6,591.891Z" style="fill:url(#_Linear11);"/>
                        </g>
                        <g transform="matrix(0.774178,-0.1752,0.401836,0.33754,9876.89,614.774)">
                            <path d="M3258.59,552.404L3274.75,553.108L3282.1,524.326L3256.28,489.703L3250.69,516.847L3258.59,552.404Z" style="fill:url(#_Linear12);"/>
                        </g>
                        <g transform="matrix(0.837594,-0.106137,0.311892,0.467888,9717.2,322.99)">
                            <path d="M3293.78,514.663L3306.92,502.357L3293.78,483.03L3267.38,490.412L3274.75,508.291L3293.78,514.663Z" style="fill:url(#_Linear13);"/>
                        </g>
                        <g transform="matrix(0.871621,0.014463,-0.0331722,0.380025,9735.12,-34.362)">
                            <path d="M3287.15,470.129L3300.51,463.084L3293.78,436.973L3274.75,432.091L3274.75,456.504L3287.15,470.129Z" style="fill:url(#_Linear14);"/>
                        </g>
                        <g transform="matrix(0.906179,-0.061391,0.133927,0.375791,9566.4,231.279)">
                            <path d="M3267.38,475.69L3260.01,455.828L3241.61,454.99L3252.18,477.776C3252.18,477.776 3252.54,474.07 3267.38,475.69Z" style="fill:#7c3b1e;"/>
                        </g>
                        <g transform="matrix(0.208006,-0.369328,0.847087,0.0906901,11529.5,1354.25)">
                            <path d="M3259.7,427.877L3257.11,442.714L3236.66,439.369L3235.75,427.604L3259.7,427.877Z" style="fill:#7c3b1e;"/>
                        </g>
                    </g>
                    <g transform="matrix(-1,0,0,1,31288.6,37)">
                        <path d="M15549.4,8395.91C15549.4,8395.91 15502.4,8502.49 15522.8,8670.34C15576.5,8622.32 15635.5,8569.48 15699.9,8511.81L15549.4,8395.91Z" style="fill-opacity:0.23;"/>
                    </g>
                </g>
            </g>
            <g transform="matrix(0.453095,-0.0692936,0.158931,0.197549,2509.11,-170.616)">
                <path d="M18399.6,8455.01C18399.6,8455.01 18436.5,8468.78 18470.9,8482.09C18489.4,8489.2 18507.1,8496.17 18518.2,8500.87C18531.2,8506.39 18553.7,8514.32 18584.1,8529.63C18602.2,8538.71 18622.9,8550.42 18646.2,8565.72C18664.1,8577.54 18683.5,8591.52 18704.2,8608.08C18721.4,8621.85 18739.6,8637.35 18758.6,8655.03C18782.4,8682.05 18801.6,8706.09 18816.9,8726.59C18848.1,8768.24 18863.2,8795.34 18868.1,8803.61C18863.4,8795.2 18849.1,8767.6 18818.9,8725.15C18804,8704.2 18785.2,8679.67 18761.9,8652.01L18761.8,8651.92L18761.7,8651.84C18742.9,8633.76 18724.9,8617.77 18707.7,8603.76C18687,8586.9 18667.4,8572.82 18649.3,8560.97C18625.8,8545.59 18604.7,8534 18586.4,8525.02C18555.7,8509.96 18532.9,8502.36 18519.8,8496.99C18508.6,8492.45 18490.7,8485.71 18472.2,8478.89C18437.4,8466.14 18400.3,8453.05 18400.3,8453.05L18399.6,8455.01Z"/>
            </g>
            <g transform="matrix(0.453095,-0.0692936,0.158931,0.197549,2509.11,-170.616)">
                <path d="M18459.5,8389.16C18459.5,8389.16 18478,8396.03 18497.7,8396.29C18505.8,8396.4 18514,8395.4 18521.3,8392.43C18521.7,8395.48 18522.9,8401.1 18526.4,8406.59C18529.2,8410.9 18533.3,8415.13 18539.5,8418.01C18547.4,8421.67 18580.8,8435.51 18620.7,8455.27C18637.5,8463.61 18655.5,8473 18673.2,8483.13C18690.6,8493.09 18707.7,8503.77 18723.2,8514.87C18734.5,8522.91 18744.9,8531.15 18753.9,8539.54L18753.9,8539.55C18768.2,8552.53 18784.4,8568.13 18801.1,8584.69C18816.4,8599.79 18832.1,8615.69 18847.1,8631.2C18892,8677.45 18931,8720.23 18935.4,8727.74C18931.1,8720.12 18893.3,8676.22 18849.5,8628.92C18834.8,8613.04 18819.5,8596.79 18804.4,8581.41C18787.9,8564.51 18771.9,8548.68 18757.7,8535.46C18748.6,8526.89 18738.1,8518.39 18726.6,8510.19C18710.9,8498.97 18693.6,8488.26 18675.9,8478.31C18658.1,8468.25 18639.9,8458.98 18622.9,8450.8C18582.7,8431.47 18549,8418.17 18541,8414.61C18535.5,8412.15 18531.8,8408.48 18529.3,8404.71C18524.6,8397.52 18524.3,8390.03 18524.3,8390.03L18524.3,8387.55L18522,8388.62C18514.7,8392.23 18506.1,8393.49 18497.7,8393.53C18478.4,8393.61 18460.2,8387.2 18460.2,8387.2L18459.5,8389.16Z"/>
            </g>
            <g transform="matrix(0.453095,-0.0692936,0.158931,0.197549,2509.11,-170.616)">
                <path d="M18506.8,8396.39C18506.8,8396.39 18512.2,8396.85 18516.3,8396.7C18517.2,8396.67 18518,8396.59 18518.7,8396.48C18518.8,8397.24 18518.9,8398.22 18519.2,8399.35C18519.4,8400.24 18519.7,8401.22 18520.1,8402.25C18520.5,8403.34 18521.1,8404.49 18521.8,8405.64C18522.4,8406.67 18523.2,8407.7 18524,8408.7C18525.2,8410.12 18526.7,8411.51 18528.4,8412.76C18530.6,8414.31 18533.2,8415.64 18536.3,8416.63L18536.6,8416.03C18534.3,8414.8 18532.5,8413.4 18530.9,8411.94C18529.1,8410.28 18527.7,8408.52 18526.6,8406.78C18525.9,8405.8 18525.4,8404.83 18524.9,8403.89C18524.3,8402.84 18523.9,8401.82 18523.5,8400.88C18523.1,8399.98 18522.8,8399.15 18522.5,8398.39C18521.8,8396.12 18521.5,8394.6 18521.5,8394.6L18521.4,8392.32L18519.4,8393.39C18518.6,8393.9 18516.8,8394.38 18514.7,8394.84C18511,8395.68 18506.8,8396.39 18506.8,8396.39Z" style="fill:#ebdaa6;fill-opacity:0.9;"/>
            </g>
            <g transform="matrix(0.453095,-0.0692936,0.158931,0.197549,2509.11,-170.616)">
                <path d="M18536.3,8416.72C18536.3,8416.72 18597,8446.11 18650.7,8474.94C18681.8,8491.69 18710.7,8508.18 18723.4,8518.87C18729.1,8523.64 18738.3,8532.06 18749.7,8542.8C18757.5,8550.06 18766.2,8558.38 18775.6,8567.39C18785.4,8576.72 18795.8,8586.77 18806.5,8597.15C18821.8,8611.89 18837.5,8627.28 18852.6,8642.14C18893.3,8682.35 18928.9,8718.73 18935,8727.98L18935.8,8727.51C18928.9,8716.49 18882.4,8667.05 18834.4,8618.19C18812.3,8595.81 18790,8573.52 18770.9,8555.12C18751.5,8536.35 18735.4,8521.65 18726.9,8514.64C18720.5,8509.46 18710.4,8502.89 18697.9,8495.67C18684.7,8488.04 18669,8479.64 18652.6,8471.26C18598.3,8443.56 18536.6,8415.94 18536.6,8415.94L18536.3,8416.72Z" style="fill:#ebdaa6;fill-opacity:0.9;"/>
            </g>
            <g transform="matrix(0.480161,0,0,0.209349,3343.84,-1536.33)">
                <path d="M18337.5,8232.68C18349.6,8227.61 18356.5,8229.32 18376.7,8230.33C18394,8231.2 18412.5,8236.29 18418,8238C18431,8242 18447,8247 18449,8279C18451,8311 18452,8339 18449,8346C18449,8346 18472,8353 18457,8393C18442,8433 18389,8454 18385,8471C18381,8488 18405,8529 18371,8553C18371,8553 18364,8560 18360,8572C18356,8584 18329,8607 18296,8592C18263,8577 18273,8561 18273,8561C18273,8561 18260.8,8559.66 18258,8554C18255,8548 18245.3,8532.75 18270,8508C18273.5,8504.46 18274,8471 18269,8471C18265.8,8471 18254,8473.16 18254,8470C18254,8462 18280,8446 18280,8440C18280,8435.88 18272,8436 18277,8426C18280.4,8419.19 18294,8395 18291,8390C18288,8385 18280,8372 18278,8359C18276.2,8346.98 18289,8344 18289,8340C18289,8336 18275,8295 18283,8278C18291,8261 18320.4,8239.88 18337.5,8232.68Z" style="fill:url(#_Linear15);"/>
                <clipPath id="_clip16">
                    <path d="M18337.5,8232.68C18349.6,8227.61 18356.5,8229.32 18376.7,8230.33C18394,8231.2 18412.5,8236.29 18418,8238C18431,8242 18447,8247 18449,8279C18451,8311 18452,8339 18449,8346C18449,8346 18472,8353 18457,8393C18442,8433 18389,8454 18385,8471C18381,8488 18405,8529 18371,8553C18371,8553 18364,8560 18360,8572C18356,8584 18329,8607 18296,8592C18263,8577 18273,8561 18273,8561C18273,8561 18260.8,8559.66 18258,8554C18255,8548 18245.3,8532.75 18270,8508C18273.5,8504.46 18274,8471 18269,8471C18265.8,8471 18254,8473.16 18254,8470C18254,8462 18280,8446 18280,8440C18280,8435.88 18272,8436 18277,8426C18280.4,8419.19 18294,8395 18291,8390C18288,8385 18280,8372 18278,8359C18276.2,8346.98 18289,8344 18289,8340C18289,8336 18275,8295 18283,8278C18291,8261 18320.4,8239.88 18337.5,8232.68Z"/>
                </clipPath>
                <g clip-path="url(#_clip16)">
                    <path d="M18268.5,8509.57C18268.5,8509.57 18270.9,8522.22 18278.3,8524.84C18285.6,8527.46 18314.7,8532.18 18366.4,8520.64C18366.4,8520.64 18376.5,8517.23 18379.5,8513.27C18382.6,8509.32 18387.4,8496.02 18387.4,8496.02L18390.3,8513.66L18389,8528.3C18389,8528.3 18386.6,8537.19 18379.4,8542.4C18372.1,8547.61 18362,8554.81 18343,8556.57C18324,8558.33 18274.9,8560.41 18268.5,8559.07C18262.2,8557.73 18256.8,8558.36 18253.8,8544.49C18253.8,8544.49 18253.4,8531.45 18257.5,8524.75L18264.8,8513.78L18268.5,8509.57Z" style="fill:url(#_Linear17);"/>
                    <path d="M18383.6,8467.97C18383.6,8467.97 18376.6,8444.06 18379,8424C18379,8424 18382.2,8400.74 18366,8390.04C18349.9,8379.35 18344,8373.55 18339.7,8375.61C18335.4,8377.67 18326.1,8391.87 18324,8391.41C18322,8390.96 18313.5,8376.24 18309.6,8377.42C18305.8,8378.59 18298.1,8382.07 18291.4,8391.69C18291.4,8391.69 18287.2,8406.03 18285.6,8409.55C18284.1,8413.07 18281.1,8419.72 18279.1,8422.73C18277.1,8425.75 18275.8,8427.25 18275.6,8429.74C18275.4,8432.24 18276.2,8434.7 18276.7,8435.35C18277.3,8436 18280.3,8438.08 18280,8439.74C18279.6,8441.4 18272.6,8451.57 18265.4,8456.43C18258.2,8461.3 18251.6,8465.63 18253.1,8469.5L18255.1,8471.26C18255.1,8471.26 18310.7,8466.12 18320.9,8466C18331.1,8465.87 18367.1,8465.14 18372.6,8465.91C18378.1,8466.67 18382.4,8467.75 18383.7,8469.62L18383.6,8467.97Z" style="fill:#85623f;"/>
                    <path d="M18280,8439.8C18280,8439.8 18271,8451.62 18262.7,8458.24C18254.5,8464.87 18252.5,8468.97 18253.8,8470.12C18255.1,8471.26 18294.7,8466.76 18314.9,8466.27C18335.2,8465.79 18363.1,8464.8 18370.7,8465.75C18378.2,8466.7 18382.4,8467.98 18383.7,8469.62C18383.7,8469.62 18383,8443.59 18389,8430C18389,8430 18356.7,8441.2 18340.9,8442.66C18325,8444.12 18287.1,8446.05 18280,8439.8Z" style="fill:url(#_Linear18);"/>
                    <g transform="matrix(0.979388,-0.232344,0.232344,0.979388,15068.8,8771.98)">
                        <g transform="matrix(1,0,0,1,95.3283,0)">
                            <path d="M3271.24,261.276L3270.24,274.747L3285.51,289.106L3297.52,289.043L3290.84,266.22L3271.24,261.276Z" style="fill:url(#_Linear19);"/>
                        </g>
                        <g transform="matrix(0.856824,-0.233251,0.262669,0.964886,475.245,779.452)">
                            <path d="M3290.57,299.321L3274.93,297.469L3274.58,319.892L3295.28,328.626L3297.52,314.05L3290.57,299.321Z" style="fill:url(#_Linear20);"/>
                        </g>
                        <g transform="matrix(1,-2.77556e-17,0,1,94.1032,-3.49308)">
                            <path d="M3274.58,333.925L3283.88,340.103L3274.58,351.785L3274.58,333.925Z" style="fill:url(#_Linear21);"/>
                        </g>
                        <g transform="matrix(1,-2.77556e-17,0,1,98.5974,-7.03043)">
                            <path d="M3260.93,286.38L3270.24,290.905L3260.04,299.577L3260.93,286.38Z" style="fill:url(#_Linear22);"/>
                        </g>
                        <g transform="matrix(1,-2.77556e-17,0,1,97.1656,3.17765)">
                            <path d="M3263.34,259.172L3260.04,266.526L3253.7,258.804L3263.34,259.172Z" style="fill:url(#_Linear23);"/>
                        </g>
                    </g>
                    <g transform="matrix(1.06622,0.285693,-0.285693,1.06622,1142.09,-5769.99)">
                        <g transform="matrix(-0.125522,0.270589,0.366889,0.170194,18533,7294.8)">
                            <path d="M3293.78,514.663L3306.92,502.357L3293.78,483.03L3267.38,490.412L3274.75,508.291L3293.78,514.663Z" style="fill:url(#_Linear24);"/>
                        </g>
                        <g transform="matrix(-0.346886,-0.0551062,-0.0891433,0.561144,19496.5,8153.33)">
                            <path d="M3291.78,513.694L3306.92,502.357L3293.78,483.03L3263.44,490.52L3269.22,510.052L3291.78,513.694Z" style="fill:url(#_Linear25);"/>
                        </g>
                    </g>
                    <path d="M18379.7,8543.1L18373.9,8550.82L18369.1,8555.22L18360.6,8568.92L18353.9,8581.29L18341.1,8591.03C18341.1,8591.03 18328.2,8596.98 18323.3,8596.6C18318.4,8596.22 18305.4,8595.32 18299.2,8592.34C18293,8589.35 18283.1,8586.06 18279,8581.28C18274.8,8576.5 18271.9,8571.75 18271.8,8569.14C18271.6,8566.53 18272.7,8560.61 18273.3,8559.36C18273.3,8559.36 18321.9,8560.86 18345.9,8556.31C18369.8,8551.76 18379.7,8543.1 18379.7,8543.1Z" style="fill:url(#_Linear26);"/>
                </g>
            </g>
            <g transform="matrix(-0.711166,-0.11902,-0.327288,0.37175,13598.8,212.06)">
                <ellipse cx="1719.3" cy="557.778" rx="2.138" ry="2.911" style="fill:#89693b;"/>
            </g>
            <g transform="matrix(-0.649814,-0.108752,-0.208005,0.236262,13422.5,273.065)">
                <ellipse cx="1719.3" cy="557.778" rx="2.138" ry="2.911" style="fill:#89693b;"/>
            </g>
            <g transform="matrix(-1.06675,-0.17853,-0.463278,0.526214,14288.1,232.368)">
                <ellipse cx="1719.3" cy="557.778" rx="2.138" ry="2.911" style="fill:#89693b;"/>
            </g>
            <g transform="matrix(1.14942,0,0,0.872288,9232.65,-194.456)">
                <g transform="matrix(-0.553757,0.318143,0.553757,0.318143,3235.72,-261.762)">
                    <path d="M1721.55,534.741C1721.55,534.741 1727.06,507.696 1757.27,521.275C1757.27,521.275 1745.16,558.896 1721.55,534.741Z" style="fill:#e0c9b2;"/>
                    <clipPath id="_clip27">
                        <path d="M1721.55,534.741C1721.55,534.741 1727.06,507.696 1757.27,521.275C1757.27,521.275 1745.16,558.896 1721.55,534.741Z"/>
                    </clipPath>
                    <g clip-path="url(#_clip27)">
                        <g transform="matrix(-0.549808,0,0,0.549808,3506.97,356.129)">
                            <path d="M3182.39,300.371C3182.39,300.371 3225.41,284.064 3246.31,326.01L3244.55,297.469L3206.15,284.323L3182.39,300.371Z" style="fill-opacity:0.15;"/>
                        </g>
                    </g>
                </g>
                <g transform="matrix(-0.766793,0.440536,0.772728,0.443946,3489.55,-541.633)">
                    <circle cx="1738.5" cy="530.726" r="2.531" style="fill:#895723;"/>
                </g>
                <g transform="matrix(-0.549503,0.315699,0.553757,0.318143,3228.01,-257.839)">
                    <circle cx="1738.5" cy="530.726" r="2.531"/>
                </g>
                <g transform="matrix(-0.553757,0.318143,0.553757,0.318143,3235.72,-261.762)">
                    <path d="M1757.37,521.071C1757.48,521.125 1757.52,521.248 1757.48,521.357C1753.35,532.942 1748.49,538.938 1743.74,541.651C1738.31,544.753 1732.97,543.69 1728.82,541.614C1723.99,539.199 1720.78,535.383 1720.78,535.383C1720.57,535.129 1720.5,534.784 1720.59,534.465C1721.59,531.083 1722.86,528.303 1724.34,526.044C1727.39,521.39 1731.27,518.889 1735.29,517.731C1740.01,516.372 1744.92,516.875 1748.91,517.872C1753.85,519.102 1757.37,521.071 1757.37,521.071ZM1756.97,521.39C1756.18,521.021 1752.95,519.596 1748.72,518.74C1744.86,517.961 1740.17,517.661 1735.72,519.121C1732.61,520.142 1729.62,522.044 1727.13,525.276C1725.34,527.604 1723.8,530.614 1722.65,534.487C1723.56,535.463 1726.16,538.069 1729.69,539.916C1733.37,541.842 1738.07,542.948 1743.02,540.345C1747.68,537.896 1752.52,532.305 1756.97,521.39L1756.97,521.39Z"/>
                </g>
                <g transform="matrix(-0.553757,0.318143,0.553757,0.318143,3235.72,-261.762)">
                    <path d="M1757.37,521.071C1757.48,521.125 1757.52,521.248 1757.48,521.357C1753.35,532.942 1748.49,538.938 1743.74,541.651C1738.31,544.753 1732.97,543.69 1728.82,541.614C1723.99,539.199 1720.78,535.383 1720.78,535.383C1720.57,535.129 1720.5,534.784 1720.59,534.465C1721.59,531.083 1722.86,528.303 1724.34,526.044C1727.39,521.39 1731.27,518.889 1735.29,517.731C1740.01,516.372 1744.92,516.875 1748.91,517.872C1753.85,519.102 1757.37,521.071 1757.37,521.071ZM1756.97,521.39C1756.18,521.021 1752.95,519.596 1748.72,518.74C1744.86,517.961 1740.17,517.661 1735.72,519.121C1732.61,520.142 1729.62,522.044 1727.13,525.276C1725.34,527.604 1723.8,530.614 1722.65,534.487C1723.56,535.463 1726.16,538.069 1729.69,539.916C1733.37,541.842 1738.07,542.948 1743.02,540.345C1747.68,537.896 1752.52,532.305 1756.97,521.39L1756.97,521.39Z"/>
                </g>
                <g transform="matrix(0.391338,-0.22483,0.391338,0.22483,1184.42,1113.09)">
                    <circle cx="3224.14" cy="314.008" r="2.499" style="fill:#fff;"/>
                </g>
            </g>
            <g transform="matrix(-0.900145,0,0,0.392461,13702,-0.949214)">
                <path d="M1721.34,516.021C1721.34,516.021 1722.4,514.024 1724.38,511.529C1725.42,510.214 1726.68,508.817 1728.19,507.516C1729.32,506.533 1730.59,505.66 1731.94,504.939C1732.88,504.443 1733.86,504.04 1734.86,503.763C1735.65,503.547 1736.45,503.412 1737.26,503.366C1738.48,503.294 1739.71,503.37 1740.93,503.699C1742.62,504.158 1744.28,504.95 1745.81,506.344C1747.44,507.828 1748.88,509.859 1750.14,512.717C1748.34,510.618 1746.58,509.267 1744.84,508.305C1742.78,507.159 1740.81,506.875 1738.88,507.032C1738.28,507.081 1737.69,507.197 1737.1,507.321C1736.51,507.446 1735.92,507.611 1735.33,507.788C1734.1,508.156 1732.9,508.619 1731.74,509.17C1730.22,509.892 1728.78,510.674 1727.46,511.501C1723.85,513.777 1721.34,516.021 1721.34,516.021Z"/>
            </g>
            <g transform="matrix(1.14942,0,0,0.872288,9232.65,-194.456)">
                <g transform="matrix(0.553757,0.318143,-0.553757,0.318143,1858.09,-261.665)">
                    <path d="M1721.55,534.741C1721.55,534.741 1727.06,507.696 1757.27,521.275C1757.27,521.275 1745.16,558.896 1721.55,534.741Z" style="fill:#e0c9b2;"/>
                    <clipPath id="_clip28">
                        <path d="M1721.55,534.741C1721.55,534.741 1727.06,507.696 1757.27,521.275C1757.27,521.275 1745.16,558.896 1721.55,534.741Z"/>
                    </clipPath>
                    <g clip-path="url(#_clip28)">
                        <g transform="matrix(-0.549808,0,0,0.549808,3506.97,356.129)">
                            <path d="M3182.39,300.371C3182.39,300.371 3225.41,284.064 3246.31,326.01L3244.55,297.469L3206.15,284.323L3182.39,300.371Z" style="fill-opacity:0.15;"/>
                        </g>
                    </g>
                </g>
                <g transform="matrix(0.766793,0.440536,-0.772728,0.443946,1604.26,-541.536)">
                    <circle cx="1738.5" cy="530.726" r="2.531" style="fill:#895723;"/>
                </g>
                <g transform="matrix(0.549503,0.315699,-0.553757,0.318143,1865.8,-257.741)">
                    <circle cx="1738.5" cy="530.726" r="2.531"/>
                </g>
                <g transform="matrix(0.553757,0.318143,-0.553757,0.318143,1858.09,-261.665)">
                    <path d="M1757.48,521.357C1757.52,521.248 1757.48,521.125 1757.37,521.071C1757.37,521.071 1753.85,519.102 1748.91,517.872C1744.92,516.875 1740.01,516.372 1735.29,517.731C1731.27,518.889 1727.39,521.39 1724.34,526.044C1722.86,528.303 1721.59,531.083 1720.59,534.465C1720.5,534.784 1720.57,535.129 1720.78,535.383C1720.78,535.383 1723.99,539.199 1728.82,541.614C1732.97,543.69 1738.31,544.753 1743.74,541.651C1748.49,538.938 1753.35,532.942 1757.48,521.357ZM1756.97,521.39C1752.52,532.305 1747.68,537.896 1743.02,540.345C1738.07,542.948 1733.37,541.842 1729.69,539.916C1726.16,538.069 1723.56,535.463 1722.66,534.488C1723.8,530.614 1725.34,527.604 1727.13,525.276C1729.62,522.044 1732.61,520.142 1735.72,519.121C1740.17,517.661 1744.86,517.961 1748.72,518.74C1752.95,519.596 1756.18,521.021 1756.97,521.39L1756.97,521.39Z"/>
                </g>
                <g transform="matrix(0.553757,0.318143,-0.553757,0.318143,1858.09,-261.665)">
                    <path d="M1757.48,521.357C1757.52,521.248 1757.48,521.125 1757.37,521.071C1757.37,521.071 1753.85,519.102 1748.91,517.872C1744.92,516.875 1740.01,516.372 1735.29,517.731C1731.27,518.889 1727.39,521.39 1724.34,526.044C1722.86,528.303 1721.59,531.083 1720.59,534.465C1720.5,534.784 1720.57,535.129 1720.78,535.383C1720.78,535.383 1723.99,539.199 1728.82,541.614C1732.97,543.69 1738.31,544.753 1743.74,541.651C1748.49,538.938 1753.35,532.942 1757.48,521.357ZM1756.97,521.39C1752.52,532.305 1747.68,537.896 1743.02,540.345C1738.07,542.948 1733.37,541.842 1729.69,539.916C1726.16,538.069 1723.56,535.463 1722.66,534.488C1723.8,530.614 1725.34,527.604 1727.13,525.276C1729.62,522.044 1732.61,520.142 1735.72,519.121C1740.17,517.661 1744.86,517.961 1748.72,518.74C1752.95,519.596 1756.18,521.021 1756.97,521.39L1756.97,521.39Z"/>
                </g>
                <g transform="matrix(-0.391338,-0.22483,-0.391338,0.22483,3914.33,1113.19)">
                    <circle cx="3224.14" cy="314.008" r="2.499" style="fill:#fff;"/>
                </g>
            </g>
            <g transform="matrix(0.900145,0,0,0.392461,10618.2,-0.557209)">
                <path d="M1721.34,516.021C1721.34,516.021 1723.85,513.777 1727.46,511.501C1728.78,510.674 1730.22,509.892 1731.74,509.17C1732.9,508.619 1734.1,508.156 1735.33,507.788C1735.92,507.611 1736.51,507.446 1737.1,507.321C1737.69,507.197 1738.28,507.081 1738.88,507.032C1740.81,506.875 1742.78,507.159 1744.84,508.305C1746.58,509.267 1748.34,510.618 1750.14,512.717C1748.88,509.859 1747.44,507.828 1745.81,506.344C1744.28,504.95 1742.62,504.158 1740.93,503.699C1739.71,503.37 1738.48,503.294 1737.26,503.366C1736.45,503.412 1735.65,503.547 1734.86,503.763C1733.86,504.04 1732.88,504.443 1731.94,504.939C1730.59,505.66 1729.32,506.533 1728.19,507.516C1726.68,508.817 1725.42,510.215 1724.38,511.529C1722.4,514.024 1721.34,516.021 1721.34,516.021Z"/>
            </g>
            <g transform="matrix(0.874645,0.211357,-1.11185,0.874645,1750.15,-2554.33)">
                <g transform="matrix(-0.604518,0.215292,0.49379,0.263569,12955.8,-310.227)">
                    <path d="M1692.21,539.512C1692.21,539.512 1687.29,547.935 1682.75,547.952C1678.2,547.968 1662.78,532.369 1662.78,532.369C1662.78,532.369 1617.97,559.263 1608.38,557.295L1622.38,569.403C1622.38,569.403 1639.15,583.153 1658.12,575.028C1677.09,566.902 1687.72,562.045 1691.41,556.004L1693.16,548.36L1692.21,539.512Z" style="fill:url(#_Linear29);"/>
                </g>
                <g transform="matrix(-0.604518,0.215292,0.49379,0.263569,12955.8,-310.227)">
                    <path d="M1691.41,556.004C1691.41,556.004 1672.23,558.522 1665.83,565.543C1665.83,565.543 1630.07,554.509 1614.29,561.936C1614.29,561.936 1626.93,576.532 1641.48,577.331C1656.03,578.13 1664.9,572.101 1664.9,572.101C1664.9,572.101 1688.34,563.166 1691.41,556.004Z" style="fill:url(#_Linear30);"/>
                </g>
                <g transform="matrix(-0.604518,0.215292,0.49379,0.263569,12955.8,-310.227)">
                    <path d="M1663.56,531.807L1664.5,532.805C1666.25,534.611 1670.05,538.438 1673.85,541.756C1676.7,544.25 1679.55,546.462 1681.52,547.274C1683.29,548.009 1685,547.334 1686.5,546.171C1689.52,543.82 1691.68,539.467 1691.68,539.467L1692.1,539.673C1692.1,539.673 1689.99,544.209 1686.93,546.711C1685.24,548.093 1683.27,548.845 1681.2,548.049C1679.16,547.259 1676.16,545.062 1673.16,542.557C1669.26,539.299 1665.35,535.526 1663.55,533.745C1663.29,533.485 1663.07,533.266 1662.9,533.098C1662.39,533.4 1661.48,533.948 1660.25,534.681C1654.73,537.949 1642.8,544.928 1631.54,550.437C1625.81,553.244 1620.24,555.662 1615.79,557.052C1613.93,557.635 1612.25,558.032 1610.82,558.214C1613.06,560.279 1617.12,563.951 1621.1,567.201C1624.39,569.884 1627.62,572.291 1629.71,573.194C1633,574.62 1637.96,576.309 1643.69,576.668C1648.08,576.943 1652.93,576.443 1657.83,574.434C1665.14,571.443 1676.28,567.354 1683.85,562.592C1686.15,561.146 1688.11,559.631 1689.54,558.081C1690.76,556.755 1691.6,555.408 1691.89,554.01C1692.58,550.63 1692.66,549.364 1692.7,548.873C1692.74,548.358 1692.73,548.518 1693.09,548.388L1693.17,548.59C1692.96,548.677 1692.96,548.579 1692.95,548.886C1692.93,549.382 1692.9,550.661 1692.37,554.097C1692.13,555.601 1691.33,557.099 1690.06,558.555C1688.64,560.192 1686.64,561.769 1684.3,563.296C1676.77,568.215 1665.64,572.519 1658.34,575.65C1653.25,577.829 1648.19,578.436 1643.6,578.215C1637.64,577.928 1632.47,576.237 1629.03,574.801C1626.83,573.879 1623.4,571.43 1619.93,568.653C1613.89,563.819 1607.7,558.016 1607.7,558.016L1605.52,555.969L1608.49,556.31C1609.74,556.452 1611.45,556.181 1613.5,555.639C1616.77,554.77 1620.84,553.183 1625.24,551.237C1629.64,549.285 1634.36,546.971 1638.92,544.632C1647.07,540.451 1654.68,536.191 1659,533.736C1660.6,532.822 1661.76,532.16 1662.31,531.846L1662.77,531.601C1663.18,531.444 1663.43,531.631 1663.56,531.807Z"/>
                </g>
                <g transform="matrix(-0.604518,0.215292,0.49379,0.263569,12955.8,-310.227)">
                    <path d="M1691.45,556.232C1691.45,556.232 1682.98,557.74 1675.55,560.627C1671.8,562.083 1668.31,563.872 1666.39,566.053C1666.19,566.27 1665.89,566.354 1665.61,566.267C1665.61,566.267 1661.96,565.207 1656.5,563.955C1654.65,563.53 1652.58,563.084 1650.38,562.636C1645.63,561.672 1640.24,560.747 1634.91,560.272C1627.28,559.593 1619.76,559.792 1614.39,562.146C1614.28,562.199 1614.14,562.149 1614.09,562.033C1614.03,561.918 1614.08,561.781 1614.2,561.727C1619.56,559.1 1627.21,558.493 1635.01,558.927C1640.42,559.228 1645.9,560.017 1650.71,560.942C1652.94,561.371 1655.02,561.841 1656.89,562.293C1661.29,563.354 1664.5,564.329 1665.62,564.68C1667.78,562.592 1671.33,560.868 1675.15,559.545C1682.76,556.91 1691.38,555.776 1691.38,555.776C1691.51,555.757 1691.62,555.843 1691.64,555.969C1691.66,556.095 1691.58,556.213 1691.45,556.232Z"/>
                </g>
                <g transform="matrix(0.332369,-0.118369,0.27149,0.144912,11011.6,538.659)">
                    <path d="M3354.19,322.208C3353.7,322.698 3361.07,328.92 3372.14,336.753C3376.03,339.503 3380.35,342.439 3384.98,345.352C3388.54,347.588 3392.26,349.809 3396.08,351.918C3397.96,352.958 3399.87,353.953 3401.79,354.91C3403.73,355.875 3405.68,356.789 3407.63,357.664C3413.14,360.136 3418.56,362.329 3423.66,364.063C3434.68,367.814 3444.03,369.485 3449.03,367.585C3444.94,368.546 3438.46,366.792 3430.7,363.544C3427.1,362.033 3423.24,360.188 3419.21,358.163C3414.13,355.617 3408.86,352.682 3403.5,349.782C3400.01,347.895 3396.47,346.041 3393,344.21C3387.48,341.299 3382.1,338.493 3377.2,335.852C3371.76,332.915 3366.91,330.283 3363.08,328.077C3357.35,324.777 3353.92,322.568 3354.19,322.208Z" style="fill:#ebdaa6;fill-opacity:0.75;"/>
                </g>
                <g transform="matrix(0.480161,0,0,0.209349,3343.84,-1536.33)">
                    <path d="M18564.5,8215.95C18564.5,8215.95 18563,8223.03 18559.8,8232.63C18558.7,8235.98 18557.4,8239.6 18555.8,8243.37C18554.7,8246.22 18553.4,8249.13 18552,8252.04C18551.3,8253.45 18550.7,8254.87 18549.9,8256.28C18549.2,8257.68 18548.5,8259.07 18547.7,8260.45C18545.2,8265.07 18542.2,8269.44 18538.7,8273.22C18535,8277.09 18530.9,8280.36 18526,8282.6C18532.4,8280.69 18537.9,8277.16 18542.6,8272.6C18545.8,8269.58 18548.5,8266.11 18551,8262.42C18551.9,8261.04 18552.8,8259.63 18553.5,8258.19C18554.3,8256.75 18555.1,8255.27 18555.8,8253.79C18557.1,8250.74 18558.3,8247.65 18559.3,8244.62C18560.5,8240.65 18561.5,8236.8 18562.2,8233.27C18564.2,8223.26 18564.5,8215.95 18564.5,8215.95Z" style="fill:#ebdaa6;fill-opacity:0.9;"/>
                </g>
            </g>
            <g>
                <g transform="matrix(0.465188,0.273281,-0.626794,0.202821,11681.3,-377.494)">
                    <path d="M1689.59,538.524C1689.59,538.524 1687.29,547.935 1682.75,547.952C1678.2,547.968 1662.78,532.369 1662.78,532.369C1662.78,532.369 1617.97,559.263 1608.38,557.295L1622.38,569.403C1622.38,569.403 1639.15,583.153 1658.12,575.028C1677.09,566.902 1687.72,562.045 1691.41,556.004L1693.16,548.36L1689.59,538.524Z" style="fill:url(#_Linear31);"/>
                </g>
                <g transform="matrix(0.465188,0.273281,-0.626794,0.202821,11681.3,-377.494)">
                    <path d="M1691.41,556.004C1691.41,556.004 1672.23,558.522 1665.83,565.543C1665.83,565.543 1630.07,554.509 1614.29,561.936C1614.29,561.936 1626.93,576.532 1641.48,577.331C1656.03,578.13 1664.9,572.101 1664.9,572.101C1664.9,572.101 1688.34,563.166 1691.41,556.004Z" style="fill:url(#_Linear32);"/>
                </g>
                <g transform="matrix(0.465188,0.273281,-0.626794,0.202821,11681.3,-377.494)">
                    <path d="M1662.9,533.097C1663.07,533.266 1663.29,533.484 1663.55,533.745C1665.35,535.525 1669.26,539.297 1673.17,542.555C1676.17,545.059 1679.17,547.255 1681.21,548.045C1683.37,548.878 1685.12,547.902 1686.47,546.236C1688.75,543.401 1689.82,538.578 1689.82,538.578L1689.36,538.47C1689.36,538.47 1688.22,543.114 1685.94,545.799C1684.78,547.168 1683.31,548.024 1681.51,547.279C1679.55,546.467 1676.7,544.253 1673.85,541.758C1670.05,538.439 1666.25,534.611 1664.5,532.805L1663.55,531.802C1663.55,531.802 1663.63,531.927 1663.66,531.989C1663.58,531.852 1663.23,531.353 1662.66,531.651C1662.61,531.681 1662.49,531.747 1662.31,531.847C1661.76,532.16 1660.6,532.822 1659,533.735C1655.28,535.846 1649.13,539.291 1642.3,542.877C1636.74,545.792 1630.74,548.796 1625.24,551.235C1620.84,553.18 1616.77,554.769 1613.5,555.639C1611.45,556.182 1609.74,556.454 1608.49,556.312L1605.53,555.972L1607.7,558.015C1607.7,558.015 1613.89,563.817 1619.93,568.649C1623.4,571.425 1626.83,573.873 1629.03,574.793C1632.47,576.228 1637.64,577.918 1643.61,578.204C1648.19,578.424 1653.25,577.815 1658.33,575.636C1665.61,572.516 1676.86,568.255 1684.4,563.36C1685.9,562.39 1687.26,561.403 1688.39,560.379C1690.65,558.352 1692.09,556.222 1692.31,554.077L1692.66,550.999C1692.66,550.999 1692.46,550.915 1692.46,550.915L1692.4,551.226C1692.33,551.602 1692.19,552.4 1691.94,554.03C1691.68,555.768 1690.54,557.425 1688.84,559.038C1687.52,560.287 1685.86,561.512 1683.97,562.689C1676.38,567.42 1665.12,571.469 1657.84,574.448C1652.93,576.457 1648.08,576.956 1643.69,576.679C1637.95,576.319 1633,574.628 1629.71,573.201C1627.61,572.297 1624.39,569.89 1621.1,567.205C1617.11,563.951 1613.05,560.275 1610.81,558.21C1612.82,557.953 1615.32,557.276 1618.13,556.27C1622.12,554.843 1626.77,552.776 1631.54,550.44C1642.8,544.928 1654.73,537.95 1660.25,534.681C1661.48,533.948 1662.39,533.4 1662.9,533.097ZM1662.62,532.805C1662.43,532.61 1662.38,532.465 1662.38,532.453C1662.39,532.511 1662.47,532.683 1662.62,532.805Z"/>
                </g>
                <g transform="matrix(0.465188,0.273281,-0.626794,0.202821,11681.3,-377.494)">
                    <path d="M1691.38,555.776C1691.38,555.776 1682.76,556.91 1675.15,559.545C1671.33,560.868 1667.78,562.592 1665.62,564.681C1664.5,564.329 1661.29,563.354 1656.89,562.293C1655.02,561.841 1652.94,561.371 1650.71,560.942C1645.9,560.017 1640.42,559.228 1635.01,558.927C1627.21,558.493 1619.56,559.1 1614.2,561.727C1614.08,561.781 1614.03,561.918 1614.09,562.033C1614.14,562.149 1614.28,562.199 1614.39,562.146C1619.76,559.792 1627.28,559.593 1634.91,560.272C1640.24,560.747 1645.63,561.672 1650.38,562.636C1652.58,563.084 1654.65,563.53 1656.5,563.955C1661.96,565.207 1665.61,566.267 1665.61,566.267C1665.89,566.354 1666.19,566.27 1666.39,566.053C1668.31,563.872 1671.8,562.083 1675.55,560.627C1682.98,557.74 1691.45,556.232 1691.45,556.232C1691.58,556.213 1691.66,556.095 1691.64,555.969C1691.62,555.843 1691.51,555.757 1691.38,555.776Z"/>
                </g>
                <g transform="matrix(-0.255764,-0.150252,-0.344616,0.111513,13089.5,653.125)">
                    <path d="M3354.19,322.208C3353.92,322.568 3357.35,324.777 3363.08,328.076C3366.91,330.283 3371.76,332.915 3377.2,335.852C3382.1,338.493 3387.48,341.299 3393,344.21C3396.47,346.041 3400.01,347.895 3403.5,349.782C3408.86,352.682 3414.13,355.617 3419.21,358.163C3423.24,360.188 3427.1,362.033 3430.7,363.544C3438.46,366.792 3444.94,368.546 3449.03,367.585C3444.04,369.485 3434.68,367.814 3423.66,364.063C3418.56,362.329 3413.14,360.136 3407.63,357.664C3405.68,356.789 3403.73,355.875 3401.79,354.91C3399.87,353.953 3397.96,352.958 3396.08,351.918C3392.26,349.809 3388.54,347.588 3384.98,345.352C3380.35,342.438 3376.03,339.503 3372.14,336.753C3361.07,328.92 3353.7,322.698 3354.19,322.208Z" style="fill:#ebdaa6;fill-opacity:0.75;"/>
                </g>
                <g transform="matrix(0.480161,0,0,0.209349,3343.84,-1536.33)">
                    <path d="M18278.7,8222.69C18278.5,8222.67 18277.2,8226.41 18275.9,8231.75C18275.5,8233.65 18275,8235.74 18274.7,8237.95C18274.4,8239.66 18274.1,8241.42 18274,8243.19C18273.9,8244.08 18273.9,8244.96 18273.8,8245.84C18273.8,8246.74 18273.8,8247.62 18273.8,8248.5C18273.9,8251.02 18274.1,8253.43 18274.5,8255.59C18275.4,8260.22 18277.1,8263.67 18279.7,8264.55C18277.9,8263.55 18276.9,8261.14 18276.5,8257.93C18276.3,8256.38 18276.3,8254.67 18276.3,8252.83C18276.3,8250.55 18276.5,8248.12 18276.7,8245.64C18276.8,8244.04 18276.9,8242.42 18277,8240.83C18277.2,8238.3 18277.3,8235.84 18277.5,8233.57C18278,8227.35 18278.5,8222.7 18278.7,8222.69Z" style="fill:#ebdaa6;fill-opacity:0.75;"/>
                </g>
            </g>
            <g transform="matrix(0.480161,0,0,0.209349,3343.84,-1536.33)">
                <path d="M18268.5,8470.76C18268.5,8470.76 18379.6,8460.58 18382.8,8468.9L18387.4,8496.02C18387.4,8496.02 18386.5,8514.4 18368.9,8519.09C18351.4,8523.79 18291.8,8528.11 18291.8,8528.11L18276.8,8523.94L18270.2,8515.85L18268.5,8509.5C18268.5,8509.5 18269.6,8509.12 18273.2,8499.63L18270.8,8499.37C18270.8,8499.37 18273.2,8499.63 18268.5,8470.76Z"/>
            </g>
            <g transform="matrix(0.435983,0,0,0.209349,4152.94,-1536.33)">
                <path d="M18268.5,8509.5C18268.5,8509.5 18271.7,8506.69 18272.1,8499.88C18272.1,8499.88 18276.9,8500.36 18284.4,8500.84C18284.6,8500.85 18284.8,8503.32 18285,8503.33C18285.2,8503.34 18285.5,8500.91 18285.7,8500.92C18305.1,8502.09 18341.4,8503.06 18366.6,8496.48C18366.8,8496.43 18367.4,8499.64 18367.5,8499.59C18367.7,8499.54 18367.6,8496.23 18367.7,8496.19C18375,8494.2 18381.3,8491.56 18386,8488.09L18387.4,8496.02C18387.4,8496.02 18386.7,8510.88 18375,8516.82C18363.3,8522.76 18310.5,8530.84 18291,8528.3C18271.6,8525.75 18269.8,8516.28 18268.5,8509.5Z" style="fill:url(#_Linear33);"/>
                <path d="M18367.3,8497.39C18367.2,8497.11 18367.2,8496.86 18367.1,8496.68C18367,8496.25 18366.6,8496.15 18366.5,8496.17C18356.9,8498.65 18345.7,8500.04 18334.5,8500.74C18316.2,8501.87 18297.7,8501.17 18285.7,8500.41C18285.6,8500.41 18285.3,8500.49 18285.1,8500.86C18284.9,8500.46 18284.6,8500.33 18284.5,8500.32C18284.5,8500.32 18271.6,8499.26 18271.6,8499.26L18271.5,8499.84C18271.4,8501.83 18271,8503.47 18270.5,8504.79C18269.5,8507.78 18268.1,8509.08 18268.1,8509.08L18268.2,8509.55C18269,8513.8 18270.1,8519.09 18275.4,8523.12C18278.6,8525.59 18283.5,8527.59 18291,8528.56C18300.3,8529.78 18317.2,8528.57 18333.7,8526.33C18351.6,8523.88 18369,8520.18 18375.2,8517.07C18379.5,8514.86 18382.4,8511.43 18384.3,8507.97C18387.5,8502.04 18387.7,8496.03 18387.7,8496.03L18387.7,8496C18387.7,8495.98 18386.2,8487.54 18386.2,8487.54L18385.8,8487.86C18383.3,8489.68 18380.4,8491.27 18377.2,8492.66C18374.2,8493.89 18371.1,8494.96 18367.6,8495.89C18367.6,8495.91 18367.4,8496.1 18367.3,8496.5C18367.3,8496.72 18367.3,8497.04 18367.3,8497.39ZM18284,8501.33C18284.1,8501.75 18284.2,8502.83 18284.3,8503.22C18284.4,8503.69 18284.8,8503.83 18284.9,8503.84C18285.1,8503.85 18285.5,8503.74 18285.6,8503.25C18285.8,8502.84 18285.9,8501.96 18286,8501.45C18298.1,8502.13 18316.4,8502.7 18334.5,8501.5C18345.7,8500.76 18356.9,8499.35 18366.4,8496.86C18366.5,8496.93 18366.5,8497.01 18366.5,8497.09C18366.7,8497.76 18366.9,8498.86 18367.1,8499.38C18367.2,8499.81 18367.6,8499.91 18367.6,8499.89C18367.7,8499.87 18367.9,8499.67 18368,8499.27C18368,8498.7 18368,8497.52 18368,8496.8C18368,8496.67 18368,8496.52 18368,8496.43C18371.4,8495.5 18374.6,8494.43 18377.4,8493.21C18380.6,8491.88 18383.4,8490.36 18385.8,8488.64C18385.8,8488.64 18387.1,8496.04 18387.1,8496.04C18387.1,8496.49 18386.7,8502.14 18383.7,8507.72C18381.9,8511.09 18379.1,8514.43 18374.9,8516.58C18368.8,8519.68 18351.5,8523.35 18333.6,8525.8C18317.2,8528.03 18300.3,8529.24 18291.1,8528.03C18283.7,8527.07 18279,8525.13 18275.8,8522.71C18270.8,8518.92 18269.7,8513.99 18268.9,8509.92L18268.9,8509.92C18269,8509.84 18269.2,8509.73 18269.3,8509.56C18269.8,8509.05 18270.6,8507.95 18271.4,8506.14C18272,8504.71 18272.5,8502.85 18272.7,8500.48L18284,8501.33Z"/>
            </g>
            <g transform="matrix(0.451716,0,0,0.209349,3864.77,-1536.33)">
                <path d="M18268.5,8471.01C18268.5,8471.01 18272.3,8496.65 18270.8,8499.37C18270.8,8499.37 18298.5,8502.54 18327.4,8501.49C18328.1,8501.46 18328.6,8493.7 18328.6,8493.7C18328.6,8493.7 18329.2,8501.42 18330.2,8501.36C18350.6,8500.22 18372.5,8496.78 18386,8488.09C18386,8488.09 18383.9,8474.48 18383.7,8469.62C18383.7,8469.62 18381.4,8463.44 18322,8466C18260.7,8468.63 18268,8470.33 18268.5,8471.01Z" style="fill:url(#_Linear34);"/>
                <path d="M18267.9,8471.09C18267.9,8471.09 18269.6,8482.5 18270.3,8490.9C18270.7,8494.95 18270.8,8498.27 18270.3,8499.15L18270,8499.77L18270.7,8499.85C18270.7,8499.85 18282.7,8501.18 18299,8501.79C18307.6,8502.1 18317.4,8502.22 18327.4,8501.84C18327.5,8501.83 18327.7,8501.77 18327.8,8501.6C18328,8501.38 18328.1,8500.82 18328.3,8500.09C18328.4,8499.32 18328.5,8498.34 18328.6,8497.39C18328.8,8498.35 18328.9,8499.34 18329.1,8500.09C18329.4,8501.11 18329.9,8501.7 18330.3,8501.68C18341.9,8501.02 18354,8499.6 18364.8,8496.9C18372.9,8494.86 18380.3,8492.07 18386.2,8488.32L18386.3,8488.22L18386.3,8488.05C18386.3,8488.05 18385.4,8482.34 18384.7,8476.99C18384.3,8474.1 18384,8471.31 18384,8469.61L18383.9,8469.57C18383.9,8469.53 18383,8466.75 18365.7,8465.61C18356.5,8465.01 18342.7,8464.84 18322,8465.74C18298.9,8466.73 18285.5,8467.59 18277.9,8468.32C18272.9,8468.78 18270.4,8469.19 18269.1,8469.55C18268.1,8469.81 18267.8,8470.09 18267.8,8470.3C18267.7,8470.63 18268.2,8470.96 18268.3,8471.16L18267.9,8471.09ZM18327.2,8501.15C18317.3,8501.48 18307.6,8501.32 18299.1,8500.97C18284.9,8500.38 18274.1,8499.25 18271.5,8498.96C18271.8,8497.52 18271.7,8494.44 18271.4,8490.82C18270.8,8482.4 18269.1,8470.93 18269.1,8470.93L18268.8,8470.87C18268.7,8470.78 18268.5,8470.67 18268.4,8470.54C18268.3,8470.51 18268.3,8470.5 18268.3,8470.45C18268.3,8470.32 18268.6,8470.22 18269.2,8470.04C18270.5,8469.7 18273,8469.29 18277.9,8468.83C18285.6,8468.11 18298.9,8467.25 18322,8466.25C18342.7,8465.36 18356.5,8465.54 18365.6,8466.14C18381.4,8467.18 18383.2,8469.41 18383.4,8469.68C18383.5,8471.4 18383.8,8474.17 18384.2,8477.06C18384.8,8481.87 18385.5,8486.98 18385.7,8487.96C18379.9,8491.63 18372.6,8494.35 18364.6,8496.35C18353.9,8499.02 18341.8,8500.4 18330.2,8501.04C18330.1,8501.04 18330.2,8500.92 18330.1,8500.79C18329.9,8500.29 18329.7,8499.39 18329.5,8498.4C18329.1,8496.25 18329,8493.68 18329,8493.68L18328.6,8488.6L18328.2,8493.68C18328.2,8493.68 18328.1,8495.67 18327.9,8497.63C18327.7,8498.82 18327.6,8500.01 18327.4,8500.72C18327.3,8500.88 18327.3,8501.06 18327.2,8501.15Z"/>
            </g>
            <g transform="matrix(0.607432,0.0724168,-0.286427,0.456711,11184.2,-170.855)">
                <path d="M1847.68,584.71C1848.41,584.925 1849.31,584.818 1849.83,584.451C1850.36,584.085 1850.38,583.556 1849.89,583.176C1846.96,580.789 1842.32,577.727 1836.77,576.565C1831.33,575.428 1822.8,578.13 1817.9,585.692C1818.7,587.398 1835.23,582.619 1847.68,584.71Z"/>
            </g>
            <g transform="matrix(-0.771854,0.0035392,0.0111883,0.463835,13565.1,-47.1996)">
                <path d="M1845.19,584.623C1845.78,584.764 1846.43,584.626 1846.82,584.277C1847.2,583.927 1847.26,583.44 1846.94,583.053C1842.27,577.346 1829.86,565.281 1819.09,581.89C1817.7,583.68 1831,581.338 1845.19,584.623Z"/>
            </g>
            <g transform="matrix(1.14942,0,0,0.872288,9235.28,-193.468)">
                <g transform="matrix(-0.161015,0.00530016,0.00922542,0.0925057,4942.73,-379.949)">
                    <path d="M15457.5,7712C15457.5,7712 15431.9,7900.08 15413,7936C15395.8,7968.65 15379.9,7971.7 15367.6,7972L15490,7987C15490,7987 15461.3,7972.62 15467.8,7933C15474.4,7893.38 15497.5,7720.62 15497.5,7720.62L15457.5,7712Z" style="fill:url(#_Linear35);"/>
                </g>
                <g transform="matrix(0.507731,0.133167,-0.25539,0.342866,1779.27,37.5567)">
                    <path d="M1682.64,452.669C1682.64,452.669 1673.21,455.717 1666.27,444.461C1659.32,433.205 1662.07,431.772 1662.07,431.772C1662.07,431.772 1670.05,435.174 1670.49,437.007C1670.92,438.841 1670.79,435.546 1670.52,431.383C1670.26,427.22 1672.27,428.118 1675.56,431.849C1678.85,435.58 1678.56,437.187 1678.11,434.571C1677.66,431.955 1674.58,427.699 1677.61,427.006C1680.64,426.313 1693.68,435.133 1694.59,441.901C1695.49,448.67 1694.13,449.56 1693.01,450.261C1691.89,450.963 1682.64,452.669 1682.64,452.669Z"/>
                </g>
                <g transform="matrix(-0.161015,0.00530016,0.00922542,0.0925057,4946.25,-380.094)">
                    <path d="M15497.2,7974.2C15497.2,7974.2 15491.6,7968.84 15488.6,7957.43C15487.2,7952.36 15486.4,7946.1 15486.8,7938.59C15487.1,7932.83 15488,7918.59 15489.7,7899.99C15490.3,7892.11 15491.2,7883.46 15492.1,7874.34C15492.8,7867.44 15493.6,7860.28 15494.5,7853C15495.3,7845.97 15496.3,7838.84 15497.3,7831.71C15499.4,7817.18 15501.7,7802.7 15504.1,7789.27C15509.4,7758.81 15514.9,7733.87 15518.6,7726.29L15520.1,7726.99C15517.8,7732.81 15515.3,7748.49 15512.6,7768.88C15511,7781.65 15509.3,7796.24 15507.6,7811.43C15506.8,7818.45 15506,7825.59 15505.2,7832.73C15504.4,7839.86 15503.5,7847 15502.6,7854.01C15502.1,7858.32 15501.6,7862.58 15501,7866.76C15499.6,7877.3 15498.2,7887.36 15497,7896.5C15494.2,7916.99 15491.9,7932.82 15491.2,7938.96C15490.3,7945.98 15490.7,7951.9 15491.6,7956.74C15493.7,7967.6 15498.5,7973.01 15498.5,7973.01L15497.2,7974.2Z"/>
                </g>
                <g transform="matrix(-0.161015,0.00530016,0.00922542,0.0925057,4946.25,-380.094)">
                    <path d="M15478.2,7726.75C15478.2,7726.75 15477.1,7739.16 15474.9,7758.08C15473.4,7771.24 15471.5,7787.53 15469.1,7804.97C15467.6,7815.11 15466.1,7825.62 15464.3,7836.13C15463.1,7843.07 15461.9,7850.02 15460.6,7856.82C15458.2,7868.83 15455.6,7880.45 15452.9,7891.07C15446.9,7914.94 15440.4,7933.82 15434.8,7941.14C15421,7958.86 15418.5,7965.23 15415,7967.67C15413.1,7969.01 15410.9,7969.32 15406.5,7969.48L15406.4,7967.77C15410.1,7967.36 15412,7967.09 15413.6,7965.82C15416.9,7963.19 15418.8,7956.74 15431.1,7938.5C15435.5,7932.1 15439.7,7917.08 15444,7897.92C15446.3,7887.52 15448.5,7875.93 15450.8,7863.81C15451.9,7858.19 15453,7852.47 15454.1,7846.7C15455.2,7841.01 15456.3,7835.28 15457.4,7829.58C15460.2,7815.41 15462.8,7801.37 15465.2,7788.42C15471.8,7753.49 15476.5,7726.52 15476.5,7726.52L15478.2,7726.75Z"/>
                </g>
            </g>
            <g transform="matrix(1.0462,0,0,0.793952,9497.58,-160.18)">
                <g transform="matrix(0.159577,0.0134261,-0.0233694,0.0916795,293.085,-496.246)">
                    <path d="M15461.1,7700.05C15461.1,7700.05 15411.4,7899.97 15395.1,7933.08C15379.1,7965.7 15377.4,7963.14 15356.3,7970.36L15485,7973C15485,7973 15452.3,7969.62 15458.8,7930C15465.4,7890.38 15505.5,7693.44 15505.5,7693.44L15461.1,7700.05Z" style="fill:url(#_Linear36);"/>
                </g>
                <g transform="matrix(-0.607086,0.12341,0.230571,0.404907,3504.83,27.5468)">
                    <path d="M1684.99,453.93C1684.99,453.93 1677.83,455.085 1668.09,444.522C1658.9,434.555 1662.07,431.772 1662.07,431.772C1662.07,431.772 1669.34,434.835 1669.78,436.669C1670.21,438.502 1670.79,435.546 1670.52,431.383C1670.26,427.22 1672.27,428.118 1675.56,431.849C1678.85,435.58 1680.9,438.919 1680.45,436.303C1680.01,433.686 1674.58,427.699 1677.61,427.006C1680.64,426.313 1693.68,435.133 1694.59,441.901C1695.49,448.67 1694.13,449.56 1693.01,450.261C1691.89,450.963 1684.99,453.93 1684.99,453.93Z"/>
                </g>
                <g transform="matrix(-0.161015,0.00530016,0.00922542,0.0925057,4946.25,-380.094)">
                    <path d="M15143.8,7763.12C15143.8,7763.12 15156.7,7789.18 15173.8,7822.88C15176.4,7828.02 15179.1,7833.35 15181.8,7838.8C15185.7,7846.59 15189.7,7854.61 15193.7,7862.69C15195.9,7867.12 15198.1,7871.58 15200.2,7876.02C15203.5,7882.77 15206.7,7889.49 15209.9,7896.04C15215.6,7907.86 15221.2,7919.13 15226.4,7929.18C15236.2,7948.01 15244.8,7962.49 15250.8,7967.97L15249.7,7969.28C15243.2,7964.17 15233.1,7950.23 15221.9,7931.73C15214.6,7919.71 15206.7,7905.81 15198.9,7891.19C15195.5,7884.68 15192,7878.04 15188.7,7871.33C15183.8,7861.18 15179,7850.91 15174.6,7841C15169.7,7830.2 15165.2,7819.79 15161.2,7810.3C15149.8,7783.26 15142.3,7763.81 15142.3,7763.81L15143.8,7763.12Z"/>
                </g>
                <g transform="matrix(-0.161015,0.00530016,0.00922542,0.0925057,4946.25,-380.094)">
                    <path d="M15102.7,7775.65C15102.7,7775.65 15112.5,7794.4 15125.6,7821.06C15130.2,7830.42 15135.2,7840.74 15140.3,7851.61C15145,7861.6 15149.7,7872.02 15154.2,7882.53C15157.2,7889.49 15160.1,7896.52 15162.8,7903.45C15169,7919.09 15174.7,7934.27 15179.2,7947.65C15186.9,7969.88 15191.5,7987.16 15190.8,7993.6L15189.1,7993.49C15189.3,7987.16 15183.3,7970.72 15174.4,7949.49C15170,7938.94 15164.9,7927.25 15159.5,7915.02C15156.5,7908.27 15153.4,7901.37 15150.4,7894.4C15148.4,7889.82 15146.4,7885.22 15144.4,7880.61C15140.8,7872.2 15137.3,7863.82 15133.9,7855.67C15131.5,7849.98 15129.2,7844.4 15127,7839C15112.5,7803.64 15101.2,7776.38 15101.2,7776.38L15102.7,7775.65Z"/>
                </g>
                <g transform="matrix(0.161015,-0.00530016,0.00922542,0.0925057,-91.3346,-210.836)">
                    <path d="M16094.3,7955.92C16098.4,7937.9 16104.5,7919.82 16111.3,7901.82C16115.8,7890.03 16120.6,7878.37 16125.5,7866.96C16127.4,7862.62 16129.3,7858.31 16131.2,7854.04C16133.1,7849.69 16135,7845.38 16136.8,7841.11C16140.6,7832.2 16144.4,7823.52 16148.1,7815.21C16154.4,7801.05 16160.4,7788.02 16165.9,7776.64C16174.2,7759.7 16181.2,7746.52 16185.7,7738.83C16180.1,7745.88 16171.3,7757.95 16161,7773.85C16156.2,7781.23 16151.2,7789.39 16146,7798.26C16141.5,7806.16 16136.8,7814.55 16132.3,7823.43C16129.5,7829.01 16126.7,7834.76 16124.1,7840.69C16121.6,7846.46 16119.2,7852.39 16117,7858.43C16113.6,7867.32 16110.5,7876.41 16107.8,7885.66C16103.8,7899.49 16100.5,7913.53 16098,7927.56C16096.3,7937.1 16095.1,7946.54 16094.3,7955.92Z" style="fill:#ebdaa6;fill-opacity:0.75;"/>
                </g>
            </g>
            <g transform="matrix(0.500289,0.0124976,-0.0441828,0.336215,10537.6,63.0268)">
                <g transform="matrix(-1.81882,0,0,1.81882,6473.86,-647.732)">
                    <path d="M1778.52,491.291C1778.52,491.291 1782.49,494.333 1782.19,495.998C1781.5,499.793 1777.25,505.015 1777.25,505.015C1777.25,505.015 1776.41,504.497 1775.3,503.815C1771.82,501.67 1767.74,499.977 1763.29,498.826C1762.49,498.62 1761.95,498.481 1761.95,498.481L1757.59,497.799C1757.51,496.128 1755.55,494.629 1754.59,493.795C1755.53,495.843 1755.76,496.769 1753.45,497.152L1751.2,496.802C1751.2,496.802 1750.87,496.754 1750.42,496.689C1748.72,496.445 1747.14,495.95 1745.79,495.241C1745.71,495.198 1745.66,495.173 1745.66,495.173C1745.66,495.173 1743.09,493.738 1742.12,492.007C1750.13,485.078 1770.39,468.452 1776.39,472.205C1783.92,476.917 1804.1,493.428 1800.98,501.742C1797.86,510.056 1789.59,514.476 1789.59,514.476C1789.59,514.476 1798.44,500.46 1795.34,497.163C1793.07,494.752 1788.05,494.249 1784.84,495.273C1783.25,493.853 1780.36,491.675 1778.52,491.291Z"/>
                </g>
                <g transform="matrix(-1.81882,0,0,1.81882,6473.86,-647.732)">
                    <path d="M1777.7,474.929C1777.7,474.929 1791.19,475.661 1792.16,479.939C1793.13,484.217 1793.8,486.324 1793.8,486.324C1793.8,486.324 1792.08,481.738 1790.63,480.412C1789.18,479.086 1779.93,476.364 1778.65,477.187C1777.37,478.009 1777.7,474.929 1777.7,474.929Z"/>
                </g>
                <g transform="matrix(-1.81882,0,0,1.81882,6473.86,-647.732)">
                    <path d="M1763.31,477.167C1763.31,477.167 1766.36,472.746 1766.06,471.271C1765.79,469.961 1763.3,468.222 1761.31,467.835C1761.31,467.835 1765.34,470.287 1764.62,472.148C1763.91,474.009 1761.97,476.913 1760.16,479.344C1758.36,481.776 1763.31,477.167 1763.31,477.167"/>
                </g>
                <g transform="matrix(-1.51364,0,0,1.81882,5937.71,-653.13)">
                    <path d="M1754.68,486.038C1754.68,486.038 1750.15,475.638 1745.36,473.944C1740.56,472.249 1731.59,472.801 1729.95,473.944C1729.95,473.944 1741.39,475.736 1741.51,480.627C1741.51,480.627 1729.3,479.86 1730.01,483.897C1730.01,483.897 1735.29,479.386 1740.62,484.808C1745.95,490.23 1742.64,493.299 1742.64,493.299L1754.68,486.038Z"/>
                </g>
            </g>
            <g transform="matrix(0.480161,0,0,0.209349,3343.84,-1536.33)">
                <path d="M18281.5,8279.91C18280.7,8282.34 18279.9,8284.78 18279.4,8287.28C18279,8288.97 18278.7,8290.67 18278.5,8292.36C18278.4,8293.8 18278.2,8295.23 18278.2,8296.65C18278.2,8298.1 18278.2,8299.54 18278.3,8300.96C18278.5,8303.31 18278.9,8305.58 18279.4,8307.77C18280.2,8311.31 18281.4,8314.58 18282.8,8317.49C18283.2,8318.14 18283.5,8318.79 18283.8,8319.39C18284.3,8320.01 18284.7,8320.54 18285.2,8321.09L18285.5,8320.91C18285.3,8320.27 18285.1,8319.64 18284.9,8318.97C18284.8,8318.56 18284.6,8318.15 18284.4,8317.73C18283.6,8315.36 18283,8312.8 18282.5,8310.06C18282.2,8308.37 18282,8306.63 18281.8,8304.84C18281.7,8303.24 18281.6,8301.6 18281.5,8299.93C18281.5,8298.31 18281.4,8296.67 18281.4,8295.01C18281.4,8293.05 18281.4,8291.07 18281.5,8289.07C18281.6,8286.08 18281.8,8283.09 18282.3,8280.11L18281.5,8279.91Z"/>
            </g>
            <g transform="matrix(0.480161,0,0,0.209349,3343.84,-1536.33)">
                <path d="M18286,8328.76C18286,8328.76 18287.3,8332.61 18288,8336.06C18288.3,8337.33 18288.5,8338.53 18288.4,8339.46C18288.4,8339.93 18288.4,8340.31 18288.2,8340.53C18287.1,8342.08 18285.2,8343.36 18283.4,8344.76C18281.6,8346.17 18279.8,8347.68 18278.5,8349.57C18277.4,8351.22 18276.7,8353.14 18276.7,8355.5C18276.7,8359.08 18277.3,8362.66 18278.2,8365.95C18279.2,8369.76 18280.5,8373.18 18281.8,8375.81C18282.6,8377.49 18283.6,8379.5 18284.7,8381.47C18286.6,8385.09 18288.7,8388.59 18289.2,8389.7C18289.6,8390.49 18290.1,8391.16 18290.2,8392.35C18290.2,8393.38 18290,8394.77 18289.2,8396.86C18288.1,8400.12 18285.6,8407.45 18282.4,8414.41C18280.6,8418.49 18278.6,8422.45 18276.6,8425.36C18275.3,8427.19 18274.9,8429.16 18275,8430.92C18275.1,8432.44 18275.5,8433.82 18276,8434.8C18276.4,8435.54 18276.8,8436.06 18277,8436.28C18277.5,8436.7 18278.3,8437.51 18278.9,8438.27C18279.4,8438.9 18279.8,8439.47 18279.8,8439.74L18280.1,8439.74C18280.2,8439.44 18279.8,8438.73 18279.3,8437.97C18278.8,8437.11 18278.1,8436.18 18277.6,8435.69C18277.4,8435.49 18277.2,8435.01 18276.9,8434.39C18276.6,8433.48 18276.2,8432.24 18276.2,8430.87C18276.1,8429.36 18276.5,8427.7 18277.7,8426.18C18279.9,8423.28 18282.1,8419.32 18284.1,8415.2C18287.5,8408.3 18290.3,8400.98 18291.6,8397.72C18292.5,8395.22 18292.8,8393.53 18292.8,8392.28C18292.8,8390.6 18292.2,8389.62 18291.7,8388.49C18291.1,8387.22 18288.6,8382.85 18286.5,8378.74C18285.7,8377.27 18284.9,8375.83 18284.3,8374.58C18283.1,8372.09 18281.8,8368.85 18280.7,8365.25C18279.8,8362.17 18279.1,8358.83 18279,8355.46C18278.9,8352.9 18279.9,8350.95 18281.3,8349.29C18283.8,8346.26 18287.5,8344.1 18289.3,8341.34C18289.8,8340.59 18289.8,8338.97 18289.4,8337.08C18288.7,8333.36 18286.7,8328.51 18286.7,8328.51L18286,8328.76Z"/>
            </g>
            <g transform="matrix(0.480161,0,0,0.209349,3343.84,-1536.33)">
                <path d="M18449.2,8287.81L18449.3,8292.28C18449.4,8294.69 18449.4,8297.94 18449.5,8301.71C18449.5,8304.6 18449.5,8307.78 18449.6,8311.12C18449.6,8313.57 18449.7,8316.09 18449.7,8318.64C18449.8,8322.42 18449.9,8326.23 18449.9,8329.91C18449.8,8334.56 18449.5,8338.96 18449.2,8342.75C18449.1,8343.88 18449,8344.95 18448.9,8345.97L18449.1,8346.03C18449.4,8345.21 18449.7,8344.35 18450,8343.43C18450.2,8342.58 18450.3,8341.69 18450.5,8340.76C18451.2,8336.88 18451.6,8332.45 18451.9,8327.82C18452.1,8324.98 18452.2,8322.06 18452.2,8319.16C18452.3,8317.34 18452.3,8315.53 18452.2,8313.75C18452.2,8311.91 18452.1,8310.1 18452,8308.34C18451.8,8306.07 18451.7,8303.9 18451.5,8301.87C18451.1,8298 18450.7,8294.66 18450.4,8292.2L18449.8,8287.76L18449.2,8287.81Z"/>
            </g>
            <g transform="matrix(0.480161,0,0,0.209349,3343.84,-1536.33)">
                <path d="M18448.8,8346.57C18448.8,8346.57 18457.1,8350.44 18459.8,8361.22C18461,8365.99 18461.1,8372.09 18458.8,8379.85C18457.8,8383.42 18456.4,8386.98 18454.6,8390.52C18452.2,8395.63 18449,8400.63 18445.7,8405.42C18441.3,8411.71 18436.6,8417.6 18432.2,8422.63C18425.3,8430.39 18419.3,8436.15 18416.8,8438.19C18412.6,8441.62 18399.6,8451.58 18391.3,8460.58C18389.9,8462.13 18388.6,8463.62 18387.5,8465.1C18385.3,8468.28 18384.1,8471.21 18384.3,8473.39L18384.9,8473.36C18385,8471.33 18386.6,8468.95 18389,8466.23C18390.1,8464.92 18391.4,8463.5 18392.9,8462.09C18401.5,8453.63 18414.9,8444.47 18419.2,8441.29C18421.9,8439.29 18428.4,8433.7 18435.7,8425.88C18440.5,8420.82 18445.5,8414.85 18449.9,8408.33C18453.4,8403.29 18456.5,8397.92 18458.9,8392.47C18460.5,8388.61 18461.9,8384.72 18462.7,8380.85C18464.6,8372.23 18464.1,8365.56 18462.5,8360.46C18458.7,8348.95 18449.2,8345.43 18449.2,8345.43L18448.8,8346.57Z"/>
            </g>
            <g transform="matrix(0.480161,0,0,0.209349,3343.84,-1536.33)">
                <path d="M18388.6,8429.81C18388.6,8429.81 18384.3,8438.83 18382.9,8453.68C18382.2,8460.7 18382.1,8469.02 18383.4,8478.3C18385.8,8495.58 18388.5,8508.08 18388.6,8517.93C18388.6,8523.94 18387.6,8528.91 18384.7,8533.38C18381,8539.02 18376.1,8543.09 18370.7,8546.16C18364.9,8549.46 18358.5,8551.6 18352.5,8553.1C18349.1,8553.97 18341,8554.99 18330.8,8555.94C18320.8,8556.87 18308.9,8557.71 18297.7,8558.14C18286.1,8558.58 18275.3,8558.6 18268.3,8557.79C18265.2,8557.43 18262.8,8556.95 18261.7,8556.2C18258.4,8554.12 18255.5,8550.1 18254.8,8544.13C18254.1,8538.56 18255.2,8531.36 18259.3,8522.49C18262.3,8518.09 18264.3,8515.19 18265.7,8513.27C18268.6,8509.16 18268.5,8509.72 18268.5,8509.72C18268.5,8509.72 18268.7,8509.69 18268.7,8509.5C18268.7,8509.45 18268.7,8509.36 18268.6,8509.3C18268.6,8509.27 18268.5,8509.17 18268.1,8509.43C18267.8,8509.66 18267.3,8510.22 18266.1,8511.58C18264.6,8513.32 18262.2,8516.37 18258.1,8521.71L18258.1,8521.76L18258.1,8521.81C18253.5,8531 18252.2,8538.51 18252.8,8544.35C18253.5,8551.13 18256.8,8555.7 18260.4,8558.14C18261.8,8559.03 18264.4,8559.75 18268,8560.25C18275.1,8561.22 18286,8561.47 18297.8,8561.25C18309,8561.04 18321,8560.41 18331.1,8559.6C18341.6,8558.78 18350,8557.75 18353.5,8556.9C18359.8,8555.32 18366.5,8553.1 18372.6,8549.59C18378.5,8546.2 18383.9,8541.63 18387.8,8535.41C18391,8530.31 18392.2,8524.68 18392.1,8517.89C18391.8,8507.92 18388.7,8495.34 18385.9,8477.92C18384.3,8468.87 18384.2,8460.73 18384.6,8453.83C18385.6,8439.2 18389.4,8430.19 18389.4,8430.19L18388.6,8429.81Z"/>
            </g>
            <g transform="matrix(0.480161,0,0,0.209349,3343.84,-1536.33)">
                <path d="M18254.9,8469C18254.7,8468.55 18254.6,8467.5 18255.8,8465.76C18257,8464.1 18259.2,8462.09 18262.9,8459.67C18267.1,8456.99 18270.4,8453.9 18273,8450.95C18278.2,8445.14 18280.5,8439.97 18280.5,8439.97L18279.5,8439.51C18279.5,8439.51 18277,8444.35 18271.7,8449.66C18269,8452.32 18265.7,8455.09 18261.6,8457.42C18255.9,8460.66 18253.3,8463.41 18252.2,8465.47C18250.1,8469.4 18252.5,8471.67 18253.4,8472.21C18253.5,8472.31 18254,8472.52 18255,8472.52C18256,8472.52 18258.1,8472.38 18261,8472.15C18265.4,8471.79 18271.6,8471.25 18278.8,8470.65C18282.5,8470.33 18286.5,8470 18290.5,8469.65C18300.5,8468.82 18311,8468 18320,8467.91C18334.7,8467.62 18352.2,8466.43 18365.3,8466.51C18369.8,8466.54 18373.7,8466.76 18376.8,8467.15C18380.4,8467.6 18382.8,8468.27 18383.4,8469.7L18383.9,8469.54C18383.4,8467.73 18380.4,8466.32 18375.7,8465.47C18374.5,8465.26 18373.2,8465.11 18371.8,8464.97C18358.7,8463.64 18337.3,8464.44 18320,8464.09C18311.9,8464 18302.5,8464.35 18293.5,8465C18288.6,8465.36 18283.8,8465.81 18279.3,8466.27C18270.2,8467.22 18262.5,8468.23 18258,8468.71C18256.6,8468.86 18255.6,8468.97 18254.9,8469Z"/>
            </g>
            <g transform="matrix(0.480161,0,0,0.209349,3343.84,-1536.33)">
                <path d="M18268.1,8509.52C18268.1,8509.52 18268.1,8515.73 18272.5,8521.25C18274.8,8524.06 18278.2,8526.65 18283.2,8528.21C18287.5,8529.5 18295.7,8530.09 18305.6,8529.98C18309.8,8529.93 18314.3,8529.75 18318.9,8529.45C18321.9,8529.26 18324.8,8529.02 18327.8,8528.72C18335.4,8527.96 18343,8526.92 18349.8,8525.75C18359.7,8524.04 18367.7,8522 18371.5,8520.11C18377.7,8516.99 18381.1,8513.67 18383.3,8509.81C18384.6,8507.58 18385.5,8505.19 18386.1,8502.51C18386.7,8500.21 18387.1,8497.72 18387.6,8494.99L18387.2,8494.88C18386.3,8497.51 18385.6,8499.89 18384.8,8502.12C18383.9,8504.6 18383.1,8506.86 18381.8,8508.92C18379.6,8512.39 18376.3,8515.28 18370.5,8517.89C18366.7,8519.57 18358.9,8521.08 18349.3,8522.42C18342.6,8523.36 18335,8524.17 18327.4,8524.84C18323.7,8525.17 18320.1,8525.48 18316.5,8525.74C18312.7,8526.02 18309,8526.25 18305.5,8526.42C18296,8526.87 18288,8526.83 18283.9,8525.79C18279.2,8524.66 18276.1,8522.49 18273.9,8520.1C18269.4,8515.24 18269,8509.48 18269,8509.48L18268.1,8509.52Z"/>
            </g>
            <g transform="matrix(0.480161,0,0,0.209349,3343.84,-1536.33)">
                <path d="M18291.8,8392C18291.8,8392 18297.4,8385.53 18303.1,8381.56C18304.9,8380.33 18306.7,8379.35 18308.3,8378.94C18309.4,8378.65 18310.4,8378.66 18311.2,8379.21C18313.6,8380.77 18315.1,8383.56 18316.5,8386.09C18317.7,8388.42 18318.9,8390.57 18320.2,8391.83C18321.8,8393.5 18323.7,8393.96 18326,8392.64C18327.7,8391.65 18329.4,8389.49 18331.1,8386.97C18332.8,8384.29 18334.6,8381.18 18336.8,8379.21C18338.1,8378 18339.5,8377.24 18341.3,8377.89C18344,8378.87 18349.7,8381.01 18355.9,8384.65C18360.1,8387.16 18364.6,8390.38 18368.4,8394.49C18373.9,8400.27 18377.8,8407.79 18378.6,8417.45C18378.8,8419.53 18378.9,8421.68 18378.8,8423.97L18379.2,8424.03C18379.7,8421.73 18380,8419.53 18380,8417.4C18380.2,8407.17 18375.9,8399.01 18370.5,8392.63C18366.7,8388.09 18362.1,8384.45 18357.7,8381.63C18351.5,8377.58 18345.5,8375.22 18342.7,8374.11C18339.3,8372.82 18336.5,8373.86 18334,8376.17C18331.6,8378.35 18329.6,8381.78 18327.7,8384.78C18326.4,8386.75 18325.3,8388.56 18324,8389.36C18323.8,8389.51 18323.6,8389.62 18323.4,8389.59C18323.2,8389.56 18322.9,8389.39 18322.7,8389.18C18321.3,8387.92 18320.1,8385.44 18318.6,8383.04C18317,8380.59 18315.1,8378.19 18312.8,8376.79C18310.4,8375.43 18307.3,8376.15 18304.1,8378.25C18297.7,8382.39 18291,8391.39 18291,8391.39L18291.8,8392Z"/>
            </g>
            <g transform="matrix(0.480161,0,0,0.209349,3343.84,-1536.33)">
                <path d="M18424.7,8240.55C18424.7,8240.55 18427.7,8241.54 18431.5,8244.46C18432.7,8245.41 18434,8246.56 18435.4,8247.93C18436.3,8248.9 18437.2,8249.99 18438.2,8251.18C18439,8252.25 18439.9,8253.41 18440.7,8254.67C18441.9,8256.46 18443.1,8258.45 18444.1,8260.72C18445.5,8263.61 18446.7,8266.89 18447.6,8270.71C18447.8,8271.42 18448,8272.15 18448.1,8272.88C18448.3,8273.61 18448.6,8274.3 18448.8,8275.05L18449.2,8275.01C18449.2,8274.22 18449.3,8273.48 18449.3,8272.72C18449.3,8271.94 18449.1,8271.19 18449,8270.45C18448.6,8266.39 18447.7,8262.82 18446.6,8259.7C18445.7,8257.16 18444.6,8254.91 18443.4,8252.94C18442.6,8251.53 18441.6,8250.27 18440.7,8249.14C18439.6,8247.87 18438.5,8246.78 18437.3,8245.84C18435.7,8244.51 18434.2,8243.46 18432.7,8242.65C18428.2,8240.18 18424.9,8239.79 18424.9,8239.79L18424.7,8240.55Z"/>
            </g>
            <g transform="matrix(0.480161,0,0,0.209349,3343.84,-1536.33)">
                <path d="M18312.5,8246.19C18311.5,8247.53 18310,8248.77 18308.4,8250.05C18307.6,8250.72 18306.7,8251.39 18305.7,8252.06C18305.1,8252.5 18304.5,8252.93 18303.9,8253.38C18303.3,8253.83 18302.7,8254.27 18302.1,8254.73C18301.5,8255.19 18300.9,8255.66 18300.3,8256.12C18298.3,8257.67 18296.5,8259.15 18294.9,8260.45C18293.7,8261.5 18292.6,8262.38 18291.9,8263.21C18291.4,8263.84 18291.1,8264.38 18291,8264.81L18291.2,8264.95C18291.5,8264.65 18292,8264.39 18292.6,8263.99C18293.9,8263.1 18296,8261.85 18298.4,8260.42C18299.8,8259.59 18301.3,8258.69 18302.8,8257.68C18303.8,8257.03 18304.7,8256.34 18305.6,8255.6C18306.8,8254.59 18308,8253.5 18309,8252.38C18310.8,8250.44 18312.2,8248.45 18313.1,8246.54L18312.5,8246.19Z"/>
            </g>
            <g transform="matrix(0.480161,0,0,0.209349,3343.84,-1536.33)">
                <path d="M18273.7,8560.14C18273.7,8560.14 18273.7,8560.13 18273.7,8560.13C18273.7,8560.13 18273.5,8559.86 18273.5,8559.71C18273.5,8559.69 18273.5,8559.68 18273.5,8559.67C18273.4,8559.55 18273.4,8559.6 18273.5,8559.71C18273.4,8559.75 18273.3,8559.8 18273.2,8559.9C18272.9,8560.22 18272.3,8560.96 18271.8,8562.61C18271.4,8563.75 18271.1,8565.32 18270.8,8567.49C18270.4,8571.45 18272.8,8577.63 18279.8,8584.01C18282.3,8586.26 18285.4,8588.51 18289.1,8590.68C18293.3,8593.16 18298.4,8595.48 18304.5,8597.61C18309.5,8599.24 18314.2,8599.94 18318.8,8599.92C18323.9,8599.89 18328.7,8598.97 18333,8597.53C18345.4,8593.37 18354.1,8584.92 18356.3,8581.28C18358.6,8577.53 18362.3,8568.42 18366,8561.69C18367.8,8558.31 18369.5,8555.54 18371,8554.56C18372.6,8553.45 18374.7,8551.38 18376.8,8549.11C18380.5,8544.88 18384.1,8540.02 18384.1,8540.02L18383.2,8539.31C18383.2,8539.31 18379.4,8543.93 18375.5,8547.91C18373.5,8549.94 18371.4,8551.8 18369.8,8552.76C18368.1,8553.77 18365.9,8556.72 18363.7,8560.42C18359.8,8566.92 18355.7,8575.77 18353.3,8579.39C18351.2,8582.6 18343,8589.78 18331.6,8593.22C18327.7,8594.4 18323.4,8595.12 18318.8,8595.08C18314.7,8595.05 18310.5,8594.45 18306,8592.99C18300.2,8591.19 18295.3,8589.12 18291.1,8586.99C18287.5,8585.16 18284.5,8583.29 18282,8581.4C18275.3,8576.26 18272.3,8571.15 18272.4,8567.58C18272.3,8565.49 18272.5,8563.97 18272.7,8562.85C18273,8561.33 18273.4,8560.59 18273.6,8560.27C18273.7,8560.23 18273.7,8560.18 18273.7,8560.14ZM18273.7,8560.14C18273.8,8560.11 18273.8,8560.09 18273.8,8560.1C18273.8,8560.14 18273.8,8560.14 18273.7,8560.14Z"/>
            </g>
            <g transform="matrix(0.480161,0,0,0.209349,3343.84,-1536.33)">
                <path d="M18290.4,8344.86C18290.4,8344.86 18293.8,8351.78 18301.8,8356.45C18304.4,8357.98 18307.4,8359.26 18311,8359.97C18313.1,8360.37 18315.3,8360.59 18317.7,8360.54C18319.7,8360.5 18321.9,8360.26 18324.2,8359.77C18326.3,8359.35 18328.4,8358.74 18330.6,8357.92C18332.9,8357.08 18335.2,8356.01 18337.7,8354.68C18340.9,8353 18344.2,8350.91 18347.6,8348.38C18344,8350.64 18340.6,8352.46 18337.4,8353.92C18334.8,8355.06 18332.4,8355.98 18330.1,8356.7C18328,8357.39 18325.9,8357.88 18323.9,8358.24C18321.7,8358.65 18319.6,8358.86 18317.6,8358.92C18315.4,8358.98 18313.2,8358.84 18311.3,8358.52C18307.8,8357.96 18304.8,8356.88 18302.3,8355.55C18294.2,8351.39 18290.4,8344.86 18290.4,8344.86Z"/>
            </g>
            <g transform="matrix(-0.480161,0,0,0.209349,20976,-1535.47)">
                <path d="M18284.4,8340.74C18284.4,8340.74 18289.1,8346.95 18298,8351.03C18300.8,8352.33 18304.1,8353.4 18307.7,8354C18309.8,8354.35 18312.1,8354.53 18314.5,8354.52C18316.6,8354.51 18318.9,8354.34 18321.2,8353.98C18323.4,8353.65 18325.6,8353.18 18327.9,8352.52C18330.3,8351.81 18332.9,8350.88 18335.6,8349.71C18339.1,8348.2 18342.7,8346.3 18346.6,8343.89C18342.9,8346.57 18339.4,8348.75 18336,8350.48C18333.3,8351.84 18330.7,8352.91 18328.3,8353.75C18325.9,8354.55 18323.7,8355.13 18321.5,8355.52C18319,8355.96 18316.7,8356.15 18314.5,8356.15C18312,8356.14 18309.7,8355.88 18307.5,8355.45C18303.7,8354.7 18300.4,8353.44 18297.6,8351.95C18288.8,8347.37 18284.4,8340.74 18284.4,8340.74Z"/>
            </g>
            <g transform="matrix(0.480161,0,0,0.209349,3343.84,-1536.33)">
                <path d="M18425.4,8240.97C18425.4,8240.97 18428.6,8242.89 18432.6,8247.43C18433.9,8248.84 18435.3,8250.5 18436.6,8252.44C18437.1,8253.07 18437.5,8253.72 18438,8254.4C18438.4,8255.05 18438.9,8255.71 18439.3,8256.4C18440.2,8257.67 18441,8259.02 18441.9,8260.47C18443,8262.43 18444.2,8264.55 18445.3,8266.89C18446.3,8268.99 18447.2,8271.21 18448.1,8273.65C18447.6,8271.09 18447,8268.72 18446.3,8266.5C18445.8,8264.86 18445.2,8263.31 18444.6,8261.85C18443.9,8260.25 18443.2,8258.75 18442.5,8257.36C18441.9,8256.35 18441.4,8255.4 18440.8,8254.5C18440.1,8253.54 18439.5,8252.65 18438.8,8251.81C18437.7,8250.41 18436.6,8249.17 18435.5,8248.09C18433.4,8246 18431.4,8244.47 18429.7,8243.37C18427.1,8241.61 18425.4,8240.97 18425.4,8240.97Z" style="fill:#ebdaa6;fill-opacity:0.75;"/>
            </g>
            <g transform="matrix(0.480161,0,0,0.209349,3343.84,-1536.33)">
                <path d="M18449.3,8288.27C18449.2,8290.58 18449,8292.49 18448.7,8294.46C18448.4,8297.12 18447.9,8299.86 18447.5,8303.75C18447.4,8305.56 18447.2,8307.61 18447.2,8310.02C18447.1,8311.3 18447.1,8312.69 18447.2,8314.2C18447.2,8316.01 18447.2,8317.76 18447.3,8319.43C18447.4,8321.26 18447.4,8323 18447.5,8324.66C18447.6,8326.91 18447.8,8329.01 18447.9,8330.94C18448,8334.72 18448.2,8337.86 18448.3,8340.36C18448.4,8344.01 18448.3,8346.22 18448.1,8346.89C18448.5,8345.93 18449.1,8341.42 18449.4,8333.82C18449.5,8331.69 18449.6,8329.32 18449.7,8326.72C18449.7,8325.22 18449.7,8323.65 18449.7,8322C18449.7,8320.73 18449.7,8319.41 18449.7,8318.06C18449.7,8316.78 18449.6,8315.47 18449.5,8314.12C18449.4,8311.12 18449.3,8308.6 18449.3,8306.4C18449.2,8304.34 18449.2,8302.58 18449.3,8301C18449.4,8296 18449.7,8292.88 18449.3,8288.27Z" style="fill:#ebdaa6;fill-opacity:0.75;"/>
            </g>
            <g transform="matrix(0.480161,0,0,0.209349,3343.84,-1536.33)">
                <path d="M18448.8,8346.59C18448.8,8346.59 18454.7,8350.02 18457.6,8357.64C18459,8361.27 18459.6,8365.87 18458.6,8371.54C18457.7,8376.1 18455.9,8380.97 18453.4,8385.96C18451.2,8390.39 18448.5,8394.88 18445.6,8399.3C18443.4,8402.53 18441.2,8405.7 18438.8,8408.78C18436.4,8411.97 18434,8415.04 18431.6,8417.94C18425.5,8425.33 18419.8,8431.51 18415.8,8435.03C18409.4,8440.89 18399.7,8450.18 18392.9,8457.76C18388.3,8462.86 18385.1,8467.17 18385.1,8469.08C18385.2,8467.19 18388.7,8463.16 18393.5,8458.39C18400.7,8451.28 18410.9,8442.57 18417.6,8437.11C18421.8,8433.66 18428,8427.67 18434.4,8420.25C18436.8,8417.35 18439.3,8414.23 18441.8,8410.97C18444.1,8407.81 18446.4,8404.5 18448.4,8401.14C18451.3,8396.51 18453.9,8391.78 18455.9,8387.14C18458.3,8381.82 18459.9,8376.62 18460.5,8371.83C18461.2,8365.79 18460.2,8360.98 18458.5,8357.24C18455.1,8349.67 18448.8,8346.59 18448.8,8346.59Z" style="fill:#ebdaa6;fill-opacity:0.75;"/>
            </g>
            <g transform="matrix(0.480161,0,0,0.209349,3343.84,-1536.33)">
                <path d="M18380.1,8464.11C18378.9,8463.88 18377,8463.62 18373.8,8463.51C18371.9,8463.45 18369.6,8463.44 18366.6,8463.52C18363.6,8463.59 18360.1,8463.77 18355.8,8464.05C18362.6,8464.31 18367.5,8464.68 18371.2,8465.02C18376.5,8465.51 18378.9,8466.01 18380,8466.37C18380.3,8466.46 18380.5,8466.56 18380.6,8466.59L18382.5,8468.38L18382.4,8465.67C18382.4,8464.48 18382.4,8463.31 18382.4,8462.18C18382.5,8460.36 18382.5,8458.61 18382.6,8456.94C18382.7,8455.11 18382.8,8453.37 18383,8451.72C18383.2,8448.84 18383.6,8446.25 18384,8443.93C18385.7,8434.78 18388.3,8429.96 18388.3,8429.96C18388.3,8429.96 18386.8,8432.15 18384.9,8436.53C18383.8,8439.26 18382.6,8442.8 18381.6,8447.19C18381.3,8448.58 18381,8450.05 18380.8,8451.6C18380.5,8453.68 18380.2,8455.91 18380.1,8458.28C18380,8459.49 18380,8460.74 18380,8462.01C18380,8462.7 18380,8463.4 18380.1,8464.11ZM18380.5,8466.57L18380.4,8466.45C18380.4,8466.45 18380.4,8466.49 18380.5,8466.52C18380.5,8466.52 18380.5,8466.55 18380.5,8466.57Z" style="fill:#ebdaa6;fill-opacity:0.75;"/>
            </g>
            <g transform="matrix(0.480161,0,0,0.209349,3343.84,-1536.33)">
                <path d="M18371.2,8551.31C18371.2,8551.31 18370.1,8551.56 18367.7,8553.45C18366.5,8554.39 18365,8555.73 18363.2,8557.64C18362.5,8558.35 18361.5,8559.66 18360.3,8561.34C18358.6,8563.84 18356.5,8567.12 18354.3,8570.34C18353,8572.41 18351.7,8574.45 18350.4,8576.18C18349.5,8577.37 18348.6,8578.47 18347.7,8579.52C18346.3,8581.12 18344.9,8582.6 18343.1,8584C18340.6,8586.1 18337.6,8588.08 18334,8590.04L18334,8590.06C18333.9,8590.07 18331.3,8591.72 18327.7,8593.13C18325.6,8593.96 18323.3,8594.71 18320.9,8594.99C18323.3,8595.09 18325.8,8594.73 18328,8594.22C18331.9,8593.34 18334.9,8592.02 18334.9,8592.02L18334.9,8592.04C18339,8590.44 18342.4,8588.79 18345.3,8586.84C18347.3,8585.47 18349.1,8583.95 18350.7,8582.24C18351.8,8581.1 18352.8,8579.84 18353.7,8578.52C18354.9,8576.76 18356.1,8574.73 18357.3,8572.61C18358.8,8569.72 18360.3,8566.71 18361.6,8564.16C18362.8,8561.7 18363.8,8559.69 18364.5,8558.71C18365.9,8556.58 18367.2,8555.06 18368.2,8553.96C18370.2,8551.74 18371.2,8551.31 18371.2,8551.31Z" style="fill:#ebdaa6;fill-opacity:0.75;"/>
            </g>
            <g transform="matrix(0.480161,0,0,0.209349,3343.84,-1536.33)">
                <path d="M18386.9,8501.78C18386.9,8501.78 18387.3,8504.34 18387.4,8508.29C18387.5,8511 18387.4,8514.35 18386.9,8517.98C18386.6,8520.01 18386.2,8522.11 18385.6,8524.25C18385.3,8525.58 18384.9,8526.93 18384.4,8528.27C18383.9,8529.57 18383.4,8530.87 18382.7,8532.16C18381.8,8534.01 18380.8,8535.83 18379.5,8537.57C18378.2,8539.21 18376.8,8540.78 18375.1,8542.26C18372.9,8544.26 18370.2,8546.08 18367,8547.63C18370.5,8546.47 18373.4,8544.98 18375.9,8543.23C18377.8,8541.88 18379.5,8540.38 18380.9,8538.77C18382.5,8537.04 18383.8,8535.19 18384.9,8533.26C18385.6,8531.92 18386.2,8530.55 18386.8,8529.15C18387.3,8527.72 18387.7,8526.26 18388,8524.82C18388.5,8522.55 18388.8,8520.31 18388.9,8518.16C18389,8514.4 18388.7,8510.97 18388.3,8508.21C18387.7,8504.27 18386.9,8501.78 18386.9,8501.78Z" style="fill:#ebdaa6;fill-opacity:0.75;"/>
            </g>
            <g transform="matrix(0.480161,0,0,0.209349,3343.84,-1536.33)">
                <path d="M18334.3,8382.43C18334.3,8382.43 18335.9,8379.62 18338.4,8378.67C18339.4,8378.27 18340.5,8378.21 18341.8,8378.85C18343.4,8379.67 18347.1,8381.51 18351.5,8384.18C18353.4,8385.36 18355.5,8386.7 18357.6,8388.19C18359.2,8389.33 18360.9,8390.57 18362.5,8391.88C18364,8393.14 18365.5,8394.49 18367,8395.9C18369.9,8398.74 18372.5,8401.89 18374.3,8405.39C18375.6,8407.76 18376.5,8410.28 18377,8412.96L18377,8412.98C18377.8,8416.6 18378.3,8419.01 18378.6,8420.64C18379,8423.78 18378.7,8423.94 18378.7,8423.94C18378.7,8423.94 18379.1,8423.81 18378.8,8420.61C18378.7,8418.96 18378.4,8416.5 18377.8,8412.83L18377.8,8412.85C18377.4,8408.61 18375.9,8404.67 18373.6,8401.08C18372.1,8398.73 18370.4,8396.53 18368.4,8394.51C18366.9,8393 18365.4,8391.59 18363.7,8390.3C18362.1,8388.97 18360.4,8387.75 18358.7,8386.64C18356.5,8385.2 18354.3,8383.93 18352.2,8382.85C18347.7,8380.41 18343.8,8378.87 18342.1,8378.15C18340.6,8377.53 18339.3,8377.68 18338.2,8378.23C18335.7,8379.41 18334.3,8382.43 18334.3,8382.43Z" style="fill:#ebdaa6;fill-opacity:0.75;"/>
            </g>
        </g>
    </g>
    <defs>
        <linearGradient id="_Linear1" x1="0" y1="0" x2="1" y2="0.103914" gradientUnits="userSpaceOnUse" gradientTransform="matrix(-185.168,119.645,111.632,181.712,16196.8,8872.1)"><stop offset="0" style="stop-color:#d5691b;stop-opacity:1"/><stop offset="1" style="stop-color:#c5984a;stop-opacity:1"/></linearGradient>
        <linearGradient id="_Linear3" x1="0" y1="0" x2="1" y2="-0.110364" gradientUnits="userSpaceOnUse" gradientTransform="matrix(38.1091,-1.58334,1.60803,38.137,3290.54,563.132)"><stop offset="0" style="stop-color:#7c3b1e;stop-opacity:1"/><stop offset="1" style="stop-color:#431905;stop-opacity:1"/></linearGradient>
        <linearGradient id="_Linear4" x1="0" y1="0" x2="1" y2="0.0236562" gradientUnits="userSpaceOnUse" gradientTransform="matrix(26.5902,10.0817,-10.0817,26.5902,3280.71,787.244)"><stop offset="0" style="stop-color:#7c3b1e;stop-opacity:1"/><stop offset="1" style="stop-color:#431905;stop-opacity:1"/></linearGradient>
        <linearGradient id="_Linear5" x1="0" y1="0" x2="1" y2="-0.0833072" gradientUnits="userSpaceOnUse" gradientTransform="matrix(61.3919,34.8774,-33.1114,64.6663,3274.48,742.26)"><stop offset="0" style="stop-color:#7c3b1e;stop-opacity:1"/><stop offset="1" style="stop-color:#431905;stop-opacity:1"/></linearGradient>
        <linearGradient id="_Linear6" x1="0" y1="0" x2="1" y2="0.0485658" gradientUnits="userSpaceOnUse" gradientTransform="matrix(22.0818,2.03944,-2.03944,22.0818,3300.69,694.747)"><stop offset="0" style="stop-color:#431905;stop-opacity:1"/><stop offset="1" style="stop-color:#7c3b1e;stop-opacity:1"/></linearGradient>
        <linearGradient id="_Linear7" x1="0" y1="0" x2="1" y2="-0.0436552" gradientUnits="userSpaceOnUse" gradientTransform="matrix(-38.6753,-5.20397,5.20397,-38.6753,3285.22,698.841)"><stop offset="0" style="stop-color:#7c3b1e;stop-opacity:1"/><stop offset="1" style="stop-color:#431905;stop-opacity:1"/></linearGradient>
        <linearGradient id="_Linear8" x1="0" y1="0" x2="1" y2="-0.0184945" gradientUnits="userSpaceOnUse" gradientTransform="matrix(57.1142,12.8192,-12.8192,57.1142,3283.62,628.36)"><stop offset="0" style="stop-color:#7c3b1e;stop-opacity:1"/><stop offset="1" style="stop-color:#431905;stop-opacity:1"/></linearGradient>
        <linearGradient id="_Linear9" x1="0" y1="0" x2="1" y2="-0.0103037" gradientUnits="userSpaceOnUse" gradientTransform="matrix(-10.0029,0.83385,-0.83385,-10.0029,3274.75,594.118)"><stop offset="0" style="stop-color:#7c3b1e;stop-opacity:1"/><stop offset="1" style="stop-color:#431905;stop-opacity:1"/></linearGradient>
        <linearGradient id="_Linear10" x1="0" y1="0" x2="1" y2="0.00309908" gradientUnits="userSpaceOnUse" gradientTransform="matrix(21.8303,1.19167,-1.19167,21.8303,3296.4,598.403)"><stop offset="0" style="stop-color:#431905;stop-opacity:1"/><stop offset="1" style="stop-color:#7c3b1e;stop-opacity:1"/></linearGradient>
        <linearGradient id="_Linear11" x1="0" y1="0" x2="1" y2="-0.0686788" gradientUnits="userSpaceOnUse" gradientTransform="matrix(56.8776,-57.4035,80.5413,40.5379,3304.01,618.987)"><stop offset="0" style="stop-color:#7c3b1e;stop-opacity:1"/><stop offset="1" style="stop-color:#431905;stop-opacity:1"/></linearGradient>
        <linearGradient id="_Linear12" x1="0" y1="0" x2="1" y2="-0.130321" gradientUnits="userSpaceOnUse" gradientTransform="matrix(-14.2891,2.32806,-2.48824,-14.7841,3270.98,521.183)"><stop offset="0" style="stop-color:#7c3b1e;stop-opacity:1"/><stop offset="1" style="stop-color:#431905;stop-opacity:1"/></linearGradient>
        <linearGradient id="_Linear13" x1="0" y1="0" x2="1" y2="-0.0682271" gradientUnits="userSpaceOnUse" gradientTransform="matrix(42.6645,1.38731,-1.77745,33.2999,3284.14,501.05)"><stop offset="0" style="stop-color:#7c3b1e;stop-opacity:1"/><stop offset="1" style="stop-color:#431905;stop-opacity:1"/></linearGradient>
        <linearGradient id="_Linear14" x1="0" y1="0" x2="1" y2="-0.0596693" gradientUnits="userSpaceOnUse" gradientTransform="matrix(76.4495,-19.1941,19.1941,76.4495,3274.75,456.504)"><stop offset="0" style="stop-color:#7c3b1e;stop-opacity:1"/><stop offset="1" style="stop-color:#431905;stop-opacity:1"/></linearGradient>
        <linearGradient id="_Linear15" x1="0" y1="0" x2="1" y2="0" gradientUnits="userSpaceOnUse" gradientTransform="matrix(-45.9268,0.696583,-0.696583,-45.9268,18462.1,8369.09)"><stop offset="0" style="stop-color:#d5691b;stop-opacity:1"/><stop offset="1" style="stop-color:#c5984a;stop-opacity:1"/></linearGradient>
        <linearGradient id="_Linear17" x1="0" y1="0" x2="1" y2="0" gradientUnits="userSpaceOnUse" gradientTransform="matrix(-115.847,6.64693,-6.64693,-115.847,18372.5,8528.37)"><stop offset="0" style="stop-color:#c47637;stop-opacity:1"/><stop offset="1" style="stop-color:#965e15;stop-opacity:1"/></linearGradient>
        <linearGradient id="_Linear18" x1="0" y1="0" x2="1" y2="0" gradientUnits="userSpaceOnUse" gradientTransform="matrix(1.12654e-15,-18.3978,18.3978,2.14782e-15,18323.5,8460.74)"><stop offset="0" style="stop-color:#c5984a;stop-opacity:1"/><stop offset="1" style="stop-color:#c5984a;stop-opacity:0"/></linearGradient>
        <linearGradient id="_Linear19" x1="0" y1="0" x2="1" y2="0" gradientUnits="userSpaceOnUse" gradientTransform="matrix(8.77989,-6.51921,6.51921,8.77989,3279.46,277.586)"><stop offset="0" style="stop-color:#7c3b1e;stop-opacity:1"/><stop offset="1" style="stop-color:#431905;stop-opacity:1"/></linearGradient>
        <linearGradient id="_Linear20" x1="0" y1="0" x2="1" y2="0.0712663" gradientUnits="userSpaceOnUse" gradientTransform="matrix(19.6719,-7.36268,7.36268,19.6719,3281.53,309.995)"><stop offset="0" style="stop-color:#7c3b1e;stop-opacity:1"/><stop offset="1" style="stop-color:#431905;stop-opacity:1"/></linearGradient>
        <linearGradient id="_Linear21" x1="0" y1="0" x2="1" y2="0" gradientUnits="userSpaceOnUse" gradientTransform="matrix(18.8166,-0.848874,0.848874,18.8166,3274.58,340.551)"><stop offset="0" style="stop-color:#7c3b1e;stop-opacity:1"/><stop offset="1" style="stop-color:#431905;stop-opacity:1"/></linearGradient>
        <linearGradient id="_Linear22" x1="0" y1="0" x2="1" y2="0" gradientUnits="userSpaceOnUse" gradientTransform="matrix(18.7705,-10.1863,10.1863,18.7705,3260.46,293.388)"><stop offset="0" style="stop-color:#7c3b1e;stop-opacity:1"/><stop offset="1" style="stop-color:#431905;stop-opacity:1"/></linearGradient>
        <linearGradient id="_Linear23" x1="0" y1="0" x2="1" y2="0" gradientUnits="userSpaceOnUse" gradientTransform="matrix(1.76777,-6.63814,6.63814,1.76777,3257.78,265.335)"><stop offset="0" style="stop-color:#7c3b1e;stop-opacity:1"/><stop offset="1" style="stop-color:#431905;stop-opacity:1"/></linearGradient>
        <linearGradient id="_Linear24" x1="0" y1="0" x2="1" y2="-0.00445541" gradientUnits="userSpaceOnUse" gradientTransform="matrix(42.6645,1.38731,-1.77745,33.2999,3284.14,501.05)"><stop offset="0" style="stop-color:#7c3b1e;stop-opacity:1"/><stop offset="1" style="stop-color:#431905;stop-opacity:1"/></linearGradient>
        <linearGradient id="_Linear25" x1="0" y1="0" x2="1" y2="-0.0155105" gradientUnits="userSpaceOnUse" gradientTransform="matrix(42.6645,1.38731,-1.77745,33.2999,3284.14,501.05)"><stop offset="0" style="stop-color:#7c3b1e;stop-opacity:1"/><stop offset="1" style="stop-color:#431905;stop-opacity:1"/></linearGradient>
        <linearGradient id="_Linear26" x1="0" y1="0" x2="1" y2="0" gradientUnits="userSpaceOnUse" gradientTransform="matrix(18.81,0.921525,-0.456756,9.32323,18342,8568.94)"><stop offset="0" style="stop-color:#c5984a;stop-opacity:1"/><stop offset="1" style="stop-color:#d5691b;stop-opacity:1"/></linearGradient>
        <linearGradient id="_Linear29" x1="0" y1="0" x2="1" y2="0" gradientUnits="userSpaceOnUse" gradientTransform="matrix(-77.1418,13.583,13.583,77.1418,1689.03,546.147)"><stop offset="0" style="stop-color:#d0782a;stop-opacity:1"/><stop offset="0.12" style="stop-color:#c79244;stop-opacity:1"/><stop offset="1" style="stop-color:#d46c1e;stop-opacity:1"/></linearGradient>
        <linearGradient id="_Linear30" x1="0" y1="0" x2="1" y2="0" gradientUnits="userSpaceOnUse" gradientTransform="matrix(1.29731,-16.324,-16.324,-1.29731,1649.47,577.098)"><stop offset="0" style="stop-color:#a1703a;stop-opacity:1"/><stop offset="1" style="stop-color:#6b4011;stop-opacity:1"/></linearGradient>
        <linearGradient id="_Linear31" x1="0" y1="0" x2="1" y2="0" gradientUnits="userSpaceOnUse" gradientTransform="matrix(1.21015,-0.520594,0.520594,1.21015,1690.7,546.709)"><stop offset="0" style="stop-color:#c5984a;stop-opacity:1"/><stop offset="1" style="stop-color:#c5984a;stop-opacity:0"/></linearGradient>
        <linearGradient id="_Linear32" x1="0" y1="0" x2="1" y2="0" gradientUnits="userSpaceOnUse" gradientTransform="matrix(1.29731,-16.324,-16.324,-1.29731,1649.47,577.098)"><stop offset="0" style="stop-color:#a1703a;stop-opacity:1"/><stop offset="1" style="stop-color:#6b4011;stop-opacity:1"/></linearGradient>
        <linearGradient id="_Linear33" x1="0" y1="0" x2="1" y2="0" gradientUnits="userSpaceOnUse" gradientTransform="matrix(118.894,0,0,40.685,18268.5,8508.43)"><stop offset="0" style="stop-color:#d5cab8;stop-opacity:1"/><stop offset="0.56" style="stop-color:#f7f3ec;stop-opacity:1"/><stop offset="1" style="stop-color:#d5cab8;stop-opacity:1"/></linearGradient>
        <linearGradient id="_Linear34" x1="0" y1="0" x2="1" y2="0" gradientUnits="userSpaceOnUse" gradientTransform="matrix(117.975,0,0,36.3276,18268,8483.54)"><stop offset="0" style="stop-color:#d5cab8;stop-opacity:1"/><stop offset="0.56" style="stop-color:#f7f3ec;stop-opacity:1"/><stop offset="1" style="stop-color:#d5cab8;stop-opacity:1"/></linearGradient>
        <linearGradient id="_Linear35" x1="0" y1="0" x2="1" y2="0" gradientUnits="userSpaceOnUse" gradientTransform="matrix(-0.593467,6.99888,6.99888,0.593467,15438.7,7975.43)"><stop offset="0" style="stop-color:#b57d42;stop-opacity:1"/><stop offset="1" style="stop-color:#b57d42;stop-opacity:0"/></linearGradient>
        <linearGradient id="_Linear36" x1="0" y1="0" x2="1" y2="0" gradientUnits="userSpaceOnUse" gradientTransform="matrix(-0.226509,23.362,-23.362,-0.226509,15420.8,7948.31)"><stop offset="0" style="stop-color:#c15f13;stop-opacity:1"/><stop offset="1" style="stop-color:#c15f13;stop-opacity:0"/></linearGradient>
    </defs>
</svg>
