<svg xmlns="http://www.w3.org/2000/svg" viewBox="0 0 32 32"><path d="M 5.59375 7 L 5.28125 7.28125 C 5.28125 7.28125 2 10.601563 2 16 C 2 21.398438 5.28125 24.71875 5.28125 24.71875 L 5.59375 25 L 26.40625 25 L 26.71875 24.71875 C 26.71875 24.71875 30 21.398438 30 16 C 30 10.601563 26.71875 7.28125 26.71875 7.28125 L 26.40625 7 Z M 6.53125 9 L 25.46875 9 C 25.804688 9.355469 28 11.730469 28 16 C 28 20.269531 25.804688 22.644531 25.46875 23 L 6.53125 23 C 6.195313 22.644531 4 20.269531 4 16 C 4 11.730469 6.195313 9.355469 6.53125 9 Z M 10.375 12 L 6.375 20 L 8.625 20 L 9.125 19 L 11 19 L 11 20 L 13 20 C 15.199219 20 17 18.199219 17 16 C 17 13.800781 15.199219 12 13 12 Z M 15.96875 12 C 17.195313 12.910156 18 14.359375 18 16 C 18 17.640625 17.195313 19.089844 15.96875 20 L 18.75 20 C 19.542969 18.863281 20 17.488281 20 16 C 20 14.511719 19.542969 13.136719 18.75 12 Z M 19.90625 12 C 20.589844 13.179688 21 14.542969 21 16 C 21 17.457031 20.589844 18.820313 19.90625 20 L 22.15625 20 C 22.691406 18.773438 23 17.421875 23 16 C 23 14.578125 22.695313 13.226563 22.15625 12 Z M 23.25 12 C 23.738281 13.242188 24 14.589844 24 16 C 24 17.410156 23.738281 18.757813 23.25 20 L 25.375 20 C 25.785156 18.738281 26 17.394531 26 16 C 26 14.605469 25.785156 13.261719 25.375 12 Z M 13 14 C 14.117188 14 15 14.882813 15 16 C 15 17.117188 14.117188 18 13 18 Z M 11 15.25 L 11 17 L 10.125 17 Z"/></svg>