<svg xmlns="http://www.w3.org/2000/svg" viewBox="0 0 32 32"><path d="M 12 3 L 12 6 L 8 6 L 8 26 L 12 26 L 12 29 L 14 29 L 14 26 L 16 26 L 16 29 L 18 29 L 18 26 L 19.5 26 C 22.527344 26 25 23.527344 25 20.5 C 25 18.417969 23.839844 16.589844 22.125 15.65625 C 23.28125 14.644531 24 13.148438 24 11.5 C 24 8.472656 21.527344 6 18.5 6 L 18 6 L 18 3 L 16 3 L 16 6 L 14 6 L 14 3 Z M 10 8 L 18.5 8 C 20.445313 8 22 9.554688 22 11.5 C 22 13.445313 20.445313 15 18.5 15 L 10 15 Z M 10 17 L 19.5 17 C 21.445313 17 23 18.554688 23 20.5 C 23 22.445313 21.445313 24 19.5 24 L 10 24 Z"/></svg>