<svg xmlns="http://www.w3.org/2000/svg" viewBox="0 0 32 32"><path d="M 16 3 C 14.90625 3 14 3.90625 14 5 C 14 5.441406 14.15625 5.855469 14.40625 6.1875 C 14.050781 6.5625 13.644531 7.011719 13.21875 7.53125 C 12.171875 8.8125 11 10.292969 11 12 C 11 13.136719 11.414063 14.160156 12.0625 15 L 12 15 C 11.96875 15 11.9375 15 11.90625 15 C 11.355469 15.027344 10.925781 15.496094 10.953125 16.046875 C 10.980469 16.597656 11.449219 17.027344 12 17 L 12.5 17 L 11.09375 20.5625 L 10.375 22 L 9 22 C 8.96875 22 8.9375 22 8.90625 22 C 8.355469 22.027344 7.925781 22.496094 7.953125 23.046875 C 7.980469 23.597656 8.449219 24.027344 9 24 L 7.1875 26.40625 L 7 26.65625 L 7 29 L 25 29 L 25 26.65625 L 24.8125 26.40625 L 23 24 C 23.359375 24.003906 23.695313 23.816406 23.878906 23.503906 C 24.058594 23.191406 24.058594 22.808594 23.878906 22.496094 C 23.695313 22.183594 23.359375 21.996094 23 22 L 21.625 22 L 20.90625 20.5625 L 19.5 17 L 20 17 C 20.359375 17.003906 20.695313 16.816406 20.878906 16.503906 C 21.058594 16.191406 21.058594 15.808594 20.878906 15.496094 C 20.695313 15.183594 20.359375 14.996094 20 15 C 20.628906 14.160156 21 13.121094 21 12 C 21 10.292969 19.828125 8.8125 18.78125 7.53125 C 18.355469 7.011719 17.949219 6.5625 17.59375 6.1875 C 17.84375 5.855469 18 5.441406 18 5 C 18 3.90625 17.09375 3 16 3 Z M 16 7.46875 C 16.363281 7.835938 16.609375 8.066406 17.21875 8.8125 C 18.171875 9.980469 19 11.5 19 12 C 19 13.679688 17.699219 15 16.03125 15 C 14.363281 15 13 13.660156 13 12 C 13 11.5 13.828125 9.980469 14.78125 8.8125 C 15.390625 8.066406 15.636719 7.835938 16 7.46875 Z M 14.6875 17 L 17.3125 17 L 19.0625 21.375 L 19.09375 21.40625 L 19.09375 21.4375 L 19.375 22 L 12.625 22 L 12.90625 21.4375 L 12.90625 21.40625 L 12.9375 21.375 Z M 11.5 24 L 20.5 24 L 22.75 27 L 9.25 27 Z"/></svg>