<svg xmlns="http://www.w3.org/2000/svg" viewBox="0 0 32 32"><path d="M 9 4 L 9 13 L 12.75 13 L 12.53125 14 L 12 14 C 11.96875 14 11.9375 14 11.90625 14 C 11.355469 14.027344 10.925781 14.496094 10.953125 15.046875 C 10.980469 15.597656 11.449219 16.027344 12 16 L 12.09375 16 L 11.09375 20.5625 L 10.375 22 L 9 22 C 8.96875 22 8.9375 22 8.90625 22 C 8.355469 22.027344 7.925781 22.496094 7.953125 23.046875 C 7.980469 23.597656 8.449219 24.027344 9 24 L 7.1875 26.40625 L 7 26.65625 L 7 29 L 25 29 L 25 26.65625 L 24.8125 26.40625 L 23 24 C 23.359375 24.003906 23.695313 23.816406 23.878906 23.503906 C 24.058594 23.191406 24.058594 22.808594 23.878906 22.496094 C 23.695313 22.183594 23.359375 21.996094 23 22 L 21.625 22 L 20.90625 20.5625 L 19.90625 16 L 20 16 C 20.359375 16.003906 20.695313 15.816406 20.878906 15.503906 C 21.058594 15.191406 21.058594 14.808594 20.878906 14.496094 C 20.695313 14.183594 20.359375 13.996094 20 14 L 19.46875 14 L 19.25 13 L 23 13 L 23 4 Z M 11 6 L 13 6 L 13 9 L 15 9 L 15 6 L 17 6 L 17 9 L 19 9 L 19 6 L 21 6 L 21 11 L 11 11 Z M 14.78125 13 L 17.21875 13 L 17.4375 14 L 14.5625 14 Z M 14.125 16 L 17.875 16 L 19.03125 21.21875 L 19.0625 21.34375 L 19.09375 21.4375 L 19.375 22 L 12.625 22 L 12.90625 21.4375 L 12.9375 21.34375 L 12.96875 21.21875 Z M 11.5 24 L 20.5 24 L 22.75 27 L 9.25 27 Z"/></svg>