<svg xmlns="http://www.w3.org/2000/svg" viewBox="0 0 32 32"><path d="M 15 4 L 15 5.125 C 14.339844 5.253906 13.699219 5.480469 13.15625 5.84375 L 12.375 5.0625 L 10.9375 6.46875 L 11.75 7.28125 C 11.410156 7.796875 11.160156 8.378906 11.03125 9 L 10 9 L 10 11 L 11.03125 11 C 11.160156 11.621094 11.410156 12.203125 11.75 12.71875 L 10.9375 13.53125 L 12.375 14.9375 L 13.15625 14.15625 C 13.699219 14.519531 14.339844 14.746094 15 14.875 L 15 16 L 17 16 L 17 14.875 C 17.609375 14.742188 18.183594 14.523438 18.6875 14.1875 L 19.4375 14.9375 L 20.84375 13.53125 L 20.09375 12.78125 C 20.453125 12.25 20.710938 11.648438 20.84375 11 L 22 11 L 22 9 L 20.84375 9 C 20.710938 8.351563 20.453125 7.75 20.09375 7.21875 L 20.84375 6.46875 L 19.4375 5.0625 L 18.6875 5.8125 C 18.183594 5.476563 17.609375 5.257813 17 5.125 L 17 4 Z M 15.9375 7 C 17.605469 7 18.9375 8.332031 18.9375 10 C 18.9375 11.667969 17.605469 13 15.9375 13 C 14.269531 13 12.9375 11.667969 12.9375 10 C 12.9375 8.332031 14.269531 7 15.9375 7 Z M 8 16 L 8 17.09375 C 7.328125 17.222656 6.703125 17.472656 6.15625 17.84375 L 5.375 17.0625 L 3.9375 18.46875 L 4.75 19.28125 C 4.410156 19.800781 4.160156 20.375 4.03125 21 L 3 21 L 3 23 L 4.03125 23 C 4.160156 23.625 4.410156 24.199219 4.75 24.71875 L 3.9375 25.53125 L 5.375 26.9375 L 6.15625 26.15625 C 6.703125 26.527344 7.328125 26.777344 8 26.90625 L 8 28 L 10 28 L 10 26.875 C 10.609375 26.742188 11.183594 26.523438 11.6875 26.1875 L 12.4375 26.9375 L 13.84375 25.53125 L 13.09375 24.78125 C 13.449219 24.257813 13.707031 23.667969 13.84375 23.03125 L 15.03125 23 L 14.96875 21 L 13.84375 21.03125 C 13.710938 20.371094 13.460938 19.757813 13.09375 19.21875 L 13.84375 18.46875 L 12.4375 17.0625 L 11.6875 17.8125 C 11.183594 17.476563 10.609375 17.257813 10 17.125 L 10 16 Z M 22 16 L 22 17.125 C 21.339844 17.253906 20.699219 17.480469 20.15625 17.84375 L 19.375 17.0625 L 17.9375 18.46875 L 18.75 19.28125 C 18.410156 19.796875 18.160156 20.378906 18.03125 21 L 17 21 L 17 23 L 18.03125 23 C 18.160156 23.621094 18.410156 24.203125 18.75 24.71875 L 17.9375 25.53125 L 19.375 26.9375 L 20.15625 26.15625 C 20.699219 26.519531 21.339844 26.746094 22 26.875 L 22 28 L 24 28 L 24 26.875 C 24.605469 26.742188 25.152344 26.488281 25.65625 26.15625 L 26.4375 26.9375 L 27.84375 25.53125 L 27.09375 24.78125 C 27.453125 24.257813 27.707031 23.671875 27.84375 23.03125 L 29.03125 23 L 28.96875 21 L 27.84375 21.03125 C 27.714844 20.378906 27.421875 19.785156 27.0625 19.25 L 27.84375 18.46875 L 26.4375 17.0625 L 25.65625 17.84375 C 25.160156 17.519531 24.59375 17.289063 24 17.15625 L 24 16 Z M 8.9375 19 C 10.605469 19 11.9375 20.332031 11.9375 22 C 11.9375 23.667969 10.605469 25 8.9375 25 C 7.269531 25 5.9375 23.667969 5.9375 22 C 5.9375 20.332031 7.269531 19 8.9375 19 Z M 22.9375 19 C 24.605469 19 25.9375 20.332031 25.9375 22 C 25.9375 23.667969 24.605469 25 22.9375 25 C 21.269531 25 19.9375 23.667969 19.9375 22 C 19.9375 20.332031 21.269531 19 22.9375 19 Z"/></svg>