<svg xmlns="http://www.w3.org/2000/svg" viewBox="0 0 32 32"><path d="M 9.84375 1.664063 L 8.683594 2.050781 C 7.058594 2.59375 5.976563 3.308594 5.34375 4.199219 C 4.707031 5.089844 4.605469 6.121094 4.769531 6.945313 C 4.917969 7.691406 5.257813 8.28125 5.570313 8.757813 C 5.285156 8.925781 5.21875 8.867188 4.917969 9.167969 C 4.105469 9.980469 3.445313 11.5 4.050781 13.316406 C 4.507813 14.691406 5.570313 15.433594 6.429688 15.738281 C 6.671875 15.824219 6.675781 15.773438 6.890625 15.8125 C 6.828125 16.160156 6.757813 16.203125 6.765625 16.6875 C 6.785156 17.800781 7.179688 19.308594 8.582031 20.214844 C 9.320313 20.691406 10.144531 20.933594 10.953125 21.0625 L 5.417969 28.441406 L 6.628906 28.925781 C 12.097656 31.117188 18.316406 28.949219 18.316406 28.949219 L 19 28.71875 L 19 24.871094 C 19.773438 24.757813 20.859375 24.546875 22.199219 23.984375 C 24.316406 23.097656 26.707031 21.285156 26.996094 18.089844 C 27.109375 16.851563 26.820313 15.546875 26.53125 14.488281 C 26.457031 14.210938 26.449219 14.234375 26.375 14 L 29.660156 14 L 28.882813 12.53125 C 28.882813 12.53125 28.359375 11.503906 28.085938 10.941406 C 28.867188 9.199219 28.300781 7.300781 26.859375 6.5 C 26.460938 6.277344 26.011719 6.140625 25.535156 6.101563 C 24.117188 5.980469 22.476563 6.703125 21.203125 8.398438 C 21.074219 8.570313 20.539063 9.203125 20.234375 9.570313 C 20.140625 9.386719 20.039063 9.160156 19.925781 8.878906 C 19.480469 7.757813 19 5.890625 19 3 L 19 2 L 18 2 C 16.832031 2 15.890625 2.304688 15.21875 2.84375 C 14.546875 3.382813 14.191406 4.105469 14.03125 4.757813 C 13.804688 5.652344 13.953125 6.027344 14.03125 6.464844 C 13.679688 6.625 13.429688 6.65625 12.917969 7.167969 C 12.613281 7.472656 12.332031 7.875 12.128906 8.351563 C 11.105469 6.90625 10.269531 5.101563 9.992188 2.875 Z M 17.105469 4.238281 C 17.230469 6.609375 17.605469 8.457031 18.074219 9.621094 C 18.355469 10.324219 18.660156 10.84375 18.898438 11.191406 C 18.207031 12.015625 18.019531 12.25 17.484375 12.875 C 16.773438 12.53125 15.339844 11.730469 13.875 10.351563 C 13.660156 9.425781 13.941406 8.972656 14.332031 8.582031 C 14.769531 8.144531 15.316406 7.949219 15.316406 7.949219 L 16.195313 7.65625 L 15.96875 6.757813 C 15.96875 6.757813 15.796875 5.9375 15.96875 5.242188 C 16.058594 4.894531 16.203125 4.617188 16.46875 4.40625 C 16.578125 4.316406 16.917969 4.308594 17.105469 4.238281 Z M 8.34375 4.539063 C 9.011719 7.414063 10.480469 9.613281 12.03125 11.234375 C 12.039063 11.261719 12.042969 11.289063 12.050781 11.316406 L 12.09375 11.300781 C 13.859375 13.128906 15.667969 14.179688 16.585938 14.648438 L 17.761719 15.648438 C 17.761719 15.648438 21.835938 10.878906 22.796875 9.601563 L 22.800781 9.601563 C 24.101563 7.867188 25.246094 7.894531 25.890625 8.25 C 26.53125 8.605469 26.910156 9.328125 26.167969 10.445313 L 25.871094 10.890625 L 26.078125 11.382813 C 26.160156 11.585938 26.25 11.726563 26.386719 12 L 23.53125 12 L 24.066406 13.363281 C 24.066406 13.363281 24.34375 14.070313 24.605469 15.015625 C 24.863281 15.960938 25.074219 17.15625 25.003906 17.910156 C 24.792969 20.214844 23.183594 21.402344 21.425781 22.140625 C 19.667969 22.878906 17.933594 23 17.933594 23 L 17 23.0625 L 17 27.1875 C 16.136719 27.4375 12.515625 28.300781 8.726563 27.363281 L 13.375 21.171875 C 14.410156 21.121094 15.1875 20.984375 15.1875 20.984375 L 14.8125 19.015625 C 14.8125 19.015625 13.949219 19.183594 12.832031 19.191406 C 11.71875 19.203125 10.410156 19.015625 9.667969 18.535156 C 8.945313 18.066406 8.777344 17.386719 8.765625 16.65625 C 8.753906 15.921875 8.949219 15.316406 8.949219 15.316406 L 9.414063 13.921875 L 7.945313 14 C 7.945313 14 7.5625 14.019531 7.101563 13.855469 C 6.636719 13.6875 6.199219 13.429688 5.949219 12.683594 C 5.554688 11.5 5.894531 11.019531 6.332031 10.582031 C 6.769531 10.144531 7.316406 9.949219 7.316406 9.949219 L 8.851563 9.4375 L 7.707031 8.292969 C 7.707031 8.292969 6.898438 7.402344 6.730469 6.554688 C 6.644531 6.128906 6.667969 5.785156 6.96875 5.363281 C 7.148438 5.117188 7.847656 4.824219 8.34375 4.539063 Z"/></svg>