<svg xmlns="http://www.w3.org/2000/svg" viewBox="0 0 32 32"><path d="M 14.849609 4 C 14.799609 4.03 14.230703 5.0209375 14.970703 5.9609375 C 13.240703 6.2909375 12.010781 7.2390625 11.050781 8.2890625 C 9.1007813 8.3590625 6.9501563 8.4309375 6.6601562 9.9609375 C 6.5301563 9.9909375 6.0990625 9.9998438 6.0390625 10.089844 C 6.0290625 10.109844 5.9396875 10.480078 5.9296875 10.830078 C 5.9496875 11.510078 6.2503125 12.069219 7.0703125 11.949219 C 7.2903125 13.119219 7.1496094 13.929141 7.8496094 14.869141 C 7.7896094 15.189141 7.7507031 15.510078 7.7207031 15.830078 C 5.4207031 16.940078 3.6401563 17.660859 4.1601562 19.130859 C 4.6801562 20.390859 6.5692969 19.959844 7.7792969 19.339844 C 8.3292969 22.399844 10.389844 24.310547 13.339844 25.060547 C 11.619844 24.990547 10.459844 24.990234 10.339844 24.990234 C 9.3298438 24.990234 9.3298438 26.509766 10.339844 26.509766 C 10.449844 26.509766 11.499531 26.350781 13.269531 26.300781 L 13.220703 26.900391 C 13.130703 27.640391 14.130234 27.970312 14.490234 27.320312 C 14.490234 28.210313 15.829375 28.239844 15.859375 27.339844 L 15.890625 27.089844 C 15.950625 28.189844 17.299766 28.000625 17.259766 27.140625 C 17.459766 28.010625 18.779609 27.709844 18.599609 26.839844 L 18.550781 26.279297 C 20.090781 26.229297 22.194063 26.263906 24.414062 25.753906 C 25.604063 25.473906 26.003359 25.344609 26.693359 25.224609 C 27.403359 25.134609 26.674922 24.543984 26.544922 24.583984 C 26.464922 24.613984 26.294219 24.643594 26.074219 24.683594 C 26.724219 24.023594 26.484297 23.063672 26.404297 23.013672 C 26.314297 22.953672 25.353359 23.063828 24.943359 23.673828 C 24.603359 23.193828 23.964531 23.073281 23.894531 23.113281 C 23.824531 23.163281 23.413047 24.293125 24.373047 24.953125 C 22.743047 25.193125 21.110234 25.32 19.490234 25.25 C 18.230234 25.2 18.340313 25.249219 18.320312 25.199219 C 21.620313 24.579219 23.779688 22.539453 24.429688 19.189453 C 25.559687 19.779453 27.420391 20.490078 27.900391 19.330078 C 28.380391 18.150078 26.399375 17.239531 24.609375 16.019531 C 24.569375 15.409531 24.490859 14.82 24.380859 14.25 C 24.670859 13.54 24.640781 12.779219 24.800781 11.949219 C 25.610781 12.059219 25.909453 11.500078 25.939453 10.830078 C 25.919453 10.480078 25.840312 10.110078 25.820312 10.080078 C 25.770312 10.000078 25.340938 9.9909375 25.210938 9.9609375 C 24.950937 8.6009375 23.230469 8.3905469 21.480469 8.3105469 C 20.330469 7.0605469 18.780078 6.029375 16.830078 5.859375 C 17.380078 5.329375 17.120312 4.639375 17.070312 4.609375 C 17.010313 4.569375 16.379141 4.7008594 16.119141 5.1308594 C 15.879141 4.2108594 14.929609 3.97 14.849609 4 z M 20.730469 5.0136719 C 20.142656 4.9513281 19.584062 5.0955469 19.539062 5.5605469 C 19.499062 6.7605469 20.880469 5.5208594 22.230469 5.8808594 C 22.580469 5.6108594 21.360547 5.160625 21.310547 5.140625 C 21.125547 5.078125 20.926406 5.0344531 20.730469 5.0136719 z M 11.466797 5.015625 C 11.251484 5.03875 11.032578 5.08625 10.830078 5.15625 C 10.780078 5.17625 9.4403125 5.6667969 9.8203125 5.9667969 C 11.310313 5.5767969 12.819297 6.9371875 12.779297 5.6171875 C 12.726797 5.1071875 12.112734 4.94625 11.466797 5.015625 z M 12.052734 9.5253906 C 13.410703 9.5599375 14.459687 9.8894375 14.429688 11.398438 C 14.439687 12.240437 14.120703 14.064047 13.720703 14.498047 C 13.100703 15.178047 10.019062 15.038312 9.5390625 14.820312 C 8.7090625 14.442312 7.8699219 11.153453 8.4199219 10.189453 C 8.7399219 9.6414531 9.5691406 9.6036406 10.619141 9.5566406 C 11.111641 9.5353906 11.600078 9.513875 12.052734 9.5253906 z M 19.845703 9.5292969 C 20.291641 9.5177969 20.772266 9.5392969 21.259766 9.5605469 C 22.309766 9.6075469 23.189766 9.6453594 23.509766 10.193359 C 24.099766 11.221359 23.090078 14.479125 22.330078 14.828125 C 21.860078 15.036125 18.780156 15.177047 18.160156 14.498047 C 17.760156 14.064047 17.489531 12.240391 17.519531 11.400391 C 17.482031 9.8921406 18.507891 9.5637969 19.845703 9.5292969 z M 12.005859 11 C 11.451859 11 11 11.454 11 12 C 11 12.558 11.451859 13 12.005859 13 C 12.547859 13 13 12.558 13 12 C 13 11.455 12.547859 11 12.005859 11 z M 19.994141 11 C 19.452141 11 19 11.454 19 12 C 19 12.558 19.452141 13 19.994141 13 C 20.548141 13 21 12.558 21 12 C 21 11.455 20.548141 11 19.994141 11 z M 15.785156 12.591797 C 15.881156 12.570797 16.196969 12.570797 16.292969 12.591797 C 16.723969 12.729797 16.799 13.630578 17 14.267578 C 16.388 14.415578 16.292797 15 16.091797 15 C 15.890797 15 15.708 14.501953 15 14.501953 C 15.287 13.726953 15.325156 12.739797 15.785156 12.591797 z"/></svg>