<svg xmlns="http://www.w3.org/2000/svg" viewBox="0 0 32 32"><path d="M 16.046875 3 C 8.873875 2.983 3.0464375 8.7858438 3.0234375 15.964844 L 3 25.849609 C 2.99 27.567609 4.3738438 28.966562 6.0898438 28.976562 L 6.1074219 28.976562 L 15.976562 29 C 23.148563 29.017 28.983 23.214156 29 16.035156 C 29.017 8.8561563 23.219875 3.017 16.046875 3 z M 18.917969 8.0117188 L 18.929688 8.0117188 C 19.258688 8.0097187 19.587203 8.0480469 19.908203 8.1230469 C 20.449203 8.2110469 20.869141 8.6991563 20.869141 9.2851562 C 20.869141 10.035156 20.148344 10.632359 19.402344 10.443359 C 18.076344 10.157359 16.212031 11.140562 16.207031 13.101562 L 16.203125 15.376953 C 16.201125 15.615953 16.393813 15.8105 16.632812 15.8125 L 16.634766 15.8125 L 18.261719 15.816406 C 19.834719 15.825406 19.829953 18.212031 18.251953 18.207031 L 16.189453 18.203125 L 16.183594 20.914062 C 16.173594 24.269063 13.066609 26.520484 10.099609 25.896484 C 9.8236094 25.896484 9.1367188 25.475609 9.1367188 24.724609 C 9.1447187 24.071609 9.6692656 23.543203 10.322266 23.533203 C 10.627266 23.533203 10.627031 23.609375 11.082031 23.609375 C 12.577031 23.614375 13.793828 22.406109 13.798828 20.912109 L 13.798828 20.904297 L 13.802734 18.628906 C 13.802734 18.410906 13.584094 18.193359 13.371094 18.193359 L 11.744141 18.1875 C 10.166141 18.1825 10.172 15.795781 11.75 15.800781 L 13.8125 15.806641 L 13.816406 13.095703 C 13.821406 10.283703 16.104969 8.0067187 18.917969 8.0117188 z M 20.917969 8.4238281 C 22.257969 9.0038281 23.288 10.127672 23.75 11.513672 L 21.121094 8.8691406 C 21.082094 8.7081406 21.013969 8.5578281 20.917969 8.4238281 z M 21.199219 9.21875 L 23.871094 11.933594 C 23.957094 12.288594 24.002812 12.652578 24.007812 13.017578 L 21.015625 9.9863281 C 21.126625 9.7583281 21.199219 9.5419219 21.199219 9.2949219 L 21.199219 9.21875 z M 20.898438 10.167969 L 24.011719 13.300781 C 23.999719 13.570781 23.962391 13.839516 23.900391 14.103516 L 20.419922 10.613281 C 20.609922 10.500281 20.772438 10.348969 20.898438 10.167969 z M 21.28125 11.789062 L 23.851562 14.373047 C 23.788563 14.608047 23.712047 14.840406 23.623047 15.066406 L 21.625 13.056641 C 21.612 12.612641 21.49425 12.178063 21.28125 11.789062 z M 21.609375 13.361328 L 23.521484 15.289062 C 23.429484 15.491063 23.321266 15.684141 23.197266 15.869141 L 21.435547 14.097656 C 21.533547 13.863656 21.592375 13.614328 21.609375 13.361328 z M 21.349609 14.316406 L 23.082031 16.054688 C 22.952031 16.230687 22.813016 16.4005 22.666016 16.5625 L 20.976562 14.867188 C 21.120562 14.697188 21.245609 14.513406 21.349609 14.316406 z M 20.826172 15.027344 L 22.515625 16.722656 C 22.360625 16.876656 22.198344 17.021203 22.027344 17.158203 L 20.318359 15.439453 C 20.502359 15.321453 20.673172 15.182344 20.826172 15.027344 z M 20.099609 15.544922 L 21.851562 17.283203 C 21.668563 17.405203 21.470344 17.526813 21.277344 17.632812 L 19.4375 15.773438 C 19.6745 15.720437 19.901609 15.656922 20.099609 15.544922 z M 10.611328 15.826172 C 10.462328 15.992172 10.336281 16.178906 10.238281 16.378906 L 9.828125 15.966797 C 10.084125 15.894797 10.345328 15.848172 10.611328 15.826172 z M 9.5898438 16.029297 L 10.160156 16.605469 L 10.117188 16.992188 C 10.118187 17.199188 10.157422 17.404656 10.232422 17.597656 L 8.9257812 16.28125 C 9.1397813 16.17825 9.3618438 16.092297 9.5898438 16.029297 z M 8.7089844 16.388672 L 10.558594 18.246094 C 10.321594 18.290094 10.091 18.366609 9.875 18.474609 L 8.1660156 16.736328 C 8.3400156 16.608328 8.5209844 16.493672 8.7089844 16.388672 z M 19.761719 16.417969 L 21.068359 17.734375 C 20.855359 17.841375 20.633297 17.927234 20.404297 17.990234 L 19.833984 17.414062 L 19.878906 17.021484 C 19.877906 16.814484 19.836719 16.610969 19.761719 16.417969 z M 7.9726562 16.861328 L 9.6816406 18.580078 C 9.4986406 18.700078 9.3288281 18.839187 9.1738281 18.992188 L 7.484375 17.316406 C 7.630375 17.148406 7.7936562 16.995328 7.9726562 16.861328 z M 7.328125 17.457031 L 9.0195312 19.152344 C 8.8735312 19.320344 8.7484844 19.505125 8.6464844 19.703125 L 6.9121094 17.966797 C 7.0471094 17.782797 7.188125 17.617031 7.328125 17.457031 z M 19.755859 17.642578 L 20.167969 18.052734 C 19.912969 18.120734 19.652672 18.167359 19.388672 18.193359 C 19.545672 18.035359 19.669859 17.848578 19.755859 17.642578 z M 6.796875 18.150391 L 8.5585938 19.921875 C 8.4605937 20.155875 8.4017656 20.405203 8.3847656 20.658203 L 6.4726562 18.730469 C 6.5666563 18.529469 6.674875 18.336391 6.796875 18.150391 z M 6.3710938 18.939453 L 8.3691406 20.962891 C 8.3851406 21.403891 8.4953594 21.836469 8.6933594 22.230469 L 6.1425781 19.640625 C 6.2105781 19.403625 6.2840938 19.176453 6.3710938 18.939453 z M 6.0898438 19.892578 L 9.5859375 23.402344 C 9.4029375 23.513344 9.2384687 23.657219 9.1054688 23.824219 L 5.9882812 20.716797 C 5.9932812 20.439797 6.0268437 20.162578 6.0898438 19.892578 z M 5.9882812 21.021484 L 8.984375 24.03125 C 8.871375 24.24525 8.8125469 24.483609 8.8105469 24.724609 L 8.8105469 24.777344 L 6.1289062 22.080078 C 6.0379063 21.735078 5.9902812 21.379484 5.9882812 21.021484 z M 6.2441406 22.507812 L 8.8730469 25.150391 C 8.9140469 25.309391 8.9821719 25.460703 9.0761719 25.595703 C 7.7371719 25.014703 6.7071406 23.892813 6.2441406 22.507812 z"/></svg>