<svg xmlns="http://www.w3.org/2000/svg" viewBox="0 0 32 32"><path d="M 15.640625 3 L 15.640625 4.5292969 C 14.843625 5.7392969 14.239125 10.902969 14.203125 17.167969 C 14.892125 16.250969 15.326172 15.212891 15.326172 14.337891 L 15.326172 13.345703 C 15.324172 13.033703 15.370078 12.727734 15.455078 12.427734 C 15.493078 12.301734 15.537375 12.188938 15.609375 12.085938 C 15.681375 11.982938 15.810953 11.863281 16.001953 11.863281 C 16.191953 11.863281 16.320578 11.983937 16.392578 12.085938 C 16.464578 12.188937 16.508875 12.301734 16.546875 12.427734 C 16.630875 12.727734 16.677781 13.033703 16.675781 13.345703 L 16.675781 14.337891 C 16.675781 15.212891 17.109828 16.250969 17.798828 17.167969 C 17.761828 10.902969 17.156375 5.7392969 16.359375 4.5292969 L 16.359375 3 L 15.640625 3 z M 14.09375 11.673828 C 13.53475 11.799828 12.996422 11.977078 12.482422 12.205078 C 13.004422 13.151078 13.055031 14.122531 12.582031 14.394531 C 12.113031 14.665531 11.300187 14.145469 10.742188 13.230469 C 10.062188 13.746469 9.4582188 14.365641 8.9492188 15.056641 C 9.8132188 15.621641 10.291438 16.401469 10.023438 16.855469 C 9.7574375 17.307469 8.8484063 17.273828 7.9414062 16.798828 C 7.6024062 17.576828 7.3698125 18.412109 7.2578125 19.287109 C 7.8258125 19.298109 8.3549219 19.428578 8.7949219 19.642578 C 9.8399219 19.624578 10.718875 19.526531 11.171875 19.394531 C 11.497875 17.848531 12.521672 16.564344 13.888672 15.902344 C 13.931672 14.403344 13.99975 12.987828 14.09375 11.673828 z M 17.904297 11.673828 C 17.997297 12.988828 18.066375 14.403344 18.109375 15.902344 C 19.477375 16.563344 20.502125 17.847531 20.828125 19.394531 C 21.281125 19.527531 22.160125 19.624578 23.203125 19.642578 C 23.644125 19.427578 24.172234 19.298109 24.740234 19.287109 C 24.628234 18.412109 24.396641 17.575828 24.056641 16.798828 C 23.150641 17.273828 22.241609 17.307469 21.974609 16.855469 C 21.706609 16.401469 22.184828 15.620641 23.048828 15.056641 C 22.539828 14.365641 21.934859 13.746469 21.255859 13.230469 C 20.697859 14.145469 19.885016 14.665531 19.416016 14.394531 C 18.944016 14.121531 18.993625 13.151078 19.515625 12.205078 C 18.997625 11.975078 18.457297 11.798828 17.904297 11.673828 z M 16.001953 12.177734 C 15.812953 12.177734 15.657531 12.694656 15.644531 13.347656 L 15.640625 13.347656 L 15.640625 14.337891 C 15.640625 16.768891 12.764297 19.914062 10.154297 19.914062 C 7.1132969 19.914062 2.9829531 19.832375 1.0019531 21.609375 L 1.0019531 21.8125 C 1.5499531 22.8025 2.1957812 23.732844 2.9257812 24.589844 C 3.6607812 23.351844 5.9526719 22.186109 9.2636719 22.162109 C 11.944672 22.222109 13.901844 23.355547 14.589844 24.560547 C 14.589844 24.560547 14.589844 24.5625 14.589844 24.5625 C 15.039844 24.6885 15.520953 24.753953 16.001953 24.751953 C 16.482953 24.752953 16.962109 24.6875 17.412109 24.5625 C 17.412109 24.5625 17.412109 24.560547 17.412109 24.560547 C 18.101109 23.355547 20.058281 22.221109 22.738281 22.162109 C 26.050281 22.185109 28.341172 23.351844 29.076172 24.589844 C 29.806172 23.732844 30.452953 22.8015 31.001953 21.8125 L 31.001953 21.609375 L 31 21.609375 C 29.019 19.832375 24.888656 19.914062 21.847656 19.914062 C 19.237656 19.914062 16.361328 16.767891 16.361328 14.337891 L 16.361328 13.347656 L 16.357422 13.347656 C 16.343422 12.694656 16.190953 12.177734 16.001953 12.177734 z M 16 17.84375 C 17.316 17.84375 18.382812 18.910562 18.382812 20.226562 C 18.382812 21.542562 17.316 22.613281 16 22.613281 C 14.684 22.613281 13.617188 21.542563 13.617188 20.226562 C 13.617188 18.910563 14.684 17.84375 16 17.84375 z M 16 18.292969 C 14.932 18.292969 14.066406 19.159563 14.066406 20.226562 C 14.066406 21.294563 14.933 22.160156 16 22.160156 C 17.067 22.160156 17.933594 21.293563 17.933594 20.226562 C 17.933594 19.159562 17.068 18.292969 16 18.292969 z M 16 18.654297 C 16.869 18.654297 17.574219 19.359516 17.574219 20.228516 C 17.574219 21.097516 16.869 21.802734 16 21.802734 C 15.131 21.802734 14.425781 21.097516 14.425781 20.228516 C 14.425781 19.359516 15.131 18.654297 16 18.654297 z M 9.2636719 22.566406 C 8.6656719 22.570406 7.9946562 22.586109 7.4726562 22.662109 C 7.4976563 22.921109 7.562625 23.756156 7.890625 24.410156 C 8.425625 24.260156 8.9677188 24.181641 9.5117188 24.181641 C 11.934719 24.236641 13.705516 26.196781 14.103516 28.550781 L 14.109375 28.826172 C 14.720375 28.939172 15.354953 29 16.001953 29 C 16.648953 29 17.280625 28.939172 17.890625 28.826172 L 17.896484 28.550781 C 18.294484 26.196781 20.067234 24.236641 22.490234 24.181641 C 23.033234 24.181641 23.576328 24.260156 24.111328 24.410156 C 24.440328 23.757156 24.502344 22.922109 24.527344 22.662109 C 24.005344 22.586109 23.336281 22.570406 22.738281 22.566406 C 21.637281 22.591406 20.673719 22.811766 19.886719 23.134766 C 19.150719 24.075766 18.175563 24.895219 16.976562 25.074219 C 16.971563 25.075219 16.966937 25.077125 16.960938 25.078125 L 16.951172 25.080078 C 16.644172 25.143078 16.327953 25.175781 16.001953 25.175781 C 15.675953 25.175781 15.357781 25.143078 15.050781 25.080078 L 15.042969 25.078125 C 15.036969 25.077125 15.031391 25.075219 15.025391 25.074219 C 13.827391 24.896219 12.852234 24.075766 12.115234 23.134766 C 11.327234 22.812766 10.364672 22.591406 9.2636719 22.566406 z"/></svg>