<svg xmlns="http://www.w3.org/2000/svg" viewBox="0 0 32 32"><path d="M 5 5 L 5 27 L 27 27 L 27 5 L 5 5 z M 7 7 L 25 7 L 25 25 L 7 25 L 7 7 z M 16.871094 10.361328 C 16.239094 10.361328 15.869141 10.699078 15.869141 11.330078 C 15.869141 11.973078 16.240094 12.332031 16.871094 12.332031 C 17.513094 12.332031 17.882812 11.972078 17.882812 11.330078 C 17.882812 10.698078 17.513094 10.361328 16.871094 10.361328 z M 19.984375 11.416016 C 19.864375 12.624016 19.472906 13.113656 18.503906 13.222656 L 18.503906 14.214844 C 19.396906 14.214844 19.363281 14.180266 19.363281 14.322266 L 19.363281 17.240234 C 19.363281 18.492234 19.865359 19 21.193359 19 C 21.824359 19 22.521 18.820078 23 18.580078 L 22.695312 17.597656 C 20.910312 18.272656 21 17.054141 21 16.869141 L 21 14.212891 L 22.695312 14.212891 L 22.695312 13.103516 L 21 13.103516 L 21 11.416016 L 19.984375 11.416016 z M 11.728516 13.214844 C 10.571031 13.219906 9.1738281 13.682109 9.1738281 15.380859 C 9.1738281 16.196859 9.5888125 16.773875 10.132812 17.046875 C 9.4468125 17.676875 9.1191406 17.970766 9.1191406 18.384766 C 9.1191406 18.689766 9.250375 18.960047 9.609375 19.123047 C 9.228375 19.483047 9 19.756812 9 20.257812 C 9 21.128812 9.7723906 21.640625 11.775391 21.640625 C 13.713391 21.640625 14.835938 20.921437 14.835938 19.648438 C 14.835938 18.037437 13.6055 18.102969 10.6875 17.917969 L 11.056641 17.328125 C 11.796641 17.535125 14.300781 17.601516 14.300781 15.478516 C 14.300781 14.966516 14.093719 14.607422 13.886719 14.357422 L 14.910156 14.28125 L 14.910156 13.332031 L 12.744141 13.332031 C 12.471891 13.261281 12.114344 13.213156 11.728516 13.214844 z M 15.554688 13.224609 L 15.433594 14.128906 C 16.119594 14.367906 16.173828 14.3335 16.173828 14.5625 L 16.173828 17.839844 C 16.173828 18.079844 16.162594 18.036766 15.433594 18.134766 L 15.433594 19 L 18.601562 19 L 18.601562 18.134766 L 18.035156 18.058594 C 17.872156 18.036594 17.861328 18.013844 17.861328 17.839844 L 17.861328 13.224609 L 15.554688 13.224609 z M 11.820312 14.322266 C 13.180312 14.322266 13.213109 16.261719 11.787109 16.261719 C 10.350109 16.261719 10.415313 14.322266 11.820312 14.322266 z M 10.599609 19.417969 C 12.722609 19.570969 13.179687 19.516406 13.179688 19.941406 C 13.179688 20.823406 10.316406 20.822859 10.316406 20.005859 C 10.316406 19.787859 10.457609 19.602969 10.599609 19.417969 z"/></svg>