<svg xmlns="http://www.w3.org/2000/svg" viewBox="0 0 32 32"><path d="M 14.5 3 C 12.567 3 11 4.567 11 6.5 C 11 10 17 13 17 13 C 17 13 23 10 23 6.5 C 23 4.567 21.433 3 19.5 3 C 18.519 3 17.635 3.4066406 17 4.0566406 C 16.365 3.4066406 15.481 3 14.5 3 z M 14.5 5 C 14.904 5 15.284313 5.160125 15.570312 5.453125 L 16.103516 6 L 17.896484 6 L 18.429688 5.453125 C 18.715688 5.160125 19.096 5 19.5 5 C 20.327 5 21 5.673 21 6.5 C 21 7.761 18.894 9.5758438 17 10.714844 C 15.105 9.5748437 13 7.761 13 6.5 C 13 5.673 13.673 5 14.5 5 z M 19.21875 13.978516 L 17.582031 15.126953 L 20.191406 18.849609 L 16.589844 21.34375 L 14.046875 20.027344 C 15.221946 19.435735 16.740633 18.671002 16.746094 18.667969 L 16.757812 18.660156 L 16.767578 18.654297 C 17.73002 18.08786 18.223142 16.919812 17.902344 15.808594 L 17.902344 15.806641 C 17.522685 14.49269 16.123178 13.720962 14.808594 14.099609 L 14.806641 14.099609 L 7.6953125 16.082031 L 2.9882812 19.316406 L 4.8828125 27.037109 L 9.9277344 25.214844 L 17.074219 28.914062 L 28.943359 20.697266 L 27.806641 19.052734 L 16.925781 26.585938 L 10.072266 23.035156 L 6.2949219 24.400391 L 5.2617188 20.183594 L 8.5546875 17.917969 L 15.357422 16.021484 L 15.361328 16.021484 C 15.638162 15.941494 15.900321 16.085904 15.980469 16.363281 C 16.047189 16.594407 15.942859 16.815375 15.755859 16.927734 C 15.723219 16.944614 13.072686 18.278992 11.398438 19.121094 L 9.6484375 20 L 16.740234 23.673828 L 22.984375 19.349609 L 19.21875 13.978516 z"/></svg>