<svg xmlns="http://www.w3.org/2000/svg" viewBox="0 0 32 32"><path d="M 19.3125 6.96875 C 18.757813 6.972656 18.207031 7 17.625 7.15625 C 17.042969 7.3125 16.460938 7.5625 15.84375 7.96875 C 15.078125 7.519531 14.335938 7.148438 13.625 7.0625 C 12.742188 6.953125 11.921875 7.011719 10.96875 7.03125 C 9.839844 7.054688 9.101563 7.632813 7.90625 8.09375 C 6.710938 8.554688 5.171875 9 3 9 L 2 9 L 2 18.625 L 2.5625 18.90625 L 4.40625 19.8125 L 10.96875 27.125 L 11 27.15625 C 11.75 27.898438 12.761719 28.082031 13.65625 28.03125 C 14.550781 27.980469 15.390625 27.71875 16.0625 27.3125 C 17.539063 26.421875 21.5625 23.625 21.5625 23.625 L 21.65625 23.5625 L 21.71875 23.5 C 22.195313 23.027344 22.433594 22.449219 22.59375 21.84375 L 26.4375 19.90625 L 29.3125 18.9375 L 30 18.71875 L 30 9 L 29 9 C 26.832031 9 25.289063 8.53125 24.09375 8.0625 C 22.898438 7.59375 22.171875 7.023438 21.03125 7 C 20.421875 6.988281 19.867188 6.964844 19.3125 6.96875 Z M 19.34375 8.96875 C 19.792969 8.964844 20.3125 8.988281 20.96875 9 C 21.074219 9.003906 22.035156 9.414063 23.375 9.9375 C 24.507813 10.382813 26.082031 10.777344 28 10.90625 L 28 17.28125 L 25.6875 18.0625 L 25.625 18.0625 L 25.5625 18.09375 L 22.53125 19.625 C 22.363281 19.167969 22.132813 18.746094 21.78125 18.375 L 21.71875 18.28125 L 17.46875 13.0625 L 16.84375 12.28125 L 16.0625 12.90625 L 13.375 15.09375 C 12.472656 15.71875 11.742188 15.539063 11 15.1875 C 10.785156 15.085938 10.796875 15.054688 10.625 14.9375 L 15.1875 11.15625 L 15.25 11.09375 C 16.605469 9.75 17.4375 9.285156 18.15625 9.09375 C 18.515625 8.996094 18.894531 8.972656 19.34375 8.96875 Z M 12.375 9 C 12.757813 8.992188 13.078125 8.996094 13.375 9.03125 C 13.636719 9.0625 13.933594 9.285156 14.1875 9.375 C 14.085938 9.46875 14.011719 9.523438 13.90625 9.625 C 13.882813 9.648438 13.867188 9.664063 13.84375 9.6875 L 8.375 14.21875 L 7.53125 14.90625 L 8.28125 15.6875 C 8.28125 15.6875 9.003906 16.46875 10.125 17 C 11.246094 17.53125 12.976563 17.832031 14.53125 16.75 L 14.59375 16.6875 L 16.53125 15.09375 L 20.21875 19.625 L 20.25 19.6875 L 20.28125 19.71875 C 20.941406 20.371094 20.925781 21.398438 20.28125 22.0625 C 20.273438 22.070313 20.289063 22.085938 20.28125 22.09375 C 20.273438 22.097656 20.140625 22.175781 20.125 22.1875 L 18.8125 20.40625 L 17.1875 21.59375 L 18.46875 23.3125 C 17.949219 23.664063 17.714844 23.847656 17.15625 24.21875 L 15.8125 22.40625 L 14.1875 23.59375 L 15.46875 25.3125 C 15.355469 25.382813 15.121094 25.539063 15.03125 25.59375 C 14.714844 25.785156 14.105469 26 13.5625 26.03125 C 13.050781 26.058594 12.660156 25.941406 12.46875 25.78125 L 12.4375 25.75 L 5.75 18.34375 L 5.625 18.1875 L 4 17.375 L 4 10.90625 C 5.910156 10.78125 7.496094 10.402344 8.625 9.96875 C 9.960938 9.457031 10.914063 9.035156 11.03125 9.03125 C 11.542969 9.019531 11.992188 9.007813 12.375 9 Z"/></svg>