<svg xmlns="http://www.w3.org/2000/svg" viewBox="0 0 32 32"><path d="M 18 6 L 18 10.0625 C 16.152344 10.222656 14.742188 10.785156 13.78125 11.46875 C 13.21875 11.871094 12.824219 12.316406 12.53125 12.71875 C 12.464844 12.808594 12.460938 12.917969 12.40625 13 L 5.8125 13 C 5.394531 11.84375 4.292969 11 3 11 C 1.355469 11 0 12.355469 0 14 C 0 15.644531 1.355469 17 3 17 C 4.292969 17 5.394531 16.15625 5.8125 15 L 14 15 L 14 14.15625 C 14.011719 14.105469 14.046875 13.980469 14.125 13.875 C 14.277344 13.664063 14.546875 13.371094 14.9375 13.09375 C 15.722656 12.535156 17.015625 12 19 12 C 19.449219 12 19.910156 12.15625 20.375 12.21875 C 19.851563 13.066406 19.6875 14.144531 19.6875 15.78125 C 19.6875 16.511719 19.9375 17.246094 20.46875 17.78125 C 21 18.316406 21.773438 18.625 22.625 18.625 C 24.640625 18.625 25.972656 18.550781 26.96875 18.375 C 27.054688 18.359375 27.074219 18.300781 27.15625 18.28125 C 27.113281 18.355469 27.117188 18.496094 27.0625 18.5625 C 26.792969 18.90625 26.390625 19.183594 25.8125 19.40625 C 24.65625 19.855469 22.902344 20 21.15625 20 L 16.21875 20 C 14.988281 20 14 19.011719 14 17.78125 L 14 16 L 12 16 L 12 17.78125 C 12 20.09375 13.90625 22 16.21875 22 L 21.15625 22 C 22.984375 22 24.90625 21.910156 26.53125 21.28125 C 27.34375 20.964844 28.105469 20.484375 28.65625 19.78125 C 29.207031 19.078125 29.5 18.164063 29.5 17.125 C 29.5 14.953125 27.933594 13.191406 25.9375 11.96875 C 25.175781 11.503906 24.285156 11.1875 23.40625 10.875 C 22.300781 10.480469 21.15625 10.179688 20 10.0625 L 20 6 Z M 7 7 L 7 9 L 17 9 L 17 7 Z M 21 7 L 21 9 L 31 9 L 31 7 Z M 23.0625 12.90625 C 23.6875 13.148438 24.339844 13.363281 24.875 13.6875 C 26.097656 14.433594 26.796875 15.304688 27.15625 16.1875 C 27 16.257813 26.992188 16.339844 26.625 16.40625 C 25.871094 16.539063 24.597656 16.625 22.625 16.625 C 22.210938 16.625 22.003906 16.507813 21.875 16.375 C 21.746094 16.242188 21.6875 16.054688 21.6875 15.78125 C 21.6875 14.078125 21.910156 13.308594 22.0625 13.125 C 22.136719 13.03125 22.207031 12.988281 22.40625 12.9375 C 22.535156 12.902344 22.816406 12.917969 23.0625 12.90625 Z M 3 13 C 3.5625 13 4 13.4375 4 14 C 4 14.5625 3.5625 15 3 15 C 2.4375 15 2 14.5625 2 14 C 2 13.4375 2.4375 13 3 13 Z M 28 22 C 28 22.566406 27.566406 23 27 23 L 11 23 L 11 25 L 27 25 C 28.644531 25 30 23.644531 30 22 Z"/></svg>