<svg xmlns="http://www.w3.org/2000/svg" viewBox="0 0 32 32"><path d="M 11.478516 7 C 10.688516 7 10.039063 7.6702344 10.039062 8.4902344 C 10.039062 9.2902344 10.668516 9.9804687 11.478516 9.9804688 C 12.288516 9.9804688 12.929688 9.3002344 12.929688 8.4902344 C 12.929688 7.6502344 12.278516 7 11.478516 7 z M 0.25390625 7.2597656 C 0.16390625 7.2597656 0.12304688 7.3003906 0.12304688 7.4003906 L 0.12304688 21.789062 C 0.12304688 21.889063 0.16390625 21.939453 0.25390625 21.939453 L 2.3046875 21.939453 C 2.4046875 21.939453 2.4433594 21.889062 2.4433594 21.789062 L 2.4433594 14.779297 C 2.4433594 14.729297 2.304375 13.380859 4.734375 13.380859 C 7.164375 13.380859 7.0234375 14.729297 7.0234375 14.779297 L 7.0234375 21.099609 C 7.0234375 21.559609 7.39375 21.939453 7.84375 21.939453 L 9.2148438 21.939453 C 9.3048437 21.939453 9.34375 21.889062 9.34375 21.789062 L 9.34375 14.779297 C 9.34275 13.569297 8.8833594 12.619922 7.9433594 11.919922 C 7.1433594 11.319922 6.1335938 11 4.9335938 11 C 4.0235937 10.99 3.2033594 11.190078 2.4433594 11.580078 L 2.4433594 7.4003906 C 2.4433594 7.3003906 2.3946875 7.2597656 2.3046875 7.2597656 L 0.25390625 7.2597656 z M 18.880859 11 C 17.318859 11 13.763672 12.012375 13.763672 16.234375 L 13.763672 25.523438 C 13.763672 25.572437 13.793578 25.662109 13.892578 25.662109 L 15.904297 25.662109 C 15.992297 25.662109 16.042969 25.622437 16.042969 25.523438 L 16.042969 21.035156 C 16.847969 21.673156 17.799141 21.998047 18.869141 21.998047 C 21.845141 21.998047 24.212891 19.543047 24.212891 16.498047 C 24.213891 13.445047 21.846859 11 18.880859 11 z M 28.603516 11 C 27.298516 11 26.376516 11.285391 25.728516 11.775391 C 25.708516 11.795391 24.334141 12.785187 24.619141 14.492188 C 24.786141 15.483188 25.393359 16.220172 26.443359 16.701172 L 29.074219 17.888672 C 29.644219 18.144672 29.820828 18.555031 29.673828 18.957031 C 29.486828 19.418031 29.024953 19.644531 27.876953 19.644531 C 26.689953 19.644531 25.688719 19.193594 25.011719 18.683594 C 24.913719 18.615594 24.796875 18.692781 24.796875 18.800781 L 24.796875 20.537109 C 24.796875 21.067109 25.040719 21.410891 25.511719 21.587891 C 26.277719 21.862891 27.062953 22 27.876953 22 C 28.504953 22 29.143062 21.940203 29.664062 21.783203 C 29.693062 21.763203 31.429391 21.33275 31.900391 19.46875 C 32.066391 18.78175 32.017187 18.123328 31.742188 17.486328 C 31.409187 16.691328 30.840156 16.122766 30.035156 15.759766 L 27.210938 14.484375 C 26.788938 14.298375 26.758031 13.914922 27.082031 13.669922 C 27.445031 13.384922 29.250125 12.963672 31.203125 14.013672 C 31.281125 14.062672 31.398438 13.992531 31.398438 13.894531 L 31.398438 11.628906 C 31.398437 11.559906 31.369781 11.52 31.300781 11.5 C 30.437781 11.167 29.535516 11 28.603516 11 z M 10.458984 11.240234 C 10.378984 11.240234 10.328125 11.320625 10.328125 11.390625 L 10.328125 21.789062 C 10.328125 21.869062 10.378984 21.939453 10.458984 21.939453 L 12.509766 21.939453 C 12.599766 21.939453 12.648438 21.889062 12.648438 21.789062 L 12.648438 11.390625 C 12.648437 11.290625 12.599766 11.240234 12.509766 11.240234 L 10.458984 11.240234 z M 18.880859 13.347656 C 20.569859 13.347656 21.933594 14.752 21.933594 16.5 C 21.935594 18.238 20.589859 19.652344 18.880859 19.652344 C 18.035859 19.652344 17.310703 19.337516 16.720703 18.728516 C 16.121703 18.109516 15.826172 17.374 15.826172 16.5 C 15.826172 14.752 17.181859 13.347656 18.880859 13.347656 z"/></svg>