<svg xmlns="http://www.w3.org/2000/svg" viewBox="0 0 32 32"><path d="M 16 3 C 13.794 3 12 4.794 12 7 C 12 7.7496708 12.219952 8.4426966 12.580078 9.0429688 C 10.573725 9.2562596 9 10.937904 9 13 C 9 14.184631 9.5269863 15.239658 10.347656 15.972656 C 10.221321 15.980221 10.09507 15.997777 9.96875 16.001953 C 9.64575 16.011953 9.3342031 16.011953 9.0332031 16.001953 L 8.078125 15.96875 L 8.0039062 16.921875 C 7.9539063 17.553875 7.76525 18.505891 7.15625 19.462891 C 6.72725 20.137891 6.1418906 20.72225 5.4628906 21.15625 L 4.7265625 21.626953 L 5.0917969 22.419922 C 5.6357969 23.596922 5.9419531 24.817828 6.0019531 26.048828 C 6.0179531 26.362828 6.0169531 26.664172 6.0019531 26.951172 L 5.9277344 28.466797 L 7.3496094 27.9375 C 8.8836094 27.3665 10.459156 27.052 12.035156 27 C 12.356156 26.989 12.66775 26.99 12.96875 27 L 13.923828 27.03125 L 13.998047 26.080078 C 14.048047 25.448078 14.236703 24.494109 14.845703 23.537109 C 15.274703 22.862109 15.860062 22.27775 16.539062 21.84375 L 17.339844 21.333984 L 16.871094 20.507812 C 16.404094 19.684812 16.108188 18.799953 15.992188 17.876953 C 15.938389 17.445069 15.938245 17.006552 15.964844 16.568359 C 16.025912 16.618495 16.111852 16.686129 16.230469 16.75 C 16.270469 16.77 16.299844 16.790547 16.339844 16.810547 C 16.499844 16.880547 16.569375 16.909922 16.609375 16.919922 L 16.650391 16.939453 C 18.390391 17.579453 20.180703 17.94 21.970703 18 L 22.130859 18 C 22.140859 18.01 22.140625 18.019297 22.140625 18.029297 C 22.330625 18.919297 22.680156 19.779063 23.160156 20.539062 C 23.590156 21.219062 24.139531 21.829844 24.769531 22.339844 C 24.359531 23.419844 24.109531 24.520859 24.019531 25.630859 C 22.709531 25.250859 21.369297 25.04 20.029297 25 L 19.869141 25 C 19.679141 24.1 19.329844 23.230938 18.839844 22.460938 C 18.793844 22.388938 18.730641 22.324906 18.681641 22.253906 L 17.34375 23.107422 C 17.24575 23.170422 17.133578 23.249797 17.017578 23.341797 C 17.063578 23.407797 17.115203 23.471062 17.158203 23.539062 C 17.768203 24.489062 17.948047 25.448125 17.998047 26.078125 L 18.078125 27.029297 L 19.029297 27 C 19.329297 26.99 19.650703 26.99 19.970703 27 C 21.540703 27.05 23.120391 27.369453 24.650391 27.939453 L 26.070312 28.470703 L 26 26.949219 C 25.98 26.659219 25.98 26.360781 26 26.050781 C 26.06 24.820781 26.360156 23.599922 26.910156 22.419922 L 27.269531 21.630859 L 26.539062 21.160156 C 25.859063 20.720156 25.269844 20.140938 24.839844 19.460938 C 24.229844 18.510938 24.05 17.549922 24 16.919922 L 23.919922 15.970703 L 22.970703 16 C 22.770703 16.01 22.559609 16.009766 22.349609 16.009766 C 22.239609 15.999766 22.139297 16 22.029297 16 C 21.903754 15.995897 21.777988 15.98012 21.652344 15.972656 C 22.473014 15.239658 23 14.184631 23 13 C 23 10.937904 21.426275 9.2562596 19.419922 9.0429688 C 19.780048 8.4426966 20 7.7496708 20 7 C 20 4.794 18.206 3 16 3 z M 16 5 C 17.103 5 18 5.897 18 7 C 18 8.103 17.103 9 16 9 C 14.897 9 14 8.103 14 7 C 14 5.897 14.897 5 16 5 z M 13 11 C 14.103 11 15 11.897 15 13 C 15 14.103 14.103 15 13 15 C 11.897 15 11 14.103 11 13 C 11 11.897 11.897 11 13 11 z M 19 11 C 20.103 11 21 11.897 21 13 C 21 14.103 20.103 15 19 15 C 17.897 15 17 14.103 17 13 C 17 11.897 17.897 11 19 11 z M 13.943359 17.394531 C 13.954359 17.638531 13.975859 17.882 14.005859 18.125 C 14.117859 19.013 14.359609 19.873406 14.724609 20.691406 C 14.112609 21.196406 13.577297 21.797891 13.154297 22.462891 C 12.663297 23.233891 12.317813 24.097094 12.132812 24.996094 C 12.077813 24.997094 12.023797 24.999953 11.966797 25.001953 C 10.628797 25.044953 9.2925156 25.255906 7.9785156 25.628906 C 7.8925156 24.515906 7.6414687 23.41375 7.2304688 22.34375 C 7.8604688 21.83175 8.4097969 21.218109 8.8417969 20.537109 C 9.3327969 19.766109 9.6782812 18.902906 9.8632812 18.003906 C 9.9182813 18.002906 9.97425 18.000047 10.03125 17.998047 C 11.34225 17.956047 12.653359 17.753531 13.943359 17.394531 z"/></svg>