<svg xmlns="http://www.w3.org/2000/svg" viewBox="0 0 32 32"><path d="M 1.734375 10.857422 C 0.90975 10.882422 0.37351563 11.159688 0.16601562 11.617188 C 0.16601562 11.617188 -1.0791406 13.257203 3.2558594 17.158203 L 3.2558594 20.84375 L 6.1503906 20.84375 L 6.1503906 19.412109 C 5.8253906 19.202109 5.5016406 18.977422 5.1816406 18.732422 C 4.4416406 18.172422 3.8117188 17.652109 3.2617188 17.162109 L 3.2617188 15.613281 C 3.9167188 16.348281 4.7866406 17.183906 5.9316406 18.128906 L 6.15625 18.308594 L 6.15625 16.818359 C 6.15625 16.473359 6.2403125 15.908203 6.6953125 15.908203 C 7.1503125 15.908203 7.2265625 16.253203 7.2265625 16.658203 L 7.2265625 19.09375 C 8.1265625 19.70375 9.0913281 20.197266 10.111328 20.572266 L 10.111328 15.876953 C 10.111328 14.941953 9.4400781 14.007813 8.0800781 14.007812 C 7.2900781 14.002812 6.55625 14.416562 6.15625 15.101562 L 6.15625 12.386719 C 8.25125 13.431719 10.352344 14.712734 11.152344 15.302734 C 10.642344 16.032734 10.6875 16.706328 10.6875 17.486328 C 10.6875 18.421328 10.617344 19.201328 11.527344 20.111328 C 12.437344 21.021328 14.046875 20.966797 14.046875 20.966797 C 14.046875 20.966797 15.661406 21.021328 16.566406 20.111328 C 17.476406 19.201328 17.402344 18.421328 17.402344 17.486328 C 17.403344 16.561328 17.478359 15.776094 16.568359 14.871094 C 15.658359 13.961094 14.048828 14.017578 14.048828 14.017578 C 14.048828 14.017578 12.437344 13.961094 11.527344 14.871094 C 11.432344 14.966094 11.343672 15.066875 11.263672 15.171875 C 9.3536719 13.691875 7.63725 12.847188 6.15625 12.117188 L 6.15625 11.082031 L 5.03125 11.611328 C 3.67125 11.058828 2.559 10.832422 1.734375 10.857422 z M 28.314453 11.076172 L 25.419922 12.441406 L 25.419922 20.84375 L 28.314453 20.84375 L 28.314453 11.076172 z M 2.4570312 11.300781 C 3.0916016 11.255811 3.8761719 11.440234 4.7167969 11.755859 L 3.2558594 12.441406 L 3.2558594 15.607422 C 0.82085937 12.882422 1.3110937 11.805391 1.4960938 11.650391 C 1.7492188 11.436641 2.0762891 11.327764 2.4570312 11.300781 z M 30.554688 12.146484 C 29.759687 12.146484 29.109375 12.576094 29.109375 13.371094 C 29.109375 14.166094 29.754688 14.816406 30.554688 14.816406 C 31.349688 14.816406 32 14.171094 32 13.371094 C 32 12.571094 31.354688 12.146484 30.554688 12.146484 z M 21.349609 14.017578 C 21.349609 14.017578 19.733125 13.961094 18.828125 14.871094 C 17.918125 15.781094 17.988281 16.566953 17.988281 17.501953 C 17.988281 18.436953 17.918125 19.216953 18.828125 20.126953 C 19.738125 21.036953 21.349609 20.982422 21.349609 20.982422 C 21.349609 20.982422 22.964141 21.036953 23.869141 20.126953 C 24.779141 19.216953 24.708984 18.436953 24.708984 17.501953 C 24.703984 16.561953 24.774141 15.776094 23.869141 14.871094 C 22.959141 13.961094 21.349609 14.017578 21.349609 14.017578 z M 29.105469 15.316406 L 29.105469 20.84375 L 32 20.84375 L 32 15.316406 L 29.105469 15.316406 z M 14.048828 15.902344 C 14.218828 15.902344 14.582031 16.007266 14.582031 16.447266 L 14.582031 18.46875 C 14.582031 18.64875 14.493828 19.09375 14.048828 19.09375 C 13.603828 19.09375 13.513672 18.64875 13.513672 18.46875 L 13.513672 16.447266 C 13.513672 16.012266 13.878828 15.902344 14.048828 15.902344 z M 21.34375 15.902344 C 21.51375 15.902344 21.878906 16.007266 21.878906 16.447266 L 21.878906 18.46875 C 21.878906 18.64875 21.78875 19.09375 21.34375 19.09375 C 20.89875 19.09375 20.808594 18.64875 20.808594 18.46875 L 20.808594 16.447266 C 20.808594 16.012266 21.17375 15.902344 21.34375 15.902344 z M 7.2226562 20.042969 L 7.2226562 20.84375 L 9.1367188 20.882812 C 8.4767187 20.652812 7.8376562 20.372969 7.2226562 20.042969 z M 9.1367188 20.882812 C 10.961719 21.507812 12.632047 21.592188 13.873047 21.242188 C 12.877047 21.252188 11.582422 21.113125 10.107422 20.578125 L 10.107422 20.84375 L 9.1367188 20.882812 z"/></svg>