<svg xmlns="http://www.w3.org/2000/svg" viewBox="0 0 32 32"><path d="M 16 4 C 13.84375 4 12.007813 5.382813 11.3125 7.3125 C 9.390625 8.007813 8 9.839844 8 12 C 8 12.0625 7.996094 12.125 8 12.1875 C 6.84375 12.605469 6 13.707031 6 15 C 6 16.644531 7.355469 18 9 18 L 9.375 18 L 13.6875 26.5 C 13.695313 26.515625 13.710938 26.515625 13.71875 26.53125 C 14.140625 27.417969 15.015625 28 16 28 C 16.984375 28 17.859375 27.417969 18.28125 26.53125 L 18.3125 26.53125 C 18.316406 26.523438 18.308594 26.507813 18.3125 26.5 L 22.625 18 L 23 18 C 24.644531 18 26 16.644531 26 15 C 26 13.6875 25.121094 12.589844 23.9375 12.1875 C 23.65625 10.492188 22.507813 9.070313 20.96875 8.40625 C 20.667969 5.9375 18.546875 4 16 4 Z M 16 6 C 17.320313 6 18.4375 6.828125 18.84375 8 C 16.507813 8.074219 14.550781 9.777344 14.09375 12 L 10 12 C 10 10.347656 11.347656 9 13 9 C 13.277344 9 13.554688 9.054688 13.8125 9.125 C 14.253906 8.539063 14.765625 8.003906 15.375 7.59375 C 14.863281 7.316406 14.304688 7.148438 13.71875 7.0625 C 14.261719 6.414063 15.078125 6 16 6 Z M 19 10 C 20.320313 10 21.4375 10.828125 21.84375 12 L 16.15625 12 C 16.5625 10.828125 17.679688 10 19 10 Z M 9 14 L 23 14 C 23.566406 14 24 14.433594 24 15 C 24 15.566406 23.566406 16 23 16 L 12.625 16 L 13.65625 18 L 20.375 18 L 16.53125 25.625 L 16.5 25.65625 L 16.5 25.6875 C 16.410156 25.886719 16.21875 26 16 26 C 15.78125 26 15.589844 25.886719 15.5 25.6875 L 15.5 25.65625 L 15.46875 25.625 L 10.90625 16.5625 L 10.625 16 L 9 16 C 8.433594 16 8 15.566406 8 15 C 8 14.433594 8.433594 14 9 14 Z"/></svg>