<svg xmlns="http://www.w3.org/2000/svg" viewBox="0 0 32 32"><path d="M 10.048828 5 C 7.2548281 5 5 7.2548281 5 10.048828 L 5 21.951172 C 5 24.745172 7.2548281 27 10.048828 27 L 21.951172 27 C 24.750172 27 27 24.745172 27 21.951172 L 27 10.048828 C 27 7.2548281 24.745172 5 21.951172 5 L 10.048828 5 z M 15.980469 7 C 20.950469 7 24.980469 11.03 24.980469 16 C 24.980469 20.97 20.950469 25 15.980469 25 C 11.010469 25 6.9804688 20.97 6.9804688 16 C 6.9804688 11.03 11.010469 7 15.980469 7 z M 15.980469 8.0253906 C 11.568469 8.0253906 8 11.602766 8 16.009766 C 8 20.416766 11.568469 24 15.980469 24 C 20.392469 24 23.964844 20.423625 23.964844 16.015625 C 23.964844 11.603625 20.388469 8.0253906 15.980469 8.0253906 z M 19.316406 11 C 19.578406 10.982 19.730469 11.138391 19.730469 11.400391 C 19.726469 19.236391 19.748594 18.522641 19.683594 18.806641 C 19.536594 19.431641 19.063688 19.781391 18.429688 19.900391 C 17.873687 20.001391 17.409844 20.028922 16.964844 19.669922 C 16.422844 19.210922 16.413391 18.457469 16.900391 17.980469 C 17.286391 17.613469 17.833484 17.539578 18.646484 17.392578 C 18.784484 17.369578 18.903 17.337656 19 17.222656 C 19.147 17.057656 19.101562 17.421734 19.101562 13.802734 C 19.101562 13.545734 18.976844 13.475484 18.714844 13.521484 C 18.530844 13.553484 14.494141 14.306641 14.494141 14.306641 C 14.264141 14.357641 14.185547 14.4255 14.185547 14.6875 C 14.185547 20.0195 14.208859 19.486844 14.130859 19.839844 C 14.034859 20.252844 13.782266 20.564281 13.447266 20.738281 C 13.066266 20.949281 12.372859 21.042516 12.005859 20.978516 C 11.022859 20.794516 10.67775 19.659812 11.34375 19.007812 C 11.72975 18.640812 12.276844 18.566922 13.089844 18.419922 C 13.227844 18.396922 13.346359 18.365 13.443359 18.25 C 13.673359 17.988 13.4845 12.707391 13.5625 12.400391 C 13.5805 12.281391 13.630656 12.181422 13.722656 12.107422 C 13.818656 12.029422 13.98925 11.982422 14.03125 11.982422 C 18.67025 11.109422 19.234406 11 19.316406 11 z"/></svg>