<svg xmlns="http://www.w3.org/2000/svg" viewBox="0 0 32 32"><path d="M 14.90625 3.9921875 C 14.544982 4.3534553 14.282342 4.7920652 13.970703 5.4746094 C 13.659064 6.1571535 13.377706 7.0175178 13.375 7.9726562 C 13.3723 8.9277949 13.702229 10.00703 14.5625 10.830078 C 15.422771 11.653126 16.719726 12.196356 18.548828 12.429688 C 20.073714 12.624168 21.071211 12.893881 21.628906 13.228516 C 22.186601 13.563151 22.419347 13.897831 22.599609 14.716797 L 24.552734 14.285156 C 24.292997 13.105122 23.652508 12.110287 22.658203 11.513672 C 21.663898 10.917057 20.429849 10.652833 18.802734 10.445312 C 17.245337 10.246644 16.390104 9.8103111 15.945312 9.3847656 C 15.500522 8.9592201 15.373456 8.5232521 15.375 7.9785156 C 15.376544 7.4337792 15.561217 6.8079871 15.791016 6.3046875 C 16.020814 5.8013879 16.37508 5.3514822 16.320312 5.40625 L 14.90625 3.9921875 z M 20.429688 4.3125 L 20.429688 6.3125 C 21.050536 6.3125 21.872833 6.388994 22.482422 6.734375 C 23.092011 7.0797559 23.597427 7.6084841 23.720703 9.0703125 L 23.796875 9.9863281 L 24.716797 9.9863281 C 25.233109 9.9863281 26.314383 10.153358 26.847656 10.619141 C 27.114293 10.852032 27.294899 11.120763 27.357422 11.644531 C 27.419942 12.1683 27.326072 12.97341 26.855469 14.119141 L 28.705078 14.880859 C 29.262979 13.52259 29.460665 12.387622 29.34375 11.408203 C 29.226835 10.428784 28.756723 9.6326402 28.162109 9.1132812 C 27.252065 8.3184125 26.258161 8.1359831 25.453125 8.0683594 C 25.107173 6.6230446 24.39953 5.5215019 23.46875 4.9941406 C 22.347339 4.3587715 21.171838 4.3125 20.429688 4.3125 z M 30 16 L 2 17 L 2 23 L 30 24 L 30 16 z M 28 18.072266 L 28 21.927734 L 26 21.855469 L 26 18.144531 L 28 18.072266 z M 24 18.214844 L 24 21.785156 L 22 21.712891 L 22 18.287109 L 24 18.214844 z M 20 18.357422 L 20 21.642578 L 4 21.070312 L 4 18.929688 L 20 18.357422 z"/></svg>