<svg xmlns="http://www.w3.org/2000/svg" viewBox="0 0 32 32"><path d="M 14.347656 22.078125 L 13.320313 19.289063 C 13.320313 19.289063 11.652344 21.148438 9.152344 21.148438 C 6.941406 21.148438 5.367188 19.222656 5.367188 16.144531 C 5.367188 12.199219 7.355469 10.789063 9.3125 10.789063 C 12.136719 10.789063 13.03125 12.617188 13.804688 14.957031 L 14.828125 18.164063 C 15.855469 21.277344 17.78125 23.777344 23.328125 23.777344 C 27.304688 23.777344 30 22.558594 30 19.351563 C 30 16.753906 28.523438 15.40625 25.765625 14.765625 L 23.710938 14.316406 C 22.300781 13.996094 21.882813 13.417969 21.882813 12.457031 C 21.882813 11.367188 22.75 10.722656 24.160156 10.722656 C 25.699219 10.722656 26.535156 11.300781 26.664063 12.679688 L 29.871094 12.296875 C 29.613281 9.410156 27.625 8.222656 24.351563 8.222656 C 21.46875 8.222656 18.644531 9.3125 18.644531 12.808594 C 18.644531 14.988281 19.703125 16.367188 22.363281 17.011719 L 24.546875 17.523438 C 26.179688 17.910156 26.726563 18.582031 26.726563 19.511719 C 26.726563 20.699219 25.570313 21.179688 23.390625 21.179688 C 20.152344 21.179688 18.804688 19.480469 18.035156 17.140625 L 16.976563 13.933594 C 15.628906 9.761719 13.480469 8.222656 9.214844 8.222656 C 4.503906 8.222656 2 11.203125 2 16.273438 C 2 21.148438 4.503906 23.777344 8.992188 23.777344 C 12.617188 23.777344 14.347656 22.078125 14.347656 22.078125 Z"/></svg>