<svg xmlns="http://www.w3.org/2000/svg" viewBox="0 0 32 32"><path d="M 14 3 L 14 5 L 19.5625 5 L 14.15625 10.40625 C 12.957031 9.511719 11.523438 9 10 9 C 8.128906 9 6.382813 9.742188 5.0625 11.0625 C 3.742188 12.382813 3 14.128906 3 16 C 3 17.871094 3.742188 19.613281 5.0625 20.9375 C 6.382813 22.261719 8.128906 23 10 23 C 11.871094 23 13.617188 22.257813 14.9375 20.9375 C 15.75 20.125 16.351563 19.15625 16.6875 18.09375 C 15.914063 17.96875 15.097656 18.066406 14.375 18.375 C 14.148438 18.792969 13.878906 19.1875 13.53125 19.53125 C 12.585938 20.476563 11.335938 21 10 21 C 8.664063 21 7.414063 20.476563 6.46875 19.53125 C 5.523438 18.585938 5 17.335938 5 16 C 5 14.664063 5.523438 13.414063 6.46875 12.46875 C 7.414063 11.523438 8.664063 11 10 11 C 11.335938 11 12.585938 11.523438 13.53125 12.46875 C 14.011719 12.949219 14.378906 13.511719 14.625 14.125 C 15.074219 14.046875 15.535156 14 16 14 C 16.242188 14 16.480469 14.011719 16.71875 14.03125 C 16.488281 13.238281 16.089844 12.511719 15.59375 11.84375 L 21 6.4375 L 21 11 L 25.5625 11 L 20.15625 16.40625 C 18.957031 15.511719 17.523438 15 16 15 C 14.128906 15 12.382813 15.742188 11.0625 17.0625 C 10.25 17.875 9.648438 18.84375 9.3125 19.90625 C 10.085938 20.03125 10.902344 19.933594 11.625 19.625 C 11.851563 19.207031 12.121094 18.8125 12.46875 18.46875 C 13.414063 17.523438 14.664063 17 16 17 C 17.335938 17 18.585938 17.523438 19.53125 18.46875 C 20.476563 19.414063 21 20.664063 21 22 C 21 23.335938 20.476563 24.585938 19.53125 25.53125 C 18.585938 26.476563 17.335938 27 16 27 C 14.664063 27 13.414063 26.476563 12.46875 25.53125 C 11.988281 25.050781 11.621094 24.488281 11.375 23.875 C 10.925781 23.953125 10.464844 24 10 24 C 9.757813 24 9.519531 23.988281 9.28125 23.96875 C 9.605469 25.085938 10.21875 26.09375 11.0625 26.9375 C 12.382813 28.257813 14.128906 29 16 29 C 17.867188 29 19.617188 28.257813 20.9375 26.9375 C 22.257813 25.617188 23 23.871094 23 22 C 23 20.476563 22.488281 19.042969 21.59375 17.84375 L 27 12.4375 L 27 18 L 29 18 L 29 9 L 23 9 L 23 3 Z"/></svg>