<svg xmlns="http://www.w3.org/2000/svg" viewBox="0 0 32 32"><path d="M 16.537109 3.0078125 C 16.144109 2.9978125 15.752375 2.9957187 15.359375 3.0117188 C 15.231375 3.0197188 15.101656 3.0251094 14.972656 3.0371094 C 14.786656 3.0561094 14.599063 3.06575 14.414062 3.09375 C 14.276063 3.11375 14.137 3.1253906 14 3.1503906 C 13.816 3.1823906 13.631266 3.2110938 13.447266 3.2460938 C 12.561266 3.4260937 11.690328 3.6917344 10.861328 4.0527344 C 10.447328 4.2267344 10.045344 4.4304375 9.6523438 4.6484375 C 8.1753437 5.4764375 6.8605 6.5938281 5.8125 7.9238281 C 5.2045 8.6838281 4.687625 9.514625 4.265625 10.390625 C 4.199625 10.540625 4.1244531 10.688797 4.0644531 10.841797 C 3.7084531 11.651797 3.4436719 12.501188 3.2636719 13.367188 C 3.2206719 13.573187 3.1893437 13.779328 3.1523438 13.986328 C 3.1253437 14.132328 3.1127969 14.282687 3.0917969 14.429688 C 3.0677969 14.594687 3.0609219 14.761734 3.0449219 14.927734 C 3.0259219 15.111734 3.0148125 15.294516 3.0078125 15.478516 C 2.9978125 15.976516 2.9912031 16.476656 3.0332031 16.972656 C 3.0552031 17.181656 3.0647031 17.389656 3.0957031 17.597656 C 3.1137031 17.721656 3.1235313 17.847703 3.1445312 17.970703 C 3.1995312 18.297703 3.2558906 18.625266 3.3378906 18.947266 C 3.4478906 19.421266 3.5840938 19.887703 3.7460938 20.345703 C 4.5290938 22.561703 5.9300469 24.555922 7.7480469 26.044922 C 8.2750469 26.476922 8.833875 26.869844 9.421875 27.214844 C 9.530875 27.281844 9.6419062 27.342344 9.7539062 27.402344 C 10.269906 27.690344 10.809375 27.932437 11.359375 28.148438 C 11.796375 28.311437 12.239406 28.460219 12.691406 28.574219 C 12.911406 28.633219 13.134422 28.683422 13.357422 28.732422 C 13.572422 28.776422 13.787906 28.811609 14.003906 28.849609 C 14.145906 28.874609 14.288641 28.88625 14.431641 28.90625 C 14.602641 28.93025 14.775266 28.945031 14.947266 28.957031 C 15.303266 28.992031 15.661531 29.000047 16.019531 28.998047 C 16.371531 29.000047 16.723219 28.990078 17.074219 28.955078 C 17.352219 28.939078 17.627344 28.900234 17.902344 28.865234 C 18.147344 28.826234 18.392719 28.782375 18.636719 28.734375 C 18.989719 28.663375 19.3405 28.571656 19.6875 28.472656 C 19.8745 28.419656 20.056234 28.355922 20.240234 28.294922 C 20.576234 28.181922 20.904469 28.04625 21.230469 27.90625 C 22.302469 27.43525 23.305891 26.822078 24.212891 26.080078 C 25.695891 24.877078 26.903469 23.338188 27.730469 21.617188 C 28.160469 20.722187 28.486172 19.776641 28.701172 18.806641 C 28.762172 18.538641 28.804562 18.268047 28.851562 17.998047 C 28.876563 17.856047 28.888203 17.713313 28.908203 17.570312 C 28.932203 17.394312 28.947937 17.218016 28.960938 17.041016 C 28.985938 16.781016 28.994047 16.520766 28.998047 16.259766 C 29.002047 15.820766 29.002984 15.380359 28.958984 14.943359 C 28.945984 14.740359 28.925484 14.538891 28.896484 14.337891 C 28.878484 14.171891 28.854219 14.006797 28.824219 13.841797 C 28.715219 13.168797 28.547078 12.505375 28.330078 11.859375 C 28.216078 11.510375 28.080594 11.167078 27.933594 10.830078 C 27.879594 10.691078 27.810953 10.559828 27.751953 10.423828 C 27.113953 9.0798281 26.2375 7.849875 25.1875 6.796875 C 24.1025 5.712875 22.825594 4.8236406 21.433594 4.1816406 C 20.826594 3.9046406 20.200594 3.6722344 19.558594 3.4902344 C 19.153594 3.3792344 18.746031 3.2770312 18.332031 3.2070312 C 18.179031 3.1810313 18.027047 3.1538594 17.873047 3.1308594 C 17.617047 3.0998594 17.361516 3.0589219 17.103516 3.0449219 C 16.914516 3.0279219 16.726109 3.0148125 16.537109 3.0078125 z M 15.806641 4.0039062 C 16.204641 3.9969063 16.602047 4.0051562 16.998047 4.0351562 C 17.208047 4.0581562 17.420859 4.0695625 17.630859 4.1015625 C 18.056859 4.1615625 18.482391 4.2377969 18.900391 4.3417969 C 20.575391 4.7457969 22.155953 5.5275625 23.501953 6.6015625 C 24.453953 7.3615625 25.288703 8.2673438 25.970703 9.2773438 C 26.457703 10.002344 26.863594 10.782703 27.183594 11.595703 C 27.560594 12.556703 27.805781 13.566797 27.925781 14.591797 C 27.943781 14.800797 27.964469 15.00975 27.980469 15.21875 C 28.015469 15.94575 28.005156 16.676391 27.910156 17.400391 C 27.848156 17.953391 27.73275 18.499109 27.59375 19.037109 C 27.40675 19.729109 27.161469 20.403781 26.855469 21.050781 C 26.737469 21.293781 26.611422 21.535438 26.482422 21.773438 C 26.319422 22.057437 26.148797 22.335422 25.966797 22.607422 C 25.807797 22.835422 25.651563 23.06525 25.476562 23.28125 C 24.823563 24.11425 24.062844 24.863047 23.214844 25.498047 C 22.033844 26.383047 20.684719 27.049359 19.261719 27.443359 C 19.042719 27.505359 18.819656 27.554422 18.597656 27.607422 C 18.404656 27.653422 18.208672 27.684703 18.013672 27.720703 C 17.775672 27.763703 17.535875 27.784406 17.296875 27.816406 C 16.555875 27.893406 15.808406 27.897844 15.066406 27.839844 C 14.910406 27.824844 14.753656 27.808969 14.597656 27.792969 C 13.973656 27.714969 13.356953 27.585109 12.751953 27.412109 C 12.473953 27.337109 12.204594 27.241484 11.933594 27.146484 C 11.524594 26.998484 11.127328 26.817906 10.736328 26.628906 C 9.6463281 26.081906 8.6376719 25.371484 7.7636719 24.521484 C 7.1626719 23.939484 6.6182969 23.298562 6.1542969 22.601562 C 5.4252969 21.524563 4.8770625 20.324359 4.5390625 19.068359 C 4.4690625 18.822359 4.416375 18.572266 4.359375 18.322266 C 4.287375 17.945266 4.2205 17.565594 4.1875 17.183594 C 4.1415 16.802594 4.1270938 16.419156 4.1210938 16.035156 C 4.1200937 15.554156 4.1382656 15.073703 4.1972656 14.595703 C 4.2452656 14.131703 4.3255469 13.67175 4.4355469 13.21875 C 4.9225469 11.10775 6.0093906 9.1417031 7.5253906 7.5957031 C 7.6553906 7.4687031 7.7771094 7.3367969 7.9121094 7.2167969 C 8.1651094 6.9787969 8.4281719 6.7530625 8.7011719 6.5390625 C 8.9121719 6.3660625 9.1402344 6.2116875 9.3652344 6.0546875 C 9.8802344 5.7046875 10.424328 5.3978594 10.986328 5.1308594 C 11.683328 4.8038594 12.411203 4.5434687 13.158203 4.3554688 C 13.544203 4.2644687 13.932219 4.1810469 14.324219 4.1230469 C 14.815219 4.0560469 15.310641 4.0089062 15.806641 4.0039062 z M 12.570312 5.796875 C 11.772312 6.048875 10.997781 6.3894687 10.300781 6.8554688 C 9.9127813 7.1084687 9.5536094 7.4035156 9.2246094 7.7285156 C 8.6496094 8.3065156 8.1776563 8.9864688 7.8476562 9.7304688 C 7.6616562 10.131469 7.5211562 10.551516 7.4101562 10.978516 C 7.2091562 11.778516 7.1290156 12.608594 7.1660156 13.433594 C 7.1720156 13.668594 7.2025156 13.899812 7.2285156 14.132812 C 7.3085156 14.676813 7.4403438 15.215656 7.6523438 15.722656 C 7.7073437 15.863656 7.7847031 15.994813 7.8457031 16.132812 C 7.8957031 16.242813 7.9557187 16.347125 8.0117188 16.453125 C 8.2547188 16.901125 8.5408125 17.327031 8.8828125 17.707031 C 9.1298125 17.987031 9.4099375 18.237031 9.7109375 18.457031 C 9.9879375 18.663031 10.292422 18.830656 10.607422 18.972656 C 11.135422 19.197656 11.70525 19.335938 12.28125 19.335938 C 12.32925 19.336937 12.377781 19.334125 12.425781 19.328125 C 12.434781 19.243125 12.429734 19.155313 12.427734 19.070312 C 12.421734 18.917313 12.425922 18.766281 12.419922 18.613281 C 12.414922 18.310281 12.420109 18.007078 12.412109 17.705078 C 12.410109 17.581078 12.412203 17.457031 12.408203 17.332031 C 12.401203 17.147031 12.409344 16.961391 12.402344 16.775391 C 12.398344 16.560391 12.401391 16.345859 12.400391 16.130859 C 12.399391 15.967859 12.412234 15.800578 12.365234 15.642578 C 12.307234 15.426578 12.187781 15.234547 12.050781 15.060547 C 11.948781 14.930547 11.832844 14.812266 11.714844 14.697266 C 11.467844 14.461266 11.183687 14.266109 10.929688 14.037109 C 10.471687 13.621109 10.067813 13.145375 9.7578125 12.609375 C 9.3988125 11.994375 9.1730156 11.290219 9.1660156 10.574219 C 9.1590156 10.315219 9.1775625 10.054781 9.2265625 9.8007812 C 9.2905625 9.4067813 9.4158906 9.0221094 9.5878906 8.6621094 C 9.8108906 8.1811094 10.122516 7.7464219 10.478516 7.3574219 C 10.943516 6.8544219 11.482313 6.4242187 12.070312 6.0742188 C 12.232312 5.9742187 12.404312 5.889875 12.570312 5.796875 z M 19.494141 5.8007812 C 19.587141 5.8607813 19.691063 5.9020781 19.789062 5.9550781 C 20.463062 6.3310781 21.082516 6.8079531 21.603516 7.3769531 C 21.882516 7.6849531 22.132938 8.0198125 22.335938 8.3828125 C 22.483937 8.6588125 22.615031 8.9441406 22.707031 9.2441406 C 22.825031 9.6391406 22.897437 10.047984 22.898438 10.458984 C 22.901438 10.691984 22.890703 10.925297 22.845703 11.154297 C 22.791703 11.488297 22.685688 11.812047 22.554688 12.123047 C 22.313687 12.668047 21.973312 13.166469 21.570312 13.605469 C 21.332313 13.870469 21.065203 14.111078 20.783203 14.330078 C 20.436203 14.608078 20.091422 14.904109 19.857422 15.287109 C 19.788422 15.403109 19.730313 15.527203 19.695312 15.658203 C 19.655312 15.811203 19.672969 15.971906 19.667969 16.128906 C 19.658969 16.393906 19.669156 16.659781 19.660156 16.925781 C 19.656156 17.049781 19.660203 17.173828 19.658203 17.298828 C 19.648203 17.666828 19.658438 18.034344 19.648438 18.402344 C 19.650438 18.597344 19.640578 18.792281 19.642578 18.988281 C 19.643578 19.101281 19.629531 19.215125 19.644531 19.328125 C 19.740531 19.341125 19.838547 19.335031 19.935547 19.332031 C 20.123547 19.326031 20.310141 19.305531 20.494141 19.269531 C 21.163141 19.146531 21.800609 18.864844 22.349609 18.464844 C 22.884609 18.079844 23.339125 17.586109 23.703125 17.037109 C 23.921125 16.718109 24.104484 16.375344 24.271484 16.027344 C 24.455484 15.677344 24.580594 15.298969 24.683594 14.917969 C 24.830594 14.326969 24.912203 13.717422 24.908203 13.107422 C 24.907203 12.868422 24.905766 12.630578 24.884766 12.392578 C 24.819766 11.537578 24.625922 10.690437 24.294922 9.8984375 C 24.232922 9.7514375 24.162703 9.6107969 24.095703 9.4667969 C 23.759703 8.7987969 23.312344 8.1880156 22.777344 7.6660156 C 22.226344 7.1330156 21.585438 6.6954219 20.898438 6.3574219 C 20.582437 6.1944219 20.250969 6.0614531 19.917969 5.9394531 C 19.777969 5.8904531 19.638141 5.8397812 19.494141 5.8007812 z M 14.373047 9.046875 C 14.313047 9.101875 14.261938 9.1626094 14.210938 9.2246094 C 13.956938 9.5216094 13.737734 9.8475 13.552734 10.1875 C 13.448734 10.3875 13.349531 10.591734 13.269531 10.802734 C 13.114531 11.185734 12.997063 11.582328 12.914062 11.986328 C 12.885063 12.139328 12.853609 12.294172 12.849609 12.451172 C 12.930609 12.461172 13.010844 12.463375 13.089844 12.484375 C 13.370844 12.556375 13.617313 12.725734 13.820312 12.927734 C 14.045313 13.144734 14.236344 13.396109 14.402344 13.662109 C 14.623344 14.018109 14.809016 14.400641 14.916016 14.806641 C 14.999016 15.106641 15.042078 15.416609 15.080078 15.724609 C 15.111078 16.069609 15.138438 16.415719 15.148438 16.761719 C 15.150438 17.027719 15.163156 16.933219 15.160156 17.199219 C 15.159156 17.323219 15.159156 17.447266 15.160156 17.572266 C 15.161156 17.799266 15.149437 18.027859 15.148438 18.255859 C 15.148438 18.353859 15.138766 18.451828 15.134766 18.548828 C 15.117766 19.107828 15.063578 19.664656 15.017578 20.222656 C 14.992578 20.430656 14.978219 20.640609 14.949219 20.849609 C 14.881219 21.343609 14.826937 21.839219 14.710938 22.324219 C 14.636938 22.677219 14.545453 23.028047 14.439453 23.373047 C 14.362453 23.604047 14.293594 23.838641 14.183594 24.056641 C 14.153594 24.115641 14.1185 24.177797 14.0625 24.216797 C 13.9985 24.195797 13.960781 24.135031 13.925781 24.082031 C 13.859781 23.972031 13.798094 23.857234 13.746094 23.740234 C 13.689094 23.610234 13.621547 23.486375 13.560547 23.359375 C 13.476547 23.183375 13.376672 23.015422 13.263672 22.857422 C 13.108672 22.644422 12.917969 22.444656 12.667969 22.347656 C 12.472969 22.265656 12.249875 22.266406 12.046875 22.316406 C 11.939875 22.342406 11.833609 22.365906 11.724609 22.378906 C 11.534609 22.400906 11.345297 22.427547 11.154297 22.435547 C 10.889297 22.445547 10.624375 22.446359 10.359375 22.443359 C 10.213375 22.437359 10.066875 22.442734 9.921875 22.427734 C 9.756875 22.410734 9.5887813 22.424719 9.4257812 22.386719 C 8.9597813 22.292719 8.5346719 22.065594 8.1386719 21.808594 C 7.5826719 21.439594 7.080375 20.995391 6.609375 20.525391 C 6.459375 20.373391 6.3169688 20.213547 6.1679688 20.060547 C 6.2219687 20.168547 6.2809375 20.273859 6.3359375 20.380859 C 6.5239375 20.720859 6.7109688 21.059672 6.9179688 21.388672 C 7.3089688 22.020672 7.7426719 22.629109 8.2636719 23.162109 C 8.4596719 23.352109 8.664625 23.535453 8.890625 23.689453 C 9.239625 23.936453 9.6443125 24.110156 10.070312 24.160156 C 10.378312 24.191156 10.692187 24.181562 10.992188 24.101562 C 11.241188 24.036563 11.485797 23.950891 11.716797 23.837891 C 11.910797 23.752891 12.093438 23.647156 12.273438 23.535156 C 12.174437 23.666156 12.066219 23.79125 11.949219 23.90625 C 11.706219 24.13725 11.431859 24.336328 11.130859 24.486328 C 10.818859 24.648328 10.482719 24.764172 10.136719 24.826172 C 10.221719 24.907172 10.321969 24.972016 10.417969 25.041016 C 10.830969 25.323016 11.269562 25.561672 11.726562 25.763672 C 12.237563 25.995672 12.771453 26.174406 13.314453 26.316406 C 13.885453 26.458406 14.467688 26.561563 15.054688 26.601562 C 15.313688 26.628563 15.574938 26.630719 15.835938 26.636719 C 16.079937 26.636719 16.324359 26.630188 16.568359 26.617188 C 17.751359 26.545188 18.922625 26.2685 20.015625 25.8125 C 20.575625 25.5735 21.119047 25.294172 21.623047 24.951172 C 21.694047 24.902172 21.766031 24.854875 21.832031 24.796875 C 21.754031 24.789875 21.676609 24.784625 21.599609 24.765625 C 21.361609 24.707625 21.136734 24.604563 20.927734 24.476562 C 20.671734 24.323562 20.436891 24.136453 20.212891 23.939453 C 20.054891 23.795453 19.899812 23.648281 19.757812 23.488281 C 19.918813 23.607281 20.085625 23.718594 20.265625 23.808594 C 20.403625 23.876594 20.5415 23.950953 20.6875 24.001953 C 20.8665 24.063953 21.045422 24.122344 21.232422 24.152344 C 21.693422 24.223344 22.171563 24.157469 22.601562 23.980469 C 23.039563 23.802469 23.429344 23.522078 23.777344 23.205078 C 24.029344 22.968078 24.265563 22.714406 24.476562 22.441406 C 24.828562 21.989406 25.13625 21.503047 25.40625 20.998047 C 25.48125 20.851047 25.564859 20.710594 25.630859 20.558594 C 25.708859 20.395594 25.784656 20.230547 25.847656 20.060547 C 25.784656 20.132547 25.728969 20.211156 25.667969 20.285156 C 25.217969 20.832156 24.692797 21.323172 24.091797 21.701172 C 23.836797 21.864172 23.567062 22.000187 23.289062 22.117188 C 22.873063 22.290187 22.430422 22.397313 21.982422 22.445312 C 21.786422 22.463313 21.590531 22.465937 21.394531 22.460938 C 21.199531 22.447937 21.003547 22.416719 20.810547 22.386719 C 20.472547 22.328719 20.130156 22.257062 19.785156 22.289062 C 19.621156 22.301063 19.4635 22.352016 19.3125 22.416016 C 19.2005 22.465016 19.092 22.523469 19 22.605469 C 18.941 22.657469 18.902234 22.725922 18.865234 22.794922 C 18.647234 23.200922 18.43075 23.608578 18.21875 24.017578 C 18.19075 24.069578 18.167859 24.125875 18.130859 24.171875 C 18.110859 24.197875 18.072016 24.214172 18.041016 24.201172 C 18.024016 24.191172 18.008141 24.177063 17.994141 24.164062 C 17.877141 24.047062 17.766781 23.923156 17.675781 23.785156 C 17.435781 23.420156 17.267766 23.013609 17.134766 22.599609 C 17.050766 22.353609 16.984781 22.102609 16.925781 21.849609 C 16.806781 21.383609 16.735203 20.909547 16.658203 20.435547 C 16.623203 20.221547 16.606172 20.005016 16.576172 19.791016 C 16.553172 19.629016 16.546344 19.465734 16.527344 19.302734 C 16.505344 19.122734 16.499422 18.941719 16.482422 18.761719 C 16.464422 18.572719 16.451406 18.382359 16.441406 18.193359 C 16.436406 18.116359 16.444688 18.039844 16.429688 17.964844 C 16.418687 18.171844 16.427922 18.376984 16.419922 18.583984 C 16.418922 18.897984 16.419969 19.211391 16.417969 19.525391 C 16.409969 19.731391 16.417156 19.938531 16.410156 20.144531 C 16.405156 20.333531 16.411297 20.522891 16.404297 20.712891 C 16.402297 21.026891 16.402391 21.340297 16.400391 21.654297 C 16.392391 21.865297 16.400578 22.078063 16.392578 22.289062 C 16.388578 22.478062 16.393719 22.667422 16.386719 22.857422 C 16.385719 23.166422 16.386766 23.474203 16.384766 23.783203 C 16.376766 23.994203 16.383953 24.206969 16.376953 24.417969 C 16.371953 24.533969 16.389609 24.653625 16.349609 24.765625 C 16.317609 24.853625 16.278516 24.940531 16.228516 25.019531 C 16.186516 25.083531 16.127828 25.144297 16.048828 25.154297 C 15.986828 25.162297 15.927812 25.129844 15.882812 25.089844 C 15.808813 25.022844 15.761797 24.934656 15.716797 24.847656 C 15.682797 24.777656 15.645672 24.708859 15.638672 24.630859 C 15.632672 24.560859 15.636719 24.488969 15.636719 24.417969 C 15.637719 20.554969 15.637672 17.053406 15.638672 13.191406 C 15.646672 13.009406 15.54625 12.840469 15.40625 12.730469 C 15.26225 12.612469 15.094641 12.531359 14.931641 12.443359 C 14.836641 12.393359 14.737344 12.350203 14.652344 12.283203 C 14.512344 12.175203 14.394063 12.042391 14.289062 11.900391 C 14.056062 11.571391 13.887125 11.192969 13.828125 10.792969 C 13.807125 10.661969 13.8085 10.528484 13.8125 10.396484 C 13.8155 10.218484 13.856344 10.042094 13.902344 9.8710938 C 13.981344 9.6220937 14.108484 9.3905 14.271484 9.1875 C 14.306484 9.1425 14.341047 9.095875 14.373047 9.046875 z M 15.904297 9.3027344 C 15.885297 9.3067344 15.867609 9.3095 15.849609 9.3125 C 15.793609 9.5705 15.728922 9.8269844 15.669922 10.083984 C 15.664922 10.104984 15.656391 10.124531 15.650391 10.144531 C 15.474391 10.152531 15.297094 10.141438 15.121094 10.148438 C 14.854094 10.157438 14.585359 10.144297 14.318359 10.154297 L 14.324219 10.212891 C 14.416219 10.254891 14.515375 10.273641 14.609375 10.306641 C 14.772375 10.361641 14.937563 10.410844 15.101562 10.464844 C 15.168562 10.485844 15.238734 10.50225 15.302734 10.53125 C 15.306734 10.56025 15.306688 10.590141 15.304688 10.619141 C 15.238688 10.662141 15.160891 10.674219 15.087891 10.699219 C 14.908891 10.760219 14.726875 10.813047 14.546875 10.873047 C 14.476875 10.898047 14.400984 10.911312 14.333984 10.945312 C 14.311984 10.959312 14.324172 10.987813 14.326172 11.007812 C 14.413172 11.014812 14.500891 11.008766 14.587891 11.009766 C 14.852891 11.010766 15.117812 11.008766 15.382812 11.009766 C 15.472812 11.010766 15.563344 11.006531 15.652344 11.019531 C 15.678344 11.098531 15.688984 11.181719 15.708984 11.261719 C 15.755984 11.458719 15.795703 11.656516 15.845703 11.853516 C 15.864703 11.853516 15.883344 11.855422 15.902344 11.857422 C 15.917344 11.766422 15.909156 11.673031 15.910156 11.582031 L 15.910156 9.5839844 C 15.910156 9.4909844 15.914297 9.3967344 15.904297 9.3027344 z M 16.162109 9.3027344 C 16.152109 9.3967344 16.15725 9.4909844 16.15625 9.5839844 L 16.15625 11.585938 C 16.15625 11.677937 16.149062 11.768375 16.164062 11.859375 C 16.183063 11.857375 16.201703 11.856469 16.220703 11.855469 C 16.273703 11.670469 16.304516 11.478016 16.353516 11.291016 C 16.376516 11.202016 16.387062 11.111437 16.414062 11.023438 C 16.498063 11.011438 16.583969 11.013719 16.667969 11.011719 C 16.939969 11.009719 17.209469 11.012719 17.480469 11.011719 C 17.567469 11.011719 17.653234 11.016766 17.740234 11.009766 C 17.744234 10.988766 17.753422 10.961266 17.732422 10.947266 C 17.714422 10.935266 17.693828 10.928875 17.673828 10.921875 C 17.416828 10.845875 17.16225 10.759688 16.90625 10.679688 C 16.85625 10.664687 16.807719 10.648047 16.761719 10.623047 C 16.758719 10.593047 16.759578 10.562203 16.767578 10.533203 C 16.796578 10.521203 16.825469 10.509 16.855469 10.5 C 17.051469 10.438 17.247359 10.3765 17.443359 10.3125 C 17.542359 10.2795 17.645234 10.258844 17.740234 10.214844 C 17.741234 10.195844 17.744094 10.17525 17.746094 10.15625 C 17.706094 10.15425 17.666953 10.151344 17.626953 10.152344 C 17.355953 10.154344 17.084453 10.154438 16.814453 10.148438 C 16.681453 10.144438 16.547062 10.155484 16.414062 10.146484 C 16.389062 10.073484 16.380328 9.995875 16.361328 9.921875 C 16.310328 9.719875 16.26975 9.5145 16.21875 9.3125 C 16.19975 9.3085 16.181109 9.3057344 16.162109 9.3027344 z M 6.5878906 10.960938 C 6.5198906 11.068937 6.4691563 11.187781 6.4101562 11.300781 C 6.1371562 11.871781 5.9070938 12.463172 5.7460938 13.076172 C 5.6640937 13.367172 5.6037344 13.663891 5.5527344 13.962891 C 5.5277344 14.112891 5.5131875 14.264062 5.4921875 14.414062 C 5.4491875 14.736063 5.4415469 15.060766 5.4355469 15.384766 C 5.4385469 15.672766 5.4608594 15.959141 5.5058594 16.244141 C 5.5238594 16.358141 5.5365469 16.473938 5.5605469 16.585938 C 5.5945469 16.741938 5.6192031 16.898734 5.6582031 17.052734 C 5.7052031 17.262734 5.767125 17.470734 5.828125 17.677734 C 5.920125 17.980734 6.0371094 18.275406 6.1621094 18.566406 C 6.4501094 19.208406 6.8246875 19.815078 7.3046875 20.330078 C 7.4386875 20.482078 7.5911406 20.617953 7.7441406 20.751953 C 8.1011406 21.053953 8.498875 21.308766 8.921875 21.509766 C 9.106875 21.607766 9.304 21.681859 9.5 21.755859 C 10.006 21.931859 10.541125 22.036438 11.078125 22.023438 C 11.296125 22.018437 11.517422 22.007797 11.732422 21.966797 C 12.099422 21.907797 12.453922 21.788578 12.794922 21.642578 C 12.798922 21.602578 12.793156 21.562438 12.785156 21.523438 C 12.754156 21.365437 12.723875 21.206688 12.671875 21.054688 C 12.560875 20.697688 12.394719 20.350172 12.136719 20.076172 C 11.949719 19.876172 11.715125 19.716766 11.453125 19.634766 C 11.257125 19.566766 11.050609 19.542188 10.849609 19.492188 C 10.575609 19.422187 10.305969 19.338422 10.042969 19.232422 C 9.8629688 19.165422 9.6924844 19.074281 9.5214844 18.988281 C 9.2304844 18.830281 8.9570781 18.636875 8.7050781 18.421875 C 8.3220781 18.089875 7.9870156 17.708406 7.6660156 17.316406 C 7.4490156 17.039406 7.2722344 16.733922 7.1152344 16.419922 C 6.6592344 15.473922 6.4241406 14.429766 6.3691406 13.384766 C 6.3521406 12.978766 6.3564375 12.571969 6.3984375 12.167969 C 6.4354375 11.761969 6.4928906 11.356938 6.5878906 10.960938 z M 25.476562 10.962891 C 25.573562 11.372891 25.633828 11.790937 25.673828 12.210938 C 25.708828 12.557937 25.707172 12.906859 25.701172 13.255859 C 25.696172 13.577859 25.659281 13.89975 25.613281 14.21875 C 25.588281 14.37075 25.566203 14.523828 25.533203 14.673828 C 25.480203 14.958828 25.3955 15.235672 25.3125 15.513672 C 25.1085 16.136672 24.827547 16.741531 24.435547 17.269531 C 24.271547 17.476531 24.096922 17.676047 23.919922 17.873047 C 23.840922 17.961047 23.754875 18.044906 23.671875 18.128906 C 23.255875 18.551906 22.765656 18.904438 22.222656 19.148438 C 21.866656 19.309437 21.492281 19.425625 21.113281 19.515625 C 20.916281 19.560625 20.713391 19.583109 20.525391 19.662109 C 20.372391 19.726109 20.224656 19.809016 20.097656 19.916016 C 19.890656 20.087016 19.725562 20.303062 19.601562 20.539062 C 19.461563 20.813062 19.363734 21.107203 19.302734 21.408203 C 19.287734 21.485203 19.262438 21.563578 19.273438 21.642578 C 19.372438 21.687578 19.478078 21.723625 19.580078 21.765625 C 19.970078 21.910625 20.381875 21.994531 20.796875 22.019531 C 21.136875 22.035531 21.479453 22.010078 21.814453 21.955078 C 22.133453 21.898078 22.443094 21.8025 22.746094 21.6875 C 23.074094 21.5535 23.393359 21.393078 23.693359 21.205078 C 24.366359 20.792078 24.931328 20.217594 25.361328 19.558594 C 25.802328 18.888594 26.114172 18.139187 26.326172 17.367188 C 26.380172 17.183187 26.424891 16.996594 26.462891 16.808594 C 26.562891 16.318594 26.635906 15.818406 26.628906 15.316406 C 26.626906 15.224406 26.624047 15.131063 26.623047 15.039062 C 26.584047 13.977063 26.338453 12.928313 25.939453 11.945312 C 25.845453 11.705312 25.733047 11.471281 25.623047 11.238281 C 25.577047 11.144281 25.534562 11.049891 25.476562 10.962891 z"/></svg>