<svg xmlns="http://www.w3.org/2000/svg" viewBox="0 0 32 32"><path d="M 3.7070312 2.2929688 L 2.2929688 3.7070312 L 9.7246094 11.138672 L 11.140625 12.554688 L 12.990234 14.404297 C 12.990234 14.404297 12.990234 14.40625 12.990234 14.40625 L 28.292969 29.707031 L 29.707031 28.292969 L 15.800781 14.386719 C 17.15894 13.205571 18.542716 12.562833 19.132812 12.306641 L 21.132812 14.306641 C 21.180853 14.354681 21.258963 14.335876 21.310547 14.378906 L 21.083984 14.599609 L 21.845703 14.599609 C 22.421941 14.865192 22.965568 14.860337 23.533203 14.599609 L 23.537109 14.599609 L 23.537109 14.597656 C 23.541452 14.59565 23.546415 14.595692 23.550781 14.59375 L 23.537109 14.599609 L 23.945312 14.599609 L 28.478516 10.171875 L 28.515625 10.125 C 29.204387 9.2704571 29.204387 8.0264179 28.515625 7.171875 L 28.476562 7.1230469 L 25.234375 3.9785156 L 25.294922 4.0449219 C 24.845872 3.5235172 24.266539 3.1908391 23.650391 3.0449219 C 23.036172 2.8994616 22.387239 2.9406315 21.792969 3.1640625 C 19.497951 3.9599432 15.182995 5.9449385 11.144531 9.7304688 L 3.7070312 2.2929688 z M 22.820312 4.9707031 C 23.16693 4.9546034 23.551824 5.0832164 23.78125 5.3496094 L 23.810547 5.3828125 L 26.958984 8.4375 C 27.064694 8.5763077 27.065673 8.7225804 26.958984 8.8613281 L 22.748047 12.974609 C 22.749747 12.967409 22.664947 13.010648 22.546875 12.892578 L 19.589844 9.9355469 L 18.986328 10.164062 C 18.986328 10.164062 16.546686 11.067726 14.386719 12.972656 L 12.558594 11.144531 C 16.328019 7.6314137 20.419379 5.7531987 22.466797 5.0449219 L 22.480469 5.0410156 L 22.494141 5.0351562 C 22.594251 4.9973018 22.704773 4.9760697 22.820312 4.9707031 z M 8.40625 12.650391 C 6.29525 15.255391 4.5474063 18.306203 3.1914062 21.783203 C 2.7844062 22.999203 3.0346406 24.261641 3.9316406 25.306641 L 7.0292969 28.404297 C 7.4732969 28.848297 8.0289375 29.070313 8.5859375 29.070312 C 9.1419375 29.070312 9.6985781 28.847297 10.142578 28.404297 L 14.244141 24.306641 C 15.133141 23.417641 15.133141 22.078453 14.244141 21.189453 L 12.244141 19.1875 C 12.458141 18.7635 12.792563 18.14875 13.226562 17.46875 L 11.779297 16.021484 C 10.732297 17.587484 10.154141 18.920953 10.119141 19.001953 L 9.8515625 19.623047 L 12.830078 22.603516 C 12.898078 22.671516 12.898078 22.825578 12.830078 22.892578 L 8.7285156 26.990234 C 8.6615156 27.056234 8.5113594 27.056234 8.4433594 26.990234 L 5.4003906 23.949219 C 5.1293906 23.633219 4.8553125 23.109891 5.0703125 22.462891 C 6.3103125 19.286891 7.9041719 16.474359 9.8261719 14.068359 L 8.40625 12.650391 z"/></svg>