<svg xmlns="http://www.w3.org/2000/svg" viewBox="0 0 32 32"><path d="M 30.1875 1.4375 C 29.179688 3.09375 27.480469 7.570313 19.75 9.71875 L 19.75 8.625 C 18.78125 8.734375 18.433594 7.523438 18.09375 7.375 C 17.324219 8.164063 16.867188 8.890625 16.03125 9.4375 C 15.023438 10.097656 13.867188 10.324219 13.625 11.21875 C 13.914063 11.109375 14.875 10.59375 17.46875 10.59375 C 19.125 10.59375 19.105469 10.773438 20 11.875 C 20.304688 11.792969 20.34375 11.636719 20.4375 11.4375 C 19.964844 10.589844 19.726563 10.535156 19.78125 10.1875 C 22.445313 9.964844 28.976563 7.90625 30.1875 1.4375 Z M 17.03125 11.03125 C 15.132813 11.03125 14.585938 11.246094 14.53125 11.3125 C 14.414063 11.75 14.949219 12.710938 13.9375 13.9375 C 14.277344 14.03125 14.617188 14.121094 14.96875 14.21875 C 14.925781 14.292969 14.8125 14.496094 14.8125 14.78125 C 14.8125 15.855469 17.09375 14.878906 17.09375 16.625 C 17.09375 17.1875 15.566406 19.75 14.09375 19.75 C 12.695313 18.546875 11.15625 16.980469 11.34375 16.28125 C 12.160156 16.089844 13.976563 15.726563 14.1875 15.65625 C 14.4375 15.570313 14.722656 15.28125 14.625 14.9375 C 14.527344 14.59375 14.207031 14.355469 13.46875 14.5625 C 13.277344 14.617188 11.34375 15.03125 11.34375 15.03125 C 10.753906 13.816406 10.410156 14.4375 9.9375 14.53125 C 9.25 14.667969 8.535156 14.835938 8.9375 15.5625 C 8.714844 15.617188 1.824219 17.132813 1.71875 17.15625 C 1.519531 17.199219 0.894531 17.429688 1.03125 17.9375 C 1.164063 18.417969 1.550781 18.417969 1.65625 18.40625 C 2.066406 18.355469 9.371094 16.707031 9.5 16.6875 C 9.625 17.042969 10.152344 17.175781 10.78125 18.09375 C 10.960938 18.351563 13.316406 21.71875 13.9375 21.71875 C 16.222656 21.71875 18.4375 19.09375 18.4375 19.09375 C 18.394531 19.988281 16.59375 21.5 16.59375 21.5 C 16.59375 21.90625 16.667969 23.4375 16.6875 23.65625 C 16.742188 23.65625 17.242188 23.8125 18.59375 23.8125 C 19.945313 23.8125 20.84375 23.46875 20.84375 23.46875 C 20.84375 23.46875 21.34375 21.613281 21.34375 20.4375 C 21.34375 17.539063 20.550781 17.371094 19.28125 16.25 C 19.28125 16.25 19.445313 16.140625 19.65625 16.15625 C 24.191406 16.453125 22.339844 24.917969 25.46875 28.40625 C 25.566406 28.375 29.84375 26.667969 31 25.90625 C 25.429688 21.398438 25.304688 15.464844 19.125 15.46875 C 19.125 14 20.625 15.75 20.9375 13.5625 C 20.679688 13.6875 20.449219 13.792969 20.21875 13.90625 C 19.234375 11.386719 19.476563 11.03125 17.03125 11.03125 Z M 12.90625 13.90625 C 12.664063 13.910156 12.453125 13.980469 12.21875 14.03125 C 12.117188 14.054688 12.023438 14.09375 11.90625 14.125 C 11.960938 14.21875 12.183594 14.628906 12.21875 14.6875 C 12.699219 14.585938 13.164063 14.480469 13.65625 14.375 C 13.460938 14.285156 13.089844 13.902344 12.90625 13.90625 Z M 13.71875 15.90625 C 13.472656 15.96875 13.242188 16.035156 13 16.09375 C 13.039063 16.167969 14.132813 18.960938 14.28125 19.34375 C 14.660156 19.097656 15.039063 18.863281 15.40625 18.625 C 15.1875 18.3125 13.769531 15.957031 13.71875 15.90625 Z M 20.8125 23.9375 C 20.453125 23.957031 17.703125 24.296875 17.5 24.375 L 17.625 25.125 C 17.996094 25.070313 20.394531 24.597656 20.96875 24.40625 C 20.945313 24.316406 20.957031 24.039063 20.8125 23.9375 Z M 16.6875 24.125 C 16.589844 24.464844 16.644531 25.304688 16.6875 25.53125 C 16.785156 25.511719 17.160156 25.421875 17.28125 25.375 C 17.230469 24.960938 17.179688 24.542969 17.125 24.125 Z M 21.125 24.90625 C 18.496094 25.019531 16.808594 25.878906 16.6875 26 C 16.648438 26.191406 17.027344 28.144531 17.03125 28.40625 C 20.597656 28.914063 22.585938 27.917969 22.6875 27.875 C 22.558594 27.460938 21.242188 24.902344 21.125 24.90625 Z"/></svg>