<svg xmlns="http://www.w3.org/2000/svg" viewBox="0 0 32 32"><path d="M 13.5 4 C 11.027344 4 9 6.027344 9 8.5 C 9 9.300781 9.226563 10.042969 9.59375 10.6875 C 7.792969 11.742188 6.382813 13.238281 5.625 15 L 5.5 15 C 5.214844 15 5 14.785156 5 14.5 C 5 14.324219 5.089844 14.183594 5.21875 14.09375 L 4.0625 12.46875 C 3.417969 12.921875 3 13.660156 3 14.5 C 3 15.730469 3.917969 16.738281 5.09375 16.9375 C 5.042969 17.289063 5 17.636719 5 18 C 5 20.492188 6.324219 22.652344 8.25 24.25 C 8.007813 25.25 8.128906 26.316406 8.90625 27.09375 C 10.089844 28.277344 12.035156 28.277344 13.21875 27.09375 L 13.59375 26.71875 C 14.375 26.863281 15.160156 27 16 27 C 16.839844 27 17.625 26.863281 18.40625 26.71875 L 18.78125 27.09375 C 19.964844 28.277344 21.910156 28.277344 23.09375 27.09375 C 23.855469 26.332031 23.96875 25.296875 23.75 24.3125 C 24.566406 23.644531 25.246094 22.871094 25.78125 22 L 28 22 L 28 14 L 25.71875 14 C 25.359375 13.417969 24.929688 12.867188 24.4375 12.375 L 25 9.28125 L 25 8 L 24 8 C 24 8 21.597656 8.039063 19.5625 9.5625 C 19.03125 9.410156 18.496094 9.285156 17.9375 9.1875 C 17.976563 8.964844 18 8.734375 18 8.5 C 18 6.027344 15.972656 4 13.5 4 Z M 13.5 6 C 14.890625 6 16 7.109375 16 8.5 C 16 8.671875 15.96875 8.835938 15.9375 9 C 14.324219 9.007813 12.800781 9.320313 11.40625 9.84375 C 11.148438 9.453125 11 8.996094 11 8.5 C 11 7.109375 12.109375 6 13.5 6 Z M 22.75 10.1875 C 22.765625 10.183594 22.765625 10.191406 22.78125 10.1875 L 22.40625 12.46875 L 22.3125 13 L 22.75 13.375 C 23.449219 13.992188 23.992188 14.683594 24.375 15.4375 L 24.65625 16 L 26 16 L 26 20 L 24.65625 20 L 24.375 20.5625 C 23.886719 21.527344 23.117188 22.375 22.125 23.09375 L 21.40625 23.625 L 21.84375 24.4375 C 22.082031 24.839844 22.039063 25.335938 21.6875 25.6875 C 21.269531 26.105469 20.636719 26.105469 20.21875 25.6875 L 19.5 24.96875 L 19.09375 24.59375 L 18.5625 24.71875 C 17.75 24.90625 16.886719 25 16 25 C 15.113281 25 14.253906 24.90625 13.4375 24.71875 L 12.90625 24.59375 L 12.5 24.96875 L 11.78125 25.6875 C 11.363281 26.105469 10.730469 26.105469 10.3125 25.6875 C 9.960938 25.335938 9.917969 24.839844 10.15625 24.4375 L 10.59375 23.625 L 9.875 23.09375 C 8.066406 21.78125 7 19.988281 7 18 C 7 14.257813 10.910156 11 16 11 C 17.230469 11 18.402344 11.183594 19.46875 11.53125 L 20 11.71875 L 20.4375 11.34375 C 21.152344 10.707031 22.035156 10.363281 22.75 10.1875 Z M 22 16 C 21.449219 16 21 16.449219 21 17 C 21 17.550781 21.449219 18 22 18 C 22.550781 18 23 17.550781 23 17 C 23 16.449219 22.550781 16 22 16 Z"/></svg>