<svg xmlns="http://www.w3.org/2000/svg" viewBox="0 0 32 32"><path d="M 16.09375 4 C 11.01675 4 6 7.3833281 6 12.861328 C 6 16.344328 7.9584844 18.324219 9.1464844 18.324219 C 9.6364844 18.324219 9.9199219 16.958266 9.9199219 16.572266 C 9.9199219 16.112266 8.7460938 15.131797 8.7460938 13.216797 C 8.7460938 9.2387969 11.774359 6.4199219 15.693359 6.4199219 C 19.063359 6.4199219 21.556641 8.3335625 21.556641 11.851562 C 21.556641 14.478563 20.501891 19.40625 17.087891 19.40625 C 15.855891 19.40625 14.802734 18.516234 14.802734 17.240234 C 14.802734 15.370234 16 13.558906 16 11.628906 C 16 8.3529063 11.462891 8.94725 11.462891 12.90625 C 11.462891 13.73725 11.5665 14.657063 11.9375 15.414062 C 11.2555 18.353063 10 23.037406 10 26.066406 C 10 27.001406 10.133656 27.921422 10.222656 28.857422 C 10.390656 29.045422 10.307453 29.025641 10.564453 28.931641 C 13.058453 25.517641 12.827078 24.544172 13.955078 20.076172 C 14.564078 21.234172 16.137766 21.857422 17.384766 21.857422 C 22.639766 21.857422 25 16.736141 25 12.119141 C 25 7.2061406 20.75475 4 16.09375 4 z"/></svg>