<svg xmlns="http://www.w3.org/2000/svg" viewBox="0 0 32 32"><path d="M 10 6 C 6.144531 6 3 9.144531 3 13 C 3 13.421875 3.074219 13.8125 3.148438 14.203125 C 2.46875 15.203125 2 16.375 2 17.6875 C 2 21.132813 4.792969 23.933594 8.226563 23.984375 C 9.484375 25.183594 11.128906 26 13 26 C 14.921875 26 16.597656 25.140625 17.863281 23.886719 C 17.921875 23.890625 17.929688 23.894531 18 23.894531 C 19.597656 23.894531 20.898438 23.023438 21.789063 21.839844 C 22.1875 21.910156 22.578125 22 23 22 C 26.855469 22 30 18.855469 30 15 C 30 11.144531 26.855469 8 23 8 C 22.304688 8 21.664063 8.179688 21.03125 8.367188 C 19.886719 7.542969 18.515625 7 17 7 C 16.054688 7 15.203125 7.3125 14.375 7.65625 C 13.171875 6.667969 11.679688 6 10 6 Z M 10 8 C 11.363281 8 12.582031 8.539063 13.484375 9.421875 L 14.007813 9.929688 L 14.652344 9.585938 C 15.351563 9.210938 16.148438 9 17 9 C 18.226563 9 19.339844 9.4375 20.207031 10.167969 L 20.660156 10.546875 L 21.210938 10.335938 C 21.773438 10.121094 22.371094 10 23 10 C 25.773438 10 28 12.226563 28 15 C 28 17.773438 25.773438 20 23 20 C 22.558594 20 22.125 19.933594 21.703125 19.824219 L 20.925781 19.613281 L 20.558594 20.328125 C 20.070313 21.261719 19.121094 21.894531 18 21.894531 C 17.992188 21.894531 17.898438 21.882813 17.699219 21.859375 L 17.171875 21.808594 L 16.828125 22.214844 C 15.910156 23.304688 14.542969 24 13 24 C 11.507813 24 10.183594 23.347656 9.265625 22.3125 L 8.949219 21.957031 L 8.476563 21.980469 C 8.261719 21.988281 8.210938 22 8.3125 22 C 5.917969 22 4 20.082031 4 17.6875 C 4 16.679688 4.359375 15.765625 4.953125 15.019531 L 5.257813 14.640625 L 5.140625 14.167969 C 5.050781 13.78125 5 13.394531 5 13 C 5 10.226563 7.226563 8 10 8 Z M 11.265625 13 C 11.246094 13 11.230469 13.015625 11.230469 13.039063 L 11.230469 15.957031 C 11.230469 15.980469 11.246094 16 11.265625 16 L 11.605469 16 C 11.628906 16 11.640625 15.980469 11.640625 15.957031 L 11.640625 13.039063 C 11.640625 13.019531 11.625 13 11.605469 13 Z M 17.199219 13 C 16.957031 13 16.769531 13.066406 16.636719 13.203125 C 16.503906 13.335938 16.410156 13.5625 16.363281 13.828125 L 16.339844 14 L 16.039063 14 C 16.039063 14 16 14.011719 15.996094 14.050781 L 15.945313 14.328125 C 15.941406 14.351563 15.953125 14.371094 15.988281 14.371094 L 16.28125 14.371094 L 15.988281 16.003906 C 15.964844 16.140625 15.9375 16.25 15.90625 16.332031 C 15.878906 16.414063 15.851563 16.476563 15.816406 16.519531 C 15.78125 16.566406 15.75 16.597656 15.695313 16.613281 C 15.648438 16.628906 15.597656 16.636719 15.539063 16.636719 C 15.507813 16.636719 15.464844 16.632813 15.433594 16.625 C 15.402344 16.617188 15.386719 16.613281 15.359375 16.601563 C 15.359375 16.601563 15.328125 16.589844 15.3125 16.625 C 15.300781 16.652344 15.222656 16.867188 15.214844 16.890625 C 15.207031 16.917969 15.21875 16.9375 15.234375 16.945313 C 15.273438 16.960938 15.304688 16.96875 15.359375 16.980469 C 15.429688 17 15.492188 17 15.546875 17 C 15.671875 17 15.78125 16.980469 15.875 16.949219 C 15.96875 16.914063 16.046875 16.859375 16.121094 16.78125 C 16.195313 16.695313 16.246094 16.605469 16.292969 16.484375 C 16.339844 16.363281 16.375 16.210938 16.40625 16.035156 L 16.703125 14.371094 L 17.140625 14.371094 C 17.140625 14.371094 17.179688 14.371094 17.1875 14.328125 L 17.234375 14.054688 C 17.238281 14.027344 17.226563 14 17.191406 14 L 16.769531 14 C 16.773438 13.992188 16.800781 13.734375 16.851563 13.59375 C 16.871094 13.535156 16.910156 13.484375 16.941406 13.453125 C 16.976563 13.417969 17.015625 13.394531 17.054688 13.382813 C 17.097656 13.371094 17.144531 13.363281 17.199219 13.363281 C 17.238281 13.363281 17.277344 13.367188 17.308594 13.375 C 17.347656 13.382813 17.363281 13.386719 17.375 13.390625 C 17.417969 13.402344 17.421875 13.390625 17.433594 13.371094 L 17.53125 13.09375 C 17.542969 13.0625 17.519531 13.050781 17.511719 13.046875 C 17.46875 13.03125 17.429688 13.023438 17.378906 13.015625 C 17.328125 13.003906 17.265625 13 17.199219 13 Z M 8.023438 14 C 7.589844 14 7.289063 14.242188 7.289063 14.585938 L 7.289063 14.59375 C 7.289063 14.953125 7.621094 15.074219 7.933594 15.15625 L 7.984375 15.171875 C 8.210938 15.234375 8.40625 15.289063 8.40625 15.4375 L 8.40625 15.441406 C 8.40625 15.578125 8.277344 15.675781 8.074219 15.675781 C 7.996094 15.675781 7.742188 15.675781 7.46875 15.515625 C 7.433594 15.5 7.414063 15.488281 7.390625 15.472656 C 7.375 15.464844 7.34375 15.453125 7.328125 15.492188 L 7.234375 15.730469 C 7.21875 15.765625 7.238281 15.773438 7.242188 15.78125 C 7.289063 15.808594 7.332031 15.828125 7.375 15.851563 C 7.609375 15.964844 7.832031 16 8.0625 16 C 8.535156 16 8.828125 15.769531 8.828125 15.394531 L 8.828125 15.390625 C 8.828125 15.042969 8.496094 14.917969 8.1875 14.828125 L 8.148438 14.816406 C 7.914063 14.746094 7.710938 14.6875 7.710938 14.546875 L 7.710938 14.535156 C 7.710938 14.414063 7.828125 14.328125 8.011719 14.328125 C 8.214844 14.328125 8.453125 14.386719 8.609375 14.46875 C 8.609375 14.46875 8.65625 14.492188 8.671875 14.453125 C 8.683594 14.429688 8.761719 14.234375 8.769531 14.214844 C 8.777344 14.191406 8.761719 14.175781 8.746094 14.167969 C 8.570313 14.066406 8.324219 14 8.070313 14 Z M 9.988281 14 C 9.886719 14 9.730469 14.011719 9.632813 14.03125 C 9.632813 14.03125 9.339844 14.082031 9.21875 14.171875 C 9.21875 14.171875 9.195313 14.183594 9.210938 14.21875 L 9.304688 14.453125 C 9.316406 14.484375 9.347656 14.472656 9.347656 14.472656 C 9.347656 14.472656 9.355469 14.46875 9.367188 14.464844 C 9.625 14.332031 9.949219 14.339844 9.949219 14.339844 C 10.09375 14.339844 10.203125 14.363281 10.28125 14.417969 C 10.351563 14.46875 10.390625 14.550781 10.390625 14.714844 L 10.390625 14.765625 C 10.277344 14.75 10.171875 14.738281 10.171875 14.738281 C 10.117188 14.734375 10.046875 14.734375 9.960938 14.734375 C 9.847656 14.734375 9.738281 14.746094 9.632813 14.773438 C 9.527344 14.800781 9.433594 14.839844 9.355469 14.894531 C 9.273438 14.949219 9.210938 15.015625 9.164063 15.097656 C 9.113281 15.179688 9.089844 15.277344 9.089844 15.382813 C 9.089844 15.492188 9.109375 15.585938 9.148438 15.664063 C 9.191406 15.742188 9.25 15.808594 9.324219 15.859375 C 9.398438 15.90625 9.492188 15.945313 9.59375 15.96875 C 9.699219 15.988281 9.820313 16 9.949219 16 C 10.085938 16 10.222656 15.988281 10.355469 15.96875 C 10.488281 15.949219 10.644531 15.917969 10.691406 15.90625 C 10.734375 15.898438 10.78125 15.886719 10.78125 15.886719 C 10.816406 15.878906 10.8125 15.847656 10.8125 15.847656 L 10.8125 14.71875 C 10.8125 14.46875 10.742188 14.285156 10.601563 14.171875 C 10.460938 14.058594 10.253906 14 9.988281 14 Z M 12.988281 14 C 12.824219 14 12.671875 14.023438 12.550781 14.078125 C 12.429688 14.132813 12.324219 14.207031 12.246094 14.296875 C 12.164063 14.386719 12.101563 14.496094 12.0625 14.617188 C 12.023438 14.738281 12.003906 14.871094 12.003906 15.011719 C 12.003906 15.15625 12.027344 15.289063 12.066406 15.40625 C 12.105469 15.527344 12.171875 15.632813 12.261719 15.71875 C 12.347656 15.808594 12.457031 15.878906 12.59375 15.925781 C 12.726563 15.976563 12.890625 16 13.078125 16 C 13.464844 15.996094 13.664063 15.917969 13.75 15.875 C 13.761719 15.867188 13.777344 15.855469 13.761719 15.816406 L 13.671875 15.589844 C 13.660156 15.554688 13.621094 15.566406 13.621094 15.566406 C 13.523438 15.601563 13.390625 15.660156 13.074219 15.660156 C 12.867188 15.660156 12.714844 15.605469 12.621094 15.515625 C 12.519531 15.425781 12.472656 15.292969 12.464844 15.105469 L 13.796875 15.105469 C 13.796875 15.105469 13.832031 15.105469 13.835938 15.074219 C 13.835938 15.058594 13.882813 14.816406 13.796875 14.539063 C 13.765625 14.421875 13.679688 14.304688 13.625 14.25 C 13.539063 14.164063 13.457031 14.105469 13.375 14.074219 C 13.265625 14.027344 13.132813 14 12.988281 14 Z M 14.890625 14 C 14.460938 14 14.15625 14.242188 14.15625 14.585938 L 14.15625 14.59375 C 14.15625 14.953125 14.492188 15.074219 14.800781 15.15625 L 14.855469 15.171875 C 15.082031 15.234375 15.277344 15.289063 15.277344 15.4375 L 15.277344 15.441406 C 15.277344 15.578125 15.148438 15.675781 14.941406 15.675781 C 14.863281 15.675781 14.609375 15.675781 14.335938 15.515625 C 14.304688 15.5 14.28125 15.488281 14.257813 15.472656 C 14.25 15.46875 14.210938 15.453125 14.195313 15.492188 L 14.105469 15.730469 C 14.089844 15.765625 14.109375 15.773438 14.113281 15.78125 C 14.15625 15.808594 14.199219 15.828125 14.246094 15.851563 C 14.480469 15.964844 14.699219 16 14.933594 16 C 15.402344 16 15.699219 15.769531 15.699219 15.394531 L 15.699219 15.390625 C 15.699219 15.042969 15.367188 14.917969 15.058594 14.828125 L 15.015625 14.816406 C 14.78125 14.746094 14.578125 14.6875 14.578125 14.546875 L 14.578125 14.535156 C 14.578125 14.414063 14.699219 14.328125 14.878906 14.328125 C 15.082031 14.328125 15.324219 14.386719 15.480469 14.46875 C 15.480469 14.46875 15.527344 14.492188 15.542969 14.453125 C 15.550781 14.429688 15.628906 14.234375 15.640625 14.214844 C 15.648438 14.191406 15.632813 14.175781 15.613281 14.167969 C 15.4375 14.066406 15.191406 14 14.9375 14 Z M 18.160156 14 C 18 14 17.855469 14.027344 17.734375 14.078125 C 17.617188 14.128906 17.515625 14.203125 17.4375 14.292969 C 17.355469 14.382813 17.292969 14.488281 17.253906 14.609375 C 17.21875 14.730469 17.199219 14.863281 17.199219 15.003906 C 17.199219 15.144531 17.21875 15.277344 17.253906 15.394531 C 17.292969 15.515625 17.355469 15.625 17.4375 15.714844 C 17.515625 15.800781 17.617188 15.875 17.738281 15.925781 C 17.859375 15.976563 18 16 18.160156 16 C 18.320313 16 18.460938 15.976563 18.582031 15.921875 C 18.703125 15.871094 18.804688 15.800781 18.886719 15.710938 C 18.964844 15.621094 19.027344 15.515625 19.0625 15.394531 C 19.101563 15.273438 19.121094 15.140625 19.121094 15 C 19.121094 14.863281 19.101563 14.730469 19.0625 14.609375 C 19.027344 14.488281 18.964844 14.382813 18.886719 14.292969 C 18.804688 14.203125 18.703125 14.128906 18.582031 14.078125 C 18.460938 14.027344 18.320313 14 18.160156 14 Z M 21.644531 14 C 21.480469 14 21.332031 14.027344 21.203125 14.078125 C 21.078125 14.128906 20.972656 14.203125 20.890625 14.292969 C 20.804688 14.378906 20.738281 14.488281 20.699219 14.609375 C 20.652344 14.726563 20.632813 14.863281 20.632813 15 C 20.632813 15.304688 20.71875 15.550781 20.894531 15.730469 C 21.070313 15.910156 21.328125 16 21.671875 16 C 21.875 16 22.082031 15.960938 22.230469 15.90625 C 22.230469 15.90625 22.257813 15.894531 22.246094 15.863281 L 22.148438 15.617188 C 22.136719 15.582031 22.097656 15.59375 22.097656 15.59375 C 22.042969 15.617188 21.980469 15.632813 21.917969 15.640625 C 21.851563 15.652344 21.777344 15.65625 21.699219 15.65625 C 21.507813 15.65625 21.355469 15.605469 21.25 15.5 C 21.140625 15.398438 21.078125 15.230469 21.078125 15 C 21.082031 14.796875 21.132813 14.640625 21.230469 14.519531 C 21.328125 14.402344 21.472656 14.34375 21.667969 14.34375 C 21.828125 14.34375 21.953125 14.363281 22.082031 14.398438 C 22.082031 14.398438 22.117188 14.410156 22.128906 14.375 C 22.164063 14.285156 22.191406 14.222656 22.226563 14.125 C 22.238281 14.09375 22.210938 14.082031 22.203125 14.078125 C 22.148438 14.0625 22.03125 14.03125 21.9375 14.015625 C 21.855469 14.003906 21.753906 14 21.644531 14 Z M 23.277344 14 C 23.113281 14 22.960938 14.023438 22.839844 14.078125 C 22.714844 14.132813 22.613281 14.207031 22.53125 14.296875 C 22.449219 14.386719 22.386719 14.496094 22.347656 14.617188 C 22.3125 14.738281 22.292969 14.871094 22.292969 15.011719 C 22.292969 15.15625 22.3125 15.289063 22.355469 15.40625 C 22.394531 15.527344 22.457031 15.632813 22.546875 15.71875 C 22.636719 15.808594 22.746094 15.878906 22.878906 15.925781 C 23.015625 15.976563 23.179688 16 23.363281 16 C 23.75 15.996094 23.953125 15.917969 24.035156 15.875 C 24.050781 15.867188 24.066406 15.855469 24.046875 15.816406 L 23.957031 15.589844 C 23.945313 15.554688 23.90625 15.566406 23.90625 15.566406 C 23.8125 15.601563 23.675781 15.660156 23.359375 15.660156 C 23.15625 15.660156 23.003906 15.605469 22.90625 15.515625 C 22.808594 15.425781 22.761719 15.292969 22.75 15.105469 L 24.082031 15.105469 C 24.082031 15.105469 24.117188 15.105469 24.125 15.074219 C 24.125 15.058594 24.167969 14.816406 24.082031 14.539063 C 24.050781 14.421875 23.964844 14.304688 23.910156 14.25 C 23.824219 14.164063 23.742188 14.105469 23.660156 14.074219 C 23.550781 14.027344 23.421875 14 23.277344 14 Z M 20.386719 14 C 20.214844 13.992188 20.121094 14.019531 20.039063 14.054688 C 19.957031 14.089844 19.867188 14.148438 19.8125 14.214844 L 19.8125 14.058594 C 19.8125 14.035156 19.800781 14.019531 19.777344 14.019531 L 19.4375 14.019531 C 19.414063 14.019531 19.394531 14.035156 19.394531 14.058594 L 19.394531 15.960938 C 19.394531 15.980469 19.414063 16 19.4375 16 L 19.785156 16 C 19.808594 16 19.828125 15.980469 19.828125 15.960938 L 19.828125 15.011719 C 19.828125 14.882813 19.84375 14.753906 19.871094 14.671875 C 19.898438 14.59375 19.9375 14.53125 19.988281 14.484375 C 20.039063 14.441406 20.09375 14.410156 20.15625 14.390625 C 20.214844 14.371094 20.285156 14.367188 20.332031 14.367188 C 20.402344 14.367188 20.480469 14.386719 20.480469 14.386719 C 20.503906 14.386719 20.519531 14.371094 20.527344 14.347656 C 20.550781 14.292969 20.613281 14.117188 20.625 14.082031 C 20.636719 14.054688 20.617188 14.039063 20.609375 14.035156 C 20.585938 14.027344 20.472656 14.007813 20.386719 14 Z M 12.957031 14.328125 C 13.132813 14.328125 13.25 14.390625 13.332031 14.507813 C 13.386719 14.585938 13.410156 14.683594 13.421875 14.796875 L 12.46875 14.796875 C 12.488281 14.679688 12.523438 14.585938 12.578125 14.507813 C 12.65625 14.390625 12.78125 14.328125 12.957031 14.328125 Z M 23.246094 14.328125 C 23.421875 14.328125 23.535156 14.390625 23.621094 14.507813 C 23.675781 14.585938 23.699219 14.683594 23.707031 14.796875 L 22.757813 14.796875 C 22.777344 14.679688 22.8125 14.585938 22.863281 14.507813 C 22.945313 14.390625 23.070313 14.328125 23.246094 14.328125 Z M 18.160156 14.335938 C 18.335938 14.335938 18.460938 14.390625 18.542969 14.507813 C 18.628906 14.625 18.671875 14.789063 18.671875 15 C 18.671875 15.214844 18.628906 15.378906 18.546875 15.5 C 18.460938 15.613281 18.335938 15.671875 18.160156 15.671875 C 17.984375 15.671875 17.859375 15.613281 17.78125 15.5 C 17.695313 15.378906 17.65625 15.214844 17.65625 15 C 17.65625 14.789063 17.695313 14.625 17.777344 14.507813 C 17.859375 14.394531 17.984375 14.335938 18.160156 14.335938 Z M 10.027344 15.046875 C 10.21875 15.050781 10.390625 15.078125 10.390625 15.078125 L 10.390625 15.640625 C 10.390625 15.640625 10.21875 15.671875 10.03125 15.683594 C 9.757813 15.695313 9.636719 15.609375 9.640625 15.609375 C 9.585938 15.570313 9.582031 15.558594 9.5625 15.535156 C 9.535156 15.496094 9.523438 15.445313 9.523438 15.375 C 9.523438 15.265625 9.5625 15.1875 9.640625 15.136719 C 9.640625 15.136719 9.753906 15.042969 10.027344 15.046875 Z"/></svg>