<svg xmlns="http://www.w3.org/2000/svg" viewBox="0 0 32 32"><path d="M 16.298828 4.0019531 C 11.734828 4.0019531 8 6.6204687 8 11.605469 C 8.01 13.286469 8.4304219 14.626453 9.2324219 15.564453 C 10.698422 17.343453 13.482687 17.450375 14.929688 15.984375 C 16.112688 14.781375 16.27875 12.631922 14.96875 11.419922 C 14.27475 10.754922 13.356359 10.462563 12.193359 10.726562 C 11.333359 10.980562 10.775391 10.882125 10.775391 9.953125 C 10.775391 7.519125 13.806359 6.132875 16.318359 6.171875 C 18.488359 6.142875 20.609734 6.7572187 22.427734 7.9492188 L 21.087891 9.8652344 L 22.945312 11.087891 L 25.447266 7.5117188 C 24.079266 6.4367188 21.195828 3.9239531 16.298828 4.0019531 z M 21.666016 15.005859 C 19.783016 14.908859 18.144828 16.391031 18.173828 18.332031 C 18.144828 19.171031 18.474844 19.971344 19.089844 20.527344 C 19.781844 21.219344 20.719859 21.501281 21.880859 21.238281 C 22.739859 20.984281 23.294922 21.092531 23.294922 22.019531 C 23.294922 22.223531 23.265563 22.437578 23.226562 22.642578 C 22.396563 24.671578 20.280031 25.832031 17.207031 25.832031 C 14.641031 25.842031 12.133219 25.024188 10.074219 23.492188 L 11.742188 21.541016 L 9.9765625 20.185547 L 6.9628906 23.736328 L 7.7324219 24.419922 C 10.327422 26.741922 13.694734 28.019 17.177734 28 C 19.723734 28 21.850969 27.483453 23.792969 25.814453 C 26.621969 23.268453 26.475828 18.418922 24.798828 16.419922 C 24.037828 15.492922 22.876016 14.966859 21.666016 15.005859 z"/></svg>