<svg xmlns="http://www.w3.org/2000/svg" viewBox="0 0 32 32"><path d="M 12.939453 4 L 12.939453 6.7167969 C 15.944453 6.9857969 17.949219 9.4634531 17.949219 12.314453 C 17.949219 14.935453 16.155563 17.133047 13.726562 17.748047 L 12.900391 20.339844 L 12.785156 20.685547 C 14.263156 20.589547 15.741344 20.062688 17.027344 19.179688 L 17.537109 19.947266 C 18.958109 20.465266 20.052969 21.598594 20.542969 22.683594 C 21.032969 23.787594 21.050109 24.362438 22.787109 25.648438 C 24.525109 26.925438 25.6585 27.866891 25.9375 27.962891 C 26.2255 28.058891 26.849547 28.001016 27.435547 27.416016 C 28.019547 26.829016 28.076469 26.204781 27.980469 25.925781 C 27.884469 25.647781 26.944203 24.515344 25.658203 22.777344 C 24.372203 21.039344 23.785406 21.02025 22.691406 20.53125 C 21.597406 20.04125 20.464078 18.956156 19.955078 17.535156 L 19.197266 17.037109 C 20.119266 15.693109 20.705078 14.071453 20.705078 12.314453 C 20.705078 7.8884531 17.287453 4.269 12.939453 4 z M 11.171875 4.0683594 C 7.120875 4.6343594 4 8.1194531 4 12.314453 C 4 16.538453 7.0054063 20.069188 11.066406 20.617188 L 11.066406 17.824219 C 8.5034063 17.316219 6.7167969 15.040453 6.7167969 12.314453 C 6.7167969 9.9234531 8.2044063 7.8872656 10.316406 7.0722656 L 11.103516 4.3183594 L 11.171875 4.0683594 z M 12 4.5664062 L 9.1542969 14.501953 L 12.005859 13.244141 L 12.005859 20.042969 L 15.519531 9.1171875 L 12 10.585938 L 12 4.5664062 z M 26.492188 26.060547 C 26.723188 26.060547 26.914062 26.252422 26.914062 26.482422 C 26.914062 26.713422 26.722188 26.896484 26.492188 26.896484 C 26.262187 26.896484 26.080078 26.713422 26.080078 26.482422 C 26.080078 26.252422 26.261187 26.060547 26.492188 26.060547 z"/></svg>