<svg xmlns="http://www.w3.org/2000/svg" viewBox="0 0 32 32"><path d="M 0 6 L 0 8 L 19 8 L 19 23 L 12.84375 23 C 12.398438 21.28125 10.851563 20 9 20 C 7.148438 20 5.601563 21.28125 5.15625 23 L 4 23 L 4 18 L 2 18 L 2 25 L 5.15625 25 C 5.601563 26.71875 7.148438 28 9 28 C 10.851563 28 12.398438 26.71875 12.84375 25 L 21.15625 25 C 21.601563 26.71875 23.148438 28 25 28 C 26.851563 28 28.398438 26.71875 28.84375 25 L 32 25 L 32 16.84375 L 31.9375 16.6875 L 29.9375 10.6875 L 29.71875 10 L 21 10 L 21 6 Z M 1 10 L 1 12 L 10 12 L 10 10 Z M 21 12 L 28.28125 12 L 30 17.125 L 30 23 L 28.84375 23 C 28.398438 21.28125 26.851563 20 25 20 C 23.148438 20 21.601563 21.28125 21.15625 23 L 21 23 Z M 2 14 L 2 16 L 8 16 L 8 14 Z M 9 22 C 10.117188 22 11 22.882813 11 24 C 11 25.117188 10.117188 26 9 26 C 7.882813 26 7 25.117188 7 24 C 7 22.882813 7.882813 22 9 22 Z M 25 22 C 26.117188 22 27 22.882813 27 24 C 27 25.117188 26.117188 26 25 26 C 23.882813 26 23 25.117188 23 24 C 23 22.882813 23.882813 22 25 22 Z"/></svg>