<svg xmlns="http://www.w3.org/2000/svg" viewBox="0 0 32 32"><path d="M 17.65625 3 C 17.375 2.976563 17.0625 3.03125 16.78125 3.125 C 15.652344 3.503906 15.058594 4.714844 15.4375 5.84375 L 16.34375 8.5 L 11.21875 10.21875 L 10.375 7.65625 C 9.996094 6.527344 8.785156 5.933594 7.65625 6.3125 C 6.523438 6.691406 5.902344 7.902344 6.28125 9.03125 L 7.125 11.5625 L 4.46875 12.46875 C 3.339844 12.847656 2.746094 14.089844 3.125 15.21875 C 3.503906 16.347656 4.714844 16.941406 5.84375 16.5625 L 8.5 15.6875 L 10.21875 20.78125 L 7.65625 21.625 C 6.527344 22.003906 5.933594 23.214844 6.3125 24.34375 C 6.691406 25.476563 7.902344 26.097656 9.03125 25.71875 L 11.5625 24.875 L 12.46875 27.53125 C 12.847656 28.660156 14.089844 29.253906 15.21875 28.875 C 16.347656 28.496094 16.941406 27.285156 16.5625 26.15625 L 15.6875 23.5 L 20.78125 21.78125 L 21.625 24.34375 C 22.003906 25.472656 23.214844 26.066406 24.34375 25.6875 C 25.476563 25.308594 26.097656 24.097656 25.71875 22.96875 L 24.875 20.4375 L 27.53125 19.53125 C 28.660156 19.152344 29.253906 17.910156 28.875 16.78125 C 28.496094 15.652344 27.285156 15.058594 26.15625 15.4375 L 23.5 16.3125 L 21.78125 11.21875 L 24.34375 10.375 C 25.472656 9.996094 26.066406 8.785156 25.6875 7.65625 C 25.308594 6.527344 24.097656 5.902344 22.96875 6.28125 L 20.4375 7.125 L 19.53125 4.46875 C 19.246094 3.621094 18.496094 3.066406 17.65625 3 Z M 17.6875 12.59375 L 19.40625 17.6875 L 14.3125 19.40625 L 12.59375 14.3125 Z"/></svg>