<svg xmlns="http://www.w3.org/2000/svg" viewBox="0 0 32 32"><path d="M 9.9375 2 L 9.65625 2.96875 L 5.21875 18.53125 L 5.21875 18.5625 C 4.519531 20.882813 5.578125 23.382813 7.75 24.46875 L 7.78125 24.5 L 7.8125 24.5 L 19.75 29.46875 C 19.769531 29.480469 19.792969 29.488281 19.8125 29.5 C 20.507813 29.835938 21.269531 30 22 30 C 23.835938 30 25.59375 28.992188 26.46875 27.25 C 27.695313 24.789063 26.710938 21.761719 24.25 20.53125 L 24.1875 20.5 L 24.15625 20.5 L 23.5 20.21875 C 23.492188 20.222656 23.476563 20.214844 23.46875 20.21875 L 16.46875 17.4375 L 19.71875 5.9375 L 19.96875 5 L 10.90625 2.28125 Z M 11.3125 4.46875 L 17.53125 6.34375 L 17 8.21875 L 10.78125 6.34375 Z M 10.21875 8.28125 L 16.4375 10.15625 L 14.28125 17.75 L 14.0625 18.625 L 14.875 18.96875 L 21.65625 21.65625 C 20.238281 23.066406 19.289063 24.9375 19.0625 27.03125 L 11.6875 23.9375 C 11.890625 23.332031 12 22.671875 12 22 C 12 19.367188 10.277344 17.148438 7.90625 16.34375 Z M 7.375 18.25 C 8.90625 18.804688 10 20.261719 10 22 C 10 22.40625 9.925781 22.785156 9.8125 23.15625 L 8.65625 22.6875 C 7.339844 22.027344 6.691406 20.535156 7.125 19.125 L 7.125 19.09375 Z M 23.65625 22.5 C 24.914063 23.328125 25.378906 24.960938 24.6875 26.34375 C 24.15625 27.402344 23.097656 28 22 28 C 21.667969 28 21.328125 27.925781 21 27.8125 C 21.054688 25.65625 22.082031 23.746094 23.65625 22.5 Z"/></svg>