<svg xmlns="http://www.w3.org/2000/svg" viewBox="0 0 32 32"><path d="M 23.5 11 C 21.578125 11 20 12.578125 20 14.5 C 20 16.421875 21.578125 18 23.5 18 C 25.421875 18 27 16.421875 27 14.5 C 27 12.578125 25.421875 11 23.5 11 Z M 13.71875 11.03125 C 13.355469 11.054688 13.003906 11.175781 12.6875 11.40625 L 7.40625 15.1875 L 8.59375 16.8125 L 13.84375 13.03125 L 16.125 15.65625 L 8.71875 21.9375 C 9.125 21.972656 9.558594 22 10 22 C 10.675781 22 11.324219 21.929688 11.96875 21.8125 L 17.40625 17.15625 L 19.4375 19.5 C 20.175781 19.308594 20.933594 19.144531 21.71875 19.0625 L 15.34375 11.71875 C 14.917969 11.222656 14.324219 10.992188 13.71875 11.03125 Z M 23.5 13 C 24.339844 13 25 13.660156 25 14.5 C 25 15.34375 24.339844 16 23.5 16 C 22.65625 16 22 15.34375 22 14.5 C 22 13.660156 22.65625 13 23.5 13 Z M 23 20 C 20.5625 20 18.425781 20.816406 16.34375 21.5625 C 14.261719 22.308594 12.234375 23 10 23 C 4.503906 23 1.6875 20.28125 1.6875 20.28125 L 0.3125 21.71875 C 0.3125 21.71875 3.816406 25 10 25 C 12.644531 25 14.90625 24.191406 17 23.4375 C 19.09375 22.683594 21.015625 22 23 22 C 26.96875 22 30.34375 24.78125 30.34375 24.78125 L 31.65625 23.21875 C 31.65625 23.21875 27.875 20 23 20 Z"/></svg>