<svg xmlns="http://www.w3.org/2000/svg" viewBox="0 0 32 32"><path d="M 5 5 L 5 27 L 27 27 L 27 5 L 5 5 z M 7 7 L 25 7 L 25 25 L 7 25 L 7 7 z M 18.689453 10.628906 C 16.939453 10.628906 15.481672 12.207297 15.888672 14.154297 C 13.508672 14.032297 11.387609 12.895297 9.9746094 11.154297 C 9.7256094 11.578297 9.5859375 12.067562 9.5859375 12.601562 C 9.5849375 13.561562 10.064281 14.458234 10.863281 14.990234 C 10.395281 14.973234 9.9493594 14.842906 9.5683594 14.628906 L 9.5683594 14.662109 C 9.5683594 16.057109 10.552234 17.213469 11.865234 17.480469 C 11.410234 17.599469 11.012313 17.599203 10.570312 17.533203 C 10.933313 18.671203 11.991953 19.497438 13.251953 19.523438 C 12.267953 20.293438 11.034406 20.748047 9.6914062 20.748047 C 9.4554063 20.748047 9.232 20.740844 9 20.714844 C 10.269 21.528844 11.77825 22 13.40625 22 C 18.68225 22 21.570312 17.628937 21.570312 13.835938 C 21.570312 13.712938 21.569547 13.587844 21.560547 13.464844 C 22.120547 13.057844 22.610047 12.549563 22.998047 11.976562 C 22.482047 12.199563 21.923703 12.362828 21.345703 12.423828 C 21.940703 12.069828 22.391469 11.50875 22.605469 10.84375 C 22.054469 11.17175 21.432156 11.412156 20.785156 11.535156 C 20.260156 10.975156 19.516453 10.628906 18.689453 10.628906 z"/></svg>