<svg xmlns="http://www.w3.org/2000/svg" viewBox="0 0 32 32"><path d="M 11.5 6 C 9.578125 6 8 7.578125 8 9.5 C 8 11.421875 9.578125 13 11.5 13 C 13.421875 13 15 11.421875 15 9.5 C 15 7.578125 13.421875 6 11.5 6 Z M 20.5 6 C 18.578125 6 17 7.578125 17 9.5 C 17 11.421875 18.578125 13 20.5 13 C 22.421875 13 24 11.421875 24 9.5 C 24 7.578125 22.421875 6 20.5 6 Z M 11.5 8 C 12.339844 8 13 8.660156 13 9.5 C 13 10.339844 12.339844 11 11.5 11 C 10.660156 11 10 10.339844 10 9.5 C 10 8.660156 10.660156 8 11.5 8 Z M 20.5 8 C 21.339844 8 22 8.660156 22 9.5 C 22 10.339844 21.339844 11 20.5 11 C 19.660156 11 19 10.339844 19 9.5 C 19 8.660156 19.660156 8 20.5 8 Z M 7 12 C 4.800781 12 3 13.800781 3 16 C 3 17.113281 3.476563 18.117188 4.21875 18.84375 C 2.886719 19.746094 2 21.28125 2 23 L 4 23 C 4 21.332031 5.332031 20 7 20 C 8.667969 20 10 21.332031 10 23 L 12 23 C 12 21.28125 11.113281 19.746094 9.78125 18.84375 C 10.523438 18.117188 11 17.113281 11 16 C 11 13.800781 9.199219 12 7 12 Z M 12 23 C 11.375 23.835938 11 24.886719 11 26 L 13 26 C 13 24.332031 14.332031 23 16 23 C 17.667969 23 19 24.332031 19 26 L 21 26 C 21 24.886719 20.625 23.835938 20 23 C 19.660156 22.546875 19.25 22.160156 18.78125 21.84375 C 19.523438 21.117188 20 20.113281 20 19 C 20 16.800781 18.199219 15 16 15 C 13.800781 15 12 16.800781 12 19 C 12 20.113281 12.476563 21.117188 13.21875 21.84375 C 12.75 22.160156 12.339844 22.546875 12 23 Z M 20 23 L 22 23 C 22 21.332031 23.332031 20 25 20 C 26.667969 20 28 21.332031 28 23 L 30 23 C 30 21.28125 29.113281 19.746094 27.78125 18.84375 C 28.523438 18.117188 29 17.113281 29 16 C 29 13.800781 27.199219 12 25 12 C 22.800781 12 21 13.800781 21 16 C 21 17.113281 21.476563 18.117188 22.21875 18.84375 C 20.886719 19.746094 20 21.28125 20 23 Z M 7 14 C 8.117188 14 9 14.882813 9 16 C 9 17.117188 8.117188 18 7 18 C 5.882813 18 5 17.117188 5 16 C 5 14.882813 5.882813 14 7 14 Z M 25 14 C 26.117188 14 27 14.882813 27 16 C 27 17.117188 26.117188 18 25 18 C 23.882813 18 23 17.117188 23 16 C 23 14.882813 23.882813 14 25 14 Z M 16 17 C 17.117188 17 18 17.882813 18 19 C 18 20.117188 17.117188 21 16 21 C 14.882813 21 14 20.117188 14 19 C 14 17.882813 14.882813 17 16 17 Z"/></svg>