<svg xmlns="http://www.w3.org/2000/svg" viewBox="0 0 32 32"><path d="M 7.4003906 5 C 6.1003906 5 5 6.1003906 5 7.4003906 L 5 24.699219 C 5 25.899219 6.1003906 27 7.4003906 27 L 24.699219 27 C 25.999219 27 27.099609 25.899609 27.099609 24.599609 L 27.099609 7.4003906 C 26.999609 6.1003906 25.899609 5 24.599609 5 L 7.4003906 5 z M 15.300781 7.6992188 C 16.700781 8.5992187 17.399609 10.9 17.599609 12.5 C 17.999609 13.6 18.199219 14.899609 18.199219 16.099609 C 18.199219 18.898684 17.099519 21.097689 14.701172 22.597656 C 17.150199 22.636871 19 20.566165 19 18.199219 C 19 17.599219 18.899609 17.000391 18.599609 16.400391 C 19.099609 16.300391 19.500391 16.100391 19.900391 15.900391 C 20.800391 17.700391 20.700391 20.299219 18.900391 22.199219 C 16.700391 24.599219 12.799609 24.599219 10.599609 22.199219 C 7.0996094 18.399219 9.5992187 12.199219 14.699219 12.199219 C 15.399219 12.199219 16.099219 12.3 16.699219 12.5 C 16.499219 12.9 16.300781 13.400391 16.300781 13.900391 C 15.800781 13.700391 15.299219 13.599609 14.699219 13.599609 C 12.199219 13.599609 10.400391 15.699609 10.400391 18.099609 C 10.400391 20.299609 11.900391 22.1 13.900391 22.5 C 17.000391 21.3 17.599609 16.499609 17.599609 13.599609 L 17.599609 12.5 C 16.999609 10.8 16.200781 9.1992187 15.300781 7.6992188 z M 14.701172 22.597656 C 14.666972 22.597109 14.63404 22.600987 14.599609 22.599609 L 14.699219 22.599609 C 14.700012 22.599114 14.700379 22.598152 14.701172 22.597656 z M 22.099609 8.1992188 C 23.799609 10.399219 22.900781 14.699219 20.300781 14.699219 C 19.600781 14.699219 19 14.300391 18.5 13.900391 C 19.6 13.300391 20.999219 12.299219 21.699219 11.199219 C 21.799219 10.999219 21.900391 10.799609 21.900391 10.599609 C 21.300391 11.999609 19.599609 13.1 18.099609 13.5 C 17.899609 13.1 17.699219 12.700781 17.699219 12.300781 C 17.699219 11.800781 18.000391 11.099219 18.400391 10.699219 C 19.500391 9.6992188 21.099609 10.299219 22.099609 8.1992188 z"/></svg>