<svg xmlns="http://www.w3.org/2000/svg" viewBox="0 0 32 32"><path d="M 16 3 C 12.773438 3 9.957031 5.257813 9.203125 8.34375 C 7.957031 8.828125 6.949219 9.796875 6.417969 11.015625 C 2.921875 10.757813 0 13.554688 0 17 C 0 20.308594 2.691406 23 6 23 L 6 21 C 3.792969 21 2 19.207031 2 17 C 2 14.792969 3.792969 13 6 13 C 6.277344 13 6.566406 13.035156 6.882813 13.105469 L 7.859375 13.328125 L 8.078125 12.347656 C 8.320313 11.242188 9.199219 10.355469 10.304688 10.09375 L 10.964844 9.9375 L 11.0625 9.265625 C 11.417969 6.832031 13.542969 5 16 5 C 17.894531 5 19.605469 6.054688 20.460938 7.75 L 20.855469 8.53125 L 21.683594 8.242188 C 22.152344 8.082031 22.582031 8 23 8 C 25.207031 8 27 9.792969 27 12 C 27 12.039063 26.992188 12.074219 26.984375 12.109375 C 26.976563 12.179688 26.96875 12.25 26.964844 12.316406 L 26.902344 13.035156 L 27.566406 13.320313 C 29.046875 13.949219 30 15.394531 30 17 C 30 19.207031 28.207031 21 26 21 L 23.457031 21 C 23.71875 21.289063 23.949219 21.601563 24.148438 21.9375 C 24.347656 22.273438 24.515625 22.628906 24.648438 23 L 26 23 C 29.308594 23 32 20.3125 32 17 C 32 14.835938 30.839844 12.867188 28.996094 11.800781 C 28.890625 8.585938 26.242188 6 23 6 C 22.609375 6 22.222656 6.042969 21.828125 6.125 C 20.535156 4.179688 18.371094 3 16 3 Z M 15.5 12 C 14.363281 12 13.339844 12.550781 12.703125 13.398438 L 14.300781 14.597656 C 14.574219 14.234375 15.003906 14 15.5 14 C 16.339844 14 17 14.660156 17 15.5 C 17 16.339844 16.339844 17 15.5 17 L 9 17 L 9 19 L 15.5 19 C 17.421875 19 19 17.421875 19 15.5 C 19 13.578125 17.421875 12 15.5 12 Z M 8 21 L 8 23 L 11 23 C 11.566406 23 12 23.433594 12 24 C 12 24.566406 11.566406 25 11 25 C 10.625 25 10.308594 24.800781 10.136719 24.5 L 8.40625 25.511719 C 8.929688 26.398438 9.902344 27 11 27 C 12.644531 27 14 25.644531 14 24 C 14 23.648438 13.925781 23.316406 13.8125 23 L 19 23 C 20.117188 23 21 23.882813 21 25 C 21 26.117188 20.117188 27 19 27 C 18.121094 27 17.386719 26.4375 17.113281 25.664063 L 15.226563 26.328125 C 15.777344 27.890625 17.265625 29 19 29 C 21.199219 29 23 27.199219 23 25 C 23 22.800781 21.199219 21 19 21 Z"/></svg>