<svg xmlns="http://www.w3.org/2000/svg" viewBox="0 0 32 32"><path d="M 30.628906 8.9882812 C 30.263281 9.0304687 29.699219 9.1992188 29.699219 9.1992188 C 29.699219 9.1992188 21.499609 10.099219 18.099609 10.199219 C 18.199609 10.699219 18.500391 11.099219 18.900391 11.199219 C 19.600391 11.299219 20.100391 11.199219 21.400391 11.199219 C 22.600391 11.099219 23.599219 11.099609 24.199219 11.099609 L 24.199219 16 L 18 16 C 18 16 18.099219 17.199219 19.199219 17.199219 L 24.199219 17.199219 L 24.199219 20.599609 C 24.199219 21.299609 23.7 21.699219 23 21.699219 C 22.3 21.699219 21.8 21.599609 21 21.599609 C 21.1 21.799609 21.200391 22.299219 21.900391 22.699219 C 22.400391 22.899219 22.699219 23 23.199219 23 C 24.699219 23 25.5 22.099219 25.5 20.699219 L 25.5 17.199219 L 31.599609 17.199219 C 31.999609 17.199219 32.000391 15.999609 31.900391 16.099609 L 25.400391 16.099609 L 25.400391 11.199219 C 25.600391 11.199219 26 11.099609 26.5 11.099609 C 28.6 10.999609 30.000391 10.699219 30.900391 10.699219 C 30.900391 10.699219 31.500391 9.3 30.900391 9 C 30.850391 8.975 30.750781 8.9742188 30.628906 8.9882812 z M 3.3007812 9 C 3.3007813 9 2.0992188 8.9996094 1.6992188 10.099609 C 1.5992187 10.499609 0.9 12.100391 0 13.900391 C 0.3 13.900391 1.2007812 13.800781 1.8007812 12.800781 C 1.9007813 12.500781 2.2007812 12.300391 2.3007812 11.900391 L 3.8007812 11.900391 C 3.8007813 12.400391 3.6992188 15.500781 3.6992188 15.800781 L 1.0996094 15.800781 C 0.49960937 15.800781 0.30078125 17 0.30078125 17 L 3.5 17 C 3.3 19.4 2.1 21.100781 0 22.800781 C 1 23.100781 1.9996094 22.800391 2.5996094 22.400391 C 2.5996094 22.400391 3.8003906 21.499609 4.4003906 19.099609 L 6.9003906 22 C 6.9003906 22 7.3007812 20.6 6.8007812 20 C 6.4007813 19.5 5.5996094 18.599219 5.0996094 18.199219 L 4.4003906 18.800781 C 4.6003906 18.100781 4.8007812 17.7 4.8007812 17 L 8 17 C 8 17 7.9996094 15.800781 7.5996094 15.800781 L 4.9003906 15.800781 C 5.0003906 14.500781 5 13.000391 5 11.900391 L 7.4003906 11.900391 C 7.4003906 11.900391 7.5 10.800781 7 10.800781 L 2.5996094 10.800781 C 2.7996094 10.100781 3.0007813 9.7 3.3007812 9 z M 9 11 L 9 22 L 10.199219 22 L 10.599609 23.300781 L 12.699219 22 L 15 22 L 15 11 L 9 11 z M 29.287109 12.177734 C 29.118359 12.187109 28.950781 12.250391 28.800781 12.400391 L 27 14.800781 L 28 15.5 C 29.1 14.2 30.300781 12.599609 30.300781 12.599609 C 30.300781 12.599609 29.793359 12.149609 29.287109 12.177734 z M 10.199219 12.199219 L 13.699219 12.199219 L 13.699219 20.800781 L 12.5 20.800781 L 11.099609 21.699219 L 10.800781 20.800781 L 10.199219 20.800781 L 10.199219 12.199219 z M 20.128906 12.347656 C 19.707031 12.319531 19.199219 12.599609 19.199219 12.599609 C 19.199219 12.599609 21.200781 15.4 21.300781 15.5 L 22.300781 14.800781 C 22.300781 14.800781 21 13 20.5 12.5 C 20.4 12.4 20.269531 12.357031 20.128906 12.347656 z"/></svg>