<svg xmlns="http://www.w3.org/2000/svg" width="120" height="60" preserveAspectRatio="xMidYMid"><path d="M20.586 47c-1.78-1.4-3.677-2.74-4.974-4.63-2.73-3.332-4.83-7.2-6.268-11.245-.87-2.637-1.166-5.463-2.286-7.998-1.17-1.84.202-3.853 2.218-4.438.897-.173 2.476-1.02.57-.414-1.7 1.253-1.873-1.138-.122-1.3 1.196-.16 1.636-1.137 1.226-2.017-1.284-.838 3.112-1.756.9-3.006-2.303-2.485 3.222-2.964 1.86-.14-.326 2.17 3.862-.4 2.9 2.108.988 1.204 3.7.275 3.63 1.963 1.44.1 1.933 1.3 3.282 1.402 1.4.632 3.938 1.13 4.413 2.707-1.4 1.1-4.603-2.27-4.758.772.42 4.496.313 9.127 1.957 13.407.778 2.592 2.664 4.632 4.367 6.65 1.63 1.977 3.837 3.37 6.088 4.54 1.974.93 4.1 1.547 6.252 1.935.872-.667 2.412-3.148 3.773-2.102.066 1.177-2.7 2.458-.13 2.328 1.5-.456 2.557 1.167 3.8-.297 1.145 1.357 4.76-.866 3.946 1.907-1.102.7-2.7.28-3.813 1.26-1.82-.9-3.268.812-5.283.595-2.237.4-4.514.562-6.782.565-3.722-.294-7.522-.418-11.062-1.713-1.995-.58-3.94-1.716-5.694-2.852zm3.143 1.363c1.947.84 3.852 1.73 5.986 1.997 3.386.47 6.883 1.196 10.28.535-1.538-.694-3.128.27-4.66-.496-1.837.395-3.8-.1-5.678-.346-2.124-.946-4.417-1.596-6.406-2.825-2.487-.908 1.285 1.165 1.957 1.333 1.554.882-1.7-.452-2.17-.82-1.302-.73-1.467-.578-.13.163.27.158.536.323.818.458zm-3.706-2.62c1.888.7-.008-1.327-.872-1.2-.383-.665-1.464-1.085-.702-1.44-1.37.476-1.437-1.8-2.08-1.483-1.45-.458-.564-2.08-2.293-3.078-.158-1.05-1.717-1.96-2.213-3.544-.22-.8-1.762-3.14-.815-.973.806 2.086 2.225 3.873 3.406 5.657.916 1.7 2 3.476 3.67 4.535.563.54 1.106 1.367 1.9 1.537zm-5.436-5.97c.065-.285.345.617 0 0zm7.697 6.807c.418-.187-.6-.236 0 0zm1.024.374c-.106-.516-.468.3 0 0zm1.283.535c.6-.58-.94-.367 0 0zm2.198 1.225c.37-.548-1.187-.206 0 0zm-4.22-2.942c.947-.613-1.225-.01 0 0zm.962.48c-.027-.323-.342.145 0 0zm4.807 3c.773.488 4.514 1.07 2.172.2-.393.082-4.343-1.118-2.172-.2zm-7.63-5.944c-.075-.324-1.2-.36 0 0zm2.237 1.305c.583-.407-1.2-.314 0 0zm1.883 1.154c.836-.315-1.355-.316 0 0zm-5.032-3.45c.907.696 3.658.1 1.4-.415-1.032-.55-3.36-.927-1.773.332l.384.083zm6.307 3.85c.378-.643-1.585-.368 0 0zm-1.916-1.523c2.217.626-1.865-1.403-.547-.232l.292.133.255.1zm3.842 2.22c2.1.02-1.897-.3 0 0zm-9.04-5.762c-.082-.4-.518.032 0 0zm12.593 7.754c.056-.706-.685.526 0 0zm-9-5.56c-.128-.372-.656-.016 0 0zm-3.385-2.44c1.205-.073-1.65-.53 0 0zm-4-2.592c-.15-.58-1.3-1.04 0 0zm10.527 6.68c-.22-.252-.104.055 0 0zm6.552 4.02c-.02-.385-.357.145 0 0zm-7.13-4.62c.118-.496-1.028-.15 0 0zm-4.88-3.094c.897-.096-1.438-.606 0 0zm8.257 5.13c1.398-.554-1.363-.27 0 0zm-4.294-2.915c1.6.207-1.917-1.097-.354-.117l.354.117zm5.598 3.442c1.505-.898 1.008 2.106 2.552.254 1.522-1.112-1.315 1.375.56.198 1.358-.908 3.362.43 4.628.866.9-.044 1.796.787 2.73.28 1.797-.484-3.515-.718-2.123-1.576-1.644.48-2.86-.57-3.668-1.624-1.845-.426-3.977-1.37-4.898-3.002-.376-.612.542.087-.324-.915-1.1-.988-1.666-2.1-2.412-3.312-.9-.475-.996-1.875-1.086-.046.007-1.154-1.076-1.93-1.34-1.608-.005-1.1 1.16-.554.345-1.376-.175-1.152-.753-2.352-.926-3.652-.27-.626-.038-1.97-.92-.55-.32 1.5-.106-1.842.394-.74.656-1.124-.236-1-.272-.836.427-.948.27-2.295-.112-1.78.228-1.006.36-3.7-.34-3.223.425-1.052.805-4.813-1.04-3.38-.747.01-2.04.27-2.652.575 1.917 1.057-.193.382-.975.214-.1.978-.875.556-1.84.565 1.544.2-.752 1.58-1.636 1.04-1.15.55 1 1.92.023 2.346.12.638-1.76-.23-1.614 1.246-1.116-.47-.153 1.75.406 1 1.898.514 1.336 1.685 1.384 2.798-.3.648-1.527-1.524-.27-1.423-1-1.6-1.096-.582-1.92.166-.2.054 2.1 1.064.662 1.563 1.265.196 1.302 1.303 1.56 2.003.76.792.604-.875 1.514.078-.576-.85-3.05-2.4-1.058-1.896-.01-.853-.36-1.542.25-1.525.605-1.094-.634 2.7.73 1.308.377-.165.47-1.095 1.15.088.984.97.356 1.67-1.033.783.248.844 1.858 1.144 1.555 2.463.32 1.16.77.732 1.16.666.307 1.126.48.298.495-.24 1.404.3 1.075 1.13 1.515 1.7.968.436-1.385-2.96.276-1.02 1.748 1.58.656 2.237-.913 1.984.993-.08 1.312 1.342 2.554 1.292 1.132.54 1.9 2.608-.053 1.747-.677-.6-3.074-1.364-1.116-.203 1.806.838 3.243 1.338 4.986 2.4 1.247.9 1.786 1.9 2.258 2.112-1.05.5-3.16-.4-1.592-.675-.978-.178-2.078-.673-1.142.545.797.666 2.822.595 3.186.67-.308.678-.836.732.012.784-.946.505.304.583.4.87zm-1.935-5.466c-.576-.603-.725-1.73-.103-.75.32.13 1.023 1.844.103.75zm6.304 4.004c.36-.024.01.273 0 0zm-7.213-5.48c-.023-.9.207.703 0 0zm-.626-.842c-.725-1.4.913.396 0 0zm-7.593-5.24c.426-.114.2.728 0 0zm6.044 3.275c.26-.982.307.823 0 0zm-4.27-2.97c-.3-.542.63.5 0 0zm3.663 1.174c-.686-1.537.487-.84.153.252l-.153-.252zm-6.318-4.213c-.307-.505-.814-1.984-.65-2.436.147.736 1.564 3.167.694 1.007-.96-1.8 1.15.587 1.366 1.04.1.45-.593-.123-.123.93-.858-1.2-.506.662-1.287-.54zm-1.952-1.346c.08-1.173.446.804 0 0zm.878.303c.42-.885.7 1.234 0 0zm-2.113-1.634c-.727-.723-1.253-1.4.035-.45.495.02-1.102-1.514.12-.487 1.284.234.634 2.106-.154.936zm1.1-.03c.422-.42.224.412 0 0zm.684.218c-.64-1.2.777.503 0 0zm-1.358-1.297c-2.113-1.882 2.655.983.345.348l-.345-.348zm6.055 3.517c-.915-.548-.243-3.86.07-1.595.9-.288-.05 1.17.613 1.156-.104.92-.4 1.25-.682.44zM23.4 32.2c.1-1 .188.683 0 0zm-.4-.385c.1-.426.01.502 0 0zm-7.5-5.075c-1.358-1.873 3.946 1.895.87.475-.32-.085-.7-.115-.87-.475zm4.313 2.286c-.13-1.577.287.26 0 0zm3.274 2.1c.253-.898.02.594 0 0zm-7.378-5.102c.807-.173 3.343 1.416 1.014.454-.26-.287-.8-.156-1.014-.454zm6.93 3.453c.086-1.613.482-.963.004.232l-.004-.232zm-6.328-4.015c.33-.482-.874-2.18.173-.6.452.36 1.3.6.553.753 1.2 1.05-.3.284-.725-.144zm5.986 3.5c.227-1.838.2 1.076 0 0zm-6.673-5.208c.252-.108.133.335 0 0zm1.562.93c.402-.844.74.94 0 0zm4.404 2.45c-.004-.323.083.47 0 0zm-.255-.564c-.6-1.508.57.798 0 0zm-.375-1c-.102-.623.35.783 0 0zm.6-.993c-.42-.74.53-3.257.636-1.695-.443 1.217-.128 1.897.18.265.57-1.284-.123 2.536-.816 1.43zm.628-3.745c.183-.225.04.27 0 0zm-1.05 20.657c-.248-.217.032.137 0 0zm2.16 1.092c1.2.3 1.196-.186.1-.334-.583-.543-2.427-1.12-.777-.067.1.277.454.27.667.4zm-4.264-2.833c.66.494 2.492 1.398.943.2.523-.608-1-.93-.495-1.338-1.285-.787-1.014-.716-.113-.7-1.544-.7.223-.638.14-.993-.595-.117-2.958-1.05-1.568.076-1.413-.72-.337.268-.764.165-1.445-.394 1.286 1.1-.23.73.828.656 2.23 1.682.35.694-.247.357 1.346.897 1.737 1.168zm2.258 1.298c2.746.884-1.347-1.082 0 0zm11.562 7.004c.036-.545-.375.465 0 0zm1.2.5c.634-.613.026.978 1.05-.15.01-.808-.03-1.285-1.176-.303-.316.176-.457.92.126.454zM15.208 36.726c-.195-.765-1.364-.76 0 0zm1.268.83c-.47-.78-1.68-.707 0 0zm7.22 4.354c.705.626 3.237.46.856.078-.352-.52-2.238-.396-.856-.078zm9.923 6.13c1.085-.9-1.05.406 0 0zm2.256 1.55c.007-.292-.468.128 0 0zm.004-.4c1.2-1.272-1.163.075 0 0zM12.086 34.113c-1.024-1.46-.636-2.117-1.624-3.3-.188-.913-1.694-2.982-.78-.8.838 1.283 1.086 3.268 2.403 4.1zm23.416 14.664c2.2-1.428-.907-.622 0 0zm1.687.66c1.107-.95-.7-.198 0 0zM14.832 35.1c.316-.47-.818-.06 0 0zm22.005 13.875c1.072-.7-.247-.585-.194.063l.194-.063zM22.295 39.82c-.037-.468-.567.04 0 0zm.898.517c-.286-.578-.44.1 0 0zm15.363 9.116c1.373-1-.83-.2-.287.188l.287-.188zm-.526-.254c1.12-.937-1.18.415 0 0zm2.687 1.788c.75-.502-.913-.162 0 0zM15.52 34.77c1.006.225 4.022 2.478 2.243.156-.9-.27-.365-2.497-1.294-2.104.624 1.043.513 1.485-.797.83-1.645-.804-.925.397-.602.73-.44.1.58.38.45.4zm-4.585-3.62c.18-.746-1.66-4.1-.87-1.68.285.507.255 1.467.87 1.68zm8.416 5.2c-.52-.433-.025-.062 0 0zm1.276.297c0-.8-1.4-.32 0 0zm11.06 6.972c-.2-.54-.834-.012 0 0zm.53.388c-.08-.302-.307.06 0 0zM36.6 46.76c.42-.3-.526-.04 0 0zM13.225 31.735c1.206-.467-1.292-.333 0 0zm17.5 11.018c-.014-.78-.77.195 0 0zm-17.967-12.13c.774-.26-.717-.172 0 0zm2.248 1.1c-.013-.256-.237.098 0 0zM42.42 48.53c.996-.202 3.267.507 3.633-.264-1.2-.03-4.184-.854-4.325.195l.265.042.427.026zm-26.7-16.638c.018-.8-.617-.03 0 0zm-5.9-4.1c-.268-1.507-1.02-.228 0 0zm1.4.354c.018-.484-1.3-.436 0 0zm.805.396c-.233-.2-.18.237 0 0zm5.07 3.25c.24-.22-.565-.162 0 0zM11.48 27.65c-.137-1.138-1.634-.17 0 0zm-2.9-1.876c-.04-.525-.282.198 0 0zM9 25.45c-.07-.623-.37.078 0 0zm2.375 1.417c1.005-.394-1.83-.816-.205-.074l.205.074zm31.8 19.637c.643-.6-.816-.182 0 0zm3.84 2c.258-.76-.65.1 0 0zm-35.4-22.88c.106-.737-.797.147 0 0zm-3.38-2.265c-.18-1.04-.156-2.867 1.58-2.25-2.317.46 1.605 2.88 1.1.97.975.048 1.907-.576 1.395.37 1.92-.2 3.252-1.877 5.107-1.643 1.445-.192 3.025-.337 4.582-.92 1.28-.092 2.513-1.47 1.8-2.288-1.746-.148-3.574.07-5.503.455-2.138.444-4.08 1.288-6.238 1.65-2.104.283.422.778-.18.9-1.097.38 1.3.637-.142 1.04-.896-.17-1.83-.478-1.446-1.423-2.014.263-3.785 1.098-2.193 3.148l.118.001zm4.855-2.472c.47-1.74 2.53 1.432.773.232-.2-.158-.555-.285-.773-.232zm.092-.844c.68-.507.362.285 0 0zm.865.014c.062-.8 1.982.424.316.288l-.316-.288zm1.184-.476c.433-.506.126.448 0 0zm.303-.203c.72-.865 4.077-.553 1.62-.085-.66-.496-1.163.292-1.62.085zm4.38-.675c-.108-2.364 2.178.84 0 0zm1.243-.007c.455-1.2 1.765-.478.2-.24.033.128-.046.616-.2.24zm-10.033 6.317c1.358-.832-1.44-.722 0 0zm1.005.278c.476-.506-1.036-.205 0 0zM9.2 23.2c.776-.597-.92-.227 0 0zm40.1 25.086c.023-.692-.593.3 0 0zm-4.075-2.78c.116-.796-.524.07 0 0zm5.195 3.05c1.085.004 3.287-.338.927-.337-.37.057-2.158.046-.927.337zM13.034 24.802c.878-.06 1.373-.968-.17-.916-2.392-.247 2.1.82-.307.514-.324.215.458.462.477.402zm.773.392c-.092-.563-.272.3 0 0zm.918-2.446c.38-.473-.528-.126 0 0zm-2.92-4.88c1.568-.532 3.7-1.13 4.45.263-.753-.906-.304-1.798.407-.473 1.006 1.34 1.5-.6.855-1.06.746.926 1.593 1.364.5.06 1.2-1.43-2.38.187-3.192.17-.4.175-4.03.928-3.02 1.04zm.92-1.758c.894-.674 3.1.402 1.68-.67-.138-.122-3.088.814-1.68.67zm3.26.135c1.045.026-.45-1.406.795-.757-.204-.668-1.45-.793-2.06-1.06-.345.6.7 1.825 1.266 1.817zm-2.687-2.958c.362-.5-.635.25 0 0zm1.332.32c1.686-.223-.43-.725-.34-.018l.34.018zm-2.487-1.945c-1.187-1.55 2.233.26 1.026-1.363-1.015-.808-2 .9-1.026 1.363zm15.23 8.203c.544-.964-2.247-1.3-.366-.34.173.057.134.408.366.34zm28.007.255c-.187.738-.302 1.975-.346 3.7 0 .34-.154.512-.462.512s-.523-.15-.644-.446c-.33-.803-.642-1.363-.94-1.683-.352-.373-.82-.6-1.402-.676-.627-.1-2.188-.15-4.684-.15-.572 0-.946.06-1.12.182-.1.077-.165.242-.165.495v7.472c0 .253.16.373.477.363l4.256-.198c.363-.045.608-.162.734-.355s.25-.7.37-1.493c.077-.44.335-.6.775-.5.374.077.534.247.48.5-.308 1.496-.408 3.442-.298 5.84.012.285-.17.44-.544.462-.308.033-.5-.132-.577-.495-.285-1.374-.817-2.1-1.6-2.203s-2.038-.14-3.786-.14c-.198 0-.296.07-.296.214v7.423c0 .55.203.924.6 1.12.32.165 1.007.314 2.062.446.54.055.775.292.7.7-.067.363-.55.506-1.452.43-2.606-.2-4.756-.198-6.45.033-.473.065-.7-.127-.7-.577 0-.286.236-.45.7-.495 1.078-.12 1.616-1.067 1.616-2.837v-14.12c0-.725-.13-1.283-.387-1.674s-.74-.746-1.443-1.064c-.44-.198-.605-.467-.495-.808.055-.208.143-.324.263-.346.1-.033.402-.01.874.066.693.1 2.327.165 4.9.165l7.87-.198c.736-.045 1.105.016 1.105.18 0 .045-.006.088-.017.132zm10.698 20.94c0 .44-.247.632-.742.577-1.517-.143-3.397-.12-5.64.065-.45.045-.728.033-.834-.032s-.156-.247-.156-.545c0-.263.3-.486.898-.668s.9-.723.9-1.624V23.905c0-.9-.13-1.545-.387-1.964s-.713-.742-1.36-.972c-.34-.12-.512-.292-.512-.512 0-.33.247-.577.742-.742.748-.242 1.524-.615 2.327-1.122.66-.396 1.078-.593 1.253-.593.407 0 .6.28.6.84a201.59 201.59 0 0 0-.067 1.65l-.032 3.217.065 14.73c0 .67.165 1.158.495 1.46s.897.503 1.7.6c.495.055.742.242.742.56zm14.92-.973c0 .23-.42.58-1.26 1.047s-1.515.7-2.02.7c-.43 0-.808-.208-1.138-.627s-.562-.626-.693-.626c-.1 0-.62.226-1.567.676s-1.897.677-2.853.677c-.9 0-1.655-.265-2.26-.8-.66-.583-1-1.375-1-2.376 0-1.903 2.178-3.266 6.533-4.1.747-.143 1.127-.446 1.137-.907l.033-1.056c.066-1.803-.73-2.705-2.392-2.705-.473 0-.92.423-1.345 1.27s-1.03 1.303-1.822 1.37c-.9.087-1.353-.292-1.353-1.14 0-.528.67-1.143 2.013-1.848 1.408-.736 2.76-1.105 4.058-1.105 2.232 0 3.337 1.062 3.315 3.184l-.067 6.795c-.01.715.292 1.072.907 1.072.12 0 .353-.027.693-.082l.595-.082c.318 0 .478.215.478.644zm-5.08-3.76c.01-.275-.053-.457-.2-.544s-.354-.105-.65-.05c-2.65.473-3.976 1.337-3.976 2.6s.687 1.897 2.062 1.897c.55 0 1.117-.104 1.7-.313.683-.243 1.023-.534 1.023-.875l.033-2.705zM93.26 38.2c0 1.166-.45 2.093-1.345 2.78S89.796 42 88.245 42a14.86 14.86 0 0 1-3.101-.33c-.9-.198-1.408-.38-1.55-.544-.088-.155-.132-.907-.132-2.26 0-.583.132-.885.396-.907.264-.033.5.1.676.428.825 1.44 2.156 2.16 3.992 2.16 1.55 0 2.325-.54 2.325-1.618 0-.472-.175-.868-.528-1.187-.385-.363-1.132-.787-2.243-1.27-1.606-.715-2.678-1.34-3.217-1.88-.583-.572-.874-1.34-.874-2.3 0-1.188.456-2.1 1.37-2.77.847-.638 1.98-.957 3.397-.957a12.78 12.78 0 0 1 2.442.214c.792.143 1.204.318 1.237.528.087.615.27 1.506.544 2.673.033.142-.122.258-.462.346-.363.077-.605.016-.726-.18-.868-1.42-1.968-2.128-3.3-2.128-1.506 0-2.26.484-2.26 1.452 0 .54.204.968.6 1.286.363.275 1.215.705 2.557 1.288 1.408.605 2.364 1.15 2.87 1.632.66.627 1 1.47 1 2.524zm19.405 2.886c0 .385-.26.6-.776.6l-3.018.165c-.616.12-1.056.045-1.32-.23-1.738-1.87-3.212-3.827-4.42-5.873-.1-.175-.225-.264-.38-.264-.187 0-.5.165-.972.495-.518.285-.776.693-.776 1.22l.033 1.618c.022.703.197 1.165.527 1.385.23.155.765.275 1.6.363.517.066.776.26.776.577 0 .253-.04.4-.124.47s-.3.074-.652.04c-1.1-.1-2.958-.044-5.575.165-.66.055-1.017-.028-1.072-.247-.022-.077-.033-.187-.033-.33 0-.34.336-.6 1.007-.774.605-.155.907-.864.907-2.128V23.92c0-.9-.088-1.528-.265-1.88-.242-.45-.748-.803-1.518-1.056-.362-.12-.544-.3-.544-.5 0-.32.26-.567.775-.742a10.53 10.53 0 0 0 2.36-1.14c.605-.395.98-.594 1.12-.594.452 0 .677.285.677.858 0-.078-.006.467-.017 1.632l-.016 3.234.033 10.325c0 .286.077.428.23.428.165 0 .418-.142.76-.428l3.364-2.804c.265-.275.396-.495.396-.66 0-.296-.445-.506-1.335-.626-.385-.045-.567-.26-.545-.644.033-.385.226-.55.577-.495.793.1 1.947.17 3.464.182l3.15.016c.34.01.5.214.5.6 0 .373-.27.577-.808.6-.848.032-1.645.224-2.392.577-1.045.472-2.162 1.303-3.35 2.5-.087.066-.132.15-.132.247 0 .154.187.523.562 1.106 1.374 2.1 2.672 3.667 3.892 4.734.78.67 1.512 1.006 2.193 1.006.506 0 .82.035.94.108s.182.26.182.568z"/></svg>