<?xml version="1.0" encoding="UTF-8" standalone="no"?>
<!DOCTYPE svg PUBLIC "-//W3C//DTD SVG 1.1//EN" "http://www.w3.org/Graphics/SVG/1.1/DTD/svg11.dtd">
<svg width="100%" height="100%" viewBox="0 0 541 577" version="1.1" xmlns="http://www.w3.org/2000/svg" xmlns:xlink="http://www.w3.org/1999/xlink" xml:space="preserve" xmlns:serif="http://www.serif.com/" style="fill-rule:evenodd;clip-rule:evenodd;stroke-linecap:square;stroke-miterlimit:1.5;">
    <g transform="matrix(1.64091,0,0,1.74626,-3017.08,-1145.8)">
        <path d="M2074.57,667.68C2074.74,667.539 2074.92,667.401 2075.1,667.268C2077.41,665.547 2080.16,664.826 2082.82,665.028C2087.95,665.382 2092.16,669.106 2093.25,674L2095.08,679.168C2097.05,684.728 2100.07,689.838 2103.97,694.224L2122.92,711.521C2129.64,717.653 2137.77,722.03 2146.59,724.261L2150.14,725.161C2152.18,725.54 2154.14,726.473 2155.78,727.97C2158.27,730.243 2159.53,733.363 2159.52,736.492L2159.52,736.5C2159.52,742.847 2154.37,748 2148.02,748L2148,748C2144.61,748 2141.55,746.526 2139.45,744.183L2135.3,740.543C2129.67,735.6 2122.91,732.12 2115.62,730.412L2073.73,720.6L2073.71,720.669L2060.02,717.389L2059.29,717.219L2059.29,717.216L2036.49,711.755L1936.81,784.592L2008.79,889.732L2008.92,889.642L2015.99,900.249L2038.34,932.9L2118.25,910.421C2124.49,908.444 2130.2,905.076 2134.96,900.56L2139.59,896.163C2141.69,893.91 2144.68,892.5 2148,892.5C2154.35,892.5 2159.5,897.653 2159.5,904C2159.5,910.119 2154.71,915.128 2148.68,915.48L2142.49,916.194C2135.64,916.983 2129.07,919.316 2123.27,923.006L2115.81,928.124L2084.76,949.614C2078.73,954.436 2073.76,960.481 2070.2,967.368L2068.61,970.441C2066.87,974.586 2062.77,977.5 2058,977.5C2055.21,977.5 2052.64,976.501 2050.65,974.842L2045.8,971.41C2039.68,967.085 2032.59,964.334 2025.16,963.401L1999.3,960.153C1991.11,959.511 1982.87,960.704 1975.18,963.659L1971.71,964.995C1971.32,965.167 1970.93,965.319 1970.52,965.449L1970.41,965.492L1970.41,965.484C1969.33,965.819 1968.19,966 1967,966C1961.2,966 1956.4,961.702 1955.61,956.121L1954.2,950.861C1952.26,943.626 1948.56,936.982 1943.44,931.516C1930,917.166 1903.89,889.299 1903.89,889.299L1903.95,889.244L1881.92,865.988C1875.67,859.384 1867.88,854.428 1859.25,851.561L1857.08,850.839C1851.64,849.922 1847.5,845.191 1847.5,839.5C1847.5,835.228 1849.83,831.497 1853.3,829.514L1859.98,823.411C1862.26,821.331 1864.14,818.862 1865.53,816.128L1866.75,813.35C1866.78,813.255 1866.82,813.16 1866.85,813.065C1866.85,813.065 1866.85,813.065 1866.85,813.065L1866.87,813.071L1886.43,768.269C1890.07,759.933 1891.59,750.826 1890.86,741.759C1890.63,738.864 1890.45,736.667 1890.45,736.667L1890.5,736.689C1890.5,736.626 1890.5,736.563 1890.5,736.5C1890.5,731.072 1894.27,726.517 1899.33,725.312L1904.28,723.392C1911.27,720.684 1917.47,716.295 1922.36,710.616L1923.69,709.068C1927.63,703.223 1930.44,696.659 1931.92,689.726L1932.58,686.625C1933.26,680.925 1938.12,676.5 1944,676.5C1946.33,676.5 1948.5,677.195 1950.31,678.388L1954.66,680.254C1960.95,682.957 1967.76,684.205 1974.58,683.915L2047.09,677.752C2056.15,676.982 2064.88,673.983 2072.51,669.023L2074.57,667.68ZM2017.45,941.892L2001.42,946.402C1996.04,947.914 1990.94,950.229 1986.3,953.25C1990.56,955.229 1995.11,956.543 1999.81,957.133L2025.67,960.381C2030.65,960.771 2035.65,960.483 2040.54,959.532C2037.42,955.635 2033.68,952.262 2029.46,949.56L2017.45,941.892ZM2129.37,912.485C2125.19,912.392 2121,912.874 2116.92,913.929C2116.85,913.949 2116.81,913.959 2116.81,913.959L2116.8,913.945L2040.13,935.513L2044.85,942.41C2049.05,947.002 2054.01,950.866 2059.54,953.821L2060.27,954.213L2063.53,953.85C2070.97,953.021 2078.1,950.37 2084.27,946.131L2114.11,925.653L2118.06,922.919C2122.31,919.975 2126.12,916.459 2129.37,912.485ZM2036.55,936.521L2021.52,940.749L2033.11,948.093C2036.73,949.99 2040.54,951.475 2044.48,952.527C2043.2,947.896 2041.18,943.481 2038.5,939.453L2036.55,936.521ZM1876.3,854.042C1878.03,856.953 1880.08,859.674 1882.42,862.15L1948.86,932.311C1954.08,936.669 1960.08,940.038 1966.56,942.228L1970.07,943.416C1970.32,943.485 1970.57,943.563 1970.81,943.648L1976.13,944.816C1983.44,946.424 1991.04,946.205 1998.25,944.176L2014.06,939.728L1986.65,922.219L1887.72,859.552C1884.13,857.274 1880.29,855.428 1876.3,854.042ZM1934.38,786.363L1888.18,820.123C1881.3,825.152 1875.68,831.703 1871.76,839.255L1872,839.677C1875.69,846.194 1880.93,851.701 1887.26,855.71L1982.3,915.911L1982.32,915.888L1988.27,919.688L2018.11,938.591L2034.8,933.897L2013.5,901.926L1934.38,786.363ZM1903.14,750.126C1897.52,754.708 1893.06,760.571 1890.16,767.227L1869.56,814.398C1868.25,818.263 1867.89,822.388 1868.51,826.426L1868.53,826.577C1872.94,825.481 1877.17,823.73 1881.07,821.381L1932.59,783.745L1920.87,766.616C1916.25,759.865 1910.19,754.237 1903.14,750.126ZM2032.47,710.791L1977.86,697.714C1969.02,695.595 1959.78,695.696 1950.99,698.007L1947.93,698.809C1947.4,699.002 1946.86,699.156 1946.3,699.27L1941.92,701.008C1934.95,703.769 1928.78,708.205 1923.94,713.921L1922.34,715.807C1918.47,721.537 1915.7,727.961 1914.19,734.75L1913.59,737.483L1914.12,742.14C1914.97,749.501 1917.61,756.543 1921.79,762.656L1935.02,781.975L2032.47,710.791ZM2081.18,688.169L2076.78,688.79C2070.59,689.665 2064.65,691.804 2059.34,695.061L2039.67,709.432L2060.71,714.47L2113.92,726.933C2120.01,728.358 2126.27,728.735 2132.44,728.068C2130.7,724.719 2128.56,721.598 2126.05,718.776L2107.1,701.479C2100.38,695.347 2092.25,690.97 2083.43,688.739L2081.18,688.169ZM2065.97,682.07C2061.34,680.769 2056.53,680.207 2051.71,680.412L1979.2,686.574C1974.24,686.995 1969.38,688.083 1964.75,689.794C1968.33,691.772 1972.17,693.267 1976.18,694.227L2035.65,708.467L2052.53,696.135C2057.82,692.268 2062.37,687.501 2065.97,682.07Z" style="fill:none;stroke:rgb(48,48,48);stroke-width:0.59px;"/>
    </g>
</svg>
