<?xml version="1.0" encoding="UTF-8" standalone="no"?>
<!DOCTYPE svg PUBLIC "-//W3C//DTD SVG 1.1//EN" "http://www.w3.org/Graphics/SVG/1.1/DTD/svg11.dtd">
<svg width="100%" height="100%" viewBox="0 0 118 118" version="1.1" xmlns="http://www.w3.org/2000/svg" xmlns:xlink="http://www.w3.org/1999/xlink" xml:space="preserve" xmlns:serif="http://www.serif.com/" style="fill-rule:evenodd;clip-rule:evenodd;stroke-linejoin:round;stroke-miterlimit:2;">
    <g transform="matrix(1,0,0,1,-125,0)">
        <g id="mfa02" transform="matrix(1,0,0,1,-58.8999,0)">
            <rect x="184.243" y="0" width="117.576" height="117.576" style="fill:none;"/>
            <g id="ic_fingerprint_24px" transform="matrix(2.30074,0,0,2.30074,214.226,0.504338)">
                <path d="M17.81,4.47C17.73,4.47 17.65,4.45 17.58,4.41C15.66,3.42 14,3 12.01,3C10.03,3 8.15,3.47 6.44,4.41C6.198,4.537 5.895,4.448 5.76,4.21C5.631,3.968 5.721,3.663 5.96,3.53C7.82,2.52 9.86,2 12.01,2C14.14,2 16,2.47 18.04,3.52C18.29,3.65 18.38,3.95 18.25,4.19C18.169,4.36 17.998,4.469 17.81,4.47ZM3.5,9.72C3.499,9.72 3.498,9.72 3.497,9.72C3.223,9.72 2.997,9.494 2.997,9.22C2.997,9.116 3.03,9.015 3.09,8.93C4.08,7.53 5.34,6.43 6.84,5.66C9.98,4.04 14,4.03 17.15,5.65C18.65,6.42 19.91,7.51 20.9,8.9C20.961,8.985 20.993,9.086 20.993,9.191C20.993,9.353 20.913,9.507 20.78,9.6C20.695,9.661 20.594,9.693 20.489,9.693C20.327,9.693 20.173,9.613 20.08,9.48C19.204,8.24 18.041,7.232 16.69,6.54C13.82,5.07 10.15,5.07 7.29,6.55C5.93,7.25 4.79,8.25 3.89,9.51C3.81,9.65 3.66,9.72 3.5,9.72ZM9.75,21.79C9.617,21.792 9.49,21.737 9.4,21.64C8.53,20.77 8.06,20.21 7.39,19C6.7,17.77 6.34,16.27 6.34,14.66C6.34,11.69 8.88,9.27 12,9.27C15.12,9.27 17.66,11.69 17.66,14.66C17.66,14.94 17.44,15.16 17.16,15.16C16.88,15.16 16.66,14.94 16.66,14.66C16.66,12.24 14.57,10.27 12,10.27C9.43,10.27 7.34,12.24 7.34,14.66C7.34,16.1 7.66,17.43 8.27,18.51C8.91,19.66 9.35,20.15 10.12,20.93C10.31,21.13 10.31,21.44 10.12,21.64C10.01,21.74 9.88,21.79 9.75,21.79ZM16.92,19.94C15.73,19.94 14.68,19.64 13.82,19.05C12.33,18.04 11.44,16.4 11.44,14.66C11.44,14.38 11.66,14.16 11.94,14.16C12.22,14.16 12.44,14.38 12.44,14.66C12.44,16.07 13.16,17.4 14.38,18.22C15.09,18.7 15.92,18.93 16.92,18.93C17.16,18.93 17.56,18.9 17.96,18.83C18.23,18.78 18.49,18.96 18.54,19.24C18.59,19.51 18.41,19.77 18.13,19.82C17.56,19.93 17.06,19.94 16.92,19.94ZM14.91,22C14.87,22 14.82,21.99 14.78,21.98C13.19,21.54 12.15,20.95 11.06,19.88C9.665,18.503 8.883,16.62 8.89,14.66C8.89,13.04 10.27,11.72 11.97,11.72C13.67,11.72 15.05,13.04 15.05,14.66C15.05,15.73 15.98,16.6 17.13,16.6C18.28,16.6 19.21,15.73 19.21,14.66C19.21,10.89 15.96,7.83 11.96,7.83C9.12,7.83 6.52,9.41 5.35,11.86C4.96,12.67 4.76,13.62 4.76,14.66C4.76,15.44 4.83,16.67 5.43,18.27C5.53,18.53 5.4,18.82 5.14,18.91C4.88,19.01 4.59,18.87 4.5,18.62C4.018,17.355 3.771,16.013 3.77,14.66C3.77,13.46 4,12.37 4.45,11.42C5.78,8.63 8.73,6.82 11.96,6.82C16.51,6.82 20.21,10.33 20.21,14.65C20.21,16.27 18.83,17.59 17.13,17.59C15.43,17.59 14.05,16.27 14.05,14.65C14.05,13.58 13.12,12.71 11.97,12.71C10.82,12.71 9.89,13.58 9.89,14.65C9.89,16.36 10.55,17.96 11.76,19.16C12.71,20.1 13.62,20.62 15.03,21.01C15.3,21.08 15.45,21.36 15.38,21.62C15.33,21.85 15.12,22 14.91,22Z" style="fill:rgb(175,175,175);fill-rule:nonzero;"/>
            </g>
            <g transform="matrix(0.145369,0.145369,-0.145369,0.145369,124.248,-755.444)">
                <g transform="matrix(0.455964,0,0,0.542435,3234,1523.19)">
                    <path d="M408.347,1287.73L297.347,1287.73L297.347,1370.87L408.347,1370.87L408.347,1287.73ZM388.248,1304.63L388.248,1353.97C388.248,1353.97 317.446,1353.97 317.446,1353.97C317.446,1353.97 317.446,1304.63 317.446,1304.63L388.248,1304.63Z" style="fill:rgb(175,175,175);"/>
                </g>
                <g transform="matrix(1,0,0,1,0.742563,-124.975)">
                    <path d="M3469.55,2402.21C3469.55,2393.88 3462.79,2387.13 3454.47,2387.13L3333.82,2387.13C3325.5,2387.13 3318.74,2393.88 3318.74,2402.21L3318.74,2602.61C3318.74,2623.42 3335.64,2640.31 3356.44,2640.31L3431.85,2640.31C3452.65,2640.31 3469.55,2623.42 3469.55,2602.61L3469.55,2402.21ZM3460.38,2402.21L3460.38,2602.61C3460.38,2618.36 3447.59,2631.14 3431.85,2631.14L3356.44,2631.14C3340.69,2631.14 3327.91,2618.36 3327.91,2602.61L3327.91,2402.21C3327.91,2398.94 3330.56,2396.29 3333.82,2396.29C3333.82,2396.29 3454.47,2396.29 3454.47,2396.29C3457.73,2396.29 3460.38,2398.94 3460.38,2402.21ZM3394.14,2578.68C3380.41,2578.68 3369.26,2589.83 3369.26,2603.56C3369.26,2617.3 3380.41,2628.45 3394.14,2628.45C3407.88,2628.45 3419.03,2617.3 3419.03,2603.56C3419.03,2589.83 3407.88,2578.68 3394.14,2578.68ZM3394.14,2587.84C3402.82,2587.84 3409.86,2594.89 3409.86,2603.56C3409.86,2612.24 3402.82,2619.28 3394.14,2619.28C3385.47,2619.28 3378.43,2612.24 3378.43,2603.56C3378.43,2594.89 3385.47,2587.84 3394.14,2587.84Z" style="fill:rgb(175,175,175);"/>
                </g>
                <g transform="matrix(1.18897,0,0,1.18897,2954.16,178.595)">
                    <path d="M370.675,1826.57C388.504,1826.57 402.979,1841.05 402.979,1858.88C402.979,1876.71 388.504,1891.18 370.675,1891.18C352.846,1891.18 338.371,1876.71 338.371,1858.88C338.371,1841.05 352.846,1826.57 370.675,1826.57ZM370.675,1834.28C384.25,1834.28 395.271,1845.3 395.271,1858.88C395.271,1872.45 384.25,1883.47 370.675,1883.47C357.1,1883.47 346.079,1872.45 346.079,1858.88C346.079,1845.3 357.1,1834.28 370.675,1834.28Z" style="fill:rgb(175,175,175);"/>
                </g>
            </g>
            <g id="Face-ID" transform="matrix(0.63043,0,0,0.63043,187.473,59.1379)">
                <g>
                    <g>
                        <g id="Corners">
                            <g id="Corner">
                                <path d="M4.114,21.943L4.114,13.029C4.114,7.993 7.993,4.114 13.029,4.114L21.943,4.114C23.079,4.114 24,3.193 24,2.057C24,0.921 23.079,0 21.943,0L13.029,0C5.721,0 0,5.721 0,13.029L0,21.943C0,23.079 0.921,24 2.057,24C3.193,24 4.114,23.079 4.114,21.943Z" style="fill:rgb(175,175,175);fill-rule:nonzero;"/>
                            </g>
                            <g id="Corner1" serif:id="Corner" transform="matrix(-1,0,0,1,80,0)">
                                <path d="M4.114,21.943L4.114,13.029C4.114,7.993 7.993,4.114 13.029,4.114L21.943,4.114C23.079,4.114 24,3.193 24,2.057C24,0.921 23.079,0 21.943,0L13.029,0C5.721,0 0,5.721 0,13.029L0,21.943C0,23.079 0.921,24 2.057,24C3.193,24 4.114,23.079 4.114,21.943Z" style="fill:rgb(175,175,175);fill-rule:nonzero;"/>
                            </g>
                            <g id="Corner2" serif:id="Corner" transform="matrix(1,0,0,-1,0,80)">
                                <path d="M4.114,21.943L4.114,13.029C4.114,7.993 7.993,4.114 13.029,4.114L21.943,4.114C23.079,4.114 24,3.193 24,2.057C24,0.921 23.079,0 21.943,0L13.029,0C5.721,0 0,5.721 0,13.029L0,21.943C0,23.079 0.921,24 2.057,24C3.193,24 4.114,23.079 4.114,21.943Z" style="fill:rgb(175,175,175);fill-rule:nonzero;"/>
                            </g>
                            <g id="Corner3" serif:id="Corner" transform="matrix(-1,0,0,-1,80,80)">
                                <path d="M4.114,21.943L4.114,13.029C4.114,7.993 7.993,4.114 13.029,4.114L21.943,4.114C23.079,4.114 24,3.193 24,2.057C24,0.921 23.079,0 21.943,0L13.029,0C5.721,0 0,5.721 0,13.029L0,21.943C0,23.079 0.921,24 2.057,24C3.193,24 4.114,23.079 4.114,21.943Z" style="fill:rgb(175,175,175);fill-rule:nonzero;"/>
                            </g>
                        </g>
                        <g id="Eye" transform="matrix(1,0,0,1,21.7544,28.0702)">
                            <path id="Path" d="M0,2.143L0,7.86C0,9.044 0.895,10.003 2,10.003C3.105,10.003 4,9.044 4,7.86L4,2.143C4,0.959 3.105,0 2,0C0.895,0 0,0.959 0,2.143Z" style="fill:rgb(175,175,175);fill-rule:nonzero;"/>
                        </g>
                        <g id="Eye1" serif:id="Eye" transform="matrix(1,0,0,1,54.7368,28.0702)">
                            <path id="Path1" serif:id="Path" d="M0,2.143L0,7.86C0,9.044 0.895,10.003 2,10.003C3.105,10.003 4,9.044 4,7.86L4,2.143C4,0.959 3.105,0 2,0C0.895,0 0,0.959 0,2.143Z" style="fill:rgb(175,175,175);fill-rule:nonzero;"/>
                        </g>
                        <path id="Mouth" d="M25.932,59.083C29.833,62.724 34.558,64.561 40,64.561C45.442,64.561 50.167,62.724 54.068,59.083C54.918,58.29 54.964,56.957 54.171,56.107C53.377,55.257 52.045,55.211 51.195,56.005C48.079,58.913 44.382,60.351 40,60.351C35.618,60.351 31.921,58.913 28.805,56.005C27.955,55.211 26.623,55.257 25.829,56.107C25.036,56.957 25.082,58.29 25.932,59.083Z" style="fill:rgb(175,175,175);fill-rule:nonzero;"/>
                        <path id="Nose" d="M40,30.175L40,44.912C40,45.855 39.539,46.316 38.591,46.316L37.193,46.316C36.03,46.316 35.088,47.258 35.088,48.421C35.088,49.584 36.03,50.526 37.193,50.526L38.591,50.526C41.863,50.526 44.211,48.182 44.211,44.912L44.211,30.175C44.211,29.013 43.268,28.07 42.105,28.07C40.943,28.07 40,29.013 40,30.175Z" style="fill:rgb(175,175,175);fill-rule:nonzero;"/>
                    </g>
                </g>
            </g>
        </g>
    </g>
</svg>
