<?xml version="1.0" encoding="UTF-8" standalone="no"?>
<!DOCTYPE svg PUBLIC "-//W3C//DTD SVG 1.1//EN" "http://www.w3.org/Graphics/SVG/1.1/DTD/svg11.dtd">
<svg width="100%" height="100%" viewBox="0 0 118 118" version="1.1" xmlns="http://www.w3.org/2000/svg" xmlns:xlink="http://www.w3.org/1999/xlink" xml:space="preserve" xmlns:serif="http://www.serif.com/" style="fill-rule:evenodd;clip-rule:evenodd;stroke-linejoin:round;stroke-miterlimit:2;">
    <rect id="mfa01" x="0" y="0" width="117.576" height="117.576" style="fill:none;"/>
    <g id="mfa011" serif:id="mfa01">
        <g transform="matrix(1,0,0,1,0,2.49899)">
            <g transform="matrix(0.0210574,0,0,0.0210574,61.0927,55.0915)">
                <path d="M2500,1249.98C2500,1940.39 1940.37,2500 1249.97,2500C559.609,2500 0,1940.39 0,1249.98C0,559.619 559.609,0 1249.97,0C1940.37,0 2500,559.619 2500,1249.98Z" style="fill:rgb(236,28,36);fill-rule:nonzero;"/>
            </g>
            <g transform="matrix(0.0210574,0,0,0.0210574,61.0927,55.0915)">
                <path d="M1142.81,985.254L1442.53,1284.86C1485.79,1328.18 1556.04,1328.18 1599.4,1284.86C1642.68,1241.55 1642.77,1171.37 1599.4,1128.05L1299.67,828.32C1085.2,613.809 738.584,610.352 519.57,817.422C517.525,819.121 515.554,820.906 513.662,822.773C512.705,823.73 511.924,824.746 510.977,825.605C510,826.543 509.004,827.383 508.076,828.32C506.182,830.205 504.453,832.188 502.803,834.15C295.625,1053.26 299.189,1399.89 513.672,1614.39L813.398,1914.06C856.758,1957.35 926.904,1957.35 970.254,1914.06C1013.63,1870.73 1013.63,1800.46 970.361,1757.23L670.625,1457.51C539.785,1326.72 538.906,1114.45 667.91,982.539C799.805,853.535 1011.95,854.473 1142.81,985.264L1142.81,985.254ZM1529.65,586.104C1486.34,629.434 1486.34,699.609 1529.77,742.93L1829.38,1042.67C1960.15,1173.45 1961,1385.68 1832,1517.63C1700.07,1646.53 1487.99,1645.67 1357.17,1514.87L1057.44,1215.18C1014.1,1171.85 943.838,1171.85 900.547,1215.18C857.158,1258.47 857.158,1328.87 900.547,1372.06L1200.18,1671.81C1414.71,1886.31 1761.29,1889.8 1980.34,1682.7C1982.37,1680.91 1984.29,1679.24 1986.3,1677.34C1987.22,1676.42 1988.08,1675.47 1988.97,1674.51C1989.94,1673.58 1990.89,1672.73 1991.8,1671.69C1993.72,1669.9 1995.36,1667.94 1997.07,1665.89C2204.25,1446.87 2200.78,1100.35 1986.31,885.723L1686.58,586.094C1643.26,542.705 1572.93,542.705 1529.65,586.104Z" style="fill:white;fill-rule:nonzero;"/>
            </g>
        </g>
        <g transform="matrix(1,0,0,1,-1,2.49899)">
            <g transform="matrix(0.246717,0,0,0.246717,1.81554,51.8412)">
                <path d="M105.787,10.628C122.837,8.633 140.367,10.679 156.457,16.701C170.98,22.133 184.367,30.683 195.275,41.718C185.945,50.969 176.702,60.305 167.384,69.568C161.378,63.678 154.379,58.771 146.676,55.364C136.442,50.777 125.061,48.759 113.876,49.532C101.239,50.346 88.854,54.737 78.55,62.099C65.765,71.114 56.19,84.6 51.98,99.674C48.823,110.733 48.562,122.58 51.11,133.789C53.158,142.957 57.148,151.678 62.694,159.255C67.841,166.303 74.336,172.364 81.723,177.009C90.238,182.388 99.952,185.855 109.95,187.073C118.519,188.149 127.286,187.589 135.652,185.452C136.571,185.01 137.097,186.057 137.673,186.577C147.102,196.055 156.577,205.486 166.009,214.959C149.042,223.199 129.906,226.962 111.087,225.634C95.337,224.59 79.825,220.061 66.022,212.4C60.266,209.252 54.859,205.498 49.745,201.397C45.704,197.969 41.711,194.451 38.237,190.438C32.356,184.099 27.311,176.989 23.154,169.406C22.228,167.62 21.154,165.907 20.4,164.037C19.365,161.942 18.462,159.788 17.564,157.633C16.416,154.561 15.19,151.513 14.352,148.34C14.252,147.921 13.998,147.57 13.769,147.218C11.848,140.585 10.771,133.718 10.195,126.841C9.589,118.194 9.887,109.471 11.301,100.912C14.12,83.443 21.349,66.719 32.099,52.67C39.07,43.528 47.497,35.494 56.97,28.982C71.422,19.004 88.338,12.621 105.787,10.628M117.169,22.311C115.85,22.54 114.633,23.182 113.61,24.031C111.203,26.098 110.337,29.773 111.719,32.659C113.184,36.136 117.542,38.006 121.06,36.594C124.631,35.381 126.795,31.153 125.629,27.554C124.68,23.982 120.787,21.585 117.169,22.311M55.151,48.231C53.917,48.296 52.7,48.675 51.642,49.314C48.988,50.941 47.504,54.346 48.319,57.382C49.034,60.641 52.202,63.182 55.554,63.078C59.032,63.173 62.284,60.442 62.854,57.021C63.372,54.63 62.481,52.034 60.738,50.344C59.294,48.879 57.197,48.117 55.151,48.231M28.313,111.184C26.781,111.469 25.341,112.244 24.253,113.36C22.066,115.609 21.541,119.278 23.091,122.02C24.748,125.251 28.989,126.848 32.344,125.404C35.821,124.129 37.897,119.984 36.756,116.445C35.821,112.878 31.928,110.436 28.313,111.184M54.23,174.149C51.571,174.6 49.259,176.63 48.481,179.213C47.585,181.904 48.451,185.036 50.541,186.934C51.964,188.202 53.874,188.947 55.788,188.859C58.371,188.802 60.875,187.269 62.064,184.971C63.205,182.927 63.256,180.338 62.229,178.236C60.882,175.278 57.412,173.531 54.23,174.149M117.197,200.078C114.475,200.545 112.124,202.64 111.39,205.308C110.494,208.217 111.652,211.615 114.147,213.36C115.966,214.7 118.41,215.135 120.574,214.485C122.798,213.844 124.67,212.115 125.45,209.93C126.601,206.982 125.534,203.376 123.002,201.492C121.377,200.23 119.217,199.716 117.197,200.078Z" style="fill:rgb(160,160,160);fill-rule:nonzero;"/>
            </g>
            <g transform="matrix(0.246717,0,0,0.246717,1.81554,51.8412)">
                <path d="M117.169,22.311C120.787,21.585 124.68,23.982 125.629,27.554C126.795,31.153 124.631,35.381 121.06,36.594C117.542,38.006 113.184,36.136 111.719,32.659C110.337,29.773 111.203,26.098 113.61,24.031C114.633,23.182 115.85,22.54 117.169,22.311Z" style="fill:rgb(193,193,193);fill-rule:nonzero;"/>
            </g>
            <g transform="matrix(0.246717,0,0,0.246717,1.81554,51.8412)">
                <path d="M28.313,111.184C31.928,110.436 35.821,112.878 36.756,116.445C37.897,119.984 35.821,124.129 32.344,125.404C28.989,126.848 24.748,125.251 23.091,122.02C21.541,119.278 22.066,115.609 24.253,113.36C25.341,112.244 26.781,111.469 28.313,111.184Z" style="fill:rgb(193,193,193);fill-rule:nonzero;"/>
            </g>
            <g transform="matrix(0.246717,0,0,0.246717,1.81554,51.8412)">
                <path d="M195.275,41.718L195.3,41.693C201.003,47.506 206.169,53.867 210.486,60.78C218.82,74.009 224.229,89.067 226.194,104.581C227.506,114.968 227.414,125.55 225.719,135.888C222.78,154.406 214.855,172.089 203.061,186.658C193.271,198.805 180.872,208.886 166.86,215.765L166.715,215.705C166.481,215.45 166.245,215.205 166.009,214.959C156.577,205.486 147.102,196.055 137.673,186.577C137.097,186.057 136.571,185.01 135.652,185.452C127.286,187.589 118.519,188.149 109.95,187.073C99.952,185.855 90.238,182.388 81.723,177.009C74.336,172.364 67.841,166.303 62.694,159.255C57.148,151.678 53.158,142.957 51.11,133.789C48.562,122.58 48.823,110.733 51.98,99.674C56.19,84.6 65.765,71.114 78.55,62.099C88.854,54.737 101.239,50.346 113.876,49.532C125.061,48.759 136.442,50.777 146.676,55.364C154.379,58.771 161.378,63.678 167.384,69.568C176.702,60.305 185.945,50.969 195.275,41.718M113.864,84.297C108.951,84.957 104.169,86.676 100.005,89.375C94.663,92.719 90.34,97.61 87.53,103.241C84.156,109.999 83.216,117.87 84.637,125.267C85.547,129.862 87.422,134.266 90.09,138.115C91.925,140.781 94.175,143.128 96.49,145.378C109.758,158.665 123.015,171.962 136.296,185.235C147.657,182.21 158.207,176.222 166.627,168.015C177.067,157.985 184.138,144.538 186.603,130.276C186.658,130.035 186.654,129.602 187.031,129.674C193.889,129.683 200.746,129.672 207.606,129.686C212.013,129.616 216.14,126.267 217.04,121.942C217.091,121.662 217.04,121.405 216.885,121.166C217.167,119.845 217.366,118.486 217.204,117.132L217.149,117.225C216.674,112.517 212.326,108.633 207.602,108.622C188.938,108.606 170.274,108.62 151.608,108.606C150.118,103.495 147.327,98.809 143.732,94.897C137.761,88.532 129.322,84.48 120.583,84.061C118.343,84.066 116.084,83.936 113.864,84.297M180.143,174.17C177.218,174.646 174.734,177.083 174.195,179.997C173.852,181.881 174.163,183.937 175.29,185.517C176.623,187.647 179.178,188.933 181.68,188.815C183.606,188.822 185.448,187.901 186.809,186.58C187.936,185.284 188.764,183.647 188.815,181.904C189.014,179.273 187.644,176.558 185.374,175.202C183.865,174.17 181.928,173.871 180.143,174.17Z" style="fill:rgb(104,104,104);fill-rule:nonzero;"/>
            </g>
            <g transform="matrix(0.246717,0,0,0.246717,1.81554,51.8412)">
                <path d="M55.151,48.231C57.197,48.117 59.294,48.879 60.738,50.344C62.481,52.034 63.372,54.63 62.854,57.021C62.284,60.442 59.032,63.173 55.554,63.078C52.202,63.182 49.034,60.641 48.319,57.382C47.504,54.346 48.988,50.941 51.642,49.314C52.7,48.675 53.917,48.296 55.151,48.231Z" style="fill:rgb(195,195,195);fill-rule:nonzero;"/>
            </g>
            <g transform="matrix(0.246717,0,0,0.246717,1.81554,51.8412)">
                <path d="M113.864,84.297C116.084,83.936 118.343,84.066 120.583,84.061C129.322,84.48 137.761,88.532 143.732,94.897C147.327,98.809 150.118,103.495 151.608,108.606C140.575,108.603 129.54,108.603 118.505,108.603C115.683,108.578 112.897,109.858 111.05,111.985C109.659,113.57 108.795,115.607 108.633,117.711C108.358,120.99 109.874,124.353 112.496,126.339C114.26,127.707 116.496,128.422 118.727,128.376C148.049,128.367 177.373,128.362 206.695,128.383C207.796,128.392 208.914,128.348 209.981,128.04C213.27,127.156 216.003,124.46 216.885,121.166C217.04,121.405 217.091,121.662 217.04,121.942C216.14,126.267 212.013,129.616 207.606,129.686C200.746,129.672 193.889,129.683 187.031,129.674C186.654,129.602 186.658,130.035 186.603,130.276C184.138,144.538 177.067,157.985 166.627,168.015C158.207,176.222 147.657,182.21 136.296,185.235C123.015,171.962 109.758,158.665 96.49,145.378C94.175,143.128 91.925,140.781 90.09,138.115C87.422,134.266 85.547,129.862 84.637,125.267C83.216,117.87 84.156,109.999 87.53,103.241C90.34,97.61 94.663,92.719 100.005,89.375C104.169,86.676 108.951,84.957 113.864,84.297Z" style="fill:rgb(71,71,71);fill-rule:nonzero;"/>
            </g>
            <g transform="matrix(0.246717,0,0,0.246717,1.81554,51.8412)">
                <path d="M111.05,111.985C112.897,109.858 115.683,108.578 118.505,108.603C129.54,108.603 140.575,108.603 151.608,108.606C170.274,108.62 188.938,108.606 207.602,108.622C212.326,108.633 216.674,112.517 217.149,117.225C217.105,117.301 217.015,117.449 216.968,117.523C216.117,113.239 211.976,109.849 207.602,109.874C178.678,109.897 149.754,109.902 120.831,109.913C119.042,109.943 117.188,109.728 115.473,110.367C113.376,111.024 111.601,112.473 110.318,114.232C109.545,115.285 109.302,116.602 108.633,117.711C108.795,115.607 109.659,113.57 111.05,111.985Z" style="fill:rgb(191,191,191);fill-rule:nonzero;"/>
            </g>
            <g transform="matrix(0.246717,0,0,0.246717,1.81554,51.8412)">
                <path d="M54.23,174.149C57.412,173.531 60.882,175.278 62.229,178.236C63.256,180.338 63.205,182.927 62.064,184.971C60.875,187.269 58.371,188.802 55.788,188.859C53.874,188.947 51.964,188.202 50.541,186.934C48.451,185.036 47.585,181.904 48.481,179.213C49.259,176.63 51.571,174.6 54.23,174.149Z" style="fill:rgb(191,191,191);fill-rule:nonzero;"/>
            </g>
            <g transform="matrix(0.246717,0,0,0.246717,1.81554,51.8412)">
                <path d="M115.473,110.367C117.188,109.728 119.042,109.943 120.831,109.913C149.754,109.902 178.678,109.897 207.602,109.874C211.976,109.849 216.117,113.239 216.968,117.523C217.015,117.449 217.105,117.301 217.149,117.225L217.204,117.132C217.366,118.486 217.167,119.845 216.885,121.166C216.003,124.46 213.27,127.156 209.981,128.04C208.914,128.348 207.796,128.392 206.695,128.383C177.373,128.362 148.049,128.367 118.727,128.376C116.496,128.422 114.26,127.707 112.496,126.339C109.874,124.353 108.358,120.99 108.633,117.711C109.302,116.602 109.545,115.285 110.318,114.232C111.601,112.473 113.376,111.024 115.473,110.367Z" style="fill:rgb(176,176,176);fill-rule:nonzero;"/>
            </g>
            <g transform="matrix(0.246717,0,0,0.246717,1.81554,51.8412)">
                <path d="M13.769,147.218C13.998,147.57 14.252,147.921 14.352,148.34C15.19,151.513 16.416,154.561 17.564,157.633C18.462,159.788 19.365,161.942 20.4,164.037C21.154,165.907 22.228,167.62 23.154,169.406C27.311,176.989 32.356,184.099 38.237,190.438C41.711,194.451 45.704,197.969 49.745,201.397C54.859,205.498 60.266,209.252 66.022,212.4C79.825,220.061 95.337,224.59 111.087,225.634C129.906,226.962 149.042,223.199 166.009,214.959C166.245,215.205 166.481,215.45 166.715,215.705L166.722,215.846C156.927,220.713 146.382,224.069 135.578,225.777C122.407,227.837 108.856,227.511 95.811,224.736C80.099,221.414 65.163,214.504 52.434,204.713C37.733,193.458 25.975,178.391 18.675,161.371C16.727,156.772 14.988,152.062 13.769,147.218Z" style="fill:rgb(147,147,147);fill-rule:nonzero;"/>
            </g>
            <g transform="matrix(0.246717,0,0,0.246717,1.81554,51.8412)">
                <path d="M180.143,174.17C181.928,173.871 183.865,174.17 185.374,175.202C187.644,176.558 189.014,179.273 188.815,181.904C188.764,183.647 187.936,185.284 186.809,186.58C185.448,187.901 183.606,188.822 181.68,188.815C179.178,188.933 176.623,187.647 175.29,185.517C174.163,183.937 173.852,181.881 174.195,179.997C174.734,177.083 177.218,174.646 180.143,174.17Z" style="fill:rgb(118,118,118);fill-rule:nonzero;"/>
            </g>
            <g transform="matrix(0.246717,0,0,0.246717,1.81554,51.8412)">
                <path d="M117.197,200.078C119.217,199.716 121.377,200.23 123.002,201.492C125.534,203.376 126.601,206.982 125.45,209.93C124.67,212.115 122.798,213.844 120.574,214.485C118.41,215.135 115.966,214.7 114.147,213.36C111.652,211.615 110.494,208.217 111.39,205.308C112.124,202.64 114.475,200.545 117.197,200.078Z" style="fill:rgb(190,190,190);fill-rule:nonzero;"/>
            </g>
        </g>
        <g transform="matrix(0.0188103,0,0,0.0188103,35.2752,7.20512)">
            <path d="M2345.33,2497L154.666,2497C69.791,2497 1.5,2428.22 1.5,2343.83L1.5,153.166C1.5,68.291 70.278,0 154.666,0L2345.33,0C2430.21,0 2498.5,68.778 2498.5,153.166L2498.5,2343.83C2498.5,2428.71 2430.21,2497 2345.33,2497Z" style="fill:rgb(0,120,215);fill-rule:nonzero;"/>
            <path d="M1719.01,779.977C1719.01,787.294 1719.01,794.123 1718.52,801.44C1661.94,789.245 1602.92,779.489 1541.94,771.685C1537.55,614.128 1408.78,487.791 1250.24,487.791C1091.71,487.791 962.447,614.128 958.545,771.685C897.571,779.489 838.549,789.245 781.965,801.44C781.477,794.123 781.477,786.806 781.477,779.489C781.477,520.473 991.227,310.235 1250.73,310.235C1508.77,311.21 1719.01,520.96 1719.01,779.977ZM1252.19,2186.76C2080.46,1838.48 1954.13,951.679 1954.13,951.679C1760.96,879.486 1517.07,836.561 1251.22,836.561C985.374,836.561 741.478,879.486 548.313,951.679C548.313,951.679 421.975,1838.48 1250.24,2186.76L1252.19,2186.76Z" style="fill:white;fill-rule:nonzero;"/>
            <path d="M1480.48,1628.25C1480.48,1638.49 1479.99,1648.24 1478.53,1658L1023.42,1658C1021.96,1648.24 1021.47,1638.49 1021.47,1628.25C1021.47,1524.83 1089.76,1437.52 1183.9,1408.74C1120.49,1382.4 1075.62,1319.96 1075.62,1246.79C1075.62,1149.72 1154.15,1071.68 1250.73,1071.68C1347.31,1071.68 1425.85,1150.21 1425.85,1246.79C1425.85,1319.96 1380.97,1382.4 1317.56,1408.74C1412.19,1437.03 1480.48,1524.83 1480.48,1628.25Z" style="fill:rgb(0,120,215);fill-rule:nonzero;"/>
        </g>
    </g>
</svg>
