<?xml version="1.0" standalone="no"?>
<!DOCTYPE svg PUBLIC "-//W3C//DTD SVG 20010904//EN"
 "http://www.w3.org/TR/2001/REC-SVG-20010904/DTD/svg10.dtd">
<svg version="1.0" xmlns="http://www.w3.org/2000/svg"
 width="257.000000pt" height="257.000000pt" viewBox="0 0 257.000000 257.000000"
 preserveAspectRatio="xMidYMid meet">
<metadata>
Created by potrace 1.11, written by Peter Selinger 2001-2013
</metadata>
<g transform="translate(0.000000,257.000000) scale(0.100000,-0.100000)"
fill="#000000" stroke="none">
<path d="M1486 2562 c-3 -6 -63 -254 -101 -422 -2 -8 -15 -67 -30 -130 -14
-63 -29 -126 -31 -140 -3 -14 -17 -72 -31 -130 -27 -113 -32 -133 -39 -168 -2
-12 -14 -62 -25 -110 -12 -48 -23 -98 -26 -112 -2 -14 -10 -50 -18 -80 -8 -30
-16 -66 -19 -80 -3 -14 -52 -230 -111 -480 -58 -250 -117 -504 -131 -565 -14
-60 -27 -118 -30 -128 -5 -16 2 -17 97 -15 l103 3 18 75 c10 41 20 85 23 98 3
12 7 34 10 50 3 15 8 35 11 44 3 9 7 27 9 40 2 13 13 61 24 108 41 171 100
426 105 450 7 34 11 52 34 150 25 104 63 267 137 590 69 300 59 258 85 365 12
50 24 101 26 114 8 39 104 455 109 469 3 9 -20 12 -95 12 -54 0 -101 -4 -104
-8z"/>
<path d="M635 1749 c-104 -61 -266 -157 -360 -212 -93 -55 -194 -114 -222
-131 l-53 -31 0 -146 0 -147 48 -29 c26 -16 90 -55 142 -85 133 -77 426 -250
543 -319 l97 -58 0 142 0 143 -192 109 c-106 60 -246 139 -311 176 -65 37
-115 69 -110 72 4 3 24 14 43 24 198 111 539 305 553 315 16 12 17 28 15 151
l-3 138 -190 -112z"/>
<path d="M1732 1720 l3 -142 90 -52 c50 -29 115 -66 145 -83 76 -42 330 -187
357 -203 20 -13 16 -16 -75 -68 -142 -81 -172 -98 -355 -202 l-167 -95 0 -137
c0 -76 3 -138 8 -138 4 0 33 16 65 35 32 19 60 35 63 35 3 0 17 8 32 19 15 10
83 52 152 92 154 89 320 186 340 199 8 5 50 29 93 54 l77 46 0 148 c0 129 -2
148 -17 158 -10 6 -38 22 -63 36 -25 14 -169 99 -320 188 -279 165 -312 184
-388 228 l-43 24 3 -142z"/>
</g>
</svg>
