<?xml version="1.0" encoding="UTF-8"?>
<svg width="256px" height="330px" viewBox="0 0 256 330" version="1.1" xmlns="http://www.w3.org/2000/svg" preserveAspectRatio="xMidYMid">
    <title>Hono</title>
    <g>
        <path d="M134.128914,0.0285241348 C135.004876,-0.084095988 135.778135,0.136772398 136.448027,0.691127966 C161.092252,30.7691013 184.283386,61.9114813 206.02143,94.1182682 C222.115414,118.349028 235.808785,143.969267 247.102867,170.980313 C265.139606,219.088001 255.752498,260.942698 218.942204,296.543739 C186.734357,323.764829 149.628543,334.366491 107.624761,328.348723 C57.4172806,318.112156 23.292852,289.068242 5.25246878,241.216319 C0.553348662,225.63784 -0.992704858,209.735348 0.614241954,193.508843 C3.29010127,165.578104 9.91613958,138.631994 20.4923569,112.671176 C24.8992687,102.078791 30.6421224,92.3610429 37.7200565,83.5166069 C43.4946489,90.3944347 49.0161266,97.4624298 54.2851523,104.71993 C56.7248596,107.270292 59.2646201,109.70006 61.9050964,112.008572 C82.0595171,72.011154 106.134565,34.6845598 134.128914,0.0285241348 Z" fill="#FF5B11" opacity="0.993"></path>
        <path d="M129.490687,53.6994345 C153.80361,81.8998536 175.780191,111.937673 195.419768,143.813556 C201.577346,154.360883 206.656867,165.404501 210.659657,176.943747 C218.997863,209.747938 210.052711,236.804703 183.824201,258.112717 C158.457076,275.962601 130.627715,281.263432 100.336119,274.015209 C67.6704123,263.878695 48.7862031,241.902114 43.683491,208.086127 C42.4450844,197.424169 43.549645,187.043155 46.9965102,176.943747 C51.9117054,164.462279 57.8751399,152.53541 64.8868136,141.16314 C71.5128519,131.44473 78.1388903,121.726982 84.7649286,112.008572 C99.8166372,92.6539138 114.725223,73.2177556 129.490687,53.6994345 Z" fill="#FF9758"></path>
    </g>
</svg>
