<svg xmlns="http://www.w3.org/2000/svg" xmlns:xlink="http://www.w3.org/1999/xlink" width="500" zoomAndPan="magnify" viewBox="0 0 375 374.999991" height="500" preserveAspectRatio="xMidYMid meet" version="1.0"><defs><clipPath id="0b6ffeb5c8"><path d="M 187.5 0 C 83.945312 0 0 83.945312 0 187.5 C 0 291.054688 83.945312 375 187.5 375 C 291.054688 375 375 291.054688 375 187.5 C 375 83.945312 291.054688 0 187.5 0 Z M 187.5 0 " clip-rule="nonzero"/></clipPath><clipPath id="3768169a3c"><path d="M 137 94.300781 L 238 94.300781 L 238 120 L 137 120 Z M 137 94.300781 " clip-rule="nonzero"/></clipPath><clipPath id="e990912f0b"><path d="M 86.097656 275 L 289 275 L 289 297.503906 L 86.097656 297.503906 Z M 86.097656 275 " clip-rule="nonzero"/></clipPath></defs><g clip-path="url(#0b6ffeb5c8)"><rect x="-37.5" width="450" fill="#000000" y="-37.499999" height="449.999989" fill-opacity="1"/></g><path fill="#ffffff" d="M 267.359375 242.78125 L 107.640625 242.78125 L 101.558594 268.128906 L 273.4375 268.128906 Z M 267.359375 242.78125 " fill-opacity="1" fill-rule="nonzero"/><g clip-path="url(#3768169a3c)"><path fill="#ffffff" d="M 223.167969 94.300781 L 151.828125 94.300781 C 151.21875 94.304688 150.617188 94.355469 150.019531 94.457031 C 149.421875 94.558594 148.835938 94.707031 148.261719 94.910156 C 147.6875 95.109375 147.136719 95.355469 146.605469 95.644531 C 146.074219 95.9375 145.570312 96.273438 145.09375 96.648438 C 144.617188 97.023438 144.175781 97.4375 143.769531 97.886719 C 143.363281 98.339844 142.996094 98.820312 142.667969 99.332031 C 142.34375 99.84375 142.058594 100.378906 141.824219 100.9375 C 141.585938 101.496094 141.398438 102.070312 141.257812 102.660156 L 137.179688 119.652344 L 237.835938 119.652344 L 233.734375 102.632812 C 233.59375 102.042969 233.402344 101.46875 233.167969 100.914062 C 232.929688 100.355469 232.644531 99.820312 232.320312 99.3125 C 231.992188 98.800781 231.625 98.320312 231.21875 97.875 C 230.8125 97.425781 230.371094 97.011719 229.894531 96.636719 C 229.417969 96.261719 228.914062 95.929688 228.382812 95.640625 C 227.851562 95.347656 227.300781 95.101562 226.726562 94.90625 C 226.15625 94.707031 225.570312 94.554688 224.972656 94.453125 C 224.375 94.351562 223.773438 94.300781 223.167969 94.300781 Z M 223.167969 94.300781 " fill-opacity="1" fill-rule="nonzero"/></g><g clip-path="url(#e990912f0b)"><path fill="#ffffff" d="M 89.71875 275.371094 L 285.277344 275.371094 C 285.757812 275.371094 286.21875 275.464844 286.660156 275.648438 C 287.105469 275.832031 287.496094 276.09375 287.835938 276.433594 C 288.175781 276.773438 288.4375 277.164062 288.621094 277.609375 C 288.804688 278.050781 288.898438 278.511719 288.898438 278.992188 L 288.898438 293.480469 C 288.898438 293.960938 288.804688 294.421875 288.621094 294.867188 C 288.4375 295.308594 288.175781 295.699219 287.835938 296.039062 C 287.496094 296.378906 287.105469 296.640625 286.660156 296.824219 C 286.21875 297.007812 285.757812 297.101562 285.277344 297.101562 L 89.71875 297.101562 C 89.238281 297.101562 88.777344 297.007812 88.335938 296.824219 C 87.890625 296.640625 87.5 296.378906 87.160156 296.039062 C 86.820312 295.699219 86.558594 295.308594 86.375 294.867188 C 86.191406 294.421875 86.097656 293.960938 86.097656 293.480469 L 86.097656 278.992188 C 86.097656 278.511719 86.191406 278.050781 86.375 277.609375 C 86.558594 277.164062 86.820312 276.773438 87.160156 276.433594 C 87.5 276.09375 87.890625 275.832031 88.335938 275.648438 C 88.777344 275.464844 89.238281 275.371094 89.71875 275.371094 Z M 89.71875 275.371094 " fill-opacity="1" fill-rule="nonzero"/></g><path fill="#ffffff" d="M 128.5 155.867188 L 246.5 155.867188 L 239.546875 126.894531 L 135.453125 126.894531 Z M 128.5 155.867188 " fill-opacity="1" fill-rule="nonzero"/><path fill="#ffffff" d="M 109.378906 235.535156 L 265.617188 235.535156 L 256.925781 199.324219 L 118.070312 199.324219 Z M 109.378906 235.535156 " fill-opacity="1" fill-rule="nonzero"/><path fill="#ffffff" d="M 126.753906 163.109375 L 119.804688 192.078125 L 255.191406 192.078125 L 248.242188 163.109375 Z M 126.753906 163.109375 " fill-opacity="1" fill-rule="nonzero"/></svg>